M48
; DRILL file {KiCad (7.0.0)} date Sun Feb 19 00:22:23 2023
; FORMAT={-:-/ absolute / metric / decimal}
; #@! TF.CreationDate,2023-02-19T00:22:23-05:00
; #@! TF.GenerationSoftware,Kicad,Pcbnew,(7.0.0)
; #@! TF.FileFunction,MixedPlating,1,4
FMAT,2
METRIC
; #@! TA.AperFunction,Plated,PTH,ViaDrill
T1C0.254
; #@! TA.AperFunction,Plated,PTH,ViaDrill
T2C0.300
; #@! TA.AperFunction,Plated,PTH,ComponentDrill
T3C1.000
; #@! TA.AperFunction,Plated,PTH,ComponentDrill
T4C3.200
; #@! TA.AperFunction,NonPlated,NPTH,ComponentDrill
T5C0.991
%
G90
G05
T1
X143.256Y-76.581
X144.526Y-77.089
X148.59Y-75.057
T2
X118.694Y-75.438
X118.77Y-72.111
X118.77Y-79.223
X121.031Y-79.324
X121.539Y-82.677
X121.564Y-72.009
X123.571Y-79.273
X123.825Y-81.026
X123.952Y-72.072
X124.257Y-78.664
X124.739Y-72.593
X125.349Y-71.565
X126.238Y-100.711
X126.492Y-98.679
X127.203Y-72.695
X127.203Y-78.562
X127.279Y-74.752
X127.305Y-76.886
X127.635Y-85.725
X127.635Y-91.059
X128.016Y-70.612
X128.067Y-92.761
X128.397Y-77.851
X128.524Y-76.886
X128.778Y-95.631
X129.007Y-74.752
X130.556Y-81.915
X131.318Y-95.631
X131.572Y-71.438
X132.08Y-74.676
X132.588Y-83.439
X133.35Y-82.931
X133.858Y-95.631
X134.239Y-83.439
X134.366Y-91.313
X135.001Y-82.931
X135.001Y-91.313
X135.636Y-68.58
X135.636Y-91.313
X135.763Y-83.439
X136.398Y-95.631
X136.525Y-65.024
X136.652Y-82.931
X137.16Y-79.883
X137.185Y-94.945
X137.82Y-94.945
X138.455Y-94.945
X138.938Y-95.631
X140.547Y-78.671
X140.589Y-80.67
X140.591Y-79.67
X141.478Y-95.631
X141.986Y-86.487
X142.494Y-68.58
X142.748Y-88.328
X142.748Y-88.963
X142.748Y-92.265
X142.748Y-92.9
X144.018Y-95.631
X144.526Y-80.264
X146.558Y-95.631
X147.447Y-94.043
X147.828Y-84.074
X149.352Y-68.58
X151.384Y-82.296
X151.511Y-73.406
X151.511Y-76.2
X151.956Y-89.662
X151.956Y-91.567
X153.543Y-84.582
X153.67Y-71.882
X156.21Y-68.58
T3
X119.761Y-83.439
X119.761Y-85.979
X119.761Y-88.519
X119.761Y-91.059
X119.761Y-93.599
X119.761Y-96.139
X119.761Y-98.679
X119.761Y-101.219
X128.778Y-101.219
X131.318Y-101.219
X133.858Y-101.219
X136.398Y-101.219
X137.922Y-64.77
X138.938Y-101.219
X140.462Y-64.77
X141.478Y-101.219
X143.002Y-64.77
X144.018Y-101.219
X145.542Y-64.77
X146.558Y-101.219
X148.082Y-64.77
X150.622Y-64.77
X153.162Y-64.77
X155.702Y-64.77
X156.21Y-82.931
X156.21Y-85.471
X156.21Y-88.011
X156.21Y-90.551
X156.21Y-93.091
X156.21Y-95.631
X156.21Y-98.171
X156.21Y-100.711
T4
X121.158Y-66.167
X151.638Y-99.822
T5
X141.986Y-75.057
X147.066Y-74.041
X147.066Y-76.073
T0
M30
