%TF.GenerationSoftware,KiCad,Pcbnew,(7.0.0)*%
%TF.CreationDate,2023-02-19T00:42:13-05:00*%
%TF.ProjectId,CANBoard,43414e42-6f61-4726-942e-6b696361645f,v1*%
%TF.SameCoordinates,Original*%
%TF.FileFunction,Copper,L2,Inr*%
%TF.FilePolarity,Positive*%
%FSLAX46Y46*%
G04 Gerber Fmt 4.6, Leading zero omitted, Abs format (unit mm)*
G04 Created by KiCad (PCBNEW (7.0.0)) date 2023-02-19 00:42:13*
%MOMM*%
%LPD*%
G01*
G04 APERTURE LIST*
%TA.AperFunction,ComponentPad*%
%ADD10O,1.700000X1.700000*%
%TD*%
%TA.AperFunction,ComponentPad*%
%ADD11C,1.700000*%
%TD*%
%TA.AperFunction,ComponentPad*%
%ADD12C,5.600000*%
%TD*%
%TA.AperFunction,ViaPad*%
%ADD13C,0.508000*%
%TD*%
%TA.AperFunction,ViaPad*%
%ADD14C,0.600000*%
%TD*%
G04 APERTURE END LIST*
D10*
X146557999Y-101218999D03*
X144017999Y-101218999D03*
X141477999Y-101218999D03*
X138937999Y-101218999D03*
X136397999Y-101218999D03*
X133857999Y-101218999D03*
X131317999Y-101218999D03*
D11*
X128778000Y-101219000D03*
D12*
X151638000Y-99822000D03*
X121158000Y-66167000D03*
D10*
X137921999Y-64769999D03*
X140461999Y-64769999D03*
X143001999Y-64769999D03*
X145541999Y-64769999D03*
X148081999Y-64769999D03*
X150621999Y-64769999D03*
X153161999Y-64769999D03*
D11*
X155702000Y-64770000D03*
D10*
X156209999Y-100710999D03*
X156209999Y-98170999D03*
X156209999Y-95630999D03*
X156209999Y-93090999D03*
X156209999Y-90550999D03*
X156209999Y-88010999D03*
X156209999Y-85470999D03*
D11*
X156210000Y-82931000D03*
D10*
X119760999Y-101218999D03*
X119760999Y-98678999D03*
X119760999Y-96138999D03*
X119760999Y-93598999D03*
X119760999Y-91058999D03*
X119760999Y-88518999D03*
X119760999Y-85978999D03*
D11*
X119761000Y-83439000D03*
D13*
X143256000Y-76581000D03*
X144526000Y-77089000D03*
D14*
X142748000Y-92265500D03*
X142748000Y-88328500D03*
X142748000Y-92900500D03*
X142748000Y-88963500D03*
X129006600Y-74752200D03*
X128524000Y-76885800D03*
X127304800Y-76885800D03*
X142494000Y-68580000D03*
X137185400Y-94945200D03*
X137820400Y-94945200D03*
X138455400Y-94945200D03*
X124739400Y-72593200D03*
X127203200Y-78562200D03*
X127279400Y-74752200D03*
X127203200Y-72694800D03*
X123952000Y-72072500D03*
X141986000Y-86487000D03*
X127635000Y-91059000D03*
X135636000Y-68580000D03*
X144526000Y-80264000D03*
X137160000Y-79883000D03*
X118770400Y-79222600D03*
X121564400Y-72009000D03*
X126238000Y-100711000D03*
X149352000Y-68580000D03*
X132080000Y-74676000D03*
X121539000Y-82677000D03*
X121031000Y-79324200D03*
X118770400Y-72110600D03*
X124256800Y-78663800D03*
X156210000Y-68580000D03*
X125349000Y-71564508D03*
X123571000Y-79273400D03*
X136525000Y-65024000D03*
X118694200Y-75438000D03*
X127635000Y-85725000D03*
D13*
X148590000Y-75057000D03*
D14*
X128397000Y-77851000D03*
X135001000Y-91313000D03*
X135636000Y-91313000D03*
X128016000Y-70612000D03*
X147828000Y-84074000D03*
X134366000Y-91313000D03*
X123825000Y-81026000D03*
X151511000Y-76200000D03*
X130556000Y-81915000D03*
X128066693Y-92760692D03*
X126492000Y-98679000D03*
X132588000Y-83439000D03*
X153670000Y-71882000D03*
X151384000Y-82296000D03*
X147447000Y-94043500D03*
X151955500Y-91567000D03*
X133350000Y-82931000D03*
X128778000Y-95631000D03*
X134239000Y-83439000D03*
X131318000Y-95631000D03*
X133858000Y-95631000D03*
X135001000Y-82931000D03*
X136398000Y-95631000D03*
X135763000Y-83439000D03*
X138938000Y-95631000D03*
X136652000Y-82931000D03*
X140588960Y-80670000D03*
X141478000Y-95631000D03*
X140590633Y-79669990D03*
X144018000Y-95631000D03*
X140546815Y-78670938D03*
X146558000Y-95631000D03*
X153543000Y-84582000D03*
X151955500Y-89662000D03*
X131572000Y-71437500D03*
X151511000Y-73406000D03*
%TA.AperFunction,Conductor*%
G36*
X154903300Y-63075673D02*
G01*
X155061564Y-63083967D01*
X155209545Y-63091723D01*
X155222661Y-63093100D01*
X155436206Y-63126923D01*
X155522307Y-63140560D01*
X155535207Y-63143302D01*
X155828248Y-63221822D01*
X155840790Y-63225897D01*
X156124014Y-63334617D01*
X156136046Y-63339973D01*
X156406376Y-63477713D01*
X156417785Y-63484300D01*
X156672223Y-63649534D01*
X156682877Y-63657275D01*
X156831315Y-63777477D01*
X156918660Y-63848207D01*
X156928461Y-63857033D01*
X157142966Y-64071538D01*
X157151792Y-64081339D01*
X157342719Y-64317115D01*
X157350467Y-64327780D01*
X157376668Y-64368125D01*
X157515695Y-64582208D01*
X157522290Y-64593630D01*
X157660022Y-64863945D01*
X157665386Y-64875994D01*
X157774101Y-65159208D01*
X157778177Y-65171751D01*
X157856697Y-65464792D01*
X157859439Y-65477692D01*
X157906898Y-65777337D01*
X157908276Y-65790453D01*
X157924327Y-66096699D01*
X157924500Y-66103294D01*
X157924500Y-99896706D01*
X157924327Y-99903301D01*
X157908276Y-100209546D01*
X157906898Y-100222662D01*
X157859439Y-100522307D01*
X157856697Y-100535207D01*
X157778177Y-100828248D01*
X157774101Y-100840791D01*
X157665386Y-101124005D01*
X157660022Y-101136054D01*
X157522290Y-101406369D01*
X157515695Y-101417791D01*
X157350470Y-101672215D01*
X157342719Y-101682884D01*
X157151792Y-101918660D01*
X157142966Y-101928461D01*
X156928461Y-102142966D01*
X156918660Y-102151792D01*
X156682884Y-102342719D01*
X156672215Y-102350470D01*
X156417791Y-102515695D01*
X156406369Y-102522290D01*
X156136054Y-102660022D01*
X156124005Y-102665386D01*
X155840791Y-102774101D01*
X155828248Y-102778177D01*
X155535207Y-102856697D01*
X155522307Y-102859439D01*
X155222662Y-102906898D01*
X155209546Y-102908276D01*
X154903301Y-102924327D01*
X154896706Y-102924500D01*
X152763142Y-102924500D01*
X152697307Y-102905933D01*
X152650875Y-102855703D01*
X152637530Y-102788614D01*
X152661206Y-102724439D01*
X152714924Y-102682091D01*
X152768203Y-102660022D01*
X152965386Y-102578346D01*
X153265653Y-102412394D01*
X153545450Y-102213867D01*
X153801261Y-101985261D01*
X154029867Y-101729450D01*
X154228394Y-101449653D01*
X154394346Y-101149386D01*
X154525635Y-100832427D01*
X154560617Y-100711000D01*
X155100768Y-100711000D01*
X155101306Y-100716806D01*
X155119116Y-100909015D01*
X155119117Y-100909025D01*
X155119655Y-100914821D01*
X155121249Y-100920426D01*
X155121250Y-100920427D01*
X155143092Y-100997196D01*
X155175672Y-101111701D01*
X155192809Y-101146117D01*
X155231692Y-101224205D01*
X155266912Y-101294935D01*
X155270421Y-101299582D01*
X155270422Y-101299583D01*
X155386755Y-101453634D01*
X155386759Y-101453638D01*
X155390268Y-101458285D01*
X155394570Y-101462207D01*
X155394573Y-101462210D01*
X155482466Y-101542335D01*
X155541538Y-101596186D01*
X155715573Y-101703944D01*
X155906444Y-101777888D01*
X156107653Y-101815500D01*
X156306519Y-101815500D01*
X156312347Y-101815500D01*
X156513556Y-101777888D01*
X156704427Y-101703944D01*
X156878462Y-101596186D01*
X157029732Y-101458285D01*
X157153088Y-101294935D01*
X157244328Y-101111701D01*
X157300345Y-100914821D01*
X157319232Y-100711000D01*
X157300345Y-100507179D01*
X157244328Y-100310299D01*
X157153088Y-100127065D01*
X157029732Y-99963715D01*
X157025429Y-99959792D01*
X157025426Y-99959789D01*
X156882764Y-99829736D01*
X156882765Y-99829736D01*
X156878462Y-99825814D01*
X156873512Y-99822749D01*
X156873508Y-99822746D01*
X156709387Y-99721127D01*
X156709386Y-99721126D01*
X156704427Y-99718056D01*
X156680898Y-99708941D01*
X156518989Y-99646216D01*
X156518981Y-99646213D01*
X156513556Y-99644112D01*
X156507839Y-99643043D01*
X156507831Y-99643041D01*
X156318073Y-99607570D01*
X156318069Y-99607569D01*
X156312347Y-99606500D01*
X156107653Y-99606500D01*
X156101931Y-99607569D01*
X156101926Y-99607570D01*
X155912168Y-99643041D01*
X155912157Y-99643043D01*
X155906444Y-99644112D01*
X155901021Y-99646212D01*
X155901010Y-99646216D01*
X155721011Y-99715949D01*
X155721008Y-99715950D01*
X155715573Y-99718056D01*
X155710617Y-99721124D01*
X155710612Y-99721127D01*
X155546491Y-99822746D01*
X155546481Y-99822752D01*
X155541538Y-99825814D01*
X155537239Y-99829732D01*
X155537235Y-99829736D01*
X155394573Y-99959789D01*
X155394565Y-99959797D01*
X155390268Y-99963715D01*
X155386763Y-99968355D01*
X155386755Y-99968365D01*
X155270422Y-100122416D01*
X155270418Y-100122421D01*
X155266912Y-100127065D01*
X155264317Y-100132274D01*
X155264314Y-100132281D01*
X155216091Y-100229127D01*
X155175672Y-100310299D01*
X155174078Y-100315899D01*
X155174076Y-100315906D01*
X155130862Y-100467789D01*
X155119655Y-100507179D01*
X155119118Y-100512972D01*
X155119116Y-100512984D01*
X155108235Y-100630416D01*
X155100768Y-100711000D01*
X154560617Y-100711000D01*
X154620610Y-100502761D01*
X154678077Y-100164534D01*
X154697313Y-99822000D01*
X154678077Y-99479466D01*
X154620610Y-99141239D01*
X154525635Y-98811573D01*
X154394346Y-98494614D01*
X154277682Y-98283526D01*
X154230101Y-98197435D01*
X154230098Y-98197430D01*
X154228394Y-98194347D01*
X154211828Y-98171000D01*
X155100768Y-98171000D01*
X155101306Y-98176806D01*
X155119116Y-98369015D01*
X155119117Y-98369025D01*
X155119655Y-98374821D01*
X155121249Y-98380426D01*
X155121250Y-98380427D01*
X155154668Y-98497882D01*
X155175672Y-98571701D01*
X155266912Y-98754935D01*
X155270421Y-98759582D01*
X155270422Y-98759583D01*
X155386755Y-98913634D01*
X155386759Y-98913638D01*
X155390268Y-98918285D01*
X155394570Y-98922207D01*
X155394573Y-98922210D01*
X155441727Y-98965196D01*
X155541538Y-99056186D01*
X155715573Y-99163944D01*
X155906444Y-99237888D01*
X156107653Y-99275500D01*
X156306519Y-99275500D01*
X156312347Y-99275500D01*
X156513556Y-99237888D01*
X156704427Y-99163944D01*
X156878462Y-99056186D01*
X157029732Y-98918285D01*
X157153088Y-98754935D01*
X157244328Y-98571701D01*
X157300345Y-98374821D01*
X157319232Y-98171000D01*
X157300345Y-97967179D01*
X157244328Y-97770299D01*
X157153088Y-97587065D01*
X157029732Y-97423715D01*
X157025429Y-97419792D01*
X157025426Y-97419789D01*
X156882764Y-97289736D01*
X156882765Y-97289736D01*
X156878462Y-97285814D01*
X156873512Y-97282749D01*
X156873508Y-97282746D01*
X156709387Y-97181127D01*
X156709386Y-97181126D01*
X156704427Y-97178056D01*
X156680898Y-97168941D01*
X156518989Y-97106216D01*
X156518981Y-97106213D01*
X156513556Y-97104112D01*
X156507839Y-97103043D01*
X156507831Y-97103041D01*
X156318073Y-97067570D01*
X156318069Y-97067569D01*
X156312347Y-97066500D01*
X156107653Y-97066500D01*
X156101931Y-97067569D01*
X156101926Y-97067570D01*
X155912168Y-97103041D01*
X155912157Y-97103043D01*
X155906444Y-97104112D01*
X155901021Y-97106212D01*
X155901010Y-97106216D01*
X155721011Y-97175949D01*
X155721008Y-97175950D01*
X155715573Y-97178056D01*
X155710617Y-97181124D01*
X155710612Y-97181127D01*
X155546491Y-97282746D01*
X155546481Y-97282752D01*
X155541538Y-97285814D01*
X155537239Y-97289732D01*
X155537235Y-97289736D01*
X155394573Y-97419789D01*
X155394565Y-97419797D01*
X155390268Y-97423715D01*
X155386763Y-97428355D01*
X155386755Y-97428365D01*
X155270422Y-97582416D01*
X155270418Y-97582421D01*
X155266912Y-97587065D01*
X155264317Y-97592274D01*
X155264314Y-97592281D01*
X155232390Y-97656394D01*
X155175672Y-97770299D01*
X155174078Y-97775899D01*
X155174076Y-97775906D01*
X155134629Y-97914550D01*
X155119655Y-97967179D01*
X155119118Y-97972972D01*
X155119116Y-97972984D01*
X155101306Y-98165194D01*
X155100768Y-98171000D01*
X154211828Y-98171000D01*
X154029867Y-97914550D01*
X153801261Y-97658739D01*
X153545450Y-97430133D01*
X153265653Y-97231606D01*
X153262574Y-97229904D01*
X153262564Y-97229898D01*
X152968482Y-97067365D01*
X152968480Y-97067364D01*
X152965386Y-97065654D01*
X152855803Y-97020263D01*
X152651695Y-96935718D01*
X152651684Y-96935714D01*
X152648427Y-96934365D01*
X152558764Y-96908533D01*
X152322151Y-96840366D01*
X152322140Y-96840363D01*
X152318761Y-96839390D01*
X152315297Y-96838801D01*
X152315282Y-96838798D01*
X151984018Y-96782514D01*
X151984001Y-96782512D01*
X151980534Y-96781923D01*
X151977019Y-96781725D01*
X151977005Y-96781724D01*
X151641526Y-96762885D01*
X151638000Y-96762687D01*
X151634474Y-96762885D01*
X151298994Y-96781724D01*
X151298978Y-96781725D01*
X151295466Y-96781923D01*
X151292000Y-96782511D01*
X151291981Y-96782514D01*
X150960717Y-96838798D01*
X150960698Y-96838802D01*
X150957239Y-96839390D01*
X150953863Y-96840362D01*
X150953848Y-96840366D01*
X150630971Y-96933386D01*
X150627573Y-96934365D01*
X150624320Y-96935712D01*
X150624304Y-96935718D01*
X150313882Y-97064300D01*
X150313876Y-97064302D01*
X150310614Y-97065654D01*
X150307526Y-97067360D01*
X150307517Y-97067365D01*
X150013435Y-97229898D01*
X150013417Y-97229908D01*
X150010347Y-97231606D01*
X150007478Y-97233641D01*
X150007471Y-97233646D01*
X149733418Y-97428097D01*
X149733406Y-97428106D01*
X149730550Y-97430133D01*
X149727935Y-97432469D01*
X149727926Y-97432477D01*
X149477362Y-97656394D01*
X149477353Y-97656402D01*
X149474739Y-97658739D01*
X149472402Y-97661353D01*
X149472394Y-97661362D01*
X149248477Y-97911926D01*
X149248469Y-97911935D01*
X149246133Y-97914550D01*
X149244106Y-97917406D01*
X149244097Y-97917418D01*
X149049646Y-98191471D01*
X149049641Y-98191478D01*
X149047606Y-98194347D01*
X149045908Y-98197417D01*
X149045898Y-98197435D01*
X148883365Y-98491517D01*
X148883360Y-98491526D01*
X148881654Y-98494614D01*
X148880302Y-98497876D01*
X148880300Y-98497882D01*
X148751718Y-98808304D01*
X148751712Y-98808320D01*
X148750365Y-98811573D01*
X148749386Y-98814970D01*
X148749386Y-98814971D01*
X148656366Y-99137848D01*
X148656362Y-99137863D01*
X148655390Y-99141239D01*
X148654802Y-99144698D01*
X148654798Y-99144717D01*
X148598514Y-99475981D01*
X148598511Y-99476000D01*
X148597923Y-99479466D01*
X148597725Y-99482978D01*
X148597724Y-99482994D01*
X148584524Y-99718056D01*
X148578687Y-99822000D01*
X148578885Y-99825526D01*
X148597724Y-100161005D01*
X148597725Y-100161019D01*
X148597923Y-100164534D01*
X148598512Y-100168001D01*
X148598514Y-100168018D01*
X148654798Y-100499282D01*
X148654801Y-100499297D01*
X148655390Y-100502761D01*
X148656363Y-100506140D01*
X148656366Y-100506151D01*
X148717055Y-100716806D01*
X148750365Y-100832427D01*
X148751714Y-100835684D01*
X148751718Y-100835695D01*
X148828468Y-101020984D01*
X148881654Y-101149386D01*
X148883364Y-101152480D01*
X148883365Y-101152482D01*
X149045898Y-101446564D01*
X149045904Y-101446574D01*
X149047606Y-101449653D01*
X149049646Y-101452528D01*
X149229529Y-101706050D01*
X149246133Y-101729450D01*
X149474739Y-101985261D01*
X149730550Y-102213867D01*
X150010347Y-102412394D01*
X150013430Y-102414098D01*
X150013435Y-102414101D01*
X150154758Y-102492207D01*
X150310614Y-102578346D01*
X150507797Y-102660022D01*
X150561076Y-102682091D01*
X150614794Y-102724439D01*
X150638470Y-102788614D01*
X150625125Y-102855703D01*
X150578693Y-102905933D01*
X150512858Y-102924500D01*
X121103294Y-102924500D01*
X121096699Y-102924327D01*
X120790453Y-102908276D01*
X120777337Y-102906898D01*
X120477692Y-102859439D01*
X120464792Y-102856697D01*
X120171751Y-102778177D01*
X120159208Y-102774101D01*
X119875994Y-102665386D01*
X119863945Y-102660022D01*
X119671108Y-102561767D01*
X119621926Y-102517014D01*
X119602373Y-102453458D01*
X119617896Y-102388799D01*
X119664172Y-102341047D01*
X119728311Y-102323500D01*
X119857519Y-102323500D01*
X119863347Y-102323500D01*
X120064556Y-102285888D01*
X120255427Y-102211944D01*
X120429462Y-102104186D01*
X120580732Y-101966285D01*
X120704088Y-101802935D01*
X120795328Y-101619701D01*
X120851345Y-101422821D01*
X120870232Y-101219000D01*
X120851345Y-101015179D01*
X120795328Y-100818299D01*
X120741899Y-100711000D01*
X125678715Y-100711000D01*
X125679793Y-100719188D01*
X125696693Y-100847565D01*
X125696694Y-100847571D01*
X125697772Y-100855754D01*
X125700931Y-100863382D01*
X125700932Y-100863383D01*
X125750484Y-100983013D01*
X125750485Y-100983016D01*
X125753645Y-100990643D01*
X125758671Y-100997194D01*
X125758673Y-100997196D01*
X125791180Y-101039559D01*
X125842526Y-101106474D01*
X125849076Y-101111500D01*
X125898449Y-101149386D01*
X125958357Y-101195355D01*
X126093246Y-101251228D01*
X126238000Y-101270285D01*
X126382754Y-101251228D01*
X126460559Y-101219000D01*
X127668768Y-101219000D01*
X127669306Y-101224806D01*
X127687116Y-101417015D01*
X127687117Y-101417025D01*
X127687655Y-101422821D01*
X127743672Y-101619701D01*
X127834912Y-101802935D01*
X127838421Y-101807582D01*
X127838422Y-101807583D01*
X127954755Y-101961634D01*
X127954759Y-101961638D01*
X127958268Y-101966285D01*
X127962570Y-101970207D01*
X127962573Y-101970210D01*
X128050466Y-102050335D01*
X128109538Y-102104186D01*
X128283573Y-102211944D01*
X128474444Y-102285888D01*
X128675653Y-102323500D01*
X128874519Y-102323500D01*
X128880347Y-102323500D01*
X129081556Y-102285888D01*
X129272427Y-102211944D01*
X129446462Y-102104186D01*
X129597732Y-101966285D01*
X129721088Y-101802935D01*
X129812328Y-101619701D01*
X129868345Y-101422821D01*
X129887232Y-101219000D01*
X130208768Y-101219000D01*
X130209306Y-101224806D01*
X130227116Y-101417015D01*
X130227117Y-101417025D01*
X130227655Y-101422821D01*
X130283672Y-101619701D01*
X130374912Y-101802935D01*
X130378421Y-101807582D01*
X130378422Y-101807583D01*
X130494755Y-101961634D01*
X130494759Y-101961638D01*
X130498268Y-101966285D01*
X130502570Y-101970207D01*
X130502573Y-101970210D01*
X130590466Y-102050335D01*
X130649538Y-102104186D01*
X130823573Y-102211944D01*
X131014444Y-102285888D01*
X131215653Y-102323500D01*
X131414519Y-102323500D01*
X131420347Y-102323500D01*
X131621556Y-102285888D01*
X131812427Y-102211944D01*
X131986462Y-102104186D01*
X132137732Y-101966285D01*
X132261088Y-101802935D01*
X132352328Y-101619701D01*
X132408345Y-101422821D01*
X132427232Y-101219000D01*
X132748768Y-101219000D01*
X132749306Y-101224806D01*
X132767116Y-101417015D01*
X132767117Y-101417025D01*
X132767655Y-101422821D01*
X132823672Y-101619701D01*
X132914912Y-101802935D01*
X132918421Y-101807582D01*
X132918422Y-101807583D01*
X133034755Y-101961634D01*
X133034759Y-101961638D01*
X133038268Y-101966285D01*
X133042570Y-101970207D01*
X133042573Y-101970210D01*
X133130466Y-102050335D01*
X133189538Y-102104186D01*
X133363573Y-102211944D01*
X133554444Y-102285888D01*
X133755653Y-102323500D01*
X133954519Y-102323500D01*
X133960347Y-102323500D01*
X134161556Y-102285888D01*
X134352427Y-102211944D01*
X134526462Y-102104186D01*
X134677732Y-101966285D01*
X134801088Y-101802935D01*
X134892328Y-101619701D01*
X134948345Y-101422821D01*
X134967232Y-101219000D01*
X135288768Y-101219000D01*
X135289306Y-101224806D01*
X135307116Y-101417015D01*
X135307117Y-101417025D01*
X135307655Y-101422821D01*
X135363672Y-101619701D01*
X135454912Y-101802935D01*
X135458421Y-101807582D01*
X135458422Y-101807583D01*
X135574755Y-101961634D01*
X135574759Y-101961638D01*
X135578268Y-101966285D01*
X135582570Y-101970207D01*
X135582573Y-101970210D01*
X135670466Y-102050335D01*
X135729538Y-102104186D01*
X135903573Y-102211944D01*
X136094444Y-102285888D01*
X136295653Y-102323500D01*
X136494519Y-102323500D01*
X136500347Y-102323500D01*
X136701556Y-102285888D01*
X136892427Y-102211944D01*
X137066462Y-102104186D01*
X137217732Y-101966285D01*
X137341088Y-101802935D01*
X137432328Y-101619701D01*
X137488345Y-101422821D01*
X137507232Y-101219000D01*
X137828768Y-101219000D01*
X137829306Y-101224806D01*
X137847116Y-101417015D01*
X137847117Y-101417025D01*
X137847655Y-101422821D01*
X137903672Y-101619701D01*
X137994912Y-101802935D01*
X137998421Y-101807582D01*
X137998422Y-101807583D01*
X138114755Y-101961634D01*
X138114759Y-101961638D01*
X138118268Y-101966285D01*
X138122570Y-101970207D01*
X138122573Y-101970210D01*
X138210466Y-102050335D01*
X138269538Y-102104186D01*
X138443573Y-102211944D01*
X138634444Y-102285888D01*
X138835653Y-102323500D01*
X139034519Y-102323500D01*
X139040347Y-102323500D01*
X139241556Y-102285888D01*
X139432427Y-102211944D01*
X139606462Y-102104186D01*
X139757732Y-101966285D01*
X139881088Y-101802935D01*
X139972328Y-101619701D01*
X140028345Y-101422821D01*
X140047232Y-101219000D01*
X140368768Y-101219000D01*
X140369306Y-101224806D01*
X140387116Y-101417015D01*
X140387117Y-101417025D01*
X140387655Y-101422821D01*
X140443672Y-101619701D01*
X140534912Y-101802935D01*
X140538421Y-101807582D01*
X140538422Y-101807583D01*
X140654755Y-101961634D01*
X140654759Y-101961638D01*
X140658268Y-101966285D01*
X140662570Y-101970207D01*
X140662573Y-101970210D01*
X140750466Y-102050335D01*
X140809538Y-102104186D01*
X140983573Y-102211944D01*
X141174444Y-102285888D01*
X141375653Y-102323500D01*
X141574519Y-102323500D01*
X141580347Y-102323500D01*
X141781556Y-102285888D01*
X141972427Y-102211944D01*
X142146462Y-102104186D01*
X142297732Y-101966285D01*
X142421088Y-101802935D01*
X142512328Y-101619701D01*
X142568345Y-101422821D01*
X142587232Y-101219000D01*
X142908768Y-101219000D01*
X142909306Y-101224806D01*
X142927116Y-101417015D01*
X142927117Y-101417025D01*
X142927655Y-101422821D01*
X142983672Y-101619701D01*
X143074912Y-101802935D01*
X143078421Y-101807582D01*
X143078422Y-101807583D01*
X143194755Y-101961634D01*
X143194759Y-101961638D01*
X143198268Y-101966285D01*
X143202570Y-101970207D01*
X143202573Y-101970210D01*
X143290466Y-102050335D01*
X143349538Y-102104186D01*
X143523573Y-102211944D01*
X143714444Y-102285888D01*
X143915653Y-102323500D01*
X144114519Y-102323500D01*
X144120347Y-102323500D01*
X144321556Y-102285888D01*
X144512427Y-102211944D01*
X144686462Y-102104186D01*
X144837732Y-101966285D01*
X144961088Y-101802935D01*
X145052328Y-101619701D01*
X145108345Y-101422821D01*
X145127232Y-101219000D01*
X145448768Y-101219000D01*
X145449306Y-101224806D01*
X145467116Y-101417015D01*
X145467117Y-101417025D01*
X145467655Y-101422821D01*
X145523672Y-101619701D01*
X145614912Y-101802935D01*
X145618421Y-101807582D01*
X145618422Y-101807583D01*
X145734755Y-101961634D01*
X145734759Y-101961638D01*
X145738268Y-101966285D01*
X145742570Y-101970207D01*
X145742573Y-101970210D01*
X145830466Y-102050335D01*
X145889538Y-102104186D01*
X146063573Y-102211944D01*
X146254444Y-102285888D01*
X146455653Y-102323500D01*
X146654519Y-102323500D01*
X146660347Y-102323500D01*
X146861556Y-102285888D01*
X147052427Y-102211944D01*
X147226462Y-102104186D01*
X147377732Y-101966285D01*
X147501088Y-101802935D01*
X147592328Y-101619701D01*
X147648345Y-101422821D01*
X147667232Y-101219000D01*
X147648345Y-101015179D01*
X147592328Y-100818299D01*
X147501088Y-100635065D01*
X147425679Y-100535207D01*
X147381244Y-100476365D01*
X147381241Y-100476361D01*
X147377732Y-100471715D01*
X147373429Y-100467792D01*
X147373426Y-100467789D01*
X147230764Y-100337736D01*
X147230765Y-100337736D01*
X147226462Y-100333814D01*
X147221512Y-100330749D01*
X147221508Y-100330746D01*
X147057387Y-100229127D01*
X147057386Y-100229126D01*
X147052427Y-100226056D01*
X147009810Y-100209546D01*
X146866989Y-100154216D01*
X146866981Y-100154213D01*
X146861556Y-100152112D01*
X146855839Y-100151043D01*
X146855831Y-100151041D01*
X146666073Y-100115570D01*
X146666069Y-100115569D01*
X146660347Y-100114500D01*
X146455653Y-100114500D01*
X146449931Y-100115569D01*
X146449926Y-100115570D01*
X146260168Y-100151041D01*
X146260157Y-100151043D01*
X146254444Y-100152112D01*
X146249021Y-100154212D01*
X146249010Y-100154216D01*
X146069011Y-100223949D01*
X146069008Y-100223950D01*
X146063573Y-100226056D01*
X146058617Y-100229124D01*
X146058612Y-100229127D01*
X145894491Y-100330746D01*
X145894481Y-100330752D01*
X145889538Y-100333814D01*
X145885239Y-100337732D01*
X145885235Y-100337736D01*
X145742573Y-100467789D01*
X145742565Y-100467797D01*
X145738268Y-100471715D01*
X145734763Y-100476355D01*
X145734755Y-100476365D01*
X145618422Y-100630416D01*
X145618418Y-100630421D01*
X145614912Y-100635065D01*
X145612317Y-100640274D01*
X145612314Y-100640281D01*
X145571121Y-100723008D01*
X145523672Y-100818299D01*
X145522078Y-100823899D01*
X145522076Y-100823906D01*
X145469250Y-101009572D01*
X145467655Y-101015179D01*
X145467118Y-101020972D01*
X145467116Y-101020984D01*
X145454932Y-101152482D01*
X145448768Y-101219000D01*
X145127232Y-101219000D01*
X145108345Y-101015179D01*
X145052328Y-100818299D01*
X144961088Y-100635065D01*
X144885679Y-100535207D01*
X144841244Y-100476365D01*
X144841241Y-100476361D01*
X144837732Y-100471715D01*
X144833429Y-100467792D01*
X144833426Y-100467789D01*
X144690764Y-100337736D01*
X144690765Y-100337736D01*
X144686462Y-100333814D01*
X144681512Y-100330749D01*
X144681508Y-100330746D01*
X144517387Y-100229127D01*
X144517386Y-100229126D01*
X144512427Y-100226056D01*
X144469810Y-100209546D01*
X144326989Y-100154216D01*
X144326981Y-100154213D01*
X144321556Y-100152112D01*
X144315839Y-100151043D01*
X144315831Y-100151041D01*
X144126073Y-100115570D01*
X144126069Y-100115569D01*
X144120347Y-100114500D01*
X143915653Y-100114500D01*
X143909931Y-100115569D01*
X143909926Y-100115570D01*
X143720168Y-100151041D01*
X143720157Y-100151043D01*
X143714444Y-100152112D01*
X143709021Y-100154212D01*
X143709010Y-100154216D01*
X143529011Y-100223949D01*
X143529008Y-100223950D01*
X143523573Y-100226056D01*
X143518617Y-100229124D01*
X143518612Y-100229127D01*
X143354491Y-100330746D01*
X143354481Y-100330752D01*
X143349538Y-100333814D01*
X143345239Y-100337732D01*
X143345235Y-100337736D01*
X143202573Y-100467789D01*
X143202565Y-100467797D01*
X143198268Y-100471715D01*
X143194763Y-100476355D01*
X143194755Y-100476365D01*
X143078422Y-100630416D01*
X143078418Y-100630421D01*
X143074912Y-100635065D01*
X143072317Y-100640274D01*
X143072314Y-100640281D01*
X143031121Y-100723008D01*
X142983672Y-100818299D01*
X142982078Y-100823899D01*
X142982076Y-100823906D01*
X142929250Y-101009572D01*
X142927655Y-101015179D01*
X142927118Y-101020972D01*
X142927116Y-101020984D01*
X142914932Y-101152482D01*
X142908768Y-101219000D01*
X142587232Y-101219000D01*
X142568345Y-101015179D01*
X142512328Y-100818299D01*
X142421088Y-100635065D01*
X142345679Y-100535207D01*
X142301244Y-100476365D01*
X142301241Y-100476361D01*
X142297732Y-100471715D01*
X142293429Y-100467792D01*
X142293426Y-100467789D01*
X142150764Y-100337736D01*
X142150765Y-100337736D01*
X142146462Y-100333814D01*
X142141512Y-100330749D01*
X142141508Y-100330746D01*
X141977387Y-100229127D01*
X141977386Y-100229126D01*
X141972427Y-100226056D01*
X141929810Y-100209546D01*
X141786989Y-100154216D01*
X141786981Y-100154213D01*
X141781556Y-100152112D01*
X141775839Y-100151043D01*
X141775831Y-100151041D01*
X141586073Y-100115570D01*
X141586069Y-100115569D01*
X141580347Y-100114500D01*
X141375653Y-100114500D01*
X141369931Y-100115569D01*
X141369926Y-100115570D01*
X141180168Y-100151041D01*
X141180157Y-100151043D01*
X141174444Y-100152112D01*
X141169021Y-100154212D01*
X141169010Y-100154216D01*
X140989011Y-100223949D01*
X140989008Y-100223950D01*
X140983573Y-100226056D01*
X140978617Y-100229124D01*
X140978612Y-100229127D01*
X140814491Y-100330746D01*
X140814481Y-100330752D01*
X140809538Y-100333814D01*
X140805239Y-100337732D01*
X140805235Y-100337736D01*
X140662573Y-100467789D01*
X140662565Y-100467797D01*
X140658268Y-100471715D01*
X140654763Y-100476355D01*
X140654755Y-100476365D01*
X140538422Y-100630416D01*
X140538418Y-100630421D01*
X140534912Y-100635065D01*
X140532317Y-100640274D01*
X140532314Y-100640281D01*
X140491121Y-100723008D01*
X140443672Y-100818299D01*
X140442078Y-100823899D01*
X140442076Y-100823906D01*
X140389250Y-101009572D01*
X140387655Y-101015179D01*
X140387118Y-101020972D01*
X140387116Y-101020984D01*
X140374932Y-101152482D01*
X140368768Y-101219000D01*
X140047232Y-101219000D01*
X140028345Y-101015179D01*
X139972328Y-100818299D01*
X139881088Y-100635065D01*
X139805679Y-100535207D01*
X139761244Y-100476365D01*
X139761241Y-100476361D01*
X139757732Y-100471715D01*
X139753429Y-100467792D01*
X139753426Y-100467789D01*
X139610764Y-100337736D01*
X139610765Y-100337736D01*
X139606462Y-100333814D01*
X139601512Y-100330749D01*
X139601508Y-100330746D01*
X139437387Y-100229127D01*
X139437386Y-100229126D01*
X139432427Y-100226056D01*
X139389810Y-100209546D01*
X139246989Y-100154216D01*
X139246981Y-100154213D01*
X139241556Y-100152112D01*
X139235839Y-100151043D01*
X139235831Y-100151041D01*
X139046073Y-100115570D01*
X139046069Y-100115569D01*
X139040347Y-100114500D01*
X138835653Y-100114500D01*
X138829931Y-100115569D01*
X138829926Y-100115570D01*
X138640168Y-100151041D01*
X138640157Y-100151043D01*
X138634444Y-100152112D01*
X138629021Y-100154212D01*
X138629010Y-100154216D01*
X138449011Y-100223949D01*
X138449008Y-100223950D01*
X138443573Y-100226056D01*
X138438617Y-100229124D01*
X138438612Y-100229127D01*
X138274491Y-100330746D01*
X138274481Y-100330752D01*
X138269538Y-100333814D01*
X138265239Y-100337732D01*
X138265235Y-100337736D01*
X138122573Y-100467789D01*
X138122565Y-100467797D01*
X138118268Y-100471715D01*
X138114763Y-100476355D01*
X138114755Y-100476365D01*
X137998422Y-100630416D01*
X137998418Y-100630421D01*
X137994912Y-100635065D01*
X137992317Y-100640274D01*
X137992314Y-100640281D01*
X137951121Y-100723008D01*
X137903672Y-100818299D01*
X137902078Y-100823899D01*
X137902076Y-100823906D01*
X137849250Y-101009572D01*
X137847655Y-101015179D01*
X137847118Y-101020972D01*
X137847116Y-101020984D01*
X137834932Y-101152482D01*
X137828768Y-101219000D01*
X137507232Y-101219000D01*
X137488345Y-101015179D01*
X137432328Y-100818299D01*
X137341088Y-100635065D01*
X137265679Y-100535207D01*
X137221244Y-100476365D01*
X137221241Y-100476361D01*
X137217732Y-100471715D01*
X137213429Y-100467792D01*
X137213426Y-100467789D01*
X137070764Y-100337736D01*
X137070765Y-100337736D01*
X137066462Y-100333814D01*
X137061512Y-100330749D01*
X137061508Y-100330746D01*
X136897387Y-100229127D01*
X136897386Y-100229126D01*
X136892427Y-100226056D01*
X136849810Y-100209546D01*
X136706989Y-100154216D01*
X136706981Y-100154213D01*
X136701556Y-100152112D01*
X136695839Y-100151043D01*
X136695831Y-100151041D01*
X136506073Y-100115570D01*
X136506069Y-100115569D01*
X136500347Y-100114500D01*
X136295653Y-100114500D01*
X136289931Y-100115569D01*
X136289926Y-100115570D01*
X136100168Y-100151041D01*
X136100157Y-100151043D01*
X136094444Y-100152112D01*
X136089021Y-100154212D01*
X136089010Y-100154216D01*
X135909011Y-100223949D01*
X135909008Y-100223950D01*
X135903573Y-100226056D01*
X135898617Y-100229124D01*
X135898612Y-100229127D01*
X135734491Y-100330746D01*
X135734481Y-100330752D01*
X135729538Y-100333814D01*
X135725239Y-100337732D01*
X135725235Y-100337736D01*
X135582573Y-100467789D01*
X135582565Y-100467797D01*
X135578268Y-100471715D01*
X135574763Y-100476355D01*
X135574755Y-100476365D01*
X135458422Y-100630416D01*
X135458418Y-100630421D01*
X135454912Y-100635065D01*
X135452317Y-100640274D01*
X135452314Y-100640281D01*
X135411121Y-100723008D01*
X135363672Y-100818299D01*
X135362078Y-100823899D01*
X135362076Y-100823906D01*
X135309250Y-101009572D01*
X135307655Y-101015179D01*
X135307118Y-101020972D01*
X135307116Y-101020984D01*
X135294932Y-101152482D01*
X135288768Y-101219000D01*
X134967232Y-101219000D01*
X134948345Y-101015179D01*
X134892328Y-100818299D01*
X134801088Y-100635065D01*
X134725679Y-100535207D01*
X134681244Y-100476365D01*
X134681241Y-100476361D01*
X134677732Y-100471715D01*
X134673429Y-100467792D01*
X134673426Y-100467789D01*
X134530764Y-100337736D01*
X134530765Y-100337736D01*
X134526462Y-100333814D01*
X134521512Y-100330749D01*
X134521508Y-100330746D01*
X134357387Y-100229127D01*
X134357386Y-100229126D01*
X134352427Y-100226056D01*
X134309810Y-100209546D01*
X134166989Y-100154216D01*
X134166981Y-100154213D01*
X134161556Y-100152112D01*
X134155839Y-100151043D01*
X134155831Y-100151041D01*
X133966073Y-100115570D01*
X133966069Y-100115569D01*
X133960347Y-100114500D01*
X133755653Y-100114500D01*
X133749931Y-100115569D01*
X133749926Y-100115570D01*
X133560168Y-100151041D01*
X133560157Y-100151043D01*
X133554444Y-100152112D01*
X133549021Y-100154212D01*
X133549010Y-100154216D01*
X133369011Y-100223949D01*
X133369008Y-100223950D01*
X133363573Y-100226056D01*
X133358617Y-100229124D01*
X133358612Y-100229127D01*
X133194491Y-100330746D01*
X133194481Y-100330752D01*
X133189538Y-100333814D01*
X133185239Y-100337732D01*
X133185235Y-100337736D01*
X133042573Y-100467789D01*
X133042565Y-100467797D01*
X133038268Y-100471715D01*
X133034763Y-100476355D01*
X133034755Y-100476365D01*
X132918422Y-100630416D01*
X132918418Y-100630421D01*
X132914912Y-100635065D01*
X132912317Y-100640274D01*
X132912314Y-100640281D01*
X132871121Y-100723008D01*
X132823672Y-100818299D01*
X132822078Y-100823899D01*
X132822076Y-100823906D01*
X132769250Y-101009572D01*
X132767655Y-101015179D01*
X132767118Y-101020972D01*
X132767116Y-101020984D01*
X132754932Y-101152482D01*
X132748768Y-101219000D01*
X132427232Y-101219000D01*
X132408345Y-101015179D01*
X132352328Y-100818299D01*
X132261088Y-100635065D01*
X132185679Y-100535207D01*
X132141244Y-100476365D01*
X132141241Y-100476361D01*
X132137732Y-100471715D01*
X132133429Y-100467792D01*
X132133426Y-100467789D01*
X131990764Y-100337736D01*
X131990765Y-100337736D01*
X131986462Y-100333814D01*
X131981512Y-100330749D01*
X131981508Y-100330746D01*
X131817387Y-100229127D01*
X131817386Y-100229126D01*
X131812427Y-100226056D01*
X131769810Y-100209546D01*
X131626989Y-100154216D01*
X131626981Y-100154213D01*
X131621556Y-100152112D01*
X131615839Y-100151043D01*
X131615831Y-100151041D01*
X131426073Y-100115570D01*
X131426069Y-100115569D01*
X131420347Y-100114500D01*
X131215653Y-100114500D01*
X131209931Y-100115569D01*
X131209926Y-100115570D01*
X131020168Y-100151041D01*
X131020157Y-100151043D01*
X131014444Y-100152112D01*
X131009021Y-100154212D01*
X131009010Y-100154216D01*
X130829011Y-100223949D01*
X130829008Y-100223950D01*
X130823573Y-100226056D01*
X130818617Y-100229124D01*
X130818612Y-100229127D01*
X130654491Y-100330746D01*
X130654481Y-100330752D01*
X130649538Y-100333814D01*
X130645239Y-100337732D01*
X130645235Y-100337736D01*
X130502573Y-100467789D01*
X130502565Y-100467797D01*
X130498268Y-100471715D01*
X130494763Y-100476355D01*
X130494755Y-100476365D01*
X130378422Y-100630416D01*
X130378418Y-100630421D01*
X130374912Y-100635065D01*
X130372317Y-100640274D01*
X130372314Y-100640281D01*
X130331121Y-100723008D01*
X130283672Y-100818299D01*
X130282078Y-100823899D01*
X130282076Y-100823906D01*
X130229250Y-101009572D01*
X130227655Y-101015179D01*
X130227118Y-101020972D01*
X130227116Y-101020984D01*
X130214932Y-101152482D01*
X130208768Y-101219000D01*
X129887232Y-101219000D01*
X129868345Y-101015179D01*
X129812328Y-100818299D01*
X129721088Y-100635065D01*
X129645679Y-100535207D01*
X129601244Y-100476365D01*
X129601241Y-100476361D01*
X129597732Y-100471715D01*
X129593429Y-100467792D01*
X129593426Y-100467789D01*
X129450764Y-100337736D01*
X129450765Y-100337736D01*
X129446462Y-100333814D01*
X129441512Y-100330749D01*
X129441508Y-100330746D01*
X129277387Y-100229127D01*
X129277386Y-100229126D01*
X129272427Y-100226056D01*
X129229810Y-100209546D01*
X129086989Y-100154216D01*
X129086981Y-100154213D01*
X129081556Y-100152112D01*
X129075839Y-100151043D01*
X129075831Y-100151041D01*
X128886073Y-100115570D01*
X128886069Y-100115569D01*
X128880347Y-100114500D01*
X128675653Y-100114500D01*
X128669931Y-100115569D01*
X128669926Y-100115570D01*
X128480168Y-100151041D01*
X128480157Y-100151043D01*
X128474444Y-100152112D01*
X128469021Y-100154212D01*
X128469010Y-100154216D01*
X128289011Y-100223949D01*
X128289008Y-100223950D01*
X128283573Y-100226056D01*
X128278617Y-100229124D01*
X128278612Y-100229127D01*
X128114491Y-100330746D01*
X128114481Y-100330752D01*
X128109538Y-100333814D01*
X128105239Y-100337732D01*
X128105235Y-100337736D01*
X127962573Y-100467789D01*
X127962565Y-100467797D01*
X127958268Y-100471715D01*
X127954763Y-100476355D01*
X127954755Y-100476365D01*
X127838422Y-100630416D01*
X127838418Y-100630421D01*
X127834912Y-100635065D01*
X127832317Y-100640274D01*
X127832314Y-100640281D01*
X127791121Y-100723008D01*
X127743672Y-100818299D01*
X127742078Y-100823899D01*
X127742076Y-100823906D01*
X127689250Y-101009572D01*
X127687655Y-101015179D01*
X127687118Y-101020972D01*
X127687116Y-101020984D01*
X127674932Y-101152482D01*
X127668768Y-101219000D01*
X126460559Y-101219000D01*
X126517643Y-101195355D01*
X126633474Y-101106474D01*
X126722355Y-100990643D01*
X126778228Y-100855754D01*
X126797285Y-100711000D01*
X126778228Y-100566246D01*
X126722355Y-100431358D01*
X126633474Y-100315526D01*
X126517643Y-100226645D01*
X126510016Y-100223485D01*
X126510013Y-100223484D01*
X126390383Y-100173932D01*
X126390382Y-100173931D01*
X126382754Y-100170772D01*
X126374571Y-100169694D01*
X126374565Y-100169693D01*
X126246188Y-100152793D01*
X126238000Y-100151715D01*
X126229812Y-100152793D01*
X126101431Y-100169694D01*
X126101427Y-100169694D01*
X126093246Y-100170772D01*
X126085627Y-100173927D01*
X126085619Y-100173930D01*
X125965986Y-100223485D01*
X125965983Y-100223486D01*
X125958358Y-100226645D01*
X125951810Y-100231668D01*
X125951807Y-100231671D01*
X125849071Y-100310503D01*
X125849067Y-100310506D01*
X125842526Y-100315526D01*
X125837506Y-100322067D01*
X125837503Y-100322071D01*
X125758671Y-100424807D01*
X125758668Y-100424810D01*
X125753645Y-100431358D01*
X125750486Y-100438983D01*
X125750485Y-100438986D01*
X125700930Y-100558619D01*
X125700927Y-100558627D01*
X125697772Y-100566246D01*
X125678715Y-100711000D01*
X120741899Y-100711000D01*
X120704088Y-100635065D01*
X120628679Y-100535207D01*
X120584244Y-100476365D01*
X120584241Y-100476361D01*
X120580732Y-100471715D01*
X120576429Y-100467792D01*
X120576426Y-100467789D01*
X120433764Y-100337736D01*
X120433765Y-100337736D01*
X120429462Y-100333814D01*
X120424512Y-100330749D01*
X120424508Y-100330746D01*
X120260387Y-100229127D01*
X120260386Y-100229126D01*
X120255427Y-100226056D01*
X120212810Y-100209546D01*
X120069989Y-100154216D01*
X120069981Y-100154213D01*
X120064556Y-100152112D01*
X120058839Y-100151043D01*
X120058831Y-100151041D01*
X119869073Y-100115570D01*
X119869069Y-100115569D01*
X119863347Y-100114500D01*
X119658653Y-100114500D01*
X119652931Y-100115569D01*
X119652926Y-100115570D01*
X119463168Y-100151041D01*
X119463157Y-100151043D01*
X119457444Y-100152112D01*
X119452021Y-100154212D01*
X119452010Y-100154216D01*
X119272011Y-100223949D01*
X119272008Y-100223950D01*
X119266573Y-100226056D01*
X119261617Y-100229124D01*
X119261612Y-100229127D01*
X119097491Y-100330746D01*
X119097481Y-100330752D01*
X119092538Y-100333814D01*
X119088239Y-100337732D01*
X119088235Y-100337736D01*
X118945573Y-100467789D01*
X118945565Y-100467797D01*
X118941268Y-100471715D01*
X118937763Y-100476355D01*
X118937755Y-100476365D01*
X118821422Y-100630416D01*
X118821418Y-100630421D01*
X118817912Y-100635065D01*
X118815317Y-100640274D01*
X118815314Y-100640281D01*
X118774121Y-100723008D01*
X118726672Y-100818299D01*
X118725078Y-100823899D01*
X118725076Y-100823906D01*
X118672250Y-101009572D01*
X118670655Y-101015179D01*
X118670118Y-101020972D01*
X118670116Y-101020984D01*
X118657932Y-101152482D01*
X118651768Y-101219000D01*
X118652264Y-101224357D01*
X118634760Y-101288344D01*
X118587007Y-101334620D01*
X118522348Y-101350143D01*
X118458792Y-101330590D01*
X118414039Y-101281408D01*
X118385199Y-101224806D01*
X118339973Y-101136046D01*
X118334617Y-101124014D01*
X118225897Y-100840790D01*
X118221822Y-100828248D01*
X118217757Y-100813079D01*
X118143302Y-100535207D01*
X118140560Y-100522307D01*
X118093101Y-100222662D01*
X118091723Y-100209545D01*
X118075673Y-99903300D01*
X118075500Y-99896706D01*
X118075500Y-98679000D01*
X125932715Y-98679000D01*
X125933793Y-98687188D01*
X125950693Y-98815565D01*
X125950694Y-98815571D01*
X125951772Y-98823754D01*
X125954931Y-98831382D01*
X125954932Y-98831383D01*
X126004484Y-98951013D01*
X126004485Y-98951016D01*
X126007645Y-98958643D01*
X126096526Y-99074474D01*
X126212357Y-99163355D01*
X126347246Y-99219228D01*
X126492000Y-99238285D01*
X126636754Y-99219228D01*
X126771643Y-99163355D01*
X126887474Y-99074474D01*
X126976355Y-98958643D01*
X127032228Y-98823754D01*
X127051285Y-98679000D01*
X127032228Y-98534246D01*
X126976355Y-98399358D01*
X126887474Y-98283526D01*
X126771643Y-98194645D01*
X126764016Y-98191485D01*
X126764013Y-98191484D01*
X126644383Y-98141932D01*
X126644382Y-98141931D01*
X126636754Y-98138772D01*
X126628571Y-98137694D01*
X126628565Y-98137693D01*
X126500188Y-98120793D01*
X126492000Y-98119715D01*
X126483812Y-98120793D01*
X126355431Y-98137694D01*
X126355427Y-98137694D01*
X126347246Y-98138772D01*
X126339627Y-98141927D01*
X126339619Y-98141930D01*
X126219986Y-98191485D01*
X126219983Y-98191486D01*
X126212358Y-98194645D01*
X126205810Y-98199668D01*
X126205807Y-98199671D01*
X126103071Y-98278503D01*
X126103067Y-98278506D01*
X126096526Y-98283526D01*
X126091506Y-98290067D01*
X126091503Y-98290071D01*
X126012671Y-98392807D01*
X126012668Y-98392810D01*
X126007645Y-98399358D01*
X126004486Y-98406983D01*
X126004485Y-98406986D01*
X125954930Y-98526619D01*
X125954927Y-98526627D01*
X125951772Y-98534246D01*
X125932715Y-98679000D01*
X118075500Y-98679000D01*
X118075500Y-96139000D01*
X118651768Y-96139000D01*
X118652306Y-96144806D01*
X118670116Y-96337015D01*
X118670117Y-96337025D01*
X118670655Y-96342821D01*
X118726672Y-96539701D01*
X118817912Y-96722935D01*
X118821421Y-96727582D01*
X118821422Y-96727583D01*
X118937755Y-96881634D01*
X118937759Y-96881638D01*
X118941268Y-96886285D01*
X118945570Y-96890207D01*
X118945573Y-96890210D01*
X118992935Y-96933386D01*
X119092538Y-97024186D01*
X119097489Y-97027251D01*
X119097491Y-97027253D01*
X119171992Y-97073382D01*
X119266573Y-97131944D01*
X119457444Y-97205888D01*
X119658653Y-97243500D01*
X119857519Y-97243500D01*
X119863347Y-97243500D01*
X120064556Y-97205888D01*
X120255427Y-97131944D01*
X120429462Y-97024186D01*
X120580732Y-96886285D01*
X120704088Y-96722935D01*
X120795328Y-96539701D01*
X120851345Y-96342821D01*
X120870232Y-96139000D01*
X120851345Y-95935179D01*
X120795328Y-95738299D01*
X120741899Y-95631000D01*
X128218715Y-95631000D01*
X128219793Y-95639188D01*
X128236693Y-95767565D01*
X128236694Y-95767571D01*
X128237772Y-95775754D01*
X128240931Y-95783382D01*
X128240932Y-95783383D01*
X128290484Y-95903013D01*
X128290485Y-95903016D01*
X128293645Y-95910643D01*
X128298671Y-95917194D01*
X128298673Y-95917196D01*
X128377499Y-96019923D01*
X128382526Y-96026474D01*
X128498357Y-96115355D01*
X128633246Y-96171228D01*
X128778000Y-96190285D01*
X128922754Y-96171228D01*
X129057643Y-96115355D01*
X129173474Y-96026474D01*
X129262355Y-95910643D01*
X129318228Y-95775754D01*
X129337285Y-95631000D01*
X130758715Y-95631000D01*
X130759793Y-95639188D01*
X130776693Y-95767565D01*
X130776694Y-95767571D01*
X130777772Y-95775754D01*
X130780931Y-95783382D01*
X130780932Y-95783383D01*
X130830484Y-95903013D01*
X130830485Y-95903016D01*
X130833645Y-95910643D01*
X130838671Y-95917194D01*
X130838673Y-95917196D01*
X130917499Y-96019923D01*
X130922526Y-96026474D01*
X131038357Y-96115355D01*
X131173246Y-96171228D01*
X131318000Y-96190285D01*
X131462754Y-96171228D01*
X131597643Y-96115355D01*
X131713474Y-96026474D01*
X131802355Y-95910643D01*
X131858228Y-95775754D01*
X131877285Y-95631000D01*
X133298715Y-95631000D01*
X133299793Y-95639188D01*
X133316693Y-95767565D01*
X133316694Y-95767571D01*
X133317772Y-95775754D01*
X133320931Y-95783382D01*
X133320932Y-95783383D01*
X133370484Y-95903013D01*
X133370485Y-95903016D01*
X133373645Y-95910643D01*
X133378671Y-95917194D01*
X133378673Y-95917196D01*
X133457499Y-96019923D01*
X133462526Y-96026474D01*
X133578357Y-96115355D01*
X133713246Y-96171228D01*
X133858000Y-96190285D01*
X134002754Y-96171228D01*
X134137643Y-96115355D01*
X134253474Y-96026474D01*
X134342355Y-95910643D01*
X134398228Y-95775754D01*
X134417285Y-95631000D01*
X135838715Y-95631000D01*
X135839793Y-95639188D01*
X135856693Y-95767565D01*
X135856694Y-95767571D01*
X135857772Y-95775754D01*
X135860931Y-95783382D01*
X135860932Y-95783383D01*
X135910484Y-95903013D01*
X135910485Y-95903016D01*
X135913645Y-95910643D01*
X135918671Y-95917194D01*
X135918673Y-95917196D01*
X135997499Y-96019923D01*
X136002526Y-96026474D01*
X136118357Y-96115355D01*
X136253246Y-96171228D01*
X136398000Y-96190285D01*
X136542754Y-96171228D01*
X136677643Y-96115355D01*
X136793474Y-96026474D01*
X136882355Y-95910643D01*
X136938228Y-95775754D01*
X136957285Y-95631000D01*
X136956207Y-95622809D01*
X136956207Y-95617987D01*
X136975940Y-95550287D01*
X137028957Y-95503792D01*
X137098653Y-95493065D01*
X137177211Y-95503407D01*
X137177212Y-95503407D01*
X137185400Y-95504485D01*
X137330154Y-95485428D01*
X137454686Y-95433844D01*
X137502900Y-95424255D01*
X137551113Y-95433844D01*
X137675646Y-95485428D01*
X137820400Y-95504485D01*
X137965154Y-95485428D01*
X138089686Y-95433844D01*
X138137900Y-95424255D01*
X138186114Y-95433845D01*
X138304047Y-95482694D01*
X138348723Y-95513977D01*
X138375995Y-95561212D01*
X138380749Y-95615546D01*
X138378715Y-95631000D01*
X138379793Y-95639188D01*
X138396693Y-95767565D01*
X138396694Y-95767571D01*
X138397772Y-95775754D01*
X138400931Y-95783382D01*
X138400932Y-95783383D01*
X138450484Y-95903013D01*
X138450485Y-95903016D01*
X138453645Y-95910643D01*
X138458671Y-95917194D01*
X138458673Y-95917196D01*
X138537499Y-96019923D01*
X138542526Y-96026474D01*
X138658357Y-96115355D01*
X138793246Y-96171228D01*
X138938000Y-96190285D01*
X139082754Y-96171228D01*
X139217643Y-96115355D01*
X139333474Y-96026474D01*
X139422355Y-95910643D01*
X139478228Y-95775754D01*
X139497285Y-95631000D01*
X140918715Y-95631000D01*
X140919793Y-95639188D01*
X140936693Y-95767565D01*
X140936694Y-95767571D01*
X140937772Y-95775754D01*
X140940931Y-95783382D01*
X140940932Y-95783383D01*
X140990484Y-95903013D01*
X140990485Y-95903016D01*
X140993645Y-95910643D01*
X140998671Y-95917194D01*
X140998673Y-95917196D01*
X141077499Y-96019923D01*
X141082526Y-96026474D01*
X141198357Y-96115355D01*
X141333246Y-96171228D01*
X141478000Y-96190285D01*
X141622754Y-96171228D01*
X141757643Y-96115355D01*
X141873474Y-96026474D01*
X141962355Y-95910643D01*
X142018228Y-95775754D01*
X142037285Y-95631000D01*
X143458715Y-95631000D01*
X143459793Y-95639188D01*
X143476693Y-95767565D01*
X143476694Y-95767571D01*
X143477772Y-95775754D01*
X143480931Y-95783382D01*
X143480932Y-95783383D01*
X143530484Y-95903013D01*
X143530485Y-95903016D01*
X143533645Y-95910643D01*
X143538671Y-95917194D01*
X143538673Y-95917196D01*
X143617499Y-96019923D01*
X143622526Y-96026474D01*
X143738357Y-96115355D01*
X143873246Y-96171228D01*
X144018000Y-96190285D01*
X144162754Y-96171228D01*
X144297643Y-96115355D01*
X144413474Y-96026474D01*
X144502355Y-95910643D01*
X144558228Y-95775754D01*
X144577285Y-95631000D01*
X145998715Y-95631000D01*
X145999793Y-95639188D01*
X146016693Y-95767565D01*
X146016694Y-95767571D01*
X146017772Y-95775754D01*
X146020931Y-95783382D01*
X146020932Y-95783383D01*
X146070484Y-95903013D01*
X146070485Y-95903016D01*
X146073645Y-95910643D01*
X146078671Y-95917194D01*
X146078673Y-95917196D01*
X146157499Y-96019923D01*
X146162526Y-96026474D01*
X146278357Y-96115355D01*
X146413246Y-96171228D01*
X146558000Y-96190285D01*
X146702754Y-96171228D01*
X146837643Y-96115355D01*
X146953474Y-96026474D01*
X147042355Y-95910643D01*
X147098228Y-95775754D01*
X147117285Y-95631000D01*
X155100768Y-95631000D01*
X155101306Y-95636806D01*
X155119116Y-95829015D01*
X155119117Y-95829025D01*
X155119655Y-95834821D01*
X155121249Y-95840426D01*
X155121250Y-95840427D01*
X155143092Y-95917196D01*
X155175672Y-96031701D01*
X155266912Y-96214935D01*
X155270421Y-96219582D01*
X155270422Y-96219583D01*
X155386755Y-96373634D01*
X155386759Y-96373638D01*
X155390268Y-96378285D01*
X155394570Y-96382207D01*
X155394573Y-96382210D01*
X155482466Y-96462335D01*
X155541538Y-96516186D01*
X155715573Y-96623944D01*
X155906444Y-96697888D01*
X156107653Y-96735500D01*
X156306519Y-96735500D01*
X156312347Y-96735500D01*
X156513556Y-96697888D01*
X156704427Y-96623944D01*
X156878462Y-96516186D01*
X157029732Y-96378285D01*
X157153088Y-96214935D01*
X157244328Y-96031701D01*
X157300345Y-95834821D01*
X157319232Y-95631000D01*
X157300345Y-95427179D01*
X157244328Y-95230299D01*
X157153088Y-95047065D01*
X157029732Y-94883715D01*
X157025429Y-94879792D01*
X157025426Y-94879789D01*
X156882764Y-94749736D01*
X156882765Y-94749736D01*
X156878462Y-94745814D01*
X156873512Y-94742749D01*
X156873508Y-94742746D01*
X156709387Y-94641127D01*
X156709386Y-94641126D01*
X156704427Y-94638056D01*
X156680898Y-94628941D01*
X156518989Y-94566216D01*
X156518981Y-94566213D01*
X156513556Y-94564112D01*
X156507839Y-94563043D01*
X156507831Y-94563041D01*
X156318073Y-94527570D01*
X156318069Y-94527569D01*
X156312347Y-94526500D01*
X156107653Y-94526500D01*
X156101931Y-94527569D01*
X156101926Y-94527570D01*
X155912168Y-94563041D01*
X155912157Y-94563043D01*
X155906444Y-94564112D01*
X155901021Y-94566212D01*
X155901010Y-94566216D01*
X155721011Y-94635949D01*
X155721008Y-94635950D01*
X155715573Y-94638056D01*
X155710617Y-94641124D01*
X155710612Y-94641127D01*
X155546491Y-94742746D01*
X155546481Y-94742752D01*
X155541538Y-94745814D01*
X155537239Y-94749732D01*
X155537235Y-94749736D01*
X155394573Y-94879789D01*
X155394565Y-94879797D01*
X155390268Y-94883715D01*
X155386763Y-94888355D01*
X155386755Y-94888365D01*
X155270422Y-95042416D01*
X155270418Y-95042421D01*
X155266912Y-95047065D01*
X155264317Y-95052274D01*
X155264314Y-95052281D01*
X155216091Y-95149127D01*
X155175672Y-95230299D01*
X155174078Y-95235899D01*
X155174076Y-95235906D01*
X155130862Y-95387789D01*
X155119655Y-95427179D01*
X155119118Y-95432972D01*
X155119116Y-95432984D01*
X155108247Y-95550287D01*
X155100768Y-95631000D01*
X147117285Y-95631000D01*
X147098228Y-95486246D01*
X147042355Y-95351358D01*
X146953474Y-95235526D01*
X146837643Y-95146645D01*
X146830016Y-95143485D01*
X146830013Y-95143484D01*
X146710383Y-95093932D01*
X146710382Y-95093931D01*
X146702754Y-95090772D01*
X146694571Y-95089694D01*
X146694565Y-95089693D01*
X146566188Y-95072793D01*
X146558000Y-95071715D01*
X146549812Y-95072793D01*
X146421431Y-95089694D01*
X146421427Y-95089694D01*
X146413246Y-95090772D01*
X146405627Y-95093927D01*
X146405619Y-95093930D01*
X146285986Y-95143485D01*
X146285983Y-95143486D01*
X146278358Y-95146645D01*
X146271810Y-95151668D01*
X146271807Y-95151671D01*
X146169071Y-95230503D01*
X146169067Y-95230506D01*
X146162526Y-95235526D01*
X146157506Y-95242067D01*
X146157503Y-95242071D01*
X146078671Y-95344807D01*
X146078668Y-95344810D01*
X146073645Y-95351358D01*
X146070486Y-95358983D01*
X146070485Y-95358986D01*
X146020930Y-95478619D01*
X146020927Y-95478627D01*
X146017772Y-95486246D01*
X146016694Y-95494427D01*
X146016694Y-95494431D01*
X146001278Y-95611529D01*
X145998715Y-95631000D01*
X144577285Y-95631000D01*
X144558228Y-95486246D01*
X144502355Y-95351358D01*
X144413474Y-95235526D01*
X144297643Y-95146645D01*
X144290016Y-95143485D01*
X144290013Y-95143484D01*
X144170383Y-95093932D01*
X144170382Y-95093931D01*
X144162754Y-95090772D01*
X144154571Y-95089694D01*
X144154565Y-95089693D01*
X144026188Y-95072793D01*
X144018000Y-95071715D01*
X144009812Y-95072793D01*
X143881431Y-95089694D01*
X143881427Y-95089694D01*
X143873246Y-95090772D01*
X143865627Y-95093927D01*
X143865619Y-95093930D01*
X143745986Y-95143485D01*
X143745983Y-95143486D01*
X143738358Y-95146645D01*
X143731810Y-95151668D01*
X143731807Y-95151671D01*
X143629071Y-95230503D01*
X143629067Y-95230506D01*
X143622526Y-95235526D01*
X143617506Y-95242067D01*
X143617503Y-95242071D01*
X143538671Y-95344807D01*
X143538668Y-95344810D01*
X143533645Y-95351358D01*
X143530486Y-95358983D01*
X143530485Y-95358986D01*
X143480930Y-95478619D01*
X143480927Y-95478627D01*
X143477772Y-95486246D01*
X143476694Y-95494427D01*
X143476694Y-95494431D01*
X143461278Y-95611529D01*
X143458715Y-95631000D01*
X142037285Y-95631000D01*
X142018228Y-95486246D01*
X141962355Y-95351358D01*
X141873474Y-95235526D01*
X141757643Y-95146645D01*
X141750016Y-95143485D01*
X141750013Y-95143484D01*
X141630383Y-95093932D01*
X141630382Y-95093931D01*
X141622754Y-95090772D01*
X141614571Y-95089694D01*
X141614565Y-95089693D01*
X141486188Y-95072793D01*
X141478000Y-95071715D01*
X141469812Y-95072793D01*
X141341431Y-95089694D01*
X141341427Y-95089694D01*
X141333246Y-95090772D01*
X141325627Y-95093927D01*
X141325619Y-95093930D01*
X141205986Y-95143485D01*
X141205983Y-95143486D01*
X141198358Y-95146645D01*
X141191810Y-95151668D01*
X141191807Y-95151671D01*
X141089071Y-95230503D01*
X141089067Y-95230506D01*
X141082526Y-95235526D01*
X141077506Y-95242067D01*
X141077503Y-95242071D01*
X140998671Y-95344807D01*
X140998668Y-95344810D01*
X140993645Y-95351358D01*
X140990486Y-95358983D01*
X140990485Y-95358986D01*
X140940930Y-95478619D01*
X140940927Y-95478627D01*
X140937772Y-95486246D01*
X140936694Y-95494427D01*
X140936694Y-95494431D01*
X140921278Y-95611529D01*
X140918715Y-95631000D01*
X139497285Y-95631000D01*
X139478228Y-95486246D01*
X139422355Y-95351358D01*
X139333474Y-95235526D01*
X139217643Y-95146645D01*
X139210016Y-95143485D01*
X139210013Y-95143484D01*
X139119839Y-95106133D01*
X139089353Y-95093505D01*
X139044673Y-95062219D01*
X139017402Y-95014981D01*
X139012651Y-94960646D01*
X139014685Y-94945200D01*
X138995628Y-94800446D01*
X138939755Y-94665558D01*
X138850874Y-94549726D01*
X138735043Y-94460845D01*
X138727416Y-94457685D01*
X138727413Y-94457684D01*
X138607783Y-94408132D01*
X138607782Y-94408131D01*
X138600154Y-94404972D01*
X138591971Y-94403894D01*
X138591965Y-94403893D01*
X138463588Y-94386993D01*
X138455400Y-94385915D01*
X138447212Y-94386993D01*
X138318831Y-94403894D01*
X138318827Y-94403894D01*
X138310646Y-94404972D01*
X138303026Y-94408128D01*
X138303016Y-94408131D01*
X138186117Y-94456553D01*
X138137899Y-94466144D01*
X138089681Y-94456553D01*
X137972783Y-94408132D01*
X137972782Y-94408131D01*
X137965154Y-94404972D01*
X137956971Y-94403894D01*
X137956965Y-94403893D01*
X137828588Y-94386993D01*
X137820400Y-94385915D01*
X137812212Y-94386993D01*
X137683831Y-94403894D01*
X137683827Y-94403894D01*
X137675646Y-94404972D01*
X137668026Y-94408128D01*
X137668016Y-94408131D01*
X137551117Y-94456553D01*
X137502899Y-94466144D01*
X137454681Y-94456553D01*
X137337783Y-94408132D01*
X137337782Y-94408131D01*
X137330154Y-94404972D01*
X137321971Y-94403894D01*
X137321965Y-94403893D01*
X137193588Y-94386993D01*
X137185400Y-94385915D01*
X137177212Y-94386993D01*
X137048831Y-94403894D01*
X137048827Y-94403894D01*
X137040646Y-94404972D01*
X137033027Y-94408127D01*
X137033019Y-94408130D01*
X136913386Y-94457685D01*
X136913383Y-94457686D01*
X136905758Y-94460845D01*
X136899210Y-94465868D01*
X136899207Y-94465871D01*
X136796471Y-94544703D01*
X136796467Y-94544706D01*
X136789926Y-94549726D01*
X136784906Y-94556267D01*
X136784903Y-94556271D01*
X136706071Y-94659007D01*
X136706068Y-94659010D01*
X136701045Y-94665558D01*
X136697886Y-94673183D01*
X136697885Y-94673186D01*
X136648330Y-94792819D01*
X136648327Y-94792827D01*
X136645172Y-94800446D01*
X136644094Y-94808627D01*
X136644094Y-94808631D01*
X136633597Y-94888365D01*
X136626115Y-94945200D01*
X136627193Y-94953385D01*
X136627193Y-94958213D01*
X136607460Y-95025913D01*
X136554443Y-95072408D01*
X136484747Y-95083135D01*
X136406189Y-95072793D01*
X136406188Y-95072793D01*
X136398000Y-95071715D01*
X136389812Y-95072793D01*
X136261431Y-95089694D01*
X136261427Y-95089694D01*
X136253246Y-95090772D01*
X136245627Y-95093927D01*
X136245619Y-95093930D01*
X136125986Y-95143485D01*
X136125983Y-95143486D01*
X136118358Y-95146645D01*
X136111810Y-95151668D01*
X136111807Y-95151671D01*
X136009071Y-95230503D01*
X136009067Y-95230506D01*
X136002526Y-95235526D01*
X135997506Y-95242067D01*
X135997503Y-95242071D01*
X135918671Y-95344807D01*
X135918668Y-95344810D01*
X135913645Y-95351358D01*
X135910486Y-95358983D01*
X135910485Y-95358986D01*
X135860930Y-95478619D01*
X135860927Y-95478627D01*
X135857772Y-95486246D01*
X135856694Y-95494427D01*
X135856694Y-95494431D01*
X135841278Y-95611529D01*
X135838715Y-95631000D01*
X134417285Y-95631000D01*
X134398228Y-95486246D01*
X134342355Y-95351358D01*
X134253474Y-95235526D01*
X134137643Y-95146645D01*
X134130016Y-95143485D01*
X134130013Y-95143484D01*
X134010383Y-95093932D01*
X134010382Y-95093931D01*
X134002754Y-95090772D01*
X133994571Y-95089694D01*
X133994565Y-95089693D01*
X133866188Y-95072793D01*
X133858000Y-95071715D01*
X133849812Y-95072793D01*
X133721431Y-95089694D01*
X133721427Y-95089694D01*
X133713246Y-95090772D01*
X133705627Y-95093927D01*
X133705619Y-95093930D01*
X133585986Y-95143485D01*
X133585983Y-95143486D01*
X133578358Y-95146645D01*
X133571810Y-95151668D01*
X133571807Y-95151671D01*
X133469071Y-95230503D01*
X133469067Y-95230506D01*
X133462526Y-95235526D01*
X133457506Y-95242067D01*
X133457503Y-95242071D01*
X133378671Y-95344807D01*
X133378668Y-95344810D01*
X133373645Y-95351358D01*
X133370486Y-95358983D01*
X133370485Y-95358986D01*
X133320930Y-95478619D01*
X133320927Y-95478627D01*
X133317772Y-95486246D01*
X133316694Y-95494427D01*
X133316694Y-95494431D01*
X133301278Y-95611529D01*
X133298715Y-95631000D01*
X131877285Y-95631000D01*
X131858228Y-95486246D01*
X131802355Y-95351358D01*
X131713474Y-95235526D01*
X131597643Y-95146645D01*
X131590016Y-95143485D01*
X131590013Y-95143484D01*
X131470383Y-95093932D01*
X131470382Y-95093931D01*
X131462754Y-95090772D01*
X131454571Y-95089694D01*
X131454565Y-95089693D01*
X131326188Y-95072793D01*
X131318000Y-95071715D01*
X131309812Y-95072793D01*
X131181431Y-95089694D01*
X131181427Y-95089694D01*
X131173246Y-95090772D01*
X131165627Y-95093927D01*
X131165619Y-95093930D01*
X131045986Y-95143485D01*
X131045983Y-95143486D01*
X131038358Y-95146645D01*
X131031810Y-95151668D01*
X131031807Y-95151671D01*
X130929071Y-95230503D01*
X130929067Y-95230506D01*
X130922526Y-95235526D01*
X130917506Y-95242067D01*
X130917503Y-95242071D01*
X130838671Y-95344807D01*
X130838668Y-95344810D01*
X130833645Y-95351358D01*
X130830486Y-95358983D01*
X130830485Y-95358986D01*
X130780930Y-95478619D01*
X130780927Y-95478627D01*
X130777772Y-95486246D01*
X130776694Y-95494427D01*
X130776694Y-95494431D01*
X130761278Y-95611529D01*
X130758715Y-95631000D01*
X129337285Y-95631000D01*
X129318228Y-95486246D01*
X129262355Y-95351358D01*
X129173474Y-95235526D01*
X129057643Y-95146645D01*
X129050016Y-95143485D01*
X129050013Y-95143484D01*
X128930383Y-95093932D01*
X128930382Y-95093931D01*
X128922754Y-95090772D01*
X128914571Y-95089694D01*
X128914565Y-95089693D01*
X128786188Y-95072793D01*
X128778000Y-95071715D01*
X128769812Y-95072793D01*
X128641431Y-95089694D01*
X128641427Y-95089694D01*
X128633246Y-95090772D01*
X128625627Y-95093927D01*
X128625619Y-95093930D01*
X128505986Y-95143485D01*
X128505983Y-95143486D01*
X128498358Y-95146645D01*
X128491810Y-95151668D01*
X128491807Y-95151671D01*
X128389071Y-95230503D01*
X128389067Y-95230506D01*
X128382526Y-95235526D01*
X128377506Y-95242067D01*
X128377503Y-95242071D01*
X128298671Y-95344807D01*
X128298668Y-95344810D01*
X128293645Y-95351358D01*
X128290486Y-95358983D01*
X128290485Y-95358986D01*
X128240930Y-95478619D01*
X128240927Y-95478627D01*
X128237772Y-95486246D01*
X128236694Y-95494427D01*
X128236694Y-95494431D01*
X128221278Y-95611529D01*
X128218715Y-95631000D01*
X120741899Y-95631000D01*
X120704088Y-95555065D01*
X120611897Y-95432984D01*
X120584244Y-95396365D01*
X120584241Y-95396361D01*
X120580732Y-95391715D01*
X120576429Y-95387792D01*
X120576426Y-95387789D01*
X120433764Y-95257736D01*
X120433765Y-95257736D01*
X120429462Y-95253814D01*
X120424512Y-95250749D01*
X120424508Y-95250746D01*
X120260387Y-95149127D01*
X120260386Y-95149126D01*
X120255427Y-95146056D01*
X120231898Y-95136941D01*
X120069989Y-95074216D01*
X120069981Y-95074213D01*
X120064556Y-95072112D01*
X120058839Y-95071043D01*
X120058831Y-95071041D01*
X119869073Y-95035570D01*
X119869069Y-95035569D01*
X119863347Y-95034500D01*
X119658653Y-95034500D01*
X119652931Y-95035569D01*
X119652926Y-95035570D01*
X119463168Y-95071041D01*
X119463157Y-95071043D01*
X119457444Y-95072112D01*
X119452021Y-95074212D01*
X119452010Y-95074216D01*
X119272011Y-95143949D01*
X119272008Y-95143950D01*
X119266573Y-95146056D01*
X119261617Y-95149124D01*
X119261612Y-95149127D01*
X119097491Y-95250746D01*
X119097481Y-95250752D01*
X119092538Y-95253814D01*
X119088239Y-95257732D01*
X119088235Y-95257736D01*
X118945573Y-95387789D01*
X118945565Y-95387797D01*
X118941268Y-95391715D01*
X118937763Y-95396355D01*
X118937755Y-95396365D01*
X118821422Y-95550416D01*
X118821418Y-95550421D01*
X118817912Y-95555065D01*
X118815317Y-95560274D01*
X118815314Y-95560281D01*
X118729271Y-95733079D01*
X118726672Y-95738299D01*
X118725078Y-95743899D01*
X118725076Y-95743906D01*
X118672250Y-95929572D01*
X118670655Y-95935179D01*
X118670118Y-95940972D01*
X118670116Y-95940984D01*
X118661227Y-96036920D01*
X118651768Y-96139000D01*
X118075500Y-96139000D01*
X118075500Y-94043500D01*
X146887715Y-94043500D01*
X146888793Y-94051688D01*
X146905693Y-94180065D01*
X146905694Y-94180071D01*
X146906772Y-94188254D01*
X146909931Y-94195882D01*
X146909932Y-94195883D01*
X146959484Y-94315513D01*
X146959485Y-94315516D01*
X146962645Y-94323143D01*
X147051526Y-94438974D01*
X147167357Y-94527855D01*
X147302246Y-94583728D01*
X147447000Y-94602785D01*
X147591754Y-94583728D01*
X147726643Y-94527855D01*
X147842474Y-94438974D01*
X147931355Y-94323143D01*
X147987228Y-94188254D01*
X148006285Y-94043500D01*
X147987228Y-93898746D01*
X147931355Y-93763858D01*
X147842474Y-93648026D01*
X147726643Y-93559145D01*
X147719016Y-93555985D01*
X147719013Y-93555984D01*
X147599383Y-93506432D01*
X147599382Y-93506431D01*
X147591754Y-93503272D01*
X147583571Y-93502194D01*
X147583565Y-93502193D01*
X147455188Y-93485293D01*
X147447000Y-93484215D01*
X147438812Y-93485293D01*
X147310431Y-93502194D01*
X147310427Y-93502194D01*
X147302246Y-93503272D01*
X147294627Y-93506427D01*
X147294619Y-93506430D01*
X147174986Y-93555985D01*
X147174983Y-93555986D01*
X147167358Y-93559145D01*
X147160810Y-93564168D01*
X147160807Y-93564171D01*
X147058071Y-93643003D01*
X147058067Y-93643006D01*
X147051526Y-93648026D01*
X147046506Y-93654567D01*
X147046503Y-93654571D01*
X146967671Y-93757307D01*
X146967668Y-93757310D01*
X146962645Y-93763858D01*
X146959486Y-93771483D01*
X146959485Y-93771486D01*
X146909930Y-93891119D01*
X146909927Y-93891127D01*
X146906772Y-93898746D01*
X146887715Y-94043500D01*
X118075500Y-94043500D01*
X118075500Y-92760692D01*
X127507408Y-92760692D01*
X127508486Y-92768880D01*
X127525386Y-92897257D01*
X127525387Y-92897263D01*
X127526465Y-92905446D01*
X127529624Y-92913074D01*
X127529625Y-92913075D01*
X127579177Y-93032705D01*
X127579178Y-93032708D01*
X127582338Y-93040335D01*
X127671219Y-93156166D01*
X127787050Y-93245047D01*
X127921939Y-93300920D01*
X128066693Y-93319977D01*
X128211447Y-93300920D01*
X128346336Y-93245047D01*
X128462167Y-93156166D01*
X128512171Y-93091000D01*
X155100768Y-93091000D01*
X155101306Y-93096806D01*
X155119116Y-93289015D01*
X155119117Y-93289025D01*
X155119655Y-93294821D01*
X155121249Y-93300426D01*
X155121250Y-93300427D01*
X155173848Y-93485293D01*
X155175672Y-93491701D01*
X155266912Y-93674935D01*
X155270421Y-93679582D01*
X155270422Y-93679583D01*
X155386755Y-93833634D01*
X155386759Y-93833638D01*
X155390268Y-93838285D01*
X155394570Y-93842207D01*
X155394573Y-93842210D01*
X155448224Y-93891119D01*
X155541538Y-93976186D01*
X155715573Y-94083944D01*
X155906444Y-94157888D01*
X156107653Y-94195500D01*
X156306519Y-94195500D01*
X156312347Y-94195500D01*
X156513556Y-94157888D01*
X156704427Y-94083944D01*
X156878462Y-93976186D01*
X157029732Y-93838285D01*
X157153088Y-93674935D01*
X157244328Y-93491701D01*
X157300345Y-93294821D01*
X157319232Y-93091000D01*
X157300345Y-92887179D01*
X157244328Y-92690299D01*
X157153088Y-92507065D01*
X157110860Y-92451146D01*
X157033244Y-92348365D01*
X157033241Y-92348361D01*
X157029732Y-92343715D01*
X157025429Y-92339792D01*
X157025426Y-92339789D01*
X156920969Y-92244564D01*
X156878462Y-92205814D01*
X156873512Y-92202749D01*
X156873508Y-92202746D01*
X156709387Y-92101127D01*
X156709386Y-92101126D01*
X156704427Y-92098056D01*
X156680898Y-92088941D01*
X156518989Y-92026216D01*
X156518981Y-92026213D01*
X156513556Y-92024112D01*
X156507839Y-92023043D01*
X156507831Y-92023041D01*
X156318073Y-91987570D01*
X156318069Y-91987569D01*
X156312347Y-91986500D01*
X156107653Y-91986500D01*
X156101931Y-91987569D01*
X156101926Y-91987570D01*
X155912168Y-92023041D01*
X155912157Y-92023043D01*
X155906444Y-92024112D01*
X155901021Y-92026212D01*
X155901010Y-92026216D01*
X155721011Y-92095949D01*
X155721008Y-92095950D01*
X155715573Y-92098056D01*
X155710617Y-92101124D01*
X155710612Y-92101127D01*
X155546491Y-92202746D01*
X155546481Y-92202752D01*
X155541538Y-92205814D01*
X155537239Y-92209732D01*
X155537235Y-92209736D01*
X155394573Y-92339789D01*
X155394565Y-92339797D01*
X155390268Y-92343715D01*
X155386763Y-92348355D01*
X155386755Y-92348365D01*
X155270422Y-92502416D01*
X155270418Y-92502421D01*
X155266912Y-92507065D01*
X155264317Y-92512274D01*
X155264314Y-92512281D01*
X155178271Y-92685079D01*
X155175672Y-92690299D01*
X155174078Y-92695899D01*
X155174076Y-92695906D01*
X155121250Y-92881572D01*
X155119655Y-92887179D01*
X155119118Y-92892972D01*
X155119116Y-92892984D01*
X155101306Y-93085194D01*
X155100768Y-93091000D01*
X128512171Y-93091000D01*
X128551048Y-93040335D01*
X128606921Y-92905446D01*
X128625978Y-92760692D01*
X128606921Y-92615938D01*
X128551048Y-92481050D01*
X128462167Y-92365218D01*
X128346336Y-92276337D01*
X128338709Y-92273177D01*
X128338706Y-92273176D01*
X128219076Y-92223624D01*
X128219075Y-92223623D01*
X128211447Y-92220464D01*
X128203264Y-92219386D01*
X128203258Y-92219385D01*
X128074881Y-92202485D01*
X128066693Y-92201407D01*
X128058505Y-92202485D01*
X127930124Y-92219386D01*
X127930120Y-92219386D01*
X127921939Y-92220464D01*
X127914320Y-92223619D01*
X127914312Y-92223622D01*
X127794679Y-92273177D01*
X127794676Y-92273178D01*
X127787051Y-92276337D01*
X127780503Y-92281360D01*
X127780500Y-92281363D01*
X127677764Y-92360195D01*
X127677760Y-92360198D01*
X127671219Y-92365218D01*
X127666199Y-92371759D01*
X127666196Y-92371763D01*
X127587364Y-92474499D01*
X127587361Y-92474502D01*
X127582338Y-92481050D01*
X127579179Y-92488675D01*
X127579178Y-92488678D01*
X127529623Y-92608311D01*
X127529620Y-92608319D01*
X127526465Y-92615938D01*
X127525387Y-92624119D01*
X127525387Y-92624123D01*
X127516675Y-92690299D01*
X127507408Y-92760692D01*
X118075500Y-92760692D01*
X118075500Y-91059000D01*
X118651768Y-91059000D01*
X118652306Y-91064806D01*
X118670116Y-91257015D01*
X118670117Y-91257025D01*
X118670655Y-91262821D01*
X118672249Y-91268426D01*
X118672250Y-91268427D01*
X118694092Y-91345196D01*
X118726672Y-91459701D01*
X118817912Y-91642935D01*
X118821421Y-91647582D01*
X118821422Y-91647583D01*
X118937755Y-91801634D01*
X118937759Y-91801638D01*
X118941268Y-91806285D01*
X118945570Y-91810207D01*
X118945573Y-91810210D01*
X118992727Y-91853196D01*
X119092538Y-91944186D01*
X119097489Y-91947251D01*
X119097491Y-91947253D01*
X119171992Y-91993382D01*
X119266573Y-92051944D01*
X119457444Y-92125888D01*
X119658653Y-92163500D01*
X119857519Y-92163500D01*
X119863347Y-92163500D01*
X120064556Y-92125888D01*
X120255427Y-92051944D01*
X120429462Y-91944186D01*
X120580732Y-91806285D01*
X120704088Y-91642935D01*
X120795328Y-91459701D01*
X120851345Y-91262821D01*
X120870232Y-91059000D01*
X127075715Y-91059000D01*
X127076793Y-91067188D01*
X127093693Y-91195565D01*
X127093694Y-91195571D01*
X127094772Y-91203754D01*
X127097931Y-91211382D01*
X127097932Y-91211383D01*
X127147484Y-91331013D01*
X127147485Y-91331016D01*
X127150645Y-91338643D01*
X127239526Y-91454474D01*
X127355357Y-91543355D01*
X127490246Y-91599228D01*
X127635000Y-91618285D01*
X127779754Y-91599228D01*
X127914643Y-91543355D01*
X128030474Y-91454474D01*
X128119355Y-91338643D01*
X128129977Y-91313000D01*
X133806715Y-91313000D01*
X133807793Y-91321188D01*
X133824693Y-91449565D01*
X133824694Y-91449571D01*
X133825772Y-91457754D01*
X133828931Y-91465382D01*
X133828932Y-91465383D01*
X133878484Y-91585013D01*
X133878485Y-91585016D01*
X133881645Y-91592643D01*
X133886671Y-91599194D01*
X133886673Y-91599196D01*
X133923802Y-91647583D01*
X133970526Y-91708474D01*
X134086357Y-91797355D01*
X134221246Y-91853228D01*
X134366000Y-91872285D01*
X134510754Y-91853228D01*
X134635286Y-91801644D01*
X134683500Y-91792055D01*
X134731713Y-91801644D01*
X134856246Y-91853228D01*
X135001000Y-91872285D01*
X135145754Y-91853228D01*
X135270286Y-91801644D01*
X135318500Y-91792055D01*
X135366713Y-91801644D01*
X135491246Y-91853228D01*
X135636000Y-91872285D01*
X135780754Y-91853228D01*
X135915643Y-91797355D01*
X136031474Y-91708474D01*
X136120355Y-91592643D01*
X136130977Y-91567000D01*
X151396215Y-91567000D01*
X151397293Y-91575188D01*
X151414193Y-91703565D01*
X151414194Y-91703571D01*
X151415272Y-91711754D01*
X151418431Y-91719382D01*
X151418432Y-91719383D01*
X151467984Y-91839013D01*
X151467985Y-91839016D01*
X151471145Y-91846643D01*
X151476171Y-91853194D01*
X151476173Y-91853196D01*
X151490821Y-91872285D01*
X151560026Y-91962474D01*
X151566576Y-91967500D01*
X151640353Y-92024112D01*
X151675857Y-92051355D01*
X151810746Y-92107228D01*
X151955500Y-92126285D01*
X152100254Y-92107228D01*
X152235143Y-92051355D01*
X152350974Y-91962474D01*
X152439855Y-91846643D01*
X152495728Y-91711754D01*
X152514785Y-91567000D01*
X152495728Y-91422246D01*
X152439855Y-91287358D01*
X152350974Y-91171526D01*
X152235143Y-91082645D01*
X152227516Y-91079485D01*
X152227513Y-91079484D01*
X152107883Y-91029932D01*
X152107882Y-91029931D01*
X152100254Y-91026772D01*
X152092071Y-91025694D01*
X152092065Y-91025693D01*
X151963688Y-91008793D01*
X151955500Y-91007715D01*
X151947312Y-91008793D01*
X151818931Y-91025694D01*
X151818927Y-91025694D01*
X151810746Y-91026772D01*
X151803127Y-91029927D01*
X151803119Y-91029930D01*
X151683486Y-91079485D01*
X151683483Y-91079486D01*
X151675858Y-91082645D01*
X151669310Y-91087668D01*
X151669307Y-91087671D01*
X151566571Y-91166503D01*
X151566567Y-91166506D01*
X151560026Y-91171526D01*
X151555006Y-91178067D01*
X151555003Y-91178071D01*
X151476171Y-91280807D01*
X151476168Y-91280810D01*
X151471145Y-91287358D01*
X151467986Y-91294983D01*
X151467985Y-91294986D01*
X151418430Y-91414619D01*
X151418427Y-91414627D01*
X151415272Y-91422246D01*
X151414194Y-91430427D01*
X151414194Y-91430431D01*
X151411675Y-91449565D01*
X151396215Y-91567000D01*
X136130977Y-91567000D01*
X136176228Y-91457754D01*
X136195285Y-91313000D01*
X136176228Y-91168246D01*
X136120355Y-91033358D01*
X136031474Y-90917526D01*
X135953500Y-90857694D01*
X135922196Y-90833673D01*
X135922194Y-90833671D01*
X135915643Y-90828645D01*
X135908016Y-90825485D01*
X135908013Y-90825484D01*
X135788383Y-90775932D01*
X135788382Y-90775931D01*
X135780754Y-90772772D01*
X135772571Y-90771694D01*
X135772565Y-90771693D01*
X135644188Y-90754793D01*
X135636000Y-90753715D01*
X135627812Y-90754793D01*
X135499431Y-90771694D01*
X135499427Y-90771694D01*
X135491246Y-90772772D01*
X135483626Y-90775928D01*
X135483616Y-90775931D01*
X135366717Y-90824353D01*
X135318499Y-90833944D01*
X135270281Y-90824353D01*
X135153383Y-90775932D01*
X135153382Y-90775931D01*
X135145754Y-90772772D01*
X135137571Y-90771694D01*
X135137565Y-90771693D01*
X135009188Y-90754793D01*
X135001000Y-90753715D01*
X134992812Y-90754793D01*
X134864431Y-90771694D01*
X134864427Y-90771694D01*
X134856246Y-90772772D01*
X134848626Y-90775928D01*
X134848616Y-90775931D01*
X134731717Y-90824353D01*
X134683499Y-90833944D01*
X134635281Y-90824353D01*
X134518383Y-90775932D01*
X134518382Y-90775931D01*
X134510754Y-90772772D01*
X134502571Y-90771694D01*
X134502565Y-90771693D01*
X134374188Y-90754793D01*
X134366000Y-90753715D01*
X134357812Y-90754793D01*
X134229431Y-90771694D01*
X134229427Y-90771694D01*
X134221246Y-90772772D01*
X134213627Y-90775927D01*
X134213619Y-90775930D01*
X134093986Y-90825485D01*
X134093983Y-90825486D01*
X134086358Y-90828645D01*
X134079810Y-90833668D01*
X134079807Y-90833671D01*
X133977071Y-90912503D01*
X133977067Y-90912506D01*
X133970526Y-90917526D01*
X133965506Y-90924067D01*
X133965503Y-90924071D01*
X133886671Y-91026807D01*
X133886668Y-91026810D01*
X133881645Y-91033358D01*
X133878486Y-91040983D01*
X133878485Y-91040986D01*
X133828930Y-91160619D01*
X133828927Y-91160627D01*
X133825772Y-91168246D01*
X133824694Y-91176427D01*
X133824694Y-91176431D01*
X133822175Y-91195565D01*
X133806715Y-91313000D01*
X128129977Y-91313000D01*
X128175228Y-91203754D01*
X128194285Y-91059000D01*
X128175228Y-90914246D01*
X128119355Y-90779358D01*
X128030474Y-90663526D01*
X127914643Y-90574645D01*
X127907016Y-90571485D01*
X127907013Y-90571484D01*
X127857560Y-90551000D01*
X155100768Y-90551000D01*
X155101306Y-90556806D01*
X155119116Y-90749015D01*
X155119117Y-90749025D01*
X155119655Y-90754821D01*
X155121249Y-90760426D01*
X155121250Y-90760427D01*
X155167810Y-90924071D01*
X155175672Y-90951701D01*
X155220131Y-91040986D01*
X155240874Y-91082645D01*
X155266912Y-91134935D01*
X155270421Y-91139582D01*
X155270422Y-91139583D01*
X155386755Y-91293634D01*
X155386759Y-91293638D01*
X155390268Y-91298285D01*
X155394570Y-91302207D01*
X155394573Y-91302210D01*
X155441727Y-91345196D01*
X155541538Y-91436186D01*
X155715573Y-91543944D01*
X155906444Y-91617888D01*
X156107653Y-91655500D01*
X156306519Y-91655500D01*
X156312347Y-91655500D01*
X156513556Y-91617888D01*
X156704427Y-91543944D01*
X156878462Y-91436186D01*
X157029732Y-91298285D01*
X157153088Y-91134935D01*
X157244328Y-90951701D01*
X157300345Y-90754821D01*
X157319232Y-90551000D01*
X157300345Y-90347179D01*
X157244328Y-90150299D01*
X157153088Y-89967065D01*
X157110860Y-89911146D01*
X157033244Y-89808365D01*
X157033241Y-89808361D01*
X157029732Y-89803715D01*
X157025429Y-89799792D01*
X157025426Y-89799789D01*
X156882764Y-89669736D01*
X156882765Y-89669736D01*
X156878462Y-89665814D01*
X156873512Y-89662749D01*
X156873508Y-89662746D01*
X156709387Y-89561127D01*
X156709386Y-89561126D01*
X156704427Y-89558056D01*
X156680898Y-89548941D01*
X156518989Y-89486216D01*
X156518981Y-89486213D01*
X156513556Y-89484112D01*
X156507839Y-89483043D01*
X156507831Y-89483041D01*
X156318073Y-89447570D01*
X156318069Y-89447569D01*
X156312347Y-89446500D01*
X156107653Y-89446500D01*
X156101931Y-89447569D01*
X156101926Y-89447570D01*
X155912168Y-89483041D01*
X155912157Y-89483043D01*
X155906444Y-89484112D01*
X155901021Y-89486212D01*
X155901010Y-89486216D01*
X155721011Y-89555949D01*
X155721008Y-89555950D01*
X155715573Y-89558056D01*
X155710617Y-89561124D01*
X155710612Y-89561127D01*
X155546491Y-89662746D01*
X155546481Y-89662752D01*
X155541538Y-89665814D01*
X155537239Y-89669732D01*
X155537235Y-89669736D01*
X155394573Y-89799789D01*
X155394565Y-89799797D01*
X155390268Y-89803715D01*
X155386763Y-89808355D01*
X155386755Y-89808365D01*
X155270422Y-89962416D01*
X155270418Y-89962421D01*
X155266912Y-89967065D01*
X155264317Y-89972274D01*
X155264314Y-89972281D01*
X155218669Y-90063949D01*
X155175672Y-90150299D01*
X155174078Y-90155899D01*
X155174076Y-90155906D01*
X155130862Y-90307789D01*
X155119655Y-90347179D01*
X155119118Y-90352972D01*
X155119116Y-90352984D01*
X155101306Y-90545194D01*
X155100768Y-90551000D01*
X127857560Y-90551000D01*
X127787383Y-90521932D01*
X127787382Y-90521931D01*
X127779754Y-90518772D01*
X127771571Y-90517694D01*
X127771565Y-90517693D01*
X127643188Y-90500793D01*
X127635000Y-90499715D01*
X127626812Y-90500793D01*
X127498431Y-90517694D01*
X127498427Y-90517694D01*
X127490246Y-90518772D01*
X127482627Y-90521927D01*
X127482619Y-90521930D01*
X127362986Y-90571485D01*
X127362983Y-90571486D01*
X127355358Y-90574645D01*
X127348810Y-90579668D01*
X127348807Y-90579671D01*
X127246071Y-90658503D01*
X127246067Y-90658506D01*
X127239526Y-90663526D01*
X127234506Y-90670067D01*
X127234503Y-90670071D01*
X127155671Y-90772807D01*
X127155668Y-90772810D01*
X127150645Y-90779358D01*
X127147486Y-90786983D01*
X127147485Y-90786986D01*
X127097930Y-90906619D01*
X127097927Y-90906627D01*
X127094772Y-90914246D01*
X127093694Y-90922427D01*
X127093694Y-90922431D01*
X127090579Y-90946093D01*
X127075715Y-91059000D01*
X120870232Y-91059000D01*
X120851345Y-90855179D01*
X120795328Y-90658299D01*
X120704088Y-90475065D01*
X120580732Y-90311715D01*
X120576429Y-90307792D01*
X120576426Y-90307789D01*
X120433764Y-90177736D01*
X120433765Y-90177736D01*
X120429462Y-90173814D01*
X120424512Y-90170749D01*
X120424508Y-90170746D01*
X120260387Y-90069127D01*
X120260386Y-90069126D01*
X120255427Y-90066056D01*
X120231898Y-90056941D01*
X120069989Y-89994216D01*
X120069981Y-89994213D01*
X120064556Y-89992112D01*
X120058839Y-89991043D01*
X120058831Y-89991041D01*
X119869073Y-89955570D01*
X119869069Y-89955569D01*
X119863347Y-89954500D01*
X119658653Y-89954500D01*
X119652931Y-89955569D01*
X119652926Y-89955570D01*
X119463168Y-89991041D01*
X119463157Y-89991043D01*
X119457444Y-89992112D01*
X119452021Y-89994212D01*
X119452010Y-89994216D01*
X119272011Y-90063949D01*
X119272008Y-90063950D01*
X119266573Y-90066056D01*
X119261617Y-90069124D01*
X119261612Y-90069127D01*
X119097491Y-90170746D01*
X119097481Y-90170752D01*
X119092538Y-90173814D01*
X119088239Y-90177732D01*
X119088235Y-90177736D01*
X118945573Y-90307789D01*
X118945565Y-90307797D01*
X118941268Y-90311715D01*
X118937763Y-90316355D01*
X118937755Y-90316365D01*
X118821422Y-90470416D01*
X118821418Y-90470421D01*
X118817912Y-90475065D01*
X118815317Y-90480274D01*
X118815314Y-90480281D01*
X118765824Y-90579671D01*
X118726672Y-90658299D01*
X118725078Y-90663899D01*
X118725076Y-90663906D01*
X118676774Y-90833673D01*
X118670655Y-90855179D01*
X118670118Y-90860972D01*
X118670116Y-90860984D01*
X118654144Y-91033358D01*
X118651768Y-91059000D01*
X118075500Y-91059000D01*
X118075500Y-89662000D01*
X151396215Y-89662000D01*
X151397293Y-89670188D01*
X151414193Y-89798565D01*
X151414194Y-89798571D01*
X151415272Y-89806754D01*
X151418431Y-89814382D01*
X151418432Y-89814383D01*
X151467984Y-89934013D01*
X151467985Y-89934016D01*
X151471145Y-89941643D01*
X151476171Y-89948194D01*
X151476173Y-89948196D01*
X151511486Y-89994216D01*
X151560026Y-90057474D01*
X151675857Y-90146355D01*
X151810746Y-90202228D01*
X151955500Y-90221285D01*
X152100254Y-90202228D01*
X152235143Y-90146355D01*
X152350974Y-90057474D01*
X152439855Y-89941643D01*
X152495728Y-89806754D01*
X152514785Y-89662000D01*
X152495728Y-89517246D01*
X152492259Y-89508872D01*
X152466424Y-89446500D01*
X152439855Y-89382358D01*
X152350974Y-89266526D01*
X152235143Y-89177645D01*
X152227516Y-89174485D01*
X152227513Y-89174484D01*
X152107883Y-89124932D01*
X152107882Y-89124931D01*
X152100254Y-89121772D01*
X152092071Y-89120694D01*
X152092065Y-89120693D01*
X151963688Y-89103793D01*
X151955500Y-89102715D01*
X151947312Y-89103793D01*
X151818931Y-89120694D01*
X151818927Y-89120694D01*
X151810746Y-89121772D01*
X151803127Y-89124927D01*
X151803119Y-89124930D01*
X151683486Y-89174485D01*
X151683483Y-89174486D01*
X151675858Y-89177645D01*
X151669310Y-89182668D01*
X151669307Y-89182671D01*
X151566571Y-89261503D01*
X151566567Y-89261506D01*
X151560026Y-89266526D01*
X151555006Y-89273067D01*
X151555003Y-89273071D01*
X151476171Y-89375807D01*
X151476168Y-89375810D01*
X151471145Y-89382358D01*
X151467986Y-89389983D01*
X151467985Y-89389986D01*
X151418430Y-89509619D01*
X151418427Y-89509627D01*
X151415272Y-89517246D01*
X151414194Y-89525427D01*
X151414194Y-89525431D01*
X151398778Y-89642529D01*
X151396215Y-89662000D01*
X118075500Y-89662000D01*
X118075500Y-88519000D01*
X118651768Y-88519000D01*
X118652306Y-88524806D01*
X118670116Y-88717015D01*
X118670117Y-88717025D01*
X118670655Y-88722821D01*
X118726672Y-88919701D01*
X118817912Y-89102935D01*
X118821421Y-89107582D01*
X118821422Y-89107583D01*
X118937755Y-89261634D01*
X118937759Y-89261638D01*
X118941268Y-89266285D01*
X118945570Y-89270207D01*
X118945573Y-89270210D01*
X118948718Y-89273077D01*
X119092538Y-89404186D01*
X119097489Y-89407251D01*
X119097491Y-89407253D01*
X119171992Y-89453382D01*
X119266573Y-89511944D01*
X119457444Y-89585888D01*
X119658653Y-89623500D01*
X119857519Y-89623500D01*
X119863347Y-89623500D01*
X120064556Y-89585888D01*
X120255427Y-89511944D01*
X120429462Y-89404186D01*
X120580732Y-89266285D01*
X120704088Y-89102935D01*
X120795328Y-88919701D01*
X120851345Y-88722821D01*
X120870232Y-88519000D01*
X120851345Y-88315179D01*
X120795328Y-88118299D01*
X120741899Y-88011000D01*
X155100768Y-88011000D01*
X155101306Y-88016806D01*
X155119116Y-88209015D01*
X155119117Y-88209025D01*
X155119655Y-88214821D01*
X155175672Y-88411701D01*
X155266912Y-88594935D01*
X155270421Y-88599582D01*
X155270422Y-88599583D01*
X155386755Y-88753634D01*
X155386759Y-88753638D01*
X155390268Y-88758285D01*
X155394570Y-88762207D01*
X155394573Y-88762210D01*
X155482466Y-88842335D01*
X155541538Y-88896186D01*
X155715573Y-89003944D01*
X155906444Y-89077888D01*
X156107653Y-89115500D01*
X156306519Y-89115500D01*
X156312347Y-89115500D01*
X156513556Y-89077888D01*
X156704427Y-89003944D01*
X156878462Y-88896186D01*
X157029732Y-88758285D01*
X157153088Y-88594935D01*
X157244328Y-88411701D01*
X157300345Y-88214821D01*
X157319232Y-88011000D01*
X157300345Y-87807179D01*
X157244328Y-87610299D01*
X157153088Y-87427065D01*
X157029732Y-87263715D01*
X157025429Y-87259792D01*
X157025426Y-87259789D01*
X156882764Y-87129736D01*
X156882765Y-87129736D01*
X156878462Y-87125814D01*
X156873512Y-87122749D01*
X156873508Y-87122746D01*
X156709387Y-87021127D01*
X156709386Y-87021126D01*
X156704427Y-87018056D01*
X156680898Y-87008941D01*
X156518989Y-86946216D01*
X156518981Y-86946213D01*
X156513556Y-86944112D01*
X156507839Y-86943043D01*
X156507831Y-86943041D01*
X156318073Y-86907570D01*
X156318069Y-86907569D01*
X156312347Y-86906500D01*
X156107653Y-86906500D01*
X156101931Y-86907569D01*
X156101926Y-86907570D01*
X155912168Y-86943041D01*
X155912157Y-86943043D01*
X155906444Y-86944112D01*
X155901021Y-86946212D01*
X155901010Y-86946216D01*
X155721011Y-87015949D01*
X155721008Y-87015950D01*
X155715573Y-87018056D01*
X155710617Y-87021124D01*
X155710612Y-87021127D01*
X155546491Y-87122746D01*
X155546481Y-87122752D01*
X155541538Y-87125814D01*
X155537239Y-87129732D01*
X155537235Y-87129736D01*
X155394573Y-87259789D01*
X155394565Y-87259797D01*
X155390268Y-87263715D01*
X155386763Y-87268355D01*
X155386755Y-87268365D01*
X155270422Y-87422416D01*
X155270418Y-87422421D01*
X155266912Y-87427065D01*
X155264317Y-87432274D01*
X155264314Y-87432281D01*
X155253392Y-87454216D01*
X155175672Y-87610299D01*
X155174078Y-87615899D01*
X155174076Y-87615906D01*
X155130862Y-87767789D01*
X155119655Y-87807179D01*
X155119118Y-87812972D01*
X155119116Y-87812984D01*
X155108235Y-87930416D01*
X155100768Y-88011000D01*
X120741899Y-88011000D01*
X120704088Y-87935065D01*
X120580732Y-87771715D01*
X120576429Y-87767792D01*
X120576426Y-87767789D01*
X120433764Y-87637736D01*
X120433765Y-87637736D01*
X120429462Y-87633814D01*
X120424512Y-87630749D01*
X120424508Y-87630746D01*
X120260387Y-87529127D01*
X120260386Y-87529126D01*
X120255427Y-87526056D01*
X120231898Y-87516941D01*
X120069989Y-87454216D01*
X120069981Y-87454213D01*
X120064556Y-87452112D01*
X120058839Y-87451043D01*
X120058831Y-87451041D01*
X119869073Y-87415570D01*
X119869069Y-87415569D01*
X119863347Y-87414500D01*
X119658653Y-87414500D01*
X119652931Y-87415569D01*
X119652926Y-87415570D01*
X119463168Y-87451041D01*
X119463157Y-87451043D01*
X119457444Y-87452112D01*
X119452021Y-87454212D01*
X119452010Y-87454216D01*
X119272011Y-87523949D01*
X119272008Y-87523950D01*
X119266573Y-87526056D01*
X119261617Y-87529124D01*
X119261612Y-87529127D01*
X119097491Y-87630746D01*
X119097481Y-87630752D01*
X119092538Y-87633814D01*
X119088239Y-87637732D01*
X119088235Y-87637736D01*
X118945573Y-87767789D01*
X118945565Y-87767797D01*
X118941268Y-87771715D01*
X118937763Y-87776355D01*
X118937755Y-87776365D01*
X118821422Y-87930416D01*
X118821418Y-87930421D01*
X118817912Y-87935065D01*
X118815317Y-87940274D01*
X118815314Y-87940281D01*
X118729271Y-88113079D01*
X118726672Y-88118299D01*
X118725078Y-88123899D01*
X118725076Y-88123906D01*
X118700861Y-88209015D01*
X118670655Y-88315179D01*
X118670118Y-88320972D01*
X118670116Y-88320984D01*
X118661227Y-88416920D01*
X118651768Y-88519000D01*
X118075500Y-88519000D01*
X118075500Y-85979000D01*
X118651768Y-85979000D01*
X118652306Y-85984806D01*
X118670116Y-86177015D01*
X118670117Y-86177025D01*
X118670655Y-86182821D01*
X118672249Y-86188426D01*
X118672250Y-86188427D01*
X118678204Y-86209355D01*
X118726672Y-86379701D01*
X118817912Y-86562935D01*
X118821421Y-86567582D01*
X118821422Y-86567583D01*
X118937755Y-86721634D01*
X118937759Y-86721638D01*
X118941268Y-86726285D01*
X118945570Y-86730207D01*
X118945573Y-86730210D01*
X118992727Y-86773196D01*
X119092538Y-86864186D01*
X119097489Y-86867251D01*
X119097491Y-86867253D01*
X119171992Y-86913382D01*
X119266573Y-86971944D01*
X119457444Y-87045888D01*
X119658653Y-87083500D01*
X119857519Y-87083500D01*
X119863347Y-87083500D01*
X120064556Y-87045888D01*
X120255427Y-86971944D01*
X120429462Y-86864186D01*
X120580732Y-86726285D01*
X120704088Y-86562935D01*
X120741899Y-86487000D01*
X141426715Y-86487000D01*
X141427793Y-86495188D01*
X141444693Y-86623565D01*
X141444694Y-86623571D01*
X141445772Y-86631754D01*
X141448931Y-86639382D01*
X141448932Y-86639383D01*
X141498484Y-86759013D01*
X141498485Y-86759016D01*
X141501645Y-86766643D01*
X141590526Y-86882474D01*
X141597076Y-86887500D01*
X141670853Y-86944112D01*
X141706357Y-86971355D01*
X141841246Y-87027228D01*
X141986000Y-87046285D01*
X142130754Y-87027228D01*
X142265643Y-86971355D01*
X142381474Y-86882474D01*
X142470355Y-86766643D01*
X142526228Y-86631754D01*
X142545285Y-86487000D01*
X142526228Y-86342246D01*
X142470355Y-86207358D01*
X142381474Y-86091526D01*
X142265643Y-86002645D01*
X142258016Y-85999485D01*
X142258013Y-85999484D01*
X142138383Y-85949932D01*
X142138382Y-85949931D01*
X142130754Y-85946772D01*
X142122571Y-85945694D01*
X142122565Y-85945693D01*
X141994188Y-85928793D01*
X141986000Y-85927715D01*
X141977812Y-85928793D01*
X141849431Y-85945694D01*
X141849427Y-85945694D01*
X141841246Y-85946772D01*
X141833627Y-85949927D01*
X141833619Y-85949930D01*
X141713986Y-85999485D01*
X141713983Y-85999486D01*
X141706358Y-86002645D01*
X141699810Y-86007668D01*
X141699807Y-86007671D01*
X141597071Y-86086503D01*
X141597067Y-86086506D01*
X141590526Y-86091526D01*
X141585506Y-86098067D01*
X141585503Y-86098071D01*
X141506671Y-86200807D01*
X141506668Y-86200810D01*
X141501645Y-86207358D01*
X141498486Y-86214983D01*
X141498485Y-86214986D01*
X141448930Y-86334619D01*
X141448927Y-86334627D01*
X141445772Y-86342246D01*
X141444694Y-86350427D01*
X141444694Y-86350431D01*
X141443533Y-86359253D01*
X141426715Y-86487000D01*
X120741899Y-86487000D01*
X120795328Y-86379701D01*
X120851345Y-86182821D01*
X120870232Y-85979000D01*
X120851345Y-85775179D01*
X120837068Y-85725000D01*
X127075715Y-85725000D01*
X127076793Y-85733188D01*
X127093693Y-85861565D01*
X127093694Y-85861571D01*
X127094772Y-85869754D01*
X127097931Y-85877382D01*
X127097932Y-85877383D01*
X127147484Y-85997013D01*
X127147485Y-85997016D01*
X127150645Y-86004643D01*
X127155671Y-86011194D01*
X127155673Y-86011196D01*
X127192802Y-86059583D01*
X127239526Y-86120474D01*
X127246076Y-86125500D01*
X127320777Y-86182821D01*
X127355357Y-86209355D01*
X127490246Y-86265228D01*
X127635000Y-86284285D01*
X127779754Y-86265228D01*
X127914643Y-86209355D01*
X128030474Y-86120474D01*
X128119355Y-86004643D01*
X128175228Y-85869754D01*
X128194285Y-85725000D01*
X128175228Y-85580246D01*
X128129976Y-85471000D01*
X155100768Y-85471000D01*
X155101306Y-85476806D01*
X155119116Y-85669015D01*
X155119117Y-85669025D01*
X155119655Y-85674821D01*
X155175672Y-85871701D01*
X155203564Y-85927715D01*
X155240874Y-86002645D01*
X155266912Y-86054935D01*
X155270421Y-86059582D01*
X155270422Y-86059583D01*
X155386755Y-86213634D01*
X155386759Y-86213638D01*
X155390268Y-86218285D01*
X155394570Y-86222207D01*
X155394573Y-86222210D01*
X155441762Y-86265228D01*
X155541538Y-86356186D01*
X155715573Y-86463944D01*
X155906444Y-86537888D01*
X156107653Y-86575500D01*
X156306519Y-86575500D01*
X156312347Y-86575500D01*
X156513556Y-86537888D01*
X156704427Y-86463944D01*
X156878462Y-86356186D01*
X157029732Y-86218285D01*
X157153088Y-86054935D01*
X157244328Y-85871701D01*
X157300345Y-85674821D01*
X157319232Y-85471000D01*
X157300345Y-85267179D01*
X157244328Y-85070299D01*
X157153088Y-84887065D01*
X157110860Y-84831146D01*
X157033244Y-84728365D01*
X157033241Y-84728361D01*
X157029732Y-84723715D01*
X157025429Y-84719792D01*
X157025426Y-84719789D01*
X156882764Y-84589736D01*
X156882765Y-84589736D01*
X156878462Y-84585814D01*
X156873512Y-84582749D01*
X156873508Y-84582746D01*
X156709387Y-84481127D01*
X156709386Y-84481126D01*
X156704427Y-84478056D01*
X156680898Y-84468941D01*
X156518989Y-84406216D01*
X156518981Y-84406213D01*
X156513556Y-84404112D01*
X156507839Y-84403043D01*
X156507831Y-84403041D01*
X156318073Y-84367570D01*
X156318069Y-84367569D01*
X156312347Y-84366500D01*
X156107653Y-84366500D01*
X156101931Y-84367569D01*
X156101926Y-84367570D01*
X155912168Y-84403041D01*
X155912157Y-84403043D01*
X155906444Y-84404112D01*
X155901021Y-84406212D01*
X155901010Y-84406216D01*
X155721011Y-84475949D01*
X155721008Y-84475950D01*
X155715573Y-84478056D01*
X155710617Y-84481124D01*
X155710612Y-84481127D01*
X155546491Y-84582746D01*
X155546481Y-84582752D01*
X155541538Y-84585814D01*
X155537239Y-84589732D01*
X155537235Y-84589736D01*
X155394573Y-84719789D01*
X155394565Y-84719797D01*
X155390268Y-84723715D01*
X155386763Y-84728355D01*
X155386755Y-84728365D01*
X155270422Y-84882416D01*
X155270418Y-84882421D01*
X155266912Y-84887065D01*
X155264317Y-84892274D01*
X155264314Y-84892281D01*
X155218669Y-84983949D01*
X155175672Y-85070299D01*
X155174078Y-85075899D01*
X155174076Y-85075906D01*
X155125774Y-85245673D01*
X155119655Y-85267179D01*
X155119118Y-85272972D01*
X155119116Y-85272984D01*
X155108235Y-85390416D01*
X155100768Y-85471000D01*
X128129976Y-85471000D01*
X128119355Y-85445358D01*
X128030474Y-85329526D01*
X127956788Y-85272984D01*
X127921196Y-85245673D01*
X127921194Y-85245671D01*
X127914643Y-85240645D01*
X127907016Y-85237485D01*
X127907013Y-85237484D01*
X127787383Y-85187932D01*
X127787382Y-85187931D01*
X127779754Y-85184772D01*
X127771571Y-85183694D01*
X127771565Y-85183693D01*
X127643188Y-85166793D01*
X127635000Y-85165715D01*
X127626812Y-85166793D01*
X127498431Y-85183694D01*
X127498427Y-85183694D01*
X127490246Y-85184772D01*
X127482627Y-85187927D01*
X127482619Y-85187930D01*
X127362986Y-85237485D01*
X127362983Y-85237486D01*
X127355358Y-85240645D01*
X127348810Y-85245668D01*
X127348807Y-85245671D01*
X127246071Y-85324503D01*
X127246067Y-85324506D01*
X127239526Y-85329526D01*
X127234506Y-85336067D01*
X127234503Y-85336071D01*
X127155671Y-85438807D01*
X127155668Y-85438810D01*
X127150645Y-85445358D01*
X127147486Y-85452983D01*
X127147485Y-85452986D01*
X127097930Y-85572619D01*
X127097927Y-85572627D01*
X127094772Y-85580246D01*
X127075715Y-85725000D01*
X120837068Y-85725000D01*
X120795328Y-85578299D01*
X120704088Y-85395065D01*
X120591273Y-85245673D01*
X120584244Y-85236365D01*
X120584241Y-85236361D01*
X120580732Y-85231715D01*
X120576429Y-85227792D01*
X120576426Y-85227789D01*
X120433764Y-85097736D01*
X120433765Y-85097736D01*
X120429462Y-85093814D01*
X120424512Y-85090749D01*
X120424508Y-85090746D01*
X120260387Y-84989127D01*
X120260386Y-84989126D01*
X120255427Y-84986056D01*
X120231898Y-84976941D01*
X120069989Y-84914216D01*
X120069981Y-84914213D01*
X120064556Y-84912112D01*
X120058839Y-84911043D01*
X120058831Y-84911041D01*
X119869073Y-84875570D01*
X119869069Y-84875569D01*
X119863347Y-84874500D01*
X119658653Y-84874500D01*
X119652931Y-84875569D01*
X119652926Y-84875570D01*
X119463168Y-84911041D01*
X119463157Y-84911043D01*
X119457444Y-84912112D01*
X119452021Y-84914212D01*
X119452010Y-84914216D01*
X119272011Y-84983949D01*
X119272008Y-84983950D01*
X119266573Y-84986056D01*
X119261617Y-84989124D01*
X119261612Y-84989127D01*
X119097491Y-85090746D01*
X119097481Y-85090752D01*
X119092538Y-85093814D01*
X119088239Y-85097732D01*
X119088235Y-85097736D01*
X118945573Y-85227789D01*
X118945565Y-85227797D01*
X118941268Y-85231715D01*
X118937763Y-85236355D01*
X118937755Y-85236365D01*
X118821422Y-85390416D01*
X118821418Y-85390421D01*
X118817912Y-85395065D01*
X118815317Y-85400274D01*
X118815314Y-85400281D01*
X118729500Y-85572619D01*
X118726672Y-85578299D01*
X118725078Y-85583899D01*
X118725076Y-85583906D01*
X118684932Y-85725000D01*
X118670655Y-85775179D01*
X118670118Y-85780972D01*
X118670116Y-85780984D01*
X118652306Y-85973194D01*
X118651768Y-85979000D01*
X118075500Y-85979000D01*
X118075500Y-84074000D01*
X147268715Y-84074000D01*
X147269793Y-84082188D01*
X147286693Y-84210565D01*
X147286694Y-84210571D01*
X147287772Y-84218754D01*
X147290931Y-84226382D01*
X147290932Y-84226383D01*
X147340484Y-84346013D01*
X147340485Y-84346016D01*
X147343645Y-84353643D01*
X147348671Y-84360194D01*
X147348673Y-84360196D01*
X147383986Y-84406216D01*
X147432526Y-84469474D01*
X147548357Y-84558355D01*
X147683246Y-84614228D01*
X147828000Y-84633285D01*
X147972754Y-84614228D01*
X148050559Y-84582000D01*
X152983715Y-84582000D01*
X152984793Y-84590188D01*
X153001693Y-84718565D01*
X153001694Y-84718571D01*
X153002772Y-84726754D01*
X153005931Y-84734382D01*
X153005932Y-84734383D01*
X153055484Y-84854013D01*
X153055485Y-84854016D01*
X153058645Y-84861643D01*
X153063671Y-84868194D01*
X153063673Y-84868196D01*
X153098986Y-84914216D01*
X153147526Y-84977474D01*
X153263357Y-85066355D01*
X153398246Y-85122228D01*
X153543000Y-85141285D01*
X153687754Y-85122228D01*
X153822643Y-85066355D01*
X153938474Y-84977474D01*
X154027355Y-84861643D01*
X154083228Y-84726754D01*
X154102285Y-84582000D01*
X154083228Y-84437246D01*
X154027355Y-84302358D01*
X153938474Y-84186526D01*
X153822643Y-84097645D01*
X153815016Y-84094485D01*
X153815013Y-84094484D01*
X153695383Y-84044932D01*
X153695382Y-84044931D01*
X153687754Y-84041772D01*
X153679571Y-84040694D01*
X153679565Y-84040693D01*
X153551188Y-84023793D01*
X153543000Y-84022715D01*
X153534812Y-84023793D01*
X153406431Y-84040694D01*
X153406427Y-84040694D01*
X153398246Y-84041772D01*
X153390627Y-84044927D01*
X153390619Y-84044930D01*
X153270986Y-84094485D01*
X153270983Y-84094486D01*
X153263358Y-84097645D01*
X153256810Y-84102668D01*
X153256807Y-84102671D01*
X153154071Y-84181503D01*
X153154067Y-84181506D01*
X153147526Y-84186526D01*
X153142506Y-84193067D01*
X153142503Y-84193071D01*
X153063671Y-84295807D01*
X153063668Y-84295810D01*
X153058645Y-84302358D01*
X153055486Y-84309983D01*
X153055485Y-84309986D01*
X153005930Y-84429619D01*
X153005927Y-84429627D01*
X153002772Y-84437246D01*
X153001694Y-84445427D01*
X153001694Y-84445431D01*
X152997399Y-84478056D01*
X152983715Y-84582000D01*
X148050559Y-84582000D01*
X148107643Y-84558355D01*
X148223474Y-84469474D01*
X148312355Y-84353643D01*
X148368228Y-84218754D01*
X148387285Y-84074000D01*
X148368228Y-83929246D01*
X148364759Y-83920872D01*
X148351805Y-83889600D01*
X148312355Y-83794358D01*
X148223474Y-83678526D01*
X148107643Y-83589645D01*
X148100016Y-83586485D01*
X148100013Y-83586484D01*
X147980383Y-83536932D01*
X147980382Y-83536931D01*
X147972754Y-83533772D01*
X147964571Y-83532694D01*
X147964565Y-83532693D01*
X147836188Y-83515793D01*
X147828000Y-83514715D01*
X147819812Y-83515793D01*
X147691431Y-83532694D01*
X147691427Y-83532694D01*
X147683246Y-83533772D01*
X147675627Y-83536927D01*
X147675619Y-83536930D01*
X147555986Y-83586485D01*
X147555983Y-83586486D01*
X147548358Y-83589645D01*
X147541810Y-83594668D01*
X147541807Y-83594671D01*
X147439071Y-83673503D01*
X147439067Y-83673506D01*
X147432526Y-83678526D01*
X147427506Y-83685067D01*
X147427503Y-83685071D01*
X147348671Y-83787807D01*
X147348668Y-83787810D01*
X147343645Y-83794358D01*
X147340486Y-83801983D01*
X147340485Y-83801986D01*
X147290930Y-83921619D01*
X147290927Y-83921627D01*
X147287772Y-83929246D01*
X147286694Y-83937427D01*
X147286694Y-83937431D01*
X147273100Y-84040693D01*
X147268715Y-84074000D01*
X118075500Y-84074000D01*
X118075500Y-83439000D01*
X132028715Y-83439000D01*
X132029793Y-83447188D01*
X132046693Y-83575565D01*
X132046694Y-83575567D01*
X132047772Y-83583754D01*
X132050931Y-83591382D01*
X132050932Y-83591383D01*
X132100484Y-83711013D01*
X132100485Y-83711016D01*
X132103645Y-83718643D01*
X132108671Y-83725194D01*
X132108673Y-83725196D01*
X132167597Y-83801986D01*
X132192526Y-83834474D01*
X132308357Y-83923355D01*
X132443246Y-83979228D01*
X132588000Y-83998285D01*
X132732754Y-83979228D01*
X132867643Y-83923355D01*
X132983474Y-83834474D01*
X133072355Y-83718643D01*
X133128228Y-83583754D01*
X133129307Y-83575557D01*
X133130297Y-83571863D01*
X133159106Y-83519349D01*
X133208909Y-83486070D01*
X133268451Y-83479549D01*
X133350000Y-83490285D01*
X133494754Y-83471228D01*
X133522466Y-83459749D01*
X133578920Y-83450426D01*
X133633680Y-83467036D01*
X133675447Y-83506152D01*
X133695606Y-83559707D01*
X133697694Y-83575565D01*
X133698772Y-83583754D01*
X133701931Y-83591382D01*
X133701932Y-83591383D01*
X133751484Y-83711013D01*
X133751485Y-83711016D01*
X133754645Y-83718643D01*
X133759671Y-83725194D01*
X133759673Y-83725196D01*
X133818597Y-83801986D01*
X133843526Y-83834474D01*
X133959357Y-83923355D01*
X134094246Y-83979228D01*
X134239000Y-83998285D01*
X134383754Y-83979228D01*
X134518643Y-83923355D01*
X134634474Y-83834474D01*
X134723355Y-83718643D01*
X134779228Y-83583754D01*
X134780307Y-83575557D01*
X134781297Y-83571863D01*
X134810106Y-83519349D01*
X134859909Y-83486070D01*
X134919451Y-83479549D01*
X135001000Y-83490285D01*
X135082548Y-83479549D01*
X135142088Y-83486070D01*
X135191891Y-83519346D01*
X135220701Y-83571859D01*
X135221693Y-83575564D01*
X135222772Y-83583754D01*
X135225932Y-83591383D01*
X135225933Y-83591386D01*
X135275484Y-83711013D01*
X135275485Y-83711016D01*
X135278645Y-83718643D01*
X135283671Y-83725194D01*
X135283673Y-83725196D01*
X135342597Y-83801986D01*
X135367526Y-83834474D01*
X135483357Y-83923355D01*
X135618246Y-83979228D01*
X135763000Y-83998285D01*
X135907754Y-83979228D01*
X136042643Y-83923355D01*
X136158474Y-83834474D01*
X136247355Y-83718643D01*
X136303228Y-83583754D01*
X136306393Y-83559711D01*
X136326550Y-83506155D01*
X136368316Y-83467037D01*
X136423076Y-83450427D01*
X136479535Y-83459749D01*
X136507246Y-83471228D01*
X136652000Y-83490285D01*
X136796754Y-83471228D01*
X136931643Y-83415355D01*
X137047474Y-83326474D01*
X137136355Y-83210643D01*
X137192228Y-83075754D01*
X137211285Y-82931000D01*
X155100768Y-82931000D01*
X155101306Y-82936806D01*
X155119116Y-83129015D01*
X155119117Y-83129025D01*
X155119655Y-83134821D01*
X155121249Y-83140426D01*
X155121250Y-83140427D01*
X155143092Y-83217196D01*
X155175672Y-83331701D01*
X155178271Y-83336920D01*
X155262538Y-83506152D01*
X155266912Y-83514935D01*
X155270421Y-83519582D01*
X155270422Y-83519583D01*
X155386755Y-83673634D01*
X155386759Y-83673638D01*
X155390268Y-83678285D01*
X155394570Y-83682207D01*
X155394573Y-83682210D01*
X155441727Y-83725196D01*
X155541538Y-83816186D01*
X155715573Y-83923944D01*
X155906444Y-83997888D01*
X156107653Y-84035500D01*
X156306519Y-84035500D01*
X156312347Y-84035500D01*
X156513556Y-83997888D01*
X156704427Y-83923944D01*
X156878462Y-83816186D01*
X157029732Y-83678285D01*
X157153088Y-83514935D01*
X157244328Y-83331701D01*
X157300345Y-83134821D01*
X157319232Y-82931000D01*
X157300345Y-82727179D01*
X157244328Y-82530299D01*
X157153088Y-82347065D01*
X157040273Y-82197673D01*
X157033244Y-82188365D01*
X157033241Y-82188361D01*
X157029732Y-82183715D01*
X157025429Y-82179792D01*
X157025426Y-82179789D01*
X156893753Y-82059754D01*
X156878462Y-82045814D01*
X156873512Y-82042749D01*
X156873508Y-82042746D01*
X156709387Y-81941127D01*
X156709386Y-81941126D01*
X156704427Y-81938056D01*
X156680898Y-81928941D01*
X156518989Y-81866216D01*
X156518981Y-81866213D01*
X156513556Y-81864112D01*
X156507839Y-81863043D01*
X156507831Y-81863041D01*
X156318073Y-81827570D01*
X156318069Y-81827569D01*
X156312347Y-81826500D01*
X156107653Y-81826500D01*
X156101931Y-81827569D01*
X156101926Y-81827570D01*
X155912168Y-81863041D01*
X155912157Y-81863043D01*
X155906444Y-81864112D01*
X155901021Y-81866212D01*
X155901010Y-81866216D01*
X155721011Y-81935949D01*
X155721008Y-81935950D01*
X155715573Y-81938056D01*
X155710617Y-81941124D01*
X155710612Y-81941127D01*
X155546491Y-82042746D01*
X155546481Y-82042752D01*
X155541538Y-82045814D01*
X155537239Y-82049732D01*
X155537235Y-82049736D01*
X155394573Y-82179789D01*
X155394565Y-82179797D01*
X155390268Y-82183715D01*
X155386763Y-82188355D01*
X155386755Y-82188365D01*
X155270422Y-82342416D01*
X155270418Y-82342421D01*
X155266912Y-82347065D01*
X155264317Y-82352274D01*
X155264314Y-82352281D01*
X155178500Y-82524619D01*
X155175672Y-82530299D01*
X155174078Y-82535899D01*
X155174076Y-82535906D01*
X155131602Y-82685188D01*
X155119655Y-82727179D01*
X155119118Y-82732972D01*
X155119116Y-82732984D01*
X155103854Y-82897693D01*
X155100768Y-82931000D01*
X137211285Y-82931000D01*
X137192228Y-82786246D01*
X137136355Y-82651358D01*
X137047474Y-82535526D01*
X136966259Y-82473207D01*
X136938196Y-82451673D01*
X136938194Y-82451671D01*
X136931643Y-82446645D01*
X136924016Y-82443485D01*
X136924013Y-82443484D01*
X136804383Y-82393932D01*
X136804382Y-82393931D01*
X136796754Y-82390772D01*
X136788571Y-82389694D01*
X136788565Y-82389693D01*
X136660188Y-82372793D01*
X136652000Y-82371715D01*
X136643812Y-82372793D01*
X136515431Y-82389694D01*
X136515427Y-82389694D01*
X136507246Y-82390772D01*
X136499627Y-82393927D01*
X136499619Y-82393930D01*
X136379986Y-82443485D01*
X136379983Y-82443486D01*
X136372358Y-82446645D01*
X136365810Y-82451668D01*
X136365807Y-82451671D01*
X136263071Y-82530503D01*
X136263067Y-82530506D01*
X136256526Y-82535526D01*
X136251506Y-82542067D01*
X136251503Y-82542071D01*
X136172671Y-82644807D01*
X136172668Y-82644810D01*
X136167645Y-82651358D01*
X136164486Y-82658983D01*
X136164485Y-82658986D01*
X136114930Y-82778619D01*
X136114927Y-82778627D01*
X136111772Y-82786246D01*
X136110695Y-82794425D01*
X136110694Y-82794430D01*
X136108606Y-82810292D01*
X136088447Y-82863847D01*
X136046682Y-82902963D01*
X135991923Y-82919572D01*
X135935465Y-82910250D01*
X135915386Y-82901933D01*
X135915384Y-82901932D01*
X135907754Y-82898772D01*
X135899571Y-82897694D01*
X135899565Y-82897693D01*
X135771188Y-82880793D01*
X135763000Y-82879715D01*
X135754812Y-82880793D01*
X135754810Y-82880793D01*
X135681450Y-82890450D01*
X135621908Y-82883928D01*
X135572106Y-82850650D01*
X135543297Y-82798136D01*
X135542306Y-82794440D01*
X135541228Y-82786246D01*
X135485355Y-82651358D01*
X135396474Y-82535526D01*
X135315259Y-82473207D01*
X135287196Y-82451673D01*
X135287194Y-82451671D01*
X135280643Y-82446645D01*
X135273016Y-82443485D01*
X135273013Y-82443484D01*
X135153383Y-82393932D01*
X135153382Y-82393931D01*
X135145754Y-82390772D01*
X135137571Y-82389694D01*
X135137565Y-82389693D01*
X135009188Y-82372793D01*
X135001000Y-82371715D01*
X134992812Y-82372793D01*
X134864431Y-82389694D01*
X134864427Y-82389694D01*
X134856246Y-82390772D01*
X134848627Y-82393927D01*
X134848619Y-82393930D01*
X134728986Y-82443485D01*
X134728983Y-82443486D01*
X134721358Y-82446645D01*
X134714810Y-82451668D01*
X134714807Y-82451671D01*
X134612071Y-82530503D01*
X134612067Y-82530506D01*
X134605526Y-82535526D01*
X134600506Y-82542067D01*
X134600503Y-82542071D01*
X134521671Y-82644807D01*
X134521668Y-82644810D01*
X134516645Y-82651358D01*
X134513486Y-82658983D01*
X134513485Y-82658986D01*
X134463932Y-82778615D01*
X134463931Y-82778619D01*
X134460772Y-82786246D01*
X134459694Y-82794432D01*
X134458701Y-82798140D01*
X134429891Y-82850652D01*
X134380089Y-82883929D01*
X134320549Y-82890450D01*
X134247190Y-82880793D01*
X134247188Y-82880793D01*
X134239000Y-82879715D01*
X134230812Y-82880793D01*
X134102431Y-82897694D01*
X134102427Y-82897694D01*
X134094246Y-82898772D01*
X134086626Y-82901928D01*
X134086616Y-82901931D01*
X134066531Y-82910251D01*
X134010072Y-82919571D01*
X133955314Y-82902959D01*
X133913549Y-82863842D01*
X133893393Y-82810287D01*
X133890228Y-82786246D01*
X133834355Y-82651358D01*
X133745474Y-82535526D01*
X133664259Y-82473207D01*
X133636196Y-82451673D01*
X133636194Y-82451671D01*
X133629643Y-82446645D01*
X133622016Y-82443485D01*
X133622013Y-82443484D01*
X133502383Y-82393932D01*
X133502382Y-82393931D01*
X133494754Y-82390772D01*
X133486571Y-82389694D01*
X133486565Y-82389693D01*
X133358188Y-82372793D01*
X133350000Y-82371715D01*
X133341812Y-82372793D01*
X133213431Y-82389694D01*
X133213427Y-82389694D01*
X133205246Y-82390772D01*
X133197627Y-82393927D01*
X133197619Y-82393930D01*
X133077986Y-82443485D01*
X133077983Y-82443486D01*
X133070358Y-82446645D01*
X133063810Y-82451668D01*
X133063807Y-82451671D01*
X132961071Y-82530503D01*
X132961067Y-82530506D01*
X132954526Y-82535526D01*
X132949506Y-82542067D01*
X132949503Y-82542071D01*
X132870671Y-82644807D01*
X132870668Y-82644810D01*
X132865645Y-82651358D01*
X132862486Y-82658983D01*
X132862485Y-82658986D01*
X132812932Y-82778615D01*
X132812931Y-82778619D01*
X132809772Y-82786246D01*
X132808694Y-82794432D01*
X132807701Y-82798140D01*
X132778891Y-82850652D01*
X132729089Y-82883929D01*
X132669549Y-82890450D01*
X132596190Y-82880793D01*
X132596188Y-82880793D01*
X132588000Y-82879715D01*
X132579812Y-82880793D01*
X132451431Y-82897694D01*
X132451427Y-82897694D01*
X132443246Y-82898772D01*
X132435627Y-82901927D01*
X132435619Y-82901930D01*
X132315986Y-82951485D01*
X132315983Y-82951486D01*
X132308358Y-82954645D01*
X132301810Y-82959668D01*
X132301807Y-82959671D01*
X132199071Y-83038503D01*
X132199067Y-83038506D01*
X132192526Y-83043526D01*
X132187506Y-83050067D01*
X132187503Y-83050071D01*
X132108671Y-83152807D01*
X132108668Y-83152810D01*
X132103645Y-83159358D01*
X132100486Y-83166983D01*
X132100485Y-83166986D01*
X132050930Y-83286619D01*
X132050927Y-83286627D01*
X132047772Y-83294246D01*
X132046694Y-83302427D01*
X132046694Y-83302431D01*
X132043579Y-83326093D01*
X132028715Y-83439000D01*
X118075500Y-83439000D01*
X118075500Y-82677000D01*
X120979715Y-82677000D01*
X120980793Y-82685188D01*
X120997693Y-82813565D01*
X120997694Y-82813571D01*
X120998772Y-82821754D01*
X121001931Y-82829382D01*
X121001932Y-82829383D01*
X121051484Y-82949013D01*
X121051485Y-82949016D01*
X121054645Y-82956643D01*
X121059671Y-82963194D01*
X121059673Y-82963196D01*
X121117459Y-83038503D01*
X121143526Y-83072474D01*
X121150076Y-83077500D01*
X121224777Y-83134821D01*
X121259357Y-83161355D01*
X121394246Y-83217228D01*
X121539000Y-83236285D01*
X121683754Y-83217228D01*
X121818643Y-83161355D01*
X121934474Y-83072474D01*
X122023355Y-82956643D01*
X122079228Y-82821754D01*
X122098285Y-82677000D01*
X122079228Y-82532246D01*
X122023355Y-82397358D01*
X121934474Y-82281526D01*
X121818643Y-82192645D01*
X121811016Y-82189485D01*
X121811013Y-82189484D01*
X121691383Y-82139932D01*
X121691382Y-82139931D01*
X121683754Y-82136772D01*
X121675571Y-82135694D01*
X121675565Y-82135693D01*
X121547188Y-82118793D01*
X121539000Y-82117715D01*
X121530812Y-82118793D01*
X121402431Y-82135694D01*
X121402427Y-82135694D01*
X121394246Y-82136772D01*
X121386627Y-82139927D01*
X121386619Y-82139930D01*
X121266986Y-82189485D01*
X121266983Y-82189486D01*
X121259358Y-82192645D01*
X121252810Y-82197668D01*
X121252807Y-82197671D01*
X121150071Y-82276503D01*
X121150067Y-82276506D01*
X121143526Y-82281526D01*
X121138506Y-82288067D01*
X121138503Y-82288071D01*
X121059671Y-82390807D01*
X121059668Y-82390810D01*
X121054645Y-82397358D01*
X121051486Y-82404983D01*
X121051485Y-82404986D01*
X121001930Y-82524619D01*
X121001927Y-82524627D01*
X120998772Y-82532246D01*
X120997694Y-82540427D01*
X120997694Y-82540431D01*
X120992196Y-82582196D01*
X120979715Y-82677000D01*
X118075500Y-82677000D01*
X118075500Y-81915000D01*
X129996715Y-81915000D01*
X129997793Y-81923188D01*
X130014693Y-82051565D01*
X130014694Y-82051571D01*
X130015772Y-82059754D01*
X130018931Y-82067382D01*
X130018932Y-82067383D01*
X130068484Y-82187013D01*
X130068485Y-82187016D01*
X130071645Y-82194643D01*
X130076671Y-82201194D01*
X130076673Y-82201196D01*
X130155499Y-82303923D01*
X130160526Y-82310474D01*
X130167076Y-82315500D01*
X130265171Y-82390772D01*
X130276357Y-82399355D01*
X130411246Y-82455228D01*
X130556000Y-82474285D01*
X130700754Y-82455228D01*
X130835643Y-82399355D01*
X130951474Y-82310474D01*
X130962580Y-82296000D01*
X150824715Y-82296000D01*
X150825793Y-82304188D01*
X150842693Y-82432565D01*
X150842694Y-82432571D01*
X150843772Y-82440754D01*
X150846931Y-82448382D01*
X150846932Y-82448383D01*
X150896484Y-82568013D01*
X150896485Y-82568016D01*
X150899645Y-82575643D01*
X150904671Y-82582194D01*
X150904673Y-82582196D01*
X150983499Y-82684923D01*
X150988526Y-82691474D01*
X151104357Y-82780355D01*
X151239246Y-82836228D01*
X151384000Y-82855285D01*
X151528754Y-82836228D01*
X151663643Y-82780355D01*
X151779474Y-82691474D01*
X151868355Y-82575643D01*
X151924228Y-82440754D01*
X151943285Y-82296000D01*
X151924228Y-82151246D01*
X151868355Y-82016358D01*
X151779474Y-81900526D01*
X151684397Y-81827570D01*
X151670196Y-81816673D01*
X151670194Y-81816671D01*
X151663643Y-81811645D01*
X151656016Y-81808485D01*
X151656013Y-81808484D01*
X151536383Y-81758932D01*
X151536382Y-81758931D01*
X151528754Y-81755772D01*
X151520571Y-81754694D01*
X151520565Y-81754693D01*
X151392188Y-81737793D01*
X151384000Y-81736715D01*
X151375812Y-81737793D01*
X151247431Y-81754694D01*
X151247427Y-81754694D01*
X151239246Y-81755772D01*
X151231627Y-81758927D01*
X151231619Y-81758930D01*
X151111986Y-81808485D01*
X151111983Y-81808486D01*
X151104358Y-81811645D01*
X151097810Y-81816668D01*
X151097807Y-81816671D01*
X150995071Y-81895503D01*
X150995067Y-81895506D01*
X150988526Y-81900526D01*
X150983506Y-81907067D01*
X150983503Y-81907071D01*
X150904671Y-82009807D01*
X150904668Y-82009810D01*
X150899645Y-82016358D01*
X150896486Y-82023983D01*
X150896485Y-82023986D01*
X150846930Y-82143619D01*
X150846927Y-82143627D01*
X150843772Y-82151246D01*
X150842694Y-82159427D01*
X150842694Y-82159431D01*
X150837660Y-82197671D01*
X150824715Y-82296000D01*
X130962580Y-82296000D01*
X131040355Y-82194643D01*
X131096228Y-82059754D01*
X131115285Y-81915000D01*
X131096228Y-81770246D01*
X131040355Y-81635358D01*
X130951474Y-81519526D01*
X130835643Y-81430645D01*
X130828016Y-81427485D01*
X130828013Y-81427484D01*
X130708383Y-81377932D01*
X130708382Y-81377931D01*
X130700754Y-81374772D01*
X130692571Y-81373694D01*
X130692565Y-81373693D01*
X130564188Y-81356793D01*
X130556000Y-81355715D01*
X130547812Y-81356793D01*
X130419431Y-81373694D01*
X130419427Y-81373694D01*
X130411246Y-81374772D01*
X130403627Y-81377927D01*
X130403619Y-81377930D01*
X130283986Y-81427485D01*
X130283983Y-81427486D01*
X130276358Y-81430645D01*
X130269810Y-81435668D01*
X130269807Y-81435671D01*
X130167071Y-81514503D01*
X130167067Y-81514506D01*
X130160526Y-81519526D01*
X130155506Y-81526067D01*
X130155503Y-81526071D01*
X130076671Y-81628807D01*
X130076668Y-81628810D01*
X130071645Y-81635358D01*
X130068486Y-81642983D01*
X130068485Y-81642986D01*
X130018930Y-81762619D01*
X130018927Y-81762627D01*
X130015772Y-81770246D01*
X130014694Y-81778427D01*
X130014694Y-81778431D01*
X130009660Y-81816671D01*
X129996715Y-81915000D01*
X118075500Y-81915000D01*
X118075500Y-81026000D01*
X123265715Y-81026000D01*
X123266793Y-81034188D01*
X123283693Y-81162565D01*
X123283694Y-81162571D01*
X123284772Y-81170754D01*
X123287931Y-81178382D01*
X123287932Y-81178383D01*
X123337484Y-81298013D01*
X123337485Y-81298016D01*
X123340645Y-81305643D01*
X123429526Y-81421474D01*
X123545357Y-81510355D01*
X123680246Y-81566228D01*
X123825000Y-81585285D01*
X123969754Y-81566228D01*
X124104643Y-81510355D01*
X124220474Y-81421474D01*
X124309355Y-81305643D01*
X124365228Y-81170754D01*
X124384285Y-81026000D01*
X124365228Y-80881246D01*
X124309355Y-80746358D01*
X124220474Y-80630526D01*
X124104643Y-80541645D01*
X124097016Y-80538485D01*
X124097013Y-80538484D01*
X123977383Y-80488932D01*
X123977382Y-80488931D01*
X123969754Y-80485772D01*
X123961571Y-80484694D01*
X123961565Y-80484693D01*
X123833188Y-80467793D01*
X123825000Y-80466715D01*
X123816812Y-80467793D01*
X123688431Y-80484694D01*
X123688427Y-80484694D01*
X123680246Y-80485772D01*
X123672627Y-80488927D01*
X123672619Y-80488930D01*
X123552986Y-80538485D01*
X123552983Y-80538486D01*
X123545358Y-80541645D01*
X123538810Y-80546668D01*
X123538807Y-80546671D01*
X123436071Y-80625503D01*
X123436067Y-80625506D01*
X123429526Y-80630526D01*
X123424506Y-80637067D01*
X123424503Y-80637071D01*
X123345671Y-80739807D01*
X123345668Y-80739810D01*
X123340645Y-80746358D01*
X123337486Y-80753983D01*
X123337485Y-80753986D01*
X123287930Y-80873619D01*
X123287927Y-80873627D01*
X123284772Y-80881246D01*
X123265715Y-81026000D01*
X118075500Y-81026000D01*
X118075500Y-80009000D01*
X118092381Y-79946000D01*
X118138500Y-79899881D01*
X118201500Y-79883000D01*
X121027316Y-79883000D01*
X121031000Y-79883485D01*
X121034684Y-79883000D01*
X123571000Y-79883000D01*
X123598699Y-79855299D01*
X123632067Y-79831389D01*
X123671349Y-79819473D01*
X123715754Y-79813628D01*
X123850643Y-79757755D01*
X123966474Y-79668874D01*
X124055355Y-79553043D01*
X124111228Y-79418154D01*
X124117073Y-79373747D01*
X124128988Y-79334466D01*
X124152897Y-79301101D01*
X124196748Y-79257250D01*
X124230112Y-79233342D01*
X124269390Y-79221427D01*
X124401554Y-79204028D01*
X124536443Y-79148155D01*
X124652274Y-79059274D01*
X124664536Y-79043293D01*
X124708767Y-79006994D01*
X124764496Y-78994000D01*
X126812295Y-78994000D01*
X126852797Y-79000687D01*
X126888999Y-79020037D01*
X126923557Y-79046555D01*
X127058446Y-79102428D01*
X127203200Y-79121485D01*
X127347954Y-79102428D01*
X127482843Y-79046555D01*
X127517400Y-79020037D01*
X127553603Y-79000687D01*
X127594105Y-78994000D01*
X129396410Y-78994000D01*
X129413000Y-78994000D01*
X129413000Y-76580000D01*
X129429881Y-76517000D01*
X129476000Y-76470881D01*
X129539000Y-76454000D01*
X131065000Y-76454000D01*
X131128000Y-76470881D01*
X131174119Y-76517000D01*
X131191000Y-76580000D01*
X131191000Y-80645000D01*
X138032410Y-80645000D01*
X138049000Y-80645000D01*
X138049000Y-78670938D01*
X139987530Y-78670938D01*
X139988608Y-78679126D01*
X140005508Y-78807503D01*
X140005509Y-78807509D01*
X140006587Y-78815692D01*
X140009746Y-78823320D01*
X140009747Y-78823321D01*
X140059299Y-78942951D01*
X140059300Y-78942954D01*
X140062460Y-78950581D01*
X140067486Y-78957132D01*
X140067488Y-78957134D01*
X140146314Y-79059861D01*
X140151341Y-79066412D01*
X140180762Y-79088988D01*
X140222458Y-79145851D01*
X140227072Y-79216215D01*
X140195110Y-79274479D01*
X140195159Y-79274516D01*
X140194918Y-79274828D01*
X140194914Y-79274835D01*
X140190142Y-79281053D01*
X140190138Y-79281058D01*
X140111304Y-79383797D01*
X140111301Y-79383800D01*
X140106278Y-79390348D01*
X140103119Y-79397973D01*
X140103118Y-79397976D01*
X140053563Y-79517609D01*
X140053560Y-79517617D01*
X140050405Y-79525236D01*
X140049327Y-79533417D01*
X140049327Y-79533421D01*
X140046744Y-79553043D01*
X140031348Y-79669990D01*
X140032426Y-79678178D01*
X140049326Y-79806555D01*
X140049327Y-79806561D01*
X140050405Y-79814744D01*
X140053564Y-79822372D01*
X140053565Y-79822373D01*
X140103117Y-79942003D01*
X140103118Y-79942006D01*
X140106278Y-79949633D01*
X140111304Y-79956184D01*
X140111306Y-79956186D01*
X140138777Y-79991986D01*
X140195159Y-80065464D01*
X140201709Y-80070490D01*
X140207550Y-80076331D01*
X140206682Y-80077198D01*
X140236575Y-80113617D01*
X140249572Y-80169344D01*
X140236582Y-80225072D01*
X140205351Y-80263132D01*
X140205877Y-80263658D01*
X140200544Y-80268990D01*
X140200284Y-80269308D01*
X140200038Y-80269496D01*
X140200027Y-80269506D01*
X140193486Y-80274526D01*
X140188466Y-80281067D01*
X140188463Y-80281071D01*
X140109631Y-80383807D01*
X140109628Y-80383810D01*
X140104605Y-80390358D01*
X140101446Y-80397983D01*
X140101445Y-80397986D01*
X140051890Y-80517619D01*
X140051887Y-80517627D01*
X140048732Y-80525246D01*
X140047654Y-80533427D01*
X140047654Y-80533431D01*
X140046989Y-80538484D01*
X140029675Y-80670000D01*
X140030753Y-80678188D01*
X140047653Y-80806565D01*
X140047654Y-80806571D01*
X140048732Y-80814754D01*
X140051891Y-80822382D01*
X140051892Y-80822383D01*
X140101444Y-80942013D01*
X140101445Y-80942016D01*
X140104605Y-80949643D01*
X140193486Y-81065474D01*
X140309317Y-81154355D01*
X140444206Y-81210228D01*
X140588960Y-81229285D01*
X140733714Y-81210228D01*
X140868603Y-81154355D01*
X140984434Y-81065474D01*
X141073315Y-80949643D01*
X141129188Y-80814754D01*
X141148245Y-80670000D01*
X141129188Y-80525246D01*
X141073315Y-80390358D01*
X140984434Y-80274526D01*
X140977879Y-80269496D01*
X140972383Y-80264000D01*
X143966715Y-80264000D01*
X143967793Y-80272188D01*
X143984693Y-80400565D01*
X143984694Y-80400571D01*
X143985772Y-80408754D01*
X143988931Y-80416382D01*
X143988932Y-80416383D01*
X144038484Y-80536013D01*
X144038485Y-80536016D01*
X144041645Y-80543643D01*
X144046671Y-80550194D01*
X144046673Y-80550196D01*
X144125499Y-80652923D01*
X144130526Y-80659474D01*
X144246357Y-80748355D01*
X144381246Y-80804228D01*
X144526000Y-80823285D01*
X144670754Y-80804228D01*
X144805643Y-80748355D01*
X144921474Y-80659474D01*
X145010355Y-80543643D01*
X145066228Y-80408754D01*
X145085285Y-80264000D01*
X145066228Y-80119246D01*
X145010355Y-79984358D01*
X144921474Y-79868526D01*
X144861327Y-79822373D01*
X144812196Y-79784673D01*
X144812194Y-79784671D01*
X144805643Y-79779645D01*
X144798016Y-79776485D01*
X144798013Y-79776484D01*
X144678383Y-79726932D01*
X144678382Y-79726931D01*
X144670754Y-79723772D01*
X144662571Y-79722694D01*
X144662565Y-79722693D01*
X144534188Y-79705793D01*
X144526000Y-79704715D01*
X144517812Y-79705793D01*
X144389431Y-79722694D01*
X144389427Y-79722694D01*
X144381246Y-79723772D01*
X144373627Y-79726927D01*
X144373619Y-79726930D01*
X144253986Y-79776485D01*
X144253983Y-79776486D01*
X144246358Y-79779645D01*
X144239810Y-79784668D01*
X144239807Y-79784671D01*
X144137071Y-79863503D01*
X144137067Y-79863506D01*
X144130526Y-79868526D01*
X144125506Y-79875067D01*
X144125503Y-79875071D01*
X144046671Y-79977807D01*
X144046668Y-79977810D01*
X144041645Y-79984358D01*
X144038486Y-79991983D01*
X144038485Y-79991986D01*
X143988930Y-80111619D01*
X143988927Y-80111627D01*
X143985772Y-80119246D01*
X143984694Y-80127427D01*
X143984694Y-80127431D01*
X143971840Y-80225072D01*
X143966715Y-80264000D01*
X140972383Y-80264000D01*
X140972044Y-80263661D01*
X140972909Y-80262795D01*
X140943009Y-80226353D01*
X140930020Y-80170624D01*
X140943019Y-80114898D01*
X140974243Y-80076858D01*
X140973716Y-80076331D01*
X140979073Y-80070973D01*
X140979322Y-80070669D01*
X140986107Y-80065464D01*
X141074988Y-79949633D01*
X141130861Y-79814744D01*
X141149918Y-79669990D01*
X141130861Y-79525236D01*
X141074988Y-79390348D01*
X140986107Y-79274516D01*
X140979556Y-79269489D01*
X140979552Y-79269485D01*
X140956684Y-79251938D01*
X140914986Y-79195068D01*
X140910377Y-79124700D01*
X140942338Y-79066449D01*
X140942289Y-79066412D01*
X140942288Y-79066412D01*
X141031170Y-78950581D01*
X141087043Y-78815692D01*
X141106100Y-78670938D01*
X141087043Y-78526184D01*
X141031170Y-78391296D01*
X140942289Y-78275464D01*
X140826458Y-78186583D01*
X140818831Y-78183423D01*
X140818828Y-78183422D01*
X140699198Y-78133870D01*
X140699197Y-78133869D01*
X140691569Y-78130710D01*
X140683386Y-78129632D01*
X140683380Y-78129631D01*
X140555003Y-78112731D01*
X140546815Y-78111653D01*
X140538627Y-78112731D01*
X140410246Y-78129632D01*
X140410242Y-78129632D01*
X140402061Y-78130710D01*
X140394442Y-78133865D01*
X140394434Y-78133868D01*
X140274801Y-78183423D01*
X140274798Y-78183424D01*
X140267173Y-78186583D01*
X140260625Y-78191606D01*
X140260622Y-78191609D01*
X140157886Y-78270441D01*
X140157882Y-78270444D01*
X140151341Y-78275464D01*
X140146321Y-78282005D01*
X140146318Y-78282009D01*
X140067486Y-78384745D01*
X140067483Y-78384748D01*
X140062460Y-78391296D01*
X140059301Y-78398921D01*
X140059300Y-78398924D01*
X140009745Y-78518557D01*
X140009742Y-78518565D01*
X140006587Y-78526184D01*
X139987530Y-78670938D01*
X138049000Y-78670938D01*
X138049000Y-76581000D01*
X142742271Y-76581000D01*
X142763081Y-76725734D01*
X142766822Y-76733926D01*
X142766824Y-76733932D01*
X142805881Y-76819454D01*
X142823824Y-76858743D01*
X142919579Y-76969250D01*
X143042589Y-77048304D01*
X143182889Y-77089500D01*
X143320102Y-77089500D01*
X143329111Y-77089500D01*
X143330814Y-77089000D01*
X144012271Y-77089000D01*
X144033081Y-77233734D01*
X144036822Y-77241926D01*
X144036824Y-77241932D01*
X144090080Y-77358545D01*
X144093824Y-77366743D01*
X144189579Y-77477250D01*
X144312589Y-77556304D01*
X144452889Y-77597500D01*
X144590102Y-77597500D01*
X144599111Y-77597500D01*
X144739411Y-77556304D01*
X144862421Y-77477250D01*
X144958176Y-77366743D01*
X145018919Y-77233734D01*
X145039729Y-77089000D01*
X145018919Y-76944266D01*
X144958176Y-76811257D01*
X144862421Y-76700750D01*
X144739411Y-76621696D01*
X144729950Y-76618918D01*
X144607755Y-76583038D01*
X144607754Y-76583037D01*
X144599111Y-76580500D01*
X144452889Y-76580500D01*
X144444246Y-76583037D01*
X144444244Y-76583038D01*
X144321235Y-76619157D01*
X144321233Y-76619157D01*
X144312589Y-76621696D01*
X144305011Y-76626566D01*
X144305009Y-76626567D01*
X144197159Y-76695878D01*
X144197156Y-76695880D01*
X144189579Y-76700750D01*
X144183681Y-76707555D01*
X144183678Y-76707559D01*
X144099726Y-76804445D01*
X144099724Y-76804447D01*
X144093824Y-76811257D01*
X144090081Y-76819450D01*
X144090080Y-76819454D01*
X144036824Y-76936067D01*
X144036821Y-76936075D01*
X144033081Y-76944266D01*
X144012271Y-77089000D01*
X143330814Y-77089000D01*
X143469411Y-77048304D01*
X143592421Y-76969250D01*
X143688176Y-76858743D01*
X143748919Y-76725734D01*
X143769729Y-76581000D01*
X143748919Y-76436266D01*
X143688176Y-76303257D01*
X143592421Y-76192750D01*
X143474023Y-76116660D01*
X146316393Y-76116660D01*
X146346668Y-76288354D01*
X146415721Y-76448438D01*
X146420103Y-76454324D01*
X146420106Y-76454329D01*
X146466764Y-76517000D01*
X146519832Y-76588283D01*
X146653386Y-76700349D01*
X146809185Y-76778594D01*
X146978829Y-76818800D01*
X147105767Y-76818800D01*
X147109436Y-76818800D01*
X147239164Y-76803637D01*
X147402993Y-76744008D01*
X147548654Y-76648205D01*
X147668296Y-76521393D01*
X147755467Y-76370407D01*
X147805469Y-76203388D01*
X147805666Y-76200000D01*
X150951715Y-76200000D01*
X150952793Y-76208188D01*
X150969693Y-76336565D01*
X150969694Y-76336571D01*
X150970772Y-76344754D01*
X150973931Y-76352382D01*
X150973932Y-76352383D01*
X151023484Y-76472013D01*
X151023485Y-76472016D01*
X151026645Y-76479643D01*
X151031671Y-76486194D01*
X151031673Y-76486196D01*
X151105487Y-76582391D01*
X151115526Y-76595474D01*
X151231357Y-76684355D01*
X151366246Y-76740228D01*
X151511000Y-76759285D01*
X151655754Y-76740228D01*
X151790643Y-76684355D01*
X151906474Y-76595474D01*
X151995355Y-76479643D01*
X152051228Y-76344754D01*
X152070285Y-76200000D01*
X152051228Y-76055246D01*
X152043531Y-76036665D01*
X152034805Y-76015600D01*
X151995355Y-75920358D01*
X151906474Y-75804526D01*
X151806755Y-75728008D01*
X151797196Y-75720673D01*
X151797194Y-75720671D01*
X151790643Y-75715645D01*
X151783016Y-75712485D01*
X151783013Y-75712484D01*
X151663383Y-75662932D01*
X151663382Y-75662931D01*
X151655754Y-75659772D01*
X151647571Y-75658694D01*
X151647565Y-75658693D01*
X151519188Y-75641793D01*
X151511000Y-75640715D01*
X151502812Y-75641793D01*
X151374431Y-75658694D01*
X151374427Y-75658694D01*
X151366246Y-75659772D01*
X151358627Y-75662927D01*
X151358619Y-75662930D01*
X151238986Y-75712485D01*
X151238983Y-75712486D01*
X151231358Y-75715645D01*
X151224810Y-75720668D01*
X151224807Y-75720671D01*
X151122071Y-75799503D01*
X151122067Y-75799506D01*
X151115526Y-75804526D01*
X151110506Y-75811067D01*
X151110503Y-75811071D01*
X151031671Y-75913807D01*
X151031668Y-75913810D01*
X151026645Y-75920358D01*
X151023486Y-75927983D01*
X151023485Y-75927986D01*
X150973930Y-76047619D01*
X150973927Y-76047627D01*
X150970772Y-76055246D01*
X150969694Y-76063427D01*
X150969694Y-76063431D01*
X150961735Y-76123886D01*
X150951715Y-76200000D01*
X147805666Y-76200000D01*
X147815607Y-76029340D01*
X147785332Y-75857646D01*
X147716279Y-75697562D01*
X147708892Y-75687640D01*
X147661966Y-75624607D01*
X147612168Y-75557717D01*
X147478614Y-75445651D01*
X147322815Y-75367406D01*
X147289876Y-75359599D01*
X147160309Y-75328891D01*
X147160302Y-75328890D01*
X147153171Y-75327200D01*
X147022564Y-75327200D01*
X147018936Y-75327623D01*
X147018919Y-75327625D01*
X146900120Y-75341511D01*
X146900114Y-75341512D01*
X146892836Y-75342363D01*
X146885949Y-75344869D01*
X146885943Y-75344871D01*
X146735903Y-75399481D01*
X146735895Y-75399484D01*
X146729007Y-75401992D01*
X146722875Y-75406024D01*
X146722873Y-75406026D01*
X146589481Y-75493759D01*
X146589475Y-75493763D01*
X146583346Y-75497795D01*
X146578312Y-75503130D01*
X146578308Y-75503134D01*
X146468742Y-75619266D01*
X146468738Y-75619271D01*
X146463704Y-75624607D01*
X146460032Y-75630966D01*
X146460032Y-75630967D01*
X146384038Y-75762594D01*
X146376533Y-75775593D01*
X146374428Y-75782622D01*
X146374427Y-75782626D01*
X146328635Y-75935581D01*
X146328633Y-75935588D01*
X146326531Y-75942612D01*
X146316393Y-76116660D01*
X143474023Y-76116660D01*
X143469411Y-76113696D01*
X143329111Y-76072500D01*
X143182889Y-76072500D01*
X143174246Y-76075037D01*
X143174244Y-76075038D01*
X143051235Y-76111157D01*
X143051233Y-76111157D01*
X143042589Y-76113696D01*
X143035011Y-76118566D01*
X143035009Y-76118567D01*
X142927159Y-76187878D01*
X142927156Y-76187880D01*
X142919579Y-76192750D01*
X142913681Y-76199555D01*
X142913678Y-76199559D01*
X142829726Y-76296445D01*
X142829724Y-76296447D01*
X142823824Y-76303257D01*
X142820081Y-76311450D01*
X142820080Y-76311454D01*
X142766824Y-76428067D01*
X142766821Y-76428075D01*
X142763081Y-76436266D01*
X142742271Y-76581000D01*
X138049000Y-76581000D01*
X138049000Y-75100660D01*
X141236393Y-75100660D01*
X141266668Y-75272354D01*
X141269572Y-75279088D01*
X141269574Y-75279092D01*
X141299028Y-75347373D01*
X141335721Y-75432438D01*
X141340103Y-75438324D01*
X141340106Y-75438329D01*
X141388352Y-75503134D01*
X141439832Y-75572283D01*
X141573386Y-75684349D01*
X141729185Y-75762594D01*
X141898829Y-75802800D01*
X142025767Y-75802800D01*
X142029436Y-75802800D01*
X142159164Y-75787637D01*
X142322993Y-75728008D01*
X142468654Y-75632205D01*
X142588296Y-75505393D01*
X142675467Y-75354407D01*
X142725469Y-75187388D01*
X142733064Y-75057000D01*
X148076271Y-75057000D01*
X148097081Y-75201734D01*
X148100822Y-75209926D01*
X148100824Y-75209932D01*
X148126032Y-75265129D01*
X148157824Y-75334743D01*
X148253579Y-75445250D01*
X148376589Y-75524304D01*
X148516889Y-75565500D01*
X148654102Y-75565500D01*
X148663111Y-75565500D01*
X148803411Y-75524304D01*
X148926421Y-75445250D01*
X149022176Y-75334743D01*
X149082919Y-75201734D01*
X149103729Y-75057000D01*
X149082919Y-74912266D01*
X149022176Y-74779257D01*
X148926421Y-74668750D01*
X148803411Y-74589696D01*
X148705689Y-74561002D01*
X148671755Y-74551038D01*
X148671754Y-74551037D01*
X148663111Y-74548500D01*
X148516889Y-74548500D01*
X148508246Y-74551037D01*
X148508244Y-74551038D01*
X148385235Y-74587157D01*
X148385233Y-74587157D01*
X148376589Y-74589696D01*
X148369011Y-74594566D01*
X148369009Y-74594567D01*
X148261159Y-74663878D01*
X148261156Y-74663880D01*
X148253579Y-74668750D01*
X148247681Y-74675555D01*
X148247678Y-74675559D01*
X148163726Y-74772445D01*
X148163724Y-74772447D01*
X148157824Y-74779257D01*
X148154081Y-74787450D01*
X148154080Y-74787454D01*
X148100824Y-74904067D01*
X148100821Y-74904075D01*
X148097081Y-74912266D01*
X148076271Y-75057000D01*
X142733064Y-75057000D01*
X142735607Y-75013340D01*
X142705332Y-74841646D01*
X142636279Y-74681562D01*
X142628892Y-74671640D01*
X142581966Y-74608607D01*
X142532168Y-74541717D01*
X142398614Y-74429651D01*
X142242815Y-74351406D01*
X142209876Y-74343599D01*
X142080309Y-74312891D01*
X142080302Y-74312890D01*
X142073171Y-74311200D01*
X141942564Y-74311200D01*
X141938936Y-74311623D01*
X141938919Y-74311625D01*
X141820120Y-74325511D01*
X141820114Y-74325512D01*
X141812836Y-74326363D01*
X141805949Y-74328869D01*
X141805943Y-74328871D01*
X141655903Y-74383481D01*
X141655895Y-74383484D01*
X141649007Y-74385992D01*
X141642875Y-74390024D01*
X141642873Y-74390026D01*
X141509481Y-74477759D01*
X141509475Y-74477763D01*
X141503346Y-74481795D01*
X141498312Y-74487130D01*
X141498308Y-74487134D01*
X141388742Y-74603266D01*
X141388738Y-74603271D01*
X141383704Y-74608607D01*
X141380032Y-74614966D01*
X141380032Y-74614967D01*
X141304038Y-74746594D01*
X141296533Y-74759593D01*
X141294428Y-74766622D01*
X141294427Y-74766626D01*
X141248635Y-74919581D01*
X141248633Y-74919588D01*
X141246531Y-74926612D01*
X141236393Y-75100660D01*
X138049000Y-75100660D01*
X138049000Y-74084660D01*
X146316393Y-74084660D01*
X146346668Y-74256354D01*
X146349572Y-74263088D01*
X146349574Y-74263092D01*
X146379028Y-74331373D01*
X146415721Y-74416438D01*
X146420103Y-74422324D01*
X146420106Y-74422329D01*
X146468352Y-74487134D01*
X146519832Y-74556283D01*
X146653386Y-74668349D01*
X146809185Y-74746594D01*
X146978829Y-74786800D01*
X147105767Y-74786800D01*
X147109436Y-74786800D01*
X147239164Y-74771637D01*
X147402993Y-74712008D01*
X147548654Y-74616205D01*
X147668296Y-74489393D01*
X147755467Y-74338407D01*
X147805469Y-74171388D01*
X147815607Y-73997340D01*
X147785332Y-73825646D01*
X147716279Y-73665562D01*
X147612168Y-73525717D01*
X147478614Y-73413651D01*
X147463380Y-73406000D01*
X150951715Y-73406000D01*
X150952793Y-73414188D01*
X150969693Y-73542565D01*
X150969694Y-73542571D01*
X150970772Y-73550754D01*
X150973931Y-73558382D01*
X150973932Y-73558383D01*
X151023484Y-73678013D01*
X151023485Y-73678016D01*
X151026645Y-73685643D01*
X151031671Y-73692194D01*
X151031673Y-73692196D01*
X151107110Y-73790506D01*
X151115526Y-73801474D01*
X151231357Y-73890355D01*
X151366246Y-73946228D01*
X151511000Y-73965285D01*
X151655754Y-73946228D01*
X151790643Y-73890355D01*
X151906474Y-73801474D01*
X151995355Y-73685643D01*
X152051228Y-73550754D01*
X152070285Y-73406000D01*
X152051228Y-73261246D01*
X151995355Y-73126358D01*
X151906474Y-73010526D01*
X151790643Y-72921645D01*
X151783016Y-72918485D01*
X151783013Y-72918484D01*
X151663383Y-72868932D01*
X151663382Y-72868931D01*
X151655754Y-72865772D01*
X151647571Y-72864694D01*
X151647565Y-72864693D01*
X151519188Y-72847793D01*
X151511000Y-72846715D01*
X151502812Y-72847793D01*
X151374431Y-72864694D01*
X151374427Y-72864694D01*
X151366246Y-72865772D01*
X151358627Y-72868927D01*
X151358619Y-72868930D01*
X151238986Y-72918485D01*
X151238983Y-72918486D01*
X151231358Y-72921645D01*
X151224810Y-72926668D01*
X151224807Y-72926671D01*
X151122071Y-73005503D01*
X151122067Y-73005506D01*
X151115526Y-73010526D01*
X151110506Y-73017067D01*
X151110503Y-73017071D01*
X151031671Y-73119807D01*
X151031668Y-73119810D01*
X151026645Y-73126358D01*
X151023486Y-73133983D01*
X151023485Y-73133986D01*
X150973930Y-73253619D01*
X150973927Y-73253627D01*
X150970772Y-73261246D01*
X150969694Y-73269427D01*
X150969694Y-73269431D01*
X150961009Y-73335406D01*
X150951715Y-73406000D01*
X147463380Y-73406000D01*
X147322815Y-73335406D01*
X147289876Y-73327599D01*
X147160309Y-73296891D01*
X147160302Y-73296890D01*
X147153171Y-73295200D01*
X147022564Y-73295200D01*
X147018936Y-73295623D01*
X147018919Y-73295625D01*
X146900120Y-73309511D01*
X146900114Y-73309512D01*
X146892836Y-73310363D01*
X146885949Y-73312869D01*
X146885943Y-73312871D01*
X146735903Y-73367481D01*
X146735895Y-73367484D01*
X146729007Y-73369992D01*
X146722875Y-73374024D01*
X146722873Y-73374026D01*
X146589481Y-73461759D01*
X146589475Y-73461763D01*
X146583346Y-73465795D01*
X146578312Y-73471130D01*
X146578308Y-73471134D01*
X146468742Y-73587266D01*
X146468738Y-73587271D01*
X146463704Y-73592607D01*
X146460032Y-73598966D01*
X146460032Y-73598967D01*
X146406207Y-73692196D01*
X146376533Y-73743593D01*
X146374428Y-73750622D01*
X146374427Y-73750626D01*
X146328635Y-73903581D01*
X146328633Y-73903588D01*
X146326531Y-73910612D01*
X146326104Y-73917935D01*
X146326104Y-73917938D01*
X146323409Y-73964207D01*
X146316393Y-74084660D01*
X138049000Y-74084660D01*
X138049000Y-73787000D01*
X131191000Y-73787000D01*
X131191000Y-73803590D01*
X131191000Y-74677000D01*
X131174119Y-74740000D01*
X131128000Y-74786119D01*
X131065000Y-74803000D01*
X129683072Y-74803000D01*
X129624892Y-74788763D01*
X129579859Y-74749271D01*
X129558150Y-74693446D01*
X129547981Y-74616205D01*
X129546828Y-74607446D01*
X129490955Y-74472558D01*
X129439037Y-74404897D01*
X129419687Y-74368694D01*
X129413000Y-74328193D01*
X129413000Y-73422590D01*
X129413000Y-73406000D01*
X129396410Y-73406000D01*
X127761000Y-73406000D01*
X127698000Y-73389119D01*
X127651881Y-73343000D01*
X127635000Y-73280000D01*
X127635000Y-73085705D01*
X127641687Y-73045203D01*
X127661038Y-73009000D01*
X127663726Y-73005497D01*
X127687555Y-72974443D01*
X127743428Y-72839554D01*
X127762485Y-72694800D01*
X127743428Y-72550046D01*
X127687555Y-72415158D01*
X127661037Y-72380599D01*
X127641687Y-72344396D01*
X127635000Y-72303895D01*
X127635000Y-71517590D01*
X127635000Y-71501000D01*
X127618410Y-71501000D01*
X126006565Y-71501000D01*
X125953311Y-71489193D01*
X125910037Y-71455984D01*
X125900417Y-71437500D01*
X131012715Y-71437500D01*
X131013793Y-71445688D01*
X131030693Y-71574065D01*
X131030694Y-71574071D01*
X131031772Y-71582254D01*
X131034931Y-71589882D01*
X131034932Y-71589883D01*
X131084484Y-71709513D01*
X131084485Y-71709516D01*
X131087645Y-71717143D01*
X131092671Y-71723694D01*
X131092673Y-71723696D01*
X131109351Y-71745431D01*
X131176526Y-71832974D01*
X131292357Y-71921855D01*
X131427246Y-71977728D01*
X131572000Y-71996785D01*
X131716754Y-71977728D01*
X131851643Y-71921855D01*
X131903583Y-71882000D01*
X153110715Y-71882000D01*
X153111793Y-71890188D01*
X153128693Y-72018565D01*
X153128694Y-72018571D01*
X153129772Y-72026754D01*
X153132931Y-72034382D01*
X153132932Y-72034383D01*
X153182484Y-72154013D01*
X153182485Y-72154016D01*
X153185645Y-72161643D01*
X153274526Y-72277474D01*
X153390357Y-72366355D01*
X153525246Y-72422228D01*
X153670000Y-72441285D01*
X153814754Y-72422228D01*
X153949643Y-72366355D01*
X154065474Y-72277474D01*
X154154355Y-72161643D01*
X154210228Y-72026754D01*
X154229285Y-71882000D01*
X154210228Y-71737246D01*
X154204615Y-71723696D01*
X154193805Y-71697600D01*
X154154355Y-71602358D01*
X154065474Y-71486526D01*
X153949643Y-71397645D01*
X153942016Y-71394485D01*
X153942013Y-71394484D01*
X153822383Y-71344932D01*
X153822382Y-71344931D01*
X153814754Y-71341772D01*
X153806571Y-71340694D01*
X153806565Y-71340693D01*
X153678188Y-71323793D01*
X153670000Y-71322715D01*
X153661812Y-71323793D01*
X153533431Y-71340694D01*
X153533427Y-71340694D01*
X153525246Y-71341772D01*
X153517627Y-71344927D01*
X153517619Y-71344930D01*
X153397986Y-71394485D01*
X153397983Y-71394486D01*
X153390358Y-71397645D01*
X153383810Y-71402668D01*
X153383807Y-71402671D01*
X153281071Y-71481503D01*
X153281067Y-71481506D01*
X153274526Y-71486526D01*
X153269506Y-71493067D01*
X153269503Y-71493071D01*
X153190671Y-71595807D01*
X153190668Y-71595810D01*
X153185645Y-71602358D01*
X153182486Y-71609983D01*
X153182485Y-71609986D01*
X153132930Y-71729619D01*
X153132927Y-71729627D01*
X153129772Y-71737246D01*
X153110715Y-71882000D01*
X131903583Y-71882000D01*
X131967474Y-71832974D01*
X132056355Y-71717143D01*
X132112228Y-71582254D01*
X132131285Y-71437500D01*
X132112228Y-71292746D01*
X132106250Y-71278315D01*
X132095805Y-71253100D01*
X132056355Y-71157858D01*
X131967474Y-71042026D01*
X131851643Y-70953145D01*
X131844016Y-70949985D01*
X131844013Y-70949984D01*
X131724383Y-70900432D01*
X131724382Y-70900431D01*
X131716754Y-70897272D01*
X131708571Y-70896194D01*
X131708565Y-70896193D01*
X131580188Y-70879293D01*
X131572000Y-70878215D01*
X131563812Y-70879293D01*
X131435431Y-70896194D01*
X131435427Y-70896194D01*
X131427246Y-70897272D01*
X131419627Y-70900427D01*
X131419619Y-70900430D01*
X131299986Y-70949985D01*
X131299983Y-70949986D01*
X131292358Y-70953145D01*
X131285810Y-70958168D01*
X131285807Y-70958171D01*
X131183071Y-71037003D01*
X131183067Y-71037006D01*
X131176526Y-71042026D01*
X131171506Y-71048567D01*
X131171503Y-71048571D01*
X131092671Y-71151307D01*
X131092668Y-71151310D01*
X131087645Y-71157858D01*
X131084486Y-71165483D01*
X131084485Y-71165486D01*
X131034930Y-71285119D01*
X131034927Y-71285127D01*
X131031772Y-71292746D01*
X131030694Y-71300927D01*
X131030694Y-71300931D01*
X131020943Y-71375000D01*
X131012715Y-71437500D01*
X125900417Y-71437500D01*
X125890834Y-71419088D01*
X125889228Y-71419754D01*
X125833355Y-71284866D01*
X125744474Y-71169034D01*
X125628643Y-71080153D01*
X125621016Y-71076993D01*
X125621013Y-71076992D01*
X125501383Y-71027440D01*
X125501382Y-71027439D01*
X125493754Y-71024280D01*
X125485571Y-71023202D01*
X125485565Y-71023201D01*
X125357188Y-71006301D01*
X125349000Y-71005223D01*
X125340812Y-71006301D01*
X125212431Y-71023202D01*
X125212427Y-71023202D01*
X125204246Y-71024280D01*
X125196627Y-71027435D01*
X125196619Y-71027438D01*
X125076986Y-71076993D01*
X125076983Y-71076994D01*
X125069358Y-71080153D01*
X125062810Y-71085176D01*
X125062807Y-71085179D01*
X124960071Y-71164011D01*
X124960067Y-71164014D01*
X124953526Y-71169034D01*
X124948506Y-71175575D01*
X124948503Y-71175579D01*
X124869671Y-71278315D01*
X124869668Y-71278318D01*
X124864645Y-71284866D01*
X124861486Y-71292491D01*
X124861485Y-71292494D01*
X124808772Y-71419754D01*
X124807165Y-71419088D01*
X124787963Y-71455984D01*
X124744689Y-71489193D01*
X124691435Y-71501000D01*
X124587000Y-71501000D01*
X123698000Y-71501000D01*
X121812022Y-71501000D01*
X121763805Y-71491409D01*
X121709154Y-71468772D01*
X121700971Y-71467694D01*
X121700965Y-71467693D01*
X121572588Y-71450793D01*
X121564400Y-71449715D01*
X121556212Y-71450793D01*
X121427831Y-71467694D01*
X121427827Y-71467694D01*
X121419646Y-71468772D01*
X121412027Y-71471927D01*
X121412019Y-71471930D01*
X121364996Y-71491409D01*
X121316777Y-71501000D01*
X118201500Y-71501000D01*
X118138500Y-71484119D01*
X118092381Y-71438000D01*
X118075500Y-71375000D01*
X118075500Y-70612000D01*
X127456715Y-70612000D01*
X127457793Y-70620188D01*
X127474693Y-70748565D01*
X127474694Y-70748571D01*
X127475772Y-70756754D01*
X127478931Y-70764382D01*
X127478932Y-70764383D01*
X127528484Y-70884013D01*
X127528485Y-70884016D01*
X127531645Y-70891643D01*
X127536671Y-70898194D01*
X127536673Y-70898196D01*
X127615499Y-71000923D01*
X127620526Y-71007474D01*
X127736357Y-71096355D01*
X127871246Y-71152228D01*
X127879433Y-71153305D01*
X127879434Y-71153306D01*
X127943623Y-71161756D01*
X128016000Y-71171285D01*
X128160754Y-71152228D01*
X128295643Y-71096355D01*
X128411474Y-71007474D01*
X128500355Y-70891643D01*
X128556228Y-70756754D01*
X128575285Y-70612000D01*
X128556228Y-70467246D01*
X128500355Y-70332358D01*
X128411474Y-70216526D01*
X128295643Y-70127645D01*
X128288016Y-70124485D01*
X128288013Y-70124484D01*
X128168383Y-70074932D01*
X128168382Y-70074931D01*
X128160754Y-70071772D01*
X128152571Y-70070694D01*
X128152565Y-70070693D01*
X128024188Y-70053793D01*
X128016000Y-70052715D01*
X128007812Y-70053793D01*
X127879431Y-70070694D01*
X127879427Y-70070694D01*
X127871246Y-70071772D01*
X127863627Y-70074927D01*
X127863619Y-70074930D01*
X127743986Y-70124485D01*
X127743983Y-70124486D01*
X127736358Y-70127645D01*
X127729810Y-70132668D01*
X127729807Y-70132671D01*
X127627071Y-70211503D01*
X127627067Y-70211506D01*
X127620526Y-70216526D01*
X127615506Y-70223067D01*
X127615503Y-70223071D01*
X127536671Y-70325807D01*
X127536668Y-70325810D01*
X127531645Y-70332358D01*
X127528486Y-70339983D01*
X127528485Y-70339986D01*
X127478930Y-70459619D01*
X127478927Y-70459627D01*
X127475772Y-70467246D01*
X127456715Y-70612000D01*
X118075500Y-70612000D01*
X118075500Y-67340426D01*
X118094067Y-67274591D01*
X118144297Y-67228159D01*
X118211386Y-67214814D01*
X118275561Y-67238490D01*
X118317908Y-67292207D01*
X118401654Y-67494386D01*
X118403364Y-67497480D01*
X118403365Y-67497482D01*
X118565898Y-67791564D01*
X118565904Y-67791574D01*
X118567606Y-67794653D01*
X118569646Y-67797528D01*
X118743769Y-68042932D01*
X118766133Y-68074450D01*
X118994739Y-68330261D01*
X119250550Y-68558867D01*
X119530347Y-68757394D01*
X119533430Y-68759098D01*
X119533435Y-68759101D01*
X119674758Y-68837207D01*
X119830614Y-68923346D01*
X120147573Y-69054635D01*
X120477239Y-69149610D01*
X120480715Y-69150200D01*
X120480717Y-69150201D01*
X120811981Y-69206485D01*
X120811983Y-69206485D01*
X120815466Y-69207077D01*
X121158000Y-69226313D01*
X121500534Y-69207077D01*
X121838761Y-69149610D01*
X122168427Y-69054635D01*
X122485386Y-68923346D01*
X122785653Y-68757394D01*
X123035666Y-68580000D01*
X135076715Y-68580000D01*
X135077793Y-68588188D01*
X135094693Y-68716565D01*
X135094694Y-68716571D01*
X135095772Y-68724754D01*
X135098931Y-68732382D01*
X135098932Y-68732383D01*
X135148484Y-68852013D01*
X135148485Y-68852016D01*
X135151645Y-68859643D01*
X135156671Y-68866194D01*
X135156673Y-68866196D01*
X135235499Y-68968923D01*
X135240526Y-68975474D01*
X135356357Y-69064355D01*
X135491246Y-69120228D01*
X135636000Y-69139285D01*
X135780754Y-69120228D01*
X135915643Y-69064355D01*
X136031474Y-68975474D01*
X136120355Y-68859643D01*
X136176228Y-68724754D01*
X136195285Y-68580000D01*
X141934715Y-68580000D01*
X141935793Y-68588188D01*
X141952693Y-68716565D01*
X141952694Y-68716571D01*
X141953772Y-68724754D01*
X141956931Y-68732382D01*
X141956932Y-68732383D01*
X142006484Y-68852013D01*
X142006485Y-68852016D01*
X142009645Y-68859643D01*
X142014671Y-68866194D01*
X142014673Y-68866196D01*
X142093499Y-68968923D01*
X142098526Y-68975474D01*
X142214357Y-69064355D01*
X142349246Y-69120228D01*
X142494000Y-69139285D01*
X142638754Y-69120228D01*
X142773643Y-69064355D01*
X142889474Y-68975474D01*
X142978355Y-68859643D01*
X143034228Y-68724754D01*
X143053285Y-68580000D01*
X148792715Y-68580000D01*
X148793793Y-68588188D01*
X148810693Y-68716565D01*
X148810694Y-68716571D01*
X148811772Y-68724754D01*
X148814931Y-68732382D01*
X148814932Y-68732383D01*
X148864484Y-68852013D01*
X148864485Y-68852016D01*
X148867645Y-68859643D01*
X148872671Y-68866194D01*
X148872673Y-68866196D01*
X148951499Y-68968923D01*
X148956526Y-68975474D01*
X149072357Y-69064355D01*
X149207246Y-69120228D01*
X149352000Y-69139285D01*
X149496754Y-69120228D01*
X149631643Y-69064355D01*
X149747474Y-68975474D01*
X149836355Y-68859643D01*
X149892228Y-68724754D01*
X149911285Y-68580000D01*
X155650715Y-68580000D01*
X155651793Y-68588188D01*
X155668693Y-68716565D01*
X155668694Y-68716571D01*
X155669772Y-68724754D01*
X155672931Y-68732382D01*
X155672932Y-68732383D01*
X155722484Y-68852013D01*
X155722485Y-68852016D01*
X155725645Y-68859643D01*
X155730671Y-68866194D01*
X155730673Y-68866196D01*
X155809499Y-68968923D01*
X155814526Y-68975474D01*
X155930357Y-69064355D01*
X156065246Y-69120228D01*
X156210000Y-69139285D01*
X156354754Y-69120228D01*
X156489643Y-69064355D01*
X156605474Y-68975474D01*
X156694355Y-68859643D01*
X156750228Y-68724754D01*
X156769285Y-68580000D01*
X156750228Y-68435246D01*
X156694355Y-68300358D01*
X156605474Y-68184526D01*
X156489643Y-68095645D01*
X156482016Y-68092485D01*
X156482013Y-68092484D01*
X156362383Y-68042932D01*
X156362382Y-68042931D01*
X156354754Y-68039772D01*
X156346571Y-68038694D01*
X156346565Y-68038693D01*
X156218188Y-68021793D01*
X156210000Y-68020715D01*
X156201812Y-68021793D01*
X156073431Y-68038694D01*
X156073427Y-68038694D01*
X156065246Y-68039772D01*
X156057627Y-68042927D01*
X156057619Y-68042930D01*
X155937986Y-68092485D01*
X155937983Y-68092486D01*
X155930358Y-68095645D01*
X155923810Y-68100668D01*
X155923807Y-68100671D01*
X155821071Y-68179503D01*
X155821067Y-68179506D01*
X155814526Y-68184526D01*
X155809506Y-68191067D01*
X155809503Y-68191071D01*
X155730671Y-68293807D01*
X155730668Y-68293810D01*
X155725645Y-68300358D01*
X155722486Y-68307983D01*
X155722485Y-68307986D01*
X155672930Y-68427619D01*
X155672927Y-68427627D01*
X155669772Y-68435246D01*
X155650715Y-68580000D01*
X149911285Y-68580000D01*
X149892228Y-68435246D01*
X149836355Y-68300358D01*
X149747474Y-68184526D01*
X149631643Y-68095645D01*
X149624016Y-68092485D01*
X149624013Y-68092484D01*
X149504383Y-68042932D01*
X149504382Y-68042931D01*
X149496754Y-68039772D01*
X149488571Y-68038694D01*
X149488565Y-68038693D01*
X149360188Y-68021793D01*
X149352000Y-68020715D01*
X149343812Y-68021793D01*
X149215431Y-68038694D01*
X149215427Y-68038694D01*
X149207246Y-68039772D01*
X149199627Y-68042927D01*
X149199619Y-68042930D01*
X149079986Y-68092485D01*
X149079983Y-68092486D01*
X149072358Y-68095645D01*
X149065810Y-68100668D01*
X149065807Y-68100671D01*
X148963071Y-68179503D01*
X148963067Y-68179506D01*
X148956526Y-68184526D01*
X148951506Y-68191067D01*
X148951503Y-68191071D01*
X148872671Y-68293807D01*
X148872668Y-68293810D01*
X148867645Y-68300358D01*
X148864486Y-68307983D01*
X148864485Y-68307986D01*
X148814930Y-68427619D01*
X148814927Y-68427627D01*
X148811772Y-68435246D01*
X148792715Y-68580000D01*
X143053285Y-68580000D01*
X143034228Y-68435246D01*
X142978355Y-68300358D01*
X142889474Y-68184526D01*
X142773643Y-68095645D01*
X142766016Y-68092485D01*
X142766013Y-68092484D01*
X142646383Y-68042932D01*
X142646382Y-68042931D01*
X142638754Y-68039772D01*
X142630571Y-68038694D01*
X142630565Y-68038693D01*
X142502188Y-68021793D01*
X142494000Y-68020715D01*
X142485812Y-68021793D01*
X142357431Y-68038694D01*
X142357427Y-68038694D01*
X142349246Y-68039772D01*
X142341627Y-68042927D01*
X142341619Y-68042930D01*
X142221986Y-68092485D01*
X142221983Y-68092486D01*
X142214358Y-68095645D01*
X142207810Y-68100668D01*
X142207807Y-68100671D01*
X142105071Y-68179503D01*
X142105067Y-68179506D01*
X142098526Y-68184526D01*
X142093506Y-68191067D01*
X142093503Y-68191071D01*
X142014671Y-68293807D01*
X142014668Y-68293810D01*
X142009645Y-68300358D01*
X142006486Y-68307983D01*
X142006485Y-68307986D01*
X141956930Y-68427619D01*
X141956927Y-68427627D01*
X141953772Y-68435246D01*
X141934715Y-68580000D01*
X136195285Y-68580000D01*
X136176228Y-68435246D01*
X136120355Y-68300358D01*
X136031474Y-68184526D01*
X135915643Y-68095645D01*
X135908016Y-68092485D01*
X135908013Y-68092484D01*
X135788383Y-68042932D01*
X135788382Y-68042931D01*
X135780754Y-68039772D01*
X135772571Y-68038694D01*
X135772565Y-68038693D01*
X135644188Y-68021793D01*
X135636000Y-68020715D01*
X135627812Y-68021793D01*
X135499431Y-68038694D01*
X135499427Y-68038694D01*
X135491246Y-68039772D01*
X135483627Y-68042927D01*
X135483619Y-68042930D01*
X135363986Y-68092485D01*
X135363983Y-68092486D01*
X135356358Y-68095645D01*
X135349810Y-68100668D01*
X135349807Y-68100671D01*
X135247071Y-68179503D01*
X135247067Y-68179506D01*
X135240526Y-68184526D01*
X135235506Y-68191067D01*
X135235503Y-68191071D01*
X135156671Y-68293807D01*
X135156668Y-68293810D01*
X135151645Y-68300358D01*
X135148486Y-68307983D01*
X135148485Y-68307986D01*
X135098930Y-68427619D01*
X135098927Y-68427627D01*
X135095772Y-68435246D01*
X135076715Y-68580000D01*
X123035666Y-68580000D01*
X123065450Y-68558867D01*
X123321261Y-68330261D01*
X123549867Y-68074450D01*
X123748394Y-67794653D01*
X123914346Y-67494386D01*
X124045635Y-67177427D01*
X124140610Y-66847761D01*
X124198077Y-66509534D01*
X124217313Y-66167000D01*
X124198077Y-65824466D01*
X124190069Y-65777337D01*
X124141201Y-65489717D01*
X124141200Y-65489715D01*
X124140610Y-65486239D01*
X124045635Y-65156573D01*
X123990721Y-65024000D01*
X135965715Y-65024000D01*
X135966793Y-65032188D01*
X135983693Y-65160565D01*
X135983694Y-65160571D01*
X135984772Y-65168754D01*
X135987931Y-65176382D01*
X135987932Y-65176383D01*
X136037484Y-65296013D01*
X136037485Y-65296016D01*
X136040645Y-65303643D01*
X136045671Y-65310194D01*
X136045673Y-65310196D01*
X136082802Y-65358583D01*
X136129526Y-65419474D01*
X136136076Y-65424500D01*
X136205396Y-65477692D01*
X136245357Y-65508355D01*
X136380246Y-65564228D01*
X136525000Y-65583285D01*
X136669754Y-65564228D01*
X136804643Y-65508355D01*
X136888076Y-65444333D01*
X136948649Y-65419334D01*
X137013590Y-65428138D01*
X137065326Y-65468366D01*
X137098755Y-65512634D01*
X137098759Y-65512638D01*
X137102268Y-65517285D01*
X137106570Y-65521207D01*
X137106573Y-65521210D01*
X137153762Y-65564228D01*
X137253538Y-65655186D01*
X137427573Y-65762944D01*
X137618444Y-65836888D01*
X137819653Y-65874500D01*
X138018519Y-65874500D01*
X138024347Y-65874500D01*
X138225556Y-65836888D01*
X138416427Y-65762944D01*
X138590462Y-65655186D01*
X138741732Y-65517285D01*
X138865088Y-65353935D01*
X138956328Y-65170701D01*
X139012345Y-64973821D01*
X139031232Y-64770000D01*
X141892768Y-64770000D01*
X141893306Y-64775806D01*
X141911116Y-64968015D01*
X141911117Y-64968025D01*
X141911655Y-64973821D01*
X141967672Y-65170701D01*
X142058912Y-65353935D01*
X142062421Y-65358582D01*
X142062422Y-65358583D01*
X142178755Y-65512634D01*
X142178759Y-65512638D01*
X142182268Y-65517285D01*
X142186570Y-65521207D01*
X142186573Y-65521210D01*
X142233762Y-65564228D01*
X142333538Y-65655186D01*
X142507573Y-65762944D01*
X142698444Y-65836888D01*
X142899653Y-65874500D01*
X143098519Y-65874500D01*
X143104347Y-65874500D01*
X143305556Y-65836888D01*
X143496427Y-65762944D01*
X143670462Y-65655186D01*
X143821732Y-65517285D01*
X143945088Y-65353935D01*
X144036328Y-65170701D01*
X144092345Y-64973821D01*
X144111232Y-64770000D01*
X146972768Y-64770000D01*
X146973306Y-64775806D01*
X146991116Y-64968015D01*
X146991117Y-64968025D01*
X146991655Y-64973821D01*
X147047672Y-65170701D01*
X147138912Y-65353935D01*
X147142421Y-65358582D01*
X147142422Y-65358583D01*
X147258755Y-65512634D01*
X147258759Y-65512638D01*
X147262268Y-65517285D01*
X147266570Y-65521207D01*
X147266573Y-65521210D01*
X147313762Y-65564228D01*
X147413538Y-65655186D01*
X147587573Y-65762944D01*
X147778444Y-65836888D01*
X147979653Y-65874500D01*
X148178519Y-65874500D01*
X148184347Y-65874500D01*
X148385556Y-65836888D01*
X148576427Y-65762944D01*
X148750462Y-65655186D01*
X148901732Y-65517285D01*
X149025088Y-65353935D01*
X149116328Y-65170701D01*
X149172345Y-64973821D01*
X149191232Y-64770000D01*
X152052768Y-64770000D01*
X152053306Y-64775806D01*
X152071116Y-64968015D01*
X152071117Y-64968025D01*
X152071655Y-64973821D01*
X152127672Y-65170701D01*
X152218912Y-65353935D01*
X152222421Y-65358582D01*
X152222422Y-65358583D01*
X152338755Y-65512634D01*
X152338759Y-65512638D01*
X152342268Y-65517285D01*
X152346570Y-65521207D01*
X152346573Y-65521210D01*
X152393762Y-65564228D01*
X152493538Y-65655186D01*
X152667573Y-65762944D01*
X152858444Y-65836888D01*
X153059653Y-65874500D01*
X153258519Y-65874500D01*
X153264347Y-65874500D01*
X153465556Y-65836888D01*
X153656427Y-65762944D01*
X153830462Y-65655186D01*
X153981732Y-65517285D01*
X154105088Y-65353935D01*
X154196328Y-65170701D01*
X154252345Y-64973821D01*
X154271232Y-64770000D01*
X154252345Y-64566179D01*
X154196328Y-64369299D01*
X154105088Y-64186065D01*
X154022133Y-64076214D01*
X153985244Y-64027365D01*
X153985241Y-64027361D01*
X153981732Y-64022715D01*
X153977429Y-64018792D01*
X153977426Y-64018789D01*
X153834764Y-63888736D01*
X153834765Y-63888736D01*
X153830462Y-63884814D01*
X153825512Y-63881749D01*
X153825508Y-63881746D01*
X153661387Y-63780127D01*
X153661386Y-63780126D01*
X153656427Y-63777056D01*
X153632898Y-63767941D01*
X153470989Y-63705216D01*
X153470981Y-63705213D01*
X153465556Y-63703112D01*
X153459839Y-63702043D01*
X153459831Y-63702041D01*
X153270073Y-63666570D01*
X153270069Y-63666569D01*
X153264347Y-63665500D01*
X153059653Y-63665500D01*
X153053931Y-63666569D01*
X153053926Y-63666570D01*
X152864168Y-63702041D01*
X152864157Y-63702043D01*
X152858444Y-63703112D01*
X152853021Y-63705212D01*
X152853010Y-63705216D01*
X152673011Y-63774949D01*
X152673008Y-63774950D01*
X152667573Y-63777056D01*
X152662617Y-63780124D01*
X152662612Y-63780127D01*
X152498491Y-63881746D01*
X152498481Y-63881752D01*
X152493538Y-63884814D01*
X152489239Y-63888732D01*
X152489235Y-63888736D01*
X152346573Y-64018789D01*
X152346565Y-64018797D01*
X152342268Y-64022715D01*
X152338763Y-64027355D01*
X152338755Y-64027365D01*
X152222422Y-64181416D01*
X152222418Y-64181421D01*
X152218912Y-64186065D01*
X152216317Y-64191274D01*
X152216314Y-64191281D01*
X152148344Y-64327784D01*
X152127672Y-64369299D01*
X152126078Y-64374899D01*
X152126076Y-64374906D01*
X152073250Y-64560572D01*
X152071655Y-64566179D01*
X152071118Y-64571972D01*
X152071116Y-64571984D01*
X152055751Y-64737807D01*
X152052768Y-64770000D01*
X149191232Y-64770000D01*
X149172345Y-64566179D01*
X149116328Y-64369299D01*
X149025088Y-64186065D01*
X148942133Y-64076214D01*
X148905244Y-64027365D01*
X148905241Y-64027361D01*
X148901732Y-64022715D01*
X148897429Y-64018792D01*
X148897426Y-64018789D01*
X148754764Y-63888736D01*
X148754765Y-63888736D01*
X148750462Y-63884814D01*
X148745512Y-63881749D01*
X148745508Y-63881746D01*
X148581387Y-63780127D01*
X148581386Y-63780126D01*
X148576427Y-63777056D01*
X148552898Y-63767941D01*
X148390989Y-63705216D01*
X148390981Y-63705213D01*
X148385556Y-63703112D01*
X148379839Y-63702043D01*
X148379831Y-63702041D01*
X148190073Y-63666570D01*
X148190069Y-63666569D01*
X148184347Y-63665500D01*
X147979653Y-63665500D01*
X147973931Y-63666569D01*
X147973926Y-63666570D01*
X147784168Y-63702041D01*
X147784157Y-63702043D01*
X147778444Y-63703112D01*
X147773021Y-63705212D01*
X147773010Y-63705216D01*
X147593011Y-63774949D01*
X147593008Y-63774950D01*
X147587573Y-63777056D01*
X147582617Y-63780124D01*
X147582612Y-63780127D01*
X147418491Y-63881746D01*
X147418481Y-63881752D01*
X147413538Y-63884814D01*
X147409239Y-63888732D01*
X147409235Y-63888736D01*
X147266573Y-64018789D01*
X147266565Y-64018797D01*
X147262268Y-64022715D01*
X147258763Y-64027355D01*
X147258755Y-64027365D01*
X147142422Y-64181416D01*
X147142418Y-64181421D01*
X147138912Y-64186065D01*
X147136317Y-64191274D01*
X147136314Y-64191281D01*
X147068344Y-64327784D01*
X147047672Y-64369299D01*
X147046078Y-64374899D01*
X147046076Y-64374906D01*
X146993250Y-64560572D01*
X146991655Y-64566179D01*
X146991118Y-64571972D01*
X146991116Y-64571984D01*
X146975751Y-64737807D01*
X146972768Y-64770000D01*
X144111232Y-64770000D01*
X144092345Y-64566179D01*
X144036328Y-64369299D01*
X143945088Y-64186065D01*
X143862133Y-64076214D01*
X143825244Y-64027365D01*
X143825241Y-64027361D01*
X143821732Y-64022715D01*
X143817429Y-64018792D01*
X143817426Y-64018789D01*
X143674764Y-63888736D01*
X143674765Y-63888736D01*
X143670462Y-63884814D01*
X143665512Y-63881749D01*
X143665508Y-63881746D01*
X143501387Y-63780127D01*
X143501386Y-63780126D01*
X143496427Y-63777056D01*
X143472898Y-63767941D01*
X143310989Y-63705216D01*
X143310981Y-63705213D01*
X143305556Y-63703112D01*
X143299839Y-63702043D01*
X143299831Y-63702041D01*
X143110073Y-63666570D01*
X143110069Y-63666569D01*
X143104347Y-63665500D01*
X142899653Y-63665500D01*
X142893931Y-63666569D01*
X142893926Y-63666570D01*
X142704168Y-63702041D01*
X142704157Y-63702043D01*
X142698444Y-63703112D01*
X142693021Y-63705212D01*
X142693010Y-63705216D01*
X142513011Y-63774949D01*
X142513008Y-63774950D01*
X142507573Y-63777056D01*
X142502617Y-63780124D01*
X142502612Y-63780127D01*
X142338491Y-63881746D01*
X142338481Y-63881752D01*
X142333538Y-63884814D01*
X142329239Y-63888732D01*
X142329235Y-63888736D01*
X142186573Y-64018789D01*
X142186565Y-64018797D01*
X142182268Y-64022715D01*
X142178763Y-64027355D01*
X142178755Y-64027365D01*
X142062422Y-64181416D01*
X142062418Y-64181421D01*
X142058912Y-64186065D01*
X142056317Y-64191274D01*
X142056314Y-64191281D01*
X141988344Y-64327784D01*
X141967672Y-64369299D01*
X141966078Y-64374899D01*
X141966076Y-64374906D01*
X141913250Y-64560572D01*
X141911655Y-64566179D01*
X141911118Y-64571972D01*
X141911116Y-64571984D01*
X141895751Y-64737807D01*
X141892768Y-64770000D01*
X139031232Y-64770000D01*
X139012345Y-64566179D01*
X138956328Y-64369299D01*
X138865088Y-64186065D01*
X138782133Y-64076214D01*
X138745244Y-64027365D01*
X138745241Y-64027361D01*
X138741732Y-64022715D01*
X138737429Y-64018792D01*
X138737426Y-64018789D01*
X138594764Y-63888736D01*
X138594765Y-63888736D01*
X138590462Y-63884814D01*
X138585512Y-63881749D01*
X138585508Y-63881746D01*
X138421387Y-63780127D01*
X138421386Y-63780126D01*
X138416427Y-63777056D01*
X138392898Y-63767941D01*
X138230989Y-63705216D01*
X138230981Y-63705213D01*
X138225556Y-63703112D01*
X138219839Y-63702043D01*
X138219831Y-63702041D01*
X138030073Y-63666570D01*
X138030069Y-63666569D01*
X138024347Y-63665500D01*
X137819653Y-63665500D01*
X137813931Y-63666569D01*
X137813926Y-63666570D01*
X137624168Y-63702041D01*
X137624157Y-63702043D01*
X137618444Y-63703112D01*
X137613021Y-63705212D01*
X137613010Y-63705216D01*
X137433011Y-63774949D01*
X137433008Y-63774950D01*
X137427573Y-63777056D01*
X137422617Y-63780124D01*
X137422612Y-63780127D01*
X137258491Y-63881746D01*
X137258481Y-63881752D01*
X137253538Y-63884814D01*
X137249239Y-63888732D01*
X137249235Y-63888736D01*
X137106573Y-64018789D01*
X137106565Y-64018797D01*
X137102268Y-64022715D01*
X137098763Y-64027355D01*
X137098755Y-64027365D01*
X136982422Y-64181416D01*
X136982418Y-64181421D01*
X136978912Y-64186065D01*
X136976317Y-64191274D01*
X136976314Y-64191281D01*
X136890269Y-64364081D01*
X136890264Y-64364092D01*
X136887672Y-64369299D01*
X136886081Y-64374889D01*
X136886075Y-64374906D01*
X136874272Y-64416390D01*
X136837248Y-64475673D01*
X136774325Y-64506102D01*
X136704866Y-64498315D01*
X136677386Y-64486933D01*
X136677384Y-64486932D01*
X136669754Y-64483772D01*
X136661571Y-64482694D01*
X136661565Y-64482693D01*
X136533188Y-64465793D01*
X136525000Y-64464715D01*
X136516812Y-64465793D01*
X136388431Y-64482694D01*
X136388427Y-64482694D01*
X136380246Y-64483772D01*
X136372627Y-64486927D01*
X136372619Y-64486930D01*
X136252986Y-64536485D01*
X136252983Y-64536486D01*
X136245358Y-64539645D01*
X136238810Y-64544668D01*
X136238807Y-64544671D01*
X136136071Y-64623503D01*
X136136067Y-64623506D01*
X136129526Y-64628526D01*
X136124506Y-64635067D01*
X136124503Y-64635071D01*
X136045671Y-64737807D01*
X136045668Y-64737810D01*
X136040645Y-64744358D01*
X136037486Y-64751983D01*
X136037485Y-64751986D01*
X135987930Y-64871619D01*
X135987927Y-64871627D01*
X135984772Y-64879246D01*
X135983694Y-64887427D01*
X135983694Y-64887431D01*
X135973085Y-64968015D01*
X135965715Y-65024000D01*
X123990721Y-65024000D01*
X123914346Y-64839614D01*
X123797682Y-64628526D01*
X123750101Y-64542435D01*
X123750098Y-64542430D01*
X123748394Y-64539347D01*
X123549867Y-64259550D01*
X123321261Y-64003739D01*
X123188183Y-63884814D01*
X123068073Y-63777477D01*
X123068072Y-63777476D01*
X123065450Y-63775133D01*
X122966911Y-63705216D01*
X122788528Y-63578646D01*
X122785653Y-63576606D01*
X122782574Y-63574904D01*
X122782564Y-63574898D01*
X122488482Y-63412365D01*
X122488480Y-63412364D01*
X122485386Y-63410654D01*
X122261479Y-63317908D01*
X122207762Y-63275561D01*
X122184086Y-63211386D01*
X122197431Y-63144297D01*
X122243863Y-63094067D01*
X122309698Y-63075500D01*
X154875469Y-63075500D01*
X154896706Y-63075500D01*
X154903300Y-63075673D01*
G37*
%TD.AperFunction*%
M02*
