%TF.GenerationSoftware,KiCad,Pcbnew,(7.0.0)*%
%TF.CreationDate,2023-02-19T00:42:13-05:00*%
%TF.ProjectId,CANBoard,43414e42-6f61-4726-942e-6b696361645f,v1*%
%TF.SameCoordinates,Original*%
%TF.FileFunction,Copper,L4,Bot*%
%TF.FilePolarity,Positive*%
%FSLAX46Y46*%
G04 Gerber Fmt 4.6, Leading zero omitted, Abs format (unit mm)*
G04 Created by KiCad (PCBNEW (7.0.0)) date 2023-02-19 00:42:13*
%MOMM*%
%LPD*%
G01*
G04 APERTURE LIST*
%TA.AperFunction,ComponentPad*%
%ADD10O,1.700000X1.700000*%
%TD*%
%TA.AperFunction,ComponentPad*%
%ADD11C,1.700000*%
%TD*%
%TA.AperFunction,ComponentPad*%
%ADD12C,5.600000*%
%TD*%
%TA.AperFunction,ViaPad*%
%ADD13C,0.508000*%
%TD*%
%TA.AperFunction,ViaPad*%
%ADD14C,0.600000*%
%TD*%
%TA.AperFunction,Conductor*%
%ADD15C,0.152400*%
%TD*%
%TA.AperFunction,Conductor*%
%ADD16C,0.508000*%
%TD*%
%TA.AperFunction,Conductor*%
%ADD17C,0.762000*%
%TD*%
G04 APERTURE END LIST*
D10*
X146557999Y-101218999D03*
X144017999Y-101218999D03*
X141477999Y-101218999D03*
X138937999Y-101218999D03*
X136397999Y-101218999D03*
X133857999Y-101218999D03*
X131317999Y-101218999D03*
D11*
X128778000Y-101219000D03*
D12*
X151638000Y-99822000D03*
X121158000Y-66167000D03*
D10*
X137921999Y-64769999D03*
X140461999Y-64769999D03*
X143001999Y-64769999D03*
X145541999Y-64769999D03*
X148081999Y-64769999D03*
X150621999Y-64769999D03*
X153161999Y-64769999D03*
D11*
X155702000Y-64770000D03*
D10*
X156209999Y-100710999D03*
X156209999Y-98170999D03*
X156209999Y-95630999D03*
X156209999Y-93090999D03*
X156209999Y-90550999D03*
X156209999Y-88010999D03*
X156209999Y-85470999D03*
D11*
X156210000Y-82931000D03*
D10*
X119760999Y-101218999D03*
X119760999Y-98678999D03*
X119760999Y-96138999D03*
X119760999Y-93598999D03*
X119760999Y-91058999D03*
X119760999Y-88518999D03*
X119760999Y-85978999D03*
D11*
X119761000Y-83439000D03*
D13*
X143256000Y-76581000D03*
X144526000Y-77089000D03*
D14*
X142748000Y-92265500D03*
X142748000Y-88328500D03*
X142748000Y-92900500D03*
X142748000Y-88963500D03*
X129006600Y-74752200D03*
X128524000Y-76885800D03*
X127304800Y-76885800D03*
X142494000Y-68580000D03*
X137185400Y-94945200D03*
X137820400Y-94945200D03*
X138455400Y-94945200D03*
X124739400Y-72593200D03*
X127203200Y-78562200D03*
X127279400Y-74752200D03*
X127203200Y-72694800D03*
X123952000Y-72072500D03*
X141986000Y-86487000D03*
X127635000Y-91059000D03*
X135636000Y-68580000D03*
X144526000Y-80264000D03*
X137160000Y-79883000D03*
X118770400Y-79222600D03*
X121564400Y-72009000D03*
X126238000Y-100711000D03*
X149352000Y-68580000D03*
X132080000Y-74676000D03*
X121539000Y-82677000D03*
X121031000Y-79324200D03*
X118770400Y-72110600D03*
X124256800Y-78663800D03*
X156210000Y-68580000D03*
X125349000Y-71564508D03*
X123571000Y-79273400D03*
X136525000Y-65024000D03*
X118694200Y-75438000D03*
X127635000Y-85725000D03*
D13*
X148590000Y-75057000D03*
D14*
X128397000Y-77851000D03*
X135001000Y-91313000D03*
X135636000Y-91313000D03*
X128016000Y-70612000D03*
X147828000Y-84074000D03*
X134366000Y-91313000D03*
X123825000Y-81026000D03*
X151511000Y-76200000D03*
X130556000Y-81915000D03*
X128066693Y-92760692D03*
X126492000Y-98679000D03*
X132588000Y-83439000D03*
X153670000Y-71882000D03*
X151384000Y-82296000D03*
X147447000Y-94043500D03*
X151955500Y-91567000D03*
X133350000Y-82931000D03*
X128778000Y-95631000D03*
X134239000Y-83439000D03*
X131318000Y-95631000D03*
X133858000Y-95631000D03*
X135001000Y-82931000D03*
X136398000Y-95631000D03*
X135763000Y-83439000D03*
X138938000Y-95631000D03*
X136652000Y-82931000D03*
X140588960Y-80670000D03*
X141478000Y-95631000D03*
X140590633Y-79669990D03*
X144018000Y-95631000D03*
X140546815Y-78670938D03*
X146558000Y-95631000D03*
X153543000Y-84582000D03*
X151955500Y-89662000D03*
X131572000Y-71437500D03*
X151511000Y-73406000D03*
D15*
X137160000Y-77089000D02*
X144526000Y-77089000D01*
X136398000Y-77851000D02*
X128397000Y-77851000D01*
X136398000Y-77851000D02*
X137160000Y-77089000D01*
X130556000Y-81915000D02*
X130556000Y-90271385D01*
X130556000Y-90271385D02*
X128066693Y-92760692D01*
X127762000Y-97409000D02*
X127762000Y-94869000D01*
X126492000Y-98679000D02*
X127762000Y-97409000D01*
X131445000Y-91186000D02*
X131445000Y-85598000D01*
X131445000Y-85598000D02*
X132588000Y-84455000D01*
X132588000Y-84455000D02*
X132588000Y-83439000D01*
X127762000Y-94869000D02*
X131445000Y-91186000D01*
D16*
X153670000Y-76200000D02*
X151384000Y-78486000D01*
X151384000Y-78486000D02*
X151384000Y-82296000D01*
X151384000Y-82296000D02*
X152527000Y-82296000D01*
X153670000Y-71882000D02*
X153670000Y-76200000D01*
X152527000Y-82296000D02*
X156210000Y-85979000D01*
D17*
X149923500Y-91567000D02*
X147447000Y-94043500D01*
X151955500Y-91567000D02*
X149923500Y-91567000D01*
D15*
X132080000Y-92329000D02*
X128778000Y-95631000D01*
X133350000Y-82931000D02*
X133350000Y-85217000D01*
X133350000Y-85217000D02*
X132080000Y-86487000D01*
X132080000Y-86487000D02*
X132080000Y-92329000D01*
X132969000Y-86360000D02*
X134239000Y-85090000D01*
X132969000Y-92837000D02*
X132969000Y-86360000D01*
X131318000Y-94488000D02*
X132969000Y-92837000D01*
X131318000Y-95631000D02*
X131318000Y-94488000D01*
X134239000Y-85090000D02*
X134239000Y-83439000D01*
X135001000Y-82931000D02*
X135001000Y-85598000D01*
X133600000Y-86999000D02*
X133600000Y-95373000D01*
X135001000Y-85598000D02*
X133600000Y-86999000D01*
X133600000Y-95373000D02*
X133858000Y-95631000D01*
X136398000Y-95631000D02*
X136398000Y-86741000D01*
X135763000Y-86106000D02*
X135763000Y-83439000D01*
X136398000Y-86741000D02*
X135763000Y-86106000D01*
X139300000Y-95269000D02*
X138938000Y-95631000D01*
X139300000Y-88119000D02*
X139300000Y-95269000D01*
X136652000Y-82931000D02*
X136652000Y-85471000D01*
X136652000Y-85471000D02*
X139300000Y-88119000D01*
X141478000Y-95631000D02*
X141478000Y-81559040D01*
X141478000Y-81559040D02*
X140588960Y-80670000D01*
X144018000Y-83097357D02*
X140590633Y-79669990D01*
X144018000Y-95631000D02*
X144018000Y-83097357D01*
X141112500Y-78670938D02*
X140546815Y-78670938D01*
X146558000Y-84116438D02*
X141112500Y-78670938D01*
X146558000Y-95631000D02*
X146558000Y-84116438D01*
D17*
X153352500Y-88265000D02*
X153352500Y-84772500D01*
X151955500Y-89662000D02*
X153352500Y-88265000D01*
X153352500Y-84772500D02*
X153543000Y-84582000D01*
D15*
X132016500Y-70993000D02*
X149098000Y-70993000D01*
X149098000Y-70993000D02*
X151511000Y-73406000D01*
X131572000Y-71437500D02*
X132016500Y-70993000D01*
%TA.AperFunction,Conductor*%
G36*
X154903300Y-63075673D02*
G01*
X155061564Y-63083967D01*
X155209545Y-63091723D01*
X155222661Y-63093100D01*
X155436206Y-63126923D01*
X155522307Y-63140560D01*
X155535207Y-63143302D01*
X155828248Y-63221822D01*
X155840790Y-63225897D01*
X156124014Y-63334617D01*
X156136046Y-63339973D01*
X156406376Y-63477713D01*
X156417785Y-63484300D01*
X156672223Y-63649534D01*
X156682877Y-63657275D01*
X156831315Y-63777477D01*
X156918660Y-63848207D01*
X156928461Y-63857033D01*
X157142966Y-64071538D01*
X157151792Y-64081339D01*
X157342719Y-64317115D01*
X157350470Y-64327784D01*
X157515695Y-64582208D01*
X157522290Y-64593630D01*
X157660022Y-64863945D01*
X157665386Y-64875994D01*
X157774101Y-65159208D01*
X157778177Y-65171751D01*
X157856697Y-65464792D01*
X157859439Y-65477692D01*
X157906898Y-65777337D01*
X157908276Y-65790453D01*
X157924327Y-66096699D01*
X157924500Y-66103294D01*
X157924500Y-99896706D01*
X157924327Y-99903301D01*
X157908276Y-100209546D01*
X157906898Y-100222662D01*
X157859439Y-100522307D01*
X157856697Y-100535207D01*
X157778177Y-100828248D01*
X157774101Y-100840791D01*
X157665386Y-101124005D01*
X157660022Y-101136054D01*
X157522290Y-101406369D01*
X157515695Y-101417791D01*
X157350470Y-101672215D01*
X157342719Y-101682884D01*
X157151792Y-101918660D01*
X157142966Y-101928461D01*
X156928461Y-102142966D01*
X156918660Y-102151792D01*
X156682884Y-102342719D01*
X156672215Y-102350470D01*
X156417791Y-102515695D01*
X156406369Y-102522290D01*
X156136054Y-102660022D01*
X156124005Y-102665386D01*
X155840791Y-102774101D01*
X155828248Y-102778177D01*
X155535207Y-102856697D01*
X155522307Y-102859439D01*
X155222662Y-102906898D01*
X155209546Y-102908276D01*
X154903301Y-102924327D01*
X154896706Y-102924500D01*
X152763142Y-102924500D01*
X152697307Y-102905933D01*
X152650875Y-102855703D01*
X152637530Y-102788614D01*
X152661206Y-102724439D01*
X152714924Y-102682091D01*
X152768203Y-102660022D01*
X152965386Y-102578346D01*
X153265653Y-102412394D01*
X153545450Y-102213867D01*
X153801261Y-101985261D01*
X154029867Y-101729450D01*
X154228394Y-101449653D01*
X154394346Y-101149386D01*
X154525635Y-100832427D01*
X154620610Y-100502761D01*
X154678077Y-100164534D01*
X154697313Y-99822000D01*
X154678077Y-99479466D01*
X154620610Y-99141239D01*
X154525635Y-98811573D01*
X154394346Y-98494614D01*
X154277682Y-98283526D01*
X154230101Y-98197435D01*
X154230098Y-98197430D01*
X154228394Y-98194347D01*
X154029867Y-97914550D01*
X153801261Y-97658739D01*
X153690713Y-97559948D01*
X153548073Y-97432477D01*
X153548072Y-97432476D01*
X153545450Y-97430133D01*
X153541440Y-97427288D01*
X153282416Y-97243500D01*
X153265653Y-97231606D01*
X153262574Y-97229904D01*
X153262564Y-97229898D01*
X152968482Y-97067365D01*
X152968480Y-97067364D01*
X152965386Y-97065654D01*
X152855803Y-97020263D01*
X152651695Y-96935718D01*
X152651684Y-96935714D01*
X152648427Y-96934365D01*
X152558764Y-96908533D01*
X152322151Y-96840366D01*
X152322140Y-96840363D01*
X152318761Y-96839390D01*
X152315297Y-96838801D01*
X152315282Y-96838798D01*
X151984018Y-96782514D01*
X151984001Y-96782512D01*
X151980534Y-96781923D01*
X151977019Y-96781725D01*
X151977005Y-96781724D01*
X151641526Y-96762885D01*
X151638000Y-96762687D01*
X151634474Y-96762885D01*
X151298994Y-96781724D01*
X151298978Y-96781725D01*
X151295466Y-96781923D01*
X151292000Y-96782511D01*
X151291981Y-96782514D01*
X150960717Y-96838798D01*
X150960698Y-96838802D01*
X150957239Y-96839390D01*
X150953863Y-96840362D01*
X150953848Y-96840366D01*
X150630971Y-96933386D01*
X150627573Y-96934365D01*
X150624320Y-96935712D01*
X150624304Y-96935718D01*
X150313882Y-97064300D01*
X150313876Y-97064302D01*
X150310614Y-97065654D01*
X150307526Y-97067360D01*
X150307517Y-97067365D01*
X150013435Y-97229898D01*
X150013417Y-97229908D01*
X150010347Y-97231606D01*
X150007478Y-97233641D01*
X150007471Y-97233646D01*
X149733418Y-97428097D01*
X149733406Y-97428106D01*
X149730550Y-97430133D01*
X149727935Y-97432469D01*
X149727926Y-97432477D01*
X149477362Y-97656394D01*
X149477353Y-97656402D01*
X149474739Y-97658739D01*
X149472402Y-97661353D01*
X149472394Y-97661362D01*
X149248477Y-97911926D01*
X149248469Y-97911935D01*
X149246133Y-97914550D01*
X149244106Y-97917406D01*
X149244097Y-97917418D01*
X149049646Y-98191471D01*
X149049641Y-98191478D01*
X149047606Y-98194347D01*
X149045908Y-98197417D01*
X149045898Y-98197435D01*
X148883365Y-98491517D01*
X148883360Y-98491526D01*
X148881654Y-98494614D01*
X148880302Y-98497876D01*
X148880300Y-98497882D01*
X148751718Y-98808304D01*
X148751712Y-98808320D01*
X148750365Y-98811573D01*
X148749386Y-98814970D01*
X148749386Y-98814971D01*
X148656366Y-99137848D01*
X148656362Y-99137863D01*
X148655390Y-99141239D01*
X148654802Y-99144698D01*
X148654798Y-99144717D01*
X148598514Y-99475981D01*
X148598511Y-99476000D01*
X148597923Y-99479466D01*
X148597725Y-99482978D01*
X148597724Y-99482994D01*
X148582961Y-99745888D01*
X148578687Y-99822000D01*
X148578885Y-99825526D01*
X148597724Y-100161005D01*
X148597725Y-100161019D01*
X148597923Y-100164534D01*
X148598512Y-100168001D01*
X148598514Y-100168018D01*
X148654798Y-100499282D01*
X148654801Y-100499297D01*
X148655390Y-100502761D01*
X148656363Y-100506140D01*
X148656366Y-100506151D01*
X148718842Y-100723008D01*
X148750365Y-100832427D01*
X148751714Y-100835684D01*
X148751718Y-100835695D01*
X148828468Y-101020984D01*
X148881654Y-101149386D01*
X148883364Y-101152480D01*
X148883365Y-101152482D01*
X149045898Y-101446564D01*
X149045904Y-101446574D01*
X149047606Y-101449653D01*
X149049646Y-101452528D01*
X149213092Y-101682884D01*
X149246133Y-101729450D01*
X149474739Y-101985261D01*
X149730550Y-102213867D01*
X150010347Y-102412394D01*
X150013430Y-102414098D01*
X150013435Y-102414101D01*
X150154758Y-102492207D01*
X150310614Y-102578346D01*
X150507797Y-102660022D01*
X150561076Y-102682091D01*
X150614794Y-102724439D01*
X150638470Y-102788614D01*
X150625125Y-102855703D01*
X150578693Y-102905933D01*
X150512858Y-102924500D01*
X121103294Y-102924500D01*
X121096699Y-102924327D01*
X120790453Y-102908276D01*
X120777337Y-102906898D01*
X120477692Y-102859439D01*
X120464792Y-102856697D01*
X120171751Y-102778177D01*
X120159208Y-102774101D01*
X119875994Y-102665386D01*
X119863945Y-102660022D01*
X119671108Y-102561767D01*
X119621926Y-102517014D01*
X119602373Y-102453458D01*
X119617896Y-102388799D01*
X119664172Y-102341047D01*
X119728311Y-102323500D01*
X119857519Y-102323500D01*
X119863347Y-102323500D01*
X120064556Y-102285888D01*
X120255427Y-102211944D01*
X120429462Y-102104186D01*
X120580732Y-101966285D01*
X120704088Y-101802935D01*
X120795328Y-101619701D01*
X120851345Y-101422821D01*
X120870232Y-101219000D01*
X127668768Y-101219000D01*
X127669306Y-101224806D01*
X127687116Y-101417015D01*
X127687117Y-101417025D01*
X127687655Y-101422821D01*
X127743672Y-101619701D01*
X127834912Y-101802935D01*
X127838421Y-101807582D01*
X127838422Y-101807583D01*
X127954755Y-101961634D01*
X127954759Y-101961638D01*
X127958268Y-101966285D01*
X127962570Y-101970207D01*
X127962573Y-101970210D01*
X128050466Y-102050335D01*
X128109538Y-102104186D01*
X128283573Y-102211944D01*
X128474444Y-102285888D01*
X128675653Y-102323500D01*
X128874519Y-102323500D01*
X128880347Y-102323500D01*
X129081556Y-102285888D01*
X129272427Y-102211944D01*
X129446462Y-102104186D01*
X129597732Y-101966285D01*
X129721088Y-101802935D01*
X129812328Y-101619701D01*
X129868345Y-101422821D01*
X129887232Y-101219000D01*
X130208768Y-101219000D01*
X130209306Y-101224806D01*
X130227116Y-101417015D01*
X130227117Y-101417025D01*
X130227655Y-101422821D01*
X130283672Y-101619701D01*
X130374912Y-101802935D01*
X130378421Y-101807582D01*
X130378422Y-101807583D01*
X130494755Y-101961634D01*
X130494759Y-101961638D01*
X130498268Y-101966285D01*
X130502570Y-101970207D01*
X130502573Y-101970210D01*
X130590466Y-102050335D01*
X130649538Y-102104186D01*
X130823573Y-102211944D01*
X131014444Y-102285888D01*
X131215653Y-102323500D01*
X131414519Y-102323500D01*
X131420347Y-102323500D01*
X131621556Y-102285888D01*
X131812427Y-102211944D01*
X131986462Y-102104186D01*
X132137732Y-101966285D01*
X132261088Y-101802935D01*
X132352328Y-101619701D01*
X132408345Y-101422821D01*
X132427232Y-101219000D01*
X132748768Y-101219000D01*
X132749306Y-101224806D01*
X132767116Y-101417015D01*
X132767117Y-101417025D01*
X132767655Y-101422821D01*
X132823672Y-101619701D01*
X132914912Y-101802935D01*
X132918421Y-101807582D01*
X132918422Y-101807583D01*
X133034755Y-101961634D01*
X133034759Y-101961638D01*
X133038268Y-101966285D01*
X133042570Y-101970207D01*
X133042573Y-101970210D01*
X133130466Y-102050335D01*
X133189538Y-102104186D01*
X133363573Y-102211944D01*
X133554444Y-102285888D01*
X133755653Y-102323500D01*
X133954519Y-102323500D01*
X133960347Y-102323500D01*
X134161556Y-102285888D01*
X134352427Y-102211944D01*
X134526462Y-102104186D01*
X134677732Y-101966285D01*
X134801088Y-101802935D01*
X134892328Y-101619701D01*
X134948345Y-101422821D01*
X134967232Y-101219000D01*
X135288768Y-101219000D01*
X135289306Y-101224806D01*
X135307116Y-101417015D01*
X135307117Y-101417025D01*
X135307655Y-101422821D01*
X135363672Y-101619701D01*
X135454912Y-101802935D01*
X135458421Y-101807582D01*
X135458422Y-101807583D01*
X135574755Y-101961634D01*
X135574759Y-101961638D01*
X135578268Y-101966285D01*
X135582570Y-101970207D01*
X135582573Y-101970210D01*
X135670466Y-102050335D01*
X135729538Y-102104186D01*
X135903573Y-102211944D01*
X136094444Y-102285888D01*
X136295653Y-102323500D01*
X136494519Y-102323500D01*
X136500347Y-102323500D01*
X136701556Y-102285888D01*
X136892427Y-102211944D01*
X137066462Y-102104186D01*
X137217732Y-101966285D01*
X137341088Y-101802935D01*
X137432328Y-101619701D01*
X137488345Y-101422821D01*
X137507232Y-101219000D01*
X137828768Y-101219000D01*
X137829306Y-101224806D01*
X137847116Y-101417015D01*
X137847117Y-101417025D01*
X137847655Y-101422821D01*
X137903672Y-101619701D01*
X137994912Y-101802935D01*
X137998421Y-101807582D01*
X137998422Y-101807583D01*
X138114755Y-101961634D01*
X138114759Y-101961638D01*
X138118268Y-101966285D01*
X138122570Y-101970207D01*
X138122573Y-101970210D01*
X138210466Y-102050335D01*
X138269538Y-102104186D01*
X138443573Y-102211944D01*
X138634444Y-102285888D01*
X138835653Y-102323500D01*
X139034519Y-102323500D01*
X139040347Y-102323500D01*
X139241556Y-102285888D01*
X139432427Y-102211944D01*
X139606462Y-102104186D01*
X139757732Y-101966285D01*
X139881088Y-101802935D01*
X139972328Y-101619701D01*
X140028345Y-101422821D01*
X140047232Y-101219000D01*
X140368768Y-101219000D01*
X140369306Y-101224806D01*
X140387116Y-101417015D01*
X140387117Y-101417025D01*
X140387655Y-101422821D01*
X140443672Y-101619701D01*
X140534912Y-101802935D01*
X140538421Y-101807582D01*
X140538422Y-101807583D01*
X140654755Y-101961634D01*
X140654759Y-101961638D01*
X140658268Y-101966285D01*
X140662570Y-101970207D01*
X140662573Y-101970210D01*
X140750466Y-102050335D01*
X140809538Y-102104186D01*
X140983573Y-102211944D01*
X141174444Y-102285888D01*
X141375653Y-102323500D01*
X141574519Y-102323500D01*
X141580347Y-102323500D01*
X141781556Y-102285888D01*
X141972427Y-102211944D01*
X142146462Y-102104186D01*
X142297732Y-101966285D01*
X142421088Y-101802935D01*
X142512328Y-101619701D01*
X142568345Y-101422821D01*
X142587232Y-101219000D01*
X142908768Y-101219000D01*
X142909306Y-101224806D01*
X142927116Y-101417015D01*
X142927117Y-101417025D01*
X142927655Y-101422821D01*
X142983672Y-101619701D01*
X143074912Y-101802935D01*
X143078421Y-101807582D01*
X143078422Y-101807583D01*
X143194755Y-101961634D01*
X143194759Y-101961638D01*
X143198268Y-101966285D01*
X143202570Y-101970207D01*
X143202573Y-101970210D01*
X143290466Y-102050335D01*
X143349538Y-102104186D01*
X143523573Y-102211944D01*
X143714444Y-102285888D01*
X143915653Y-102323500D01*
X144114519Y-102323500D01*
X144120347Y-102323500D01*
X144321556Y-102285888D01*
X144512427Y-102211944D01*
X144686462Y-102104186D01*
X144837732Y-101966285D01*
X144961088Y-101802935D01*
X145052328Y-101619701D01*
X145108345Y-101422821D01*
X145127232Y-101219000D01*
X145448768Y-101219000D01*
X145449306Y-101224806D01*
X145467116Y-101417015D01*
X145467117Y-101417025D01*
X145467655Y-101422821D01*
X145523672Y-101619701D01*
X145614912Y-101802935D01*
X145618421Y-101807582D01*
X145618422Y-101807583D01*
X145734755Y-101961634D01*
X145734759Y-101961638D01*
X145738268Y-101966285D01*
X145742570Y-101970207D01*
X145742573Y-101970210D01*
X145830466Y-102050335D01*
X145889538Y-102104186D01*
X146063573Y-102211944D01*
X146254444Y-102285888D01*
X146455653Y-102323500D01*
X146654519Y-102323500D01*
X146660347Y-102323500D01*
X146861556Y-102285888D01*
X147052427Y-102211944D01*
X147226462Y-102104186D01*
X147377732Y-101966285D01*
X147501088Y-101802935D01*
X147592328Y-101619701D01*
X147648345Y-101422821D01*
X147667232Y-101219000D01*
X147648345Y-101015179D01*
X147592328Y-100818299D01*
X147501088Y-100635065D01*
X147425679Y-100535207D01*
X147381244Y-100476365D01*
X147381241Y-100476361D01*
X147377732Y-100471715D01*
X147373429Y-100467792D01*
X147373426Y-100467789D01*
X147230764Y-100337736D01*
X147230765Y-100337736D01*
X147226462Y-100333814D01*
X147221512Y-100330749D01*
X147221508Y-100330746D01*
X147057387Y-100229127D01*
X147057386Y-100229126D01*
X147052427Y-100226056D01*
X147009810Y-100209546D01*
X146866989Y-100154216D01*
X146866981Y-100154213D01*
X146861556Y-100152112D01*
X146855839Y-100151043D01*
X146855831Y-100151041D01*
X146666073Y-100115570D01*
X146666069Y-100115569D01*
X146660347Y-100114500D01*
X146455653Y-100114500D01*
X146449931Y-100115569D01*
X146449926Y-100115570D01*
X146260168Y-100151041D01*
X146260157Y-100151043D01*
X146254444Y-100152112D01*
X146249021Y-100154212D01*
X146249010Y-100154216D01*
X146069011Y-100223949D01*
X146069008Y-100223950D01*
X146063573Y-100226056D01*
X146058617Y-100229124D01*
X146058612Y-100229127D01*
X145894491Y-100330746D01*
X145894481Y-100330752D01*
X145889538Y-100333814D01*
X145885239Y-100337732D01*
X145885235Y-100337736D01*
X145742573Y-100467789D01*
X145742565Y-100467797D01*
X145738268Y-100471715D01*
X145734763Y-100476355D01*
X145734755Y-100476365D01*
X145618422Y-100630416D01*
X145618418Y-100630421D01*
X145614912Y-100635065D01*
X145612317Y-100640274D01*
X145612314Y-100640281D01*
X145571121Y-100723008D01*
X145523672Y-100818299D01*
X145522078Y-100823899D01*
X145522076Y-100823906D01*
X145518722Y-100835695D01*
X145467655Y-101015179D01*
X145467118Y-101020972D01*
X145467116Y-101020984D01*
X145454932Y-101152482D01*
X145448768Y-101219000D01*
X145127232Y-101219000D01*
X145108345Y-101015179D01*
X145052328Y-100818299D01*
X144961088Y-100635065D01*
X144885679Y-100535207D01*
X144841244Y-100476365D01*
X144841241Y-100476361D01*
X144837732Y-100471715D01*
X144833429Y-100467792D01*
X144833426Y-100467789D01*
X144690764Y-100337736D01*
X144690765Y-100337736D01*
X144686462Y-100333814D01*
X144681512Y-100330749D01*
X144681508Y-100330746D01*
X144517387Y-100229127D01*
X144517386Y-100229126D01*
X144512427Y-100226056D01*
X144469810Y-100209546D01*
X144326989Y-100154216D01*
X144326981Y-100154213D01*
X144321556Y-100152112D01*
X144315839Y-100151043D01*
X144315831Y-100151041D01*
X144126073Y-100115570D01*
X144126069Y-100115569D01*
X144120347Y-100114500D01*
X143915653Y-100114500D01*
X143909931Y-100115569D01*
X143909926Y-100115570D01*
X143720168Y-100151041D01*
X143720157Y-100151043D01*
X143714444Y-100152112D01*
X143709021Y-100154212D01*
X143709010Y-100154216D01*
X143529011Y-100223949D01*
X143529008Y-100223950D01*
X143523573Y-100226056D01*
X143518617Y-100229124D01*
X143518612Y-100229127D01*
X143354491Y-100330746D01*
X143354481Y-100330752D01*
X143349538Y-100333814D01*
X143345239Y-100337732D01*
X143345235Y-100337736D01*
X143202573Y-100467789D01*
X143202565Y-100467797D01*
X143198268Y-100471715D01*
X143194763Y-100476355D01*
X143194755Y-100476365D01*
X143078422Y-100630416D01*
X143078418Y-100630421D01*
X143074912Y-100635065D01*
X143072317Y-100640274D01*
X143072314Y-100640281D01*
X143031121Y-100723008D01*
X142983672Y-100818299D01*
X142982078Y-100823899D01*
X142982076Y-100823906D01*
X142978722Y-100835695D01*
X142927655Y-101015179D01*
X142927118Y-101020972D01*
X142927116Y-101020984D01*
X142914932Y-101152482D01*
X142908768Y-101219000D01*
X142587232Y-101219000D01*
X142568345Y-101015179D01*
X142512328Y-100818299D01*
X142421088Y-100635065D01*
X142345679Y-100535207D01*
X142301244Y-100476365D01*
X142301241Y-100476361D01*
X142297732Y-100471715D01*
X142293429Y-100467792D01*
X142293426Y-100467789D01*
X142150764Y-100337736D01*
X142150765Y-100337736D01*
X142146462Y-100333814D01*
X142141512Y-100330749D01*
X142141508Y-100330746D01*
X141977387Y-100229127D01*
X141977386Y-100229126D01*
X141972427Y-100226056D01*
X141929810Y-100209546D01*
X141786989Y-100154216D01*
X141786981Y-100154213D01*
X141781556Y-100152112D01*
X141775839Y-100151043D01*
X141775831Y-100151041D01*
X141586073Y-100115570D01*
X141586069Y-100115569D01*
X141580347Y-100114500D01*
X141375653Y-100114500D01*
X141369931Y-100115569D01*
X141369926Y-100115570D01*
X141180168Y-100151041D01*
X141180157Y-100151043D01*
X141174444Y-100152112D01*
X141169021Y-100154212D01*
X141169010Y-100154216D01*
X140989011Y-100223949D01*
X140989008Y-100223950D01*
X140983573Y-100226056D01*
X140978617Y-100229124D01*
X140978612Y-100229127D01*
X140814491Y-100330746D01*
X140814481Y-100330752D01*
X140809538Y-100333814D01*
X140805239Y-100337732D01*
X140805235Y-100337736D01*
X140662573Y-100467789D01*
X140662565Y-100467797D01*
X140658268Y-100471715D01*
X140654763Y-100476355D01*
X140654755Y-100476365D01*
X140538422Y-100630416D01*
X140538418Y-100630421D01*
X140534912Y-100635065D01*
X140532317Y-100640274D01*
X140532314Y-100640281D01*
X140491121Y-100723008D01*
X140443672Y-100818299D01*
X140442078Y-100823899D01*
X140442076Y-100823906D01*
X140438722Y-100835695D01*
X140387655Y-101015179D01*
X140387118Y-101020972D01*
X140387116Y-101020984D01*
X140374932Y-101152482D01*
X140368768Y-101219000D01*
X140047232Y-101219000D01*
X140028345Y-101015179D01*
X139972328Y-100818299D01*
X139881088Y-100635065D01*
X139805679Y-100535207D01*
X139761244Y-100476365D01*
X139761241Y-100476361D01*
X139757732Y-100471715D01*
X139753429Y-100467792D01*
X139753426Y-100467789D01*
X139610764Y-100337736D01*
X139610765Y-100337736D01*
X139606462Y-100333814D01*
X139601512Y-100330749D01*
X139601508Y-100330746D01*
X139437387Y-100229127D01*
X139437386Y-100229126D01*
X139432427Y-100226056D01*
X139389810Y-100209546D01*
X139246989Y-100154216D01*
X139246981Y-100154213D01*
X139241556Y-100152112D01*
X139235839Y-100151043D01*
X139235831Y-100151041D01*
X139046073Y-100115570D01*
X139046069Y-100115569D01*
X139040347Y-100114500D01*
X138835653Y-100114500D01*
X138829931Y-100115569D01*
X138829926Y-100115570D01*
X138640168Y-100151041D01*
X138640157Y-100151043D01*
X138634444Y-100152112D01*
X138629021Y-100154212D01*
X138629010Y-100154216D01*
X138449011Y-100223949D01*
X138449008Y-100223950D01*
X138443573Y-100226056D01*
X138438617Y-100229124D01*
X138438612Y-100229127D01*
X138274491Y-100330746D01*
X138274481Y-100330752D01*
X138269538Y-100333814D01*
X138265239Y-100337732D01*
X138265235Y-100337736D01*
X138122573Y-100467789D01*
X138122565Y-100467797D01*
X138118268Y-100471715D01*
X138114763Y-100476355D01*
X138114755Y-100476365D01*
X137998422Y-100630416D01*
X137998418Y-100630421D01*
X137994912Y-100635065D01*
X137992317Y-100640274D01*
X137992314Y-100640281D01*
X137951121Y-100723008D01*
X137903672Y-100818299D01*
X137902078Y-100823899D01*
X137902076Y-100823906D01*
X137898722Y-100835695D01*
X137847655Y-101015179D01*
X137847118Y-101020972D01*
X137847116Y-101020984D01*
X137834932Y-101152482D01*
X137828768Y-101219000D01*
X137507232Y-101219000D01*
X137488345Y-101015179D01*
X137432328Y-100818299D01*
X137341088Y-100635065D01*
X137265679Y-100535207D01*
X137221244Y-100476365D01*
X137221241Y-100476361D01*
X137217732Y-100471715D01*
X137213429Y-100467792D01*
X137213426Y-100467789D01*
X137070764Y-100337736D01*
X137070765Y-100337736D01*
X137066462Y-100333814D01*
X137061512Y-100330749D01*
X137061508Y-100330746D01*
X136897387Y-100229127D01*
X136897386Y-100229126D01*
X136892427Y-100226056D01*
X136849810Y-100209546D01*
X136706989Y-100154216D01*
X136706981Y-100154213D01*
X136701556Y-100152112D01*
X136695839Y-100151043D01*
X136695831Y-100151041D01*
X136506073Y-100115570D01*
X136506069Y-100115569D01*
X136500347Y-100114500D01*
X136295653Y-100114500D01*
X136289931Y-100115569D01*
X136289926Y-100115570D01*
X136100168Y-100151041D01*
X136100157Y-100151043D01*
X136094444Y-100152112D01*
X136089021Y-100154212D01*
X136089010Y-100154216D01*
X135909011Y-100223949D01*
X135909008Y-100223950D01*
X135903573Y-100226056D01*
X135898617Y-100229124D01*
X135898612Y-100229127D01*
X135734491Y-100330746D01*
X135734481Y-100330752D01*
X135729538Y-100333814D01*
X135725239Y-100337732D01*
X135725235Y-100337736D01*
X135582573Y-100467789D01*
X135582565Y-100467797D01*
X135578268Y-100471715D01*
X135574763Y-100476355D01*
X135574755Y-100476365D01*
X135458422Y-100630416D01*
X135458418Y-100630421D01*
X135454912Y-100635065D01*
X135452317Y-100640274D01*
X135452314Y-100640281D01*
X135411121Y-100723008D01*
X135363672Y-100818299D01*
X135362078Y-100823899D01*
X135362076Y-100823906D01*
X135358722Y-100835695D01*
X135307655Y-101015179D01*
X135307118Y-101020972D01*
X135307116Y-101020984D01*
X135294932Y-101152482D01*
X135288768Y-101219000D01*
X134967232Y-101219000D01*
X134948345Y-101015179D01*
X134892328Y-100818299D01*
X134801088Y-100635065D01*
X134725679Y-100535207D01*
X134681244Y-100476365D01*
X134681241Y-100476361D01*
X134677732Y-100471715D01*
X134673429Y-100467792D01*
X134673426Y-100467789D01*
X134530764Y-100337736D01*
X134530765Y-100337736D01*
X134526462Y-100333814D01*
X134521512Y-100330749D01*
X134521508Y-100330746D01*
X134357387Y-100229127D01*
X134357386Y-100229126D01*
X134352427Y-100226056D01*
X134309810Y-100209546D01*
X134166989Y-100154216D01*
X134166981Y-100154213D01*
X134161556Y-100152112D01*
X134155839Y-100151043D01*
X134155831Y-100151041D01*
X133966073Y-100115570D01*
X133966069Y-100115569D01*
X133960347Y-100114500D01*
X133755653Y-100114500D01*
X133749931Y-100115569D01*
X133749926Y-100115570D01*
X133560168Y-100151041D01*
X133560157Y-100151043D01*
X133554444Y-100152112D01*
X133549021Y-100154212D01*
X133549010Y-100154216D01*
X133369011Y-100223949D01*
X133369008Y-100223950D01*
X133363573Y-100226056D01*
X133358617Y-100229124D01*
X133358612Y-100229127D01*
X133194491Y-100330746D01*
X133194481Y-100330752D01*
X133189538Y-100333814D01*
X133185239Y-100337732D01*
X133185235Y-100337736D01*
X133042573Y-100467789D01*
X133042565Y-100467797D01*
X133038268Y-100471715D01*
X133034763Y-100476355D01*
X133034755Y-100476365D01*
X132918422Y-100630416D01*
X132918418Y-100630421D01*
X132914912Y-100635065D01*
X132912317Y-100640274D01*
X132912314Y-100640281D01*
X132871121Y-100723008D01*
X132823672Y-100818299D01*
X132822078Y-100823899D01*
X132822076Y-100823906D01*
X132818722Y-100835695D01*
X132767655Y-101015179D01*
X132767118Y-101020972D01*
X132767116Y-101020984D01*
X132754932Y-101152482D01*
X132748768Y-101219000D01*
X132427232Y-101219000D01*
X132408345Y-101015179D01*
X132352328Y-100818299D01*
X132261088Y-100635065D01*
X132185679Y-100535207D01*
X132141244Y-100476365D01*
X132141241Y-100476361D01*
X132137732Y-100471715D01*
X132133429Y-100467792D01*
X132133426Y-100467789D01*
X131990764Y-100337736D01*
X131990765Y-100337736D01*
X131986462Y-100333814D01*
X131981512Y-100330749D01*
X131981508Y-100330746D01*
X131817387Y-100229127D01*
X131817386Y-100229126D01*
X131812427Y-100226056D01*
X131769810Y-100209546D01*
X131626989Y-100154216D01*
X131626981Y-100154213D01*
X131621556Y-100152112D01*
X131615839Y-100151043D01*
X131615831Y-100151041D01*
X131426073Y-100115570D01*
X131426069Y-100115569D01*
X131420347Y-100114500D01*
X131215653Y-100114500D01*
X131209931Y-100115569D01*
X131209926Y-100115570D01*
X131020168Y-100151041D01*
X131020157Y-100151043D01*
X131014444Y-100152112D01*
X131009021Y-100154212D01*
X131009010Y-100154216D01*
X130829011Y-100223949D01*
X130829008Y-100223950D01*
X130823573Y-100226056D01*
X130818617Y-100229124D01*
X130818612Y-100229127D01*
X130654491Y-100330746D01*
X130654481Y-100330752D01*
X130649538Y-100333814D01*
X130645239Y-100337732D01*
X130645235Y-100337736D01*
X130502573Y-100467789D01*
X130502565Y-100467797D01*
X130498268Y-100471715D01*
X130494763Y-100476355D01*
X130494755Y-100476365D01*
X130378422Y-100630416D01*
X130378418Y-100630421D01*
X130374912Y-100635065D01*
X130372317Y-100640274D01*
X130372314Y-100640281D01*
X130331121Y-100723008D01*
X130283672Y-100818299D01*
X130282078Y-100823899D01*
X130282076Y-100823906D01*
X130278722Y-100835695D01*
X130227655Y-101015179D01*
X130227118Y-101020972D01*
X130227116Y-101020984D01*
X130214932Y-101152482D01*
X130208768Y-101219000D01*
X129887232Y-101219000D01*
X129868345Y-101015179D01*
X129812328Y-100818299D01*
X129721088Y-100635065D01*
X129645679Y-100535207D01*
X129601244Y-100476365D01*
X129601241Y-100476361D01*
X129597732Y-100471715D01*
X129593429Y-100467792D01*
X129593426Y-100467789D01*
X129450764Y-100337736D01*
X129450765Y-100337736D01*
X129446462Y-100333814D01*
X129441512Y-100330749D01*
X129441508Y-100330746D01*
X129277387Y-100229127D01*
X129277386Y-100229126D01*
X129272427Y-100226056D01*
X129229810Y-100209546D01*
X129086989Y-100154216D01*
X129086981Y-100154213D01*
X129081556Y-100152112D01*
X129075839Y-100151043D01*
X129075831Y-100151041D01*
X128886073Y-100115570D01*
X128886069Y-100115569D01*
X128880347Y-100114500D01*
X128675653Y-100114500D01*
X128669931Y-100115569D01*
X128669926Y-100115570D01*
X128480168Y-100151041D01*
X128480157Y-100151043D01*
X128474444Y-100152112D01*
X128469021Y-100154212D01*
X128469010Y-100154216D01*
X128289011Y-100223949D01*
X128289008Y-100223950D01*
X128283573Y-100226056D01*
X128278617Y-100229124D01*
X128278612Y-100229127D01*
X128114491Y-100330746D01*
X128114481Y-100330752D01*
X128109538Y-100333814D01*
X128105239Y-100337732D01*
X128105235Y-100337736D01*
X127962573Y-100467789D01*
X127962565Y-100467797D01*
X127958268Y-100471715D01*
X127954763Y-100476355D01*
X127954755Y-100476365D01*
X127838422Y-100630416D01*
X127838418Y-100630421D01*
X127834912Y-100635065D01*
X127832317Y-100640274D01*
X127832314Y-100640281D01*
X127791121Y-100723008D01*
X127743672Y-100818299D01*
X127742078Y-100823899D01*
X127742076Y-100823906D01*
X127738722Y-100835695D01*
X127687655Y-101015179D01*
X127687118Y-101020972D01*
X127687116Y-101020984D01*
X127674932Y-101152482D01*
X127668768Y-101219000D01*
X120870232Y-101219000D01*
X120851345Y-101015179D01*
X120795328Y-100818299D01*
X120704088Y-100635065D01*
X120628679Y-100535207D01*
X120584244Y-100476365D01*
X120584241Y-100476361D01*
X120580732Y-100471715D01*
X120576429Y-100467792D01*
X120576426Y-100467789D01*
X120433764Y-100337736D01*
X120433765Y-100337736D01*
X120429462Y-100333814D01*
X120424512Y-100330749D01*
X120424508Y-100330746D01*
X120260387Y-100229127D01*
X120260386Y-100229126D01*
X120255427Y-100226056D01*
X120212810Y-100209546D01*
X120069989Y-100154216D01*
X120069981Y-100154213D01*
X120064556Y-100152112D01*
X120058839Y-100151043D01*
X120058831Y-100151041D01*
X119869073Y-100115570D01*
X119869069Y-100115569D01*
X119863347Y-100114500D01*
X119658653Y-100114500D01*
X119652931Y-100115569D01*
X119652926Y-100115570D01*
X119463168Y-100151041D01*
X119463157Y-100151043D01*
X119457444Y-100152112D01*
X119452021Y-100154212D01*
X119452010Y-100154216D01*
X119272011Y-100223949D01*
X119272008Y-100223950D01*
X119266573Y-100226056D01*
X119261617Y-100229124D01*
X119261612Y-100229127D01*
X119097491Y-100330746D01*
X119097481Y-100330752D01*
X119092538Y-100333814D01*
X119088239Y-100337732D01*
X119088235Y-100337736D01*
X118945573Y-100467789D01*
X118945565Y-100467797D01*
X118941268Y-100471715D01*
X118937763Y-100476355D01*
X118937755Y-100476365D01*
X118821422Y-100630416D01*
X118821418Y-100630421D01*
X118817912Y-100635065D01*
X118815317Y-100640274D01*
X118815314Y-100640281D01*
X118774121Y-100723008D01*
X118726672Y-100818299D01*
X118725078Y-100823899D01*
X118725076Y-100823906D01*
X118721722Y-100835695D01*
X118670655Y-101015179D01*
X118670118Y-101020972D01*
X118670116Y-101020984D01*
X118657932Y-101152482D01*
X118651768Y-101219000D01*
X118652264Y-101224357D01*
X118634760Y-101288344D01*
X118587007Y-101334620D01*
X118522348Y-101350143D01*
X118458792Y-101330590D01*
X118414039Y-101281408D01*
X118385199Y-101224806D01*
X118339973Y-101136046D01*
X118334617Y-101124014D01*
X118225897Y-100840790D01*
X118221822Y-100828248D01*
X118217757Y-100813079D01*
X118143302Y-100535207D01*
X118140560Y-100522307D01*
X118093101Y-100222662D01*
X118091723Y-100209545D01*
X118075673Y-99903300D01*
X118075500Y-99896706D01*
X118075500Y-98679000D01*
X118651768Y-98679000D01*
X118652306Y-98684806D01*
X118670116Y-98877015D01*
X118670117Y-98877025D01*
X118670655Y-98882821D01*
X118672249Y-98888426D01*
X118672250Y-98888427D01*
X118694092Y-98965196D01*
X118726672Y-99079701D01*
X118817912Y-99262935D01*
X118821421Y-99267582D01*
X118821422Y-99267583D01*
X118937755Y-99421634D01*
X118937759Y-99421638D01*
X118941268Y-99426285D01*
X118945570Y-99430207D01*
X118945573Y-99430210D01*
X118995782Y-99475981D01*
X119092538Y-99564186D01*
X119266573Y-99671944D01*
X119457444Y-99745888D01*
X119658653Y-99783500D01*
X119857519Y-99783500D01*
X119863347Y-99783500D01*
X120064556Y-99745888D01*
X120255427Y-99671944D01*
X120429462Y-99564186D01*
X120580732Y-99426285D01*
X120704088Y-99262935D01*
X120795328Y-99079701D01*
X120851345Y-98882821D01*
X120870232Y-98679000D01*
X125932715Y-98679000D01*
X125933793Y-98687188D01*
X125950693Y-98815565D01*
X125950694Y-98815571D01*
X125951772Y-98823754D01*
X125954931Y-98831382D01*
X125954932Y-98831383D01*
X126004484Y-98951013D01*
X126004485Y-98951016D01*
X126007645Y-98958643D01*
X126096526Y-99074474D01*
X126212357Y-99163355D01*
X126347246Y-99219228D01*
X126492000Y-99238285D01*
X126636754Y-99219228D01*
X126771643Y-99163355D01*
X126887474Y-99074474D01*
X126976355Y-98958643D01*
X127032228Y-98823754D01*
X127051285Y-98679000D01*
X127048738Y-98659654D01*
X127054347Y-98602707D01*
X127084563Y-98554115D01*
X127981739Y-97656939D01*
X127989835Y-97649521D01*
X128019239Y-97624849D01*
X128038429Y-97591608D01*
X128044322Y-97582359D01*
X128066340Y-97550916D01*
X128069196Y-97540254D01*
X128070765Y-97536890D01*
X128072032Y-97533408D01*
X128077551Y-97523851D01*
X128084217Y-97486036D01*
X128086589Y-97475341D01*
X128096524Y-97438267D01*
X128093179Y-97400032D01*
X128092700Y-97389051D01*
X128092700Y-96019950D01*
X128107969Y-95959828D01*
X128150075Y-95914278D01*
X128208814Y-95894338D01*
X128269948Y-95904843D01*
X128318660Y-95943244D01*
X128382526Y-96026474D01*
X128498357Y-96115355D01*
X128633246Y-96171228D01*
X128778000Y-96190285D01*
X128922754Y-96171228D01*
X129057643Y-96115355D01*
X129173474Y-96026474D01*
X129262355Y-95910643D01*
X129318228Y-95775754D01*
X129337285Y-95631000D01*
X129334738Y-95611654D01*
X129340347Y-95554707D01*
X129370563Y-95506115D01*
X132299739Y-92576939D01*
X132307835Y-92569521D01*
X132337239Y-92544849D01*
X132356429Y-92511608D01*
X132362322Y-92502359D01*
X132384340Y-92470916D01*
X132387196Y-92460253D01*
X132388763Y-92456894D01*
X132390031Y-92453409D01*
X132395551Y-92443851D01*
X132396328Y-92439442D01*
X132434733Y-92386591D01*
X132499135Y-92360575D01*
X132567538Y-92372639D01*
X132619155Y-92419117D01*
X132638300Y-92485885D01*
X132638300Y-92647829D01*
X132628709Y-92696047D01*
X132601395Y-92736924D01*
X131098265Y-94240053D01*
X131090165Y-94247477D01*
X131060761Y-94272151D01*
X131055250Y-94281694D01*
X131055247Y-94281699D01*
X131041570Y-94305387D01*
X131035670Y-94314649D01*
X131013660Y-94346084D01*
X131010808Y-94356724D01*
X131009230Y-94360109D01*
X131007956Y-94363609D01*
X131002449Y-94373149D01*
X131000535Y-94384000D01*
X131000534Y-94384005D01*
X130995783Y-94410946D01*
X130993406Y-94421671D01*
X130986327Y-94448090D01*
X130986326Y-94448093D01*
X130983476Y-94458733D01*
X130984436Y-94469707D01*
X130984436Y-94469709D01*
X130986821Y-94496968D01*
X130987300Y-94507949D01*
X130987300Y-95123687D01*
X130974306Y-95179415D01*
X130938006Y-95223647D01*
X130922526Y-95235526D01*
X130917500Y-95242075D01*
X130917499Y-95242077D01*
X130838671Y-95344807D01*
X130838668Y-95344810D01*
X130833645Y-95351358D01*
X130830486Y-95358983D01*
X130830485Y-95358986D01*
X130780930Y-95478619D01*
X130780927Y-95478627D01*
X130777772Y-95486246D01*
X130776694Y-95494427D01*
X130776694Y-95494431D01*
X130769372Y-95550051D01*
X130758715Y-95631000D01*
X130759793Y-95639188D01*
X130776693Y-95767565D01*
X130776694Y-95767571D01*
X130777772Y-95775754D01*
X130780931Y-95783382D01*
X130780932Y-95783383D01*
X130830484Y-95903013D01*
X130830485Y-95903016D01*
X130833645Y-95910643D01*
X130838671Y-95917194D01*
X130838673Y-95917196D01*
X130871386Y-95959828D01*
X130922526Y-96026474D01*
X131038357Y-96115355D01*
X131173246Y-96171228D01*
X131318000Y-96190285D01*
X131462754Y-96171228D01*
X131597643Y-96115355D01*
X131713474Y-96026474D01*
X131802355Y-95910643D01*
X131858228Y-95775754D01*
X131877285Y-95631000D01*
X131858228Y-95486246D01*
X131802355Y-95351358D01*
X131713474Y-95235526D01*
X131697993Y-95223647D01*
X131661694Y-95179415D01*
X131648700Y-95123687D01*
X131648700Y-94677170D01*
X131658291Y-94628952D01*
X131685605Y-94588075D01*
X133054205Y-93219475D01*
X133104364Y-93188737D01*
X133163011Y-93184121D01*
X133217361Y-93206634D01*
X133255567Y-93251367D01*
X133269300Y-93308570D01*
X133269300Y-95353051D01*
X133268821Y-95364032D01*
X133266743Y-95387789D01*
X133265476Y-95402267D01*
X133268327Y-95412909D01*
X133268328Y-95412914D01*
X133275406Y-95439331D01*
X133277784Y-95450058D01*
X133282533Y-95476993D01*
X133282535Y-95477000D01*
X133284449Y-95487851D01*
X133289957Y-95497392D01*
X133291231Y-95500891D01*
X133292807Y-95504272D01*
X133295660Y-95514916D01*
X133295904Y-95515265D01*
X133305631Y-95578460D01*
X133301054Y-95613231D01*
X133298715Y-95631000D01*
X133299793Y-95639188D01*
X133316693Y-95767565D01*
X133316694Y-95767571D01*
X133317772Y-95775754D01*
X133320931Y-95783382D01*
X133320932Y-95783383D01*
X133370484Y-95903013D01*
X133370485Y-95903016D01*
X133373645Y-95910643D01*
X133378671Y-95917194D01*
X133378673Y-95917196D01*
X133411386Y-95959828D01*
X133462526Y-96026474D01*
X133578357Y-96115355D01*
X133713246Y-96171228D01*
X133858000Y-96190285D01*
X134002754Y-96171228D01*
X134137643Y-96115355D01*
X134253474Y-96026474D01*
X134342355Y-95910643D01*
X134398228Y-95775754D01*
X134417285Y-95631000D01*
X134398228Y-95486246D01*
X134342355Y-95351358D01*
X134253474Y-95235526D01*
X134222752Y-95211952D01*
X134144196Y-95151673D01*
X134144194Y-95151671D01*
X134137643Y-95146645D01*
X134130016Y-95143485D01*
X134130013Y-95143484D01*
X134058441Y-95113838D01*
X134008480Y-95093144D01*
X133967605Y-95065832D01*
X133940291Y-95024954D01*
X133930700Y-94976736D01*
X133930700Y-91921452D01*
X133945578Y-91862056D01*
X133986698Y-91816687D01*
X134044350Y-91796059D01*
X134104917Y-91805042D01*
X134221246Y-91853228D01*
X134366000Y-91872285D01*
X134510754Y-91853228D01*
X134635286Y-91801644D01*
X134683500Y-91792055D01*
X134731713Y-91801644D01*
X134856246Y-91853228D01*
X135001000Y-91872285D01*
X135145754Y-91853228D01*
X135270286Y-91801644D01*
X135318500Y-91792055D01*
X135366713Y-91801644D01*
X135491246Y-91853228D01*
X135636000Y-91872285D01*
X135780754Y-91853228D01*
X135893082Y-91806699D01*
X135953650Y-91797716D01*
X136011302Y-91818344D01*
X136052422Y-91863713D01*
X136067300Y-91923109D01*
X136067300Y-95123687D01*
X136054306Y-95179415D01*
X136018006Y-95223647D01*
X136002526Y-95235526D01*
X135997500Y-95242075D01*
X135997499Y-95242077D01*
X135918671Y-95344807D01*
X135918668Y-95344810D01*
X135913645Y-95351358D01*
X135910486Y-95358983D01*
X135910485Y-95358986D01*
X135860930Y-95478619D01*
X135860927Y-95478627D01*
X135857772Y-95486246D01*
X135856694Y-95494427D01*
X135856694Y-95494431D01*
X135849372Y-95550051D01*
X135838715Y-95631000D01*
X135839793Y-95639188D01*
X135856693Y-95767565D01*
X135856694Y-95767571D01*
X135857772Y-95775754D01*
X135860931Y-95783382D01*
X135860932Y-95783383D01*
X135910484Y-95903013D01*
X135910485Y-95903016D01*
X135913645Y-95910643D01*
X135918671Y-95917194D01*
X135918673Y-95917196D01*
X135951386Y-95959828D01*
X136002526Y-96026474D01*
X136118357Y-96115355D01*
X136253246Y-96171228D01*
X136398000Y-96190285D01*
X136542754Y-96171228D01*
X136677643Y-96115355D01*
X136793474Y-96026474D01*
X136882355Y-95910643D01*
X136938228Y-95775754D01*
X136957285Y-95631000D01*
X136938228Y-95486246D01*
X136882355Y-95351358D01*
X136793474Y-95235526D01*
X136777993Y-95223647D01*
X136741694Y-95179415D01*
X136728700Y-95123687D01*
X136728700Y-86760949D01*
X136729179Y-86749968D01*
X136729241Y-86749248D01*
X136732524Y-86711733D01*
X136722590Y-86674663D01*
X136720213Y-86663936D01*
X136715465Y-86637005D01*
X136715464Y-86637004D01*
X136713551Y-86626149D01*
X136708038Y-86616601D01*
X136706771Y-86613119D01*
X136705194Y-86609737D01*
X136702340Y-86599084D01*
X136696015Y-86590051D01*
X136696014Y-86590048D01*
X136680328Y-86567646D01*
X136674422Y-86558376D01*
X136660751Y-86534697D01*
X136660749Y-86534695D01*
X136655239Y-86525151D01*
X136646796Y-86518066D01*
X136646795Y-86518065D01*
X136625846Y-86500487D01*
X136617743Y-86493062D01*
X136381623Y-86256942D01*
X136130604Y-86005924D01*
X136103291Y-85965047D01*
X136093700Y-85916829D01*
X136093700Y-85627889D01*
X136112846Y-85561118D01*
X136164467Y-85514640D01*
X136232873Y-85502579D01*
X136297276Y-85528602D01*
X136335673Y-85581454D01*
X136336449Y-85585851D01*
X136341959Y-85595396D01*
X136343236Y-85598903D01*
X136344808Y-85602274D01*
X136347660Y-85612916D01*
X136353979Y-85621941D01*
X136353980Y-85621942D01*
X136369673Y-85644354D01*
X136375575Y-85653619D01*
X136394761Y-85686849D01*
X136424163Y-85711521D01*
X136432265Y-85718946D01*
X138932395Y-88219076D01*
X138959709Y-88259953D01*
X138969300Y-88308171D01*
X138969300Y-94957095D01*
X138955063Y-95015275D01*
X138915571Y-95060308D01*
X138859747Y-95082017D01*
X138801431Y-95089694D01*
X138801427Y-95089694D01*
X138793246Y-95090772D01*
X138785627Y-95093927D01*
X138785619Y-95093930D01*
X138665986Y-95143485D01*
X138665983Y-95143486D01*
X138658358Y-95146645D01*
X138651810Y-95151668D01*
X138651807Y-95151671D01*
X138549071Y-95230503D01*
X138549067Y-95230506D01*
X138542526Y-95235526D01*
X138537506Y-95242067D01*
X138537503Y-95242071D01*
X138458671Y-95344807D01*
X138458668Y-95344810D01*
X138453645Y-95351358D01*
X138450486Y-95358983D01*
X138450485Y-95358986D01*
X138400930Y-95478619D01*
X138400927Y-95478627D01*
X138397772Y-95486246D01*
X138396694Y-95494427D01*
X138396694Y-95494431D01*
X138389372Y-95550051D01*
X138378715Y-95631000D01*
X138379793Y-95639188D01*
X138396693Y-95767565D01*
X138396694Y-95767571D01*
X138397772Y-95775754D01*
X138400931Y-95783382D01*
X138400932Y-95783383D01*
X138450484Y-95903013D01*
X138450485Y-95903016D01*
X138453645Y-95910643D01*
X138458671Y-95917194D01*
X138458673Y-95917196D01*
X138491386Y-95959828D01*
X138542526Y-96026474D01*
X138658357Y-96115355D01*
X138793246Y-96171228D01*
X138938000Y-96190285D01*
X139082754Y-96171228D01*
X139217643Y-96115355D01*
X139333474Y-96026474D01*
X139422355Y-95910643D01*
X139478228Y-95775754D01*
X139497285Y-95631000D01*
X139494945Y-95613228D01*
X139502433Y-95551112D01*
X139538878Y-95500255D01*
X139557239Y-95484849D01*
X139576432Y-95451603D01*
X139582326Y-95442353D01*
X139604340Y-95410917D01*
X139607195Y-95400256D01*
X139608761Y-95396899D01*
X139610031Y-95393409D01*
X139615551Y-95383851D01*
X139622214Y-95346057D01*
X139624589Y-95335341D01*
X139634524Y-95298267D01*
X139631179Y-95260032D01*
X139630700Y-95249051D01*
X139630700Y-88138949D01*
X139631179Y-88127968D01*
X139632025Y-88118299D01*
X139634524Y-88089733D01*
X139624589Y-88052657D01*
X139622213Y-88041934D01*
X139617465Y-88015006D01*
X139615551Y-88004149D01*
X139610037Y-87994599D01*
X139608762Y-87991095D01*
X139607194Y-87987732D01*
X139604341Y-87977084D01*
X139582326Y-87945644D01*
X139576419Y-87936372D01*
X139562749Y-87912695D01*
X139557239Y-87903151D01*
X139527840Y-87878482D01*
X139519737Y-87871056D01*
X138272661Y-86623980D01*
X137019604Y-85370924D01*
X136992291Y-85330048D01*
X136982700Y-85281830D01*
X136982700Y-83438313D01*
X136995694Y-83382585D01*
X137031993Y-83338352D01*
X137047474Y-83326474D01*
X137136355Y-83210643D01*
X137192228Y-83075754D01*
X137211285Y-82931000D01*
X137192228Y-82786246D01*
X137136355Y-82651358D01*
X137047474Y-82535526D01*
X136931643Y-82446645D01*
X136924016Y-82443485D01*
X136924013Y-82443484D01*
X136804383Y-82393932D01*
X136804382Y-82393931D01*
X136796754Y-82390772D01*
X136788571Y-82389694D01*
X136788565Y-82389693D01*
X136660188Y-82372793D01*
X136652000Y-82371715D01*
X136643812Y-82372793D01*
X136515431Y-82389694D01*
X136515427Y-82389694D01*
X136507246Y-82390772D01*
X136499627Y-82393927D01*
X136499619Y-82393930D01*
X136379986Y-82443485D01*
X136379983Y-82443486D01*
X136372358Y-82446645D01*
X136365810Y-82451668D01*
X136365807Y-82451671D01*
X136263071Y-82530503D01*
X136263067Y-82530506D01*
X136256526Y-82535526D01*
X136251506Y-82542067D01*
X136251503Y-82542071D01*
X136172671Y-82644807D01*
X136172668Y-82644810D01*
X136167645Y-82651358D01*
X136164486Y-82658983D01*
X136164485Y-82658986D01*
X136114930Y-82778619D01*
X136114927Y-82778627D01*
X136111772Y-82786246D01*
X136110695Y-82794425D01*
X136110694Y-82794430D01*
X136108606Y-82810292D01*
X136088447Y-82863847D01*
X136046682Y-82902963D01*
X135991923Y-82919572D01*
X135935465Y-82910250D01*
X135915386Y-82901933D01*
X135915384Y-82901932D01*
X135907754Y-82898772D01*
X135899571Y-82897694D01*
X135899565Y-82897693D01*
X135771188Y-82880793D01*
X135763000Y-82879715D01*
X135754812Y-82880793D01*
X135754810Y-82880793D01*
X135681450Y-82890450D01*
X135621908Y-82883928D01*
X135572106Y-82850650D01*
X135543297Y-82798136D01*
X135542306Y-82794440D01*
X135541228Y-82786246D01*
X135485355Y-82651358D01*
X135396474Y-82535526D01*
X135280643Y-82446645D01*
X135273016Y-82443485D01*
X135273013Y-82443484D01*
X135153383Y-82393932D01*
X135153382Y-82393931D01*
X135145754Y-82390772D01*
X135137571Y-82389694D01*
X135137565Y-82389693D01*
X135009188Y-82372793D01*
X135001000Y-82371715D01*
X134992812Y-82372793D01*
X134864431Y-82389694D01*
X134864427Y-82389694D01*
X134856246Y-82390772D01*
X134848627Y-82393927D01*
X134848619Y-82393930D01*
X134728986Y-82443485D01*
X134728983Y-82443486D01*
X134721358Y-82446645D01*
X134714810Y-82451668D01*
X134714807Y-82451671D01*
X134612071Y-82530503D01*
X134612067Y-82530506D01*
X134605526Y-82535526D01*
X134600506Y-82542067D01*
X134600503Y-82542071D01*
X134521671Y-82644807D01*
X134521668Y-82644810D01*
X134516645Y-82651358D01*
X134513486Y-82658983D01*
X134513485Y-82658986D01*
X134463932Y-82778615D01*
X134463931Y-82778619D01*
X134460772Y-82786246D01*
X134459694Y-82794432D01*
X134458701Y-82798140D01*
X134429891Y-82850652D01*
X134380089Y-82883929D01*
X134320549Y-82890450D01*
X134247190Y-82880793D01*
X134247188Y-82880793D01*
X134239000Y-82879715D01*
X134230812Y-82880793D01*
X134102431Y-82897694D01*
X134102427Y-82897694D01*
X134094246Y-82898772D01*
X134086626Y-82901928D01*
X134086616Y-82901931D01*
X134066531Y-82910251D01*
X134010072Y-82919571D01*
X133955314Y-82902959D01*
X133913549Y-82863842D01*
X133893393Y-82810287D01*
X133892631Y-82804500D01*
X133890228Y-82786246D01*
X133834355Y-82651358D01*
X133745474Y-82535526D01*
X133629643Y-82446645D01*
X133622016Y-82443485D01*
X133622013Y-82443484D01*
X133502383Y-82393932D01*
X133502382Y-82393931D01*
X133494754Y-82390772D01*
X133486571Y-82389694D01*
X133486565Y-82389693D01*
X133358188Y-82372793D01*
X133350000Y-82371715D01*
X133341812Y-82372793D01*
X133213431Y-82389694D01*
X133213427Y-82389694D01*
X133205246Y-82390772D01*
X133197627Y-82393927D01*
X133197619Y-82393930D01*
X133077986Y-82443485D01*
X133077983Y-82443486D01*
X133070358Y-82446645D01*
X133063810Y-82451668D01*
X133063807Y-82451671D01*
X132961071Y-82530503D01*
X132961067Y-82530506D01*
X132954526Y-82535526D01*
X132949506Y-82542067D01*
X132949503Y-82542071D01*
X132870671Y-82644807D01*
X132870668Y-82644810D01*
X132865645Y-82651358D01*
X132862486Y-82658983D01*
X132862485Y-82658986D01*
X132812932Y-82778615D01*
X132812931Y-82778619D01*
X132809772Y-82786246D01*
X132808694Y-82794432D01*
X132807701Y-82798140D01*
X132778891Y-82850652D01*
X132729089Y-82883929D01*
X132669549Y-82890450D01*
X132596190Y-82880793D01*
X132596188Y-82880793D01*
X132588000Y-82879715D01*
X132579812Y-82880793D01*
X132451431Y-82897694D01*
X132451427Y-82897694D01*
X132443246Y-82898772D01*
X132435627Y-82901927D01*
X132435619Y-82901930D01*
X132315986Y-82951485D01*
X132315983Y-82951486D01*
X132308358Y-82954645D01*
X132301810Y-82959668D01*
X132301807Y-82959671D01*
X132199071Y-83038503D01*
X132199067Y-83038506D01*
X132192526Y-83043526D01*
X132187506Y-83050067D01*
X132187503Y-83050071D01*
X132108671Y-83152807D01*
X132108668Y-83152810D01*
X132103645Y-83159358D01*
X132100486Y-83166983D01*
X132100485Y-83166986D01*
X132050930Y-83286619D01*
X132050927Y-83286627D01*
X132047772Y-83294246D01*
X132046694Y-83302427D01*
X132046694Y-83302431D01*
X132037804Y-83369958D01*
X132028715Y-83439000D01*
X132029793Y-83447188D01*
X132046693Y-83575565D01*
X132046694Y-83575571D01*
X132047772Y-83583754D01*
X132050931Y-83591382D01*
X132050932Y-83591383D01*
X132100484Y-83711013D01*
X132100485Y-83711016D01*
X132103645Y-83718643D01*
X132108671Y-83725194D01*
X132108673Y-83725196D01*
X132164906Y-83798479D01*
X132192526Y-83834474D01*
X132208006Y-83846352D01*
X132244306Y-83890585D01*
X132257300Y-83946313D01*
X132257300Y-84265830D01*
X132247709Y-84314048D01*
X132220397Y-84354922D01*
X131458394Y-85116925D01*
X131225266Y-85350053D01*
X131217166Y-85357475D01*
X131196207Y-85375062D01*
X131196202Y-85375067D01*
X131187761Y-85382151D01*
X131182250Y-85391694D01*
X131182247Y-85391699D01*
X131168570Y-85415387D01*
X131162670Y-85424649D01*
X131146981Y-85447056D01*
X131140660Y-85456084D01*
X131137808Y-85466724D01*
X131136230Y-85470109D01*
X131134956Y-85473608D01*
X131129449Y-85483149D01*
X131128674Y-85487541D01*
X131090279Y-85540395D01*
X131025876Y-85566419D01*
X130957468Y-85554360D01*
X130905847Y-85507881D01*
X130886700Y-85441110D01*
X130886700Y-82422313D01*
X130899694Y-82366585D01*
X130935993Y-82322352D01*
X130951474Y-82310474D01*
X131040355Y-82194643D01*
X131096228Y-82059754D01*
X131115285Y-81915000D01*
X131096228Y-81770246D01*
X131040355Y-81635358D01*
X130951474Y-81519526D01*
X130835643Y-81430645D01*
X130828016Y-81427485D01*
X130828013Y-81427484D01*
X130708383Y-81377932D01*
X130708382Y-81377931D01*
X130700754Y-81374772D01*
X130692571Y-81373694D01*
X130692565Y-81373693D01*
X130564188Y-81356793D01*
X130556000Y-81355715D01*
X130547812Y-81356793D01*
X130419431Y-81373694D01*
X130419427Y-81373694D01*
X130411246Y-81374772D01*
X130403627Y-81377927D01*
X130403619Y-81377930D01*
X130283986Y-81427485D01*
X130283983Y-81427486D01*
X130276358Y-81430645D01*
X130269810Y-81435668D01*
X130269807Y-81435671D01*
X130167071Y-81514503D01*
X130167067Y-81514506D01*
X130160526Y-81519526D01*
X130155506Y-81526067D01*
X130155503Y-81526071D01*
X130076671Y-81628807D01*
X130076668Y-81628810D01*
X130071645Y-81635358D01*
X130068486Y-81642983D01*
X130068485Y-81642986D01*
X130018930Y-81762619D01*
X130018927Y-81762627D01*
X130015772Y-81770246D01*
X130014694Y-81778427D01*
X130014694Y-81778431D01*
X130004461Y-81856163D01*
X129996715Y-81915000D01*
X129997793Y-81923188D01*
X130014693Y-82051565D01*
X130014694Y-82051571D01*
X130015772Y-82059754D01*
X130018931Y-82067382D01*
X130018932Y-82067383D01*
X130068484Y-82187013D01*
X130068485Y-82187016D01*
X130071645Y-82194643D01*
X130076671Y-82201194D01*
X130076673Y-82201196D01*
X130155499Y-82303923D01*
X130160526Y-82310474D01*
X130176006Y-82322352D01*
X130212306Y-82366585D01*
X130225300Y-82422313D01*
X130225300Y-90082214D01*
X130215709Y-90130432D01*
X130188395Y-90171309D01*
X128191576Y-92168126D01*
X128142984Y-92198344D01*
X128086039Y-92203953D01*
X128066693Y-92201407D01*
X128058505Y-92202485D01*
X127930124Y-92219386D01*
X127930120Y-92219386D01*
X127921939Y-92220464D01*
X127914320Y-92223619D01*
X127914312Y-92223622D01*
X127794679Y-92273177D01*
X127794676Y-92273178D01*
X127787051Y-92276337D01*
X127780503Y-92281360D01*
X127780500Y-92281363D01*
X127677764Y-92360195D01*
X127677760Y-92360198D01*
X127671219Y-92365218D01*
X127666199Y-92371759D01*
X127666196Y-92371763D01*
X127587364Y-92474499D01*
X127587361Y-92474502D01*
X127582338Y-92481050D01*
X127579179Y-92488675D01*
X127579178Y-92488678D01*
X127529623Y-92608311D01*
X127529620Y-92608319D01*
X127526465Y-92615938D01*
X127525387Y-92624119D01*
X127525387Y-92624123D01*
X127513063Y-92717736D01*
X127507408Y-92760692D01*
X127508486Y-92768880D01*
X127525386Y-92897257D01*
X127525387Y-92897263D01*
X127526465Y-92905446D01*
X127529624Y-92913074D01*
X127529625Y-92913075D01*
X127579177Y-93032705D01*
X127579178Y-93032708D01*
X127582338Y-93040335D01*
X127587364Y-93046886D01*
X127587366Y-93046888D01*
X127616760Y-93085194D01*
X127671219Y-93156166D01*
X127787050Y-93245047D01*
X127921939Y-93300920D01*
X128066693Y-93319977D01*
X128211447Y-93300920D01*
X128346336Y-93245047D01*
X128462167Y-93156166D01*
X128551048Y-93040335D01*
X128606921Y-92905446D01*
X128625978Y-92760692D01*
X128623431Y-92741346D01*
X128629040Y-92684400D01*
X128659256Y-92635808D01*
X130775745Y-90519319D01*
X130783841Y-90511901D01*
X130813239Y-90487234D01*
X130832429Y-90453995D01*
X130838312Y-90444759D01*
X130860340Y-90413301D01*
X130863195Y-90402640D01*
X130864761Y-90399284D01*
X130866031Y-90395795D01*
X130871551Y-90386236D01*
X130872328Y-90381827D01*
X130910733Y-90328976D01*
X130975135Y-90302960D01*
X131043538Y-90315024D01*
X131095155Y-90361502D01*
X131114300Y-90428270D01*
X131114300Y-90996829D01*
X131104709Y-91045047D01*
X131077395Y-91085924D01*
X127542266Y-94621052D01*
X127534166Y-94628475D01*
X127513207Y-94646062D01*
X127513202Y-94646067D01*
X127504761Y-94653151D01*
X127499250Y-94662694D01*
X127499247Y-94662699D01*
X127485570Y-94686387D01*
X127479670Y-94695649D01*
X127457660Y-94727084D01*
X127454808Y-94737724D01*
X127453230Y-94741109D01*
X127451956Y-94744609D01*
X127446449Y-94754149D01*
X127444535Y-94765000D01*
X127444534Y-94765005D01*
X127439783Y-94791946D01*
X127437406Y-94802671D01*
X127430327Y-94829090D01*
X127430326Y-94829093D01*
X127427476Y-94839733D01*
X127428436Y-94850707D01*
X127428436Y-94850709D01*
X127430821Y-94877968D01*
X127431300Y-94888949D01*
X127431300Y-97219829D01*
X127421709Y-97268047D01*
X127394395Y-97308925D01*
X126616883Y-98086435D01*
X126568291Y-98116652D01*
X126511346Y-98122261D01*
X126492000Y-98119715D01*
X126483812Y-98120793D01*
X126355431Y-98137694D01*
X126355427Y-98137694D01*
X126347246Y-98138772D01*
X126339627Y-98141927D01*
X126339619Y-98141930D01*
X126219986Y-98191485D01*
X126219983Y-98191486D01*
X126212358Y-98194645D01*
X126205810Y-98199668D01*
X126205807Y-98199671D01*
X126103071Y-98278503D01*
X126103067Y-98278506D01*
X126096526Y-98283526D01*
X126091506Y-98290067D01*
X126091503Y-98290071D01*
X126012671Y-98392807D01*
X126012668Y-98392810D01*
X126007645Y-98399358D01*
X126004486Y-98406983D01*
X126004485Y-98406986D01*
X125954930Y-98526619D01*
X125954927Y-98526627D01*
X125951772Y-98534246D01*
X125932715Y-98679000D01*
X120870232Y-98679000D01*
X120851345Y-98475179D01*
X120795328Y-98278299D01*
X120704088Y-98095065D01*
X120580732Y-97931715D01*
X120576429Y-97927792D01*
X120576426Y-97927789D01*
X120433764Y-97797736D01*
X120433765Y-97797736D01*
X120429462Y-97793814D01*
X120424512Y-97790749D01*
X120424508Y-97790746D01*
X120260387Y-97689127D01*
X120260386Y-97689126D01*
X120255427Y-97686056D01*
X120184914Y-97658739D01*
X120069989Y-97614216D01*
X120069981Y-97614213D01*
X120064556Y-97612112D01*
X120058839Y-97611043D01*
X120058831Y-97611041D01*
X119869073Y-97575570D01*
X119869069Y-97575569D01*
X119863347Y-97574500D01*
X119658653Y-97574500D01*
X119652931Y-97575569D01*
X119652926Y-97575570D01*
X119463168Y-97611041D01*
X119463157Y-97611043D01*
X119457444Y-97612112D01*
X119452021Y-97614212D01*
X119452010Y-97614216D01*
X119272011Y-97683949D01*
X119272008Y-97683950D01*
X119266573Y-97686056D01*
X119261617Y-97689124D01*
X119261612Y-97689127D01*
X119097491Y-97790746D01*
X119097481Y-97790752D01*
X119092538Y-97793814D01*
X119088239Y-97797732D01*
X119088235Y-97797736D01*
X118945573Y-97927789D01*
X118945565Y-97927797D01*
X118941268Y-97931715D01*
X118937763Y-97936355D01*
X118937755Y-97936365D01*
X118821422Y-98090416D01*
X118821418Y-98090421D01*
X118817912Y-98095065D01*
X118815317Y-98100274D01*
X118815314Y-98100281D01*
X118765824Y-98199671D01*
X118726672Y-98278299D01*
X118725078Y-98283899D01*
X118725076Y-98283906D01*
X118672250Y-98469572D01*
X118670655Y-98475179D01*
X118670118Y-98480972D01*
X118670116Y-98480984D01*
X118653561Y-98659655D01*
X118651768Y-98679000D01*
X118075500Y-98679000D01*
X118075500Y-96139000D01*
X118651768Y-96139000D01*
X118652306Y-96144806D01*
X118670116Y-96337015D01*
X118670117Y-96337025D01*
X118670655Y-96342821D01*
X118726672Y-96539701D01*
X118817912Y-96722935D01*
X118821421Y-96727582D01*
X118821422Y-96727583D01*
X118937755Y-96881634D01*
X118937759Y-96881638D01*
X118941268Y-96886285D01*
X118945570Y-96890207D01*
X118945573Y-96890210D01*
X118992935Y-96933386D01*
X119092538Y-97024186D01*
X119266573Y-97131944D01*
X119457444Y-97205888D01*
X119658653Y-97243500D01*
X119857519Y-97243500D01*
X119863347Y-97243500D01*
X120064556Y-97205888D01*
X120255427Y-97131944D01*
X120429462Y-97024186D01*
X120580732Y-96886285D01*
X120704088Y-96722935D01*
X120795328Y-96539701D01*
X120851345Y-96342821D01*
X120870232Y-96139000D01*
X120853629Y-95959828D01*
X120851883Y-95940984D01*
X120851882Y-95940983D01*
X120851345Y-95935179D01*
X120795328Y-95738299D01*
X120704088Y-95555065D01*
X120595233Y-95410917D01*
X120584244Y-95396365D01*
X120584241Y-95396361D01*
X120580732Y-95391715D01*
X120576429Y-95387792D01*
X120576426Y-95387789D01*
X120433764Y-95257736D01*
X120433765Y-95257736D01*
X120429462Y-95253814D01*
X120424512Y-95250749D01*
X120424508Y-95250746D01*
X120260387Y-95149127D01*
X120260386Y-95149126D01*
X120255427Y-95146056D01*
X120231898Y-95136941D01*
X120069989Y-95074216D01*
X120069981Y-95074213D01*
X120064556Y-95072112D01*
X120058839Y-95071043D01*
X120058831Y-95071041D01*
X119869073Y-95035570D01*
X119869069Y-95035569D01*
X119863347Y-95034500D01*
X119658653Y-95034500D01*
X119652931Y-95035569D01*
X119652926Y-95035570D01*
X119463168Y-95071041D01*
X119463157Y-95071043D01*
X119457444Y-95072112D01*
X119452021Y-95074212D01*
X119452010Y-95074216D01*
X119272011Y-95143949D01*
X119272008Y-95143950D01*
X119266573Y-95146056D01*
X119261617Y-95149124D01*
X119261612Y-95149127D01*
X119097491Y-95250746D01*
X119097481Y-95250752D01*
X119092538Y-95253814D01*
X119088239Y-95257732D01*
X119088235Y-95257736D01*
X118945573Y-95387789D01*
X118945565Y-95387797D01*
X118941268Y-95391715D01*
X118937763Y-95396355D01*
X118937755Y-95396365D01*
X118821422Y-95550416D01*
X118821418Y-95550421D01*
X118817912Y-95555065D01*
X118815317Y-95560274D01*
X118815314Y-95560281D01*
X118729271Y-95733079D01*
X118726672Y-95738299D01*
X118725078Y-95743899D01*
X118725076Y-95743906D01*
X118672250Y-95929572D01*
X118670655Y-95935179D01*
X118670118Y-95940972D01*
X118670116Y-95940984D01*
X118662195Y-96026474D01*
X118651768Y-96139000D01*
X118075500Y-96139000D01*
X118075500Y-93599000D01*
X118651768Y-93599000D01*
X118652306Y-93604806D01*
X118670116Y-93797015D01*
X118670117Y-93797025D01*
X118670655Y-93802821D01*
X118726672Y-93999701D01*
X118817912Y-94182935D01*
X118821421Y-94187582D01*
X118821422Y-94187583D01*
X118937755Y-94341634D01*
X118937759Y-94341638D01*
X118941268Y-94346285D01*
X118945570Y-94350207D01*
X118945573Y-94350210D01*
X118970736Y-94373149D01*
X119092538Y-94484186D01*
X119097489Y-94487251D01*
X119097491Y-94487253D01*
X119171992Y-94533382D01*
X119266573Y-94591944D01*
X119457444Y-94665888D01*
X119658653Y-94703500D01*
X119857519Y-94703500D01*
X119863347Y-94703500D01*
X120064556Y-94665888D01*
X120255427Y-94591944D01*
X120429462Y-94484186D01*
X120580732Y-94346285D01*
X120704088Y-94182935D01*
X120795328Y-93999701D01*
X120851345Y-93802821D01*
X120870232Y-93599000D01*
X120851345Y-93395179D01*
X120795328Y-93198299D01*
X120704088Y-93015065D01*
X120611897Y-92892984D01*
X120584244Y-92856365D01*
X120584241Y-92856361D01*
X120580732Y-92851715D01*
X120576429Y-92847792D01*
X120576426Y-92847789D01*
X120433764Y-92717736D01*
X120433765Y-92717736D01*
X120429462Y-92713814D01*
X120424512Y-92710749D01*
X120424508Y-92710746D01*
X120260387Y-92609127D01*
X120260386Y-92609126D01*
X120255427Y-92606056D01*
X120195913Y-92583000D01*
X120069989Y-92534216D01*
X120069981Y-92534213D01*
X120064556Y-92532112D01*
X120058839Y-92531043D01*
X120058831Y-92531041D01*
X119869073Y-92495570D01*
X119869069Y-92495569D01*
X119863347Y-92494500D01*
X119658653Y-92494500D01*
X119652931Y-92495569D01*
X119652926Y-92495570D01*
X119463168Y-92531041D01*
X119463157Y-92531043D01*
X119457444Y-92532112D01*
X119452021Y-92534212D01*
X119452010Y-92534216D01*
X119272011Y-92603949D01*
X119272008Y-92603950D01*
X119266573Y-92606056D01*
X119261617Y-92609124D01*
X119261612Y-92609127D01*
X119097491Y-92710746D01*
X119097481Y-92710752D01*
X119092538Y-92713814D01*
X119088239Y-92717732D01*
X119088235Y-92717736D01*
X118945573Y-92847789D01*
X118945565Y-92847797D01*
X118941268Y-92851715D01*
X118937763Y-92856355D01*
X118937755Y-92856365D01*
X118821422Y-93010416D01*
X118821418Y-93010421D01*
X118817912Y-93015065D01*
X118815317Y-93020274D01*
X118815314Y-93020281D01*
X118731433Y-93188737D01*
X118726672Y-93198299D01*
X118725078Y-93203899D01*
X118725076Y-93203906D01*
X118675023Y-93379826D01*
X118670655Y-93395179D01*
X118670118Y-93400972D01*
X118670116Y-93400984D01*
X118661227Y-93496920D01*
X118651768Y-93599000D01*
X118075500Y-93599000D01*
X118075500Y-91059000D01*
X118651768Y-91059000D01*
X118652306Y-91064806D01*
X118670116Y-91257015D01*
X118670117Y-91257025D01*
X118670655Y-91262821D01*
X118672249Y-91268426D01*
X118672250Y-91268427D01*
X118723050Y-91446973D01*
X118726672Y-91459701D01*
X118817912Y-91642935D01*
X118821421Y-91647582D01*
X118821422Y-91647583D01*
X118937755Y-91801634D01*
X118937759Y-91801638D01*
X118941268Y-91806285D01*
X118945570Y-91810207D01*
X118945573Y-91810210D01*
X119033466Y-91890335D01*
X119092538Y-91944186D01*
X119097489Y-91947251D01*
X119097491Y-91947253D01*
X119171992Y-91993382D01*
X119266573Y-92051944D01*
X119457444Y-92125888D01*
X119658653Y-92163500D01*
X119857519Y-92163500D01*
X119863347Y-92163500D01*
X120064556Y-92125888D01*
X120255427Y-92051944D01*
X120429462Y-91944186D01*
X120580732Y-91806285D01*
X120704088Y-91642935D01*
X120795328Y-91459701D01*
X120851345Y-91262821D01*
X120870232Y-91059000D01*
X120861328Y-90962907D01*
X120851883Y-90860984D01*
X120851882Y-90860983D01*
X120851345Y-90855179D01*
X120795328Y-90658299D01*
X120704088Y-90475065D01*
X120636200Y-90385166D01*
X120584244Y-90316365D01*
X120584241Y-90316361D01*
X120580732Y-90311715D01*
X120576429Y-90307792D01*
X120576426Y-90307789D01*
X120433764Y-90177736D01*
X120433765Y-90177736D01*
X120429462Y-90173814D01*
X120424512Y-90170749D01*
X120424508Y-90170746D01*
X120260387Y-90069127D01*
X120260386Y-90069126D01*
X120255427Y-90066056D01*
X120231898Y-90056941D01*
X120069989Y-89994216D01*
X120069981Y-89994213D01*
X120064556Y-89992112D01*
X120058839Y-89991043D01*
X120058831Y-89991041D01*
X119869073Y-89955570D01*
X119869069Y-89955569D01*
X119863347Y-89954500D01*
X119658653Y-89954500D01*
X119652931Y-89955569D01*
X119652926Y-89955570D01*
X119463168Y-89991041D01*
X119463157Y-89991043D01*
X119457444Y-89992112D01*
X119452021Y-89994212D01*
X119452010Y-89994216D01*
X119272011Y-90063949D01*
X119272008Y-90063950D01*
X119266573Y-90066056D01*
X119261617Y-90069124D01*
X119261612Y-90069127D01*
X119097491Y-90170746D01*
X119097481Y-90170752D01*
X119092538Y-90173814D01*
X119088239Y-90177732D01*
X119088235Y-90177736D01*
X118945573Y-90307789D01*
X118945565Y-90307797D01*
X118941268Y-90311715D01*
X118937763Y-90316355D01*
X118937755Y-90316365D01*
X118821422Y-90470416D01*
X118821418Y-90470421D01*
X118817912Y-90475065D01*
X118815317Y-90480274D01*
X118815314Y-90480281D01*
X118729271Y-90653079D01*
X118726672Y-90658299D01*
X118725078Y-90663899D01*
X118725076Y-90663906D01*
X118676697Y-90833944D01*
X118670655Y-90855179D01*
X118670118Y-90860972D01*
X118670116Y-90860984D01*
X118656709Y-91005681D01*
X118651768Y-91059000D01*
X118075500Y-91059000D01*
X118075500Y-88519000D01*
X118651768Y-88519000D01*
X118652306Y-88524806D01*
X118670116Y-88717015D01*
X118670117Y-88717025D01*
X118670655Y-88722821D01*
X118672249Y-88728426D01*
X118672250Y-88728427D01*
X118680821Y-88758553D01*
X118726672Y-88919701D01*
X118817912Y-89102935D01*
X118821421Y-89107582D01*
X118821422Y-89107583D01*
X118937755Y-89261634D01*
X118937759Y-89261638D01*
X118941268Y-89266285D01*
X118945570Y-89270207D01*
X118945573Y-89270210D01*
X119010797Y-89329669D01*
X119092538Y-89404186D01*
X119266573Y-89511944D01*
X119457444Y-89585888D01*
X119658653Y-89623500D01*
X119857519Y-89623500D01*
X119863347Y-89623500D01*
X120064556Y-89585888D01*
X120255427Y-89511944D01*
X120429462Y-89404186D01*
X120580732Y-89266285D01*
X120704088Y-89102935D01*
X120795328Y-88919701D01*
X120851345Y-88722821D01*
X120870232Y-88519000D01*
X120868546Y-88500803D01*
X120851883Y-88320984D01*
X120851882Y-88320983D01*
X120851345Y-88315179D01*
X120795328Y-88118299D01*
X120704088Y-87935065D01*
X120655751Y-87871056D01*
X120584244Y-87776365D01*
X120584241Y-87776361D01*
X120580732Y-87771715D01*
X120576429Y-87767792D01*
X120576426Y-87767789D01*
X120433764Y-87637736D01*
X120433765Y-87637736D01*
X120429462Y-87633814D01*
X120424512Y-87630749D01*
X120424508Y-87630746D01*
X120260387Y-87529127D01*
X120260386Y-87529126D01*
X120255427Y-87526056D01*
X120231898Y-87516941D01*
X120069989Y-87454216D01*
X120069981Y-87454213D01*
X120064556Y-87452112D01*
X120058839Y-87451043D01*
X120058831Y-87451041D01*
X119869073Y-87415570D01*
X119869069Y-87415569D01*
X119863347Y-87414500D01*
X119658653Y-87414500D01*
X119652931Y-87415569D01*
X119652926Y-87415570D01*
X119463168Y-87451041D01*
X119463157Y-87451043D01*
X119457444Y-87452112D01*
X119452021Y-87454212D01*
X119452010Y-87454216D01*
X119272011Y-87523949D01*
X119272008Y-87523950D01*
X119266573Y-87526056D01*
X119261617Y-87529124D01*
X119261612Y-87529127D01*
X119097491Y-87630746D01*
X119097481Y-87630752D01*
X119092538Y-87633814D01*
X119088239Y-87637732D01*
X119088235Y-87637736D01*
X118945573Y-87767789D01*
X118945565Y-87767797D01*
X118941268Y-87771715D01*
X118937763Y-87776355D01*
X118937755Y-87776365D01*
X118821422Y-87930416D01*
X118821418Y-87930421D01*
X118817912Y-87935065D01*
X118815317Y-87940274D01*
X118815314Y-87940281D01*
X118759351Y-88052671D01*
X118726672Y-88118299D01*
X118725078Y-88123899D01*
X118725076Y-88123906D01*
X118679207Y-88285121D01*
X118670655Y-88315179D01*
X118670118Y-88320972D01*
X118670116Y-88320984D01*
X118653454Y-88500803D01*
X118651768Y-88519000D01*
X118075500Y-88519000D01*
X118075500Y-85979000D01*
X118651768Y-85979000D01*
X118652306Y-85984806D01*
X118670116Y-86177015D01*
X118670117Y-86177025D01*
X118670655Y-86182821D01*
X118672249Y-86188426D01*
X118672250Y-86188427D01*
X118710211Y-86321849D01*
X118726672Y-86379701D01*
X118817912Y-86562935D01*
X118821421Y-86567582D01*
X118821422Y-86567583D01*
X118937755Y-86721634D01*
X118937759Y-86721638D01*
X118941268Y-86726285D01*
X118945570Y-86730207D01*
X118945573Y-86730210D01*
X119003647Y-86783151D01*
X119092538Y-86864186D01*
X119097489Y-86867251D01*
X119097491Y-86867253D01*
X119121234Y-86881954D01*
X119266573Y-86971944D01*
X119457444Y-87045888D01*
X119658653Y-87083500D01*
X119857519Y-87083500D01*
X119863347Y-87083500D01*
X120064556Y-87045888D01*
X120255427Y-86971944D01*
X120429462Y-86864186D01*
X120580732Y-86726285D01*
X120704088Y-86562935D01*
X120795328Y-86379701D01*
X120851345Y-86182821D01*
X120870232Y-85979000D01*
X120855381Y-85818736D01*
X120851883Y-85780984D01*
X120851882Y-85780983D01*
X120851345Y-85775179D01*
X120795328Y-85578299D01*
X120704088Y-85395065D01*
X120580732Y-85231715D01*
X120576429Y-85227792D01*
X120576426Y-85227789D01*
X120471969Y-85132564D01*
X120429462Y-85093814D01*
X120424512Y-85090749D01*
X120424508Y-85090746D01*
X120260387Y-84989127D01*
X120260386Y-84989126D01*
X120255427Y-84986056D01*
X120231898Y-84976941D01*
X120069989Y-84914216D01*
X120069981Y-84914213D01*
X120064556Y-84912112D01*
X120058839Y-84911043D01*
X120058831Y-84911041D01*
X119869073Y-84875570D01*
X119869069Y-84875569D01*
X119863347Y-84874500D01*
X119658653Y-84874500D01*
X119652931Y-84875569D01*
X119652926Y-84875570D01*
X119463168Y-84911041D01*
X119463157Y-84911043D01*
X119457444Y-84912112D01*
X119452021Y-84914212D01*
X119452010Y-84914216D01*
X119272011Y-84983949D01*
X119272008Y-84983950D01*
X119266573Y-84986056D01*
X119261617Y-84989124D01*
X119261612Y-84989127D01*
X119097491Y-85090746D01*
X119097481Y-85090752D01*
X119092538Y-85093814D01*
X119088239Y-85097732D01*
X119088235Y-85097736D01*
X118945573Y-85227789D01*
X118945565Y-85227797D01*
X118941268Y-85231715D01*
X118937763Y-85236355D01*
X118937755Y-85236365D01*
X118821422Y-85390416D01*
X118821418Y-85390421D01*
X118817912Y-85395065D01*
X118815317Y-85400274D01*
X118815314Y-85400281D01*
X118731435Y-85568733D01*
X118726672Y-85578299D01*
X118725078Y-85583899D01*
X118725076Y-85583906D01*
X118680962Y-85738952D01*
X118670655Y-85775179D01*
X118670118Y-85780972D01*
X118670116Y-85780984D01*
X118653061Y-85965047D01*
X118651768Y-85979000D01*
X118075500Y-85979000D01*
X118075500Y-83439000D01*
X118651768Y-83439000D01*
X118652306Y-83444806D01*
X118670116Y-83637015D01*
X118670117Y-83637025D01*
X118670655Y-83642821D01*
X118672249Y-83648426D01*
X118672250Y-83648427D01*
X118711900Y-83787785D01*
X118726672Y-83839701D01*
X118767462Y-83921619D01*
X118812687Y-84012443D01*
X118817912Y-84022935D01*
X118821421Y-84027582D01*
X118821422Y-84027583D01*
X118937755Y-84181634D01*
X118937759Y-84181638D01*
X118941268Y-84186285D01*
X118945570Y-84190207D01*
X118945573Y-84190210D01*
X118985253Y-84226383D01*
X119092538Y-84324186D01*
X119097489Y-84327251D01*
X119097491Y-84327253D01*
X119171992Y-84373382D01*
X119266573Y-84431944D01*
X119457444Y-84505888D01*
X119658653Y-84543500D01*
X119857519Y-84543500D01*
X119863347Y-84543500D01*
X120064556Y-84505888D01*
X120255427Y-84431944D01*
X120429462Y-84324186D01*
X120580732Y-84186285D01*
X120704088Y-84022935D01*
X120795328Y-83839701D01*
X120851345Y-83642821D01*
X120870232Y-83439000D01*
X120851345Y-83235179D01*
X120795328Y-83038299D01*
X120704088Y-82855065D01*
X120603279Y-82721572D01*
X120584244Y-82696365D01*
X120584241Y-82696361D01*
X120580732Y-82691715D01*
X120576429Y-82687792D01*
X120576426Y-82687789D01*
X120471969Y-82592564D01*
X120429462Y-82553814D01*
X120424512Y-82550749D01*
X120424508Y-82550746D01*
X120260387Y-82449127D01*
X120260386Y-82449126D01*
X120255427Y-82446056D01*
X120220603Y-82432565D01*
X120069989Y-82374216D01*
X120069981Y-82374213D01*
X120064556Y-82372112D01*
X120058839Y-82371043D01*
X120058831Y-82371041D01*
X119869073Y-82335570D01*
X119869069Y-82335569D01*
X119863347Y-82334500D01*
X119658653Y-82334500D01*
X119652931Y-82335569D01*
X119652926Y-82335570D01*
X119463168Y-82371041D01*
X119463157Y-82371043D01*
X119457444Y-82372112D01*
X119452021Y-82374212D01*
X119452010Y-82374216D01*
X119272011Y-82443949D01*
X119272008Y-82443950D01*
X119266573Y-82446056D01*
X119261617Y-82449124D01*
X119261612Y-82449127D01*
X119097491Y-82550746D01*
X119097481Y-82550752D01*
X119092538Y-82553814D01*
X119088239Y-82557732D01*
X119088235Y-82557736D01*
X118945573Y-82687789D01*
X118945565Y-82687797D01*
X118941268Y-82691715D01*
X118937763Y-82696355D01*
X118937755Y-82696365D01*
X118821422Y-82850416D01*
X118821418Y-82850421D01*
X118817912Y-82855065D01*
X118815317Y-82860274D01*
X118815314Y-82860281D01*
X118749048Y-82993362D01*
X118726672Y-83038299D01*
X118725078Y-83043899D01*
X118725076Y-83043906D01*
X118672250Y-83229572D01*
X118670655Y-83235179D01*
X118670118Y-83240972D01*
X118670116Y-83240984D01*
X118652527Y-83430812D01*
X118651768Y-83439000D01*
X118075500Y-83439000D01*
X118075500Y-81026000D01*
X123265715Y-81026000D01*
X123266793Y-81034188D01*
X123283693Y-81162565D01*
X123283694Y-81162571D01*
X123284772Y-81170754D01*
X123287931Y-81178382D01*
X123287932Y-81178383D01*
X123337484Y-81298013D01*
X123337485Y-81298016D01*
X123340645Y-81305643D01*
X123345671Y-81312194D01*
X123345673Y-81312196D01*
X123424499Y-81414923D01*
X123429526Y-81421474D01*
X123545357Y-81510355D01*
X123680246Y-81566228D01*
X123825000Y-81585285D01*
X123969754Y-81566228D01*
X124104643Y-81510355D01*
X124220474Y-81421474D01*
X124309355Y-81305643D01*
X124365228Y-81170754D01*
X124384285Y-81026000D01*
X124365228Y-80881246D01*
X124309355Y-80746358D01*
X124220474Y-80630526D01*
X124104643Y-80541645D01*
X124097016Y-80538485D01*
X124097013Y-80538484D01*
X123977383Y-80488932D01*
X123977382Y-80488931D01*
X123969754Y-80485772D01*
X123961571Y-80484694D01*
X123961565Y-80484693D01*
X123833188Y-80467793D01*
X123825000Y-80466715D01*
X123816812Y-80467793D01*
X123688431Y-80484694D01*
X123688427Y-80484694D01*
X123680246Y-80485772D01*
X123672627Y-80488927D01*
X123672619Y-80488930D01*
X123552986Y-80538485D01*
X123552983Y-80538486D01*
X123545358Y-80541645D01*
X123538810Y-80546668D01*
X123538807Y-80546671D01*
X123436071Y-80625503D01*
X123436067Y-80625506D01*
X123429526Y-80630526D01*
X123424506Y-80637067D01*
X123424503Y-80637071D01*
X123345671Y-80739807D01*
X123345668Y-80739810D01*
X123340645Y-80746358D01*
X123337486Y-80753983D01*
X123337485Y-80753986D01*
X123287930Y-80873619D01*
X123287927Y-80873627D01*
X123284772Y-80881246D01*
X123265715Y-81026000D01*
X118075500Y-81026000D01*
X118075500Y-72326500D01*
X118999000Y-72326500D01*
X118999000Y-78994000D01*
X123431590Y-78994000D01*
X123444000Y-78994000D01*
X123767062Y-78670938D01*
X139987530Y-78670938D01*
X139988608Y-78679126D01*
X140005508Y-78807503D01*
X140005509Y-78807509D01*
X140006587Y-78815692D01*
X140009746Y-78823320D01*
X140009747Y-78823321D01*
X140059299Y-78942951D01*
X140059300Y-78942954D01*
X140062460Y-78950581D01*
X140067486Y-78957132D01*
X140067488Y-78957134D01*
X140095777Y-78994000D01*
X140151341Y-79066412D01*
X140180762Y-79088988D01*
X140222458Y-79145851D01*
X140227072Y-79216215D01*
X140195110Y-79274479D01*
X140195159Y-79274516D01*
X140194918Y-79274828D01*
X140194914Y-79274835D01*
X140190142Y-79281053D01*
X140190138Y-79281058D01*
X140111304Y-79383797D01*
X140111301Y-79383800D01*
X140106278Y-79390348D01*
X140103119Y-79397973D01*
X140103118Y-79397976D01*
X140053563Y-79517609D01*
X140053560Y-79517617D01*
X140050405Y-79525236D01*
X140031348Y-79669990D01*
X140032426Y-79678175D01*
X140032426Y-79678178D01*
X140049326Y-79806555D01*
X140049327Y-79806561D01*
X140050405Y-79814744D01*
X140053564Y-79822372D01*
X140053565Y-79822373D01*
X140103117Y-79942003D01*
X140103118Y-79942006D01*
X140106278Y-79949633D01*
X140195159Y-80065464D01*
X140201709Y-80070490D01*
X140207550Y-80076331D01*
X140206682Y-80077198D01*
X140236575Y-80113617D01*
X140249572Y-80169344D01*
X140236582Y-80225072D01*
X140205351Y-80263132D01*
X140205877Y-80263658D01*
X140200544Y-80268990D01*
X140200284Y-80269308D01*
X140200038Y-80269496D01*
X140200027Y-80269506D01*
X140193486Y-80274526D01*
X140188466Y-80281067D01*
X140188463Y-80281071D01*
X140109631Y-80383807D01*
X140109628Y-80383810D01*
X140104605Y-80390358D01*
X140101446Y-80397983D01*
X140101445Y-80397986D01*
X140051890Y-80517619D01*
X140051887Y-80517627D01*
X140048732Y-80525246D01*
X140029675Y-80670000D01*
X140030753Y-80678188D01*
X140047653Y-80806565D01*
X140047654Y-80806571D01*
X140048732Y-80814754D01*
X140051891Y-80822382D01*
X140051892Y-80822383D01*
X140101444Y-80942013D01*
X140101445Y-80942016D01*
X140104605Y-80949643D01*
X140193486Y-81065474D01*
X140309317Y-81154355D01*
X140444206Y-81210228D01*
X140588960Y-81229285D01*
X140608304Y-81226738D01*
X140665250Y-81232346D01*
X140713845Y-81262565D01*
X141110395Y-81659115D01*
X141137709Y-81699992D01*
X141147300Y-81748210D01*
X141147300Y-95123687D01*
X141134306Y-95179415D01*
X141098006Y-95223647D01*
X141082526Y-95235526D01*
X141077500Y-95242075D01*
X141077499Y-95242077D01*
X140998671Y-95344807D01*
X140998668Y-95344810D01*
X140993645Y-95351358D01*
X140990486Y-95358983D01*
X140990485Y-95358986D01*
X140940930Y-95478619D01*
X140940927Y-95478627D01*
X140937772Y-95486246D01*
X140936694Y-95494427D01*
X140936694Y-95494431D01*
X140929372Y-95550051D01*
X140918715Y-95631000D01*
X140919793Y-95639188D01*
X140936693Y-95767565D01*
X140936694Y-95767571D01*
X140937772Y-95775754D01*
X140940931Y-95783382D01*
X140940932Y-95783383D01*
X140990484Y-95903013D01*
X140990485Y-95903016D01*
X140993645Y-95910643D01*
X140998671Y-95917194D01*
X140998673Y-95917196D01*
X141031386Y-95959828D01*
X141082526Y-96026474D01*
X141198357Y-96115355D01*
X141333246Y-96171228D01*
X141478000Y-96190285D01*
X141622754Y-96171228D01*
X141757643Y-96115355D01*
X141873474Y-96026474D01*
X141962355Y-95910643D01*
X142018228Y-95775754D01*
X142037285Y-95631000D01*
X142018228Y-95486246D01*
X141962355Y-95351358D01*
X141873474Y-95235526D01*
X141857993Y-95223647D01*
X141821694Y-95179415D01*
X141808700Y-95123687D01*
X141808700Y-92900500D01*
X142188715Y-92900500D01*
X142189793Y-92908688D01*
X142206693Y-93037065D01*
X142206694Y-93037071D01*
X142207772Y-93045254D01*
X142210931Y-93052882D01*
X142210932Y-93052883D01*
X142260484Y-93172513D01*
X142260485Y-93172516D01*
X142263645Y-93180143D01*
X142268671Y-93186694D01*
X142268673Y-93186696D01*
X142347186Y-93289015D01*
X142352526Y-93295974D01*
X142468357Y-93384855D01*
X142603246Y-93440728D01*
X142748000Y-93459785D01*
X142892754Y-93440728D01*
X143027643Y-93384855D01*
X143143474Y-93295974D01*
X143232355Y-93180143D01*
X143288228Y-93045254D01*
X143307285Y-92900500D01*
X143288228Y-92755746D01*
X143236645Y-92631216D01*
X143227055Y-92582999D01*
X143236647Y-92534781D01*
X143288228Y-92410254D01*
X143307285Y-92265500D01*
X143288228Y-92120746D01*
X143280101Y-92101127D01*
X143259729Y-92051944D01*
X143232355Y-91985858D01*
X143143474Y-91870026D01*
X143060406Y-91806285D01*
X143034196Y-91786173D01*
X143034194Y-91786171D01*
X143027643Y-91781145D01*
X143020016Y-91777985D01*
X143020013Y-91777984D01*
X142900383Y-91728432D01*
X142900382Y-91728431D01*
X142892754Y-91725272D01*
X142884571Y-91724194D01*
X142884565Y-91724193D01*
X142756188Y-91707293D01*
X142748000Y-91706215D01*
X142739812Y-91707293D01*
X142611431Y-91724194D01*
X142611427Y-91724194D01*
X142603246Y-91725272D01*
X142595627Y-91728427D01*
X142595619Y-91728430D01*
X142475986Y-91777985D01*
X142475983Y-91777986D01*
X142468358Y-91781145D01*
X142461810Y-91786168D01*
X142461807Y-91786171D01*
X142359071Y-91865003D01*
X142359067Y-91865006D01*
X142352526Y-91870026D01*
X142347506Y-91876567D01*
X142347503Y-91876571D01*
X142268671Y-91979307D01*
X142268668Y-91979310D01*
X142263645Y-91985858D01*
X142260486Y-91993483D01*
X142260485Y-91993486D01*
X142210930Y-92113119D01*
X142210927Y-92113127D01*
X142207772Y-92120746D01*
X142206694Y-92128927D01*
X142206694Y-92128931D01*
X142196573Y-92205814D01*
X142188715Y-92265500D01*
X142189793Y-92273688D01*
X142206693Y-92402065D01*
X142206694Y-92402071D01*
X142207772Y-92410254D01*
X142259352Y-92534780D01*
X142259353Y-92534781D01*
X142268944Y-92582999D01*
X142259353Y-92631217D01*
X142210931Y-92748116D01*
X142210928Y-92748126D01*
X142207772Y-92755746D01*
X142206694Y-92763927D01*
X142206694Y-92763931D01*
X142194525Y-92856365D01*
X142188715Y-92900500D01*
X141808700Y-92900500D01*
X141808700Y-88963500D01*
X142188715Y-88963500D01*
X142189793Y-88971688D01*
X142206693Y-89100065D01*
X142206694Y-89100071D01*
X142207772Y-89108254D01*
X142210931Y-89115882D01*
X142210932Y-89115883D01*
X142260484Y-89235513D01*
X142260485Y-89235516D01*
X142263645Y-89243143D01*
X142268671Y-89249694D01*
X142268673Y-89249696D01*
X142284414Y-89270210D01*
X142352526Y-89358974D01*
X142468357Y-89447855D01*
X142603246Y-89503728D01*
X142748000Y-89522785D01*
X142892754Y-89503728D01*
X143027643Y-89447855D01*
X143143474Y-89358974D01*
X143232355Y-89243143D01*
X143288228Y-89108254D01*
X143307285Y-88963500D01*
X143288228Y-88818746D01*
X143236645Y-88694216D01*
X143227055Y-88645999D01*
X143236647Y-88597781D01*
X143288228Y-88473254D01*
X143307285Y-88328500D01*
X143288228Y-88183746D01*
X143232355Y-88048858D01*
X143143474Y-87933026D01*
X143112752Y-87909452D01*
X143034196Y-87849173D01*
X143034194Y-87849171D01*
X143027643Y-87844145D01*
X143020016Y-87840985D01*
X143020013Y-87840984D01*
X142900383Y-87791432D01*
X142900382Y-87791431D01*
X142892754Y-87788272D01*
X142884571Y-87787194D01*
X142884565Y-87787193D01*
X142756188Y-87770293D01*
X142748000Y-87769215D01*
X142739812Y-87770293D01*
X142611431Y-87787194D01*
X142611427Y-87787194D01*
X142603246Y-87788272D01*
X142595627Y-87791427D01*
X142595619Y-87791430D01*
X142475986Y-87840985D01*
X142475983Y-87840986D01*
X142468358Y-87844145D01*
X142461810Y-87849168D01*
X142461807Y-87849171D01*
X142359071Y-87928003D01*
X142359067Y-87928006D01*
X142352526Y-87933026D01*
X142347506Y-87939567D01*
X142347503Y-87939571D01*
X142268671Y-88042307D01*
X142268668Y-88042310D01*
X142263645Y-88048858D01*
X142260486Y-88056483D01*
X142260485Y-88056486D01*
X142210930Y-88176119D01*
X142210927Y-88176127D01*
X142207772Y-88183746D01*
X142206694Y-88191927D01*
X142206694Y-88191931D01*
X142201803Y-88229086D01*
X142188715Y-88328500D01*
X142189793Y-88336688D01*
X142206693Y-88465065D01*
X142206694Y-88465071D01*
X142207772Y-88473254D01*
X142259352Y-88597780D01*
X142259353Y-88597781D01*
X142268944Y-88645999D01*
X142259353Y-88694217D01*
X142210931Y-88811116D01*
X142210928Y-88811126D01*
X142207772Y-88818746D01*
X142188715Y-88963500D01*
X141808700Y-88963500D01*
X141808700Y-81659927D01*
X141822433Y-81602724D01*
X141860639Y-81557991D01*
X141914989Y-81535478D01*
X141973636Y-81540094D01*
X142023795Y-81570832D01*
X143650395Y-83197432D01*
X143677709Y-83238309D01*
X143687300Y-83286527D01*
X143687300Y-95123687D01*
X143674306Y-95179415D01*
X143638006Y-95223647D01*
X143622526Y-95235526D01*
X143617500Y-95242075D01*
X143617499Y-95242077D01*
X143538671Y-95344807D01*
X143538668Y-95344810D01*
X143533645Y-95351358D01*
X143530486Y-95358983D01*
X143530485Y-95358986D01*
X143480930Y-95478619D01*
X143480927Y-95478627D01*
X143477772Y-95486246D01*
X143476694Y-95494427D01*
X143476694Y-95494431D01*
X143469372Y-95550051D01*
X143458715Y-95631000D01*
X143459793Y-95639188D01*
X143476693Y-95767565D01*
X143476694Y-95767571D01*
X143477772Y-95775754D01*
X143480931Y-95783382D01*
X143480932Y-95783383D01*
X143530484Y-95903013D01*
X143530485Y-95903016D01*
X143533645Y-95910643D01*
X143538671Y-95917194D01*
X143538673Y-95917196D01*
X143571386Y-95959828D01*
X143622526Y-96026474D01*
X143738357Y-96115355D01*
X143873246Y-96171228D01*
X144018000Y-96190285D01*
X144162754Y-96171228D01*
X144297643Y-96115355D01*
X144413474Y-96026474D01*
X144502355Y-95910643D01*
X144558228Y-95775754D01*
X144577285Y-95631000D01*
X144558228Y-95486246D01*
X144502355Y-95351358D01*
X144413474Y-95235526D01*
X144397993Y-95223647D01*
X144361694Y-95179415D01*
X144348700Y-95123687D01*
X144348700Y-83117306D01*
X144349179Y-83106325D01*
X144351186Y-83083383D01*
X144352524Y-83068090D01*
X144342590Y-83031020D01*
X144340213Y-83020293D01*
X144335465Y-82993362D01*
X144335464Y-82993361D01*
X144333551Y-82982506D01*
X144328038Y-82972959D01*
X144326773Y-82969481D01*
X144325194Y-82966096D01*
X144322340Y-82955441D01*
X144300327Y-82924003D01*
X144294422Y-82914734D01*
X144280749Y-82891052D01*
X144275239Y-82881508D01*
X144245833Y-82856833D01*
X144237730Y-82849407D01*
X141183198Y-79794875D01*
X141152979Y-79746280D01*
X141147371Y-79689334D01*
X141149918Y-79669990D01*
X141130861Y-79525236D01*
X141127701Y-79517607D01*
X141127700Y-79517603D01*
X141112873Y-79481808D01*
X141104832Y-79413879D01*
X141133469Y-79351759D01*
X141190344Y-79313756D01*
X141258695Y-79311070D01*
X141318376Y-79344494D01*
X146190395Y-84216513D01*
X146217709Y-84257390D01*
X146227300Y-84305608D01*
X146227300Y-95123687D01*
X146214306Y-95179415D01*
X146178006Y-95223647D01*
X146162526Y-95235526D01*
X146157500Y-95242075D01*
X146157499Y-95242077D01*
X146078671Y-95344807D01*
X146078668Y-95344810D01*
X146073645Y-95351358D01*
X146070486Y-95358983D01*
X146070485Y-95358986D01*
X146020930Y-95478619D01*
X146020927Y-95478627D01*
X146017772Y-95486246D01*
X146016694Y-95494427D01*
X146016694Y-95494431D01*
X146009372Y-95550051D01*
X145998715Y-95631000D01*
X145999793Y-95639188D01*
X146016693Y-95767565D01*
X146016694Y-95767571D01*
X146017772Y-95775754D01*
X146020931Y-95783382D01*
X146020932Y-95783383D01*
X146070484Y-95903013D01*
X146070485Y-95903016D01*
X146073645Y-95910643D01*
X146078671Y-95917194D01*
X146078673Y-95917196D01*
X146111386Y-95959828D01*
X146162526Y-96026474D01*
X146278357Y-96115355D01*
X146413246Y-96171228D01*
X146558000Y-96190285D01*
X146702754Y-96171228D01*
X146837643Y-96115355D01*
X146953474Y-96026474D01*
X147042355Y-95910643D01*
X147098228Y-95775754D01*
X147117285Y-95631000D01*
X147098228Y-95486246D01*
X147042355Y-95351358D01*
X146953474Y-95235526D01*
X146937993Y-95223647D01*
X146901694Y-95179415D01*
X146888700Y-95123687D01*
X146888700Y-94675323D01*
X146906754Y-94610334D01*
X146955742Y-94563968D01*
X147021625Y-94549513D01*
X147083846Y-94570545D01*
X147086957Y-94573287D01*
X147230021Y-94646182D01*
X147386719Y-94681208D01*
X147547205Y-94676165D01*
X147701393Y-94631369D01*
X147839598Y-94549634D01*
X149298232Y-93091000D01*
X155100768Y-93091000D01*
X155101306Y-93096806D01*
X155119116Y-93289015D01*
X155119117Y-93289025D01*
X155119655Y-93294821D01*
X155121249Y-93300426D01*
X155121250Y-93300427D01*
X155161475Y-93441806D01*
X155175672Y-93491701D01*
X155221667Y-93584072D01*
X155240755Y-93622406D01*
X155266912Y-93674935D01*
X155270421Y-93679582D01*
X155270422Y-93679583D01*
X155386755Y-93833634D01*
X155386759Y-93833638D01*
X155390268Y-93838285D01*
X155394570Y-93842207D01*
X155394573Y-93842210D01*
X155482466Y-93922335D01*
X155541538Y-93976186D01*
X155715573Y-94083944D01*
X155906444Y-94157888D01*
X156107653Y-94195500D01*
X156306519Y-94195500D01*
X156312347Y-94195500D01*
X156513556Y-94157888D01*
X156704427Y-94083944D01*
X156878462Y-93976186D01*
X157029732Y-93838285D01*
X157153088Y-93674935D01*
X157244328Y-93491701D01*
X157300345Y-93294821D01*
X157319232Y-93091000D01*
X157300345Y-92887179D01*
X157244328Y-92690299D01*
X157153088Y-92507065D01*
X157073796Y-92402065D01*
X157033244Y-92348365D01*
X157033241Y-92348361D01*
X157029732Y-92343715D01*
X157025429Y-92339792D01*
X157025426Y-92339789D01*
X156920969Y-92244564D01*
X156878462Y-92205814D01*
X156873512Y-92202749D01*
X156873508Y-92202746D01*
X156709387Y-92101127D01*
X156709386Y-92101126D01*
X156704427Y-92098056D01*
X156680898Y-92088941D01*
X156518989Y-92026216D01*
X156518981Y-92026213D01*
X156513556Y-92024112D01*
X156507839Y-92023043D01*
X156507831Y-92023041D01*
X156318073Y-91987570D01*
X156318069Y-91987569D01*
X156312347Y-91986500D01*
X156107653Y-91986500D01*
X156101931Y-91987569D01*
X156101926Y-91987570D01*
X155912168Y-92023041D01*
X155912157Y-92023043D01*
X155906444Y-92024112D01*
X155901021Y-92026212D01*
X155901010Y-92026216D01*
X155721011Y-92095949D01*
X155721008Y-92095950D01*
X155715573Y-92098056D01*
X155710617Y-92101124D01*
X155710612Y-92101127D01*
X155546491Y-92202746D01*
X155546481Y-92202752D01*
X155541538Y-92205814D01*
X155537239Y-92209732D01*
X155537235Y-92209736D01*
X155394573Y-92339789D01*
X155394565Y-92339797D01*
X155390268Y-92343715D01*
X155386763Y-92348355D01*
X155386755Y-92348365D01*
X155270422Y-92502416D01*
X155270418Y-92502421D01*
X155266912Y-92507065D01*
X155264317Y-92512274D01*
X155264314Y-92512281D01*
X155180928Y-92679744D01*
X155175672Y-92690299D01*
X155174078Y-92695899D01*
X155174076Y-92695906D01*
X155130862Y-92847789D01*
X155119655Y-92887179D01*
X155119118Y-92892972D01*
X155119116Y-92892984D01*
X155104303Y-93052849D01*
X155100768Y-93091000D01*
X149298232Y-93091000D01*
X150149827Y-92239405D01*
X150190705Y-92212091D01*
X150238923Y-92202500D01*
X151991524Y-92202500D01*
X151995483Y-92202500D01*
X152114799Y-92187427D01*
X152264088Y-92128319D01*
X152393987Y-92033942D01*
X152496335Y-91910224D01*
X152564700Y-91764941D01*
X152594787Y-91607221D01*
X152584705Y-91446973D01*
X152535088Y-91294267D01*
X152449053Y-91158697D01*
X152332006Y-91048783D01*
X152312894Y-91038276D01*
X152198249Y-90975249D01*
X152198245Y-90975247D01*
X152191303Y-90971431D01*
X152183628Y-90969460D01*
X152183622Y-90969458D01*
X152043461Y-90933471D01*
X152043456Y-90933470D01*
X152035782Y-90931500D01*
X152027855Y-90931500D01*
X150002532Y-90931500D01*
X149991293Y-90930970D01*
X149983781Y-90929291D01*
X149975855Y-90929540D01*
X149915470Y-90931438D01*
X149911512Y-90931500D01*
X149883517Y-90931500D01*
X149879597Y-90931995D01*
X149879566Y-90931997D01*
X149879463Y-90932011D01*
X149867655Y-90932940D01*
X149831217Y-90934085D01*
X149831209Y-90934086D01*
X149823295Y-90934335D01*
X149815686Y-90936545D01*
X149815682Y-90936546D01*
X149803740Y-90940015D01*
X149784397Y-90944020D01*
X149772071Y-90945577D01*
X149772058Y-90945580D01*
X149764201Y-90946573D01*
X149756831Y-90949490D01*
X149756826Y-90949492D01*
X149722941Y-90962907D01*
X149711718Y-90966750D01*
X149676714Y-90976920D01*
X149676708Y-90976922D01*
X149669107Y-90979131D01*
X149662291Y-90983161D01*
X149662281Y-90983166D01*
X149651582Y-90989493D01*
X149633844Y-90998183D01*
X149622290Y-91002758D01*
X149622279Y-91002763D01*
X149614912Y-91005681D01*
X149608497Y-91010340D01*
X149608496Y-91010342D01*
X149579013Y-91031762D01*
X149569097Y-91038276D01*
X149557649Y-91045047D01*
X149530902Y-91060866D01*
X149525306Y-91066460D01*
X149525299Y-91066467D01*
X149516508Y-91075258D01*
X149501486Y-91088088D01*
X149491421Y-91095401D01*
X149491415Y-91095406D01*
X149485013Y-91100058D01*
X149479969Y-91106153D01*
X149479959Y-91106164D01*
X149456716Y-91134259D01*
X149448730Y-91143035D01*
X147103795Y-93487972D01*
X147053636Y-93518710D01*
X146994989Y-93523326D01*
X146940639Y-93500813D01*
X146902433Y-93456080D01*
X146888700Y-93398877D01*
X146888700Y-84136387D01*
X146889179Y-84125406D01*
X146889241Y-84124686D01*
X146892524Y-84087171D01*
X146888994Y-84074000D01*
X147268715Y-84074000D01*
X147269793Y-84082188D01*
X147286693Y-84210565D01*
X147286694Y-84210571D01*
X147287772Y-84218754D01*
X147290931Y-84226382D01*
X147290932Y-84226383D01*
X147340484Y-84346013D01*
X147340485Y-84346016D01*
X147343645Y-84353643D01*
X147348671Y-84360194D01*
X147348673Y-84360196D01*
X147403728Y-84431944D01*
X147432526Y-84469474D01*
X147439076Y-84474500D01*
X147533720Y-84547124D01*
X147548357Y-84558355D01*
X147683246Y-84614228D01*
X147828000Y-84633285D01*
X147972754Y-84614228D01*
X148107643Y-84558355D01*
X148223474Y-84469474D01*
X148312355Y-84353643D01*
X148368228Y-84218754D01*
X148387285Y-84074000D01*
X148368228Y-83929246D01*
X148364759Y-83920872D01*
X148333891Y-83846351D01*
X148312355Y-83794358D01*
X148223474Y-83678526D01*
X148107643Y-83589645D01*
X148100016Y-83586485D01*
X148100013Y-83586484D01*
X147980383Y-83536932D01*
X147980382Y-83536931D01*
X147972754Y-83533772D01*
X147964571Y-83532694D01*
X147964565Y-83532693D01*
X147836188Y-83515793D01*
X147828000Y-83514715D01*
X147819812Y-83515793D01*
X147691431Y-83532694D01*
X147691427Y-83532694D01*
X147683246Y-83533772D01*
X147675627Y-83536927D01*
X147675619Y-83536930D01*
X147555986Y-83586485D01*
X147555983Y-83586486D01*
X147548358Y-83589645D01*
X147541810Y-83594668D01*
X147541807Y-83594671D01*
X147439071Y-83673503D01*
X147439067Y-83673506D01*
X147432526Y-83678526D01*
X147427506Y-83685067D01*
X147427503Y-83685071D01*
X147348671Y-83787807D01*
X147348668Y-83787810D01*
X147343645Y-83794358D01*
X147340486Y-83801983D01*
X147340485Y-83801986D01*
X147290930Y-83921619D01*
X147290927Y-83921627D01*
X147287772Y-83929246D01*
X147286694Y-83937427D01*
X147286694Y-83937431D01*
X147272560Y-84044796D01*
X147268715Y-84074000D01*
X146888994Y-84074000D01*
X146882590Y-84050101D01*
X146880213Y-84039374D01*
X146875465Y-84012443D01*
X146875464Y-84012442D01*
X146873551Y-84001587D01*
X146868038Y-83992040D01*
X146866773Y-83988562D01*
X146865194Y-83985177D01*
X146862340Y-83974522D01*
X146840327Y-83943084D01*
X146834422Y-83933815D01*
X146820749Y-83910133D01*
X146815239Y-83900589D01*
X146785833Y-83875914D01*
X146777730Y-83868488D01*
X145205242Y-82296000D01*
X150824715Y-82296000D01*
X150825793Y-82304188D01*
X150842693Y-82432565D01*
X150842694Y-82432571D01*
X150843772Y-82440754D01*
X150846931Y-82448382D01*
X150846932Y-82448383D01*
X150896484Y-82568013D01*
X150896485Y-82568016D01*
X150899645Y-82575643D01*
X150904671Y-82582194D01*
X150904673Y-82582196D01*
X150963597Y-82658986D01*
X150988526Y-82691474D01*
X151104357Y-82780355D01*
X151239246Y-82836228D01*
X151384000Y-82855285D01*
X151528754Y-82836228D01*
X151582197Y-82814090D01*
X151630415Y-82804500D01*
X152264182Y-82804500D01*
X152312400Y-82814091D01*
X152353274Y-82841402D01*
X153310354Y-83798482D01*
X153340465Y-83846761D01*
X153346264Y-83903367D01*
X153326570Y-83956752D01*
X153285397Y-83996028D01*
X153157229Y-84071826D01*
X153157220Y-84071832D01*
X153150402Y-84075865D01*
X153144801Y-84081465D01*
X153144797Y-84081469D01*
X152959012Y-84267253D01*
X152950689Y-84274825D01*
X152944197Y-84278947D01*
X152938775Y-84284719D01*
X152938772Y-84284723D01*
X152897427Y-84328750D01*
X152894679Y-84331586D01*
X152877658Y-84348607D01*
X152877644Y-84348622D01*
X152874861Y-84351406D01*
X152872443Y-84354522D01*
X152872434Y-84354533D01*
X152872357Y-84354633D01*
X152864656Y-84363649D01*
X152839706Y-84390218D01*
X152839703Y-84390222D01*
X152834283Y-84395994D01*
X152830470Y-84402928D01*
X152830463Y-84402939D01*
X152824473Y-84413835D01*
X152813627Y-84430347D01*
X152806007Y-84440170D01*
X152806003Y-84440175D01*
X152801150Y-84446433D01*
X152798005Y-84453698D01*
X152797999Y-84453710D01*
X152783523Y-84487163D01*
X152778303Y-84497818D01*
X152760752Y-84529744D01*
X152760748Y-84529752D01*
X152756931Y-84536697D01*
X152754960Y-84544370D01*
X152754959Y-84544375D01*
X152751870Y-84556408D01*
X152745468Y-84575106D01*
X152740531Y-84586515D01*
X152740529Y-84586521D01*
X152737383Y-84593792D01*
X152736143Y-84601614D01*
X152736141Y-84601625D01*
X152730440Y-84637619D01*
X152728034Y-84649239D01*
X152718971Y-84684536D01*
X152718969Y-84684546D01*
X152717000Y-84692218D01*
X152717000Y-84700147D01*
X152717000Y-84712565D01*
X152715449Y-84732276D01*
X152713504Y-84744550D01*
X152713503Y-84744558D01*
X152712265Y-84752379D01*
X152713010Y-84760262D01*
X152713010Y-84760270D01*
X152716441Y-84796556D01*
X152717000Y-84808414D01*
X152717000Y-87949577D01*
X152707409Y-87997795D01*
X152680095Y-88038672D01*
X151480667Y-89238099D01*
X151480659Y-89238107D01*
X151477861Y-89240906D01*
X151475442Y-89244024D01*
X151475431Y-89244037D01*
X151409008Y-89329669D01*
X151409005Y-89329673D01*
X151404150Y-89335933D01*
X151401004Y-89343202D01*
X151401001Y-89343208D01*
X151343530Y-89476018D01*
X151343528Y-89476022D01*
X151340383Y-89483292D01*
X151339144Y-89491112D01*
X151339143Y-89491117D01*
X151316504Y-89634050D01*
X151316503Y-89634057D01*
X151315265Y-89641879D01*
X151316010Y-89649762D01*
X151316010Y-89649770D01*
X151329630Y-89793843D01*
X151330376Y-89801732D01*
X151384765Y-89952804D01*
X151475015Y-90085604D01*
X151595457Y-90191787D01*
X151738521Y-90264682D01*
X151895219Y-90299708D01*
X152055705Y-90294665D01*
X152209893Y-90249869D01*
X152348098Y-90168134D01*
X153745999Y-88770231D01*
X153754299Y-88762679D01*
X153760803Y-88758553D01*
X153807618Y-88708698D01*
X153810310Y-88705920D01*
X153830138Y-88686094D01*
X153832626Y-88682885D01*
X153840329Y-88673865D01*
X153870717Y-88641506D01*
X153880525Y-88623663D01*
X153891368Y-88607155D01*
X153903849Y-88591067D01*
X153921476Y-88550330D01*
X153926682Y-88539704D01*
X153948069Y-88500803D01*
X153953130Y-88481087D01*
X153959531Y-88462391D01*
X153967617Y-88443708D01*
X153974557Y-88399883D01*
X153976962Y-88388265D01*
X153988000Y-88345282D01*
X153988000Y-88324935D01*
X153989551Y-88305224D01*
X153991495Y-88292949D01*
X153992735Y-88285121D01*
X153988559Y-88240944D01*
X153988000Y-88229086D01*
X153988000Y-85087351D01*
X153996134Y-85042812D01*
X154019151Y-85004581D01*
X154020639Y-85003094D01*
X154094350Y-84908067D01*
X154119058Y-84850967D01*
X154155913Y-84802677D01*
X154211083Y-84777243D01*
X154271743Y-84780581D01*
X154323789Y-84811916D01*
X155080638Y-85568765D01*
X155105600Y-85604315D01*
X155117005Y-85646230D01*
X155117690Y-85653622D01*
X155119655Y-85674821D01*
X155121249Y-85680424D01*
X155121250Y-85680428D01*
X155159288Y-85814120D01*
X155175672Y-85871701D01*
X155266912Y-86054935D01*
X155270421Y-86059582D01*
X155270422Y-86059583D01*
X155386755Y-86213634D01*
X155386759Y-86213638D01*
X155390268Y-86218285D01*
X155394570Y-86222207D01*
X155394573Y-86222210D01*
X155448259Y-86271151D01*
X155541538Y-86356186D01*
X155715573Y-86463944D01*
X155906444Y-86537888D01*
X156107653Y-86575500D01*
X156306519Y-86575500D01*
X156312347Y-86575500D01*
X156513556Y-86537888D01*
X156704427Y-86463944D01*
X156878462Y-86356186D01*
X157029732Y-86218285D01*
X157153088Y-86054935D01*
X157244328Y-85871701D01*
X157300345Y-85674821D01*
X157319232Y-85471000D01*
X157308385Y-85353946D01*
X157300883Y-85272984D01*
X157300882Y-85272983D01*
X157300345Y-85267179D01*
X157244328Y-85070299D01*
X157153088Y-84887065D01*
X157072675Y-84780581D01*
X157033244Y-84728365D01*
X157033241Y-84728361D01*
X157029732Y-84723715D01*
X157025429Y-84719792D01*
X157025426Y-84719789D01*
X156882764Y-84589736D01*
X156882765Y-84589736D01*
X156878462Y-84585814D01*
X156873512Y-84582749D01*
X156873508Y-84582746D01*
X156709387Y-84481127D01*
X156709386Y-84481126D01*
X156704427Y-84478056D01*
X156680898Y-84468941D01*
X156518989Y-84406216D01*
X156518981Y-84406213D01*
X156513556Y-84404112D01*
X156507839Y-84403043D01*
X156507831Y-84403041D01*
X156318073Y-84367570D01*
X156318069Y-84367569D01*
X156312347Y-84366500D01*
X156107653Y-84366500D01*
X156101931Y-84367569D01*
X156101926Y-84367570D01*
X155912168Y-84403041D01*
X155912157Y-84403043D01*
X155906444Y-84404112D01*
X155901021Y-84406212D01*
X155901010Y-84406216D01*
X155721011Y-84475949D01*
X155721008Y-84475950D01*
X155715573Y-84478056D01*
X155674023Y-84503783D01*
X155622935Y-84535415D01*
X155570161Y-84553556D01*
X155514728Y-84547124D01*
X155467510Y-84517382D01*
X153881128Y-82931000D01*
X155100768Y-82931000D01*
X155101306Y-82936806D01*
X155119116Y-83129015D01*
X155119117Y-83129025D01*
X155119655Y-83134821D01*
X155121249Y-83140426D01*
X155121250Y-83140427D01*
X155147969Y-83234337D01*
X155175672Y-83331701D01*
X155266912Y-83514935D01*
X155270421Y-83519582D01*
X155270422Y-83519583D01*
X155386755Y-83673634D01*
X155386759Y-83673638D01*
X155390268Y-83678285D01*
X155394570Y-83682207D01*
X155394573Y-83682210D01*
X155441727Y-83725196D01*
X155541538Y-83816186D01*
X155546489Y-83819251D01*
X155546491Y-83819253D01*
X155579516Y-83839701D01*
X155715573Y-83923944D01*
X155906444Y-83997888D01*
X156107653Y-84035500D01*
X156306519Y-84035500D01*
X156312347Y-84035500D01*
X156513556Y-83997888D01*
X156704427Y-83923944D01*
X156878462Y-83816186D01*
X157029732Y-83678285D01*
X157153088Y-83514935D01*
X157244328Y-83331701D01*
X157300345Y-83134821D01*
X157319232Y-82931000D01*
X157300345Y-82727179D01*
X157244328Y-82530299D01*
X157153088Y-82347065D01*
X157042933Y-82201196D01*
X157033244Y-82188365D01*
X157033241Y-82188361D01*
X157029732Y-82183715D01*
X157025429Y-82179792D01*
X157025426Y-82179789D01*
X156893753Y-82059754D01*
X156878462Y-82045814D01*
X156873512Y-82042749D01*
X156873508Y-82042746D01*
X156709387Y-81941127D01*
X156709386Y-81941126D01*
X156704427Y-81938056D01*
X156667109Y-81923599D01*
X156518989Y-81866216D01*
X156518981Y-81866213D01*
X156513556Y-81864112D01*
X156507839Y-81863043D01*
X156507831Y-81863041D01*
X156318073Y-81827570D01*
X156318069Y-81827569D01*
X156312347Y-81826500D01*
X156107653Y-81826500D01*
X156101931Y-81827569D01*
X156101926Y-81827570D01*
X155912168Y-81863041D01*
X155912157Y-81863043D01*
X155906444Y-81864112D01*
X155901021Y-81866212D01*
X155901010Y-81866216D01*
X155721011Y-81935949D01*
X155721008Y-81935950D01*
X155715573Y-81938056D01*
X155710617Y-81941124D01*
X155710612Y-81941127D01*
X155546491Y-82042746D01*
X155546481Y-82042752D01*
X155541538Y-82045814D01*
X155537239Y-82049732D01*
X155537235Y-82049736D01*
X155394573Y-82179789D01*
X155394565Y-82179797D01*
X155390268Y-82183715D01*
X155386763Y-82188355D01*
X155386755Y-82188365D01*
X155270422Y-82342416D01*
X155270418Y-82342421D01*
X155266912Y-82347065D01*
X155264317Y-82352274D01*
X155264314Y-82352281D01*
X155216461Y-82448383D01*
X155175672Y-82530299D01*
X155174078Y-82535899D01*
X155174076Y-82535906D01*
X155130862Y-82687789D01*
X155119655Y-82727179D01*
X155119118Y-82732972D01*
X155119116Y-82732984D01*
X155104470Y-82891052D01*
X155100768Y-82931000D01*
X153881128Y-82931000D01*
X152934800Y-81984672D01*
X152926113Y-81973893D01*
X152926024Y-81973971D01*
X152920122Y-81967160D01*
X152915250Y-81959579D01*
X152877120Y-81926539D01*
X152870538Y-81920410D01*
X152864039Y-81913911D01*
X152864038Y-81913910D01*
X152860848Y-81910720D01*
X152849861Y-81902496D01*
X152842872Y-81896864D01*
X152804743Y-81863824D01*
X152796543Y-81860079D01*
X152788965Y-81855209D01*
X152789028Y-81855109D01*
X152788383Y-81854726D01*
X152788327Y-81854830D01*
X152780418Y-81850511D01*
X152773204Y-81845111D01*
X152725926Y-81827476D01*
X152717620Y-81824036D01*
X152671734Y-81803081D01*
X152662817Y-81801798D01*
X152654169Y-81799259D01*
X152654201Y-81799147D01*
X152653473Y-81798961D01*
X152653449Y-81799075D01*
X152644643Y-81797159D01*
X152636201Y-81794011D01*
X152627213Y-81793368D01*
X152585867Y-81790410D01*
X152576937Y-81789450D01*
X152567821Y-81788140D01*
X152567819Y-81788139D01*
X152563368Y-81787500D01*
X152558870Y-81787500D01*
X152549662Y-81787500D01*
X152540674Y-81787179D01*
X152499338Y-81784222D01*
X152499332Y-81784222D01*
X152490351Y-81783580D01*
X152481550Y-81785494D01*
X152472555Y-81786138D01*
X152472546Y-81786020D01*
X152458783Y-81787500D01*
X152018500Y-81787500D01*
X151955500Y-81770619D01*
X151909381Y-81724500D01*
X151892500Y-81661500D01*
X151892500Y-78748818D01*
X151902091Y-78700600D01*
X151929405Y-78659723D01*
X152440159Y-78148969D01*
X153981331Y-76607795D01*
X153992103Y-76599116D01*
X153992025Y-76599026D01*
X153998834Y-76593125D01*
X154006421Y-76588250D01*
X154039475Y-76550101D01*
X154045567Y-76543560D01*
X154055280Y-76533848D01*
X154063495Y-76522871D01*
X154069127Y-76515881D01*
X154102176Y-76477743D01*
X154105921Y-76469541D01*
X154110793Y-76461961D01*
X154110894Y-76462026D01*
X154111272Y-76461389D01*
X154111167Y-76461332D01*
X154115486Y-76453419D01*
X154120889Y-76446204D01*
X154138520Y-76398929D01*
X154141953Y-76390639D01*
X154162919Y-76344734D01*
X154164201Y-76335810D01*
X154166740Y-76327165D01*
X154166856Y-76327199D01*
X154167040Y-76326477D01*
X154166921Y-76326452D01*
X154168835Y-76317651D01*
X154171988Y-76309201D01*
X154175587Y-76258872D01*
X154176546Y-76249951D01*
X154178500Y-76236368D01*
X154178500Y-76222658D01*
X154178821Y-76213669D01*
X154181777Y-76172338D01*
X154182420Y-76163352D01*
X154180505Y-76154548D01*
X154179862Y-76145556D01*
X154179979Y-76145547D01*
X154178500Y-76131784D01*
X154178500Y-72128415D01*
X154188091Y-72080197D01*
X154210228Y-72026754D01*
X154229285Y-71882000D01*
X154210228Y-71737246D01*
X154204615Y-71723696D01*
X154193805Y-71697600D01*
X154154355Y-71602358D01*
X154065474Y-71486526D01*
X153949643Y-71397645D01*
X153942016Y-71394485D01*
X153942013Y-71394484D01*
X153822383Y-71344932D01*
X153822382Y-71344931D01*
X153814754Y-71341772D01*
X153806571Y-71340694D01*
X153806565Y-71340693D01*
X153678188Y-71323793D01*
X153670000Y-71322715D01*
X153661812Y-71323793D01*
X153533431Y-71340694D01*
X153533427Y-71340694D01*
X153525246Y-71341772D01*
X153517627Y-71344927D01*
X153517619Y-71344930D01*
X153397986Y-71394485D01*
X153397983Y-71394486D01*
X153390358Y-71397645D01*
X153383810Y-71402668D01*
X153383807Y-71402671D01*
X153281071Y-71481503D01*
X153281067Y-71481506D01*
X153274526Y-71486526D01*
X153269506Y-71493067D01*
X153269503Y-71493071D01*
X153190671Y-71595807D01*
X153190668Y-71595810D01*
X153185645Y-71602358D01*
X153182486Y-71609983D01*
X153182485Y-71609986D01*
X153132930Y-71729619D01*
X153132927Y-71729627D01*
X153129772Y-71737246D01*
X153110715Y-71882000D01*
X153111793Y-71890188D01*
X153128693Y-72018565D01*
X153128694Y-72018571D01*
X153129772Y-72026754D01*
X153132931Y-72034382D01*
X153132932Y-72034383D01*
X153151909Y-72080197D01*
X153161500Y-72128415D01*
X153161500Y-75937182D01*
X153151909Y-75985400D01*
X153124595Y-76026277D01*
X151072669Y-78078201D01*
X151061891Y-78086887D01*
X151061969Y-78086977D01*
X151055157Y-78092879D01*
X151047579Y-78097750D01*
X151041680Y-78104556D01*
X151041677Y-78104560D01*
X151014543Y-78135873D01*
X151008426Y-78142444D01*
X151001901Y-78148969D01*
X151001889Y-78148982D01*
X150998720Y-78152152D01*
X150996029Y-78155746D01*
X150996026Y-78155750D01*
X150990503Y-78163128D01*
X150984866Y-78170122D01*
X150957726Y-78201444D01*
X150957721Y-78201450D01*
X150951824Y-78208257D01*
X150948081Y-78216450D01*
X150943209Y-78224033D01*
X150943110Y-78223969D01*
X150942724Y-78224620D01*
X150942827Y-78224677D01*
X150938507Y-78232585D01*
X150933111Y-78239796D01*
X150929965Y-78248227D01*
X150929962Y-78248235D01*
X150915477Y-78287071D01*
X150912037Y-78295376D01*
X150894820Y-78333076D01*
X150894818Y-78333082D01*
X150891081Y-78341266D01*
X150889799Y-78350174D01*
X150887259Y-78358828D01*
X150887147Y-78358795D01*
X150886961Y-78359527D01*
X150887074Y-78359552D01*
X150885157Y-78368361D01*
X150882011Y-78376799D01*
X150881368Y-78385780D01*
X150881368Y-78385783D01*
X150878410Y-78427133D01*
X150877450Y-78436062D01*
X150876140Y-78445176D01*
X150875500Y-78449632D01*
X150875500Y-78454131D01*
X150875500Y-78463338D01*
X150875179Y-78472326D01*
X150872222Y-78513661D01*
X150872222Y-78513666D01*
X150871580Y-78522649D01*
X150873494Y-78531450D01*
X150874138Y-78540445D01*
X150874020Y-78540453D01*
X150875500Y-78554217D01*
X150875500Y-82049584D01*
X150865909Y-82097802D01*
X150846931Y-82143617D01*
X150846929Y-82143624D01*
X150843772Y-82151246D01*
X150842694Y-82159427D01*
X150842694Y-82159431D01*
X150837196Y-82201196D01*
X150824715Y-82296000D01*
X145205242Y-82296000D01*
X141360448Y-78451206D01*
X141353022Y-78443102D01*
X141335435Y-78422143D01*
X141335432Y-78422141D01*
X141328349Y-78413699D01*
X141295119Y-78394513D01*
X141285854Y-78388611D01*
X141263442Y-78372918D01*
X141263441Y-78372917D01*
X141254416Y-78366598D01*
X141243775Y-78363746D01*
X141240397Y-78362171D01*
X141236891Y-78360895D01*
X141227351Y-78355387D01*
X141216500Y-78353473D01*
X141216493Y-78353471D01*
X141189558Y-78348722D01*
X141178831Y-78346344D01*
X141152414Y-78339266D01*
X141152409Y-78339265D01*
X141141767Y-78336414D01*
X141130791Y-78337374D01*
X141103532Y-78339759D01*
X141092551Y-78340238D01*
X141054128Y-78340238D01*
X140998400Y-78327244D01*
X140954166Y-78290943D01*
X140951195Y-78287071D01*
X140942289Y-78275464D01*
X140897082Y-78240775D01*
X140833011Y-78191611D01*
X140833009Y-78191609D01*
X140826458Y-78186583D01*
X140818831Y-78183423D01*
X140818828Y-78183422D01*
X140699198Y-78133870D01*
X140699197Y-78133869D01*
X140691569Y-78130710D01*
X140683386Y-78129632D01*
X140683380Y-78129631D01*
X140555003Y-78112731D01*
X140546815Y-78111653D01*
X140538627Y-78112731D01*
X140410246Y-78129632D01*
X140410242Y-78129632D01*
X140402061Y-78130710D01*
X140394442Y-78133865D01*
X140394434Y-78133868D01*
X140274801Y-78183423D01*
X140274798Y-78183424D01*
X140267173Y-78186583D01*
X140260625Y-78191606D01*
X140260622Y-78191609D01*
X140157886Y-78270441D01*
X140157882Y-78270444D01*
X140151341Y-78275464D01*
X140146321Y-78282005D01*
X140146318Y-78282009D01*
X140067486Y-78384745D01*
X140067483Y-78384748D01*
X140062460Y-78391296D01*
X140059301Y-78398921D01*
X140059300Y-78398924D01*
X140009745Y-78518557D01*
X140009742Y-78518565D01*
X140006587Y-78526184D01*
X140005509Y-78534365D01*
X140005509Y-78534369D01*
X140004708Y-78540453D01*
X139987530Y-78670938D01*
X123767062Y-78670938D01*
X124042095Y-78395905D01*
X124082972Y-78368591D01*
X124131190Y-78359000D01*
X126983410Y-78359000D01*
X127000000Y-78359000D01*
X127000000Y-77851000D01*
X127837715Y-77851000D01*
X127838793Y-77859188D01*
X127855693Y-77987565D01*
X127855694Y-77987571D01*
X127856772Y-77995754D01*
X127859931Y-78003382D01*
X127859932Y-78003383D01*
X127909484Y-78123013D01*
X127909485Y-78123016D01*
X127912645Y-78130643D01*
X127917671Y-78137194D01*
X127917673Y-78137196D01*
X127992169Y-78234280D01*
X128001526Y-78246474D01*
X128117357Y-78335355D01*
X128252246Y-78391228D01*
X128260433Y-78392305D01*
X128260434Y-78392306D01*
X128287772Y-78395905D01*
X128397000Y-78410285D01*
X128541754Y-78391228D01*
X128676643Y-78335355D01*
X128792474Y-78246474D01*
X128804352Y-78230993D01*
X128848585Y-78194694D01*
X128904313Y-78181700D01*
X136378051Y-78181700D01*
X136389032Y-78182179D01*
X136427267Y-78185524D01*
X136464341Y-78175589D01*
X136475036Y-78173217D01*
X136512851Y-78166551D01*
X136522408Y-78161032D01*
X136525890Y-78159765D01*
X136529254Y-78158196D01*
X136539916Y-78155340D01*
X136571359Y-78133322D01*
X136580608Y-78127429D01*
X136613849Y-78108239D01*
X136638518Y-78078838D01*
X136645932Y-78070746D01*
X137260076Y-77456604D01*
X137300954Y-77429291D01*
X137349172Y-77419700D01*
X144082169Y-77419700D01*
X144134511Y-77431086D01*
X144177394Y-77463187D01*
X144189579Y-77477250D01*
X144312589Y-77556304D01*
X144452889Y-77597500D01*
X144590102Y-77597500D01*
X144599111Y-77597500D01*
X144739411Y-77556304D01*
X144862421Y-77477250D01*
X144958176Y-77366743D01*
X145018919Y-77233734D01*
X145039729Y-77089000D01*
X145018919Y-76944266D01*
X144958176Y-76811257D01*
X144862421Y-76700750D01*
X144739411Y-76621696D01*
X144692086Y-76607800D01*
X144607755Y-76583038D01*
X144607754Y-76583037D01*
X144599111Y-76580500D01*
X144452889Y-76580500D01*
X144444246Y-76583037D01*
X144444244Y-76583038D01*
X144321235Y-76619157D01*
X144321233Y-76619157D01*
X144312589Y-76621696D01*
X144305011Y-76626566D01*
X144305009Y-76626567D01*
X144197159Y-76695878D01*
X144197156Y-76695880D01*
X144189579Y-76700750D01*
X144183681Y-76707556D01*
X144183676Y-76707561D01*
X144177393Y-76714813D01*
X144134511Y-76746914D01*
X144082169Y-76758300D01*
X143889648Y-76758300D01*
X143837305Y-76746913D01*
X143794423Y-76714812D01*
X143768752Y-76667797D01*
X143764931Y-76614367D01*
X143765876Y-76607800D01*
X143769729Y-76581000D01*
X143748919Y-76436266D01*
X143688176Y-76303257D01*
X143592421Y-76192750D01*
X143474023Y-76116660D01*
X146316393Y-76116660D01*
X146346668Y-76288354D01*
X146349572Y-76295088D01*
X146349574Y-76295092D01*
X146379028Y-76363373D01*
X146415721Y-76448438D01*
X146420103Y-76454324D01*
X146420106Y-76454329D01*
X146465915Y-76515860D01*
X146519832Y-76588283D01*
X146653386Y-76700349D01*
X146809185Y-76778594D01*
X146978829Y-76818800D01*
X147105767Y-76818800D01*
X147109436Y-76818800D01*
X147239164Y-76803637D01*
X147402993Y-76744008D01*
X147548654Y-76648205D01*
X147668296Y-76521393D01*
X147755467Y-76370407D01*
X147805469Y-76203388D01*
X147805666Y-76200000D01*
X150951715Y-76200000D01*
X150952793Y-76208188D01*
X150969693Y-76336565D01*
X150969694Y-76336571D01*
X150970772Y-76344754D01*
X150973931Y-76352382D01*
X150973932Y-76352383D01*
X151023484Y-76472013D01*
X151023485Y-76472016D01*
X151026645Y-76479643D01*
X151031671Y-76486194D01*
X151031673Y-76486196D01*
X151104756Y-76581439D01*
X151115526Y-76595474D01*
X151231357Y-76684355D01*
X151366246Y-76740228D01*
X151511000Y-76759285D01*
X151655754Y-76740228D01*
X151790643Y-76684355D01*
X151906474Y-76595474D01*
X151995355Y-76479643D01*
X152051228Y-76344754D01*
X152070285Y-76200000D01*
X152051228Y-76055246D01*
X152043531Y-76036665D01*
X152023942Y-75989372D01*
X151995355Y-75920358D01*
X151906474Y-75804526D01*
X151806755Y-75728008D01*
X151797196Y-75720673D01*
X151797194Y-75720671D01*
X151790643Y-75715645D01*
X151783016Y-75712485D01*
X151783013Y-75712484D01*
X151663383Y-75662932D01*
X151663382Y-75662931D01*
X151655754Y-75659772D01*
X151647571Y-75658694D01*
X151647565Y-75658693D01*
X151519188Y-75641793D01*
X151511000Y-75640715D01*
X151502812Y-75641793D01*
X151374431Y-75658694D01*
X151374427Y-75658694D01*
X151366246Y-75659772D01*
X151358627Y-75662927D01*
X151358619Y-75662930D01*
X151238986Y-75712485D01*
X151238983Y-75712486D01*
X151231358Y-75715645D01*
X151224810Y-75720668D01*
X151224807Y-75720671D01*
X151122071Y-75799503D01*
X151122067Y-75799506D01*
X151115526Y-75804526D01*
X151110506Y-75811067D01*
X151110503Y-75811071D01*
X151031671Y-75913807D01*
X151031668Y-75913810D01*
X151026645Y-75920358D01*
X151023486Y-75927983D01*
X151023485Y-75927986D01*
X150973930Y-76047619D01*
X150973927Y-76047627D01*
X150970772Y-76055246D01*
X150969694Y-76063427D01*
X150969694Y-76063431D01*
X150956540Y-76163352D01*
X150951715Y-76200000D01*
X147805666Y-76200000D01*
X147815607Y-76029340D01*
X147785332Y-75857646D01*
X147716279Y-75697562D01*
X147708892Y-75687640D01*
X147661966Y-75624607D01*
X147612168Y-75557717D01*
X147478614Y-75445651D01*
X147322815Y-75367406D01*
X147289876Y-75359599D01*
X147160309Y-75328891D01*
X147160302Y-75328890D01*
X147153171Y-75327200D01*
X147022564Y-75327200D01*
X147018936Y-75327623D01*
X147018919Y-75327625D01*
X146900120Y-75341511D01*
X146900114Y-75341512D01*
X146892836Y-75342363D01*
X146885949Y-75344869D01*
X146885943Y-75344871D01*
X146735903Y-75399481D01*
X146735895Y-75399484D01*
X146729007Y-75401992D01*
X146722875Y-75406024D01*
X146722873Y-75406026D01*
X146589481Y-75493759D01*
X146589475Y-75493763D01*
X146583346Y-75497795D01*
X146578312Y-75503130D01*
X146578308Y-75503134D01*
X146468742Y-75619266D01*
X146468738Y-75619271D01*
X146463704Y-75624607D01*
X146460032Y-75630966D01*
X146460032Y-75630967D01*
X146384038Y-75762594D01*
X146376533Y-75775593D01*
X146374428Y-75782622D01*
X146374427Y-75782626D01*
X146328635Y-75935581D01*
X146328633Y-75935588D01*
X146326531Y-75942612D01*
X146316393Y-76116660D01*
X143474023Y-76116660D01*
X143469411Y-76113696D01*
X143329111Y-76072500D01*
X143182889Y-76072500D01*
X143174246Y-76075037D01*
X143174244Y-76075038D01*
X143051235Y-76111157D01*
X143051233Y-76111157D01*
X143042589Y-76113696D01*
X143035011Y-76118566D01*
X143035009Y-76118567D01*
X142927159Y-76187878D01*
X142927156Y-76187880D01*
X142919579Y-76192750D01*
X142913681Y-76199555D01*
X142913678Y-76199559D01*
X142829726Y-76296445D01*
X142829724Y-76296447D01*
X142823824Y-76303257D01*
X142820081Y-76311450D01*
X142820080Y-76311454D01*
X142766824Y-76428067D01*
X142766821Y-76428075D01*
X142763081Y-76436266D01*
X142742271Y-76581000D01*
X142746124Y-76607800D01*
X142747069Y-76614367D01*
X142743248Y-76667797D01*
X142717577Y-76714812D01*
X142674695Y-76746913D01*
X142622352Y-76758300D01*
X137179949Y-76758300D01*
X137168968Y-76757821D01*
X137141709Y-76755436D01*
X137141707Y-76755436D01*
X137130733Y-76754476D01*
X137120093Y-76757326D01*
X137120090Y-76757327D01*
X137093671Y-76764406D01*
X137082946Y-76766783D01*
X137056005Y-76771534D01*
X137056000Y-76771535D01*
X137045149Y-76773449D01*
X137035609Y-76778955D01*
X137032114Y-76780228D01*
X137028725Y-76781808D01*
X137018084Y-76784660D01*
X137009058Y-76790979D01*
X137009055Y-76790981D01*
X136986640Y-76806676D01*
X136977382Y-76812573D01*
X136970755Y-76816399D01*
X136953696Y-76826249D01*
X136953692Y-76826251D01*
X136944151Y-76831761D01*
X136937067Y-76840202D01*
X136937062Y-76840207D01*
X136919485Y-76861154D01*
X136912063Y-76869254D01*
X136297925Y-77483395D01*
X136257047Y-77510709D01*
X136208829Y-77520300D01*
X128904313Y-77520300D01*
X128848585Y-77507306D01*
X128804351Y-77471005D01*
X128792474Y-77455526D01*
X128785923Y-77450499D01*
X128683196Y-77371673D01*
X128683194Y-77371671D01*
X128676643Y-77366645D01*
X128669016Y-77363485D01*
X128669013Y-77363484D01*
X128549383Y-77313932D01*
X128549382Y-77313931D01*
X128541754Y-77310772D01*
X128533571Y-77309694D01*
X128533565Y-77309693D01*
X128405188Y-77292793D01*
X128397000Y-77291715D01*
X128388812Y-77292793D01*
X128260431Y-77309694D01*
X128260427Y-77309694D01*
X128252246Y-77310772D01*
X128244627Y-77313927D01*
X128244619Y-77313930D01*
X128124986Y-77363485D01*
X128124983Y-77363486D01*
X128117358Y-77366645D01*
X128110810Y-77371668D01*
X128110807Y-77371671D01*
X128008071Y-77450503D01*
X128008067Y-77450506D01*
X128001526Y-77455526D01*
X127996506Y-77462067D01*
X127996503Y-77462071D01*
X127917671Y-77564807D01*
X127917668Y-77564810D01*
X127912645Y-77571358D01*
X127909486Y-77578983D01*
X127909485Y-77578986D01*
X127859930Y-77698619D01*
X127859927Y-77698627D01*
X127856772Y-77706246D01*
X127837715Y-77851000D01*
X127000000Y-77851000D01*
X127000000Y-76580000D01*
X127016881Y-76517000D01*
X127063000Y-76470881D01*
X127126000Y-76454000D01*
X131428410Y-76454000D01*
X131445000Y-76454000D01*
X131445000Y-75819000D01*
X131318000Y-75819000D01*
X131318000Y-75835590D01*
X131318000Y-76201000D01*
X131301119Y-76264000D01*
X131255000Y-76310119D01*
X131192000Y-76327000D01*
X126873000Y-76327000D01*
X126873000Y-76343590D01*
X126873000Y-78106000D01*
X126856119Y-78169000D01*
X126810000Y-78215119D01*
X126747000Y-78232000D01*
X123952000Y-78232000D01*
X123943227Y-78240772D01*
X123943224Y-78240775D01*
X123353905Y-78830095D01*
X123313028Y-78857409D01*
X123264810Y-78867000D01*
X119252000Y-78867000D01*
X119189000Y-78850119D01*
X119142881Y-78804000D01*
X119126000Y-78741000D01*
X119126000Y-72579500D01*
X119142881Y-72516500D01*
X119189000Y-72470381D01*
X119252000Y-72453500D01*
X123656000Y-72453500D01*
X123695845Y-72459966D01*
X123731600Y-72478700D01*
X124317978Y-72918484D01*
X124460000Y-73025000D01*
X126747000Y-73025000D01*
X126810000Y-73041881D01*
X126856119Y-73088000D01*
X126873000Y-73151000D01*
X126873000Y-75184000D01*
X129019980Y-75184000D01*
X129032000Y-75184000D01*
X129644469Y-74939012D01*
X129691265Y-74930000D01*
X131192000Y-74930000D01*
X131255000Y-74946881D01*
X131301119Y-74993000D01*
X131318000Y-75056000D01*
X131318000Y-75438000D01*
X131428410Y-75438000D01*
X131445000Y-75438000D01*
X131445000Y-75100660D01*
X141236393Y-75100660D01*
X141266668Y-75272354D01*
X141269572Y-75279088D01*
X141269574Y-75279092D01*
X141299028Y-75347373D01*
X141335721Y-75432438D01*
X141340103Y-75438324D01*
X141340106Y-75438329D01*
X141388352Y-75503134D01*
X141439832Y-75572283D01*
X141573386Y-75684349D01*
X141729185Y-75762594D01*
X141898829Y-75802800D01*
X142025767Y-75802800D01*
X142029436Y-75802800D01*
X142159164Y-75787637D01*
X142322993Y-75728008D01*
X142468654Y-75632205D01*
X142588296Y-75505393D01*
X142675467Y-75354407D01*
X142725469Y-75187388D01*
X142735607Y-75013340D01*
X142705332Y-74841646D01*
X142636279Y-74681562D01*
X142628892Y-74671640D01*
X142581966Y-74608607D01*
X142532168Y-74541717D01*
X142398614Y-74429651D01*
X142242815Y-74351406D01*
X142209876Y-74343599D01*
X142080309Y-74312891D01*
X142080302Y-74312890D01*
X142073171Y-74311200D01*
X141942564Y-74311200D01*
X141938936Y-74311623D01*
X141938919Y-74311625D01*
X141820120Y-74325511D01*
X141820114Y-74325512D01*
X141812836Y-74326363D01*
X141805949Y-74328869D01*
X141805943Y-74328871D01*
X141655903Y-74383481D01*
X141655895Y-74383484D01*
X141649007Y-74385992D01*
X141642875Y-74390024D01*
X141642873Y-74390026D01*
X141509481Y-74477759D01*
X141509475Y-74477763D01*
X141503346Y-74481795D01*
X141498312Y-74487130D01*
X141498308Y-74487134D01*
X141388742Y-74603266D01*
X141388738Y-74603271D01*
X141383704Y-74608607D01*
X141380032Y-74614966D01*
X141380032Y-74614967D01*
X141304038Y-74746594D01*
X141296533Y-74759593D01*
X141294428Y-74766622D01*
X141294427Y-74766626D01*
X141248635Y-74919581D01*
X141248633Y-74919588D01*
X141246531Y-74926612D01*
X141246104Y-74933935D01*
X141246104Y-74933938D01*
X141245350Y-74946881D01*
X141236393Y-75100660D01*
X131445000Y-75100660D01*
X131445000Y-74803000D01*
X131318000Y-74803000D01*
X129667000Y-74803000D01*
X129655840Y-74807463D01*
X129655839Y-74807464D01*
X129054530Y-75047988D01*
X129007735Y-75057000D01*
X127126000Y-75057000D01*
X127063000Y-75040119D01*
X127016881Y-74994000D01*
X127000000Y-74931000D01*
X127000000Y-74084660D01*
X146316393Y-74084660D01*
X146346668Y-74256354D01*
X146349572Y-74263088D01*
X146349574Y-74263092D01*
X146379028Y-74331373D01*
X146415721Y-74416438D01*
X146420103Y-74422324D01*
X146420106Y-74422329D01*
X146468352Y-74487134D01*
X146519832Y-74556283D01*
X146653386Y-74668349D01*
X146809185Y-74746594D01*
X146978829Y-74786800D01*
X147105767Y-74786800D01*
X147109436Y-74786800D01*
X147239164Y-74771637D01*
X147402993Y-74712008D01*
X147548654Y-74616205D01*
X147668296Y-74489393D01*
X147755467Y-74338407D01*
X147805469Y-74171388D01*
X147815607Y-73997340D01*
X147785332Y-73825646D01*
X147716279Y-73665562D01*
X147612168Y-73525717D01*
X147478614Y-73413651D01*
X147322815Y-73335406D01*
X147289876Y-73327599D01*
X147160309Y-73296891D01*
X147160302Y-73296890D01*
X147153171Y-73295200D01*
X147022564Y-73295200D01*
X147018936Y-73295623D01*
X147018919Y-73295625D01*
X146900120Y-73309511D01*
X146900114Y-73309512D01*
X146892836Y-73310363D01*
X146885949Y-73312869D01*
X146885943Y-73312871D01*
X146735903Y-73367481D01*
X146735895Y-73367484D01*
X146729007Y-73369992D01*
X146722875Y-73374024D01*
X146722873Y-73374026D01*
X146589481Y-73461759D01*
X146589475Y-73461763D01*
X146583346Y-73465795D01*
X146578312Y-73471130D01*
X146578308Y-73471134D01*
X146468742Y-73587266D01*
X146468738Y-73587271D01*
X146463704Y-73592607D01*
X146460032Y-73598966D01*
X146460032Y-73598967D01*
X146406207Y-73692196D01*
X146376533Y-73743593D01*
X146374428Y-73750622D01*
X146374427Y-73750626D01*
X146328635Y-73903581D01*
X146328633Y-73903588D01*
X146326531Y-73910612D01*
X146326104Y-73917935D01*
X146326104Y-73917938D01*
X146323409Y-73964207D01*
X146316393Y-74084660D01*
X127000000Y-74084660D01*
X127000000Y-72914590D01*
X127000000Y-72898000D01*
X126983410Y-72898000D01*
X124629000Y-72898000D01*
X124589155Y-72891534D01*
X124553400Y-72872800D01*
X123833126Y-72332594D01*
X123833123Y-72332592D01*
X123825000Y-72326500D01*
X119126000Y-72326500D01*
X118999000Y-72326500D01*
X118075500Y-72326500D01*
X118075500Y-71437500D01*
X131012715Y-71437500D01*
X131013793Y-71445688D01*
X131030693Y-71574065D01*
X131030694Y-71574071D01*
X131031772Y-71582254D01*
X131034931Y-71589882D01*
X131034932Y-71589883D01*
X131084484Y-71709513D01*
X131084485Y-71709516D01*
X131087645Y-71717143D01*
X131092671Y-71723694D01*
X131092673Y-71723696D01*
X131109351Y-71745431D01*
X131176526Y-71832974D01*
X131292357Y-71921855D01*
X131427246Y-71977728D01*
X131572000Y-71996785D01*
X131716754Y-71977728D01*
X131851643Y-71921855D01*
X131967474Y-71832974D01*
X132056355Y-71717143D01*
X132112228Y-71582254D01*
X132131285Y-71437500D01*
X132133401Y-71437778D01*
X132147088Y-71386700D01*
X132193207Y-71340581D01*
X132256207Y-71323700D01*
X148908830Y-71323700D01*
X148957048Y-71333291D01*
X148997925Y-71360605D01*
X150918434Y-73281114D01*
X150948651Y-73329705D01*
X150954262Y-73386649D01*
X150951715Y-73406000D01*
X150952793Y-73414188D01*
X150969693Y-73542565D01*
X150969694Y-73542571D01*
X150970772Y-73550754D01*
X150973931Y-73558382D01*
X150973932Y-73558383D01*
X151023484Y-73678013D01*
X151023485Y-73678016D01*
X151026645Y-73685643D01*
X151031671Y-73692194D01*
X151031673Y-73692196D01*
X151110499Y-73794923D01*
X151115526Y-73801474D01*
X151231357Y-73890355D01*
X151366246Y-73946228D01*
X151511000Y-73965285D01*
X151655754Y-73946228D01*
X151790643Y-73890355D01*
X151906474Y-73801474D01*
X151995355Y-73685643D01*
X152051228Y-73550754D01*
X152070285Y-73406000D01*
X152051228Y-73261246D01*
X151995355Y-73126358D01*
X151906474Y-73010526D01*
X151790643Y-72921645D01*
X151783016Y-72918485D01*
X151783013Y-72918484D01*
X151663383Y-72868932D01*
X151663382Y-72868931D01*
X151655754Y-72865772D01*
X151647571Y-72864694D01*
X151647565Y-72864693D01*
X151519188Y-72847793D01*
X151511000Y-72846715D01*
X151502811Y-72847793D01*
X151491649Y-72849262D01*
X151434705Y-72843651D01*
X151386114Y-72813434D01*
X149345948Y-70773268D01*
X149338522Y-70765164D01*
X149320935Y-70744205D01*
X149320932Y-70744203D01*
X149313849Y-70735761D01*
X149280619Y-70716575D01*
X149271354Y-70710673D01*
X149248942Y-70694980D01*
X149248941Y-70694979D01*
X149239916Y-70688660D01*
X149229275Y-70685808D01*
X149225897Y-70684233D01*
X149222391Y-70682957D01*
X149212851Y-70677449D01*
X149202000Y-70675535D01*
X149201993Y-70675533D01*
X149175058Y-70670784D01*
X149164331Y-70668406D01*
X149137914Y-70661328D01*
X149137909Y-70661327D01*
X149127267Y-70658476D01*
X149116291Y-70659436D01*
X149089032Y-70661821D01*
X149078051Y-70662300D01*
X132036449Y-70662300D01*
X132025468Y-70661821D01*
X131998209Y-70659436D01*
X131998207Y-70659436D01*
X131987233Y-70658476D01*
X131976593Y-70661326D01*
X131976590Y-70661327D01*
X131950171Y-70668406D01*
X131939446Y-70670783D01*
X131912505Y-70675534D01*
X131912500Y-70675535D01*
X131901649Y-70677449D01*
X131892109Y-70682956D01*
X131888609Y-70684230D01*
X131885224Y-70685808D01*
X131874584Y-70688660D01*
X131865557Y-70694980D01*
X131865556Y-70694981D01*
X131843149Y-70710670D01*
X131833887Y-70716570D01*
X131810199Y-70730247D01*
X131810194Y-70730250D01*
X131800651Y-70735761D01*
X131793567Y-70744202D01*
X131793562Y-70744207D01*
X131775975Y-70765166D01*
X131768552Y-70773266D01*
X131696884Y-70844934D01*
X131648292Y-70875151D01*
X131591347Y-70880761D01*
X131572000Y-70878215D01*
X131563812Y-70879293D01*
X131435431Y-70896194D01*
X131435427Y-70896194D01*
X131427246Y-70897272D01*
X131419627Y-70900427D01*
X131419619Y-70900430D01*
X131299986Y-70949985D01*
X131299983Y-70949986D01*
X131292358Y-70953145D01*
X131285810Y-70958168D01*
X131285807Y-70958171D01*
X131183071Y-71037003D01*
X131183067Y-71037006D01*
X131176526Y-71042026D01*
X131171506Y-71048567D01*
X131171503Y-71048571D01*
X131092671Y-71151307D01*
X131092668Y-71151310D01*
X131087645Y-71157858D01*
X131084486Y-71165483D01*
X131084485Y-71165486D01*
X131034930Y-71285119D01*
X131034927Y-71285127D01*
X131031772Y-71292746D01*
X131030694Y-71300927D01*
X131030694Y-71300931D01*
X131023372Y-71356551D01*
X131012715Y-71437500D01*
X118075500Y-71437500D01*
X118075500Y-70612000D01*
X127456715Y-70612000D01*
X127457793Y-70620188D01*
X127474693Y-70748565D01*
X127474694Y-70748571D01*
X127475772Y-70756754D01*
X127478931Y-70764382D01*
X127478932Y-70764383D01*
X127528484Y-70884013D01*
X127528485Y-70884016D01*
X127531645Y-70891643D01*
X127536671Y-70898194D01*
X127536673Y-70898196D01*
X127582694Y-70958171D01*
X127620526Y-71007474D01*
X127736357Y-71096355D01*
X127871246Y-71152228D01*
X127879433Y-71153305D01*
X127879434Y-71153306D01*
X127943623Y-71161756D01*
X128016000Y-71171285D01*
X128160754Y-71152228D01*
X128295643Y-71096355D01*
X128411474Y-71007474D01*
X128500355Y-70891643D01*
X128556228Y-70756754D01*
X128575285Y-70612000D01*
X128556228Y-70467246D01*
X128500355Y-70332358D01*
X128411474Y-70216526D01*
X128295643Y-70127645D01*
X128288016Y-70124485D01*
X128288013Y-70124484D01*
X128168383Y-70074932D01*
X128168382Y-70074931D01*
X128160754Y-70071772D01*
X128152571Y-70070694D01*
X128152565Y-70070693D01*
X128024188Y-70053793D01*
X128016000Y-70052715D01*
X128007812Y-70053793D01*
X127879431Y-70070694D01*
X127879427Y-70070694D01*
X127871246Y-70071772D01*
X127863627Y-70074927D01*
X127863619Y-70074930D01*
X127743986Y-70124485D01*
X127743983Y-70124486D01*
X127736358Y-70127645D01*
X127729810Y-70132668D01*
X127729807Y-70132671D01*
X127627071Y-70211503D01*
X127627067Y-70211506D01*
X127620526Y-70216526D01*
X127615506Y-70223067D01*
X127615503Y-70223071D01*
X127536671Y-70325807D01*
X127536668Y-70325810D01*
X127531645Y-70332358D01*
X127528486Y-70339983D01*
X127528485Y-70339986D01*
X127478930Y-70459619D01*
X127478927Y-70459627D01*
X127475772Y-70467246D01*
X127456715Y-70612000D01*
X118075500Y-70612000D01*
X118075500Y-67340426D01*
X118094067Y-67274591D01*
X118144297Y-67228159D01*
X118211386Y-67214814D01*
X118275561Y-67238490D01*
X118317908Y-67292207D01*
X118401654Y-67494386D01*
X118403364Y-67497480D01*
X118403365Y-67497482D01*
X118565898Y-67791564D01*
X118565904Y-67791574D01*
X118567606Y-67794653D01*
X118766133Y-68074450D01*
X118994739Y-68330261D01*
X119250550Y-68558867D01*
X119530347Y-68757394D01*
X119533430Y-68759098D01*
X119533435Y-68759101D01*
X119674758Y-68837207D01*
X119830614Y-68923346D01*
X120147573Y-69054635D01*
X120477239Y-69149610D01*
X120480715Y-69150200D01*
X120480717Y-69150201D01*
X120811981Y-69206485D01*
X120811983Y-69206485D01*
X120815466Y-69207077D01*
X121158000Y-69226313D01*
X121500534Y-69207077D01*
X121838761Y-69149610D01*
X122168427Y-69054635D01*
X122485386Y-68923346D01*
X122785653Y-68757394D01*
X123065450Y-68558867D01*
X123321261Y-68330261D01*
X123549867Y-68074450D01*
X123748394Y-67794653D01*
X123914346Y-67494386D01*
X124045635Y-67177427D01*
X124140610Y-66847761D01*
X124198077Y-66509534D01*
X124217313Y-66167000D01*
X124198077Y-65824466D01*
X124190069Y-65777337D01*
X124141201Y-65489717D01*
X124141200Y-65489715D01*
X124140610Y-65486239D01*
X124045635Y-65156573D01*
X123914346Y-64839614D01*
X123875872Y-64770000D01*
X136812768Y-64770000D01*
X136813306Y-64775806D01*
X136831116Y-64968015D01*
X136831117Y-64968025D01*
X136831655Y-64973821D01*
X136887672Y-65170701D01*
X136978912Y-65353935D01*
X136982421Y-65358582D01*
X136982422Y-65358583D01*
X137098755Y-65512634D01*
X137098759Y-65512638D01*
X137102268Y-65517285D01*
X137106570Y-65521207D01*
X137106573Y-65521210D01*
X137194466Y-65601335D01*
X137253538Y-65655186D01*
X137427573Y-65762944D01*
X137618444Y-65836888D01*
X137819653Y-65874500D01*
X138018519Y-65874500D01*
X138024347Y-65874500D01*
X138225556Y-65836888D01*
X138416427Y-65762944D01*
X138590462Y-65655186D01*
X138741732Y-65517285D01*
X138865088Y-65353935D01*
X138956328Y-65170701D01*
X139012345Y-64973821D01*
X139031232Y-64770000D01*
X139352768Y-64770000D01*
X139353306Y-64775806D01*
X139371116Y-64968015D01*
X139371117Y-64968025D01*
X139371655Y-64973821D01*
X139427672Y-65170701D01*
X139518912Y-65353935D01*
X139522421Y-65358582D01*
X139522422Y-65358583D01*
X139638755Y-65512634D01*
X139638759Y-65512638D01*
X139642268Y-65517285D01*
X139646570Y-65521207D01*
X139646573Y-65521210D01*
X139734466Y-65601335D01*
X139793538Y-65655186D01*
X139967573Y-65762944D01*
X140158444Y-65836888D01*
X140359653Y-65874500D01*
X140558519Y-65874500D01*
X140564347Y-65874500D01*
X140765556Y-65836888D01*
X140956427Y-65762944D01*
X141130462Y-65655186D01*
X141281732Y-65517285D01*
X141405088Y-65353935D01*
X141496328Y-65170701D01*
X141552345Y-64973821D01*
X141571232Y-64770000D01*
X141892768Y-64770000D01*
X141893306Y-64775806D01*
X141911116Y-64968015D01*
X141911117Y-64968025D01*
X141911655Y-64973821D01*
X141967672Y-65170701D01*
X142058912Y-65353935D01*
X142062421Y-65358582D01*
X142062422Y-65358583D01*
X142178755Y-65512634D01*
X142178759Y-65512638D01*
X142182268Y-65517285D01*
X142186570Y-65521207D01*
X142186573Y-65521210D01*
X142274466Y-65601335D01*
X142333538Y-65655186D01*
X142507573Y-65762944D01*
X142698444Y-65836888D01*
X142899653Y-65874500D01*
X143098519Y-65874500D01*
X143104347Y-65874500D01*
X143305556Y-65836888D01*
X143496427Y-65762944D01*
X143670462Y-65655186D01*
X143821732Y-65517285D01*
X143945088Y-65353935D01*
X144036328Y-65170701D01*
X144092345Y-64973821D01*
X144111232Y-64770000D01*
X144432768Y-64770000D01*
X144433306Y-64775806D01*
X144451116Y-64968015D01*
X144451117Y-64968025D01*
X144451655Y-64973821D01*
X144507672Y-65170701D01*
X144598912Y-65353935D01*
X144602421Y-65358582D01*
X144602422Y-65358583D01*
X144718755Y-65512634D01*
X144718759Y-65512638D01*
X144722268Y-65517285D01*
X144726570Y-65521207D01*
X144726573Y-65521210D01*
X144814466Y-65601335D01*
X144873538Y-65655186D01*
X145047573Y-65762944D01*
X145238444Y-65836888D01*
X145439653Y-65874500D01*
X145638519Y-65874500D01*
X145644347Y-65874500D01*
X145845556Y-65836888D01*
X146036427Y-65762944D01*
X146210462Y-65655186D01*
X146361732Y-65517285D01*
X146485088Y-65353935D01*
X146576328Y-65170701D01*
X146632345Y-64973821D01*
X146651232Y-64770000D01*
X146972768Y-64770000D01*
X146973306Y-64775806D01*
X146991116Y-64968015D01*
X146991117Y-64968025D01*
X146991655Y-64973821D01*
X147047672Y-65170701D01*
X147138912Y-65353935D01*
X147142421Y-65358582D01*
X147142422Y-65358583D01*
X147258755Y-65512634D01*
X147258759Y-65512638D01*
X147262268Y-65517285D01*
X147266570Y-65521207D01*
X147266573Y-65521210D01*
X147354466Y-65601335D01*
X147413538Y-65655186D01*
X147587573Y-65762944D01*
X147778444Y-65836888D01*
X147979653Y-65874500D01*
X148178519Y-65874500D01*
X148184347Y-65874500D01*
X148385556Y-65836888D01*
X148576427Y-65762944D01*
X148750462Y-65655186D01*
X148901732Y-65517285D01*
X149025088Y-65353935D01*
X149116328Y-65170701D01*
X149172345Y-64973821D01*
X149191232Y-64770000D01*
X149512768Y-64770000D01*
X149513306Y-64775806D01*
X149531116Y-64968015D01*
X149531117Y-64968025D01*
X149531655Y-64973821D01*
X149587672Y-65170701D01*
X149678912Y-65353935D01*
X149682421Y-65358582D01*
X149682422Y-65358583D01*
X149798755Y-65512634D01*
X149798759Y-65512638D01*
X149802268Y-65517285D01*
X149806570Y-65521207D01*
X149806573Y-65521210D01*
X149894466Y-65601335D01*
X149953538Y-65655186D01*
X150127573Y-65762944D01*
X150318444Y-65836888D01*
X150519653Y-65874500D01*
X150718519Y-65874500D01*
X150724347Y-65874500D01*
X150925556Y-65836888D01*
X151116427Y-65762944D01*
X151290462Y-65655186D01*
X151441732Y-65517285D01*
X151565088Y-65353935D01*
X151656328Y-65170701D01*
X151712345Y-64973821D01*
X151731232Y-64770000D01*
X152052768Y-64770000D01*
X152053306Y-64775806D01*
X152071116Y-64968015D01*
X152071117Y-64968025D01*
X152071655Y-64973821D01*
X152127672Y-65170701D01*
X152218912Y-65353935D01*
X152222421Y-65358582D01*
X152222422Y-65358583D01*
X152338755Y-65512634D01*
X152338759Y-65512638D01*
X152342268Y-65517285D01*
X152346570Y-65521207D01*
X152346573Y-65521210D01*
X152434466Y-65601335D01*
X152493538Y-65655186D01*
X152667573Y-65762944D01*
X152858444Y-65836888D01*
X153059653Y-65874500D01*
X153258519Y-65874500D01*
X153264347Y-65874500D01*
X153465556Y-65836888D01*
X153656427Y-65762944D01*
X153830462Y-65655186D01*
X153981732Y-65517285D01*
X154105088Y-65353935D01*
X154196328Y-65170701D01*
X154252345Y-64973821D01*
X154271232Y-64770000D01*
X154592768Y-64770000D01*
X154593306Y-64775806D01*
X154611116Y-64968015D01*
X154611117Y-64968025D01*
X154611655Y-64973821D01*
X154667672Y-65170701D01*
X154758912Y-65353935D01*
X154762421Y-65358582D01*
X154762422Y-65358583D01*
X154878755Y-65512634D01*
X154878759Y-65512638D01*
X154882268Y-65517285D01*
X154886570Y-65521207D01*
X154886573Y-65521210D01*
X154974466Y-65601335D01*
X155033538Y-65655186D01*
X155207573Y-65762944D01*
X155398444Y-65836888D01*
X155599653Y-65874500D01*
X155798519Y-65874500D01*
X155804347Y-65874500D01*
X156005556Y-65836888D01*
X156196427Y-65762944D01*
X156370462Y-65655186D01*
X156521732Y-65517285D01*
X156645088Y-65353935D01*
X156736328Y-65170701D01*
X156792345Y-64973821D01*
X156811232Y-64770000D01*
X156792345Y-64566179D01*
X156736328Y-64369299D01*
X156645088Y-64186065D01*
X156562133Y-64076214D01*
X156525244Y-64027365D01*
X156525241Y-64027361D01*
X156521732Y-64022715D01*
X156517429Y-64018792D01*
X156517426Y-64018789D01*
X156374764Y-63888736D01*
X156374765Y-63888736D01*
X156370462Y-63884814D01*
X156365512Y-63881749D01*
X156365508Y-63881746D01*
X156201387Y-63780127D01*
X156201386Y-63780126D01*
X156196427Y-63777056D01*
X156172898Y-63767941D01*
X156010989Y-63705216D01*
X156010981Y-63705213D01*
X156005556Y-63703112D01*
X155999839Y-63702043D01*
X155999831Y-63702041D01*
X155810073Y-63666570D01*
X155810069Y-63666569D01*
X155804347Y-63665500D01*
X155599653Y-63665500D01*
X155593931Y-63666569D01*
X155593926Y-63666570D01*
X155404168Y-63702041D01*
X155404157Y-63702043D01*
X155398444Y-63703112D01*
X155393021Y-63705212D01*
X155393010Y-63705216D01*
X155213011Y-63774949D01*
X155213008Y-63774950D01*
X155207573Y-63777056D01*
X155202617Y-63780124D01*
X155202612Y-63780127D01*
X155038491Y-63881746D01*
X155038481Y-63881752D01*
X155033538Y-63884814D01*
X155029239Y-63888732D01*
X155029235Y-63888736D01*
X154886573Y-64018789D01*
X154886565Y-64018797D01*
X154882268Y-64022715D01*
X154878763Y-64027355D01*
X154878755Y-64027365D01*
X154762422Y-64181416D01*
X154762418Y-64181421D01*
X154758912Y-64186065D01*
X154756317Y-64191274D01*
X154756314Y-64191281D01*
X154688344Y-64327784D01*
X154667672Y-64369299D01*
X154666078Y-64374899D01*
X154666076Y-64374906D01*
X154613250Y-64560572D01*
X154611655Y-64566179D01*
X154611118Y-64571972D01*
X154611116Y-64571984D01*
X154593306Y-64764194D01*
X154592768Y-64770000D01*
X154271232Y-64770000D01*
X154252345Y-64566179D01*
X154196328Y-64369299D01*
X154105088Y-64186065D01*
X154022133Y-64076214D01*
X153985244Y-64027365D01*
X153985241Y-64027361D01*
X153981732Y-64022715D01*
X153977429Y-64018792D01*
X153977426Y-64018789D01*
X153834764Y-63888736D01*
X153834765Y-63888736D01*
X153830462Y-63884814D01*
X153825512Y-63881749D01*
X153825508Y-63881746D01*
X153661387Y-63780127D01*
X153661386Y-63780126D01*
X153656427Y-63777056D01*
X153632898Y-63767941D01*
X153470989Y-63705216D01*
X153470981Y-63705213D01*
X153465556Y-63703112D01*
X153459839Y-63702043D01*
X153459831Y-63702041D01*
X153270073Y-63666570D01*
X153270069Y-63666569D01*
X153264347Y-63665500D01*
X153059653Y-63665500D01*
X153053931Y-63666569D01*
X153053926Y-63666570D01*
X152864168Y-63702041D01*
X152864157Y-63702043D01*
X152858444Y-63703112D01*
X152853021Y-63705212D01*
X152853010Y-63705216D01*
X152673011Y-63774949D01*
X152673008Y-63774950D01*
X152667573Y-63777056D01*
X152662617Y-63780124D01*
X152662612Y-63780127D01*
X152498491Y-63881746D01*
X152498481Y-63881752D01*
X152493538Y-63884814D01*
X152489239Y-63888732D01*
X152489235Y-63888736D01*
X152346573Y-64018789D01*
X152346565Y-64018797D01*
X152342268Y-64022715D01*
X152338763Y-64027355D01*
X152338755Y-64027365D01*
X152222422Y-64181416D01*
X152222418Y-64181421D01*
X152218912Y-64186065D01*
X152216317Y-64191274D01*
X152216314Y-64191281D01*
X152148344Y-64327784D01*
X152127672Y-64369299D01*
X152126078Y-64374899D01*
X152126076Y-64374906D01*
X152073250Y-64560572D01*
X152071655Y-64566179D01*
X152071118Y-64571972D01*
X152071116Y-64571984D01*
X152053306Y-64764194D01*
X152052768Y-64770000D01*
X151731232Y-64770000D01*
X151712345Y-64566179D01*
X151656328Y-64369299D01*
X151565088Y-64186065D01*
X151482133Y-64076214D01*
X151445244Y-64027365D01*
X151445241Y-64027361D01*
X151441732Y-64022715D01*
X151437429Y-64018792D01*
X151437426Y-64018789D01*
X151294764Y-63888736D01*
X151294765Y-63888736D01*
X151290462Y-63884814D01*
X151285512Y-63881749D01*
X151285508Y-63881746D01*
X151121387Y-63780127D01*
X151121386Y-63780126D01*
X151116427Y-63777056D01*
X151092898Y-63767941D01*
X150930989Y-63705216D01*
X150930981Y-63705213D01*
X150925556Y-63703112D01*
X150919839Y-63702043D01*
X150919831Y-63702041D01*
X150730073Y-63666570D01*
X150730069Y-63666569D01*
X150724347Y-63665500D01*
X150519653Y-63665500D01*
X150513931Y-63666569D01*
X150513926Y-63666570D01*
X150324168Y-63702041D01*
X150324157Y-63702043D01*
X150318444Y-63703112D01*
X150313021Y-63705212D01*
X150313010Y-63705216D01*
X150133011Y-63774949D01*
X150133008Y-63774950D01*
X150127573Y-63777056D01*
X150122617Y-63780124D01*
X150122612Y-63780127D01*
X149958491Y-63881746D01*
X149958481Y-63881752D01*
X149953538Y-63884814D01*
X149949239Y-63888732D01*
X149949235Y-63888736D01*
X149806573Y-64018789D01*
X149806565Y-64018797D01*
X149802268Y-64022715D01*
X149798763Y-64027355D01*
X149798755Y-64027365D01*
X149682422Y-64181416D01*
X149682418Y-64181421D01*
X149678912Y-64186065D01*
X149676317Y-64191274D01*
X149676314Y-64191281D01*
X149608344Y-64327784D01*
X149587672Y-64369299D01*
X149586078Y-64374899D01*
X149586076Y-64374906D01*
X149533250Y-64560572D01*
X149531655Y-64566179D01*
X149531118Y-64571972D01*
X149531116Y-64571984D01*
X149513306Y-64764194D01*
X149512768Y-64770000D01*
X149191232Y-64770000D01*
X149172345Y-64566179D01*
X149116328Y-64369299D01*
X149025088Y-64186065D01*
X148942133Y-64076214D01*
X148905244Y-64027365D01*
X148905241Y-64027361D01*
X148901732Y-64022715D01*
X148897429Y-64018792D01*
X148897426Y-64018789D01*
X148754764Y-63888736D01*
X148754765Y-63888736D01*
X148750462Y-63884814D01*
X148745512Y-63881749D01*
X148745508Y-63881746D01*
X148581387Y-63780127D01*
X148581386Y-63780126D01*
X148576427Y-63777056D01*
X148552898Y-63767941D01*
X148390989Y-63705216D01*
X148390981Y-63705213D01*
X148385556Y-63703112D01*
X148379839Y-63702043D01*
X148379831Y-63702041D01*
X148190073Y-63666570D01*
X148190069Y-63666569D01*
X148184347Y-63665500D01*
X147979653Y-63665500D01*
X147973931Y-63666569D01*
X147973926Y-63666570D01*
X147784168Y-63702041D01*
X147784157Y-63702043D01*
X147778444Y-63703112D01*
X147773021Y-63705212D01*
X147773010Y-63705216D01*
X147593011Y-63774949D01*
X147593008Y-63774950D01*
X147587573Y-63777056D01*
X147582617Y-63780124D01*
X147582612Y-63780127D01*
X147418491Y-63881746D01*
X147418481Y-63881752D01*
X147413538Y-63884814D01*
X147409239Y-63888732D01*
X147409235Y-63888736D01*
X147266573Y-64018789D01*
X147266565Y-64018797D01*
X147262268Y-64022715D01*
X147258763Y-64027355D01*
X147258755Y-64027365D01*
X147142422Y-64181416D01*
X147142418Y-64181421D01*
X147138912Y-64186065D01*
X147136317Y-64191274D01*
X147136314Y-64191281D01*
X147068344Y-64327784D01*
X147047672Y-64369299D01*
X147046078Y-64374899D01*
X147046076Y-64374906D01*
X146993250Y-64560572D01*
X146991655Y-64566179D01*
X146991118Y-64571972D01*
X146991116Y-64571984D01*
X146973306Y-64764194D01*
X146972768Y-64770000D01*
X146651232Y-64770000D01*
X146632345Y-64566179D01*
X146576328Y-64369299D01*
X146485088Y-64186065D01*
X146402133Y-64076214D01*
X146365244Y-64027365D01*
X146365241Y-64027361D01*
X146361732Y-64022715D01*
X146357429Y-64018792D01*
X146357426Y-64018789D01*
X146214764Y-63888736D01*
X146214765Y-63888736D01*
X146210462Y-63884814D01*
X146205512Y-63881749D01*
X146205508Y-63881746D01*
X146041387Y-63780127D01*
X146041386Y-63780126D01*
X146036427Y-63777056D01*
X146012898Y-63767941D01*
X145850989Y-63705216D01*
X145850981Y-63705213D01*
X145845556Y-63703112D01*
X145839839Y-63702043D01*
X145839831Y-63702041D01*
X145650073Y-63666570D01*
X145650069Y-63666569D01*
X145644347Y-63665500D01*
X145439653Y-63665500D01*
X145433931Y-63666569D01*
X145433926Y-63666570D01*
X145244168Y-63702041D01*
X145244157Y-63702043D01*
X145238444Y-63703112D01*
X145233021Y-63705212D01*
X145233010Y-63705216D01*
X145053011Y-63774949D01*
X145053008Y-63774950D01*
X145047573Y-63777056D01*
X145042617Y-63780124D01*
X145042612Y-63780127D01*
X144878491Y-63881746D01*
X144878481Y-63881752D01*
X144873538Y-63884814D01*
X144869239Y-63888732D01*
X144869235Y-63888736D01*
X144726573Y-64018789D01*
X144726565Y-64018797D01*
X144722268Y-64022715D01*
X144718763Y-64027355D01*
X144718755Y-64027365D01*
X144602422Y-64181416D01*
X144602418Y-64181421D01*
X144598912Y-64186065D01*
X144596317Y-64191274D01*
X144596314Y-64191281D01*
X144528344Y-64327784D01*
X144507672Y-64369299D01*
X144506078Y-64374899D01*
X144506076Y-64374906D01*
X144453250Y-64560572D01*
X144451655Y-64566179D01*
X144451118Y-64571972D01*
X144451116Y-64571984D01*
X144433306Y-64764194D01*
X144432768Y-64770000D01*
X144111232Y-64770000D01*
X144092345Y-64566179D01*
X144036328Y-64369299D01*
X143945088Y-64186065D01*
X143862133Y-64076214D01*
X143825244Y-64027365D01*
X143825241Y-64027361D01*
X143821732Y-64022715D01*
X143817429Y-64018792D01*
X143817426Y-64018789D01*
X143674764Y-63888736D01*
X143674765Y-63888736D01*
X143670462Y-63884814D01*
X143665512Y-63881749D01*
X143665508Y-63881746D01*
X143501387Y-63780127D01*
X143501386Y-63780126D01*
X143496427Y-63777056D01*
X143472898Y-63767941D01*
X143310989Y-63705216D01*
X143310981Y-63705213D01*
X143305556Y-63703112D01*
X143299839Y-63702043D01*
X143299831Y-63702041D01*
X143110073Y-63666570D01*
X143110069Y-63666569D01*
X143104347Y-63665500D01*
X142899653Y-63665500D01*
X142893931Y-63666569D01*
X142893926Y-63666570D01*
X142704168Y-63702041D01*
X142704157Y-63702043D01*
X142698444Y-63703112D01*
X142693021Y-63705212D01*
X142693010Y-63705216D01*
X142513011Y-63774949D01*
X142513008Y-63774950D01*
X142507573Y-63777056D01*
X142502617Y-63780124D01*
X142502612Y-63780127D01*
X142338491Y-63881746D01*
X142338481Y-63881752D01*
X142333538Y-63884814D01*
X142329239Y-63888732D01*
X142329235Y-63888736D01*
X142186573Y-64018789D01*
X142186565Y-64018797D01*
X142182268Y-64022715D01*
X142178763Y-64027355D01*
X142178755Y-64027365D01*
X142062422Y-64181416D01*
X142062418Y-64181421D01*
X142058912Y-64186065D01*
X142056317Y-64191274D01*
X142056314Y-64191281D01*
X141988344Y-64327784D01*
X141967672Y-64369299D01*
X141966078Y-64374899D01*
X141966076Y-64374906D01*
X141913250Y-64560572D01*
X141911655Y-64566179D01*
X141911118Y-64571972D01*
X141911116Y-64571984D01*
X141893306Y-64764194D01*
X141892768Y-64770000D01*
X141571232Y-64770000D01*
X141552345Y-64566179D01*
X141496328Y-64369299D01*
X141405088Y-64186065D01*
X141322133Y-64076214D01*
X141285244Y-64027365D01*
X141285241Y-64027361D01*
X141281732Y-64022715D01*
X141277429Y-64018792D01*
X141277426Y-64018789D01*
X141134764Y-63888736D01*
X141134765Y-63888736D01*
X141130462Y-63884814D01*
X141125512Y-63881749D01*
X141125508Y-63881746D01*
X140961387Y-63780127D01*
X140961386Y-63780126D01*
X140956427Y-63777056D01*
X140932898Y-63767941D01*
X140770989Y-63705216D01*
X140770981Y-63705213D01*
X140765556Y-63703112D01*
X140759839Y-63702043D01*
X140759831Y-63702041D01*
X140570073Y-63666570D01*
X140570069Y-63666569D01*
X140564347Y-63665500D01*
X140359653Y-63665500D01*
X140353931Y-63666569D01*
X140353926Y-63666570D01*
X140164168Y-63702041D01*
X140164157Y-63702043D01*
X140158444Y-63703112D01*
X140153021Y-63705212D01*
X140153010Y-63705216D01*
X139973011Y-63774949D01*
X139973008Y-63774950D01*
X139967573Y-63777056D01*
X139962617Y-63780124D01*
X139962612Y-63780127D01*
X139798491Y-63881746D01*
X139798481Y-63881752D01*
X139793538Y-63884814D01*
X139789239Y-63888732D01*
X139789235Y-63888736D01*
X139646573Y-64018789D01*
X139646565Y-64018797D01*
X139642268Y-64022715D01*
X139638763Y-64027355D01*
X139638755Y-64027365D01*
X139522422Y-64181416D01*
X139522418Y-64181421D01*
X139518912Y-64186065D01*
X139516317Y-64191274D01*
X139516314Y-64191281D01*
X139448344Y-64327784D01*
X139427672Y-64369299D01*
X139426078Y-64374899D01*
X139426076Y-64374906D01*
X139373250Y-64560572D01*
X139371655Y-64566179D01*
X139371118Y-64571972D01*
X139371116Y-64571984D01*
X139353306Y-64764194D01*
X139352768Y-64770000D01*
X139031232Y-64770000D01*
X139012345Y-64566179D01*
X138956328Y-64369299D01*
X138865088Y-64186065D01*
X138782133Y-64076214D01*
X138745244Y-64027365D01*
X138745241Y-64027361D01*
X138741732Y-64022715D01*
X138737429Y-64018792D01*
X138737426Y-64018789D01*
X138594764Y-63888736D01*
X138594765Y-63888736D01*
X138590462Y-63884814D01*
X138585512Y-63881749D01*
X138585508Y-63881746D01*
X138421387Y-63780127D01*
X138421386Y-63780126D01*
X138416427Y-63777056D01*
X138392898Y-63767941D01*
X138230989Y-63705216D01*
X138230981Y-63705213D01*
X138225556Y-63703112D01*
X138219839Y-63702043D01*
X138219831Y-63702041D01*
X138030073Y-63666570D01*
X138030069Y-63666569D01*
X138024347Y-63665500D01*
X137819653Y-63665500D01*
X137813931Y-63666569D01*
X137813926Y-63666570D01*
X137624168Y-63702041D01*
X137624157Y-63702043D01*
X137618444Y-63703112D01*
X137613021Y-63705212D01*
X137613010Y-63705216D01*
X137433011Y-63774949D01*
X137433008Y-63774950D01*
X137427573Y-63777056D01*
X137422617Y-63780124D01*
X137422612Y-63780127D01*
X137258491Y-63881746D01*
X137258481Y-63881752D01*
X137253538Y-63884814D01*
X137249239Y-63888732D01*
X137249235Y-63888736D01*
X137106573Y-64018789D01*
X137106565Y-64018797D01*
X137102268Y-64022715D01*
X137098763Y-64027355D01*
X137098755Y-64027365D01*
X136982422Y-64181416D01*
X136982418Y-64181421D01*
X136978912Y-64186065D01*
X136976317Y-64191274D01*
X136976314Y-64191281D01*
X136908344Y-64327784D01*
X136887672Y-64369299D01*
X136886078Y-64374899D01*
X136886076Y-64374906D01*
X136833250Y-64560572D01*
X136831655Y-64566179D01*
X136831118Y-64571972D01*
X136831116Y-64571984D01*
X136813306Y-64764194D01*
X136812768Y-64770000D01*
X123875872Y-64770000D01*
X123778395Y-64593630D01*
X123750101Y-64542435D01*
X123750098Y-64542430D01*
X123748394Y-64539347D01*
X123549867Y-64259550D01*
X123321261Y-64003739D01*
X123188183Y-63884814D01*
X123068073Y-63777477D01*
X123068072Y-63777476D01*
X123065450Y-63775133D01*
X122966911Y-63705216D01*
X122788528Y-63578646D01*
X122785653Y-63576606D01*
X122782574Y-63574904D01*
X122782564Y-63574898D01*
X122488482Y-63412365D01*
X122488480Y-63412364D01*
X122485386Y-63410654D01*
X122261479Y-63317908D01*
X122207762Y-63275561D01*
X122184086Y-63211386D01*
X122197431Y-63144297D01*
X122243863Y-63094067D01*
X122309698Y-63075500D01*
X154875469Y-63075500D01*
X154896706Y-63075500D01*
X154903300Y-63075673D01*
G37*
%TD.AperFunction*%
M02*
