%TF.GenerationSoftware,KiCad,Pcbnew,(7.0.0)*%
%TF.CreationDate,2023-02-19T00:42:13-05:00*%
%TF.ProjectId,CANBoard,43414e42-6f61-4726-942e-6b696361645f,v1*%
%TF.SameCoordinates,Original*%
%TF.FileFunction,Soldermask,Top*%
%TF.FilePolarity,Negative*%
%FSLAX46Y46*%
G04 Gerber Fmt 4.6, Leading zero omitted, Abs format (unit mm)*
G04 Created by KiCad (PCBNEW (7.0.0)) date 2023-02-19 00:42:13*
%MOMM*%
%LPD*%
G01*
G04 APERTURE LIST*
G04 Aperture macros list*
%AMRoundRect*
0 Rectangle with rounded corners*
0 $1 Rounding radius*
0 $2 $3 $4 $5 $6 $7 $8 $9 X,Y pos of 4 corners*
0 Add a 4 corners polygon primitive as box body*
4,1,4,$2,$3,$4,$5,$6,$7,$8,$9,$2,$3,0*
0 Add four circle primitives for the rounded corners*
1,1,$1+$1,$2,$3*
1,1,$1+$1,$4,$5*
1,1,$1+$1,$6,$7*
1,1,$1+$1,$8,$9*
0 Add four rect primitives between the rounded corners*
20,1,$1+$1,$2,$3,$4,$5,0*
20,1,$1+$1,$4,$5,$6,$7,0*
20,1,$1+$1,$6,$7,$8,$9,0*
20,1,$1+$1,$8,$9,$2,$3,0*%
%AMFreePoly0*
4,1,35,0.012286,0.794911,0.071157,0.794911,0.085244,0.792886,0.221795,0.752791,0.234740,0.746879,0.354462,0.669938,0.365217,0.660618,0.458414,0.553063,0.466109,0.541091,0.525228,0.411637,0.529237,0.397982,0.549491,0.257116,0.550000,0.250000,0.550000,-0.250000,0.549491,-0.257116,0.529237,-0.397982,0.525228,-0.411637,0.466109,-0.541091,0.458414,-0.553063,0.365217,-0.660618,
0.354462,-0.669938,0.234740,-0.746879,0.221795,-0.752791,0.085244,-0.792886,0.071157,-0.794911,0.012286,-0.794911,0.000000,-0.800000,-0.500000,-0.800000,-0.535355,-0.785355,-0.550000,-0.750000,-0.550000,0.750000,-0.535355,0.785355,-0.500000,0.800000,0.000000,0.800000,0.012286,0.794911,0.012286,0.794911,$1*%
%AMFreePoly1*
4,1,35,0.535355,0.785355,0.550000,0.750000,0.550000,-0.750000,0.535355,-0.785355,0.500000,-0.800000,0.000000,-0.800000,-0.012286,-0.794911,-0.071157,-0.794911,-0.085244,-0.792886,-0.221795,-0.752791,-0.234740,-0.746879,-0.354462,-0.669938,-0.365217,-0.660618,-0.458414,-0.553063,-0.466109,-0.541091,-0.525228,-0.411637,-0.529237,-0.397982,-0.549491,-0.257116,-0.550000,-0.250000,-0.550000,0.250000,
-0.549491,0.257116,-0.529237,0.397982,-0.525228,0.411637,-0.466109,0.541091,-0.458414,0.553063,-0.365217,0.660618,-0.354462,0.669938,-0.234740,0.746879,-0.221795,0.752791,-0.085244,0.792886,-0.071157,0.794911,-0.012286,0.794911,0.000000,0.800000,0.500000,0.800000,0.535355,0.785355,0.535355,0.785355,$1*%
G04 Aperture macros list end*
%ADD10C,1.090600*%
%ADD11C,0.887400*%
%ADD12RoundRect,0.293750X-0.456250X0.243750X-0.456250X-0.243750X0.456250X-0.243750X0.456250X0.243750X0*%
%ADD13O,1.800000X1.800000*%
%ADD14C,1.800000*%
%ADD15C,5.700000*%
%ADD16RoundRect,0.293750X0.243750X0.456250X-0.243750X0.456250X-0.243750X-0.456250X0.243750X-0.456250X0*%
%ADD17RoundRect,0.293750X-0.243750X-0.456250X0.243750X-0.456250X0.243750X0.456250X-0.243750X0.456250X0*%
%ADD18RoundRect,0.070000X-0.650000X-0.300000X0.650000X-0.300000X0.650000X0.300000X-0.650000X0.300000X0*%
%ADD19RoundRect,0.050000X-1.200000X1.000000X-1.200000X-1.000000X1.200000X-1.000000X1.200000X1.000000X0*%
%ADD20RoundRect,0.175000X-0.125000X-0.625000X0.125000X-0.625000X0.125000X0.625000X-0.125000X0.625000X0*%
%ADD21RoundRect,0.175000X-0.625000X-0.125000X0.625000X-0.125000X0.625000X0.125000X-0.625000X0.125000X0*%
%ADD22RoundRect,0.300000X1.425000X-0.425000X1.425000X0.425000X-1.425000X0.425000X-1.425000X-0.425000X0*%
%ADD23RoundRect,0.293750X0.456250X-0.243750X0.456250X0.243750X-0.456250X0.243750X-0.456250X-0.243750X0*%
%ADD24RoundRect,0.425000X0.375000X-0.825000X0.375000X0.825000X-0.375000X0.825000X-0.375000X-0.825000X0*%
%ADD25RoundRect,0.050000X-0.530000X-0.325000X0.530000X-0.325000X0.530000X0.325000X-0.530000X0.325000X0*%
%ADD26RoundRect,0.050000X1.100000X-1.900000X1.100000X1.900000X-1.100000X1.900000X-1.100000X-1.900000X0*%
%ADD27RoundRect,0.050000X1.100000X-0.750000X1.100000X0.750000X-1.100000X0.750000X-1.100000X-0.750000X0*%
%ADD28C,1.100000*%
%ADD29RoundRect,0.050000X-0.225000X-0.350000X0.225000X-0.350000X0.225000X0.350000X-0.225000X0.350000X0*%
%ADD30FreePoly0,0.000000*%
%ADD31FreePoly1,0.000000*%
%ADD32RoundRect,0.200000X-0.825000X-0.150000X0.825000X-0.150000X0.825000X0.150000X-0.825000X0.150000X0*%
G04 APERTURE END LIST*
D10*
X141986000Y-75057000D03*
X147066000Y-74041000D03*
X147066000Y-76073000D03*
D11*
X143256000Y-75692000D03*
X143256000Y-74422000D03*
X144526000Y-75692000D03*
X144526000Y-74422000D03*
X145796000Y-75692000D03*
X145796000Y-74422000D03*
D12*
X144018000Y-98854500D03*
X144018000Y-96979500D03*
X141478000Y-98854500D03*
X141478000Y-96979500D03*
X138938000Y-98854500D03*
X138938000Y-96979500D03*
X150114000Y-74612500D03*
X150114000Y-72737500D03*
X136398000Y-98854500D03*
X136398000Y-96979500D03*
X133858000Y-98854500D03*
X133858000Y-96979500D03*
X128778000Y-98854500D03*
X128778000Y-96979500D03*
D13*
X146557999Y-101218999D03*
X144017999Y-101218999D03*
X141477999Y-101218999D03*
X138937999Y-101218999D03*
X136397999Y-101218999D03*
X133857999Y-101218999D03*
X131317999Y-101218999D03*
D14*
X128778000Y-101219000D03*
D15*
X151638000Y-99822000D03*
D16*
X138762500Y-82169000D03*
X140637500Y-82169000D03*
D17*
X124635500Y-82423000D03*
X122760500Y-82423000D03*
D16*
X126316500Y-82423000D03*
X128191500Y-82423000D03*
D17*
X120952500Y-80899000D03*
X119077500Y-80899000D03*
X125651500Y-77089000D03*
X123776500Y-77089000D03*
X130350500Y-72390000D03*
X128475500Y-72390000D03*
X127048500Y-80391000D03*
X125173500Y-80391000D03*
D16*
X138762500Y-84201000D03*
X140637500Y-84201000D03*
D17*
X145082500Y-84836000D03*
X143207500Y-84836000D03*
D12*
X133223000Y-86662500D03*
X133223000Y-84787500D03*
X126492000Y-97076500D03*
X126492000Y-95201500D03*
D17*
X125651500Y-74168000D03*
X123776500Y-74168000D03*
D15*
X121158000Y-66167000D03*
D18*
X152180000Y-81280000D03*
X150080000Y-82230000D03*
X150080000Y-80330000D03*
D19*
X121031000Y-77415000D03*
X121031000Y-73715000D03*
D20*
X131820000Y-73041000D03*
X132620000Y-73041000D03*
X133420000Y-73041000D03*
X134220000Y-73041000D03*
X135020000Y-73041000D03*
X135820000Y-73041000D03*
X136620000Y-73041000D03*
X137420000Y-73041000D03*
D21*
X138795000Y-74416000D03*
X138795000Y-75216000D03*
X138795000Y-76016000D03*
X138795000Y-76816000D03*
X138795000Y-77616000D03*
X138795000Y-78416000D03*
X138795000Y-79216000D03*
X138795000Y-80016000D03*
D20*
X137420000Y-81391000D03*
X136620000Y-81391000D03*
X135820000Y-81391000D03*
X135020000Y-81391000D03*
X134220000Y-81391000D03*
X133420000Y-81391000D03*
X132620000Y-81391000D03*
X131820000Y-81391000D03*
D21*
X130445000Y-80016000D03*
X130445000Y-79216000D03*
X130445000Y-78416000D03*
X130445000Y-77616000D03*
X130445000Y-76816000D03*
X130445000Y-76016000D03*
X130445000Y-75216000D03*
X130445000Y-74416000D03*
D22*
X155575000Y-74316000D03*
X155575000Y-80116000D03*
D12*
X149034500Y-95616000D03*
X149034500Y-93741000D03*
X151130000Y-95616000D03*
X151130000Y-93741000D03*
D23*
X140716000Y-88724500D03*
X140716000Y-90599500D03*
D12*
X140716000Y-94282500D03*
X140716000Y-92407500D03*
D24*
X146439500Y-90614500D03*
X142739500Y-90614500D03*
D17*
X153591500Y-85725000D03*
X151716500Y-85725000D03*
D16*
X143207500Y-86868000D03*
X145082500Y-86868000D03*
D25*
X150706000Y-89664500D03*
X150706000Y-90614500D03*
X150706000Y-91564500D03*
X148506000Y-91564500D03*
X148506000Y-90614500D03*
X148506000Y-89664500D03*
D12*
X129540000Y-94028500D03*
X129540000Y-92153500D03*
D26*
X131978000Y-91313000D03*
D27*
X138278000Y-89013000D03*
X138278000Y-91313000D03*
X138278000Y-93613000D03*
D12*
X146558000Y-98854500D03*
X146558000Y-96979500D03*
D28*
X152209500Y-74549000D03*
D12*
X153225500Y-95616000D03*
X153225500Y-93741000D03*
D17*
X146147000Y-94043500D03*
X144272000Y-94043500D03*
D13*
X137921999Y-64769999D03*
X140461999Y-64769999D03*
X143001999Y-64769999D03*
X145541999Y-64769999D03*
X148081999Y-64769999D03*
X150621999Y-64769999D03*
X153161999Y-64769999D03*
D14*
X155702000Y-64770000D03*
D12*
X129540000Y-89964500D03*
X129540000Y-88089500D03*
D23*
X150114000Y-76278500D03*
X150114000Y-78153500D03*
D12*
X130810000Y-86027500D03*
X130810000Y-84152500D03*
D23*
X144907000Y-67642500D03*
X144907000Y-69517500D03*
D29*
X142494000Y-67580000D03*
X143144000Y-69580000D03*
X141844000Y-69580000D03*
D12*
X135382000Y-65961500D03*
X135382000Y-64086500D03*
X151765000Y-69517500D03*
X151765000Y-67642500D03*
X140081000Y-69517500D03*
X140081000Y-67642500D03*
D29*
X149352000Y-67580000D03*
X150002000Y-69580000D03*
X148702000Y-69580000D03*
D23*
X138049000Y-67642500D03*
X138049000Y-69517500D03*
D29*
X135636000Y-67580000D03*
X136286000Y-69580000D03*
X134986000Y-69580000D03*
D12*
X146939000Y-69517500D03*
X146939000Y-67642500D03*
D23*
X153797000Y-67642500D03*
X153797000Y-69517500D03*
D12*
X133223000Y-65913000D03*
X133223000Y-64038000D03*
D29*
X156210000Y-67580000D03*
X156860000Y-69580000D03*
X155560000Y-69580000D03*
D30*
X156225000Y-71882000D03*
D31*
X154925000Y-71882000D03*
D13*
X156209999Y-100710999D03*
X156209999Y-98170999D03*
X156209999Y-95630999D03*
X156209999Y-93090999D03*
X156209999Y-90550999D03*
X156209999Y-88010999D03*
X156209999Y-85470999D03*
D14*
X156210000Y-82931000D03*
D12*
X131318000Y-98854500D03*
X131318000Y-96979500D03*
D17*
X140637500Y-86487000D03*
X138762500Y-86487000D03*
D23*
X122428000Y-88089500D03*
X122428000Y-89964500D03*
D12*
X122428000Y-97076500D03*
X122428000Y-95201500D03*
X122428000Y-86408500D03*
X122428000Y-84533500D03*
X122428000Y-100632500D03*
X122428000Y-98757500D03*
D23*
X122428000Y-91645500D03*
X122428000Y-93520500D03*
D13*
X119760999Y-101218999D03*
X119760999Y-98678999D03*
X119760999Y-96138999D03*
X119760999Y-93598999D03*
X119760999Y-91058999D03*
X119760999Y-88518999D03*
X119760999Y-85978999D03*
D14*
X119761000Y-83439000D03*
D12*
X126492000Y-86408500D03*
X126492000Y-84533500D03*
D23*
X126492000Y-88089500D03*
X126492000Y-89964500D03*
X126492000Y-91645500D03*
X126492000Y-93520500D03*
X124460000Y-84533500D03*
X124460000Y-86408500D03*
D12*
X124460000Y-89964500D03*
X124460000Y-88089500D03*
X124460000Y-93520500D03*
X124460000Y-91645500D03*
D23*
X124460000Y-98757500D03*
X124460000Y-100632500D03*
X124460000Y-95201500D03*
X124460000Y-97076500D03*
D12*
X125730000Y-65961500D03*
X125730000Y-64086500D03*
X125730000Y-69517500D03*
X125730000Y-67642500D03*
D17*
X149718000Y-85725000D03*
X147843000Y-85725000D03*
D32*
X147763000Y-78994000D03*
X147763000Y-80264000D03*
X147763000Y-81534000D03*
X147763000Y-82804000D03*
X142813000Y-82804000D03*
X142813000Y-81534000D03*
X142813000Y-80264000D03*
X142813000Y-78994000D03*
D30*
X129682000Y-64770000D03*
D31*
X128382000Y-64770000D03*
D30*
X129682000Y-68199000D03*
D31*
X128382000Y-68199000D03*
M02*
