%TF.GenerationSoftware,KiCad,Pcbnew,(7.0.0)*%
%TF.CreationDate,2023-02-19T00:42:13-05:00*%
%TF.ProjectId,CANBoard,43414e42-6f61-4726-942e-6b696361645f,v1*%
%TF.SameCoordinates,Original*%
%TF.FileFunction,Paste,Top*%
%TF.FilePolarity,Positive*%
%FSLAX46Y46*%
G04 Gerber Fmt 4.6, Leading zero omitted, Abs format (unit mm)*
G04 Created by KiCad (PCBNEW (7.0.0)) date 2023-02-19 00:42:13*
%MOMM*%
%LPD*%
G01*
G04 APERTURE LIST*
G04 Aperture macros list*
%AMRoundRect*
0 Rectangle with rounded corners*
0 $1 Rounding radius*
0 $2 $3 $4 $5 $6 $7 $8 $9 X,Y pos of 4 corners*
0 Add a 4 corners polygon primitive as box body*
4,1,4,$2,$3,$4,$5,$6,$7,$8,$9,$2,$3,0*
0 Add four circle primitives for the rounded corners*
1,1,$1+$1,$2,$3*
1,1,$1+$1,$4,$5*
1,1,$1+$1,$6,$7*
1,1,$1+$1,$8,$9*
0 Add four rect primitives between the rounded corners*
20,1,$1+$1,$2,$3,$4,$5,0*
20,1,$1+$1,$4,$5,$6,$7,0*
20,1,$1+$1,$6,$7,$8,$9,0*
20,1,$1+$1,$8,$9,$2,$3,0*%
G04 Aperture macros list end*
%ADD10RoundRect,0.243750X-0.456250X0.243750X-0.456250X-0.243750X0.456250X-0.243750X0.456250X0.243750X0*%
%ADD11RoundRect,0.243750X0.243750X0.456250X-0.243750X0.456250X-0.243750X-0.456250X0.243750X-0.456250X0*%
%ADD12RoundRect,0.243750X-0.243750X-0.456250X0.243750X-0.456250X0.243750X0.456250X-0.243750X0.456250X0*%
%ADD13R,1.300000X0.600000*%
%ADD14R,2.400000X2.000000*%
%ADD15RoundRect,0.125000X-0.125000X-0.625000X0.125000X-0.625000X0.125000X0.625000X-0.125000X0.625000X0*%
%ADD16RoundRect,0.125000X-0.625000X-0.125000X0.625000X-0.125000X0.625000X0.125000X-0.625000X0.125000X0*%
%ADD17RoundRect,0.250000X1.425000X-0.425000X1.425000X0.425000X-1.425000X0.425000X-1.425000X-0.425000X0*%
%ADD18RoundRect,0.243750X0.456250X-0.243750X0.456250X0.243750X-0.456250X0.243750X-0.456250X-0.243750X0*%
%ADD19RoundRect,0.375000X0.375000X-0.825000X0.375000X0.825000X-0.375000X0.825000X-0.375000X-0.825000X0*%
%ADD20R,1.060000X0.650000*%
%ADD21R,2.200000X3.800000*%
%ADD22R,2.200000X1.500000*%
%ADD23R,0.450000X0.700000*%
%ADD24RoundRect,0.150000X-0.825000X-0.150000X0.825000X-0.150000X0.825000X0.150000X-0.825000X0.150000X0*%
G04 APERTURE END LIST*
D10*
X144018000Y-98854500D03*
X144018000Y-96979500D03*
X141478000Y-98854500D03*
X141478000Y-96979500D03*
X138938000Y-98854500D03*
X138938000Y-96979500D03*
X150114000Y-74612500D03*
X150114000Y-72737500D03*
X136398000Y-98854500D03*
X136398000Y-96979500D03*
X133858000Y-98854500D03*
X133858000Y-96979500D03*
X128778000Y-98854500D03*
X128778000Y-96979500D03*
D11*
X138762500Y-82169000D03*
X140637500Y-82169000D03*
D12*
X124635500Y-82423000D03*
X122760500Y-82423000D03*
D11*
X126316500Y-82423000D03*
X128191500Y-82423000D03*
D12*
X120952500Y-80899000D03*
X119077500Y-80899000D03*
X125651500Y-77089000D03*
X123776500Y-77089000D03*
X130350500Y-72390000D03*
X128475500Y-72390000D03*
X127048500Y-80391000D03*
X125173500Y-80391000D03*
D11*
X138762500Y-84201000D03*
X140637500Y-84201000D03*
D12*
X145082500Y-84836000D03*
X143207500Y-84836000D03*
D10*
X133223000Y-86662500D03*
X133223000Y-84787500D03*
X126492000Y-97076500D03*
X126492000Y-95201500D03*
D12*
X125651500Y-74168000D03*
X123776500Y-74168000D03*
D13*
X152179999Y-81279999D03*
X150079999Y-82229999D03*
X150079999Y-80329999D03*
D14*
X121030999Y-77414999D03*
X121030999Y-73714999D03*
D15*
X131820000Y-73041000D03*
X132620000Y-73041000D03*
X133420000Y-73041000D03*
X134220000Y-73041000D03*
X135020000Y-73041000D03*
X135820000Y-73041000D03*
X136620000Y-73041000D03*
X137420000Y-73041000D03*
D16*
X138795000Y-74416000D03*
X138795000Y-75216000D03*
X138795000Y-76016000D03*
X138795000Y-76816000D03*
X138795000Y-77616000D03*
X138795000Y-78416000D03*
X138795000Y-79216000D03*
X138795000Y-80016000D03*
D15*
X137420000Y-81391000D03*
X136620000Y-81391000D03*
X135820000Y-81391000D03*
X135020000Y-81391000D03*
X134220000Y-81391000D03*
X133420000Y-81391000D03*
X132620000Y-81391000D03*
X131820000Y-81391000D03*
D16*
X130445000Y-80016000D03*
X130445000Y-79216000D03*
X130445000Y-78416000D03*
X130445000Y-77616000D03*
X130445000Y-76816000D03*
X130445000Y-76016000D03*
X130445000Y-75216000D03*
X130445000Y-74416000D03*
D17*
X155575000Y-74316000D03*
X155575000Y-80116000D03*
D10*
X149034500Y-95616000D03*
X149034500Y-93741000D03*
X151130000Y-95616000D03*
X151130000Y-93741000D03*
D18*
X140716000Y-88724500D03*
X140716000Y-90599500D03*
D10*
X140716000Y-94282500D03*
X140716000Y-92407500D03*
D19*
X146439500Y-90614500D03*
X142739500Y-90614500D03*
D12*
X153591500Y-85725000D03*
X151716500Y-85725000D03*
D11*
X143207500Y-86868000D03*
X145082500Y-86868000D03*
D20*
X150705999Y-89664499D03*
X150705999Y-90614499D03*
X150705999Y-91564499D03*
X148505999Y-91564499D03*
X148505999Y-90614499D03*
X148505999Y-89664499D03*
D10*
X129540000Y-94028500D03*
X129540000Y-92153500D03*
D21*
X131977999Y-91312999D03*
D22*
X138277999Y-89012999D03*
X138277999Y-91312999D03*
X138277999Y-93612999D03*
D10*
X146558000Y-98854500D03*
X146558000Y-96979500D03*
X153225500Y-95616000D03*
X153225500Y-93741000D03*
D12*
X146147000Y-94043500D03*
X144272000Y-94043500D03*
D10*
X129540000Y-89964500D03*
X129540000Y-88089500D03*
D18*
X150114000Y-76278500D03*
X150114000Y-78153500D03*
D10*
X130810000Y-86027500D03*
X130810000Y-84152500D03*
D18*
X144907000Y-67642500D03*
X144907000Y-69517500D03*
D23*
X142493999Y-67579999D03*
X143143999Y-69579999D03*
X141843999Y-69579999D03*
D10*
X135382000Y-65961500D03*
X135382000Y-64086500D03*
X151765000Y-69517500D03*
X151765000Y-67642500D03*
X140081000Y-69517500D03*
X140081000Y-67642500D03*
D23*
X149351999Y-67579999D03*
X150001999Y-69579999D03*
X148701999Y-69579999D03*
D18*
X138049000Y-67642500D03*
X138049000Y-69517500D03*
D23*
X135635999Y-67579999D03*
X136285999Y-69579999D03*
X134985999Y-69579999D03*
D10*
X146939000Y-69517500D03*
X146939000Y-67642500D03*
D18*
X153797000Y-67642500D03*
X153797000Y-69517500D03*
D10*
X133223000Y-65913000D03*
X133223000Y-64038000D03*
D23*
X156209999Y-67579999D03*
X156859999Y-69579999D03*
X155559999Y-69579999D03*
D10*
X131318000Y-98854500D03*
X131318000Y-96979500D03*
D12*
X140637500Y-86487000D03*
X138762500Y-86487000D03*
D18*
X122428000Y-88089500D03*
X122428000Y-89964500D03*
D10*
X122428000Y-97076500D03*
X122428000Y-95201500D03*
X122428000Y-86408500D03*
X122428000Y-84533500D03*
X122428000Y-100632500D03*
X122428000Y-98757500D03*
D18*
X122428000Y-91645500D03*
X122428000Y-93520500D03*
D10*
X126492000Y-86408500D03*
X126492000Y-84533500D03*
D18*
X126492000Y-88089500D03*
X126492000Y-89964500D03*
X126492000Y-91645500D03*
X126492000Y-93520500D03*
X124460000Y-84533500D03*
X124460000Y-86408500D03*
D10*
X124460000Y-89964500D03*
X124460000Y-88089500D03*
X124460000Y-93520500D03*
X124460000Y-91645500D03*
D18*
X124460000Y-98757500D03*
X124460000Y-100632500D03*
X124460000Y-95201500D03*
X124460000Y-97076500D03*
D10*
X125730000Y-65961500D03*
X125730000Y-64086500D03*
X125730000Y-69517500D03*
X125730000Y-67642500D03*
D12*
X149718000Y-85725000D03*
X147843000Y-85725000D03*
D24*
X147763000Y-78994000D03*
X147763000Y-80264000D03*
X147763000Y-81534000D03*
X147763000Y-82804000D03*
X142813000Y-82804000D03*
X142813000Y-81534000D03*
X142813000Y-80264000D03*
X142813000Y-78994000D03*
M02*
