%TF.GenerationSoftware,KiCad,Pcbnew,(5.1.6)-1*%
%TF.CreationDate,2020-12-03T23:45:43-06:00*%
%TF.ProjectId,CANBoard,43414e42-6f61-4726-942e-6b696361645f,v1*%
%TF.SameCoordinates,Original*%
%TF.FileFunction,Copper,L4,Bot*%
%TF.FilePolarity,Positive*%
%FSLAX46Y46*%
G04 Gerber Fmt 4.6, Leading zero omitted, Abs format (unit mm)*
G04 Created by KiCad (PCBNEW (5.1.6)-1) date 2020-12-03 23:45:43*
%MOMM*%
%LPD*%
G01*
G04 APERTURE LIST*
%TA.AperFunction,ComponentPad*%
%ADD10O,1.700000X1.700000*%
%TD*%
%TA.AperFunction,ComponentPad*%
%ADD11C,1.700000*%
%TD*%
%TA.AperFunction,ComponentPad*%
%ADD12C,5.600000*%
%TD*%
%TA.AperFunction,ViaPad*%
%ADD13C,0.600000*%
%TD*%
%TA.AperFunction,Conductor*%
%ADD14C,0.152400*%
%TD*%
%TA.AperFunction,Conductor*%
%ADD15C,0.508000*%
%TD*%
%TA.AperFunction,Conductor*%
%ADD16C,0.762000*%
%TD*%
%TA.AperFunction,Conductor*%
%ADD17C,0.254000*%
%TD*%
G04 APERTURE END LIST*
D10*
X137922000Y-64770000D03*
X140462000Y-64770000D03*
X143002000Y-64770000D03*
X145542000Y-64770000D03*
X148082000Y-64770000D03*
X150622000Y-64770000D03*
X153162000Y-64770000D03*
D11*
X155702000Y-64770000D03*
D10*
X122491500Y-70358000D03*
D11*
X119951500Y-70358000D03*
D10*
X156210000Y-100711000D03*
X156210000Y-98171000D03*
X156210000Y-95631000D03*
X156210000Y-93091000D03*
X156210000Y-90551000D03*
X156210000Y-88011000D03*
X156210000Y-85471000D03*
D11*
X156210000Y-82931000D03*
D10*
X119761000Y-101219000D03*
X119761000Y-98679000D03*
X119761000Y-96139000D03*
X119761000Y-93599000D03*
X119761000Y-91059000D03*
X119761000Y-88519000D03*
X119761000Y-85979000D03*
D11*
X119761000Y-83439000D03*
D10*
X146558000Y-101219000D03*
X144018000Y-101219000D03*
X141478000Y-101219000D03*
X138938000Y-101219000D03*
X136398000Y-101219000D03*
X133858000Y-101219000D03*
X131318000Y-101219000D03*
D11*
X128778000Y-101219000D03*
D12*
X121158000Y-66167000D03*
X151638000Y-99822000D03*
D13*
X142748000Y-88963500D03*
X142748000Y-88328500D03*
X142748000Y-92265500D03*
X142748000Y-92900500D03*
X121031000Y-79324200D03*
X121564400Y-72009000D03*
X118770400Y-72110600D03*
X118694200Y-75438000D03*
X123571000Y-79273400D03*
X127203200Y-78562200D03*
X127304800Y-76885800D03*
X127279400Y-74752200D03*
X127203200Y-72694800D03*
X124739400Y-72593200D03*
X123952000Y-72072500D03*
X118770400Y-79222600D03*
X124256800Y-78663800D03*
X126238000Y-100711000D03*
X127635000Y-91059000D03*
X121539000Y-82677000D03*
X137160000Y-79883000D03*
X132080000Y-74676000D03*
X144526000Y-80264000D03*
X156210000Y-68580000D03*
X149352000Y-68580000D03*
X135636000Y-68580000D03*
X127254000Y-68707000D03*
X141986000Y-86487000D03*
X132267346Y-64961479D03*
X136525000Y-65024000D03*
X125349000Y-71564508D03*
X129006600Y-74752200D03*
X128524000Y-76885800D03*
X142494000Y-68580000D03*
X129032000Y-67437000D03*
X137185400Y-94945200D03*
X137820400Y-94945200D03*
X138455400Y-94945200D03*
X127635000Y-85725000D03*
X128397000Y-77851000D03*
X140462000Y-71755000D03*
X151511000Y-76200000D03*
X123825000Y-81026000D03*
X134366000Y-91313000D03*
X135001000Y-91313000D03*
X132969000Y-67437000D03*
X135636000Y-91313000D03*
X147828000Y-84074000D03*
X128016000Y-70612000D03*
X130556000Y-81915000D03*
X128066693Y-92760692D03*
X132588000Y-83439000D03*
X126492000Y-98679000D03*
X151384000Y-82296000D03*
X153670000Y-71882000D03*
X131572000Y-71437500D03*
X151511000Y-73406000D03*
X133350000Y-82931000D03*
X128778000Y-95631000D03*
X134239000Y-83439000D03*
X131318000Y-95631000D03*
X135001000Y-82931000D03*
X133858000Y-95631000D03*
X135763000Y-83439000D03*
X136398000Y-95631000D03*
X136652000Y-82931000D03*
X138938000Y-95631000D03*
X141478000Y-95631000D03*
X140588960Y-80670000D03*
X144018000Y-95631000D03*
X140590633Y-79669990D03*
X146558000Y-95631000D03*
X140546815Y-78670938D03*
X151955500Y-89662000D03*
X153543000Y-84582000D03*
X151955500Y-91567000D03*
X147447000Y-94043500D03*
D14*
X140462000Y-71755000D02*
X140462000Y-73787000D01*
X136398000Y-77851000D02*
X128397000Y-77851000D01*
X140462000Y-73787000D02*
X136398000Y-77851000D01*
X130556000Y-81915000D02*
X130556000Y-90271385D01*
X130556000Y-90271385D02*
X128066693Y-92760692D01*
X126492000Y-98679000D02*
X127762000Y-97409000D01*
X127762000Y-97409000D02*
X127762000Y-94869000D01*
X127762000Y-94869000D02*
X131445000Y-91186000D01*
X131445000Y-91186000D02*
X131445000Y-85598000D01*
X132588000Y-84455000D02*
X132588000Y-83439000D01*
X131445000Y-85598000D02*
X132588000Y-84455000D01*
D15*
X152527000Y-82296000D02*
X156210000Y-85979000D01*
X151384000Y-82296000D02*
X152527000Y-82296000D01*
X153670000Y-76200000D02*
X151384000Y-78486000D01*
X151384000Y-78486000D02*
X151384000Y-82296000D01*
X153670000Y-71882000D02*
X153670000Y-76200000D01*
D14*
X131572000Y-71437500D02*
X132016500Y-70993000D01*
X132016500Y-70993000D02*
X149098000Y-70993000D01*
X149098000Y-70993000D02*
X151511000Y-73406000D01*
X133350000Y-82931000D02*
X133350000Y-85217000D01*
X133350000Y-85217000D02*
X132080000Y-86487000D01*
X132080000Y-92329000D02*
X128778000Y-95631000D01*
X132080000Y-86487000D02*
X132080000Y-92329000D01*
X132969000Y-86360000D02*
X134239000Y-85090000D01*
X134239000Y-85090000D02*
X134239000Y-83439000D01*
X132969000Y-92837000D02*
X132969000Y-86360000D01*
X131318000Y-94488000D02*
X132969000Y-92837000D01*
X131318000Y-95631000D02*
X131318000Y-94488000D01*
X133600000Y-95373000D02*
X133858000Y-95631000D01*
X133600000Y-86999000D02*
X133600000Y-95373000D01*
X135001000Y-82931000D02*
X135001000Y-85598000D01*
X135001000Y-85598000D02*
X133600000Y-86999000D01*
X136398000Y-86741000D02*
X135763000Y-86106000D01*
X135763000Y-86106000D02*
X135763000Y-83439000D01*
X136398000Y-95631000D02*
X136398000Y-86741000D01*
X136652000Y-85471000D02*
X139300000Y-88119000D01*
X136652000Y-82931000D02*
X136652000Y-85471000D01*
X139300000Y-88119000D02*
X139300000Y-95269000D01*
X139300000Y-95269000D02*
X138938000Y-95631000D01*
X141478000Y-95631000D02*
X141478000Y-81559040D01*
X141478000Y-81559040D02*
X140588960Y-80670000D01*
X144018000Y-83097357D02*
X140590633Y-79669990D01*
X144018000Y-95631000D02*
X144018000Y-83097357D01*
X146558000Y-84116438D02*
X141112500Y-78670938D01*
X146558000Y-95631000D02*
X146558000Y-84116438D01*
X141112500Y-78670938D02*
X140546815Y-78670938D01*
D16*
X151955500Y-89662000D02*
X153352500Y-88265000D01*
X153352500Y-84772500D02*
X153543000Y-84582000D01*
X153352500Y-88265000D02*
X153352500Y-84772500D01*
X151955500Y-91567000D02*
X149923500Y-91567000D01*
X149923500Y-91567000D02*
X147447000Y-94043500D01*
D17*
G36*
X155413131Y-63508500D02*
G01*
X155540606Y-63546987D01*
X155342931Y-63586307D01*
X155118903Y-63679102D01*
X154917283Y-63813820D01*
X154745820Y-63985283D01*
X154611102Y-64186903D01*
X154518307Y-64410931D01*
X154471000Y-64648757D01*
X154471000Y-64891243D01*
X154518307Y-65129069D01*
X154611102Y-65353097D01*
X154745820Y-65554717D01*
X154917283Y-65726180D01*
X155118903Y-65860898D01*
X155342931Y-65953693D01*
X155580757Y-66001000D01*
X155823243Y-66001000D01*
X156061069Y-65953693D01*
X156285097Y-65860898D01*
X156486717Y-65726180D01*
X156658180Y-65554717D01*
X156792898Y-65353097D01*
X156885693Y-65129069D01*
X156933000Y-64891243D01*
X156933000Y-64648757D01*
X156885693Y-64410931D01*
X156856346Y-64340082D01*
X157090160Y-64622714D01*
X157335390Y-65076254D01*
X157487855Y-65568789D01*
X157544000Y-66102979D01*
X157544001Y-99877685D01*
X157491500Y-100413131D01*
X157342478Y-100906718D01*
X157100423Y-101361957D01*
X156774555Y-101761510D01*
X156377286Y-102090160D01*
X155923742Y-102335391D01*
X155431211Y-102487855D01*
X154897021Y-102544000D01*
X153289887Y-102544000D01*
X153665769Y-102292844D01*
X154108844Y-101849769D01*
X154456965Y-101328768D01*
X154696755Y-100749863D01*
X154819000Y-100135301D01*
X154819000Y-99508699D01*
X154696755Y-98894137D01*
X154456965Y-98315232D01*
X154108844Y-97794231D01*
X153665769Y-97351156D01*
X153144768Y-97003035D01*
X152565863Y-96763245D01*
X151951301Y-96641000D01*
X151324699Y-96641000D01*
X150710137Y-96763245D01*
X150131232Y-97003035D01*
X149610231Y-97351156D01*
X149167156Y-97794231D01*
X148819035Y-98315232D01*
X148579245Y-98894137D01*
X148457000Y-99508699D01*
X148457000Y-100135301D01*
X148579245Y-100749863D01*
X148819035Y-101328768D01*
X149167156Y-101849769D01*
X149610231Y-102292844D01*
X149986113Y-102544000D01*
X121122304Y-102544000D01*
X120586869Y-102491500D01*
X120192860Y-102372542D01*
X120344097Y-102309898D01*
X120545717Y-102175180D01*
X120717180Y-102003717D01*
X120851898Y-101802097D01*
X120944693Y-101578069D01*
X120992000Y-101340243D01*
X120992000Y-101097757D01*
X127547000Y-101097757D01*
X127547000Y-101340243D01*
X127594307Y-101578069D01*
X127687102Y-101802097D01*
X127821820Y-102003717D01*
X127993283Y-102175180D01*
X128194903Y-102309898D01*
X128418931Y-102402693D01*
X128656757Y-102450000D01*
X128899243Y-102450000D01*
X129137069Y-102402693D01*
X129361097Y-102309898D01*
X129562717Y-102175180D01*
X129734180Y-102003717D01*
X129868898Y-101802097D01*
X129961693Y-101578069D01*
X130009000Y-101340243D01*
X130009000Y-101097757D01*
X130087000Y-101097757D01*
X130087000Y-101340243D01*
X130134307Y-101578069D01*
X130227102Y-101802097D01*
X130361820Y-102003717D01*
X130533283Y-102175180D01*
X130734903Y-102309898D01*
X130958931Y-102402693D01*
X131196757Y-102450000D01*
X131439243Y-102450000D01*
X131677069Y-102402693D01*
X131901097Y-102309898D01*
X132102717Y-102175180D01*
X132274180Y-102003717D01*
X132408898Y-101802097D01*
X132501693Y-101578069D01*
X132549000Y-101340243D01*
X132549000Y-101097757D01*
X132627000Y-101097757D01*
X132627000Y-101340243D01*
X132674307Y-101578069D01*
X132767102Y-101802097D01*
X132901820Y-102003717D01*
X133073283Y-102175180D01*
X133274903Y-102309898D01*
X133498931Y-102402693D01*
X133736757Y-102450000D01*
X133979243Y-102450000D01*
X134217069Y-102402693D01*
X134441097Y-102309898D01*
X134642717Y-102175180D01*
X134814180Y-102003717D01*
X134948898Y-101802097D01*
X135041693Y-101578069D01*
X135089000Y-101340243D01*
X135089000Y-101097757D01*
X135167000Y-101097757D01*
X135167000Y-101340243D01*
X135214307Y-101578069D01*
X135307102Y-101802097D01*
X135441820Y-102003717D01*
X135613283Y-102175180D01*
X135814903Y-102309898D01*
X136038931Y-102402693D01*
X136276757Y-102450000D01*
X136519243Y-102450000D01*
X136757069Y-102402693D01*
X136981097Y-102309898D01*
X137182717Y-102175180D01*
X137354180Y-102003717D01*
X137488898Y-101802097D01*
X137581693Y-101578069D01*
X137629000Y-101340243D01*
X137629000Y-101097757D01*
X137707000Y-101097757D01*
X137707000Y-101340243D01*
X137754307Y-101578069D01*
X137847102Y-101802097D01*
X137981820Y-102003717D01*
X138153283Y-102175180D01*
X138354903Y-102309898D01*
X138578931Y-102402693D01*
X138816757Y-102450000D01*
X139059243Y-102450000D01*
X139297069Y-102402693D01*
X139521097Y-102309898D01*
X139722717Y-102175180D01*
X139894180Y-102003717D01*
X140028898Y-101802097D01*
X140121693Y-101578069D01*
X140169000Y-101340243D01*
X140169000Y-101097757D01*
X140247000Y-101097757D01*
X140247000Y-101340243D01*
X140294307Y-101578069D01*
X140387102Y-101802097D01*
X140521820Y-102003717D01*
X140693283Y-102175180D01*
X140894903Y-102309898D01*
X141118931Y-102402693D01*
X141356757Y-102450000D01*
X141599243Y-102450000D01*
X141837069Y-102402693D01*
X142061097Y-102309898D01*
X142262717Y-102175180D01*
X142434180Y-102003717D01*
X142568898Y-101802097D01*
X142661693Y-101578069D01*
X142709000Y-101340243D01*
X142709000Y-101097757D01*
X142787000Y-101097757D01*
X142787000Y-101340243D01*
X142834307Y-101578069D01*
X142927102Y-101802097D01*
X143061820Y-102003717D01*
X143233283Y-102175180D01*
X143434903Y-102309898D01*
X143658931Y-102402693D01*
X143896757Y-102450000D01*
X144139243Y-102450000D01*
X144377069Y-102402693D01*
X144601097Y-102309898D01*
X144802717Y-102175180D01*
X144974180Y-102003717D01*
X145108898Y-101802097D01*
X145201693Y-101578069D01*
X145249000Y-101340243D01*
X145249000Y-101097757D01*
X145327000Y-101097757D01*
X145327000Y-101340243D01*
X145374307Y-101578069D01*
X145467102Y-101802097D01*
X145601820Y-102003717D01*
X145773283Y-102175180D01*
X145974903Y-102309898D01*
X146198931Y-102402693D01*
X146436757Y-102450000D01*
X146679243Y-102450000D01*
X146917069Y-102402693D01*
X147141097Y-102309898D01*
X147342717Y-102175180D01*
X147514180Y-102003717D01*
X147648898Y-101802097D01*
X147741693Y-101578069D01*
X147789000Y-101340243D01*
X147789000Y-101097757D01*
X147741693Y-100859931D01*
X147648898Y-100635903D01*
X147514180Y-100434283D01*
X147342717Y-100262820D01*
X147141097Y-100128102D01*
X146917069Y-100035307D01*
X146679243Y-99988000D01*
X146436757Y-99988000D01*
X146198931Y-100035307D01*
X145974903Y-100128102D01*
X145773283Y-100262820D01*
X145601820Y-100434283D01*
X145467102Y-100635903D01*
X145374307Y-100859931D01*
X145327000Y-101097757D01*
X145249000Y-101097757D01*
X145201693Y-100859931D01*
X145108898Y-100635903D01*
X144974180Y-100434283D01*
X144802717Y-100262820D01*
X144601097Y-100128102D01*
X144377069Y-100035307D01*
X144139243Y-99988000D01*
X143896757Y-99988000D01*
X143658931Y-100035307D01*
X143434903Y-100128102D01*
X143233283Y-100262820D01*
X143061820Y-100434283D01*
X142927102Y-100635903D01*
X142834307Y-100859931D01*
X142787000Y-101097757D01*
X142709000Y-101097757D01*
X142661693Y-100859931D01*
X142568898Y-100635903D01*
X142434180Y-100434283D01*
X142262717Y-100262820D01*
X142061097Y-100128102D01*
X141837069Y-100035307D01*
X141599243Y-99988000D01*
X141356757Y-99988000D01*
X141118931Y-100035307D01*
X140894903Y-100128102D01*
X140693283Y-100262820D01*
X140521820Y-100434283D01*
X140387102Y-100635903D01*
X140294307Y-100859931D01*
X140247000Y-101097757D01*
X140169000Y-101097757D01*
X140121693Y-100859931D01*
X140028898Y-100635903D01*
X139894180Y-100434283D01*
X139722717Y-100262820D01*
X139521097Y-100128102D01*
X139297069Y-100035307D01*
X139059243Y-99988000D01*
X138816757Y-99988000D01*
X138578931Y-100035307D01*
X138354903Y-100128102D01*
X138153283Y-100262820D01*
X137981820Y-100434283D01*
X137847102Y-100635903D01*
X137754307Y-100859931D01*
X137707000Y-101097757D01*
X137629000Y-101097757D01*
X137581693Y-100859931D01*
X137488898Y-100635903D01*
X137354180Y-100434283D01*
X137182717Y-100262820D01*
X136981097Y-100128102D01*
X136757069Y-100035307D01*
X136519243Y-99988000D01*
X136276757Y-99988000D01*
X136038931Y-100035307D01*
X135814903Y-100128102D01*
X135613283Y-100262820D01*
X135441820Y-100434283D01*
X135307102Y-100635903D01*
X135214307Y-100859931D01*
X135167000Y-101097757D01*
X135089000Y-101097757D01*
X135041693Y-100859931D01*
X134948898Y-100635903D01*
X134814180Y-100434283D01*
X134642717Y-100262820D01*
X134441097Y-100128102D01*
X134217069Y-100035307D01*
X133979243Y-99988000D01*
X133736757Y-99988000D01*
X133498931Y-100035307D01*
X133274903Y-100128102D01*
X133073283Y-100262820D01*
X132901820Y-100434283D01*
X132767102Y-100635903D01*
X132674307Y-100859931D01*
X132627000Y-101097757D01*
X132549000Y-101097757D01*
X132501693Y-100859931D01*
X132408898Y-100635903D01*
X132274180Y-100434283D01*
X132102717Y-100262820D01*
X131901097Y-100128102D01*
X131677069Y-100035307D01*
X131439243Y-99988000D01*
X131196757Y-99988000D01*
X130958931Y-100035307D01*
X130734903Y-100128102D01*
X130533283Y-100262820D01*
X130361820Y-100434283D01*
X130227102Y-100635903D01*
X130134307Y-100859931D01*
X130087000Y-101097757D01*
X130009000Y-101097757D01*
X129961693Y-100859931D01*
X129868898Y-100635903D01*
X129734180Y-100434283D01*
X129562717Y-100262820D01*
X129361097Y-100128102D01*
X129137069Y-100035307D01*
X128899243Y-99988000D01*
X128656757Y-99988000D01*
X128418931Y-100035307D01*
X128194903Y-100128102D01*
X127993283Y-100262820D01*
X127821820Y-100434283D01*
X127687102Y-100635903D01*
X127594307Y-100859931D01*
X127547000Y-101097757D01*
X120992000Y-101097757D01*
X120944693Y-100859931D01*
X120851898Y-100635903D01*
X120717180Y-100434283D01*
X120545717Y-100262820D01*
X120344097Y-100128102D01*
X120120069Y-100035307D01*
X119882243Y-99988000D01*
X119639757Y-99988000D01*
X119401931Y-100035307D01*
X119177903Y-100128102D01*
X118976283Y-100262820D01*
X118804820Y-100434283D01*
X118670102Y-100635903D01*
X118615966Y-100766600D01*
X118512145Y-100431211D01*
X118456000Y-99897021D01*
X118456000Y-98557757D01*
X118530000Y-98557757D01*
X118530000Y-98800243D01*
X118577307Y-99038069D01*
X118670102Y-99262097D01*
X118804820Y-99463717D01*
X118976283Y-99635180D01*
X119177903Y-99769898D01*
X119401931Y-99862693D01*
X119639757Y-99910000D01*
X119882243Y-99910000D01*
X120120069Y-99862693D01*
X120344097Y-99769898D01*
X120545717Y-99635180D01*
X120717180Y-99463717D01*
X120851898Y-99262097D01*
X120944693Y-99038069D01*
X120992000Y-98800243D01*
X120992000Y-98611927D01*
X125811000Y-98611927D01*
X125811000Y-98746073D01*
X125837171Y-98877640D01*
X125888506Y-99001574D01*
X125963033Y-99113112D01*
X126057888Y-99207967D01*
X126169426Y-99282494D01*
X126293360Y-99333829D01*
X126424927Y-99360000D01*
X126559073Y-99360000D01*
X126690640Y-99333829D01*
X126814574Y-99282494D01*
X126926112Y-99207967D01*
X127020967Y-99113112D01*
X127095494Y-99001574D01*
X127146829Y-98877640D01*
X127173000Y-98746073D01*
X127173000Y-98644577D01*
X128069409Y-97748169D01*
X128086853Y-97733853D01*
X128101170Y-97716408D01*
X128143987Y-97664237D01*
X128166678Y-97621783D01*
X128186441Y-97584809D01*
X128212585Y-97498627D01*
X128219200Y-97431460D01*
X128219200Y-97431451D01*
X128221411Y-97409001D01*
X128219200Y-97386551D01*
X128219200Y-96020464D01*
X128249033Y-96065112D01*
X128343888Y-96159967D01*
X128455426Y-96234494D01*
X128579360Y-96285829D01*
X128710927Y-96312000D01*
X128845073Y-96312000D01*
X128976640Y-96285829D01*
X129100574Y-96234494D01*
X129212112Y-96159967D01*
X129306967Y-96065112D01*
X129381494Y-95953574D01*
X129432829Y-95829640D01*
X129459000Y-95698073D01*
X129459000Y-95596577D01*
X132387408Y-92668170D01*
X132404853Y-92653853D01*
X132461987Y-92584236D01*
X132504441Y-92504809D01*
X132511800Y-92480550D01*
X132511800Y-92647621D01*
X131010592Y-94148830D01*
X130993148Y-94163147D01*
X130936014Y-94232764D01*
X130893560Y-94312191D01*
X130867416Y-94398373D01*
X130865442Y-94418415D01*
X130858589Y-94488000D01*
X130860801Y-94510459D01*
X130860800Y-95125121D01*
X130789033Y-95196888D01*
X130714506Y-95308426D01*
X130663171Y-95432360D01*
X130637000Y-95563927D01*
X130637000Y-95698073D01*
X130663171Y-95829640D01*
X130714506Y-95953574D01*
X130789033Y-96065112D01*
X130883888Y-96159967D01*
X130995426Y-96234494D01*
X131119360Y-96285829D01*
X131250927Y-96312000D01*
X131385073Y-96312000D01*
X131516640Y-96285829D01*
X131640574Y-96234494D01*
X131752112Y-96159967D01*
X131846967Y-96065112D01*
X131921494Y-95953574D01*
X131972829Y-95829640D01*
X131999000Y-95698073D01*
X131999000Y-95563927D01*
X131972829Y-95432360D01*
X131921494Y-95308426D01*
X131846967Y-95196888D01*
X131775200Y-95125121D01*
X131775200Y-94677377D01*
X133142801Y-93309778D01*
X133142801Y-95350540D01*
X133140589Y-95373000D01*
X133149416Y-95462626D01*
X133175560Y-95548809D01*
X133178801Y-95554873D01*
X133177000Y-95563927D01*
X133177000Y-95698073D01*
X133203171Y-95829640D01*
X133254506Y-95953574D01*
X133329033Y-96065112D01*
X133423888Y-96159967D01*
X133535426Y-96234494D01*
X133659360Y-96285829D01*
X133790927Y-96312000D01*
X133925073Y-96312000D01*
X134056640Y-96285829D01*
X134180574Y-96234494D01*
X134292112Y-96159967D01*
X134386967Y-96065112D01*
X134461494Y-95953574D01*
X134512829Y-95829640D01*
X134539000Y-95698073D01*
X134539000Y-95563927D01*
X134512829Y-95432360D01*
X134461494Y-95308426D01*
X134386967Y-95196888D01*
X134292112Y-95102033D01*
X134180574Y-95027506D01*
X134057200Y-94976403D01*
X134057200Y-91922199D01*
X134167360Y-91967829D01*
X134298927Y-91994000D01*
X134433073Y-91994000D01*
X134564640Y-91967829D01*
X134683500Y-91918596D01*
X134802360Y-91967829D01*
X134933927Y-91994000D01*
X135068073Y-91994000D01*
X135199640Y-91967829D01*
X135318500Y-91918596D01*
X135437360Y-91967829D01*
X135568927Y-91994000D01*
X135703073Y-91994000D01*
X135834640Y-91967829D01*
X135940800Y-91923856D01*
X135940800Y-95125121D01*
X135869033Y-95196888D01*
X135794506Y-95308426D01*
X135743171Y-95432360D01*
X135717000Y-95563927D01*
X135717000Y-95698073D01*
X135743171Y-95829640D01*
X135794506Y-95953574D01*
X135869033Y-96065112D01*
X135963888Y-96159967D01*
X136075426Y-96234494D01*
X136199360Y-96285829D01*
X136330927Y-96312000D01*
X136465073Y-96312000D01*
X136596640Y-96285829D01*
X136720574Y-96234494D01*
X136832112Y-96159967D01*
X136926967Y-96065112D01*
X137001494Y-95953574D01*
X137052829Y-95829640D01*
X137079000Y-95698073D01*
X137079000Y-95563927D01*
X137052829Y-95432360D01*
X137001494Y-95308426D01*
X136926967Y-95196888D01*
X136855200Y-95125121D01*
X136855200Y-86763450D01*
X136857411Y-86741000D01*
X136855200Y-86718550D01*
X136855200Y-86718540D01*
X136848585Y-86651373D01*
X136825283Y-86574559D01*
X136822441Y-86565190D01*
X136779987Y-86485764D01*
X136737171Y-86433592D01*
X136737165Y-86433586D01*
X136722853Y-86416147D01*
X136705413Y-86401834D01*
X136220200Y-85916623D01*
X136220200Y-85622547D01*
X136227560Y-85646809D01*
X136270013Y-85726235D01*
X136309058Y-85773810D01*
X136327148Y-85795853D01*
X136344593Y-85810170D01*
X138842800Y-88308379D01*
X138842801Y-94955595D01*
X138739360Y-94976171D01*
X138615426Y-95027506D01*
X138503888Y-95102033D01*
X138409033Y-95196888D01*
X138334506Y-95308426D01*
X138283171Y-95432360D01*
X138257000Y-95563927D01*
X138257000Y-95698073D01*
X138283171Y-95829640D01*
X138334506Y-95953574D01*
X138409033Y-96065112D01*
X138503888Y-96159967D01*
X138615426Y-96234494D01*
X138739360Y-96285829D01*
X138870927Y-96312000D01*
X139005073Y-96312000D01*
X139136640Y-96285829D01*
X139260574Y-96234494D01*
X139372112Y-96159967D01*
X139466967Y-96065112D01*
X139541494Y-95953574D01*
X139592829Y-95829640D01*
X139619000Y-95698073D01*
X139619000Y-95598657D01*
X139624853Y-95593853D01*
X139649413Y-95563927D01*
X139681987Y-95524237D01*
X139714918Y-95462626D01*
X139724441Y-95444809D01*
X139750585Y-95358627D01*
X139757200Y-95291460D01*
X139757200Y-95291451D01*
X139759411Y-95269001D01*
X139757200Y-95246551D01*
X139757200Y-88141452D01*
X139759411Y-88119000D01*
X139757200Y-88096548D01*
X139757200Y-88096540D01*
X139750585Y-88029373D01*
X139733176Y-87971985D01*
X139724441Y-87943190D01*
X139681987Y-87863764D01*
X139639171Y-87811592D01*
X139639165Y-87811586D01*
X139624853Y-87794147D01*
X139607415Y-87779836D01*
X137109200Y-85281623D01*
X137109200Y-83436879D01*
X137180967Y-83365112D01*
X137255494Y-83253574D01*
X137306829Y-83129640D01*
X137333000Y-82998073D01*
X137333000Y-82863927D01*
X137306829Y-82732360D01*
X137255494Y-82608426D01*
X137180967Y-82496888D01*
X137086112Y-82402033D01*
X136974574Y-82327506D01*
X136850640Y-82276171D01*
X136719073Y-82250000D01*
X136584927Y-82250000D01*
X136453360Y-82276171D01*
X136329426Y-82327506D01*
X136217888Y-82402033D01*
X136123033Y-82496888D01*
X136048506Y-82608426D01*
X135997171Y-82732360D01*
X135984945Y-82793824D01*
X135961640Y-82784171D01*
X135830073Y-82758000D01*
X135695927Y-82758000D01*
X135662261Y-82764697D01*
X135655829Y-82732360D01*
X135604494Y-82608426D01*
X135529967Y-82496888D01*
X135435112Y-82402033D01*
X135323574Y-82327506D01*
X135199640Y-82276171D01*
X135068073Y-82250000D01*
X134933927Y-82250000D01*
X134802360Y-82276171D01*
X134678426Y-82327506D01*
X134566888Y-82402033D01*
X134472033Y-82496888D01*
X134397506Y-82608426D01*
X134346171Y-82732360D01*
X134339739Y-82764697D01*
X134306073Y-82758000D01*
X134171927Y-82758000D01*
X134040360Y-82784171D01*
X134017055Y-82793824D01*
X134004829Y-82732360D01*
X133953494Y-82608426D01*
X133878967Y-82496888D01*
X133784112Y-82402033D01*
X133672574Y-82327506D01*
X133548640Y-82276171D01*
X133417073Y-82250000D01*
X133282927Y-82250000D01*
X133151360Y-82276171D01*
X133027426Y-82327506D01*
X132915888Y-82402033D01*
X132821033Y-82496888D01*
X132746506Y-82608426D01*
X132695171Y-82732360D01*
X132688739Y-82764697D01*
X132655073Y-82758000D01*
X132520927Y-82758000D01*
X132389360Y-82784171D01*
X132265426Y-82835506D01*
X132153888Y-82910033D01*
X132059033Y-83004888D01*
X131984506Y-83116426D01*
X131933171Y-83240360D01*
X131907000Y-83371927D01*
X131907000Y-83506073D01*
X131933171Y-83637640D01*
X131984506Y-83761574D01*
X132059033Y-83873112D01*
X132130801Y-83944880D01*
X132130800Y-84265622D01*
X131137593Y-85258830D01*
X131120148Y-85273147D01*
X131105831Y-85290592D01*
X131105830Y-85290593D01*
X131063013Y-85342765D01*
X131027533Y-85409145D01*
X131020560Y-85422191D01*
X131013200Y-85446453D01*
X131013200Y-82420879D01*
X131084967Y-82349112D01*
X131159494Y-82237574D01*
X131210829Y-82113640D01*
X131237000Y-81982073D01*
X131237000Y-81847927D01*
X131210829Y-81716360D01*
X131159494Y-81592426D01*
X131084967Y-81480888D01*
X130990112Y-81386033D01*
X130878574Y-81311506D01*
X130754640Y-81260171D01*
X130623073Y-81234000D01*
X130488927Y-81234000D01*
X130357360Y-81260171D01*
X130233426Y-81311506D01*
X130121888Y-81386033D01*
X130027033Y-81480888D01*
X129952506Y-81592426D01*
X129901171Y-81716360D01*
X129875000Y-81847927D01*
X129875000Y-81982073D01*
X129901171Y-82113640D01*
X129952506Y-82237574D01*
X130027033Y-82349112D01*
X130098800Y-82420879D01*
X130098801Y-90082005D01*
X128101116Y-92079692D01*
X127999620Y-92079692D01*
X127868053Y-92105863D01*
X127744119Y-92157198D01*
X127632581Y-92231725D01*
X127537726Y-92326580D01*
X127463199Y-92438118D01*
X127411864Y-92562052D01*
X127385693Y-92693619D01*
X127385693Y-92827765D01*
X127411864Y-92959332D01*
X127463199Y-93083266D01*
X127537726Y-93194804D01*
X127632581Y-93289659D01*
X127744119Y-93364186D01*
X127868053Y-93415521D01*
X127999620Y-93441692D01*
X128133766Y-93441692D01*
X128265333Y-93415521D01*
X128389267Y-93364186D01*
X128500805Y-93289659D01*
X128595660Y-93194804D01*
X128670187Y-93083266D01*
X128721522Y-92959332D01*
X128747693Y-92827765D01*
X128747693Y-92726269D01*
X130863414Y-90610550D01*
X130880853Y-90596238D01*
X130895165Y-90578799D01*
X130895171Y-90578793D01*
X130937987Y-90526621D01*
X130980441Y-90447195D01*
X130987800Y-90422935D01*
X130987800Y-90996621D01*
X127454593Y-94529830D01*
X127437148Y-94544147D01*
X127422831Y-94561592D01*
X127422830Y-94561593D01*
X127380013Y-94613765D01*
X127337560Y-94693191D01*
X127311416Y-94779374D01*
X127302589Y-94869000D01*
X127304801Y-94891460D01*
X127304800Y-97219622D01*
X126526423Y-97998000D01*
X126424927Y-97998000D01*
X126293360Y-98024171D01*
X126169426Y-98075506D01*
X126057888Y-98150033D01*
X125963033Y-98244888D01*
X125888506Y-98356426D01*
X125837171Y-98480360D01*
X125811000Y-98611927D01*
X120992000Y-98611927D01*
X120992000Y-98557757D01*
X120944693Y-98319931D01*
X120851898Y-98095903D01*
X120717180Y-97894283D01*
X120545717Y-97722820D01*
X120344097Y-97588102D01*
X120120069Y-97495307D01*
X119882243Y-97448000D01*
X119639757Y-97448000D01*
X119401931Y-97495307D01*
X119177903Y-97588102D01*
X118976283Y-97722820D01*
X118804820Y-97894283D01*
X118670102Y-98095903D01*
X118577307Y-98319931D01*
X118530000Y-98557757D01*
X118456000Y-98557757D01*
X118456000Y-96017757D01*
X118530000Y-96017757D01*
X118530000Y-96260243D01*
X118577307Y-96498069D01*
X118670102Y-96722097D01*
X118804820Y-96923717D01*
X118976283Y-97095180D01*
X119177903Y-97229898D01*
X119401931Y-97322693D01*
X119639757Y-97370000D01*
X119882243Y-97370000D01*
X120120069Y-97322693D01*
X120344097Y-97229898D01*
X120545717Y-97095180D01*
X120717180Y-96923717D01*
X120851898Y-96722097D01*
X120944693Y-96498069D01*
X120992000Y-96260243D01*
X120992000Y-96017757D01*
X120944693Y-95779931D01*
X120851898Y-95555903D01*
X120717180Y-95354283D01*
X120545717Y-95182820D01*
X120344097Y-95048102D01*
X120120069Y-94955307D01*
X119882243Y-94908000D01*
X119639757Y-94908000D01*
X119401931Y-94955307D01*
X119177903Y-95048102D01*
X118976283Y-95182820D01*
X118804820Y-95354283D01*
X118670102Y-95555903D01*
X118577307Y-95779931D01*
X118530000Y-96017757D01*
X118456000Y-96017757D01*
X118456000Y-93477757D01*
X118530000Y-93477757D01*
X118530000Y-93720243D01*
X118577307Y-93958069D01*
X118670102Y-94182097D01*
X118804820Y-94383717D01*
X118976283Y-94555180D01*
X119177903Y-94689898D01*
X119401931Y-94782693D01*
X119639757Y-94830000D01*
X119882243Y-94830000D01*
X120120069Y-94782693D01*
X120344097Y-94689898D01*
X120545717Y-94555180D01*
X120717180Y-94383717D01*
X120851898Y-94182097D01*
X120944693Y-93958069D01*
X120992000Y-93720243D01*
X120992000Y-93477757D01*
X120944693Y-93239931D01*
X120851898Y-93015903D01*
X120717180Y-92814283D01*
X120545717Y-92642820D01*
X120344097Y-92508102D01*
X120120069Y-92415307D01*
X119882243Y-92368000D01*
X119639757Y-92368000D01*
X119401931Y-92415307D01*
X119177903Y-92508102D01*
X118976283Y-92642820D01*
X118804820Y-92814283D01*
X118670102Y-93015903D01*
X118577307Y-93239931D01*
X118530000Y-93477757D01*
X118456000Y-93477757D01*
X118456000Y-90937757D01*
X118530000Y-90937757D01*
X118530000Y-91180243D01*
X118577307Y-91418069D01*
X118670102Y-91642097D01*
X118804820Y-91843717D01*
X118976283Y-92015180D01*
X119177903Y-92149898D01*
X119401931Y-92242693D01*
X119639757Y-92290000D01*
X119882243Y-92290000D01*
X120120069Y-92242693D01*
X120344097Y-92149898D01*
X120545717Y-92015180D01*
X120717180Y-91843717D01*
X120851898Y-91642097D01*
X120944693Y-91418069D01*
X120992000Y-91180243D01*
X120992000Y-90937757D01*
X120944693Y-90699931D01*
X120851898Y-90475903D01*
X120717180Y-90274283D01*
X120545717Y-90102820D01*
X120344097Y-89968102D01*
X120120069Y-89875307D01*
X119882243Y-89828000D01*
X119639757Y-89828000D01*
X119401931Y-89875307D01*
X119177903Y-89968102D01*
X118976283Y-90102820D01*
X118804820Y-90274283D01*
X118670102Y-90475903D01*
X118577307Y-90699931D01*
X118530000Y-90937757D01*
X118456000Y-90937757D01*
X118456000Y-88397757D01*
X118530000Y-88397757D01*
X118530000Y-88640243D01*
X118577307Y-88878069D01*
X118670102Y-89102097D01*
X118804820Y-89303717D01*
X118976283Y-89475180D01*
X119177903Y-89609898D01*
X119401931Y-89702693D01*
X119639757Y-89750000D01*
X119882243Y-89750000D01*
X120120069Y-89702693D01*
X120344097Y-89609898D01*
X120545717Y-89475180D01*
X120717180Y-89303717D01*
X120851898Y-89102097D01*
X120944693Y-88878069D01*
X120992000Y-88640243D01*
X120992000Y-88397757D01*
X120944693Y-88159931D01*
X120851898Y-87935903D01*
X120717180Y-87734283D01*
X120545717Y-87562820D01*
X120344097Y-87428102D01*
X120120069Y-87335307D01*
X119882243Y-87288000D01*
X119639757Y-87288000D01*
X119401931Y-87335307D01*
X119177903Y-87428102D01*
X118976283Y-87562820D01*
X118804820Y-87734283D01*
X118670102Y-87935903D01*
X118577307Y-88159931D01*
X118530000Y-88397757D01*
X118456000Y-88397757D01*
X118456000Y-85857757D01*
X118530000Y-85857757D01*
X118530000Y-86100243D01*
X118577307Y-86338069D01*
X118670102Y-86562097D01*
X118804820Y-86763717D01*
X118976283Y-86935180D01*
X119177903Y-87069898D01*
X119401931Y-87162693D01*
X119639757Y-87210000D01*
X119882243Y-87210000D01*
X120120069Y-87162693D01*
X120344097Y-87069898D01*
X120545717Y-86935180D01*
X120717180Y-86763717D01*
X120851898Y-86562097D01*
X120944693Y-86338069D01*
X120992000Y-86100243D01*
X120992000Y-85857757D01*
X120944693Y-85619931D01*
X120851898Y-85395903D01*
X120717180Y-85194283D01*
X120545717Y-85022820D01*
X120344097Y-84888102D01*
X120120069Y-84795307D01*
X119882243Y-84748000D01*
X119639757Y-84748000D01*
X119401931Y-84795307D01*
X119177903Y-84888102D01*
X118976283Y-85022820D01*
X118804820Y-85194283D01*
X118670102Y-85395903D01*
X118577307Y-85619931D01*
X118530000Y-85857757D01*
X118456000Y-85857757D01*
X118456000Y-83317757D01*
X118530000Y-83317757D01*
X118530000Y-83560243D01*
X118577307Y-83798069D01*
X118670102Y-84022097D01*
X118804820Y-84223717D01*
X118976283Y-84395180D01*
X119177903Y-84529898D01*
X119401931Y-84622693D01*
X119639757Y-84670000D01*
X119882243Y-84670000D01*
X120120069Y-84622693D01*
X120344097Y-84529898D01*
X120545717Y-84395180D01*
X120717180Y-84223717D01*
X120851898Y-84022097D01*
X120944693Y-83798069D01*
X120992000Y-83560243D01*
X120992000Y-83317757D01*
X120944693Y-83079931D01*
X120851898Y-82855903D01*
X120717180Y-82654283D01*
X120545717Y-82482820D01*
X120344097Y-82348102D01*
X120120069Y-82255307D01*
X119882243Y-82208000D01*
X119639757Y-82208000D01*
X119401931Y-82255307D01*
X119177903Y-82348102D01*
X118976283Y-82482820D01*
X118804820Y-82654283D01*
X118670102Y-82855903D01*
X118577307Y-83079931D01*
X118530000Y-83317757D01*
X118456000Y-83317757D01*
X118456000Y-80958927D01*
X123144000Y-80958927D01*
X123144000Y-81093073D01*
X123170171Y-81224640D01*
X123221506Y-81348574D01*
X123296033Y-81460112D01*
X123390888Y-81554967D01*
X123502426Y-81629494D01*
X123626360Y-81680829D01*
X123757927Y-81707000D01*
X123892073Y-81707000D01*
X124023640Y-81680829D01*
X124147574Y-81629494D01*
X124259112Y-81554967D01*
X124353967Y-81460112D01*
X124428494Y-81348574D01*
X124479829Y-81224640D01*
X124506000Y-81093073D01*
X124506000Y-80958927D01*
X124479829Y-80827360D01*
X124428494Y-80703426D01*
X124353967Y-80591888D01*
X124259112Y-80497033D01*
X124147574Y-80422506D01*
X124023640Y-80371171D01*
X123892073Y-80345000D01*
X123757927Y-80345000D01*
X123626360Y-80371171D01*
X123502426Y-80422506D01*
X123390888Y-80497033D01*
X123296033Y-80591888D01*
X123221506Y-80703426D01*
X123170171Y-80827360D01*
X123144000Y-80958927D01*
X118456000Y-80958927D01*
X118456000Y-72326500D01*
X118872000Y-72326500D01*
X118872000Y-78994000D01*
X118874440Y-79018776D01*
X118881667Y-79042601D01*
X118893403Y-79064557D01*
X118909197Y-79083803D01*
X118928443Y-79099597D01*
X118950399Y-79111333D01*
X118974224Y-79118560D01*
X118999000Y-79121000D01*
X123444000Y-79121000D01*
X123468776Y-79118560D01*
X123492601Y-79111333D01*
X123514557Y-79099597D01*
X123533803Y-79083803D01*
X124013741Y-78603865D01*
X139865815Y-78603865D01*
X139865815Y-78738011D01*
X139891986Y-78869578D01*
X139943321Y-78993512D01*
X140017848Y-79105050D01*
X140105171Y-79192373D01*
X140061666Y-79235878D01*
X139987139Y-79347416D01*
X139935804Y-79471350D01*
X139909633Y-79602917D01*
X139909633Y-79737063D01*
X139935804Y-79868630D01*
X139987139Y-79992564D01*
X140061666Y-80104102D01*
X140126723Y-80169159D01*
X140059993Y-80235888D01*
X139985466Y-80347426D01*
X139934131Y-80471360D01*
X139907960Y-80602927D01*
X139907960Y-80737073D01*
X139934131Y-80868640D01*
X139985466Y-80992574D01*
X140059993Y-81104112D01*
X140154848Y-81198967D01*
X140266386Y-81273494D01*
X140390320Y-81324829D01*
X140521887Y-81351000D01*
X140623383Y-81351000D01*
X141020801Y-81748419D01*
X141020800Y-95125121D01*
X140949033Y-95196888D01*
X140874506Y-95308426D01*
X140823171Y-95432360D01*
X140797000Y-95563927D01*
X140797000Y-95698073D01*
X140823171Y-95829640D01*
X140874506Y-95953574D01*
X140949033Y-96065112D01*
X141043888Y-96159967D01*
X141155426Y-96234494D01*
X141279360Y-96285829D01*
X141410927Y-96312000D01*
X141545073Y-96312000D01*
X141676640Y-96285829D01*
X141800574Y-96234494D01*
X141912112Y-96159967D01*
X142006967Y-96065112D01*
X142081494Y-95953574D01*
X142132829Y-95829640D01*
X142159000Y-95698073D01*
X142159000Y-95563927D01*
X142132829Y-95432360D01*
X142081494Y-95308426D01*
X142006967Y-95196888D01*
X141935200Y-95125121D01*
X141935200Y-92198427D01*
X142067000Y-92198427D01*
X142067000Y-92332573D01*
X142093171Y-92464140D01*
X142142404Y-92583000D01*
X142093171Y-92701860D01*
X142067000Y-92833427D01*
X142067000Y-92967573D01*
X142093171Y-93099140D01*
X142144506Y-93223074D01*
X142219033Y-93334612D01*
X142313888Y-93429467D01*
X142425426Y-93503994D01*
X142549360Y-93555329D01*
X142680927Y-93581500D01*
X142815073Y-93581500D01*
X142946640Y-93555329D01*
X143070574Y-93503994D01*
X143182112Y-93429467D01*
X143276967Y-93334612D01*
X143351494Y-93223074D01*
X143402829Y-93099140D01*
X143429000Y-92967573D01*
X143429000Y-92833427D01*
X143402829Y-92701860D01*
X143353596Y-92583000D01*
X143402829Y-92464140D01*
X143429000Y-92332573D01*
X143429000Y-92198427D01*
X143402829Y-92066860D01*
X143351494Y-91942926D01*
X143276967Y-91831388D01*
X143182112Y-91736533D01*
X143070574Y-91662006D01*
X142946640Y-91610671D01*
X142815073Y-91584500D01*
X142680927Y-91584500D01*
X142549360Y-91610671D01*
X142425426Y-91662006D01*
X142313888Y-91736533D01*
X142219033Y-91831388D01*
X142144506Y-91942926D01*
X142093171Y-92066860D01*
X142067000Y-92198427D01*
X141935200Y-92198427D01*
X141935200Y-88261427D01*
X142067000Y-88261427D01*
X142067000Y-88395573D01*
X142093171Y-88527140D01*
X142142404Y-88646000D01*
X142093171Y-88764860D01*
X142067000Y-88896427D01*
X142067000Y-89030573D01*
X142093171Y-89162140D01*
X142144506Y-89286074D01*
X142219033Y-89397612D01*
X142313888Y-89492467D01*
X142425426Y-89566994D01*
X142549360Y-89618329D01*
X142680927Y-89644500D01*
X142815073Y-89644500D01*
X142946640Y-89618329D01*
X143070574Y-89566994D01*
X143182112Y-89492467D01*
X143276967Y-89397612D01*
X143351494Y-89286074D01*
X143402829Y-89162140D01*
X143429000Y-89030573D01*
X143429000Y-88896427D01*
X143402829Y-88764860D01*
X143353596Y-88646000D01*
X143402829Y-88527140D01*
X143429000Y-88395573D01*
X143429000Y-88261427D01*
X143402829Y-88129860D01*
X143351494Y-88005926D01*
X143276967Y-87894388D01*
X143182112Y-87799533D01*
X143070574Y-87725006D01*
X142946640Y-87673671D01*
X142815073Y-87647500D01*
X142680927Y-87647500D01*
X142549360Y-87673671D01*
X142425426Y-87725006D01*
X142313888Y-87799533D01*
X142219033Y-87894388D01*
X142144506Y-88005926D01*
X142093171Y-88129860D01*
X142067000Y-88261427D01*
X141935200Y-88261427D01*
X141935200Y-81661134D01*
X143560801Y-83286736D01*
X143560800Y-95125121D01*
X143489033Y-95196888D01*
X143414506Y-95308426D01*
X143363171Y-95432360D01*
X143337000Y-95563927D01*
X143337000Y-95698073D01*
X143363171Y-95829640D01*
X143414506Y-95953574D01*
X143489033Y-96065112D01*
X143583888Y-96159967D01*
X143695426Y-96234494D01*
X143819360Y-96285829D01*
X143950927Y-96312000D01*
X144085073Y-96312000D01*
X144216640Y-96285829D01*
X144340574Y-96234494D01*
X144452112Y-96159967D01*
X144546967Y-96065112D01*
X144621494Y-95953574D01*
X144672829Y-95829640D01*
X144699000Y-95698073D01*
X144699000Y-95563927D01*
X144672829Y-95432360D01*
X144621494Y-95308426D01*
X144546967Y-95196888D01*
X144475200Y-95125121D01*
X144475200Y-83119807D01*
X144477411Y-83097357D01*
X144475200Y-83074907D01*
X144475200Y-83074897D01*
X144468585Y-83007730D01*
X144442441Y-82921548D01*
X144399987Y-82842121D01*
X144342853Y-82772504D01*
X144325408Y-82758187D01*
X141271633Y-79704413D01*
X141271633Y-79602917D01*
X141245462Y-79471350D01*
X141230703Y-79435718D01*
X146100801Y-84305817D01*
X146100800Y-95125121D01*
X146029033Y-95196888D01*
X145954506Y-95308426D01*
X145903171Y-95432360D01*
X145877000Y-95563927D01*
X145877000Y-95698073D01*
X145903171Y-95829640D01*
X145954506Y-95953574D01*
X146029033Y-96065112D01*
X146123888Y-96159967D01*
X146235426Y-96234494D01*
X146359360Y-96285829D01*
X146490927Y-96312000D01*
X146625073Y-96312000D01*
X146756640Y-96285829D01*
X146880574Y-96234494D01*
X146992112Y-96159967D01*
X147086967Y-96065112D01*
X147161494Y-95953574D01*
X147212829Y-95829640D01*
X147239000Y-95698073D01*
X147239000Y-95563927D01*
X147212829Y-95432360D01*
X147161494Y-95308426D01*
X147086967Y-95196888D01*
X147015200Y-95125121D01*
X147015200Y-94674886D01*
X147021608Y-94680145D01*
X147153985Y-94750901D01*
X147297622Y-94794473D01*
X147447000Y-94809186D01*
X147596378Y-94794473D01*
X147740015Y-94750901D01*
X147872392Y-94680145D01*
X147959351Y-94608779D01*
X149598373Y-92969757D01*
X154979000Y-92969757D01*
X154979000Y-93212243D01*
X155026307Y-93450069D01*
X155119102Y-93674097D01*
X155253820Y-93875717D01*
X155425283Y-94047180D01*
X155626903Y-94181898D01*
X155850931Y-94274693D01*
X156088757Y-94322000D01*
X156331243Y-94322000D01*
X156569069Y-94274693D01*
X156793097Y-94181898D01*
X156994717Y-94047180D01*
X157166180Y-93875717D01*
X157300898Y-93674097D01*
X157393693Y-93450069D01*
X157441000Y-93212243D01*
X157441000Y-92969757D01*
X157393693Y-92731931D01*
X157300898Y-92507903D01*
X157166180Y-92306283D01*
X156994717Y-92134820D01*
X156793097Y-92000102D01*
X156569069Y-91907307D01*
X156331243Y-91860000D01*
X156088757Y-91860000D01*
X155850931Y-91907307D01*
X155626903Y-92000102D01*
X155425283Y-92134820D01*
X155253820Y-92306283D01*
X155119102Y-92507903D01*
X155026307Y-92731931D01*
X154979000Y-92969757D01*
X149598373Y-92969757D01*
X150239131Y-92329000D01*
X151992926Y-92329000D01*
X152104878Y-92317974D01*
X152248515Y-92274402D01*
X152380892Y-92203645D01*
X152496922Y-92108422D01*
X152592145Y-91992392D01*
X152662902Y-91860015D01*
X152706474Y-91716378D01*
X152721186Y-91567000D01*
X152706474Y-91417622D01*
X152662902Y-91273985D01*
X152592145Y-91141608D01*
X152496922Y-91025578D01*
X152380892Y-90930355D01*
X152248515Y-90859598D01*
X152104878Y-90816026D01*
X151992926Y-90805000D01*
X149960923Y-90805000D01*
X149923500Y-90801314D01*
X149886077Y-90805000D01*
X149886074Y-90805000D01*
X149774122Y-90816026D01*
X149630485Y-90859598D01*
X149568864Y-90892535D01*
X149498107Y-90930355D01*
X149457713Y-90963506D01*
X149382078Y-91025578D01*
X149358221Y-91054648D01*
X147015200Y-93397670D01*
X147015200Y-84138888D01*
X147017411Y-84116438D01*
X147015200Y-84093988D01*
X147015200Y-84093978D01*
X147008585Y-84026811D01*
X147002554Y-84006927D01*
X147147000Y-84006927D01*
X147147000Y-84141073D01*
X147173171Y-84272640D01*
X147224506Y-84396574D01*
X147299033Y-84508112D01*
X147393888Y-84602967D01*
X147505426Y-84677494D01*
X147629360Y-84728829D01*
X147760927Y-84755000D01*
X147895073Y-84755000D01*
X148026640Y-84728829D01*
X148150574Y-84677494D01*
X148262112Y-84602967D01*
X148356967Y-84508112D01*
X148431494Y-84396574D01*
X148482829Y-84272640D01*
X148509000Y-84141073D01*
X148509000Y-84006927D01*
X148482829Y-83875360D01*
X148431494Y-83751426D01*
X148356967Y-83639888D01*
X148262112Y-83545033D01*
X148150574Y-83470506D01*
X148026640Y-83419171D01*
X147895073Y-83393000D01*
X147760927Y-83393000D01*
X147629360Y-83419171D01*
X147505426Y-83470506D01*
X147393888Y-83545033D01*
X147299033Y-83639888D01*
X147224506Y-83751426D01*
X147173171Y-83875360D01*
X147147000Y-84006927D01*
X147002554Y-84006927D01*
X146982441Y-83940629D01*
X146939987Y-83861202D01*
X146882853Y-83791585D01*
X146865408Y-83777268D01*
X145317067Y-82228927D01*
X150703000Y-82228927D01*
X150703000Y-82363073D01*
X150729171Y-82494640D01*
X150780506Y-82618574D01*
X150855033Y-82730112D01*
X150949888Y-82824967D01*
X151061426Y-82899494D01*
X151185360Y-82950829D01*
X151316927Y-82977000D01*
X151451073Y-82977000D01*
X151582640Y-82950829D01*
X151630512Y-82931000D01*
X152263976Y-82931000D01*
X153222347Y-83889372D01*
X153117608Y-83945355D01*
X153030650Y-84016721D01*
X152840150Y-84207220D01*
X152811079Y-84231078D01*
X152787222Y-84260148D01*
X152787221Y-84260149D01*
X152715855Y-84347108D01*
X152645099Y-84479485D01*
X152601527Y-84623122D01*
X152586814Y-84772500D01*
X152590501Y-84809933D01*
X152590500Y-87949369D01*
X151390221Y-89149649D01*
X151318855Y-89236608D01*
X151248099Y-89368985D01*
X151204527Y-89512622D01*
X151189814Y-89662000D01*
X151204527Y-89811378D01*
X151248099Y-89955015D01*
X151318855Y-90087392D01*
X151414079Y-90203421D01*
X151530108Y-90298645D01*
X151662485Y-90369401D01*
X151806122Y-90412973D01*
X151955500Y-90427686D01*
X152104878Y-90412973D01*
X152248515Y-90369401D01*
X152380892Y-90298645D01*
X152467851Y-90227279D01*
X153864853Y-88830278D01*
X153893922Y-88806422D01*
X153989145Y-88690392D01*
X154059902Y-88558015D01*
X154103474Y-88414378D01*
X154114500Y-88302426D01*
X154114500Y-88302424D01*
X154118186Y-88265001D01*
X154114500Y-88227578D01*
X154114500Y-85086770D01*
X154179645Y-85007392D01*
X154235628Y-84902653D01*
X154992355Y-85659380D01*
X155026307Y-85830069D01*
X155119102Y-86054097D01*
X155253820Y-86255717D01*
X155425283Y-86427180D01*
X155626903Y-86561898D01*
X155850931Y-86654693D01*
X156088757Y-86702000D01*
X156331243Y-86702000D01*
X156569069Y-86654693D01*
X156793097Y-86561898D01*
X156994717Y-86427180D01*
X157166180Y-86255717D01*
X157300898Y-86054097D01*
X157393693Y-85830069D01*
X157441000Y-85592243D01*
X157441000Y-85349757D01*
X157393693Y-85111931D01*
X157300898Y-84887903D01*
X157166180Y-84686283D01*
X156994717Y-84514820D01*
X156793097Y-84380102D01*
X156569069Y-84287307D01*
X156331243Y-84240000D01*
X156088757Y-84240000D01*
X155850931Y-84287307D01*
X155626903Y-84380102D01*
X155556302Y-84427276D01*
X153938782Y-82809757D01*
X154979000Y-82809757D01*
X154979000Y-83052243D01*
X155026307Y-83290069D01*
X155119102Y-83514097D01*
X155253820Y-83715717D01*
X155425283Y-83887180D01*
X155626903Y-84021898D01*
X155850931Y-84114693D01*
X156088757Y-84162000D01*
X156331243Y-84162000D01*
X156569069Y-84114693D01*
X156793097Y-84021898D01*
X156994717Y-83887180D01*
X157166180Y-83715717D01*
X157300898Y-83514097D01*
X157393693Y-83290069D01*
X157441000Y-83052243D01*
X157441000Y-82809757D01*
X157393693Y-82571931D01*
X157300898Y-82347903D01*
X157166180Y-82146283D01*
X156994717Y-81974820D01*
X156793097Y-81840102D01*
X156569069Y-81747307D01*
X156331243Y-81700000D01*
X156088757Y-81700000D01*
X155850931Y-81747307D01*
X155626903Y-81840102D01*
X155425283Y-81974820D01*
X155253820Y-82146283D01*
X155119102Y-82347903D01*
X155026307Y-82571931D01*
X154979000Y-82809757D01*
X153938782Y-82809757D01*
X152998074Y-81869050D01*
X152978185Y-81844815D01*
X152881494Y-81765463D01*
X152771180Y-81706498D01*
X152651482Y-81670188D01*
X152558192Y-81661000D01*
X152558181Y-81661000D01*
X152527000Y-81657929D01*
X152495819Y-81661000D01*
X152019000Y-81661000D01*
X152019000Y-78749024D01*
X154096955Y-76671070D01*
X154121185Y-76651185D01*
X154200537Y-76554494D01*
X154259502Y-76444180D01*
X154295812Y-76324482D01*
X154305000Y-76231192D01*
X154305000Y-76231182D01*
X154308071Y-76200001D01*
X154305000Y-76168820D01*
X154305000Y-72128512D01*
X154324829Y-72080640D01*
X154351000Y-71949073D01*
X154351000Y-71814927D01*
X154324829Y-71683360D01*
X154273494Y-71559426D01*
X154198967Y-71447888D01*
X154104112Y-71353033D01*
X153992574Y-71278506D01*
X153868640Y-71227171D01*
X153737073Y-71201000D01*
X153602927Y-71201000D01*
X153471360Y-71227171D01*
X153347426Y-71278506D01*
X153235888Y-71353033D01*
X153141033Y-71447888D01*
X153066506Y-71559426D01*
X153015171Y-71683360D01*
X152989000Y-71814927D01*
X152989000Y-71949073D01*
X153015171Y-72080640D01*
X153035000Y-72128512D01*
X153035001Y-75936974D01*
X150957050Y-78014926D01*
X150932815Y-78034815D01*
X150853463Y-78131507D01*
X150794498Y-78241821D01*
X150758188Y-78361519D01*
X150749000Y-78454809D01*
X150749000Y-78454819D01*
X150745929Y-78486000D01*
X150749000Y-78517181D01*
X150749001Y-82049486D01*
X150729171Y-82097360D01*
X150703000Y-82228927D01*
X145317067Y-82228927D01*
X141451674Y-78363535D01*
X141437353Y-78346085D01*
X141367736Y-78288951D01*
X141288309Y-78246497D01*
X141202127Y-78220353D01*
X141134960Y-78213738D01*
X141134950Y-78213738D01*
X141112500Y-78211527D01*
X141090050Y-78213738D01*
X141052694Y-78213738D01*
X140980927Y-78141971D01*
X140869389Y-78067444D01*
X140745455Y-78016109D01*
X140613888Y-77989938D01*
X140479742Y-77989938D01*
X140348175Y-78016109D01*
X140224241Y-78067444D01*
X140112703Y-78141971D01*
X140017848Y-78236826D01*
X139943321Y-78348364D01*
X139891986Y-78472298D01*
X139865815Y-78603865D01*
X124013741Y-78603865D01*
X124131606Y-78486000D01*
X127000000Y-78486000D01*
X127024776Y-78483560D01*
X127048601Y-78476333D01*
X127070557Y-78464597D01*
X127089803Y-78448803D01*
X127105597Y-78429557D01*
X127117333Y-78407601D01*
X127124560Y-78383776D01*
X127127000Y-78359000D01*
X127127000Y-77783927D01*
X127716000Y-77783927D01*
X127716000Y-77918073D01*
X127742171Y-78049640D01*
X127793506Y-78173574D01*
X127868033Y-78285112D01*
X127962888Y-78379967D01*
X128074426Y-78454494D01*
X128198360Y-78505829D01*
X128329927Y-78532000D01*
X128464073Y-78532000D01*
X128595640Y-78505829D01*
X128719574Y-78454494D01*
X128831112Y-78379967D01*
X128902879Y-78308200D01*
X136375550Y-78308200D01*
X136398000Y-78310411D01*
X136420450Y-78308200D01*
X136420460Y-78308200D01*
X136487627Y-78301585D01*
X136573809Y-78275441D01*
X136653236Y-78232987D01*
X136722853Y-78175853D01*
X136737174Y-78158403D01*
X138762650Y-76132927D01*
X150830000Y-76132927D01*
X150830000Y-76267073D01*
X150856171Y-76398640D01*
X150907506Y-76522574D01*
X150982033Y-76634112D01*
X151076888Y-76728967D01*
X151188426Y-76803494D01*
X151312360Y-76854829D01*
X151443927Y-76881000D01*
X151578073Y-76881000D01*
X151709640Y-76854829D01*
X151833574Y-76803494D01*
X151945112Y-76728967D01*
X152039967Y-76634112D01*
X152114494Y-76522574D01*
X152165829Y-76398640D01*
X152192000Y-76267073D01*
X152192000Y-76132927D01*
X152165829Y-76001360D01*
X152114494Y-75877426D01*
X152039967Y-75765888D01*
X151945112Y-75671033D01*
X151833574Y-75596506D01*
X151709640Y-75545171D01*
X151578073Y-75519000D01*
X151443927Y-75519000D01*
X151312360Y-75545171D01*
X151188426Y-75596506D01*
X151076888Y-75671033D01*
X150982033Y-75765888D01*
X150907506Y-75877426D01*
X150856171Y-76001360D01*
X150830000Y-76132927D01*
X138762650Y-76132927D01*
X140769408Y-74126170D01*
X140786853Y-74111853D01*
X140843987Y-74042236D01*
X140886441Y-73962809D01*
X140912585Y-73876627D01*
X140919200Y-73809460D01*
X140919200Y-73809450D01*
X140921411Y-73787000D01*
X140919200Y-73764550D01*
X140919200Y-72260879D01*
X140990967Y-72189112D01*
X141065494Y-72077574D01*
X141116829Y-71953640D01*
X141143000Y-71822073D01*
X141143000Y-71687927D01*
X141116829Y-71556360D01*
X141072856Y-71450200D01*
X148908623Y-71450200D01*
X150830000Y-73371578D01*
X150830000Y-73473073D01*
X150856171Y-73604640D01*
X150907506Y-73728574D01*
X150982033Y-73840112D01*
X151076888Y-73934967D01*
X151188426Y-74009494D01*
X151312360Y-74060829D01*
X151443927Y-74087000D01*
X151578073Y-74087000D01*
X151709640Y-74060829D01*
X151833574Y-74009494D01*
X151945112Y-73934967D01*
X152039967Y-73840112D01*
X152114494Y-73728574D01*
X152165829Y-73604640D01*
X152192000Y-73473073D01*
X152192000Y-73338927D01*
X152165829Y-73207360D01*
X152114494Y-73083426D01*
X152039967Y-72971888D01*
X151945112Y-72877033D01*
X151833574Y-72802506D01*
X151709640Y-72751171D01*
X151578073Y-72725000D01*
X151476578Y-72725000D01*
X149437174Y-70685597D01*
X149422853Y-70668147D01*
X149353236Y-70611013D01*
X149273809Y-70568559D01*
X149187627Y-70542415D01*
X149120460Y-70535800D01*
X149120450Y-70535800D01*
X149098000Y-70533589D01*
X149075550Y-70535800D01*
X132038950Y-70535800D01*
X132016500Y-70533589D01*
X131994050Y-70535800D01*
X131994040Y-70535800D01*
X131926873Y-70542415D01*
X131840691Y-70568559D01*
X131761264Y-70611013D01*
X131691647Y-70668147D01*
X131677330Y-70685592D01*
X131606422Y-70756500D01*
X131504927Y-70756500D01*
X131373360Y-70782671D01*
X131249426Y-70834006D01*
X131137888Y-70908533D01*
X131043033Y-71003388D01*
X130968506Y-71114926D01*
X130917171Y-71238860D01*
X130891000Y-71370427D01*
X130891000Y-71504573D01*
X130917171Y-71636140D01*
X130968506Y-71760074D01*
X131043033Y-71871612D01*
X131137888Y-71966467D01*
X131249426Y-72040994D01*
X131373360Y-72092329D01*
X131504927Y-72118500D01*
X131639073Y-72118500D01*
X131770640Y-72092329D01*
X131894574Y-72040994D01*
X132006112Y-71966467D01*
X132100967Y-71871612D01*
X132175494Y-71760074D01*
X132226829Y-71636140D01*
X132253000Y-71504573D01*
X132253000Y-71450200D01*
X139851144Y-71450200D01*
X139807171Y-71556360D01*
X139781000Y-71687927D01*
X139781000Y-71822073D01*
X139807171Y-71953640D01*
X139858506Y-72077574D01*
X139933033Y-72189112D01*
X140004800Y-72260879D01*
X140004801Y-73597621D01*
X136208623Y-77393800D01*
X128902879Y-77393800D01*
X128831112Y-77322033D01*
X128719574Y-77247506D01*
X128595640Y-77196171D01*
X128464073Y-77170000D01*
X128329927Y-77170000D01*
X128198360Y-77196171D01*
X128074426Y-77247506D01*
X127962888Y-77322033D01*
X127868033Y-77416888D01*
X127793506Y-77528426D01*
X127742171Y-77652360D01*
X127716000Y-77783927D01*
X127127000Y-77783927D01*
X127127000Y-76581000D01*
X131445000Y-76581000D01*
X131469776Y-76578560D01*
X131493601Y-76571333D01*
X131515557Y-76559597D01*
X131534803Y-76543803D01*
X131550597Y-76524557D01*
X131562333Y-76502601D01*
X131569560Y-76478776D01*
X131572000Y-76454000D01*
X131572000Y-75819000D01*
X131569560Y-75794224D01*
X131562333Y-75770399D01*
X131550597Y-75748443D01*
X131534803Y-75729197D01*
X131515557Y-75713403D01*
X131493601Y-75701667D01*
X131469776Y-75694440D01*
X131445000Y-75692000D01*
X131318000Y-75692000D01*
X131293224Y-75694440D01*
X131269399Y-75701667D01*
X131247443Y-75713403D01*
X131228197Y-75729197D01*
X131212403Y-75748443D01*
X131200667Y-75770399D01*
X131193440Y-75794224D01*
X131191000Y-75819000D01*
X131191000Y-76200000D01*
X126873000Y-76200000D01*
X126848224Y-76202440D01*
X126824399Y-76209667D01*
X126802443Y-76221403D01*
X126783197Y-76237197D01*
X126767403Y-76256443D01*
X126755667Y-76278399D01*
X126748440Y-76302224D01*
X126746000Y-76327000D01*
X126746000Y-78105000D01*
X123952000Y-78105000D01*
X123927224Y-78107440D01*
X123903399Y-78114667D01*
X123881443Y-78126403D01*
X123862197Y-78142197D01*
X123264394Y-78740000D01*
X119253000Y-78740000D01*
X119253000Y-72580500D01*
X123655667Y-72580500D01*
X124383800Y-73126600D01*
X124411399Y-73142333D01*
X124435224Y-73149560D01*
X124460000Y-73152000D01*
X126746000Y-73152000D01*
X126746000Y-75184000D01*
X126748440Y-75208776D01*
X126755667Y-75232601D01*
X126767403Y-75254557D01*
X126783197Y-75273803D01*
X126802443Y-75289597D01*
X126824399Y-75301333D01*
X126848224Y-75308560D01*
X126873000Y-75311000D01*
X129032000Y-75311000D01*
X129055256Y-75308853D01*
X129079167Y-75301917D01*
X129691460Y-75057000D01*
X131191000Y-75057000D01*
X131191000Y-75438000D01*
X131193440Y-75462776D01*
X131200667Y-75486601D01*
X131212403Y-75508557D01*
X131228197Y-75527803D01*
X131247443Y-75543597D01*
X131269399Y-75555333D01*
X131293224Y-75562560D01*
X131318000Y-75565000D01*
X131445000Y-75565000D01*
X131469776Y-75562560D01*
X131493601Y-75555333D01*
X131515557Y-75543597D01*
X131534803Y-75527803D01*
X131550597Y-75508557D01*
X131562333Y-75486601D01*
X131569560Y-75462776D01*
X131572000Y-75438000D01*
X131572000Y-74803000D01*
X131569560Y-74778224D01*
X131562333Y-74754399D01*
X131550597Y-74732443D01*
X131534803Y-74713197D01*
X131515557Y-74697403D01*
X131493601Y-74685667D01*
X131469776Y-74678440D01*
X131445000Y-74676000D01*
X129667000Y-74676000D01*
X129643744Y-74678147D01*
X129619833Y-74685083D01*
X129007541Y-74930000D01*
X127127000Y-74930000D01*
X127127000Y-72898000D01*
X127124560Y-72873224D01*
X127117333Y-72849399D01*
X127105597Y-72827443D01*
X127089803Y-72808197D01*
X127070557Y-72792403D01*
X127048601Y-72780667D01*
X127024776Y-72773440D01*
X127000000Y-72771000D01*
X124629333Y-72771000D01*
X123901200Y-72224900D01*
X123873601Y-72209167D01*
X123849776Y-72201940D01*
X123825000Y-72199500D01*
X118999000Y-72199500D01*
X118974224Y-72201940D01*
X118950399Y-72209167D01*
X118928443Y-72220903D01*
X118909197Y-72236697D01*
X118893403Y-72255943D01*
X118881667Y-72277899D01*
X118874440Y-72301724D01*
X118872000Y-72326500D01*
X118456000Y-72326500D01*
X118456000Y-67848819D01*
X118687156Y-68194769D01*
X119130231Y-68637844D01*
X119651232Y-68985965D01*
X119991721Y-69127000D01*
X119830257Y-69127000D01*
X119592431Y-69174307D01*
X119368403Y-69267102D01*
X119166783Y-69401820D01*
X118995320Y-69573283D01*
X118860602Y-69774903D01*
X118767807Y-69998931D01*
X118720500Y-70236757D01*
X118720500Y-70479243D01*
X118767807Y-70717069D01*
X118860602Y-70941097D01*
X118995320Y-71142717D01*
X119166783Y-71314180D01*
X119368403Y-71448898D01*
X119592431Y-71541693D01*
X119830257Y-71589000D01*
X120072743Y-71589000D01*
X120310569Y-71541693D01*
X120534597Y-71448898D01*
X120736217Y-71314180D01*
X120907680Y-71142717D01*
X121042398Y-70941097D01*
X121135193Y-70717069D01*
X121182500Y-70479243D01*
X121182500Y-70236757D01*
X121135193Y-69998931D01*
X121042398Y-69774903D01*
X120907680Y-69573283D01*
X120736217Y-69401820D01*
X120575543Y-69294461D01*
X120844699Y-69348000D01*
X121471301Y-69348000D01*
X121936493Y-69255467D01*
X121908403Y-69267102D01*
X121706783Y-69401820D01*
X121535320Y-69573283D01*
X121400602Y-69774903D01*
X121307807Y-69998931D01*
X121260500Y-70236757D01*
X121260500Y-70479243D01*
X121307807Y-70717069D01*
X121400602Y-70941097D01*
X121535320Y-71142717D01*
X121706783Y-71314180D01*
X121908403Y-71448898D01*
X122132431Y-71541693D01*
X122370257Y-71589000D01*
X122612743Y-71589000D01*
X122850569Y-71541693D01*
X123074597Y-71448898D01*
X123276217Y-71314180D01*
X123447680Y-71142717D01*
X123582398Y-70941097D01*
X123675193Y-70717069D01*
X123709434Y-70544927D01*
X127335000Y-70544927D01*
X127335000Y-70679073D01*
X127361171Y-70810640D01*
X127412506Y-70934574D01*
X127487033Y-71046112D01*
X127581888Y-71140967D01*
X127693426Y-71215494D01*
X127817360Y-71266829D01*
X127948927Y-71293000D01*
X128083073Y-71293000D01*
X128214640Y-71266829D01*
X128338574Y-71215494D01*
X128450112Y-71140967D01*
X128544967Y-71046112D01*
X128619494Y-70934574D01*
X128670829Y-70810640D01*
X128697000Y-70679073D01*
X128697000Y-70544927D01*
X128670829Y-70413360D01*
X128619494Y-70289426D01*
X128544967Y-70177888D01*
X128450112Y-70083033D01*
X128338574Y-70008506D01*
X128214640Y-69957171D01*
X128083073Y-69931000D01*
X127948927Y-69931000D01*
X127817360Y-69957171D01*
X127693426Y-70008506D01*
X127581888Y-70083033D01*
X127487033Y-70177888D01*
X127412506Y-70289426D01*
X127361171Y-70413360D01*
X127335000Y-70544927D01*
X123709434Y-70544927D01*
X123722500Y-70479243D01*
X123722500Y-70236757D01*
X123675193Y-69998931D01*
X123582398Y-69774903D01*
X123447680Y-69573283D01*
X123276217Y-69401820D01*
X123074597Y-69267102D01*
X122850569Y-69174307D01*
X122612743Y-69127000D01*
X122370257Y-69127000D01*
X122281800Y-69144595D01*
X122664768Y-68985965D01*
X123185769Y-68637844D01*
X123628844Y-68194769D01*
X123976965Y-67673768D01*
X124102819Y-67369927D01*
X132288000Y-67369927D01*
X132288000Y-67504073D01*
X132314171Y-67635640D01*
X132365506Y-67759574D01*
X132440033Y-67871112D01*
X132534888Y-67965967D01*
X132646426Y-68040494D01*
X132770360Y-68091829D01*
X132901927Y-68118000D01*
X133036073Y-68118000D01*
X133167640Y-68091829D01*
X133291574Y-68040494D01*
X133403112Y-67965967D01*
X133497967Y-67871112D01*
X133572494Y-67759574D01*
X133623829Y-67635640D01*
X133650000Y-67504073D01*
X133650000Y-67369927D01*
X133623829Y-67238360D01*
X133572494Y-67114426D01*
X133497967Y-67002888D01*
X133403112Y-66908033D01*
X133291574Y-66833506D01*
X133167640Y-66782171D01*
X133036073Y-66756000D01*
X132901927Y-66756000D01*
X132770360Y-66782171D01*
X132646426Y-66833506D01*
X132534888Y-66908033D01*
X132440033Y-67002888D01*
X132365506Y-67114426D01*
X132314171Y-67238360D01*
X132288000Y-67369927D01*
X124102819Y-67369927D01*
X124216755Y-67094863D01*
X124339000Y-66480301D01*
X124339000Y-65853699D01*
X124216755Y-65239137D01*
X123976965Y-64660232D01*
X123969298Y-64648757D01*
X136691000Y-64648757D01*
X136691000Y-64891243D01*
X136738307Y-65129069D01*
X136831102Y-65353097D01*
X136965820Y-65554717D01*
X137137283Y-65726180D01*
X137338903Y-65860898D01*
X137562931Y-65953693D01*
X137800757Y-66001000D01*
X138043243Y-66001000D01*
X138281069Y-65953693D01*
X138505097Y-65860898D01*
X138706717Y-65726180D01*
X138878180Y-65554717D01*
X139012898Y-65353097D01*
X139105693Y-65129069D01*
X139153000Y-64891243D01*
X139153000Y-64648757D01*
X139231000Y-64648757D01*
X139231000Y-64891243D01*
X139278307Y-65129069D01*
X139371102Y-65353097D01*
X139505820Y-65554717D01*
X139677283Y-65726180D01*
X139878903Y-65860898D01*
X140102931Y-65953693D01*
X140340757Y-66001000D01*
X140583243Y-66001000D01*
X140821069Y-65953693D01*
X141045097Y-65860898D01*
X141246717Y-65726180D01*
X141418180Y-65554717D01*
X141552898Y-65353097D01*
X141645693Y-65129069D01*
X141693000Y-64891243D01*
X141693000Y-64648757D01*
X141771000Y-64648757D01*
X141771000Y-64891243D01*
X141818307Y-65129069D01*
X141911102Y-65353097D01*
X142045820Y-65554717D01*
X142217283Y-65726180D01*
X142418903Y-65860898D01*
X142642931Y-65953693D01*
X142880757Y-66001000D01*
X143123243Y-66001000D01*
X143361069Y-65953693D01*
X143585097Y-65860898D01*
X143786717Y-65726180D01*
X143958180Y-65554717D01*
X144092898Y-65353097D01*
X144185693Y-65129069D01*
X144233000Y-64891243D01*
X144233000Y-64648757D01*
X144311000Y-64648757D01*
X144311000Y-64891243D01*
X144358307Y-65129069D01*
X144451102Y-65353097D01*
X144585820Y-65554717D01*
X144757283Y-65726180D01*
X144958903Y-65860898D01*
X145182931Y-65953693D01*
X145420757Y-66001000D01*
X145663243Y-66001000D01*
X145901069Y-65953693D01*
X146125097Y-65860898D01*
X146326717Y-65726180D01*
X146498180Y-65554717D01*
X146632898Y-65353097D01*
X146725693Y-65129069D01*
X146773000Y-64891243D01*
X146773000Y-64648757D01*
X146851000Y-64648757D01*
X146851000Y-64891243D01*
X146898307Y-65129069D01*
X146991102Y-65353097D01*
X147125820Y-65554717D01*
X147297283Y-65726180D01*
X147498903Y-65860898D01*
X147722931Y-65953693D01*
X147960757Y-66001000D01*
X148203243Y-66001000D01*
X148441069Y-65953693D01*
X148665097Y-65860898D01*
X148866717Y-65726180D01*
X149038180Y-65554717D01*
X149172898Y-65353097D01*
X149265693Y-65129069D01*
X149313000Y-64891243D01*
X149313000Y-64648757D01*
X149391000Y-64648757D01*
X149391000Y-64891243D01*
X149438307Y-65129069D01*
X149531102Y-65353097D01*
X149665820Y-65554717D01*
X149837283Y-65726180D01*
X150038903Y-65860898D01*
X150262931Y-65953693D01*
X150500757Y-66001000D01*
X150743243Y-66001000D01*
X150981069Y-65953693D01*
X151205097Y-65860898D01*
X151406717Y-65726180D01*
X151578180Y-65554717D01*
X151712898Y-65353097D01*
X151805693Y-65129069D01*
X151853000Y-64891243D01*
X151853000Y-64648757D01*
X151931000Y-64648757D01*
X151931000Y-64891243D01*
X151978307Y-65129069D01*
X152071102Y-65353097D01*
X152205820Y-65554717D01*
X152377283Y-65726180D01*
X152578903Y-65860898D01*
X152802931Y-65953693D01*
X153040757Y-66001000D01*
X153283243Y-66001000D01*
X153521069Y-65953693D01*
X153745097Y-65860898D01*
X153946717Y-65726180D01*
X154118180Y-65554717D01*
X154252898Y-65353097D01*
X154345693Y-65129069D01*
X154393000Y-64891243D01*
X154393000Y-64648757D01*
X154345693Y-64410931D01*
X154252898Y-64186903D01*
X154118180Y-63985283D01*
X153946717Y-63813820D01*
X153745097Y-63679102D01*
X153521069Y-63586307D01*
X153283243Y-63539000D01*
X153040757Y-63539000D01*
X152802931Y-63586307D01*
X152578903Y-63679102D01*
X152377283Y-63813820D01*
X152205820Y-63985283D01*
X152071102Y-64186903D01*
X151978307Y-64410931D01*
X151931000Y-64648757D01*
X151853000Y-64648757D01*
X151805693Y-64410931D01*
X151712898Y-64186903D01*
X151578180Y-63985283D01*
X151406717Y-63813820D01*
X151205097Y-63679102D01*
X150981069Y-63586307D01*
X150743243Y-63539000D01*
X150500757Y-63539000D01*
X150262931Y-63586307D01*
X150038903Y-63679102D01*
X149837283Y-63813820D01*
X149665820Y-63985283D01*
X149531102Y-64186903D01*
X149438307Y-64410931D01*
X149391000Y-64648757D01*
X149313000Y-64648757D01*
X149265693Y-64410931D01*
X149172898Y-64186903D01*
X149038180Y-63985283D01*
X148866717Y-63813820D01*
X148665097Y-63679102D01*
X148441069Y-63586307D01*
X148203243Y-63539000D01*
X147960757Y-63539000D01*
X147722931Y-63586307D01*
X147498903Y-63679102D01*
X147297283Y-63813820D01*
X147125820Y-63985283D01*
X146991102Y-64186903D01*
X146898307Y-64410931D01*
X146851000Y-64648757D01*
X146773000Y-64648757D01*
X146725693Y-64410931D01*
X146632898Y-64186903D01*
X146498180Y-63985283D01*
X146326717Y-63813820D01*
X146125097Y-63679102D01*
X145901069Y-63586307D01*
X145663243Y-63539000D01*
X145420757Y-63539000D01*
X145182931Y-63586307D01*
X144958903Y-63679102D01*
X144757283Y-63813820D01*
X144585820Y-63985283D01*
X144451102Y-64186903D01*
X144358307Y-64410931D01*
X144311000Y-64648757D01*
X144233000Y-64648757D01*
X144185693Y-64410931D01*
X144092898Y-64186903D01*
X143958180Y-63985283D01*
X143786717Y-63813820D01*
X143585097Y-63679102D01*
X143361069Y-63586307D01*
X143123243Y-63539000D01*
X142880757Y-63539000D01*
X142642931Y-63586307D01*
X142418903Y-63679102D01*
X142217283Y-63813820D01*
X142045820Y-63985283D01*
X141911102Y-64186903D01*
X141818307Y-64410931D01*
X141771000Y-64648757D01*
X141693000Y-64648757D01*
X141645693Y-64410931D01*
X141552898Y-64186903D01*
X141418180Y-63985283D01*
X141246717Y-63813820D01*
X141045097Y-63679102D01*
X140821069Y-63586307D01*
X140583243Y-63539000D01*
X140340757Y-63539000D01*
X140102931Y-63586307D01*
X139878903Y-63679102D01*
X139677283Y-63813820D01*
X139505820Y-63985283D01*
X139371102Y-64186903D01*
X139278307Y-64410931D01*
X139231000Y-64648757D01*
X139153000Y-64648757D01*
X139105693Y-64410931D01*
X139012898Y-64186903D01*
X138878180Y-63985283D01*
X138706717Y-63813820D01*
X138505097Y-63679102D01*
X138281069Y-63586307D01*
X138043243Y-63539000D01*
X137800757Y-63539000D01*
X137562931Y-63586307D01*
X137338903Y-63679102D01*
X137137283Y-63813820D01*
X136965820Y-63985283D01*
X136831102Y-64186903D01*
X136738307Y-64410931D01*
X136691000Y-64648757D01*
X123969298Y-64648757D01*
X123628844Y-64139231D01*
X123185769Y-63696156D01*
X122826349Y-63456000D01*
X154877695Y-63456000D01*
X155413131Y-63508500D01*
G37*
X155413131Y-63508500D02*
X155540606Y-63546987D01*
X155342931Y-63586307D01*
X155118903Y-63679102D01*
X154917283Y-63813820D01*
X154745820Y-63985283D01*
X154611102Y-64186903D01*
X154518307Y-64410931D01*
X154471000Y-64648757D01*
X154471000Y-64891243D01*
X154518307Y-65129069D01*
X154611102Y-65353097D01*
X154745820Y-65554717D01*
X154917283Y-65726180D01*
X155118903Y-65860898D01*
X155342931Y-65953693D01*
X155580757Y-66001000D01*
X155823243Y-66001000D01*
X156061069Y-65953693D01*
X156285097Y-65860898D01*
X156486717Y-65726180D01*
X156658180Y-65554717D01*
X156792898Y-65353097D01*
X156885693Y-65129069D01*
X156933000Y-64891243D01*
X156933000Y-64648757D01*
X156885693Y-64410931D01*
X156856346Y-64340082D01*
X157090160Y-64622714D01*
X157335390Y-65076254D01*
X157487855Y-65568789D01*
X157544000Y-66102979D01*
X157544001Y-99877685D01*
X157491500Y-100413131D01*
X157342478Y-100906718D01*
X157100423Y-101361957D01*
X156774555Y-101761510D01*
X156377286Y-102090160D01*
X155923742Y-102335391D01*
X155431211Y-102487855D01*
X154897021Y-102544000D01*
X153289887Y-102544000D01*
X153665769Y-102292844D01*
X154108844Y-101849769D01*
X154456965Y-101328768D01*
X154696755Y-100749863D01*
X154819000Y-100135301D01*
X154819000Y-99508699D01*
X154696755Y-98894137D01*
X154456965Y-98315232D01*
X154108844Y-97794231D01*
X153665769Y-97351156D01*
X153144768Y-97003035D01*
X152565863Y-96763245D01*
X151951301Y-96641000D01*
X151324699Y-96641000D01*
X150710137Y-96763245D01*
X150131232Y-97003035D01*
X149610231Y-97351156D01*
X149167156Y-97794231D01*
X148819035Y-98315232D01*
X148579245Y-98894137D01*
X148457000Y-99508699D01*
X148457000Y-100135301D01*
X148579245Y-100749863D01*
X148819035Y-101328768D01*
X149167156Y-101849769D01*
X149610231Y-102292844D01*
X149986113Y-102544000D01*
X121122304Y-102544000D01*
X120586869Y-102491500D01*
X120192860Y-102372542D01*
X120344097Y-102309898D01*
X120545717Y-102175180D01*
X120717180Y-102003717D01*
X120851898Y-101802097D01*
X120944693Y-101578069D01*
X120992000Y-101340243D01*
X120992000Y-101097757D01*
X127547000Y-101097757D01*
X127547000Y-101340243D01*
X127594307Y-101578069D01*
X127687102Y-101802097D01*
X127821820Y-102003717D01*
X127993283Y-102175180D01*
X128194903Y-102309898D01*
X128418931Y-102402693D01*
X128656757Y-102450000D01*
X128899243Y-102450000D01*
X129137069Y-102402693D01*
X129361097Y-102309898D01*
X129562717Y-102175180D01*
X129734180Y-102003717D01*
X129868898Y-101802097D01*
X129961693Y-101578069D01*
X130009000Y-101340243D01*
X130009000Y-101097757D01*
X130087000Y-101097757D01*
X130087000Y-101340243D01*
X130134307Y-101578069D01*
X130227102Y-101802097D01*
X130361820Y-102003717D01*
X130533283Y-102175180D01*
X130734903Y-102309898D01*
X130958931Y-102402693D01*
X131196757Y-102450000D01*
X131439243Y-102450000D01*
X131677069Y-102402693D01*
X131901097Y-102309898D01*
X132102717Y-102175180D01*
X132274180Y-102003717D01*
X132408898Y-101802097D01*
X132501693Y-101578069D01*
X132549000Y-101340243D01*
X132549000Y-101097757D01*
X132627000Y-101097757D01*
X132627000Y-101340243D01*
X132674307Y-101578069D01*
X132767102Y-101802097D01*
X132901820Y-102003717D01*
X133073283Y-102175180D01*
X133274903Y-102309898D01*
X133498931Y-102402693D01*
X133736757Y-102450000D01*
X133979243Y-102450000D01*
X134217069Y-102402693D01*
X134441097Y-102309898D01*
X134642717Y-102175180D01*
X134814180Y-102003717D01*
X134948898Y-101802097D01*
X135041693Y-101578069D01*
X135089000Y-101340243D01*
X135089000Y-101097757D01*
X135167000Y-101097757D01*
X135167000Y-101340243D01*
X135214307Y-101578069D01*
X135307102Y-101802097D01*
X135441820Y-102003717D01*
X135613283Y-102175180D01*
X135814903Y-102309898D01*
X136038931Y-102402693D01*
X136276757Y-102450000D01*
X136519243Y-102450000D01*
X136757069Y-102402693D01*
X136981097Y-102309898D01*
X137182717Y-102175180D01*
X137354180Y-102003717D01*
X137488898Y-101802097D01*
X137581693Y-101578069D01*
X137629000Y-101340243D01*
X137629000Y-101097757D01*
X137707000Y-101097757D01*
X137707000Y-101340243D01*
X137754307Y-101578069D01*
X137847102Y-101802097D01*
X137981820Y-102003717D01*
X138153283Y-102175180D01*
X138354903Y-102309898D01*
X138578931Y-102402693D01*
X138816757Y-102450000D01*
X139059243Y-102450000D01*
X139297069Y-102402693D01*
X139521097Y-102309898D01*
X139722717Y-102175180D01*
X139894180Y-102003717D01*
X140028898Y-101802097D01*
X140121693Y-101578069D01*
X140169000Y-101340243D01*
X140169000Y-101097757D01*
X140247000Y-101097757D01*
X140247000Y-101340243D01*
X140294307Y-101578069D01*
X140387102Y-101802097D01*
X140521820Y-102003717D01*
X140693283Y-102175180D01*
X140894903Y-102309898D01*
X141118931Y-102402693D01*
X141356757Y-102450000D01*
X141599243Y-102450000D01*
X141837069Y-102402693D01*
X142061097Y-102309898D01*
X142262717Y-102175180D01*
X142434180Y-102003717D01*
X142568898Y-101802097D01*
X142661693Y-101578069D01*
X142709000Y-101340243D01*
X142709000Y-101097757D01*
X142787000Y-101097757D01*
X142787000Y-101340243D01*
X142834307Y-101578069D01*
X142927102Y-101802097D01*
X143061820Y-102003717D01*
X143233283Y-102175180D01*
X143434903Y-102309898D01*
X143658931Y-102402693D01*
X143896757Y-102450000D01*
X144139243Y-102450000D01*
X144377069Y-102402693D01*
X144601097Y-102309898D01*
X144802717Y-102175180D01*
X144974180Y-102003717D01*
X145108898Y-101802097D01*
X145201693Y-101578069D01*
X145249000Y-101340243D01*
X145249000Y-101097757D01*
X145327000Y-101097757D01*
X145327000Y-101340243D01*
X145374307Y-101578069D01*
X145467102Y-101802097D01*
X145601820Y-102003717D01*
X145773283Y-102175180D01*
X145974903Y-102309898D01*
X146198931Y-102402693D01*
X146436757Y-102450000D01*
X146679243Y-102450000D01*
X146917069Y-102402693D01*
X147141097Y-102309898D01*
X147342717Y-102175180D01*
X147514180Y-102003717D01*
X147648898Y-101802097D01*
X147741693Y-101578069D01*
X147789000Y-101340243D01*
X147789000Y-101097757D01*
X147741693Y-100859931D01*
X147648898Y-100635903D01*
X147514180Y-100434283D01*
X147342717Y-100262820D01*
X147141097Y-100128102D01*
X146917069Y-100035307D01*
X146679243Y-99988000D01*
X146436757Y-99988000D01*
X146198931Y-100035307D01*
X145974903Y-100128102D01*
X145773283Y-100262820D01*
X145601820Y-100434283D01*
X145467102Y-100635903D01*
X145374307Y-100859931D01*
X145327000Y-101097757D01*
X145249000Y-101097757D01*
X145201693Y-100859931D01*
X145108898Y-100635903D01*
X144974180Y-100434283D01*
X144802717Y-100262820D01*
X144601097Y-100128102D01*
X144377069Y-100035307D01*
X144139243Y-99988000D01*
X143896757Y-99988000D01*
X143658931Y-100035307D01*
X143434903Y-100128102D01*
X143233283Y-100262820D01*
X143061820Y-100434283D01*
X142927102Y-100635903D01*
X142834307Y-100859931D01*
X142787000Y-101097757D01*
X142709000Y-101097757D01*
X142661693Y-100859931D01*
X142568898Y-100635903D01*
X142434180Y-100434283D01*
X142262717Y-100262820D01*
X142061097Y-100128102D01*
X141837069Y-100035307D01*
X141599243Y-99988000D01*
X141356757Y-99988000D01*
X141118931Y-100035307D01*
X140894903Y-100128102D01*
X140693283Y-100262820D01*
X140521820Y-100434283D01*
X140387102Y-100635903D01*
X140294307Y-100859931D01*
X140247000Y-101097757D01*
X140169000Y-101097757D01*
X140121693Y-100859931D01*
X140028898Y-100635903D01*
X139894180Y-100434283D01*
X139722717Y-100262820D01*
X139521097Y-100128102D01*
X139297069Y-100035307D01*
X139059243Y-99988000D01*
X138816757Y-99988000D01*
X138578931Y-100035307D01*
X138354903Y-100128102D01*
X138153283Y-100262820D01*
X137981820Y-100434283D01*
X137847102Y-100635903D01*
X137754307Y-100859931D01*
X137707000Y-101097757D01*
X137629000Y-101097757D01*
X137581693Y-100859931D01*
X137488898Y-100635903D01*
X137354180Y-100434283D01*
X137182717Y-100262820D01*
X136981097Y-100128102D01*
X136757069Y-100035307D01*
X136519243Y-99988000D01*
X136276757Y-99988000D01*
X136038931Y-100035307D01*
X135814903Y-100128102D01*
X135613283Y-100262820D01*
X135441820Y-100434283D01*
X135307102Y-100635903D01*
X135214307Y-100859931D01*
X135167000Y-101097757D01*
X135089000Y-101097757D01*
X135041693Y-100859931D01*
X134948898Y-100635903D01*
X134814180Y-100434283D01*
X134642717Y-100262820D01*
X134441097Y-100128102D01*
X134217069Y-100035307D01*
X133979243Y-99988000D01*
X133736757Y-99988000D01*
X133498931Y-100035307D01*
X133274903Y-100128102D01*
X133073283Y-100262820D01*
X132901820Y-100434283D01*
X132767102Y-100635903D01*
X132674307Y-100859931D01*
X132627000Y-101097757D01*
X132549000Y-101097757D01*
X132501693Y-100859931D01*
X132408898Y-100635903D01*
X132274180Y-100434283D01*
X132102717Y-100262820D01*
X131901097Y-100128102D01*
X131677069Y-100035307D01*
X131439243Y-99988000D01*
X131196757Y-99988000D01*
X130958931Y-100035307D01*
X130734903Y-100128102D01*
X130533283Y-100262820D01*
X130361820Y-100434283D01*
X130227102Y-100635903D01*
X130134307Y-100859931D01*
X130087000Y-101097757D01*
X130009000Y-101097757D01*
X129961693Y-100859931D01*
X129868898Y-100635903D01*
X129734180Y-100434283D01*
X129562717Y-100262820D01*
X129361097Y-100128102D01*
X129137069Y-100035307D01*
X128899243Y-99988000D01*
X128656757Y-99988000D01*
X128418931Y-100035307D01*
X128194903Y-100128102D01*
X127993283Y-100262820D01*
X127821820Y-100434283D01*
X127687102Y-100635903D01*
X127594307Y-100859931D01*
X127547000Y-101097757D01*
X120992000Y-101097757D01*
X120944693Y-100859931D01*
X120851898Y-100635903D01*
X120717180Y-100434283D01*
X120545717Y-100262820D01*
X120344097Y-100128102D01*
X120120069Y-100035307D01*
X119882243Y-99988000D01*
X119639757Y-99988000D01*
X119401931Y-100035307D01*
X119177903Y-100128102D01*
X118976283Y-100262820D01*
X118804820Y-100434283D01*
X118670102Y-100635903D01*
X118615966Y-100766600D01*
X118512145Y-100431211D01*
X118456000Y-99897021D01*
X118456000Y-98557757D01*
X118530000Y-98557757D01*
X118530000Y-98800243D01*
X118577307Y-99038069D01*
X118670102Y-99262097D01*
X118804820Y-99463717D01*
X118976283Y-99635180D01*
X119177903Y-99769898D01*
X119401931Y-99862693D01*
X119639757Y-99910000D01*
X119882243Y-99910000D01*
X120120069Y-99862693D01*
X120344097Y-99769898D01*
X120545717Y-99635180D01*
X120717180Y-99463717D01*
X120851898Y-99262097D01*
X120944693Y-99038069D01*
X120992000Y-98800243D01*
X120992000Y-98611927D01*
X125811000Y-98611927D01*
X125811000Y-98746073D01*
X125837171Y-98877640D01*
X125888506Y-99001574D01*
X125963033Y-99113112D01*
X126057888Y-99207967D01*
X126169426Y-99282494D01*
X126293360Y-99333829D01*
X126424927Y-99360000D01*
X126559073Y-99360000D01*
X126690640Y-99333829D01*
X126814574Y-99282494D01*
X126926112Y-99207967D01*
X127020967Y-99113112D01*
X127095494Y-99001574D01*
X127146829Y-98877640D01*
X127173000Y-98746073D01*
X127173000Y-98644577D01*
X128069409Y-97748169D01*
X128086853Y-97733853D01*
X128101170Y-97716408D01*
X128143987Y-97664237D01*
X128166678Y-97621783D01*
X128186441Y-97584809D01*
X128212585Y-97498627D01*
X128219200Y-97431460D01*
X128219200Y-97431451D01*
X128221411Y-97409001D01*
X128219200Y-97386551D01*
X128219200Y-96020464D01*
X128249033Y-96065112D01*
X128343888Y-96159967D01*
X128455426Y-96234494D01*
X128579360Y-96285829D01*
X128710927Y-96312000D01*
X128845073Y-96312000D01*
X128976640Y-96285829D01*
X129100574Y-96234494D01*
X129212112Y-96159967D01*
X129306967Y-96065112D01*
X129381494Y-95953574D01*
X129432829Y-95829640D01*
X129459000Y-95698073D01*
X129459000Y-95596577D01*
X132387408Y-92668170D01*
X132404853Y-92653853D01*
X132461987Y-92584236D01*
X132504441Y-92504809D01*
X132511800Y-92480550D01*
X132511800Y-92647621D01*
X131010592Y-94148830D01*
X130993148Y-94163147D01*
X130936014Y-94232764D01*
X130893560Y-94312191D01*
X130867416Y-94398373D01*
X130865442Y-94418415D01*
X130858589Y-94488000D01*
X130860801Y-94510459D01*
X130860800Y-95125121D01*
X130789033Y-95196888D01*
X130714506Y-95308426D01*
X130663171Y-95432360D01*
X130637000Y-95563927D01*
X130637000Y-95698073D01*
X130663171Y-95829640D01*
X130714506Y-95953574D01*
X130789033Y-96065112D01*
X130883888Y-96159967D01*
X130995426Y-96234494D01*
X131119360Y-96285829D01*
X131250927Y-96312000D01*
X131385073Y-96312000D01*
X131516640Y-96285829D01*
X131640574Y-96234494D01*
X131752112Y-96159967D01*
X131846967Y-96065112D01*
X131921494Y-95953574D01*
X131972829Y-95829640D01*
X131999000Y-95698073D01*
X131999000Y-95563927D01*
X131972829Y-95432360D01*
X131921494Y-95308426D01*
X131846967Y-95196888D01*
X131775200Y-95125121D01*
X131775200Y-94677377D01*
X133142801Y-93309778D01*
X133142801Y-95350540D01*
X133140589Y-95373000D01*
X133149416Y-95462626D01*
X133175560Y-95548809D01*
X133178801Y-95554873D01*
X133177000Y-95563927D01*
X133177000Y-95698073D01*
X133203171Y-95829640D01*
X133254506Y-95953574D01*
X133329033Y-96065112D01*
X133423888Y-96159967D01*
X133535426Y-96234494D01*
X133659360Y-96285829D01*
X133790927Y-96312000D01*
X133925073Y-96312000D01*
X134056640Y-96285829D01*
X134180574Y-96234494D01*
X134292112Y-96159967D01*
X134386967Y-96065112D01*
X134461494Y-95953574D01*
X134512829Y-95829640D01*
X134539000Y-95698073D01*
X134539000Y-95563927D01*
X134512829Y-95432360D01*
X134461494Y-95308426D01*
X134386967Y-95196888D01*
X134292112Y-95102033D01*
X134180574Y-95027506D01*
X134057200Y-94976403D01*
X134057200Y-91922199D01*
X134167360Y-91967829D01*
X134298927Y-91994000D01*
X134433073Y-91994000D01*
X134564640Y-91967829D01*
X134683500Y-91918596D01*
X134802360Y-91967829D01*
X134933927Y-91994000D01*
X135068073Y-91994000D01*
X135199640Y-91967829D01*
X135318500Y-91918596D01*
X135437360Y-91967829D01*
X135568927Y-91994000D01*
X135703073Y-91994000D01*
X135834640Y-91967829D01*
X135940800Y-91923856D01*
X135940800Y-95125121D01*
X135869033Y-95196888D01*
X135794506Y-95308426D01*
X135743171Y-95432360D01*
X135717000Y-95563927D01*
X135717000Y-95698073D01*
X135743171Y-95829640D01*
X135794506Y-95953574D01*
X135869033Y-96065112D01*
X135963888Y-96159967D01*
X136075426Y-96234494D01*
X136199360Y-96285829D01*
X136330927Y-96312000D01*
X136465073Y-96312000D01*
X136596640Y-96285829D01*
X136720574Y-96234494D01*
X136832112Y-96159967D01*
X136926967Y-96065112D01*
X137001494Y-95953574D01*
X137052829Y-95829640D01*
X137079000Y-95698073D01*
X137079000Y-95563927D01*
X137052829Y-95432360D01*
X137001494Y-95308426D01*
X136926967Y-95196888D01*
X136855200Y-95125121D01*
X136855200Y-86763450D01*
X136857411Y-86741000D01*
X136855200Y-86718550D01*
X136855200Y-86718540D01*
X136848585Y-86651373D01*
X136825283Y-86574559D01*
X136822441Y-86565190D01*
X136779987Y-86485764D01*
X136737171Y-86433592D01*
X136737165Y-86433586D01*
X136722853Y-86416147D01*
X136705413Y-86401834D01*
X136220200Y-85916623D01*
X136220200Y-85622547D01*
X136227560Y-85646809D01*
X136270013Y-85726235D01*
X136309058Y-85773810D01*
X136327148Y-85795853D01*
X136344593Y-85810170D01*
X138842800Y-88308379D01*
X138842801Y-94955595D01*
X138739360Y-94976171D01*
X138615426Y-95027506D01*
X138503888Y-95102033D01*
X138409033Y-95196888D01*
X138334506Y-95308426D01*
X138283171Y-95432360D01*
X138257000Y-95563927D01*
X138257000Y-95698073D01*
X138283171Y-95829640D01*
X138334506Y-95953574D01*
X138409033Y-96065112D01*
X138503888Y-96159967D01*
X138615426Y-96234494D01*
X138739360Y-96285829D01*
X138870927Y-96312000D01*
X139005073Y-96312000D01*
X139136640Y-96285829D01*
X139260574Y-96234494D01*
X139372112Y-96159967D01*
X139466967Y-96065112D01*
X139541494Y-95953574D01*
X139592829Y-95829640D01*
X139619000Y-95698073D01*
X139619000Y-95598657D01*
X139624853Y-95593853D01*
X139649413Y-95563927D01*
X139681987Y-95524237D01*
X139714918Y-95462626D01*
X139724441Y-95444809D01*
X139750585Y-95358627D01*
X139757200Y-95291460D01*
X139757200Y-95291451D01*
X139759411Y-95269001D01*
X139757200Y-95246551D01*
X139757200Y-88141452D01*
X139759411Y-88119000D01*
X139757200Y-88096548D01*
X139757200Y-88096540D01*
X139750585Y-88029373D01*
X139733176Y-87971985D01*
X139724441Y-87943190D01*
X139681987Y-87863764D01*
X139639171Y-87811592D01*
X139639165Y-87811586D01*
X139624853Y-87794147D01*
X139607415Y-87779836D01*
X137109200Y-85281623D01*
X137109200Y-83436879D01*
X137180967Y-83365112D01*
X137255494Y-83253574D01*
X137306829Y-83129640D01*
X137333000Y-82998073D01*
X137333000Y-82863927D01*
X137306829Y-82732360D01*
X137255494Y-82608426D01*
X137180967Y-82496888D01*
X137086112Y-82402033D01*
X136974574Y-82327506D01*
X136850640Y-82276171D01*
X136719073Y-82250000D01*
X136584927Y-82250000D01*
X136453360Y-82276171D01*
X136329426Y-82327506D01*
X136217888Y-82402033D01*
X136123033Y-82496888D01*
X136048506Y-82608426D01*
X135997171Y-82732360D01*
X135984945Y-82793824D01*
X135961640Y-82784171D01*
X135830073Y-82758000D01*
X135695927Y-82758000D01*
X135662261Y-82764697D01*
X135655829Y-82732360D01*
X135604494Y-82608426D01*
X135529967Y-82496888D01*
X135435112Y-82402033D01*
X135323574Y-82327506D01*
X135199640Y-82276171D01*
X135068073Y-82250000D01*
X134933927Y-82250000D01*
X134802360Y-82276171D01*
X134678426Y-82327506D01*
X134566888Y-82402033D01*
X134472033Y-82496888D01*
X134397506Y-82608426D01*
X134346171Y-82732360D01*
X134339739Y-82764697D01*
X134306073Y-82758000D01*
X134171927Y-82758000D01*
X134040360Y-82784171D01*
X134017055Y-82793824D01*
X134004829Y-82732360D01*
X133953494Y-82608426D01*
X133878967Y-82496888D01*
X133784112Y-82402033D01*
X133672574Y-82327506D01*
X133548640Y-82276171D01*
X133417073Y-82250000D01*
X133282927Y-82250000D01*
X133151360Y-82276171D01*
X133027426Y-82327506D01*
X132915888Y-82402033D01*
X132821033Y-82496888D01*
X132746506Y-82608426D01*
X132695171Y-82732360D01*
X132688739Y-82764697D01*
X132655073Y-82758000D01*
X132520927Y-82758000D01*
X132389360Y-82784171D01*
X132265426Y-82835506D01*
X132153888Y-82910033D01*
X132059033Y-83004888D01*
X131984506Y-83116426D01*
X131933171Y-83240360D01*
X131907000Y-83371927D01*
X131907000Y-83506073D01*
X131933171Y-83637640D01*
X131984506Y-83761574D01*
X132059033Y-83873112D01*
X132130801Y-83944880D01*
X132130800Y-84265622D01*
X131137593Y-85258830D01*
X131120148Y-85273147D01*
X131105831Y-85290592D01*
X131105830Y-85290593D01*
X131063013Y-85342765D01*
X131027533Y-85409145D01*
X131020560Y-85422191D01*
X131013200Y-85446453D01*
X131013200Y-82420879D01*
X131084967Y-82349112D01*
X131159494Y-82237574D01*
X131210829Y-82113640D01*
X131237000Y-81982073D01*
X131237000Y-81847927D01*
X131210829Y-81716360D01*
X131159494Y-81592426D01*
X131084967Y-81480888D01*
X130990112Y-81386033D01*
X130878574Y-81311506D01*
X130754640Y-81260171D01*
X130623073Y-81234000D01*
X130488927Y-81234000D01*
X130357360Y-81260171D01*
X130233426Y-81311506D01*
X130121888Y-81386033D01*
X130027033Y-81480888D01*
X129952506Y-81592426D01*
X129901171Y-81716360D01*
X129875000Y-81847927D01*
X129875000Y-81982073D01*
X129901171Y-82113640D01*
X129952506Y-82237574D01*
X130027033Y-82349112D01*
X130098800Y-82420879D01*
X130098801Y-90082005D01*
X128101116Y-92079692D01*
X127999620Y-92079692D01*
X127868053Y-92105863D01*
X127744119Y-92157198D01*
X127632581Y-92231725D01*
X127537726Y-92326580D01*
X127463199Y-92438118D01*
X127411864Y-92562052D01*
X127385693Y-92693619D01*
X127385693Y-92827765D01*
X127411864Y-92959332D01*
X127463199Y-93083266D01*
X127537726Y-93194804D01*
X127632581Y-93289659D01*
X127744119Y-93364186D01*
X127868053Y-93415521D01*
X127999620Y-93441692D01*
X128133766Y-93441692D01*
X128265333Y-93415521D01*
X128389267Y-93364186D01*
X128500805Y-93289659D01*
X128595660Y-93194804D01*
X128670187Y-93083266D01*
X128721522Y-92959332D01*
X128747693Y-92827765D01*
X128747693Y-92726269D01*
X130863414Y-90610550D01*
X130880853Y-90596238D01*
X130895165Y-90578799D01*
X130895171Y-90578793D01*
X130937987Y-90526621D01*
X130980441Y-90447195D01*
X130987800Y-90422935D01*
X130987800Y-90996621D01*
X127454593Y-94529830D01*
X127437148Y-94544147D01*
X127422831Y-94561592D01*
X127422830Y-94561593D01*
X127380013Y-94613765D01*
X127337560Y-94693191D01*
X127311416Y-94779374D01*
X127302589Y-94869000D01*
X127304801Y-94891460D01*
X127304800Y-97219622D01*
X126526423Y-97998000D01*
X126424927Y-97998000D01*
X126293360Y-98024171D01*
X126169426Y-98075506D01*
X126057888Y-98150033D01*
X125963033Y-98244888D01*
X125888506Y-98356426D01*
X125837171Y-98480360D01*
X125811000Y-98611927D01*
X120992000Y-98611927D01*
X120992000Y-98557757D01*
X120944693Y-98319931D01*
X120851898Y-98095903D01*
X120717180Y-97894283D01*
X120545717Y-97722820D01*
X120344097Y-97588102D01*
X120120069Y-97495307D01*
X119882243Y-97448000D01*
X119639757Y-97448000D01*
X119401931Y-97495307D01*
X119177903Y-97588102D01*
X118976283Y-97722820D01*
X118804820Y-97894283D01*
X118670102Y-98095903D01*
X118577307Y-98319931D01*
X118530000Y-98557757D01*
X118456000Y-98557757D01*
X118456000Y-96017757D01*
X118530000Y-96017757D01*
X118530000Y-96260243D01*
X118577307Y-96498069D01*
X118670102Y-96722097D01*
X118804820Y-96923717D01*
X118976283Y-97095180D01*
X119177903Y-97229898D01*
X119401931Y-97322693D01*
X119639757Y-97370000D01*
X119882243Y-97370000D01*
X120120069Y-97322693D01*
X120344097Y-97229898D01*
X120545717Y-97095180D01*
X120717180Y-96923717D01*
X120851898Y-96722097D01*
X120944693Y-96498069D01*
X120992000Y-96260243D01*
X120992000Y-96017757D01*
X120944693Y-95779931D01*
X120851898Y-95555903D01*
X120717180Y-95354283D01*
X120545717Y-95182820D01*
X120344097Y-95048102D01*
X120120069Y-94955307D01*
X119882243Y-94908000D01*
X119639757Y-94908000D01*
X119401931Y-94955307D01*
X119177903Y-95048102D01*
X118976283Y-95182820D01*
X118804820Y-95354283D01*
X118670102Y-95555903D01*
X118577307Y-95779931D01*
X118530000Y-96017757D01*
X118456000Y-96017757D01*
X118456000Y-93477757D01*
X118530000Y-93477757D01*
X118530000Y-93720243D01*
X118577307Y-93958069D01*
X118670102Y-94182097D01*
X118804820Y-94383717D01*
X118976283Y-94555180D01*
X119177903Y-94689898D01*
X119401931Y-94782693D01*
X119639757Y-94830000D01*
X119882243Y-94830000D01*
X120120069Y-94782693D01*
X120344097Y-94689898D01*
X120545717Y-94555180D01*
X120717180Y-94383717D01*
X120851898Y-94182097D01*
X120944693Y-93958069D01*
X120992000Y-93720243D01*
X120992000Y-93477757D01*
X120944693Y-93239931D01*
X120851898Y-93015903D01*
X120717180Y-92814283D01*
X120545717Y-92642820D01*
X120344097Y-92508102D01*
X120120069Y-92415307D01*
X119882243Y-92368000D01*
X119639757Y-92368000D01*
X119401931Y-92415307D01*
X119177903Y-92508102D01*
X118976283Y-92642820D01*
X118804820Y-92814283D01*
X118670102Y-93015903D01*
X118577307Y-93239931D01*
X118530000Y-93477757D01*
X118456000Y-93477757D01*
X118456000Y-90937757D01*
X118530000Y-90937757D01*
X118530000Y-91180243D01*
X118577307Y-91418069D01*
X118670102Y-91642097D01*
X118804820Y-91843717D01*
X118976283Y-92015180D01*
X119177903Y-92149898D01*
X119401931Y-92242693D01*
X119639757Y-92290000D01*
X119882243Y-92290000D01*
X120120069Y-92242693D01*
X120344097Y-92149898D01*
X120545717Y-92015180D01*
X120717180Y-91843717D01*
X120851898Y-91642097D01*
X120944693Y-91418069D01*
X120992000Y-91180243D01*
X120992000Y-90937757D01*
X120944693Y-90699931D01*
X120851898Y-90475903D01*
X120717180Y-90274283D01*
X120545717Y-90102820D01*
X120344097Y-89968102D01*
X120120069Y-89875307D01*
X119882243Y-89828000D01*
X119639757Y-89828000D01*
X119401931Y-89875307D01*
X119177903Y-89968102D01*
X118976283Y-90102820D01*
X118804820Y-90274283D01*
X118670102Y-90475903D01*
X118577307Y-90699931D01*
X118530000Y-90937757D01*
X118456000Y-90937757D01*
X118456000Y-88397757D01*
X118530000Y-88397757D01*
X118530000Y-88640243D01*
X118577307Y-88878069D01*
X118670102Y-89102097D01*
X118804820Y-89303717D01*
X118976283Y-89475180D01*
X119177903Y-89609898D01*
X119401931Y-89702693D01*
X119639757Y-89750000D01*
X119882243Y-89750000D01*
X120120069Y-89702693D01*
X120344097Y-89609898D01*
X120545717Y-89475180D01*
X120717180Y-89303717D01*
X120851898Y-89102097D01*
X120944693Y-88878069D01*
X120992000Y-88640243D01*
X120992000Y-88397757D01*
X120944693Y-88159931D01*
X120851898Y-87935903D01*
X120717180Y-87734283D01*
X120545717Y-87562820D01*
X120344097Y-87428102D01*
X120120069Y-87335307D01*
X119882243Y-87288000D01*
X119639757Y-87288000D01*
X119401931Y-87335307D01*
X119177903Y-87428102D01*
X118976283Y-87562820D01*
X118804820Y-87734283D01*
X118670102Y-87935903D01*
X118577307Y-88159931D01*
X118530000Y-88397757D01*
X118456000Y-88397757D01*
X118456000Y-85857757D01*
X118530000Y-85857757D01*
X118530000Y-86100243D01*
X118577307Y-86338069D01*
X118670102Y-86562097D01*
X118804820Y-86763717D01*
X118976283Y-86935180D01*
X119177903Y-87069898D01*
X119401931Y-87162693D01*
X119639757Y-87210000D01*
X119882243Y-87210000D01*
X120120069Y-87162693D01*
X120344097Y-87069898D01*
X120545717Y-86935180D01*
X120717180Y-86763717D01*
X120851898Y-86562097D01*
X120944693Y-86338069D01*
X120992000Y-86100243D01*
X120992000Y-85857757D01*
X120944693Y-85619931D01*
X120851898Y-85395903D01*
X120717180Y-85194283D01*
X120545717Y-85022820D01*
X120344097Y-84888102D01*
X120120069Y-84795307D01*
X119882243Y-84748000D01*
X119639757Y-84748000D01*
X119401931Y-84795307D01*
X119177903Y-84888102D01*
X118976283Y-85022820D01*
X118804820Y-85194283D01*
X118670102Y-85395903D01*
X118577307Y-85619931D01*
X118530000Y-85857757D01*
X118456000Y-85857757D01*
X118456000Y-83317757D01*
X118530000Y-83317757D01*
X118530000Y-83560243D01*
X118577307Y-83798069D01*
X118670102Y-84022097D01*
X118804820Y-84223717D01*
X118976283Y-84395180D01*
X119177903Y-84529898D01*
X119401931Y-84622693D01*
X119639757Y-84670000D01*
X119882243Y-84670000D01*
X120120069Y-84622693D01*
X120344097Y-84529898D01*
X120545717Y-84395180D01*
X120717180Y-84223717D01*
X120851898Y-84022097D01*
X120944693Y-83798069D01*
X120992000Y-83560243D01*
X120992000Y-83317757D01*
X120944693Y-83079931D01*
X120851898Y-82855903D01*
X120717180Y-82654283D01*
X120545717Y-82482820D01*
X120344097Y-82348102D01*
X120120069Y-82255307D01*
X119882243Y-82208000D01*
X119639757Y-82208000D01*
X119401931Y-82255307D01*
X119177903Y-82348102D01*
X118976283Y-82482820D01*
X118804820Y-82654283D01*
X118670102Y-82855903D01*
X118577307Y-83079931D01*
X118530000Y-83317757D01*
X118456000Y-83317757D01*
X118456000Y-80958927D01*
X123144000Y-80958927D01*
X123144000Y-81093073D01*
X123170171Y-81224640D01*
X123221506Y-81348574D01*
X123296033Y-81460112D01*
X123390888Y-81554967D01*
X123502426Y-81629494D01*
X123626360Y-81680829D01*
X123757927Y-81707000D01*
X123892073Y-81707000D01*
X124023640Y-81680829D01*
X124147574Y-81629494D01*
X124259112Y-81554967D01*
X124353967Y-81460112D01*
X124428494Y-81348574D01*
X124479829Y-81224640D01*
X124506000Y-81093073D01*
X124506000Y-80958927D01*
X124479829Y-80827360D01*
X124428494Y-80703426D01*
X124353967Y-80591888D01*
X124259112Y-80497033D01*
X124147574Y-80422506D01*
X124023640Y-80371171D01*
X123892073Y-80345000D01*
X123757927Y-80345000D01*
X123626360Y-80371171D01*
X123502426Y-80422506D01*
X123390888Y-80497033D01*
X123296033Y-80591888D01*
X123221506Y-80703426D01*
X123170171Y-80827360D01*
X123144000Y-80958927D01*
X118456000Y-80958927D01*
X118456000Y-72326500D01*
X118872000Y-72326500D01*
X118872000Y-78994000D01*
X118874440Y-79018776D01*
X118881667Y-79042601D01*
X118893403Y-79064557D01*
X118909197Y-79083803D01*
X118928443Y-79099597D01*
X118950399Y-79111333D01*
X118974224Y-79118560D01*
X118999000Y-79121000D01*
X123444000Y-79121000D01*
X123468776Y-79118560D01*
X123492601Y-79111333D01*
X123514557Y-79099597D01*
X123533803Y-79083803D01*
X124013741Y-78603865D01*
X139865815Y-78603865D01*
X139865815Y-78738011D01*
X139891986Y-78869578D01*
X139943321Y-78993512D01*
X140017848Y-79105050D01*
X140105171Y-79192373D01*
X140061666Y-79235878D01*
X139987139Y-79347416D01*
X139935804Y-79471350D01*
X139909633Y-79602917D01*
X139909633Y-79737063D01*
X139935804Y-79868630D01*
X139987139Y-79992564D01*
X140061666Y-80104102D01*
X140126723Y-80169159D01*
X140059993Y-80235888D01*
X139985466Y-80347426D01*
X139934131Y-80471360D01*
X139907960Y-80602927D01*
X139907960Y-80737073D01*
X139934131Y-80868640D01*
X139985466Y-80992574D01*
X140059993Y-81104112D01*
X140154848Y-81198967D01*
X140266386Y-81273494D01*
X140390320Y-81324829D01*
X140521887Y-81351000D01*
X140623383Y-81351000D01*
X141020801Y-81748419D01*
X141020800Y-95125121D01*
X140949033Y-95196888D01*
X140874506Y-95308426D01*
X140823171Y-95432360D01*
X140797000Y-95563927D01*
X140797000Y-95698073D01*
X140823171Y-95829640D01*
X140874506Y-95953574D01*
X140949033Y-96065112D01*
X141043888Y-96159967D01*
X141155426Y-96234494D01*
X141279360Y-96285829D01*
X141410927Y-96312000D01*
X141545073Y-96312000D01*
X141676640Y-96285829D01*
X141800574Y-96234494D01*
X141912112Y-96159967D01*
X142006967Y-96065112D01*
X142081494Y-95953574D01*
X142132829Y-95829640D01*
X142159000Y-95698073D01*
X142159000Y-95563927D01*
X142132829Y-95432360D01*
X142081494Y-95308426D01*
X142006967Y-95196888D01*
X141935200Y-95125121D01*
X141935200Y-92198427D01*
X142067000Y-92198427D01*
X142067000Y-92332573D01*
X142093171Y-92464140D01*
X142142404Y-92583000D01*
X142093171Y-92701860D01*
X142067000Y-92833427D01*
X142067000Y-92967573D01*
X142093171Y-93099140D01*
X142144506Y-93223074D01*
X142219033Y-93334612D01*
X142313888Y-93429467D01*
X142425426Y-93503994D01*
X142549360Y-93555329D01*
X142680927Y-93581500D01*
X142815073Y-93581500D01*
X142946640Y-93555329D01*
X143070574Y-93503994D01*
X143182112Y-93429467D01*
X143276967Y-93334612D01*
X143351494Y-93223074D01*
X143402829Y-93099140D01*
X143429000Y-92967573D01*
X143429000Y-92833427D01*
X143402829Y-92701860D01*
X143353596Y-92583000D01*
X143402829Y-92464140D01*
X143429000Y-92332573D01*
X143429000Y-92198427D01*
X143402829Y-92066860D01*
X143351494Y-91942926D01*
X143276967Y-91831388D01*
X143182112Y-91736533D01*
X143070574Y-91662006D01*
X142946640Y-91610671D01*
X142815073Y-91584500D01*
X142680927Y-91584500D01*
X142549360Y-91610671D01*
X142425426Y-91662006D01*
X142313888Y-91736533D01*
X142219033Y-91831388D01*
X142144506Y-91942926D01*
X142093171Y-92066860D01*
X142067000Y-92198427D01*
X141935200Y-92198427D01*
X141935200Y-88261427D01*
X142067000Y-88261427D01*
X142067000Y-88395573D01*
X142093171Y-88527140D01*
X142142404Y-88646000D01*
X142093171Y-88764860D01*
X142067000Y-88896427D01*
X142067000Y-89030573D01*
X142093171Y-89162140D01*
X142144506Y-89286074D01*
X142219033Y-89397612D01*
X142313888Y-89492467D01*
X142425426Y-89566994D01*
X142549360Y-89618329D01*
X142680927Y-89644500D01*
X142815073Y-89644500D01*
X142946640Y-89618329D01*
X143070574Y-89566994D01*
X143182112Y-89492467D01*
X143276967Y-89397612D01*
X143351494Y-89286074D01*
X143402829Y-89162140D01*
X143429000Y-89030573D01*
X143429000Y-88896427D01*
X143402829Y-88764860D01*
X143353596Y-88646000D01*
X143402829Y-88527140D01*
X143429000Y-88395573D01*
X143429000Y-88261427D01*
X143402829Y-88129860D01*
X143351494Y-88005926D01*
X143276967Y-87894388D01*
X143182112Y-87799533D01*
X143070574Y-87725006D01*
X142946640Y-87673671D01*
X142815073Y-87647500D01*
X142680927Y-87647500D01*
X142549360Y-87673671D01*
X142425426Y-87725006D01*
X142313888Y-87799533D01*
X142219033Y-87894388D01*
X142144506Y-88005926D01*
X142093171Y-88129860D01*
X142067000Y-88261427D01*
X141935200Y-88261427D01*
X141935200Y-81661134D01*
X143560801Y-83286736D01*
X143560800Y-95125121D01*
X143489033Y-95196888D01*
X143414506Y-95308426D01*
X143363171Y-95432360D01*
X143337000Y-95563927D01*
X143337000Y-95698073D01*
X143363171Y-95829640D01*
X143414506Y-95953574D01*
X143489033Y-96065112D01*
X143583888Y-96159967D01*
X143695426Y-96234494D01*
X143819360Y-96285829D01*
X143950927Y-96312000D01*
X144085073Y-96312000D01*
X144216640Y-96285829D01*
X144340574Y-96234494D01*
X144452112Y-96159967D01*
X144546967Y-96065112D01*
X144621494Y-95953574D01*
X144672829Y-95829640D01*
X144699000Y-95698073D01*
X144699000Y-95563927D01*
X144672829Y-95432360D01*
X144621494Y-95308426D01*
X144546967Y-95196888D01*
X144475200Y-95125121D01*
X144475200Y-83119807D01*
X144477411Y-83097357D01*
X144475200Y-83074907D01*
X144475200Y-83074897D01*
X144468585Y-83007730D01*
X144442441Y-82921548D01*
X144399987Y-82842121D01*
X144342853Y-82772504D01*
X144325408Y-82758187D01*
X141271633Y-79704413D01*
X141271633Y-79602917D01*
X141245462Y-79471350D01*
X141230703Y-79435718D01*
X146100801Y-84305817D01*
X146100800Y-95125121D01*
X146029033Y-95196888D01*
X145954506Y-95308426D01*
X145903171Y-95432360D01*
X145877000Y-95563927D01*
X145877000Y-95698073D01*
X145903171Y-95829640D01*
X145954506Y-95953574D01*
X146029033Y-96065112D01*
X146123888Y-96159967D01*
X146235426Y-96234494D01*
X146359360Y-96285829D01*
X146490927Y-96312000D01*
X146625073Y-96312000D01*
X146756640Y-96285829D01*
X146880574Y-96234494D01*
X146992112Y-96159967D01*
X147086967Y-96065112D01*
X147161494Y-95953574D01*
X147212829Y-95829640D01*
X147239000Y-95698073D01*
X147239000Y-95563927D01*
X147212829Y-95432360D01*
X147161494Y-95308426D01*
X147086967Y-95196888D01*
X147015200Y-95125121D01*
X147015200Y-94674886D01*
X147021608Y-94680145D01*
X147153985Y-94750901D01*
X147297622Y-94794473D01*
X147447000Y-94809186D01*
X147596378Y-94794473D01*
X147740015Y-94750901D01*
X147872392Y-94680145D01*
X147959351Y-94608779D01*
X149598373Y-92969757D01*
X154979000Y-92969757D01*
X154979000Y-93212243D01*
X155026307Y-93450069D01*
X155119102Y-93674097D01*
X155253820Y-93875717D01*
X155425283Y-94047180D01*
X155626903Y-94181898D01*
X155850931Y-94274693D01*
X156088757Y-94322000D01*
X156331243Y-94322000D01*
X156569069Y-94274693D01*
X156793097Y-94181898D01*
X156994717Y-94047180D01*
X157166180Y-93875717D01*
X157300898Y-93674097D01*
X157393693Y-93450069D01*
X157441000Y-93212243D01*
X157441000Y-92969757D01*
X157393693Y-92731931D01*
X157300898Y-92507903D01*
X157166180Y-92306283D01*
X156994717Y-92134820D01*
X156793097Y-92000102D01*
X156569069Y-91907307D01*
X156331243Y-91860000D01*
X156088757Y-91860000D01*
X155850931Y-91907307D01*
X155626903Y-92000102D01*
X155425283Y-92134820D01*
X155253820Y-92306283D01*
X155119102Y-92507903D01*
X155026307Y-92731931D01*
X154979000Y-92969757D01*
X149598373Y-92969757D01*
X150239131Y-92329000D01*
X151992926Y-92329000D01*
X152104878Y-92317974D01*
X152248515Y-92274402D01*
X152380892Y-92203645D01*
X152496922Y-92108422D01*
X152592145Y-91992392D01*
X152662902Y-91860015D01*
X152706474Y-91716378D01*
X152721186Y-91567000D01*
X152706474Y-91417622D01*
X152662902Y-91273985D01*
X152592145Y-91141608D01*
X152496922Y-91025578D01*
X152380892Y-90930355D01*
X152248515Y-90859598D01*
X152104878Y-90816026D01*
X151992926Y-90805000D01*
X149960923Y-90805000D01*
X149923500Y-90801314D01*
X149886077Y-90805000D01*
X149886074Y-90805000D01*
X149774122Y-90816026D01*
X149630485Y-90859598D01*
X149568864Y-90892535D01*
X149498107Y-90930355D01*
X149457713Y-90963506D01*
X149382078Y-91025578D01*
X149358221Y-91054648D01*
X147015200Y-93397670D01*
X147015200Y-84138888D01*
X147017411Y-84116438D01*
X147015200Y-84093988D01*
X147015200Y-84093978D01*
X147008585Y-84026811D01*
X147002554Y-84006927D01*
X147147000Y-84006927D01*
X147147000Y-84141073D01*
X147173171Y-84272640D01*
X147224506Y-84396574D01*
X147299033Y-84508112D01*
X147393888Y-84602967D01*
X147505426Y-84677494D01*
X147629360Y-84728829D01*
X147760927Y-84755000D01*
X147895073Y-84755000D01*
X148026640Y-84728829D01*
X148150574Y-84677494D01*
X148262112Y-84602967D01*
X148356967Y-84508112D01*
X148431494Y-84396574D01*
X148482829Y-84272640D01*
X148509000Y-84141073D01*
X148509000Y-84006927D01*
X148482829Y-83875360D01*
X148431494Y-83751426D01*
X148356967Y-83639888D01*
X148262112Y-83545033D01*
X148150574Y-83470506D01*
X148026640Y-83419171D01*
X147895073Y-83393000D01*
X147760927Y-83393000D01*
X147629360Y-83419171D01*
X147505426Y-83470506D01*
X147393888Y-83545033D01*
X147299033Y-83639888D01*
X147224506Y-83751426D01*
X147173171Y-83875360D01*
X147147000Y-84006927D01*
X147002554Y-84006927D01*
X146982441Y-83940629D01*
X146939987Y-83861202D01*
X146882853Y-83791585D01*
X146865408Y-83777268D01*
X145317067Y-82228927D01*
X150703000Y-82228927D01*
X150703000Y-82363073D01*
X150729171Y-82494640D01*
X150780506Y-82618574D01*
X150855033Y-82730112D01*
X150949888Y-82824967D01*
X151061426Y-82899494D01*
X151185360Y-82950829D01*
X151316927Y-82977000D01*
X151451073Y-82977000D01*
X151582640Y-82950829D01*
X151630512Y-82931000D01*
X152263976Y-82931000D01*
X153222347Y-83889372D01*
X153117608Y-83945355D01*
X153030650Y-84016721D01*
X152840150Y-84207220D01*
X152811079Y-84231078D01*
X152787222Y-84260148D01*
X152787221Y-84260149D01*
X152715855Y-84347108D01*
X152645099Y-84479485D01*
X152601527Y-84623122D01*
X152586814Y-84772500D01*
X152590501Y-84809933D01*
X152590500Y-87949369D01*
X151390221Y-89149649D01*
X151318855Y-89236608D01*
X151248099Y-89368985D01*
X151204527Y-89512622D01*
X151189814Y-89662000D01*
X151204527Y-89811378D01*
X151248099Y-89955015D01*
X151318855Y-90087392D01*
X151414079Y-90203421D01*
X151530108Y-90298645D01*
X151662485Y-90369401D01*
X151806122Y-90412973D01*
X151955500Y-90427686D01*
X152104878Y-90412973D01*
X152248515Y-90369401D01*
X152380892Y-90298645D01*
X152467851Y-90227279D01*
X153864853Y-88830278D01*
X153893922Y-88806422D01*
X153989145Y-88690392D01*
X154059902Y-88558015D01*
X154103474Y-88414378D01*
X154114500Y-88302426D01*
X154114500Y-88302424D01*
X154118186Y-88265001D01*
X154114500Y-88227578D01*
X154114500Y-85086770D01*
X154179645Y-85007392D01*
X154235628Y-84902653D01*
X154992355Y-85659380D01*
X155026307Y-85830069D01*
X155119102Y-86054097D01*
X155253820Y-86255717D01*
X155425283Y-86427180D01*
X155626903Y-86561898D01*
X155850931Y-86654693D01*
X156088757Y-86702000D01*
X156331243Y-86702000D01*
X156569069Y-86654693D01*
X156793097Y-86561898D01*
X156994717Y-86427180D01*
X157166180Y-86255717D01*
X157300898Y-86054097D01*
X157393693Y-85830069D01*
X157441000Y-85592243D01*
X157441000Y-85349757D01*
X157393693Y-85111931D01*
X157300898Y-84887903D01*
X157166180Y-84686283D01*
X156994717Y-84514820D01*
X156793097Y-84380102D01*
X156569069Y-84287307D01*
X156331243Y-84240000D01*
X156088757Y-84240000D01*
X155850931Y-84287307D01*
X155626903Y-84380102D01*
X155556302Y-84427276D01*
X153938782Y-82809757D01*
X154979000Y-82809757D01*
X154979000Y-83052243D01*
X155026307Y-83290069D01*
X155119102Y-83514097D01*
X155253820Y-83715717D01*
X155425283Y-83887180D01*
X155626903Y-84021898D01*
X155850931Y-84114693D01*
X156088757Y-84162000D01*
X156331243Y-84162000D01*
X156569069Y-84114693D01*
X156793097Y-84021898D01*
X156994717Y-83887180D01*
X157166180Y-83715717D01*
X157300898Y-83514097D01*
X157393693Y-83290069D01*
X157441000Y-83052243D01*
X157441000Y-82809757D01*
X157393693Y-82571931D01*
X157300898Y-82347903D01*
X157166180Y-82146283D01*
X156994717Y-81974820D01*
X156793097Y-81840102D01*
X156569069Y-81747307D01*
X156331243Y-81700000D01*
X156088757Y-81700000D01*
X155850931Y-81747307D01*
X155626903Y-81840102D01*
X155425283Y-81974820D01*
X155253820Y-82146283D01*
X155119102Y-82347903D01*
X155026307Y-82571931D01*
X154979000Y-82809757D01*
X153938782Y-82809757D01*
X152998074Y-81869050D01*
X152978185Y-81844815D01*
X152881494Y-81765463D01*
X152771180Y-81706498D01*
X152651482Y-81670188D01*
X152558192Y-81661000D01*
X152558181Y-81661000D01*
X152527000Y-81657929D01*
X152495819Y-81661000D01*
X152019000Y-81661000D01*
X152019000Y-78749024D01*
X154096955Y-76671070D01*
X154121185Y-76651185D01*
X154200537Y-76554494D01*
X154259502Y-76444180D01*
X154295812Y-76324482D01*
X154305000Y-76231192D01*
X154305000Y-76231182D01*
X154308071Y-76200001D01*
X154305000Y-76168820D01*
X154305000Y-72128512D01*
X154324829Y-72080640D01*
X154351000Y-71949073D01*
X154351000Y-71814927D01*
X154324829Y-71683360D01*
X154273494Y-71559426D01*
X154198967Y-71447888D01*
X154104112Y-71353033D01*
X153992574Y-71278506D01*
X153868640Y-71227171D01*
X153737073Y-71201000D01*
X153602927Y-71201000D01*
X153471360Y-71227171D01*
X153347426Y-71278506D01*
X153235888Y-71353033D01*
X153141033Y-71447888D01*
X153066506Y-71559426D01*
X153015171Y-71683360D01*
X152989000Y-71814927D01*
X152989000Y-71949073D01*
X153015171Y-72080640D01*
X153035000Y-72128512D01*
X153035001Y-75936974D01*
X150957050Y-78014926D01*
X150932815Y-78034815D01*
X150853463Y-78131507D01*
X150794498Y-78241821D01*
X150758188Y-78361519D01*
X150749000Y-78454809D01*
X150749000Y-78454819D01*
X150745929Y-78486000D01*
X150749000Y-78517181D01*
X150749001Y-82049486D01*
X150729171Y-82097360D01*
X150703000Y-82228927D01*
X145317067Y-82228927D01*
X141451674Y-78363535D01*
X141437353Y-78346085D01*
X141367736Y-78288951D01*
X141288309Y-78246497D01*
X141202127Y-78220353D01*
X141134960Y-78213738D01*
X141134950Y-78213738D01*
X141112500Y-78211527D01*
X141090050Y-78213738D01*
X141052694Y-78213738D01*
X140980927Y-78141971D01*
X140869389Y-78067444D01*
X140745455Y-78016109D01*
X140613888Y-77989938D01*
X140479742Y-77989938D01*
X140348175Y-78016109D01*
X140224241Y-78067444D01*
X140112703Y-78141971D01*
X140017848Y-78236826D01*
X139943321Y-78348364D01*
X139891986Y-78472298D01*
X139865815Y-78603865D01*
X124013741Y-78603865D01*
X124131606Y-78486000D01*
X127000000Y-78486000D01*
X127024776Y-78483560D01*
X127048601Y-78476333D01*
X127070557Y-78464597D01*
X127089803Y-78448803D01*
X127105597Y-78429557D01*
X127117333Y-78407601D01*
X127124560Y-78383776D01*
X127127000Y-78359000D01*
X127127000Y-77783927D01*
X127716000Y-77783927D01*
X127716000Y-77918073D01*
X127742171Y-78049640D01*
X127793506Y-78173574D01*
X127868033Y-78285112D01*
X127962888Y-78379967D01*
X128074426Y-78454494D01*
X128198360Y-78505829D01*
X128329927Y-78532000D01*
X128464073Y-78532000D01*
X128595640Y-78505829D01*
X128719574Y-78454494D01*
X128831112Y-78379967D01*
X128902879Y-78308200D01*
X136375550Y-78308200D01*
X136398000Y-78310411D01*
X136420450Y-78308200D01*
X136420460Y-78308200D01*
X136487627Y-78301585D01*
X136573809Y-78275441D01*
X136653236Y-78232987D01*
X136722853Y-78175853D01*
X136737174Y-78158403D01*
X138762650Y-76132927D01*
X150830000Y-76132927D01*
X150830000Y-76267073D01*
X150856171Y-76398640D01*
X150907506Y-76522574D01*
X150982033Y-76634112D01*
X151076888Y-76728967D01*
X151188426Y-76803494D01*
X151312360Y-76854829D01*
X151443927Y-76881000D01*
X151578073Y-76881000D01*
X151709640Y-76854829D01*
X151833574Y-76803494D01*
X151945112Y-76728967D01*
X152039967Y-76634112D01*
X152114494Y-76522574D01*
X152165829Y-76398640D01*
X152192000Y-76267073D01*
X152192000Y-76132927D01*
X152165829Y-76001360D01*
X152114494Y-75877426D01*
X152039967Y-75765888D01*
X151945112Y-75671033D01*
X151833574Y-75596506D01*
X151709640Y-75545171D01*
X151578073Y-75519000D01*
X151443927Y-75519000D01*
X151312360Y-75545171D01*
X151188426Y-75596506D01*
X151076888Y-75671033D01*
X150982033Y-75765888D01*
X150907506Y-75877426D01*
X150856171Y-76001360D01*
X150830000Y-76132927D01*
X138762650Y-76132927D01*
X140769408Y-74126170D01*
X140786853Y-74111853D01*
X140843987Y-74042236D01*
X140886441Y-73962809D01*
X140912585Y-73876627D01*
X140919200Y-73809460D01*
X140919200Y-73809450D01*
X140921411Y-73787000D01*
X140919200Y-73764550D01*
X140919200Y-72260879D01*
X140990967Y-72189112D01*
X141065494Y-72077574D01*
X141116829Y-71953640D01*
X141143000Y-71822073D01*
X141143000Y-71687927D01*
X141116829Y-71556360D01*
X141072856Y-71450200D01*
X148908623Y-71450200D01*
X150830000Y-73371578D01*
X150830000Y-73473073D01*
X150856171Y-73604640D01*
X150907506Y-73728574D01*
X150982033Y-73840112D01*
X151076888Y-73934967D01*
X151188426Y-74009494D01*
X151312360Y-74060829D01*
X151443927Y-74087000D01*
X151578073Y-74087000D01*
X151709640Y-74060829D01*
X151833574Y-74009494D01*
X151945112Y-73934967D01*
X152039967Y-73840112D01*
X152114494Y-73728574D01*
X152165829Y-73604640D01*
X152192000Y-73473073D01*
X152192000Y-73338927D01*
X152165829Y-73207360D01*
X152114494Y-73083426D01*
X152039967Y-72971888D01*
X151945112Y-72877033D01*
X151833574Y-72802506D01*
X151709640Y-72751171D01*
X151578073Y-72725000D01*
X151476578Y-72725000D01*
X149437174Y-70685597D01*
X149422853Y-70668147D01*
X149353236Y-70611013D01*
X149273809Y-70568559D01*
X149187627Y-70542415D01*
X149120460Y-70535800D01*
X149120450Y-70535800D01*
X149098000Y-70533589D01*
X149075550Y-70535800D01*
X132038950Y-70535800D01*
X132016500Y-70533589D01*
X131994050Y-70535800D01*
X131994040Y-70535800D01*
X131926873Y-70542415D01*
X131840691Y-70568559D01*
X131761264Y-70611013D01*
X131691647Y-70668147D01*
X131677330Y-70685592D01*
X131606422Y-70756500D01*
X131504927Y-70756500D01*
X131373360Y-70782671D01*
X131249426Y-70834006D01*
X131137888Y-70908533D01*
X131043033Y-71003388D01*
X130968506Y-71114926D01*
X130917171Y-71238860D01*
X130891000Y-71370427D01*
X130891000Y-71504573D01*
X130917171Y-71636140D01*
X130968506Y-71760074D01*
X131043033Y-71871612D01*
X131137888Y-71966467D01*
X131249426Y-72040994D01*
X131373360Y-72092329D01*
X131504927Y-72118500D01*
X131639073Y-72118500D01*
X131770640Y-72092329D01*
X131894574Y-72040994D01*
X132006112Y-71966467D01*
X132100967Y-71871612D01*
X132175494Y-71760074D01*
X132226829Y-71636140D01*
X132253000Y-71504573D01*
X132253000Y-71450200D01*
X139851144Y-71450200D01*
X139807171Y-71556360D01*
X139781000Y-71687927D01*
X139781000Y-71822073D01*
X139807171Y-71953640D01*
X139858506Y-72077574D01*
X139933033Y-72189112D01*
X140004800Y-72260879D01*
X140004801Y-73597621D01*
X136208623Y-77393800D01*
X128902879Y-77393800D01*
X128831112Y-77322033D01*
X128719574Y-77247506D01*
X128595640Y-77196171D01*
X128464073Y-77170000D01*
X128329927Y-77170000D01*
X128198360Y-77196171D01*
X128074426Y-77247506D01*
X127962888Y-77322033D01*
X127868033Y-77416888D01*
X127793506Y-77528426D01*
X127742171Y-77652360D01*
X127716000Y-77783927D01*
X127127000Y-77783927D01*
X127127000Y-76581000D01*
X131445000Y-76581000D01*
X131469776Y-76578560D01*
X131493601Y-76571333D01*
X131515557Y-76559597D01*
X131534803Y-76543803D01*
X131550597Y-76524557D01*
X131562333Y-76502601D01*
X131569560Y-76478776D01*
X131572000Y-76454000D01*
X131572000Y-75819000D01*
X131569560Y-75794224D01*
X131562333Y-75770399D01*
X131550597Y-75748443D01*
X131534803Y-75729197D01*
X131515557Y-75713403D01*
X131493601Y-75701667D01*
X131469776Y-75694440D01*
X131445000Y-75692000D01*
X131318000Y-75692000D01*
X131293224Y-75694440D01*
X131269399Y-75701667D01*
X131247443Y-75713403D01*
X131228197Y-75729197D01*
X131212403Y-75748443D01*
X131200667Y-75770399D01*
X131193440Y-75794224D01*
X131191000Y-75819000D01*
X131191000Y-76200000D01*
X126873000Y-76200000D01*
X126848224Y-76202440D01*
X126824399Y-76209667D01*
X126802443Y-76221403D01*
X126783197Y-76237197D01*
X126767403Y-76256443D01*
X126755667Y-76278399D01*
X126748440Y-76302224D01*
X126746000Y-76327000D01*
X126746000Y-78105000D01*
X123952000Y-78105000D01*
X123927224Y-78107440D01*
X123903399Y-78114667D01*
X123881443Y-78126403D01*
X123862197Y-78142197D01*
X123264394Y-78740000D01*
X119253000Y-78740000D01*
X119253000Y-72580500D01*
X123655667Y-72580500D01*
X124383800Y-73126600D01*
X124411399Y-73142333D01*
X124435224Y-73149560D01*
X124460000Y-73152000D01*
X126746000Y-73152000D01*
X126746000Y-75184000D01*
X126748440Y-75208776D01*
X126755667Y-75232601D01*
X126767403Y-75254557D01*
X126783197Y-75273803D01*
X126802443Y-75289597D01*
X126824399Y-75301333D01*
X126848224Y-75308560D01*
X126873000Y-75311000D01*
X129032000Y-75311000D01*
X129055256Y-75308853D01*
X129079167Y-75301917D01*
X129691460Y-75057000D01*
X131191000Y-75057000D01*
X131191000Y-75438000D01*
X131193440Y-75462776D01*
X131200667Y-75486601D01*
X131212403Y-75508557D01*
X131228197Y-75527803D01*
X131247443Y-75543597D01*
X131269399Y-75555333D01*
X131293224Y-75562560D01*
X131318000Y-75565000D01*
X131445000Y-75565000D01*
X131469776Y-75562560D01*
X131493601Y-75555333D01*
X131515557Y-75543597D01*
X131534803Y-75527803D01*
X131550597Y-75508557D01*
X131562333Y-75486601D01*
X131569560Y-75462776D01*
X131572000Y-75438000D01*
X131572000Y-74803000D01*
X131569560Y-74778224D01*
X131562333Y-74754399D01*
X131550597Y-74732443D01*
X131534803Y-74713197D01*
X131515557Y-74697403D01*
X131493601Y-74685667D01*
X131469776Y-74678440D01*
X131445000Y-74676000D01*
X129667000Y-74676000D01*
X129643744Y-74678147D01*
X129619833Y-74685083D01*
X129007541Y-74930000D01*
X127127000Y-74930000D01*
X127127000Y-72898000D01*
X127124560Y-72873224D01*
X127117333Y-72849399D01*
X127105597Y-72827443D01*
X127089803Y-72808197D01*
X127070557Y-72792403D01*
X127048601Y-72780667D01*
X127024776Y-72773440D01*
X127000000Y-72771000D01*
X124629333Y-72771000D01*
X123901200Y-72224900D01*
X123873601Y-72209167D01*
X123849776Y-72201940D01*
X123825000Y-72199500D01*
X118999000Y-72199500D01*
X118974224Y-72201940D01*
X118950399Y-72209167D01*
X118928443Y-72220903D01*
X118909197Y-72236697D01*
X118893403Y-72255943D01*
X118881667Y-72277899D01*
X118874440Y-72301724D01*
X118872000Y-72326500D01*
X118456000Y-72326500D01*
X118456000Y-67848819D01*
X118687156Y-68194769D01*
X119130231Y-68637844D01*
X119651232Y-68985965D01*
X119991721Y-69127000D01*
X119830257Y-69127000D01*
X119592431Y-69174307D01*
X119368403Y-69267102D01*
X119166783Y-69401820D01*
X118995320Y-69573283D01*
X118860602Y-69774903D01*
X118767807Y-69998931D01*
X118720500Y-70236757D01*
X118720500Y-70479243D01*
X118767807Y-70717069D01*
X118860602Y-70941097D01*
X118995320Y-71142717D01*
X119166783Y-71314180D01*
X119368403Y-71448898D01*
X119592431Y-71541693D01*
X119830257Y-71589000D01*
X120072743Y-71589000D01*
X120310569Y-71541693D01*
X120534597Y-71448898D01*
X120736217Y-71314180D01*
X120907680Y-71142717D01*
X121042398Y-70941097D01*
X121135193Y-70717069D01*
X121182500Y-70479243D01*
X121182500Y-70236757D01*
X121135193Y-69998931D01*
X121042398Y-69774903D01*
X120907680Y-69573283D01*
X120736217Y-69401820D01*
X120575543Y-69294461D01*
X120844699Y-69348000D01*
X121471301Y-69348000D01*
X121936493Y-69255467D01*
X121908403Y-69267102D01*
X121706783Y-69401820D01*
X121535320Y-69573283D01*
X121400602Y-69774903D01*
X121307807Y-69998931D01*
X121260500Y-70236757D01*
X121260500Y-70479243D01*
X121307807Y-70717069D01*
X121400602Y-70941097D01*
X121535320Y-71142717D01*
X121706783Y-71314180D01*
X121908403Y-71448898D01*
X122132431Y-71541693D01*
X122370257Y-71589000D01*
X122612743Y-71589000D01*
X122850569Y-71541693D01*
X123074597Y-71448898D01*
X123276217Y-71314180D01*
X123447680Y-71142717D01*
X123582398Y-70941097D01*
X123675193Y-70717069D01*
X123709434Y-70544927D01*
X127335000Y-70544927D01*
X127335000Y-70679073D01*
X127361171Y-70810640D01*
X127412506Y-70934574D01*
X127487033Y-71046112D01*
X127581888Y-71140967D01*
X127693426Y-71215494D01*
X127817360Y-71266829D01*
X127948927Y-71293000D01*
X128083073Y-71293000D01*
X128214640Y-71266829D01*
X128338574Y-71215494D01*
X128450112Y-71140967D01*
X128544967Y-71046112D01*
X128619494Y-70934574D01*
X128670829Y-70810640D01*
X128697000Y-70679073D01*
X128697000Y-70544927D01*
X128670829Y-70413360D01*
X128619494Y-70289426D01*
X128544967Y-70177888D01*
X128450112Y-70083033D01*
X128338574Y-70008506D01*
X128214640Y-69957171D01*
X128083073Y-69931000D01*
X127948927Y-69931000D01*
X127817360Y-69957171D01*
X127693426Y-70008506D01*
X127581888Y-70083033D01*
X127487033Y-70177888D01*
X127412506Y-70289426D01*
X127361171Y-70413360D01*
X127335000Y-70544927D01*
X123709434Y-70544927D01*
X123722500Y-70479243D01*
X123722500Y-70236757D01*
X123675193Y-69998931D01*
X123582398Y-69774903D01*
X123447680Y-69573283D01*
X123276217Y-69401820D01*
X123074597Y-69267102D01*
X122850569Y-69174307D01*
X122612743Y-69127000D01*
X122370257Y-69127000D01*
X122281800Y-69144595D01*
X122664768Y-68985965D01*
X123185769Y-68637844D01*
X123628844Y-68194769D01*
X123976965Y-67673768D01*
X124102819Y-67369927D01*
X132288000Y-67369927D01*
X132288000Y-67504073D01*
X132314171Y-67635640D01*
X132365506Y-67759574D01*
X132440033Y-67871112D01*
X132534888Y-67965967D01*
X132646426Y-68040494D01*
X132770360Y-68091829D01*
X132901927Y-68118000D01*
X133036073Y-68118000D01*
X133167640Y-68091829D01*
X133291574Y-68040494D01*
X133403112Y-67965967D01*
X133497967Y-67871112D01*
X133572494Y-67759574D01*
X133623829Y-67635640D01*
X133650000Y-67504073D01*
X133650000Y-67369927D01*
X133623829Y-67238360D01*
X133572494Y-67114426D01*
X133497967Y-67002888D01*
X133403112Y-66908033D01*
X133291574Y-66833506D01*
X133167640Y-66782171D01*
X133036073Y-66756000D01*
X132901927Y-66756000D01*
X132770360Y-66782171D01*
X132646426Y-66833506D01*
X132534888Y-66908033D01*
X132440033Y-67002888D01*
X132365506Y-67114426D01*
X132314171Y-67238360D01*
X132288000Y-67369927D01*
X124102819Y-67369927D01*
X124216755Y-67094863D01*
X124339000Y-66480301D01*
X124339000Y-65853699D01*
X124216755Y-65239137D01*
X123976965Y-64660232D01*
X123969298Y-64648757D01*
X136691000Y-64648757D01*
X136691000Y-64891243D01*
X136738307Y-65129069D01*
X136831102Y-65353097D01*
X136965820Y-65554717D01*
X137137283Y-65726180D01*
X137338903Y-65860898D01*
X137562931Y-65953693D01*
X137800757Y-66001000D01*
X138043243Y-66001000D01*
X138281069Y-65953693D01*
X138505097Y-65860898D01*
X138706717Y-65726180D01*
X138878180Y-65554717D01*
X139012898Y-65353097D01*
X139105693Y-65129069D01*
X139153000Y-64891243D01*
X139153000Y-64648757D01*
X139231000Y-64648757D01*
X139231000Y-64891243D01*
X139278307Y-65129069D01*
X139371102Y-65353097D01*
X139505820Y-65554717D01*
X139677283Y-65726180D01*
X139878903Y-65860898D01*
X140102931Y-65953693D01*
X140340757Y-66001000D01*
X140583243Y-66001000D01*
X140821069Y-65953693D01*
X141045097Y-65860898D01*
X141246717Y-65726180D01*
X141418180Y-65554717D01*
X141552898Y-65353097D01*
X141645693Y-65129069D01*
X141693000Y-64891243D01*
X141693000Y-64648757D01*
X141771000Y-64648757D01*
X141771000Y-64891243D01*
X141818307Y-65129069D01*
X141911102Y-65353097D01*
X142045820Y-65554717D01*
X142217283Y-65726180D01*
X142418903Y-65860898D01*
X142642931Y-65953693D01*
X142880757Y-66001000D01*
X143123243Y-66001000D01*
X143361069Y-65953693D01*
X143585097Y-65860898D01*
X143786717Y-65726180D01*
X143958180Y-65554717D01*
X144092898Y-65353097D01*
X144185693Y-65129069D01*
X144233000Y-64891243D01*
X144233000Y-64648757D01*
X144311000Y-64648757D01*
X144311000Y-64891243D01*
X144358307Y-65129069D01*
X144451102Y-65353097D01*
X144585820Y-65554717D01*
X144757283Y-65726180D01*
X144958903Y-65860898D01*
X145182931Y-65953693D01*
X145420757Y-66001000D01*
X145663243Y-66001000D01*
X145901069Y-65953693D01*
X146125097Y-65860898D01*
X146326717Y-65726180D01*
X146498180Y-65554717D01*
X146632898Y-65353097D01*
X146725693Y-65129069D01*
X146773000Y-64891243D01*
X146773000Y-64648757D01*
X146851000Y-64648757D01*
X146851000Y-64891243D01*
X146898307Y-65129069D01*
X146991102Y-65353097D01*
X147125820Y-65554717D01*
X147297283Y-65726180D01*
X147498903Y-65860898D01*
X147722931Y-65953693D01*
X147960757Y-66001000D01*
X148203243Y-66001000D01*
X148441069Y-65953693D01*
X148665097Y-65860898D01*
X148866717Y-65726180D01*
X149038180Y-65554717D01*
X149172898Y-65353097D01*
X149265693Y-65129069D01*
X149313000Y-64891243D01*
X149313000Y-64648757D01*
X149391000Y-64648757D01*
X149391000Y-64891243D01*
X149438307Y-65129069D01*
X149531102Y-65353097D01*
X149665820Y-65554717D01*
X149837283Y-65726180D01*
X150038903Y-65860898D01*
X150262931Y-65953693D01*
X150500757Y-66001000D01*
X150743243Y-66001000D01*
X150981069Y-65953693D01*
X151205097Y-65860898D01*
X151406717Y-65726180D01*
X151578180Y-65554717D01*
X151712898Y-65353097D01*
X151805693Y-65129069D01*
X151853000Y-64891243D01*
X151853000Y-64648757D01*
X151931000Y-64648757D01*
X151931000Y-64891243D01*
X151978307Y-65129069D01*
X152071102Y-65353097D01*
X152205820Y-65554717D01*
X152377283Y-65726180D01*
X152578903Y-65860898D01*
X152802931Y-65953693D01*
X153040757Y-66001000D01*
X153283243Y-66001000D01*
X153521069Y-65953693D01*
X153745097Y-65860898D01*
X153946717Y-65726180D01*
X154118180Y-65554717D01*
X154252898Y-65353097D01*
X154345693Y-65129069D01*
X154393000Y-64891243D01*
X154393000Y-64648757D01*
X154345693Y-64410931D01*
X154252898Y-64186903D01*
X154118180Y-63985283D01*
X153946717Y-63813820D01*
X153745097Y-63679102D01*
X153521069Y-63586307D01*
X153283243Y-63539000D01*
X153040757Y-63539000D01*
X152802931Y-63586307D01*
X152578903Y-63679102D01*
X152377283Y-63813820D01*
X152205820Y-63985283D01*
X152071102Y-64186903D01*
X151978307Y-64410931D01*
X151931000Y-64648757D01*
X151853000Y-64648757D01*
X151805693Y-64410931D01*
X151712898Y-64186903D01*
X151578180Y-63985283D01*
X151406717Y-63813820D01*
X151205097Y-63679102D01*
X150981069Y-63586307D01*
X150743243Y-63539000D01*
X150500757Y-63539000D01*
X150262931Y-63586307D01*
X150038903Y-63679102D01*
X149837283Y-63813820D01*
X149665820Y-63985283D01*
X149531102Y-64186903D01*
X149438307Y-64410931D01*
X149391000Y-64648757D01*
X149313000Y-64648757D01*
X149265693Y-64410931D01*
X149172898Y-64186903D01*
X149038180Y-63985283D01*
X148866717Y-63813820D01*
X148665097Y-63679102D01*
X148441069Y-63586307D01*
X148203243Y-63539000D01*
X147960757Y-63539000D01*
X147722931Y-63586307D01*
X147498903Y-63679102D01*
X147297283Y-63813820D01*
X147125820Y-63985283D01*
X146991102Y-64186903D01*
X146898307Y-64410931D01*
X146851000Y-64648757D01*
X146773000Y-64648757D01*
X146725693Y-64410931D01*
X146632898Y-64186903D01*
X146498180Y-63985283D01*
X146326717Y-63813820D01*
X146125097Y-63679102D01*
X145901069Y-63586307D01*
X145663243Y-63539000D01*
X145420757Y-63539000D01*
X145182931Y-63586307D01*
X144958903Y-63679102D01*
X144757283Y-63813820D01*
X144585820Y-63985283D01*
X144451102Y-64186903D01*
X144358307Y-64410931D01*
X144311000Y-64648757D01*
X144233000Y-64648757D01*
X144185693Y-64410931D01*
X144092898Y-64186903D01*
X143958180Y-63985283D01*
X143786717Y-63813820D01*
X143585097Y-63679102D01*
X143361069Y-63586307D01*
X143123243Y-63539000D01*
X142880757Y-63539000D01*
X142642931Y-63586307D01*
X142418903Y-63679102D01*
X142217283Y-63813820D01*
X142045820Y-63985283D01*
X141911102Y-64186903D01*
X141818307Y-64410931D01*
X141771000Y-64648757D01*
X141693000Y-64648757D01*
X141645693Y-64410931D01*
X141552898Y-64186903D01*
X141418180Y-63985283D01*
X141246717Y-63813820D01*
X141045097Y-63679102D01*
X140821069Y-63586307D01*
X140583243Y-63539000D01*
X140340757Y-63539000D01*
X140102931Y-63586307D01*
X139878903Y-63679102D01*
X139677283Y-63813820D01*
X139505820Y-63985283D01*
X139371102Y-64186903D01*
X139278307Y-64410931D01*
X139231000Y-64648757D01*
X139153000Y-64648757D01*
X139105693Y-64410931D01*
X139012898Y-64186903D01*
X138878180Y-63985283D01*
X138706717Y-63813820D01*
X138505097Y-63679102D01*
X138281069Y-63586307D01*
X138043243Y-63539000D01*
X137800757Y-63539000D01*
X137562931Y-63586307D01*
X137338903Y-63679102D01*
X137137283Y-63813820D01*
X136965820Y-63985283D01*
X136831102Y-64186903D01*
X136738307Y-64410931D01*
X136691000Y-64648757D01*
X123969298Y-64648757D01*
X123628844Y-64139231D01*
X123185769Y-63696156D01*
X122826349Y-63456000D01*
X154877695Y-63456000D01*
X155413131Y-63508500D01*
M02*
