%TF.GenerationSoftware,KiCad,Pcbnew,(5.1.6)-1*%
%TF.CreationDate,2020-12-03T23:45:43-06:00*%
%TF.ProjectId,CANBoard,43414e42-6f61-4726-942e-6b696361645f,v1*%
%TF.SameCoordinates,Original*%
%TF.FileFunction,Soldermask,Top*%
%TF.FilePolarity,Negative*%
%FSLAX46Y46*%
G04 Gerber Fmt 4.6, Leading zero omitted, Abs format (unit mm)*
G04 Created by KiCad (PCBNEW (5.1.6)-1) date 2020-12-03 23:45:43*
%MOMM*%
%LPD*%
G01*
G04 APERTURE LIST*
%ADD10O,1.800000X1.800000*%
%ADD11C,1.800000*%
%ADD12C,1.100000*%
%ADD13C,5.700000*%
%ADD14R,2.300000X3.900000*%
%ADD15R,2.300000X1.600000*%
%ADD16R,1.160000X0.750000*%
%ADD17R,2.500000X2.100000*%
%ADD18R,0.550000X0.800000*%
%ADD19C,0.100000*%
%ADD20R,2.500000X0.840000*%
%ADD21R,1.440000X0.740000*%
G04 APERTURE END LIST*
G36*
G01*
X129058750Y-89427000D02*
X130021250Y-89427000D01*
G75*
G02*
X130290000Y-89695750I0J-268750D01*
G01*
X130290000Y-90233250D01*
G75*
G02*
X130021250Y-90502000I-268750J0D01*
G01*
X129058750Y-90502000D01*
G75*
G02*
X128790000Y-90233250I0J268750D01*
G01*
X128790000Y-89695750D01*
G75*
G02*
X129058750Y-89427000I268750J0D01*
G01*
G37*
G36*
G01*
X129058750Y-87552000D02*
X130021250Y-87552000D01*
G75*
G02*
X130290000Y-87820750I0J-268750D01*
G01*
X130290000Y-88358250D01*
G75*
G02*
X130021250Y-88627000I-268750J0D01*
G01*
X129058750Y-88627000D01*
G75*
G02*
X128790000Y-88358250I0J268750D01*
G01*
X128790000Y-87820750D01*
G75*
G02*
X129058750Y-87552000I268750J0D01*
G01*
G37*
G36*
G01*
X130328750Y-85490000D02*
X131291250Y-85490000D01*
G75*
G02*
X131560000Y-85758750I0J-268750D01*
G01*
X131560000Y-86296250D01*
G75*
G02*
X131291250Y-86565000I-268750J0D01*
G01*
X130328750Y-86565000D01*
G75*
G02*
X130060000Y-86296250I0J268750D01*
G01*
X130060000Y-85758750D01*
G75*
G02*
X130328750Y-85490000I268750J0D01*
G01*
G37*
G36*
G01*
X130328750Y-83615000D02*
X131291250Y-83615000D01*
G75*
G02*
X131560000Y-83883750I0J-268750D01*
G01*
X131560000Y-84421250D01*
G75*
G02*
X131291250Y-84690000I-268750J0D01*
G01*
X130328750Y-84690000D01*
G75*
G02*
X130060000Y-84421250I0J268750D01*
G01*
X130060000Y-83883750D01*
G75*
G02*
X130328750Y-83615000I268750J0D01*
G01*
G37*
D10*
X137922000Y-64770000D03*
X140462000Y-64770000D03*
X143002000Y-64770000D03*
X145542000Y-64770000D03*
X148082000Y-64770000D03*
X150622000Y-64770000D03*
X153162000Y-64770000D03*
D11*
X155702000Y-64770000D03*
D10*
X122491500Y-70358000D03*
D11*
X119951500Y-70358000D03*
D10*
X156210000Y-100711000D03*
X156210000Y-98171000D03*
X156210000Y-95631000D03*
X156210000Y-93091000D03*
X156210000Y-90551000D03*
X156210000Y-88011000D03*
X156210000Y-85471000D03*
D11*
X156210000Y-82931000D03*
D10*
X119761000Y-101219000D03*
X119761000Y-98679000D03*
X119761000Y-96139000D03*
X119761000Y-93599000D03*
X119761000Y-91059000D03*
X119761000Y-88519000D03*
X119761000Y-85979000D03*
D11*
X119761000Y-83439000D03*
D10*
X146558000Y-101219000D03*
X144018000Y-101219000D03*
X141478000Y-101219000D03*
X138938000Y-101219000D03*
X136398000Y-101219000D03*
X133858000Y-101219000D03*
X131318000Y-101219000D03*
D11*
X128778000Y-101219000D03*
D12*
X152209500Y-74549000D03*
G36*
G01*
X146839500Y-91864500D02*
X146039500Y-91864500D01*
G75*
G02*
X145639500Y-91464500I0J400000D01*
G01*
X145639500Y-89764500D01*
G75*
G02*
X146039500Y-89364500I400000J0D01*
G01*
X146839500Y-89364500D01*
G75*
G02*
X147239500Y-89764500I0J-400000D01*
G01*
X147239500Y-91464500D01*
G75*
G02*
X146839500Y-91864500I-400000J0D01*
G01*
G37*
G36*
G01*
X143139500Y-91864500D02*
X142339500Y-91864500D01*
G75*
G02*
X141939500Y-91464500I0J400000D01*
G01*
X141939500Y-89764500D01*
G75*
G02*
X142339500Y-89364500I400000J0D01*
G01*
X143139500Y-89364500D01*
G75*
G02*
X143539500Y-89764500I0J-400000D01*
G01*
X143539500Y-91464500D01*
G75*
G02*
X143139500Y-91864500I-400000J0D01*
G01*
G37*
G36*
G01*
X126765000Y-64743250D02*
X126765000Y-63780750D01*
G75*
G02*
X127033750Y-63512000I268750J0D01*
G01*
X127571250Y-63512000D01*
G75*
G02*
X127840000Y-63780750I0J-268750D01*
G01*
X127840000Y-64743250D01*
G75*
G02*
X127571250Y-65012000I-268750J0D01*
G01*
X127033750Y-65012000D01*
G75*
G02*
X126765000Y-64743250I0J268750D01*
G01*
G37*
G36*
G01*
X124890000Y-64743250D02*
X124890000Y-63780750D01*
G75*
G02*
X125158750Y-63512000I268750J0D01*
G01*
X125696250Y-63512000D01*
G75*
G02*
X125965000Y-63780750I0J-268750D01*
G01*
X125965000Y-64743250D01*
G75*
G02*
X125696250Y-65012000I-268750J0D01*
G01*
X125158750Y-65012000D01*
G75*
G02*
X124890000Y-64743250I0J268750D01*
G01*
G37*
G36*
G01*
X133450250Y-69323000D02*
X132487750Y-69323000D01*
G75*
G02*
X132219000Y-69054250I0J268750D01*
G01*
X132219000Y-68516750D01*
G75*
G02*
X132487750Y-68248000I268750J0D01*
G01*
X133450250Y-68248000D01*
G75*
G02*
X133719000Y-68516750I0J-268750D01*
G01*
X133719000Y-69054250D01*
G75*
G02*
X133450250Y-69323000I-268750J0D01*
G01*
G37*
G36*
G01*
X133450250Y-71198000D02*
X132487750Y-71198000D01*
G75*
G02*
X132219000Y-70929250I0J268750D01*
G01*
X132219000Y-70391750D01*
G75*
G02*
X132487750Y-70123000I268750J0D01*
G01*
X133450250Y-70123000D01*
G75*
G02*
X133719000Y-70391750I0J-268750D01*
G01*
X133719000Y-70929250D01*
G75*
G02*
X133450250Y-71198000I-268750J0D01*
G01*
G37*
G36*
G01*
X146738000Y-79169000D02*
X146738000Y-78819000D01*
G75*
G02*
X146913000Y-78644000I175000J0D01*
G01*
X148613000Y-78644000D01*
G75*
G02*
X148788000Y-78819000I0J-175000D01*
G01*
X148788000Y-79169000D01*
G75*
G02*
X148613000Y-79344000I-175000J0D01*
G01*
X146913000Y-79344000D01*
G75*
G02*
X146738000Y-79169000I0J175000D01*
G01*
G37*
G36*
G01*
X146738000Y-80439000D02*
X146738000Y-80089000D01*
G75*
G02*
X146913000Y-79914000I175000J0D01*
G01*
X148613000Y-79914000D01*
G75*
G02*
X148788000Y-80089000I0J-175000D01*
G01*
X148788000Y-80439000D01*
G75*
G02*
X148613000Y-80614000I-175000J0D01*
G01*
X146913000Y-80614000D01*
G75*
G02*
X146738000Y-80439000I0J175000D01*
G01*
G37*
G36*
G01*
X146738000Y-81709000D02*
X146738000Y-81359000D01*
G75*
G02*
X146913000Y-81184000I175000J0D01*
G01*
X148613000Y-81184000D01*
G75*
G02*
X148788000Y-81359000I0J-175000D01*
G01*
X148788000Y-81709000D01*
G75*
G02*
X148613000Y-81884000I-175000J0D01*
G01*
X146913000Y-81884000D01*
G75*
G02*
X146738000Y-81709000I0J175000D01*
G01*
G37*
G36*
G01*
X146738000Y-82979000D02*
X146738000Y-82629000D01*
G75*
G02*
X146913000Y-82454000I175000J0D01*
G01*
X148613000Y-82454000D01*
G75*
G02*
X148788000Y-82629000I0J-175000D01*
G01*
X148788000Y-82979000D01*
G75*
G02*
X148613000Y-83154000I-175000J0D01*
G01*
X146913000Y-83154000D01*
G75*
G02*
X146738000Y-82979000I0J175000D01*
G01*
G37*
G36*
G01*
X141788000Y-82979000D02*
X141788000Y-82629000D01*
G75*
G02*
X141963000Y-82454000I175000J0D01*
G01*
X143663000Y-82454000D01*
G75*
G02*
X143838000Y-82629000I0J-175000D01*
G01*
X143838000Y-82979000D01*
G75*
G02*
X143663000Y-83154000I-175000J0D01*
G01*
X141963000Y-83154000D01*
G75*
G02*
X141788000Y-82979000I0J175000D01*
G01*
G37*
G36*
G01*
X141788000Y-81709000D02*
X141788000Y-81359000D01*
G75*
G02*
X141963000Y-81184000I175000J0D01*
G01*
X143663000Y-81184000D01*
G75*
G02*
X143838000Y-81359000I0J-175000D01*
G01*
X143838000Y-81709000D01*
G75*
G02*
X143663000Y-81884000I-175000J0D01*
G01*
X141963000Y-81884000D01*
G75*
G02*
X141788000Y-81709000I0J175000D01*
G01*
G37*
G36*
G01*
X141788000Y-80439000D02*
X141788000Y-80089000D01*
G75*
G02*
X141963000Y-79914000I175000J0D01*
G01*
X143663000Y-79914000D01*
G75*
G02*
X143838000Y-80089000I0J-175000D01*
G01*
X143838000Y-80439000D01*
G75*
G02*
X143663000Y-80614000I-175000J0D01*
G01*
X141963000Y-80614000D01*
G75*
G02*
X141788000Y-80439000I0J175000D01*
G01*
G37*
G36*
G01*
X141788000Y-79169000D02*
X141788000Y-78819000D01*
G75*
G02*
X141963000Y-78644000I175000J0D01*
G01*
X143663000Y-78644000D01*
G75*
G02*
X143838000Y-78819000I0J-175000D01*
G01*
X143838000Y-79169000D01*
G75*
G02*
X143663000Y-79344000I-175000J0D01*
G01*
X141963000Y-79344000D01*
G75*
G02*
X141788000Y-79169000I0J175000D01*
G01*
G37*
D13*
X121158000Y-66167000D03*
X151638000Y-99822000D03*
D14*
X131978000Y-91313000D03*
D15*
X138278000Y-93613000D03*
X138278000Y-91313000D03*
X138278000Y-89013000D03*
G36*
G01*
X129058750Y-93491000D02*
X130021250Y-93491000D01*
G75*
G02*
X130290000Y-93759750I0J-268750D01*
G01*
X130290000Y-94297250D01*
G75*
G02*
X130021250Y-94566000I-268750J0D01*
G01*
X129058750Y-94566000D01*
G75*
G02*
X128790000Y-94297250I0J268750D01*
G01*
X128790000Y-93759750D01*
G75*
G02*
X129058750Y-93491000I268750J0D01*
G01*
G37*
G36*
G01*
X129058750Y-91616000D02*
X130021250Y-91616000D01*
G75*
G02*
X130290000Y-91884750I0J-268750D01*
G01*
X130290000Y-92422250D01*
G75*
G02*
X130021250Y-92691000I-268750J0D01*
G01*
X129058750Y-92691000D01*
G75*
G02*
X128790000Y-92422250I0J268750D01*
G01*
X128790000Y-91884750D01*
G75*
G02*
X129058750Y-91616000I268750J0D01*
G01*
G37*
G36*
G01*
X140100000Y-86968250D02*
X140100000Y-86005750D01*
G75*
G02*
X140368750Y-85737000I268750J0D01*
G01*
X140906250Y-85737000D01*
G75*
G02*
X141175000Y-86005750I0J-268750D01*
G01*
X141175000Y-86968250D01*
G75*
G02*
X140906250Y-87237000I-268750J0D01*
G01*
X140368750Y-87237000D01*
G75*
G02*
X140100000Y-86968250I0J268750D01*
G01*
G37*
G36*
G01*
X138225000Y-86968250D02*
X138225000Y-86005750D01*
G75*
G02*
X138493750Y-85737000I268750J0D01*
G01*
X139031250Y-85737000D01*
G75*
G02*
X139300000Y-86005750I0J-268750D01*
G01*
X139300000Y-86968250D01*
G75*
G02*
X139031250Y-87237000I-268750J0D01*
G01*
X138493750Y-87237000D01*
G75*
G02*
X138225000Y-86968250I0J268750D01*
G01*
G37*
D16*
X150706000Y-90614500D03*
X150706000Y-89664500D03*
X150706000Y-91564500D03*
X148506000Y-91564500D03*
X148506000Y-90614500D03*
X148506000Y-89664500D03*
G36*
G01*
X145609500Y-94524750D02*
X145609500Y-93562250D01*
G75*
G02*
X145878250Y-93293500I268750J0D01*
G01*
X146415750Y-93293500D01*
G75*
G02*
X146684500Y-93562250I0J-268750D01*
G01*
X146684500Y-94524750D01*
G75*
G02*
X146415750Y-94793500I-268750J0D01*
G01*
X145878250Y-94793500D01*
G75*
G02*
X145609500Y-94524750I0J268750D01*
G01*
G37*
G36*
G01*
X143734500Y-94524750D02*
X143734500Y-93562250D01*
G75*
G02*
X144003250Y-93293500I268750J0D01*
G01*
X144540750Y-93293500D01*
G75*
G02*
X144809500Y-93562250I0J-268750D01*
G01*
X144809500Y-94524750D01*
G75*
G02*
X144540750Y-94793500I-268750J0D01*
G01*
X144003250Y-94793500D01*
G75*
G02*
X143734500Y-94524750I0J268750D01*
G01*
G37*
G36*
G01*
X143745000Y-86386750D02*
X143745000Y-87349250D01*
G75*
G02*
X143476250Y-87618000I-268750J0D01*
G01*
X142938750Y-87618000D01*
G75*
G02*
X142670000Y-87349250I0J268750D01*
G01*
X142670000Y-86386750D01*
G75*
G02*
X142938750Y-86118000I268750J0D01*
G01*
X143476250Y-86118000D01*
G75*
G02*
X143745000Y-86386750I0J-268750D01*
G01*
G37*
G36*
G01*
X145620000Y-86386750D02*
X145620000Y-87349250D01*
G75*
G02*
X145351250Y-87618000I-268750J0D01*
G01*
X144813750Y-87618000D01*
G75*
G02*
X144545000Y-87349250I0J268750D01*
G01*
X144545000Y-86386750D01*
G75*
G02*
X144813750Y-86118000I268750J0D01*
G01*
X145351250Y-86118000D01*
G75*
G02*
X145620000Y-86386750I0J-268750D01*
G01*
G37*
G36*
G01*
X153054000Y-86206250D02*
X153054000Y-85243750D01*
G75*
G02*
X153322750Y-84975000I268750J0D01*
G01*
X153860250Y-84975000D01*
G75*
G02*
X154129000Y-85243750I0J-268750D01*
G01*
X154129000Y-86206250D01*
G75*
G02*
X153860250Y-86475000I-268750J0D01*
G01*
X153322750Y-86475000D01*
G75*
G02*
X153054000Y-86206250I0J268750D01*
G01*
G37*
G36*
G01*
X151179000Y-86206250D02*
X151179000Y-85243750D01*
G75*
G02*
X151447750Y-84975000I268750J0D01*
G01*
X151985250Y-84975000D01*
G75*
G02*
X152254000Y-85243750I0J-268750D01*
G01*
X152254000Y-86206250D01*
G75*
G02*
X151985250Y-86475000I-268750J0D01*
G01*
X151447750Y-86475000D01*
G75*
G02*
X151179000Y-86206250I0J268750D01*
G01*
G37*
G36*
G01*
X140234750Y-93745000D02*
X141197250Y-93745000D01*
G75*
G02*
X141466000Y-94013750I0J-268750D01*
G01*
X141466000Y-94551250D01*
G75*
G02*
X141197250Y-94820000I-268750J0D01*
G01*
X140234750Y-94820000D01*
G75*
G02*
X139966000Y-94551250I0J268750D01*
G01*
X139966000Y-94013750D01*
G75*
G02*
X140234750Y-93745000I268750J0D01*
G01*
G37*
G36*
G01*
X140234750Y-91870000D02*
X141197250Y-91870000D01*
G75*
G02*
X141466000Y-92138750I0J-268750D01*
G01*
X141466000Y-92676250D01*
G75*
G02*
X141197250Y-92945000I-268750J0D01*
G01*
X140234750Y-92945000D01*
G75*
G02*
X139966000Y-92676250I0J268750D01*
G01*
X139966000Y-92138750D01*
G75*
G02*
X140234750Y-91870000I268750J0D01*
G01*
G37*
G36*
G01*
X141197250Y-89262000D02*
X140234750Y-89262000D01*
G75*
G02*
X139966000Y-88993250I0J268750D01*
G01*
X139966000Y-88455750D01*
G75*
G02*
X140234750Y-88187000I268750J0D01*
G01*
X141197250Y-88187000D01*
G75*
G02*
X141466000Y-88455750I0J-268750D01*
G01*
X141466000Y-88993250D01*
G75*
G02*
X141197250Y-89262000I-268750J0D01*
G01*
G37*
G36*
G01*
X141197250Y-91137000D02*
X140234750Y-91137000D01*
G75*
G02*
X139966000Y-90868250I0J268750D01*
G01*
X139966000Y-90330750D01*
G75*
G02*
X140234750Y-90062000I268750J0D01*
G01*
X141197250Y-90062000D01*
G75*
G02*
X141466000Y-90330750I0J-268750D01*
G01*
X141466000Y-90868250D01*
G75*
G02*
X141197250Y-91137000I-268750J0D01*
G01*
G37*
G36*
G01*
X149180500Y-86206250D02*
X149180500Y-85243750D01*
G75*
G02*
X149449250Y-84975000I268750J0D01*
G01*
X149986750Y-84975000D01*
G75*
G02*
X150255500Y-85243750I0J-268750D01*
G01*
X150255500Y-86206250D01*
G75*
G02*
X149986750Y-86475000I-268750J0D01*
G01*
X149449250Y-86475000D01*
G75*
G02*
X149180500Y-86206250I0J268750D01*
G01*
G37*
G36*
G01*
X147305500Y-86206250D02*
X147305500Y-85243750D01*
G75*
G02*
X147574250Y-84975000I268750J0D01*
G01*
X148111750Y-84975000D01*
G75*
G02*
X148380500Y-85243750I0J-268750D01*
G01*
X148380500Y-86206250D01*
G75*
G02*
X148111750Y-86475000I-268750J0D01*
G01*
X147574250Y-86475000D01*
G75*
G02*
X147305500Y-86206250I0J268750D01*
G01*
G37*
G36*
G01*
X150648750Y-95078500D02*
X151611250Y-95078500D01*
G75*
G02*
X151880000Y-95347250I0J-268750D01*
G01*
X151880000Y-95884750D01*
G75*
G02*
X151611250Y-96153500I-268750J0D01*
G01*
X150648750Y-96153500D01*
G75*
G02*
X150380000Y-95884750I0J268750D01*
G01*
X150380000Y-95347250D01*
G75*
G02*
X150648750Y-95078500I268750J0D01*
G01*
G37*
G36*
G01*
X150648750Y-93203500D02*
X151611250Y-93203500D01*
G75*
G02*
X151880000Y-93472250I0J-268750D01*
G01*
X151880000Y-94009750D01*
G75*
G02*
X151611250Y-94278500I-268750J0D01*
G01*
X150648750Y-94278500D01*
G75*
G02*
X150380000Y-94009750I0J268750D01*
G01*
X150380000Y-93472250D01*
G75*
G02*
X150648750Y-93203500I268750J0D01*
G01*
G37*
G36*
G01*
X152744250Y-95078500D02*
X153706750Y-95078500D01*
G75*
G02*
X153975500Y-95347250I0J-268750D01*
G01*
X153975500Y-95884750D01*
G75*
G02*
X153706750Y-96153500I-268750J0D01*
G01*
X152744250Y-96153500D01*
G75*
G02*
X152475500Y-95884750I0J268750D01*
G01*
X152475500Y-95347250D01*
G75*
G02*
X152744250Y-95078500I268750J0D01*
G01*
G37*
G36*
G01*
X152744250Y-93203500D02*
X153706750Y-93203500D01*
G75*
G02*
X153975500Y-93472250I0J-268750D01*
G01*
X153975500Y-94009750D01*
G75*
G02*
X153706750Y-94278500I-268750J0D01*
G01*
X152744250Y-94278500D01*
G75*
G02*
X152475500Y-94009750I0J268750D01*
G01*
X152475500Y-93472250D01*
G75*
G02*
X152744250Y-93203500I268750J0D01*
G01*
G37*
G36*
G01*
X148553250Y-95078500D02*
X149515750Y-95078500D01*
G75*
G02*
X149784500Y-95347250I0J-268750D01*
G01*
X149784500Y-95884750D01*
G75*
G02*
X149515750Y-96153500I-268750J0D01*
G01*
X148553250Y-96153500D01*
G75*
G02*
X148284500Y-95884750I0J268750D01*
G01*
X148284500Y-95347250D01*
G75*
G02*
X148553250Y-95078500I268750J0D01*
G01*
G37*
G36*
G01*
X148553250Y-93203500D02*
X149515750Y-93203500D01*
G75*
G02*
X149784500Y-93472250I0J-268750D01*
G01*
X149784500Y-94009750D01*
G75*
G02*
X149515750Y-94278500I-268750J0D01*
G01*
X148553250Y-94278500D01*
G75*
G02*
X148284500Y-94009750I0J268750D01*
G01*
X148284500Y-93472250D01*
G75*
G02*
X148553250Y-93203500I268750J0D01*
G01*
G37*
G36*
G01*
X157031482Y-75041000D02*
X154118518Y-75041000D01*
G75*
G02*
X153850000Y-74772482I0J268518D01*
G01*
X153850000Y-73859518D01*
G75*
G02*
X154118518Y-73591000I268518J0D01*
G01*
X157031482Y-73591000D01*
G75*
G02*
X157300000Y-73859518I0J-268518D01*
G01*
X157300000Y-74772482D01*
G75*
G02*
X157031482Y-75041000I-268518J0D01*
G01*
G37*
G36*
G01*
X157031482Y-80841000D02*
X154118518Y-80841000D01*
G75*
G02*
X153850000Y-80572482I0J268518D01*
G01*
X153850000Y-79659518D01*
G75*
G02*
X154118518Y-79391000I268518J0D01*
G01*
X157031482Y-79391000D01*
G75*
G02*
X157300000Y-79659518I0J-268518D01*
G01*
X157300000Y-80572482D01*
G75*
G02*
X157031482Y-80841000I-268518J0D01*
G01*
G37*
D17*
X121031000Y-77415000D03*
X121031000Y-73715000D03*
G36*
G01*
X129593000Y-66342000D02*
X129593000Y-65992000D01*
G75*
G02*
X129768000Y-65817000I175000J0D01*
G01*
X131468000Y-65817000D01*
G75*
G02*
X131643000Y-65992000I0J-175000D01*
G01*
X131643000Y-66342000D01*
G75*
G02*
X131468000Y-66517000I-175000J0D01*
G01*
X129768000Y-66517000D01*
G75*
G02*
X129593000Y-66342000I0J175000D01*
G01*
G37*
G36*
G01*
X129593000Y-67612000D02*
X129593000Y-67262000D01*
G75*
G02*
X129768000Y-67087000I175000J0D01*
G01*
X131468000Y-67087000D01*
G75*
G02*
X131643000Y-67262000I0J-175000D01*
G01*
X131643000Y-67612000D01*
G75*
G02*
X131468000Y-67787000I-175000J0D01*
G01*
X129768000Y-67787000D01*
G75*
G02*
X129593000Y-67612000I0J175000D01*
G01*
G37*
G36*
G01*
X129593000Y-68882000D02*
X129593000Y-68532000D01*
G75*
G02*
X129768000Y-68357000I175000J0D01*
G01*
X131468000Y-68357000D01*
G75*
G02*
X131643000Y-68532000I0J-175000D01*
G01*
X131643000Y-68882000D01*
G75*
G02*
X131468000Y-69057000I-175000J0D01*
G01*
X129768000Y-69057000D01*
G75*
G02*
X129593000Y-68882000I0J175000D01*
G01*
G37*
G36*
G01*
X129593000Y-70152000D02*
X129593000Y-69802000D01*
G75*
G02*
X129768000Y-69627000I175000J0D01*
G01*
X131468000Y-69627000D01*
G75*
G02*
X131643000Y-69802000I0J-175000D01*
G01*
X131643000Y-70152000D01*
G75*
G02*
X131468000Y-70327000I-175000J0D01*
G01*
X129768000Y-70327000D01*
G75*
G02*
X129593000Y-70152000I0J175000D01*
G01*
G37*
G36*
G01*
X124643000Y-70152000D02*
X124643000Y-69802000D01*
G75*
G02*
X124818000Y-69627000I175000J0D01*
G01*
X126518000Y-69627000D01*
G75*
G02*
X126693000Y-69802000I0J-175000D01*
G01*
X126693000Y-70152000D01*
G75*
G02*
X126518000Y-70327000I-175000J0D01*
G01*
X124818000Y-70327000D01*
G75*
G02*
X124643000Y-70152000I0J175000D01*
G01*
G37*
G36*
G01*
X124643000Y-68882000D02*
X124643000Y-68532000D01*
G75*
G02*
X124818000Y-68357000I175000J0D01*
G01*
X126518000Y-68357000D01*
G75*
G02*
X126693000Y-68532000I0J-175000D01*
G01*
X126693000Y-68882000D01*
G75*
G02*
X126518000Y-69057000I-175000J0D01*
G01*
X124818000Y-69057000D01*
G75*
G02*
X124643000Y-68882000I0J175000D01*
G01*
G37*
G36*
G01*
X124643000Y-67612000D02*
X124643000Y-67262000D01*
G75*
G02*
X124818000Y-67087000I175000J0D01*
G01*
X126518000Y-67087000D01*
G75*
G02*
X126693000Y-67262000I0J-175000D01*
G01*
X126693000Y-67612000D01*
G75*
G02*
X126518000Y-67787000I-175000J0D01*
G01*
X124818000Y-67787000D01*
G75*
G02*
X124643000Y-67612000I0J175000D01*
G01*
G37*
G36*
G01*
X124643000Y-66342000D02*
X124643000Y-65992000D01*
G75*
G02*
X124818000Y-65817000I175000J0D01*
G01*
X126518000Y-65817000D01*
G75*
G02*
X126693000Y-65992000I0J-175000D01*
G01*
X126693000Y-66342000D01*
G75*
G02*
X126518000Y-66517000I-175000J0D01*
G01*
X124818000Y-66517000D01*
G75*
G02*
X124643000Y-66342000I0J175000D01*
G01*
G37*
G36*
G01*
X131520000Y-73691000D02*
X131520000Y-72391000D01*
G75*
G02*
X131670000Y-72241000I150000J0D01*
G01*
X131970000Y-72241000D01*
G75*
G02*
X132120000Y-72391000I0J-150000D01*
G01*
X132120000Y-73691000D01*
G75*
G02*
X131970000Y-73841000I-150000J0D01*
G01*
X131670000Y-73841000D01*
G75*
G02*
X131520000Y-73691000I0J150000D01*
G01*
G37*
G36*
G01*
X132320000Y-73691000D02*
X132320000Y-72391000D01*
G75*
G02*
X132470000Y-72241000I150000J0D01*
G01*
X132770000Y-72241000D01*
G75*
G02*
X132920000Y-72391000I0J-150000D01*
G01*
X132920000Y-73691000D01*
G75*
G02*
X132770000Y-73841000I-150000J0D01*
G01*
X132470000Y-73841000D01*
G75*
G02*
X132320000Y-73691000I0J150000D01*
G01*
G37*
G36*
G01*
X133120000Y-73691000D02*
X133120000Y-72391000D01*
G75*
G02*
X133270000Y-72241000I150000J0D01*
G01*
X133570000Y-72241000D01*
G75*
G02*
X133720000Y-72391000I0J-150000D01*
G01*
X133720000Y-73691000D01*
G75*
G02*
X133570000Y-73841000I-150000J0D01*
G01*
X133270000Y-73841000D01*
G75*
G02*
X133120000Y-73691000I0J150000D01*
G01*
G37*
G36*
G01*
X133920000Y-73691000D02*
X133920000Y-72391000D01*
G75*
G02*
X134070000Y-72241000I150000J0D01*
G01*
X134370000Y-72241000D01*
G75*
G02*
X134520000Y-72391000I0J-150000D01*
G01*
X134520000Y-73691000D01*
G75*
G02*
X134370000Y-73841000I-150000J0D01*
G01*
X134070000Y-73841000D01*
G75*
G02*
X133920000Y-73691000I0J150000D01*
G01*
G37*
G36*
G01*
X134720000Y-73691000D02*
X134720000Y-72391000D01*
G75*
G02*
X134870000Y-72241000I150000J0D01*
G01*
X135170000Y-72241000D01*
G75*
G02*
X135320000Y-72391000I0J-150000D01*
G01*
X135320000Y-73691000D01*
G75*
G02*
X135170000Y-73841000I-150000J0D01*
G01*
X134870000Y-73841000D01*
G75*
G02*
X134720000Y-73691000I0J150000D01*
G01*
G37*
G36*
G01*
X135520000Y-73691000D02*
X135520000Y-72391000D01*
G75*
G02*
X135670000Y-72241000I150000J0D01*
G01*
X135970000Y-72241000D01*
G75*
G02*
X136120000Y-72391000I0J-150000D01*
G01*
X136120000Y-73691000D01*
G75*
G02*
X135970000Y-73841000I-150000J0D01*
G01*
X135670000Y-73841000D01*
G75*
G02*
X135520000Y-73691000I0J150000D01*
G01*
G37*
G36*
G01*
X136320000Y-73691000D02*
X136320000Y-72391000D01*
G75*
G02*
X136470000Y-72241000I150000J0D01*
G01*
X136770000Y-72241000D01*
G75*
G02*
X136920000Y-72391000I0J-150000D01*
G01*
X136920000Y-73691000D01*
G75*
G02*
X136770000Y-73841000I-150000J0D01*
G01*
X136470000Y-73841000D01*
G75*
G02*
X136320000Y-73691000I0J150000D01*
G01*
G37*
G36*
G01*
X137120000Y-73691000D02*
X137120000Y-72391000D01*
G75*
G02*
X137270000Y-72241000I150000J0D01*
G01*
X137570000Y-72241000D01*
G75*
G02*
X137720000Y-72391000I0J-150000D01*
G01*
X137720000Y-73691000D01*
G75*
G02*
X137570000Y-73841000I-150000J0D01*
G01*
X137270000Y-73841000D01*
G75*
G02*
X137120000Y-73691000I0J150000D01*
G01*
G37*
G36*
G01*
X137995000Y-74566000D02*
X137995000Y-74266000D01*
G75*
G02*
X138145000Y-74116000I150000J0D01*
G01*
X139445000Y-74116000D01*
G75*
G02*
X139595000Y-74266000I0J-150000D01*
G01*
X139595000Y-74566000D01*
G75*
G02*
X139445000Y-74716000I-150000J0D01*
G01*
X138145000Y-74716000D01*
G75*
G02*
X137995000Y-74566000I0J150000D01*
G01*
G37*
G36*
G01*
X137995000Y-75366000D02*
X137995000Y-75066000D01*
G75*
G02*
X138145000Y-74916000I150000J0D01*
G01*
X139445000Y-74916000D01*
G75*
G02*
X139595000Y-75066000I0J-150000D01*
G01*
X139595000Y-75366000D01*
G75*
G02*
X139445000Y-75516000I-150000J0D01*
G01*
X138145000Y-75516000D01*
G75*
G02*
X137995000Y-75366000I0J150000D01*
G01*
G37*
G36*
G01*
X137995000Y-76166000D02*
X137995000Y-75866000D01*
G75*
G02*
X138145000Y-75716000I150000J0D01*
G01*
X139445000Y-75716000D01*
G75*
G02*
X139595000Y-75866000I0J-150000D01*
G01*
X139595000Y-76166000D01*
G75*
G02*
X139445000Y-76316000I-150000J0D01*
G01*
X138145000Y-76316000D01*
G75*
G02*
X137995000Y-76166000I0J150000D01*
G01*
G37*
G36*
G01*
X137995000Y-76966000D02*
X137995000Y-76666000D01*
G75*
G02*
X138145000Y-76516000I150000J0D01*
G01*
X139445000Y-76516000D01*
G75*
G02*
X139595000Y-76666000I0J-150000D01*
G01*
X139595000Y-76966000D01*
G75*
G02*
X139445000Y-77116000I-150000J0D01*
G01*
X138145000Y-77116000D01*
G75*
G02*
X137995000Y-76966000I0J150000D01*
G01*
G37*
G36*
G01*
X137995000Y-77766000D02*
X137995000Y-77466000D01*
G75*
G02*
X138145000Y-77316000I150000J0D01*
G01*
X139445000Y-77316000D01*
G75*
G02*
X139595000Y-77466000I0J-150000D01*
G01*
X139595000Y-77766000D01*
G75*
G02*
X139445000Y-77916000I-150000J0D01*
G01*
X138145000Y-77916000D01*
G75*
G02*
X137995000Y-77766000I0J150000D01*
G01*
G37*
G36*
G01*
X137995000Y-78566000D02*
X137995000Y-78266000D01*
G75*
G02*
X138145000Y-78116000I150000J0D01*
G01*
X139445000Y-78116000D01*
G75*
G02*
X139595000Y-78266000I0J-150000D01*
G01*
X139595000Y-78566000D01*
G75*
G02*
X139445000Y-78716000I-150000J0D01*
G01*
X138145000Y-78716000D01*
G75*
G02*
X137995000Y-78566000I0J150000D01*
G01*
G37*
G36*
G01*
X137995000Y-79366000D02*
X137995000Y-79066000D01*
G75*
G02*
X138145000Y-78916000I150000J0D01*
G01*
X139445000Y-78916000D01*
G75*
G02*
X139595000Y-79066000I0J-150000D01*
G01*
X139595000Y-79366000D01*
G75*
G02*
X139445000Y-79516000I-150000J0D01*
G01*
X138145000Y-79516000D01*
G75*
G02*
X137995000Y-79366000I0J150000D01*
G01*
G37*
G36*
G01*
X137995000Y-80166000D02*
X137995000Y-79866000D01*
G75*
G02*
X138145000Y-79716000I150000J0D01*
G01*
X139445000Y-79716000D01*
G75*
G02*
X139595000Y-79866000I0J-150000D01*
G01*
X139595000Y-80166000D01*
G75*
G02*
X139445000Y-80316000I-150000J0D01*
G01*
X138145000Y-80316000D01*
G75*
G02*
X137995000Y-80166000I0J150000D01*
G01*
G37*
G36*
G01*
X137120000Y-82041000D02*
X137120000Y-80741000D01*
G75*
G02*
X137270000Y-80591000I150000J0D01*
G01*
X137570000Y-80591000D01*
G75*
G02*
X137720000Y-80741000I0J-150000D01*
G01*
X137720000Y-82041000D01*
G75*
G02*
X137570000Y-82191000I-150000J0D01*
G01*
X137270000Y-82191000D01*
G75*
G02*
X137120000Y-82041000I0J150000D01*
G01*
G37*
G36*
G01*
X136320000Y-82041000D02*
X136320000Y-80741000D01*
G75*
G02*
X136470000Y-80591000I150000J0D01*
G01*
X136770000Y-80591000D01*
G75*
G02*
X136920000Y-80741000I0J-150000D01*
G01*
X136920000Y-82041000D01*
G75*
G02*
X136770000Y-82191000I-150000J0D01*
G01*
X136470000Y-82191000D01*
G75*
G02*
X136320000Y-82041000I0J150000D01*
G01*
G37*
G36*
G01*
X135520000Y-82041000D02*
X135520000Y-80741000D01*
G75*
G02*
X135670000Y-80591000I150000J0D01*
G01*
X135970000Y-80591000D01*
G75*
G02*
X136120000Y-80741000I0J-150000D01*
G01*
X136120000Y-82041000D01*
G75*
G02*
X135970000Y-82191000I-150000J0D01*
G01*
X135670000Y-82191000D01*
G75*
G02*
X135520000Y-82041000I0J150000D01*
G01*
G37*
G36*
G01*
X134720000Y-82041000D02*
X134720000Y-80741000D01*
G75*
G02*
X134870000Y-80591000I150000J0D01*
G01*
X135170000Y-80591000D01*
G75*
G02*
X135320000Y-80741000I0J-150000D01*
G01*
X135320000Y-82041000D01*
G75*
G02*
X135170000Y-82191000I-150000J0D01*
G01*
X134870000Y-82191000D01*
G75*
G02*
X134720000Y-82041000I0J150000D01*
G01*
G37*
G36*
G01*
X133920000Y-82041000D02*
X133920000Y-80741000D01*
G75*
G02*
X134070000Y-80591000I150000J0D01*
G01*
X134370000Y-80591000D01*
G75*
G02*
X134520000Y-80741000I0J-150000D01*
G01*
X134520000Y-82041000D01*
G75*
G02*
X134370000Y-82191000I-150000J0D01*
G01*
X134070000Y-82191000D01*
G75*
G02*
X133920000Y-82041000I0J150000D01*
G01*
G37*
G36*
G01*
X133120000Y-82041000D02*
X133120000Y-80741000D01*
G75*
G02*
X133270000Y-80591000I150000J0D01*
G01*
X133570000Y-80591000D01*
G75*
G02*
X133720000Y-80741000I0J-150000D01*
G01*
X133720000Y-82041000D01*
G75*
G02*
X133570000Y-82191000I-150000J0D01*
G01*
X133270000Y-82191000D01*
G75*
G02*
X133120000Y-82041000I0J150000D01*
G01*
G37*
G36*
G01*
X132320000Y-82041000D02*
X132320000Y-80741000D01*
G75*
G02*
X132470000Y-80591000I150000J0D01*
G01*
X132770000Y-80591000D01*
G75*
G02*
X132920000Y-80741000I0J-150000D01*
G01*
X132920000Y-82041000D01*
G75*
G02*
X132770000Y-82191000I-150000J0D01*
G01*
X132470000Y-82191000D01*
G75*
G02*
X132320000Y-82041000I0J150000D01*
G01*
G37*
G36*
G01*
X131520000Y-82041000D02*
X131520000Y-80741000D01*
G75*
G02*
X131670000Y-80591000I150000J0D01*
G01*
X131970000Y-80591000D01*
G75*
G02*
X132120000Y-80741000I0J-150000D01*
G01*
X132120000Y-82041000D01*
G75*
G02*
X131970000Y-82191000I-150000J0D01*
G01*
X131670000Y-82191000D01*
G75*
G02*
X131520000Y-82041000I0J150000D01*
G01*
G37*
G36*
G01*
X129645000Y-80166000D02*
X129645000Y-79866000D01*
G75*
G02*
X129795000Y-79716000I150000J0D01*
G01*
X131095000Y-79716000D01*
G75*
G02*
X131245000Y-79866000I0J-150000D01*
G01*
X131245000Y-80166000D01*
G75*
G02*
X131095000Y-80316000I-150000J0D01*
G01*
X129795000Y-80316000D01*
G75*
G02*
X129645000Y-80166000I0J150000D01*
G01*
G37*
G36*
G01*
X129645000Y-79366000D02*
X129645000Y-79066000D01*
G75*
G02*
X129795000Y-78916000I150000J0D01*
G01*
X131095000Y-78916000D01*
G75*
G02*
X131245000Y-79066000I0J-150000D01*
G01*
X131245000Y-79366000D01*
G75*
G02*
X131095000Y-79516000I-150000J0D01*
G01*
X129795000Y-79516000D01*
G75*
G02*
X129645000Y-79366000I0J150000D01*
G01*
G37*
G36*
G01*
X129645000Y-78566000D02*
X129645000Y-78266000D01*
G75*
G02*
X129795000Y-78116000I150000J0D01*
G01*
X131095000Y-78116000D01*
G75*
G02*
X131245000Y-78266000I0J-150000D01*
G01*
X131245000Y-78566000D01*
G75*
G02*
X131095000Y-78716000I-150000J0D01*
G01*
X129795000Y-78716000D01*
G75*
G02*
X129645000Y-78566000I0J150000D01*
G01*
G37*
G36*
G01*
X129645000Y-77766000D02*
X129645000Y-77466000D01*
G75*
G02*
X129795000Y-77316000I150000J0D01*
G01*
X131095000Y-77316000D01*
G75*
G02*
X131245000Y-77466000I0J-150000D01*
G01*
X131245000Y-77766000D01*
G75*
G02*
X131095000Y-77916000I-150000J0D01*
G01*
X129795000Y-77916000D01*
G75*
G02*
X129645000Y-77766000I0J150000D01*
G01*
G37*
G36*
G01*
X129645000Y-76966000D02*
X129645000Y-76666000D01*
G75*
G02*
X129795000Y-76516000I150000J0D01*
G01*
X131095000Y-76516000D01*
G75*
G02*
X131245000Y-76666000I0J-150000D01*
G01*
X131245000Y-76966000D01*
G75*
G02*
X131095000Y-77116000I-150000J0D01*
G01*
X129795000Y-77116000D01*
G75*
G02*
X129645000Y-76966000I0J150000D01*
G01*
G37*
G36*
G01*
X129645000Y-76166000D02*
X129645000Y-75866000D01*
G75*
G02*
X129795000Y-75716000I150000J0D01*
G01*
X131095000Y-75716000D01*
G75*
G02*
X131245000Y-75866000I0J-150000D01*
G01*
X131245000Y-76166000D01*
G75*
G02*
X131095000Y-76316000I-150000J0D01*
G01*
X129795000Y-76316000D01*
G75*
G02*
X129645000Y-76166000I0J150000D01*
G01*
G37*
G36*
G01*
X129645000Y-75366000D02*
X129645000Y-75066000D01*
G75*
G02*
X129795000Y-74916000I150000J0D01*
G01*
X131095000Y-74916000D01*
G75*
G02*
X131245000Y-75066000I0J-150000D01*
G01*
X131245000Y-75366000D01*
G75*
G02*
X131095000Y-75516000I-150000J0D01*
G01*
X129795000Y-75516000D01*
G75*
G02*
X129645000Y-75366000I0J150000D01*
G01*
G37*
G36*
G01*
X129645000Y-74566000D02*
X129645000Y-74266000D01*
G75*
G02*
X129795000Y-74116000I150000J0D01*
G01*
X131095000Y-74116000D01*
G75*
G02*
X131245000Y-74266000I0J-150000D01*
G01*
X131245000Y-74566000D01*
G75*
G02*
X131095000Y-74716000I-150000J0D01*
G01*
X129795000Y-74716000D01*
G75*
G02*
X129645000Y-74566000I0J150000D01*
G01*
G37*
G36*
G01*
X124941250Y-85071000D02*
X123978750Y-85071000D01*
G75*
G02*
X123710000Y-84802250I0J268750D01*
G01*
X123710000Y-84264750D01*
G75*
G02*
X123978750Y-83996000I268750J0D01*
G01*
X124941250Y-83996000D01*
G75*
G02*
X125210000Y-84264750I0J-268750D01*
G01*
X125210000Y-84802250D01*
G75*
G02*
X124941250Y-85071000I-268750J0D01*
G01*
G37*
G36*
G01*
X124941250Y-86946000D02*
X123978750Y-86946000D01*
G75*
G02*
X123710000Y-86677250I0J268750D01*
G01*
X123710000Y-86139750D01*
G75*
G02*
X123978750Y-85871000I268750J0D01*
G01*
X124941250Y-85871000D01*
G75*
G02*
X125210000Y-86139750I0J-268750D01*
G01*
X125210000Y-86677250D01*
G75*
G02*
X124941250Y-86946000I-268750J0D01*
G01*
G37*
G36*
G01*
X123978750Y-92983000D02*
X124941250Y-92983000D01*
G75*
G02*
X125210000Y-93251750I0J-268750D01*
G01*
X125210000Y-93789250D01*
G75*
G02*
X124941250Y-94058000I-268750J0D01*
G01*
X123978750Y-94058000D01*
G75*
G02*
X123710000Y-93789250I0J268750D01*
G01*
X123710000Y-93251750D01*
G75*
G02*
X123978750Y-92983000I268750J0D01*
G01*
G37*
G36*
G01*
X123978750Y-91108000D02*
X124941250Y-91108000D01*
G75*
G02*
X125210000Y-91376750I0J-268750D01*
G01*
X125210000Y-91914250D01*
G75*
G02*
X124941250Y-92183000I-268750J0D01*
G01*
X123978750Y-92183000D01*
G75*
G02*
X123710000Y-91914250I0J268750D01*
G01*
X123710000Y-91376750D01*
G75*
G02*
X123978750Y-91108000I268750J0D01*
G01*
G37*
G36*
G01*
X123978750Y-89427000D02*
X124941250Y-89427000D01*
G75*
G02*
X125210000Y-89695750I0J-268750D01*
G01*
X125210000Y-90233250D01*
G75*
G02*
X124941250Y-90502000I-268750J0D01*
G01*
X123978750Y-90502000D01*
G75*
G02*
X123710000Y-90233250I0J268750D01*
G01*
X123710000Y-89695750D01*
G75*
G02*
X123978750Y-89427000I268750J0D01*
G01*
G37*
G36*
G01*
X123978750Y-87552000D02*
X124941250Y-87552000D01*
G75*
G02*
X125210000Y-87820750I0J-268750D01*
G01*
X125210000Y-88358250D01*
G75*
G02*
X124941250Y-88627000I-268750J0D01*
G01*
X123978750Y-88627000D01*
G75*
G02*
X123710000Y-88358250I0J268750D01*
G01*
X123710000Y-87820750D01*
G75*
G02*
X123978750Y-87552000I268750J0D01*
G01*
G37*
G36*
G01*
X124941250Y-99295000D02*
X123978750Y-99295000D01*
G75*
G02*
X123710000Y-99026250I0J268750D01*
G01*
X123710000Y-98488750D01*
G75*
G02*
X123978750Y-98220000I268750J0D01*
G01*
X124941250Y-98220000D01*
G75*
G02*
X125210000Y-98488750I0J-268750D01*
G01*
X125210000Y-99026250D01*
G75*
G02*
X124941250Y-99295000I-268750J0D01*
G01*
G37*
G36*
G01*
X124941250Y-101170000D02*
X123978750Y-101170000D01*
G75*
G02*
X123710000Y-100901250I0J268750D01*
G01*
X123710000Y-100363750D01*
G75*
G02*
X123978750Y-100095000I268750J0D01*
G01*
X124941250Y-100095000D01*
G75*
G02*
X125210000Y-100363750I0J-268750D01*
G01*
X125210000Y-100901250D01*
G75*
G02*
X124941250Y-101170000I-268750J0D01*
G01*
G37*
G36*
G01*
X124941250Y-95739000D02*
X123978750Y-95739000D01*
G75*
G02*
X123710000Y-95470250I0J268750D01*
G01*
X123710000Y-94932750D01*
G75*
G02*
X123978750Y-94664000I268750J0D01*
G01*
X124941250Y-94664000D01*
G75*
G02*
X125210000Y-94932750I0J-268750D01*
G01*
X125210000Y-95470250D01*
G75*
G02*
X124941250Y-95739000I-268750J0D01*
G01*
G37*
G36*
G01*
X124941250Y-97614000D02*
X123978750Y-97614000D01*
G75*
G02*
X123710000Y-97345250I0J268750D01*
G01*
X123710000Y-96807750D01*
G75*
G02*
X123978750Y-96539000I268750J0D01*
G01*
X124941250Y-96539000D01*
G75*
G02*
X125210000Y-96807750I0J-268750D01*
G01*
X125210000Y-97345250D01*
G75*
G02*
X124941250Y-97614000I-268750J0D01*
G01*
G37*
G36*
G01*
X121946750Y-85871000D02*
X122909250Y-85871000D01*
G75*
G02*
X123178000Y-86139750I0J-268750D01*
G01*
X123178000Y-86677250D01*
G75*
G02*
X122909250Y-86946000I-268750J0D01*
G01*
X121946750Y-86946000D01*
G75*
G02*
X121678000Y-86677250I0J268750D01*
G01*
X121678000Y-86139750D01*
G75*
G02*
X121946750Y-85871000I268750J0D01*
G01*
G37*
G36*
G01*
X121946750Y-83996000D02*
X122909250Y-83996000D01*
G75*
G02*
X123178000Y-84264750I0J-268750D01*
G01*
X123178000Y-84802250D01*
G75*
G02*
X122909250Y-85071000I-268750J0D01*
G01*
X121946750Y-85071000D01*
G75*
G02*
X121678000Y-84802250I0J268750D01*
G01*
X121678000Y-84264750D01*
G75*
G02*
X121946750Y-83996000I268750J0D01*
G01*
G37*
G36*
G01*
X122909250Y-92183000D02*
X121946750Y-92183000D01*
G75*
G02*
X121678000Y-91914250I0J268750D01*
G01*
X121678000Y-91376750D01*
G75*
G02*
X121946750Y-91108000I268750J0D01*
G01*
X122909250Y-91108000D01*
G75*
G02*
X123178000Y-91376750I0J-268750D01*
G01*
X123178000Y-91914250D01*
G75*
G02*
X122909250Y-92183000I-268750J0D01*
G01*
G37*
G36*
G01*
X122909250Y-94058000D02*
X121946750Y-94058000D01*
G75*
G02*
X121678000Y-93789250I0J268750D01*
G01*
X121678000Y-93251750D01*
G75*
G02*
X121946750Y-92983000I268750J0D01*
G01*
X122909250Y-92983000D01*
G75*
G02*
X123178000Y-93251750I0J-268750D01*
G01*
X123178000Y-93789250D01*
G75*
G02*
X122909250Y-94058000I-268750J0D01*
G01*
G37*
G36*
G01*
X122909250Y-88627000D02*
X121946750Y-88627000D01*
G75*
G02*
X121678000Y-88358250I0J268750D01*
G01*
X121678000Y-87820750D01*
G75*
G02*
X121946750Y-87552000I268750J0D01*
G01*
X122909250Y-87552000D01*
G75*
G02*
X123178000Y-87820750I0J-268750D01*
G01*
X123178000Y-88358250D01*
G75*
G02*
X122909250Y-88627000I-268750J0D01*
G01*
G37*
G36*
G01*
X122909250Y-90502000D02*
X121946750Y-90502000D01*
G75*
G02*
X121678000Y-90233250I0J268750D01*
G01*
X121678000Y-89695750D01*
G75*
G02*
X121946750Y-89427000I268750J0D01*
G01*
X122909250Y-89427000D01*
G75*
G02*
X123178000Y-89695750I0J-268750D01*
G01*
X123178000Y-90233250D01*
G75*
G02*
X122909250Y-90502000I-268750J0D01*
G01*
G37*
G36*
G01*
X121946750Y-100095000D02*
X122909250Y-100095000D01*
G75*
G02*
X123178000Y-100363750I0J-268750D01*
G01*
X123178000Y-100901250D01*
G75*
G02*
X122909250Y-101170000I-268750J0D01*
G01*
X121946750Y-101170000D01*
G75*
G02*
X121678000Y-100901250I0J268750D01*
G01*
X121678000Y-100363750D01*
G75*
G02*
X121946750Y-100095000I268750J0D01*
G01*
G37*
G36*
G01*
X121946750Y-98220000D02*
X122909250Y-98220000D01*
G75*
G02*
X123178000Y-98488750I0J-268750D01*
G01*
X123178000Y-99026250D01*
G75*
G02*
X122909250Y-99295000I-268750J0D01*
G01*
X121946750Y-99295000D01*
G75*
G02*
X121678000Y-99026250I0J268750D01*
G01*
X121678000Y-98488750D01*
G75*
G02*
X121946750Y-98220000I268750J0D01*
G01*
G37*
G36*
G01*
X121946750Y-96539000D02*
X122909250Y-96539000D01*
G75*
G02*
X123178000Y-96807750I0J-268750D01*
G01*
X123178000Y-97345250D01*
G75*
G02*
X122909250Y-97614000I-268750J0D01*
G01*
X121946750Y-97614000D01*
G75*
G02*
X121678000Y-97345250I0J268750D01*
G01*
X121678000Y-96807750D01*
G75*
G02*
X121946750Y-96539000I268750J0D01*
G01*
G37*
G36*
G01*
X121946750Y-94664000D02*
X122909250Y-94664000D01*
G75*
G02*
X123178000Y-94932750I0J-268750D01*
G01*
X123178000Y-95470250D01*
G75*
G02*
X122909250Y-95739000I-268750J0D01*
G01*
X121946750Y-95739000D01*
G75*
G02*
X121678000Y-95470250I0J268750D01*
G01*
X121678000Y-94932750D01*
G75*
G02*
X121946750Y-94664000I268750J0D01*
G01*
G37*
G36*
G01*
X146076750Y-98317000D02*
X147039250Y-98317000D01*
G75*
G02*
X147308000Y-98585750I0J-268750D01*
G01*
X147308000Y-99123250D01*
G75*
G02*
X147039250Y-99392000I-268750J0D01*
G01*
X146076750Y-99392000D01*
G75*
G02*
X145808000Y-99123250I0J268750D01*
G01*
X145808000Y-98585750D01*
G75*
G02*
X146076750Y-98317000I268750J0D01*
G01*
G37*
G36*
G01*
X146076750Y-96442000D02*
X147039250Y-96442000D01*
G75*
G02*
X147308000Y-96710750I0J-268750D01*
G01*
X147308000Y-97248250D01*
G75*
G02*
X147039250Y-97517000I-268750J0D01*
G01*
X146076750Y-97517000D01*
G75*
G02*
X145808000Y-97248250I0J268750D01*
G01*
X145808000Y-96710750D01*
G75*
G02*
X146076750Y-96442000I268750J0D01*
G01*
G37*
G36*
G01*
X143536750Y-98317000D02*
X144499250Y-98317000D01*
G75*
G02*
X144768000Y-98585750I0J-268750D01*
G01*
X144768000Y-99123250D01*
G75*
G02*
X144499250Y-99392000I-268750J0D01*
G01*
X143536750Y-99392000D01*
G75*
G02*
X143268000Y-99123250I0J268750D01*
G01*
X143268000Y-98585750D01*
G75*
G02*
X143536750Y-98317000I268750J0D01*
G01*
G37*
G36*
G01*
X143536750Y-96442000D02*
X144499250Y-96442000D01*
G75*
G02*
X144768000Y-96710750I0J-268750D01*
G01*
X144768000Y-97248250D01*
G75*
G02*
X144499250Y-97517000I-268750J0D01*
G01*
X143536750Y-97517000D01*
G75*
G02*
X143268000Y-97248250I0J268750D01*
G01*
X143268000Y-96710750D01*
G75*
G02*
X143536750Y-96442000I268750J0D01*
G01*
G37*
G36*
G01*
X140996750Y-98317000D02*
X141959250Y-98317000D01*
G75*
G02*
X142228000Y-98585750I0J-268750D01*
G01*
X142228000Y-99123250D01*
G75*
G02*
X141959250Y-99392000I-268750J0D01*
G01*
X140996750Y-99392000D01*
G75*
G02*
X140728000Y-99123250I0J268750D01*
G01*
X140728000Y-98585750D01*
G75*
G02*
X140996750Y-98317000I268750J0D01*
G01*
G37*
G36*
G01*
X140996750Y-96442000D02*
X141959250Y-96442000D01*
G75*
G02*
X142228000Y-96710750I0J-268750D01*
G01*
X142228000Y-97248250D01*
G75*
G02*
X141959250Y-97517000I-268750J0D01*
G01*
X140996750Y-97517000D01*
G75*
G02*
X140728000Y-97248250I0J268750D01*
G01*
X140728000Y-96710750D01*
G75*
G02*
X140996750Y-96442000I268750J0D01*
G01*
G37*
G36*
G01*
X138456750Y-98317000D02*
X139419250Y-98317000D01*
G75*
G02*
X139688000Y-98585750I0J-268750D01*
G01*
X139688000Y-99123250D01*
G75*
G02*
X139419250Y-99392000I-268750J0D01*
G01*
X138456750Y-99392000D01*
G75*
G02*
X138188000Y-99123250I0J268750D01*
G01*
X138188000Y-98585750D01*
G75*
G02*
X138456750Y-98317000I268750J0D01*
G01*
G37*
G36*
G01*
X138456750Y-96442000D02*
X139419250Y-96442000D01*
G75*
G02*
X139688000Y-96710750I0J-268750D01*
G01*
X139688000Y-97248250D01*
G75*
G02*
X139419250Y-97517000I-268750J0D01*
G01*
X138456750Y-97517000D01*
G75*
G02*
X138188000Y-97248250I0J268750D01*
G01*
X138188000Y-96710750D01*
G75*
G02*
X138456750Y-96442000I268750J0D01*
G01*
G37*
G36*
G01*
X135916750Y-98317000D02*
X136879250Y-98317000D01*
G75*
G02*
X137148000Y-98585750I0J-268750D01*
G01*
X137148000Y-99123250D01*
G75*
G02*
X136879250Y-99392000I-268750J0D01*
G01*
X135916750Y-99392000D01*
G75*
G02*
X135648000Y-99123250I0J268750D01*
G01*
X135648000Y-98585750D01*
G75*
G02*
X135916750Y-98317000I268750J0D01*
G01*
G37*
G36*
G01*
X135916750Y-96442000D02*
X136879250Y-96442000D01*
G75*
G02*
X137148000Y-96710750I0J-268750D01*
G01*
X137148000Y-97248250D01*
G75*
G02*
X136879250Y-97517000I-268750J0D01*
G01*
X135916750Y-97517000D01*
G75*
G02*
X135648000Y-97248250I0J268750D01*
G01*
X135648000Y-96710750D01*
G75*
G02*
X135916750Y-96442000I268750J0D01*
G01*
G37*
G36*
G01*
X133376750Y-98317000D02*
X134339250Y-98317000D01*
G75*
G02*
X134608000Y-98585750I0J-268750D01*
G01*
X134608000Y-99123250D01*
G75*
G02*
X134339250Y-99392000I-268750J0D01*
G01*
X133376750Y-99392000D01*
G75*
G02*
X133108000Y-99123250I0J268750D01*
G01*
X133108000Y-98585750D01*
G75*
G02*
X133376750Y-98317000I268750J0D01*
G01*
G37*
G36*
G01*
X133376750Y-96442000D02*
X134339250Y-96442000D01*
G75*
G02*
X134608000Y-96710750I0J-268750D01*
G01*
X134608000Y-97248250D01*
G75*
G02*
X134339250Y-97517000I-268750J0D01*
G01*
X133376750Y-97517000D01*
G75*
G02*
X133108000Y-97248250I0J268750D01*
G01*
X133108000Y-96710750D01*
G75*
G02*
X133376750Y-96442000I268750J0D01*
G01*
G37*
G36*
G01*
X130836750Y-98317000D02*
X131799250Y-98317000D01*
G75*
G02*
X132068000Y-98585750I0J-268750D01*
G01*
X132068000Y-99123250D01*
G75*
G02*
X131799250Y-99392000I-268750J0D01*
G01*
X130836750Y-99392000D01*
G75*
G02*
X130568000Y-99123250I0J268750D01*
G01*
X130568000Y-98585750D01*
G75*
G02*
X130836750Y-98317000I268750J0D01*
G01*
G37*
G36*
G01*
X130836750Y-96442000D02*
X131799250Y-96442000D01*
G75*
G02*
X132068000Y-96710750I0J-268750D01*
G01*
X132068000Y-97248250D01*
G75*
G02*
X131799250Y-97517000I-268750J0D01*
G01*
X130836750Y-97517000D01*
G75*
G02*
X130568000Y-97248250I0J268750D01*
G01*
X130568000Y-96710750D01*
G75*
G02*
X130836750Y-96442000I268750J0D01*
G01*
G37*
G36*
G01*
X128296750Y-98317000D02*
X129259250Y-98317000D01*
G75*
G02*
X129528000Y-98585750I0J-268750D01*
G01*
X129528000Y-99123250D01*
G75*
G02*
X129259250Y-99392000I-268750J0D01*
G01*
X128296750Y-99392000D01*
G75*
G02*
X128028000Y-99123250I0J268750D01*
G01*
X128028000Y-98585750D01*
G75*
G02*
X128296750Y-98317000I268750J0D01*
G01*
G37*
G36*
G01*
X128296750Y-96442000D02*
X129259250Y-96442000D01*
G75*
G02*
X129528000Y-96710750I0J-268750D01*
G01*
X129528000Y-97248250D01*
G75*
G02*
X129259250Y-97517000I-268750J0D01*
G01*
X128296750Y-97517000D01*
G75*
G02*
X128028000Y-97248250I0J268750D01*
G01*
X128028000Y-96710750D01*
G75*
G02*
X128296750Y-96442000I268750J0D01*
G01*
G37*
G36*
G01*
X145388250Y-68180000D02*
X144425750Y-68180000D01*
G75*
G02*
X144157000Y-67911250I0J268750D01*
G01*
X144157000Y-67373750D01*
G75*
G02*
X144425750Y-67105000I268750J0D01*
G01*
X145388250Y-67105000D01*
G75*
G02*
X145657000Y-67373750I0J-268750D01*
G01*
X145657000Y-67911250D01*
G75*
G02*
X145388250Y-68180000I-268750J0D01*
G01*
G37*
G36*
G01*
X145388250Y-70055000D02*
X144425750Y-70055000D01*
G75*
G02*
X144157000Y-69786250I0J268750D01*
G01*
X144157000Y-69248750D01*
G75*
G02*
X144425750Y-68980000I268750J0D01*
G01*
X145388250Y-68980000D01*
G75*
G02*
X145657000Y-69248750I0J-268750D01*
G01*
X145657000Y-69786250D01*
G75*
G02*
X145388250Y-70055000I-268750J0D01*
G01*
G37*
G36*
G01*
X134900750Y-65424000D02*
X135863250Y-65424000D01*
G75*
G02*
X136132000Y-65692750I0J-268750D01*
G01*
X136132000Y-66230250D01*
G75*
G02*
X135863250Y-66499000I-268750J0D01*
G01*
X134900750Y-66499000D01*
G75*
G02*
X134632000Y-66230250I0J268750D01*
G01*
X134632000Y-65692750D01*
G75*
G02*
X134900750Y-65424000I268750J0D01*
G01*
G37*
G36*
G01*
X134900750Y-63549000D02*
X135863250Y-63549000D01*
G75*
G02*
X136132000Y-63817750I0J-268750D01*
G01*
X136132000Y-64355250D01*
G75*
G02*
X135863250Y-64624000I-268750J0D01*
G01*
X134900750Y-64624000D01*
G75*
G02*
X134632000Y-64355250I0J268750D01*
G01*
X134632000Y-63817750D01*
G75*
G02*
X134900750Y-63549000I268750J0D01*
G01*
G37*
G36*
G01*
X146457750Y-68980000D02*
X147420250Y-68980000D01*
G75*
G02*
X147689000Y-69248750I0J-268750D01*
G01*
X147689000Y-69786250D01*
G75*
G02*
X147420250Y-70055000I-268750J0D01*
G01*
X146457750Y-70055000D01*
G75*
G02*
X146189000Y-69786250I0J268750D01*
G01*
X146189000Y-69248750D01*
G75*
G02*
X146457750Y-68980000I268750J0D01*
G01*
G37*
G36*
G01*
X146457750Y-67105000D02*
X147420250Y-67105000D01*
G75*
G02*
X147689000Y-67373750I0J-268750D01*
G01*
X147689000Y-67911250D01*
G75*
G02*
X147420250Y-68180000I-268750J0D01*
G01*
X146457750Y-68180000D01*
G75*
G02*
X146189000Y-67911250I0J268750D01*
G01*
X146189000Y-67373750D01*
G75*
G02*
X146457750Y-67105000I268750J0D01*
G01*
G37*
G36*
G01*
X132741750Y-65375500D02*
X133704250Y-65375500D01*
G75*
G02*
X133973000Y-65644250I0J-268750D01*
G01*
X133973000Y-66181750D01*
G75*
G02*
X133704250Y-66450500I-268750J0D01*
G01*
X132741750Y-66450500D01*
G75*
G02*
X132473000Y-66181750I0J268750D01*
G01*
X132473000Y-65644250D01*
G75*
G02*
X132741750Y-65375500I268750J0D01*
G01*
G37*
G36*
G01*
X132741750Y-63500500D02*
X133704250Y-63500500D01*
G75*
G02*
X133973000Y-63769250I0J-268750D01*
G01*
X133973000Y-64306750D01*
G75*
G02*
X133704250Y-64575500I-268750J0D01*
G01*
X132741750Y-64575500D01*
G75*
G02*
X132473000Y-64306750I0J268750D01*
G01*
X132473000Y-63769250D01*
G75*
G02*
X132741750Y-63500500I268750J0D01*
G01*
G37*
G36*
G01*
X138530250Y-68180000D02*
X137567750Y-68180000D01*
G75*
G02*
X137299000Y-67911250I0J268750D01*
G01*
X137299000Y-67373750D01*
G75*
G02*
X137567750Y-67105000I268750J0D01*
G01*
X138530250Y-67105000D01*
G75*
G02*
X138799000Y-67373750I0J-268750D01*
G01*
X138799000Y-67911250D01*
G75*
G02*
X138530250Y-68180000I-268750J0D01*
G01*
G37*
G36*
G01*
X138530250Y-70055000D02*
X137567750Y-70055000D01*
G75*
G02*
X137299000Y-69786250I0J268750D01*
G01*
X137299000Y-69248750D01*
G75*
G02*
X137567750Y-68980000I268750J0D01*
G01*
X138530250Y-68980000D01*
G75*
G02*
X138799000Y-69248750I0J-268750D01*
G01*
X138799000Y-69786250D01*
G75*
G02*
X138530250Y-70055000I-268750J0D01*
G01*
G37*
G36*
G01*
X154278250Y-68180000D02*
X153315750Y-68180000D01*
G75*
G02*
X153047000Y-67911250I0J268750D01*
G01*
X153047000Y-67373750D01*
G75*
G02*
X153315750Y-67105000I268750J0D01*
G01*
X154278250Y-67105000D01*
G75*
G02*
X154547000Y-67373750I0J-268750D01*
G01*
X154547000Y-67911250D01*
G75*
G02*
X154278250Y-68180000I-268750J0D01*
G01*
G37*
G36*
G01*
X154278250Y-70055000D02*
X153315750Y-70055000D01*
G75*
G02*
X153047000Y-69786250I0J268750D01*
G01*
X153047000Y-69248750D01*
G75*
G02*
X153315750Y-68980000I268750J0D01*
G01*
X154278250Y-68980000D01*
G75*
G02*
X154547000Y-69248750I0J-268750D01*
G01*
X154547000Y-69786250D01*
G75*
G02*
X154278250Y-70055000I-268750J0D01*
G01*
G37*
G36*
G01*
X139599750Y-68980000D02*
X140562250Y-68980000D01*
G75*
G02*
X140831000Y-69248750I0J-268750D01*
G01*
X140831000Y-69786250D01*
G75*
G02*
X140562250Y-70055000I-268750J0D01*
G01*
X139599750Y-70055000D01*
G75*
G02*
X139331000Y-69786250I0J268750D01*
G01*
X139331000Y-69248750D01*
G75*
G02*
X139599750Y-68980000I268750J0D01*
G01*
G37*
G36*
G01*
X139599750Y-67105000D02*
X140562250Y-67105000D01*
G75*
G02*
X140831000Y-67373750I0J-268750D01*
G01*
X140831000Y-67911250D01*
G75*
G02*
X140562250Y-68180000I-268750J0D01*
G01*
X139599750Y-68180000D01*
G75*
G02*
X139331000Y-67911250I0J268750D01*
G01*
X139331000Y-67373750D01*
G75*
G02*
X139599750Y-67105000I268750J0D01*
G01*
G37*
G36*
G01*
X151283750Y-68980000D02*
X152246250Y-68980000D01*
G75*
G02*
X152515000Y-69248750I0J-268750D01*
G01*
X152515000Y-69786250D01*
G75*
G02*
X152246250Y-70055000I-268750J0D01*
G01*
X151283750Y-70055000D01*
G75*
G02*
X151015000Y-69786250I0J268750D01*
G01*
X151015000Y-69248750D01*
G75*
G02*
X151283750Y-68980000I268750J0D01*
G01*
G37*
G36*
G01*
X151283750Y-67105000D02*
X152246250Y-67105000D01*
G75*
G02*
X152515000Y-67373750I0J-268750D01*
G01*
X152515000Y-67911250D01*
G75*
G02*
X152246250Y-68180000I-268750J0D01*
G01*
X151283750Y-68180000D01*
G75*
G02*
X151015000Y-67911250I0J268750D01*
G01*
X151015000Y-67373750D01*
G75*
G02*
X151283750Y-67105000I268750J0D01*
G01*
G37*
G36*
G01*
X149632750Y-74075000D02*
X150595250Y-74075000D01*
G75*
G02*
X150864000Y-74343750I0J-268750D01*
G01*
X150864000Y-74881250D01*
G75*
G02*
X150595250Y-75150000I-268750J0D01*
G01*
X149632750Y-75150000D01*
G75*
G02*
X149364000Y-74881250I0J268750D01*
G01*
X149364000Y-74343750D01*
G75*
G02*
X149632750Y-74075000I268750J0D01*
G01*
G37*
G36*
G01*
X149632750Y-72200000D02*
X150595250Y-72200000D01*
G75*
G02*
X150864000Y-72468750I0J-268750D01*
G01*
X150864000Y-73006250D01*
G75*
G02*
X150595250Y-73275000I-268750J0D01*
G01*
X149632750Y-73275000D01*
G75*
G02*
X149364000Y-73006250I0J268750D01*
G01*
X149364000Y-72468750D01*
G75*
G02*
X149632750Y-72200000I268750J0D01*
G01*
G37*
G36*
G01*
X150595250Y-76816000D02*
X149632750Y-76816000D01*
G75*
G02*
X149364000Y-76547250I0J268750D01*
G01*
X149364000Y-76009750D01*
G75*
G02*
X149632750Y-75741000I268750J0D01*
G01*
X150595250Y-75741000D01*
G75*
G02*
X150864000Y-76009750I0J-268750D01*
G01*
X150864000Y-76547250D01*
G75*
G02*
X150595250Y-76816000I-268750J0D01*
G01*
G37*
G36*
G01*
X150595250Y-78691000D02*
X149632750Y-78691000D01*
G75*
G02*
X149364000Y-78422250I0J268750D01*
G01*
X149364000Y-77884750D01*
G75*
G02*
X149632750Y-77616000I268750J0D01*
G01*
X150595250Y-77616000D01*
G75*
G02*
X150864000Y-77884750I0J-268750D01*
G01*
X150864000Y-78422250D01*
G75*
G02*
X150595250Y-78691000I-268750J0D01*
G01*
G37*
D18*
X149352000Y-67580000D03*
X150002000Y-69580000D03*
X148702000Y-69580000D03*
X135636000Y-67580000D03*
X136286000Y-69580000D03*
X134986000Y-69580000D03*
X142494000Y-67580000D03*
X143144000Y-69580000D03*
X141844000Y-69580000D03*
X156210000Y-67580000D03*
X156860000Y-69580000D03*
X155560000Y-69580000D03*
D19*
G36*
X156231111Y-71082602D02*
G01*
X156249534Y-71082602D01*
X156254435Y-71082843D01*
X156303266Y-71087653D01*
X156308119Y-71088373D01*
X156356244Y-71097945D01*
X156361005Y-71099137D01*
X156407960Y-71113381D01*
X156412579Y-71115034D01*
X156457912Y-71133811D01*
X156462349Y-71135909D01*
X156505622Y-71159040D01*
X156509829Y-71161562D01*
X156550628Y-71188822D01*
X156554570Y-71191746D01*
X156592499Y-71222874D01*
X156596134Y-71226169D01*
X156630831Y-71260866D01*
X156634126Y-71264501D01*
X156665254Y-71302430D01*
X156668178Y-71306372D01*
X156695438Y-71347171D01*
X156697960Y-71351378D01*
X156721091Y-71394651D01*
X156723189Y-71399088D01*
X156741966Y-71444421D01*
X156743619Y-71449040D01*
X156757863Y-71495995D01*
X156759055Y-71500756D01*
X156768627Y-71548881D01*
X156769347Y-71553734D01*
X156774157Y-71602565D01*
X156774398Y-71607466D01*
X156774398Y-71625889D01*
X156775000Y-71632000D01*
X156775000Y-72132000D01*
X156774398Y-72138111D01*
X156774398Y-72156534D01*
X156774157Y-72161435D01*
X156769347Y-72210266D01*
X156768627Y-72215119D01*
X156759055Y-72263244D01*
X156757863Y-72268005D01*
X156743619Y-72314960D01*
X156741966Y-72319579D01*
X156723189Y-72364912D01*
X156721091Y-72369349D01*
X156697960Y-72412622D01*
X156695438Y-72416829D01*
X156668178Y-72457628D01*
X156665254Y-72461570D01*
X156634126Y-72499499D01*
X156630831Y-72503134D01*
X156596134Y-72537831D01*
X156592499Y-72541126D01*
X156554570Y-72572254D01*
X156550628Y-72575178D01*
X156509829Y-72602438D01*
X156505622Y-72604960D01*
X156462349Y-72628091D01*
X156457912Y-72630189D01*
X156412579Y-72648966D01*
X156407960Y-72650619D01*
X156361005Y-72664863D01*
X156356244Y-72666055D01*
X156308119Y-72675627D01*
X156303266Y-72676347D01*
X156254435Y-72681157D01*
X156249534Y-72681398D01*
X156231111Y-72681398D01*
X156225000Y-72682000D01*
X155725000Y-72682000D01*
X155715245Y-72681039D01*
X155705866Y-72678194D01*
X155697221Y-72673573D01*
X155689645Y-72667355D01*
X155683427Y-72659779D01*
X155678806Y-72651134D01*
X155675961Y-72641755D01*
X155675000Y-72632000D01*
X155675000Y-71132000D01*
X155675961Y-71122245D01*
X155678806Y-71112866D01*
X155683427Y-71104221D01*
X155689645Y-71096645D01*
X155697221Y-71090427D01*
X155705866Y-71085806D01*
X155715245Y-71082961D01*
X155725000Y-71082000D01*
X156225000Y-71082000D01*
X156231111Y-71082602D01*
G37*
G36*
X155434755Y-71082961D02*
G01*
X155444134Y-71085806D01*
X155452779Y-71090427D01*
X155460355Y-71096645D01*
X155466573Y-71104221D01*
X155471194Y-71112866D01*
X155474039Y-71122245D01*
X155475000Y-71132000D01*
X155475000Y-72632000D01*
X155474039Y-72641755D01*
X155471194Y-72651134D01*
X155466573Y-72659779D01*
X155460355Y-72667355D01*
X155452779Y-72673573D01*
X155444134Y-72678194D01*
X155434755Y-72681039D01*
X155425000Y-72682000D01*
X154925000Y-72682000D01*
X154918889Y-72681398D01*
X154900466Y-72681398D01*
X154895565Y-72681157D01*
X154846734Y-72676347D01*
X154841881Y-72675627D01*
X154793756Y-72666055D01*
X154788995Y-72664863D01*
X154742040Y-72650619D01*
X154737421Y-72648966D01*
X154692088Y-72630189D01*
X154687651Y-72628091D01*
X154644378Y-72604960D01*
X154640171Y-72602438D01*
X154599372Y-72575178D01*
X154595430Y-72572254D01*
X154557501Y-72541126D01*
X154553866Y-72537831D01*
X154519169Y-72503134D01*
X154515874Y-72499499D01*
X154484746Y-72461570D01*
X154481822Y-72457628D01*
X154454562Y-72416829D01*
X154452040Y-72412622D01*
X154428909Y-72369349D01*
X154426811Y-72364912D01*
X154408034Y-72319579D01*
X154406381Y-72314960D01*
X154392137Y-72268005D01*
X154390945Y-72263244D01*
X154381373Y-72215119D01*
X154380653Y-72210266D01*
X154375843Y-72161435D01*
X154375602Y-72156534D01*
X154375602Y-72138111D01*
X154375000Y-72132000D01*
X154375000Y-71632000D01*
X154375602Y-71625889D01*
X154375602Y-71607466D01*
X154375843Y-71602565D01*
X154380653Y-71553734D01*
X154381373Y-71548881D01*
X154390945Y-71500756D01*
X154392137Y-71495995D01*
X154406381Y-71449040D01*
X154408034Y-71444421D01*
X154426811Y-71399088D01*
X154428909Y-71394651D01*
X154452040Y-71351378D01*
X154454562Y-71347171D01*
X154481822Y-71306372D01*
X154484746Y-71302430D01*
X154515874Y-71264501D01*
X154519169Y-71260866D01*
X154553866Y-71226169D01*
X154557501Y-71222874D01*
X154595430Y-71191746D01*
X154599372Y-71188822D01*
X154640171Y-71161562D01*
X154644378Y-71159040D01*
X154687651Y-71135909D01*
X154692088Y-71133811D01*
X154737421Y-71115034D01*
X154742040Y-71113381D01*
X154788995Y-71099137D01*
X154793756Y-71097945D01*
X154841881Y-71088373D01*
X154846734Y-71087653D01*
X154895565Y-71082843D01*
X154900466Y-71082602D01*
X154918889Y-71082602D01*
X154925000Y-71082000D01*
X155425000Y-71082000D01*
X155434755Y-71082961D01*
G37*
D20*
X142449000Y-71755000D03*
X146349000Y-71755000D03*
X142449000Y-73025000D03*
X146349000Y-73025000D03*
X142449000Y-74295000D03*
X146349000Y-74295000D03*
X142449000Y-75565000D03*
X146349000Y-75565000D03*
X142449000Y-76835000D03*
X146349000Y-76835000D03*
G36*
G01*
X126511000Y-80872250D02*
X126511000Y-79909750D01*
G75*
G02*
X126779750Y-79641000I268750J0D01*
G01*
X127317250Y-79641000D01*
G75*
G02*
X127586000Y-79909750I0J-268750D01*
G01*
X127586000Y-80872250D01*
G75*
G02*
X127317250Y-81141000I-268750J0D01*
G01*
X126779750Y-81141000D01*
G75*
G02*
X126511000Y-80872250I0J268750D01*
G01*
G37*
G36*
G01*
X124636000Y-80872250D02*
X124636000Y-79909750D01*
G75*
G02*
X124904750Y-79641000I268750J0D01*
G01*
X125442250Y-79641000D01*
G75*
G02*
X125711000Y-79909750I0J-268750D01*
G01*
X125711000Y-80872250D01*
G75*
G02*
X125442250Y-81141000I-268750J0D01*
G01*
X124904750Y-81141000D01*
G75*
G02*
X124636000Y-80872250I0J268750D01*
G01*
G37*
D21*
X150080000Y-80330000D03*
X150080000Y-82230000D03*
X152180000Y-81280000D03*
G36*
G01*
X126010750Y-85871000D02*
X126973250Y-85871000D01*
G75*
G02*
X127242000Y-86139750I0J-268750D01*
G01*
X127242000Y-86677250D01*
G75*
G02*
X126973250Y-86946000I-268750J0D01*
G01*
X126010750Y-86946000D01*
G75*
G02*
X125742000Y-86677250I0J268750D01*
G01*
X125742000Y-86139750D01*
G75*
G02*
X126010750Y-85871000I268750J0D01*
G01*
G37*
G36*
G01*
X126010750Y-83996000D02*
X126973250Y-83996000D01*
G75*
G02*
X127242000Y-84264750I0J-268750D01*
G01*
X127242000Y-84802250D01*
G75*
G02*
X126973250Y-85071000I-268750J0D01*
G01*
X126010750Y-85071000D01*
G75*
G02*
X125742000Y-84802250I0J268750D01*
G01*
X125742000Y-84264750D01*
G75*
G02*
X126010750Y-83996000I268750J0D01*
G01*
G37*
G36*
G01*
X126973250Y-92183000D02*
X126010750Y-92183000D01*
G75*
G02*
X125742000Y-91914250I0J268750D01*
G01*
X125742000Y-91376750D01*
G75*
G02*
X126010750Y-91108000I268750J0D01*
G01*
X126973250Y-91108000D01*
G75*
G02*
X127242000Y-91376750I0J-268750D01*
G01*
X127242000Y-91914250D01*
G75*
G02*
X126973250Y-92183000I-268750J0D01*
G01*
G37*
G36*
G01*
X126973250Y-94058000D02*
X126010750Y-94058000D01*
G75*
G02*
X125742000Y-93789250I0J268750D01*
G01*
X125742000Y-93251750D01*
G75*
G02*
X126010750Y-92983000I268750J0D01*
G01*
X126973250Y-92983000D01*
G75*
G02*
X127242000Y-93251750I0J-268750D01*
G01*
X127242000Y-93789250D01*
G75*
G02*
X126973250Y-94058000I-268750J0D01*
G01*
G37*
G36*
G01*
X126973250Y-88627000D02*
X126010750Y-88627000D01*
G75*
G02*
X125742000Y-88358250I0J268750D01*
G01*
X125742000Y-87820750D01*
G75*
G02*
X126010750Y-87552000I268750J0D01*
G01*
X126973250Y-87552000D01*
G75*
G02*
X127242000Y-87820750I0J-268750D01*
G01*
X127242000Y-88358250D01*
G75*
G02*
X126973250Y-88627000I-268750J0D01*
G01*
G37*
G36*
G01*
X126973250Y-90502000D02*
X126010750Y-90502000D01*
G75*
G02*
X125742000Y-90233250I0J268750D01*
G01*
X125742000Y-89695750D01*
G75*
G02*
X126010750Y-89427000I268750J0D01*
G01*
X126973250Y-89427000D01*
G75*
G02*
X127242000Y-89695750I0J-268750D01*
G01*
X127242000Y-90233250D01*
G75*
G02*
X126973250Y-90502000I-268750J0D01*
G01*
G37*
G36*
G01*
X132741750Y-86125000D02*
X133704250Y-86125000D01*
G75*
G02*
X133973000Y-86393750I0J-268750D01*
G01*
X133973000Y-86931250D01*
G75*
G02*
X133704250Y-87200000I-268750J0D01*
G01*
X132741750Y-87200000D01*
G75*
G02*
X132473000Y-86931250I0J268750D01*
G01*
X132473000Y-86393750D01*
G75*
G02*
X132741750Y-86125000I268750J0D01*
G01*
G37*
G36*
G01*
X132741750Y-84250000D02*
X133704250Y-84250000D01*
G75*
G02*
X133973000Y-84518750I0J-268750D01*
G01*
X133973000Y-85056250D01*
G75*
G02*
X133704250Y-85325000I-268750J0D01*
G01*
X132741750Y-85325000D01*
G75*
G02*
X132473000Y-85056250I0J268750D01*
G01*
X132473000Y-84518750D01*
G75*
G02*
X132741750Y-84250000I268750J0D01*
G01*
G37*
G36*
G01*
X126010750Y-96539000D02*
X126973250Y-96539000D01*
G75*
G02*
X127242000Y-96807750I0J-268750D01*
G01*
X127242000Y-97345250D01*
G75*
G02*
X126973250Y-97614000I-268750J0D01*
G01*
X126010750Y-97614000D01*
G75*
G02*
X125742000Y-97345250I0J268750D01*
G01*
X125742000Y-96807750D01*
G75*
G02*
X126010750Y-96539000I268750J0D01*
G01*
G37*
G36*
G01*
X126010750Y-94664000D02*
X126973250Y-94664000D01*
G75*
G02*
X127242000Y-94932750I0J-268750D01*
G01*
X127242000Y-95470250D01*
G75*
G02*
X126973250Y-95739000I-268750J0D01*
G01*
X126010750Y-95739000D01*
G75*
G02*
X125742000Y-95470250I0J268750D01*
G01*
X125742000Y-94932750D01*
G75*
G02*
X126010750Y-94664000I268750J0D01*
G01*
G37*
G36*
G01*
X129775000Y-63780750D02*
X129775000Y-64743250D01*
G75*
G02*
X129506250Y-65012000I-268750J0D01*
G01*
X128968750Y-65012000D01*
G75*
G02*
X128700000Y-64743250I0J268750D01*
G01*
X128700000Y-63780750D01*
G75*
G02*
X128968750Y-63512000I268750J0D01*
G01*
X129506250Y-63512000D01*
G75*
G02*
X129775000Y-63780750I0J-268750D01*
G01*
G37*
G36*
G01*
X131650000Y-63780750D02*
X131650000Y-64743250D01*
G75*
G02*
X131381250Y-65012000I-268750J0D01*
G01*
X130843750Y-65012000D01*
G75*
G02*
X130575000Y-64743250I0J268750D01*
G01*
X130575000Y-63780750D01*
G75*
G02*
X130843750Y-63512000I268750J0D01*
G01*
X131381250Y-63512000D01*
G75*
G02*
X131650000Y-63780750I0J-268750D01*
G01*
G37*
G36*
G01*
X124098000Y-82904250D02*
X124098000Y-81941750D01*
G75*
G02*
X124366750Y-81673000I268750J0D01*
G01*
X124904250Y-81673000D01*
G75*
G02*
X125173000Y-81941750I0J-268750D01*
G01*
X125173000Y-82904250D01*
G75*
G02*
X124904250Y-83173000I-268750J0D01*
G01*
X124366750Y-83173000D01*
G75*
G02*
X124098000Y-82904250I0J268750D01*
G01*
G37*
G36*
G01*
X122223000Y-82904250D02*
X122223000Y-81941750D01*
G75*
G02*
X122491750Y-81673000I268750J0D01*
G01*
X123029250Y-81673000D01*
G75*
G02*
X123298000Y-81941750I0J-268750D01*
G01*
X123298000Y-82904250D01*
G75*
G02*
X123029250Y-83173000I-268750J0D01*
G01*
X122491750Y-83173000D01*
G75*
G02*
X122223000Y-82904250I0J268750D01*
G01*
G37*
G36*
G01*
X126854000Y-81941750D02*
X126854000Y-82904250D01*
G75*
G02*
X126585250Y-83173000I-268750J0D01*
G01*
X126047750Y-83173000D01*
G75*
G02*
X125779000Y-82904250I0J268750D01*
G01*
X125779000Y-81941750D01*
G75*
G02*
X126047750Y-81673000I268750J0D01*
G01*
X126585250Y-81673000D01*
G75*
G02*
X126854000Y-81941750I0J-268750D01*
G01*
G37*
G36*
G01*
X128729000Y-81941750D02*
X128729000Y-82904250D01*
G75*
G02*
X128460250Y-83173000I-268750J0D01*
G01*
X127922750Y-83173000D01*
G75*
G02*
X127654000Y-82904250I0J268750D01*
G01*
X127654000Y-81941750D01*
G75*
G02*
X127922750Y-81673000I268750J0D01*
G01*
X128460250Y-81673000D01*
G75*
G02*
X128729000Y-81941750I0J-268750D01*
G01*
G37*
G36*
G01*
X139300000Y-83719750D02*
X139300000Y-84682250D01*
G75*
G02*
X139031250Y-84951000I-268750J0D01*
G01*
X138493750Y-84951000D01*
G75*
G02*
X138225000Y-84682250I0J268750D01*
G01*
X138225000Y-83719750D01*
G75*
G02*
X138493750Y-83451000I268750J0D01*
G01*
X139031250Y-83451000D01*
G75*
G02*
X139300000Y-83719750I0J-268750D01*
G01*
G37*
G36*
G01*
X141175000Y-83719750D02*
X141175000Y-84682250D01*
G75*
G02*
X140906250Y-84951000I-268750J0D01*
G01*
X140368750Y-84951000D01*
G75*
G02*
X140100000Y-84682250I0J268750D01*
G01*
X140100000Y-83719750D01*
G75*
G02*
X140368750Y-83451000I268750J0D01*
G01*
X140906250Y-83451000D01*
G75*
G02*
X141175000Y-83719750I0J-268750D01*
G01*
G37*
G36*
G01*
X129813000Y-72871250D02*
X129813000Y-71908750D01*
G75*
G02*
X130081750Y-71640000I268750J0D01*
G01*
X130619250Y-71640000D01*
G75*
G02*
X130888000Y-71908750I0J-268750D01*
G01*
X130888000Y-72871250D01*
G75*
G02*
X130619250Y-73140000I-268750J0D01*
G01*
X130081750Y-73140000D01*
G75*
G02*
X129813000Y-72871250I0J268750D01*
G01*
G37*
G36*
G01*
X127938000Y-72871250D02*
X127938000Y-71908750D01*
G75*
G02*
X128206750Y-71640000I268750J0D01*
G01*
X128744250Y-71640000D01*
G75*
G02*
X129013000Y-71908750I0J-268750D01*
G01*
X129013000Y-72871250D01*
G75*
G02*
X128744250Y-73140000I-268750J0D01*
G01*
X128206750Y-73140000D01*
G75*
G02*
X127938000Y-72871250I0J268750D01*
G01*
G37*
G36*
G01*
X139300000Y-81687750D02*
X139300000Y-82650250D01*
G75*
G02*
X139031250Y-82919000I-268750J0D01*
G01*
X138493750Y-82919000D01*
G75*
G02*
X138225000Y-82650250I0J268750D01*
G01*
X138225000Y-81687750D01*
G75*
G02*
X138493750Y-81419000I268750J0D01*
G01*
X139031250Y-81419000D01*
G75*
G02*
X139300000Y-81687750I0J-268750D01*
G01*
G37*
G36*
G01*
X141175000Y-81687750D02*
X141175000Y-82650250D01*
G75*
G02*
X140906250Y-82919000I-268750J0D01*
G01*
X140368750Y-82919000D01*
G75*
G02*
X140100000Y-82650250I0J268750D01*
G01*
X140100000Y-81687750D01*
G75*
G02*
X140368750Y-81419000I268750J0D01*
G01*
X140906250Y-81419000D01*
G75*
G02*
X141175000Y-81687750I0J-268750D01*
G01*
G37*
G36*
G01*
X120415000Y-81380250D02*
X120415000Y-80417750D01*
G75*
G02*
X120683750Y-80149000I268750J0D01*
G01*
X121221250Y-80149000D01*
G75*
G02*
X121490000Y-80417750I0J-268750D01*
G01*
X121490000Y-81380250D01*
G75*
G02*
X121221250Y-81649000I-268750J0D01*
G01*
X120683750Y-81649000D01*
G75*
G02*
X120415000Y-81380250I0J268750D01*
G01*
G37*
G36*
G01*
X118540000Y-81380250D02*
X118540000Y-80417750D01*
G75*
G02*
X118808750Y-80149000I268750J0D01*
G01*
X119346250Y-80149000D01*
G75*
G02*
X119615000Y-80417750I0J-268750D01*
G01*
X119615000Y-81380250D01*
G75*
G02*
X119346250Y-81649000I-268750J0D01*
G01*
X118808750Y-81649000D01*
G75*
G02*
X118540000Y-81380250I0J268750D01*
G01*
G37*
G36*
G01*
X125114000Y-77570250D02*
X125114000Y-76607750D01*
G75*
G02*
X125382750Y-76339000I268750J0D01*
G01*
X125920250Y-76339000D01*
G75*
G02*
X126189000Y-76607750I0J-268750D01*
G01*
X126189000Y-77570250D01*
G75*
G02*
X125920250Y-77839000I-268750J0D01*
G01*
X125382750Y-77839000D01*
G75*
G02*
X125114000Y-77570250I0J268750D01*
G01*
G37*
G36*
G01*
X123239000Y-77570250D02*
X123239000Y-76607750D01*
G75*
G02*
X123507750Y-76339000I268750J0D01*
G01*
X124045250Y-76339000D01*
G75*
G02*
X124314000Y-76607750I0J-268750D01*
G01*
X124314000Y-77570250D01*
G75*
G02*
X124045250Y-77839000I-268750J0D01*
G01*
X123507750Y-77839000D01*
G75*
G02*
X123239000Y-77570250I0J268750D01*
G01*
G37*
G36*
G01*
X125114000Y-74649250D02*
X125114000Y-73686750D01*
G75*
G02*
X125382750Y-73418000I268750J0D01*
G01*
X125920250Y-73418000D01*
G75*
G02*
X126189000Y-73686750I0J-268750D01*
G01*
X126189000Y-74649250D01*
G75*
G02*
X125920250Y-74918000I-268750J0D01*
G01*
X125382750Y-74918000D01*
G75*
G02*
X125114000Y-74649250I0J268750D01*
G01*
G37*
G36*
G01*
X123239000Y-74649250D02*
X123239000Y-73686750D01*
G75*
G02*
X123507750Y-73418000I268750J0D01*
G01*
X124045250Y-73418000D01*
G75*
G02*
X124314000Y-73686750I0J-268750D01*
G01*
X124314000Y-74649250D01*
G75*
G02*
X124045250Y-74918000I-268750J0D01*
G01*
X123507750Y-74918000D01*
G75*
G02*
X123239000Y-74649250I0J268750D01*
G01*
G37*
G36*
G01*
X144545000Y-85317250D02*
X144545000Y-84354750D01*
G75*
G02*
X144813750Y-84086000I268750J0D01*
G01*
X145351250Y-84086000D01*
G75*
G02*
X145620000Y-84354750I0J-268750D01*
G01*
X145620000Y-85317250D01*
G75*
G02*
X145351250Y-85586000I-268750J0D01*
G01*
X144813750Y-85586000D01*
G75*
G02*
X144545000Y-85317250I0J268750D01*
G01*
G37*
G36*
G01*
X142670000Y-85317250D02*
X142670000Y-84354750D01*
G75*
G02*
X142938750Y-84086000I268750J0D01*
G01*
X143476250Y-84086000D01*
G75*
G02*
X143745000Y-84354750I0J-268750D01*
G01*
X143745000Y-85317250D01*
G75*
G02*
X143476250Y-85586000I-268750J0D01*
G01*
X142938750Y-85586000D01*
G75*
G02*
X142670000Y-85317250I0J268750D01*
G01*
G37*
M02*
