%TF.GenerationSoftware,KiCad,Pcbnew,(5.1.6)-1*%
%TF.CreationDate,2020-12-03T23:45:43-06:00*%
%TF.ProjectId,CANBoard,43414e42-6f61-4726-942e-6b696361645f,v1*%
%TF.SameCoordinates,Original*%
%TF.FileFunction,Legend,Top*%
%TF.FilePolarity,Positive*%
%FSLAX46Y46*%
G04 Gerber Fmt 4.6, Leading zero omitted, Abs format (unit mm)*
G04 Created by KiCad (PCBNEW (5.1.6)-1) date 2020-12-03 23:45:43*
%MOMM*%
%LPD*%
G01*
G04 APERTURE LIST*
%ADD10C,0.150000*%
%ADD11C,0.300000*%
%ADD12C,0.120000*%
%ADD13C,0.100000*%
G04 APERTURE END LIST*
D10*
X131111666Y-88368142D02*
X131159285Y-88415761D01*
X131111666Y-88463380D01*
X131064047Y-88415761D01*
X131111666Y-88368142D01*
X131111666Y-88463380D01*
X131111666Y-87844333D02*
X131159285Y-87891952D01*
X131111666Y-87939571D01*
X131064047Y-87891952D01*
X131111666Y-87844333D01*
X131111666Y-87939571D01*
X131492619Y-88844333D02*
X131540238Y-88796714D01*
X131635476Y-88653857D01*
X131683095Y-88558619D01*
X131730714Y-88415761D01*
X131778333Y-88177666D01*
X131778333Y-87987190D01*
X131730714Y-87749095D01*
X131683095Y-87606238D01*
X131635476Y-87511000D01*
X131540238Y-87368142D01*
X131492619Y-87320523D01*
D11*
X153987571Y-93071142D02*
X155130428Y-93071142D01*
X154559000Y-93642571D02*
X154559000Y-92499714D01*
D10*
X149068571Y-71387857D02*
X149032857Y-71423571D01*
X148925714Y-71459285D01*
X148854285Y-71459285D01*
X148747142Y-71423571D01*
X148675714Y-71352142D01*
X148640000Y-71280714D01*
X148604285Y-71137857D01*
X148604285Y-71030714D01*
X148640000Y-70887857D01*
X148675714Y-70816428D01*
X148747142Y-70745000D01*
X148854285Y-70709285D01*
X148925714Y-70709285D01*
X149032857Y-70745000D01*
X149068571Y-70780714D01*
X149354285Y-71245000D02*
X149711428Y-71245000D01*
X149282857Y-71459285D02*
X149532857Y-70709285D01*
X149782857Y-71459285D01*
X150032857Y-71459285D02*
X150032857Y-70709285D01*
X150461428Y-71459285D01*
X150461428Y-70709285D01*
X151282857Y-70709285D02*
X151711428Y-70709285D01*
X151497142Y-71459285D02*
X151497142Y-70709285D01*
X152247142Y-71423571D02*
X152175714Y-71459285D01*
X152032857Y-71459285D01*
X151961428Y-71423571D01*
X151925714Y-71352142D01*
X151925714Y-71066428D01*
X151961428Y-70995000D01*
X152032857Y-70959285D01*
X152175714Y-70959285D01*
X152247142Y-70995000D01*
X152282857Y-71066428D01*
X152282857Y-71137857D01*
X151925714Y-71209285D01*
X152604285Y-71459285D02*
X152604285Y-70959285D01*
X152604285Y-71102142D02*
X152640000Y-71030714D01*
X152675714Y-70995000D01*
X152747142Y-70959285D01*
X152818571Y-70959285D01*
X153068571Y-71459285D02*
X153068571Y-70959285D01*
X153068571Y-71030714D02*
X153104285Y-70995000D01*
X153175714Y-70959285D01*
X153282857Y-70959285D01*
X153354285Y-70995000D01*
X153390000Y-71066428D01*
X153390000Y-71459285D01*
X153390000Y-71066428D02*
X153425714Y-70995000D01*
X153497142Y-70959285D01*
X153604285Y-70959285D01*
X153675714Y-70995000D01*
X153711428Y-71066428D01*
X153711428Y-71459285D01*
D12*
X130500000Y-90027000D02*
X130500000Y-87342000D01*
X130500000Y-87342000D02*
X128580000Y-87342000D01*
X128580000Y-87342000D02*
X128580000Y-90027000D01*
X131520000Y-84831422D02*
X131520000Y-85348578D01*
X130100000Y-84831422D02*
X130100000Y-85348578D01*
X152909500Y-74549000D02*
G75*
G03*
X152909500Y-74549000I-700000J0D01*
G01*
X142589500Y-88614500D02*
X146589500Y-88614500D01*
X146589500Y-88614500D02*
X146589500Y-92614500D01*
X146589500Y-92614500D02*
X142589500Y-92614500D01*
X142589500Y-92614500D02*
X142589500Y-88614500D01*
X126106422Y-63552000D02*
X126623578Y-63552000D01*
X126106422Y-64972000D02*
X126623578Y-64972000D01*
X132259000Y-69981578D02*
X132259000Y-69464422D01*
X133679000Y-69981578D02*
X133679000Y-69464422D01*
X145288000Y-83459000D02*
X147238000Y-83459000D01*
X145288000Y-83459000D02*
X143338000Y-83459000D01*
X145288000Y-78339000D02*
X147238000Y-78339000D01*
X145288000Y-78339000D02*
X141838000Y-78339000D01*
D13*
X136103000Y-94588000D02*
X136578000Y-94588000D01*
X136578000Y-94588000D02*
X136903000Y-94288000D01*
X136903000Y-94288000D02*
X137098000Y-94288000D01*
X136428000Y-88038000D02*
X136903000Y-88038000D01*
X136903000Y-88038000D02*
X136903000Y-88488000D01*
X133353000Y-94088000D02*
X133353000Y-94588000D01*
X133353000Y-94588000D02*
X133753000Y-94588000D01*
X133353000Y-88413000D02*
X133353000Y-88038000D01*
X133353000Y-88038000D02*
X133653000Y-88038000D01*
D12*
X130250000Y-92832422D02*
X130250000Y-93349578D01*
X128830000Y-92832422D02*
X128830000Y-93349578D01*
X139441422Y-85777000D02*
X139958578Y-85777000D01*
X139441422Y-87197000D02*
X139958578Y-87197000D01*
X148706000Y-92224500D02*
X150506000Y-92224500D01*
X150506000Y-89004500D02*
X148056000Y-89004500D01*
X144950922Y-93333500D02*
X145468078Y-93333500D01*
X144950922Y-94753500D02*
X145468078Y-94753500D01*
X144403578Y-87578000D02*
X143886422Y-87578000D01*
X144403578Y-86158000D02*
X143886422Y-86158000D01*
X152395422Y-85015000D02*
X152912578Y-85015000D01*
X152395422Y-86435000D02*
X152912578Y-86435000D01*
X141426000Y-93086422D02*
X141426000Y-93603578D01*
X140006000Y-93086422D02*
X140006000Y-93603578D01*
X140006000Y-89920578D02*
X140006000Y-89403422D01*
X141426000Y-89920578D02*
X141426000Y-89403422D01*
X148521922Y-85015000D02*
X149039078Y-85015000D01*
X148521922Y-86435000D02*
X149039078Y-86435000D01*
X151840000Y-94419922D02*
X151840000Y-94937078D01*
X150420000Y-94419922D02*
X150420000Y-94937078D01*
X153935500Y-94419922D02*
X153935500Y-94937078D01*
X152515500Y-94419922D02*
X152515500Y-94937078D01*
X149744500Y-94419922D02*
X149744500Y-94937078D01*
X148324500Y-94419922D02*
X148324500Y-94937078D01*
X153865000Y-79268064D02*
X153865000Y-75163936D01*
X157285000Y-79268064D02*
X157285000Y-75163936D01*
X122831000Y-78265000D02*
X122831000Y-72515000D01*
X122831000Y-72515000D02*
X119231000Y-72515000D01*
X119231000Y-72515000D02*
X119231000Y-78265000D01*
X128143000Y-70632000D02*
X130093000Y-70632000D01*
X128143000Y-70632000D02*
X126193000Y-70632000D01*
X128143000Y-65512000D02*
X130093000Y-65512000D01*
X128143000Y-65512000D02*
X124693000Y-65512000D01*
X137930000Y-80826000D02*
X138230000Y-80826000D01*
X138230000Y-80826000D02*
X138230000Y-80526000D01*
X131310000Y-80826000D02*
X131010000Y-80826000D01*
X131010000Y-80826000D02*
X131010000Y-80526000D01*
X137930000Y-73606000D02*
X138230000Y-73606000D01*
X138230000Y-73606000D02*
X138230000Y-73906000D01*
X131310000Y-73606000D02*
X131010000Y-73606000D01*
X131010000Y-73606000D02*
X131010000Y-73906000D01*
X131010000Y-73906000D02*
X129695000Y-73906000D01*
X123750000Y-85729578D02*
X123750000Y-85212422D01*
X125170000Y-85729578D02*
X125170000Y-85212422D01*
X125170000Y-92324422D02*
X125170000Y-92841578D01*
X123750000Y-92324422D02*
X123750000Y-92841578D01*
X125170000Y-88768422D02*
X125170000Y-89285578D01*
X123750000Y-88768422D02*
X123750000Y-89285578D01*
X123750000Y-99953578D02*
X123750000Y-99436422D01*
X125170000Y-99953578D02*
X125170000Y-99436422D01*
X123750000Y-96397578D02*
X123750000Y-95880422D01*
X125170000Y-96397578D02*
X125170000Y-95880422D01*
X123138000Y-85212422D02*
X123138000Y-85729578D01*
X121718000Y-85212422D02*
X121718000Y-85729578D01*
X121718000Y-92841578D02*
X121718000Y-92324422D01*
X123138000Y-92841578D02*
X123138000Y-92324422D01*
X121718000Y-89285578D02*
X121718000Y-88768422D01*
X123138000Y-89285578D02*
X123138000Y-88768422D01*
X123138000Y-99436422D02*
X123138000Y-99953578D01*
X121718000Y-99436422D02*
X121718000Y-99953578D01*
X123138000Y-95880422D02*
X123138000Y-96397578D01*
X121718000Y-95880422D02*
X121718000Y-96397578D01*
X147268000Y-97658422D02*
X147268000Y-98175578D01*
X145848000Y-97658422D02*
X145848000Y-98175578D01*
X144728000Y-97658422D02*
X144728000Y-98175578D01*
X143308000Y-97658422D02*
X143308000Y-98175578D01*
X142188000Y-97658422D02*
X142188000Y-98175578D01*
X140768000Y-97658422D02*
X140768000Y-98175578D01*
X139648000Y-97658422D02*
X139648000Y-98175578D01*
X138228000Y-97658422D02*
X138228000Y-98175578D01*
X137108000Y-97658422D02*
X137108000Y-98175578D01*
X135688000Y-97658422D02*
X135688000Y-98175578D01*
X134568000Y-97658422D02*
X134568000Y-98175578D01*
X133148000Y-97658422D02*
X133148000Y-98175578D01*
X132028000Y-97658422D02*
X132028000Y-98175578D01*
X130608000Y-97658422D02*
X130608000Y-98175578D01*
X129488000Y-97658422D02*
X129488000Y-98175578D01*
X128068000Y-97658422D02*
X128068000Y-98175578D01*
X144197000Y-68838578D02*
X144197000Y-68321422D01*
X145617000Y-68838578D02*
X145617000Y-68321422D01*
X136092000Y-64765422D02*
X136092000Y-65282578D01*
X134672000Y-64765422D02*
X134672000Y-65282578D01*
X147649000Y-68321422D02*
X147649000Y-68838578D01*
X146229000Y-68321422D02*
X146229000Y-68838578D01*
X133933000Y-64716922D02*
X133933000Y-65234078D01*
X132513000Y-64716922D02*
X132513000Y-65234078D01*
X137339000Y-68838578D02*
X137339000Y-68321422D01*
X138759000Y-68838578D02*
X138759000Y-68321422D01*
X153087000Y-68838578D02*
X153087000Y-68321422D01*
X154507000Y-68838578D02*
X154507000Y-68321422D01*
X140791000Y-68321422D02*
X140791000Y-68838578D01*
X139371000Y-68321422D02*
X139371000Y-68838578D01*
X152475000Y-68321422D02*
X152475000Y-68838578D01*
X151055000Y-68321422D02*
X151055000Y-68838578D01*
X150824000Y-73416422D02*
X150824000Y-73933578D01*
X149404000Y-73416422D02*
X149404000Y-73933578D01*
X149404000Y-77474578D02*
X149404000Y-76957422D01*
X150824000Y-77474578D02*
X150824000Y-76957422D01*
X149852000Y-67850000D02*
X150512000Y-67850000D01*
X148192000Y-67850000D02*
X148852000Y-67850000D01*
X148192000Y-67850000D02*
X148192000Y-69880000D01*
X150512000Y-69260000D02*
X150512000Y-67850000D01*
X136136000Y-67850000D02*
X136796000Y-67850000D01*
X134476000Y-67850000D02*
X135136000Y-67850000D01*
X134476000Y-67850000D02*
X134476000Y-69880000D01*
X136796000Y-69260000D02*
X136796000Y-67850000D01*
X142994000Y-67850000D02*
X143654000Y-67850000D01*
X141334000Y-67850000D02*
X141994000Y-67850000D01*
X141334000Y-67850000D02*
X141334000Y-69880000D01*
X143654000Y-69260000D02*
X143654000Y-67850000D01*
X156710000Y-67850000D02*
X157370000Y-67850000D01*
X155050000Y-67850000D02*
X155710000Y-67850000D01*
X155050000Y-67850000D02*
X155050000Y-69880000D01*
X157370000Y-69260000D02*
X157370000Y-67850000D01*
X154175000Y-72182000D02*
X154175000Y-71582000D01*
X156275000Y-72882000D02*
X154875000Y-72882000D01*
X156975000Y-71582000D02*
X156975000Y-72182000D01*
X154875000Y-70882000D02*
X156275000Y-70882000D01*
X154175000Y-71582000D02*
G75*
G02*
X154875000Y-70882000I700000J0D01*
G01*
X154875000Y-72882000D02*
G75*
G02*
X154175000Y-72182000I0J700000D01*
G01*
X156975000Y-72182000D02*
G75*
G02*
X156275000Y-72882000I-700000J0D01*
G01*
X156275000Y-70882000D02*
G75*
G02*
X156975000Y-71582000I0J-700000D01*
G01*
X146164000Y-77530000D02*
X142634000Y-77530000D01*
X146164000Y-71060000D02*
X142634000Y-71060000D01*
X147489000Y-77465000D02*
X146164000Y-77465000D01*
X146164000Y-77530000D02*
X146164000Y-77465000D01*
X142634000Y-77530000D02*
X142634000Y-77465000D01*
X146164000Y-71125000D02*
X146164000Y-71060000D01*
X142634000Y-71125000D02*
X142634000Y-71060000D01*
X125852422Y-79681000D02*
X126369578Y-79681000D01*
X125852422Y-81101000D02*
X126369578Y-81101000D01*
D13*
X150955000Y-79630000D02*
X150680000Y-79630000D01*
X150680000Y-79630000D02*
X150305000Y-79905000D01*
X150305000Y-79905000D02*
X150305000Y-79955000D01*
X150305000Y-79955000D02*
X149530000Y-79955000D01*
X150780000Y-82930000D02*
X150305000Y-82930000D01*
X150305000Y-82930000D02*
X150305000Y-82580000D01*
X151955000Y-82705000D02*
X151955000Y-82580000D01*
X151955000Y-82630000D02*
X151955000Y-82930000D01*
X151955000Y-82930000D02*
X151505000Y-82930000D01*
X151580000Y-79630000D02*
X151955000Y-79630000D01*
X151955000Y-79630000D02*
X151955000Y-79930000D01*
D12*
X127202000Y-85212422D02*
X127202000Y-85729578D01*
X125782000Y-85212422D02*
X125782000Y-85729578D01*
X125782000Y-92841578D02*
X125782000Y-92324422D01*
X127202000Y-92841578D02*
X127202000Y-92324422D01*
X125782000Y-89285578D02*
X125782000Y-88768422D01*
X127202000Y-89285578D02*
X127202000Y-88768422D01*
X133933000Y-85466422D02*
X133933000Y-85983578D01*
X132513000Y-85466422D02*
X132513000Y-85983578D01*
X127202000Y-95880422D02*
X127202000Y-96397578D01*
X125782000Y-95880422D02*
X125782000Y-96397578D01*
X130433578Y-64972000D02*
X129916422Y-64972000D01*
X130433578Y-63552000D02*
X129916422Y-63552000D01*
X123439422Y-81713000D02*
X123956578Y-81713000D01*
X123439422Y-83133000D02*
X123956578Y-83133000D01*
X127512578Y-83133000D02*
X126995422Y-83133000D01*
X127512578Y-81713000D02*
X126995422Y-81713000D01*
X139958578Y-84911000D02*
X139441422Y-84911000D01*
X139958578Y-83491000D02*
X139441422Y-83491000D01*
X129154422Y-71680000D02*
X129671578Y-71680000D01*
X129154422Y-73100000D02*
X129671578Y-73100000D01*
X139958578Y-82879000D02*
X139441422Y-82879000D01*
X139958578Y-81459000D02*
X139441422Y-81459000D01*
X119756422Y-80189000D02*
X120273578Y-80189000D01*
X119756422Y-81609000D02*
X120273578Y-81609000D01*
X124455422Y-76379000D02*
X124972578Y-76379000D01*
X124455422Y-77799000D02*
X124972578Y-77799000D01*
X124455422Y-73458000D02*
X124972578Y-73458000D01*
X124455422Y-74878000D02*
X124972578Y-74878000D01*
X143886422Y-84126000D02*
X144403578Y-84126000D01*
X143886422Y-85546000D02*
X144403578Y-85546000D01*
M02*
