M48
; DRILL file {KiCad (5.1.6)-1} date 12/03/20 23:45:44
; FORMAT={-:-/ absolute / inch / decimal}
; #@! TF.CreationDate,2020-12-03T23:45:44-06:00
; #@! TF.GenerationSoftware,Kicad,Pcbnew,(5.1.6)-1
FMAT,2
INCH
T1C0.0118
T2C0.0394
T3C0.1260
%
G90
G05
T1
X4.673Y-2.97
X4.676Y-2.839
X4.676Y-3.119
X4.765Y-3.123
X4.785Y-3.255
X4.786Y-2.835
X4.865Y-3.121
X4.875Y-3.19
X4.88Y-2.8375
X4.892Y-3.097
X4.911Y-2.858
X4.935Y-2.8175
X4.97Y-3.965
X4.98Y-3.885
X5.008Y-2.862
X5.008Y-3.093
X5.01Y-2.705
X5.011Y-2.943
X5.012Y-3.027
X5.025Y-3.375
X5.025Y-3.585
X5.04Y-2.78
X5.042Y-3.652
X5.055Y-3.065
X5.06Y-3.027
X5.07Y-3.765
X5.079Y-2.943
X5.08Y-2.655
X5.14Y-3.225
X5.17Y-3.765
X5.18Y-2.8125
X5.2Y-2.94
X5.2074Y-2.5575
X5.22Y-3.285
X5.235Y-2.655
X5.25Y-3.265
X5.27Y-3.765
X5.285Y-3.285
X5.29Y-3.595
X5.315Y-3.265
X5.315Y-3.595
X5.34Y-2.7
X5.34Y-3.595
X5.345Y-3.285
X5.37Y-3.765
X5.375Y-2.56
X5.38Y-3.265
X5.4Y-3.145
X5.401Y-3.738
X5.426Y-3.738
X5.451Y-3.738
X5.47Y-3.765
X5.53Y-2.825
X5.5333Y-3.0973
X5.535Y-3.176
X5.5351Y-3.1366
X5.57Y-3.765
X5.59Y-3.405
X5.61Y-2.7
X5.62Y-3.4775
X5.62Y-3.5025
X5.62Y-3.6325
X5.62Y-3.6575
X5.67Y-3.765
X5.69Y-3.16
X5.77Y-3.765
X5.805Y-3.7025
X5.82Y-3.31
X5.88Y-2.7
X5.96Y-3.24
X5.965Y-2.89
X5.965Y-3.0
X5.9825Y-3.53
X5.9825Y-3.605
X6.045Y-3.33
X6.05Y-2.83
X6.15Y-2.7
T2
X5.43Y-2.55
X5.53Y-2.55
X5.63Y-2.55
X5.73Y-2.55
X5.83Y-2.55
X5.93Y-2.55
X6.03Y-2.55
X6.13Y-2.55
X6.15Y-3.265
X6.15Y-3.365
X6.15Y-3.465
X6.15Y-3.565
X6.15Y-3.665
X6.15Y-3.765
X6.15Y-3.865
X6.15Y-3.965
X5.07Y-3.985
X5.17Y-3.985
X5.27Y-3.985
X5.37Y-3.985
X5.47Y-3.985
X5.57Y-3.985
X5.67Y-3.985
X5.77Y-3.985
X4.7225Y-2.77
X4.8225Y-2.77
X4.715Y-3.285
X4.715Y-3.385
X4.715Y-3.485
X4.715Y-3.585
X4.715Y-3.685
X4.715Y-3.785
X4.715Y-3.885
X4.715Y-3.985
T3
X4.77Y-2.605
X5.97Y-3.93
T0
M30
