%TF.GenerationSoftware,KiCad,Pcbnew,(7.0.0)*%
%TF.CreationDate,2023-02-19T00:42:13-05:00*%
%TF.ProjectId,CANBoard,43414e42-6f61-4726-942e-6b696361645f,v1*%
%TF.SameCoordinates,Original*%
%TF.FileFunction,Legend,Top*%
%TF.FilePolarity,Positive*%
%FSLAX46Y46*%
G04 Gerber Fmt 4.6, Leading zero omitted, Abs format (unit mm)*
G04 Created by KiCad (PCBNEW (7.0.0)) date 2023-02-19 00:42:13*
%MOMM*%
%LPD*%
G01*
G04 APERTURE LIST*
G04 Aperture macros list*
%AMRoundRect*
0 Rectangle with rounded corners*
0 $1 Rounding radius*
0 $2 $3 $4 $5 $6 $7 $8 $9 X,Y pos of 4 corners*
0 Add a 4 corners polygon primitive as box body*
4,1,4,$2,$3,$4,$5,$6,$7,$8,$9,$2,$3,0*
0 Add four circle primitives for the rounded corners*
1,1,$1+$1,$2,$3*
1,1,$1+$1,$4,$5*
1,1,$1+$1,$6,$7*
1,1,$1+$1,$8,$9*
0 Add four rect primitives between the rounded corners*
20,1,$1+$1,$2,$3,$4,$5,0*
20,1,$1+$1,$4,$5,$6,$7,0*
20,1,$1+$1,$6,$7,$8,$9,0*
20,1,$1+$1,$8,$9,$2,$3,0*%
%AMFreePoly0*
4,1,35,0.012286,0.794911,0.071157,0.794911,0.085244,0.792886,0.221795,0.752791,0.234740,0.746879,0.354462,0.669938,0.365217,0.660618,0.458414,0.553063,0.466109,0.541091,0.525228,0.411637,0.529237,0.397982,0.549491,0.257116,0.550000,0.250000,0.550000,-0.250000,0.549491,-0.257116,0.529237,-0.397982,0.525228,-0.411637,0.466109,-0.541091,0.458414,-0.553063,0.365217,-0.660618,
0.354462,-0.669938,0.234740,-0.746879,0.221795,-0.752791,0.085244,-0.792886,0.071157,-0.794911,0.012286,-0.794911,0.000000,-0.800000,-0.500000,-0.800000,-0.535355,-0.785355,-0.550000,-0.750000,-0.550000,0.750000,-0.535355,0.785355,-0.500000,0.800000,0.000000,0.800000,0.012286,0.794911,0.012286,0.794911,$1*%
%AMFreePoly1*
4,1,35,0.535355,0.785355,0.550000,0.750000,0.550000,-0.750000,0.535355,-0.785355,0.500000,-0.800000,0.000000,-0.800000,-0.012286,-0.794911,-0.071157,-0.794911,-0.085244,-0.792886,-0.221795,-0.752791,-0.234740,-0.746879,-0.354462,-0.669938,-0.365217,-0.660618,-0.458414,-0.553063,-0.466109,-0.541091,-0.525228,-0.411637,-0.529237,-0.397982,-0.549491,-0.257116,-0.550000,-0.250000,-0.550000,0.250000,
-0.549491,0.257116,-0.529237,0.397982,-0.525228,0.411637,-0.466109,0.541091,-0.458414,0.553063,-0.365217,0.660618,-0.354462,0.669938,-0.234740,0.746879,-0.221795,0.752791,-0.085244,0.792886,-0.071157,0.794911,-0.012286,0.794911,0.000000,0.800000,0.500000,0.800000,0.535355,0.785355,0.535355,0.785355,$1*%
G04 Aperture macros list end*
%ADD10C,0.300000*%
%ADD11C,0.150000*%
%ADD12C,0.120000*%
%ADD13C,0.100000*%
%ADD14C,1.090600*%
%ADD15C,0.887400*%
%ADD16RoundRect,0.293750X-0.456250X0.243750X-0.456250X-0.243750X0.456250X-0.243750X0.456250X0.243750X0*%
%ADD17O,1.800000X1.800000*%
%ADD18C,1.800000*%
%ADD19C,5.700000*%
%ADD20RoundRect,0.293750X0.243750X0.456250X-0.243750X0.456250X-0.243750X-0.456250X0.243750X-0.456250X0*%
%ADD21RoundRect,0.293750X-0.243750X-0.456250X0.243750X-0.456250X0.243750X0.456250X-0.243750X0.456250X0*%
%ADD22RoundRect,0.070000X-0.650000X-0.300000X0.650000X-0.300000X0.650000X0.300000X-0.650000X0.300000X0*%
%ADD23RoundRect,0.050000X-1.200000X1.000000X-1.200000X-1.000000X1.200000X-1.000000X1.200000X1.000000X0*%
%ADD24RoundRect,0.175000X-0.125000X-0.625000X0.125000X-0.625000X0.125000X0.625000X-0.125000X0.625000X0*%
%ADD25RoundRect,0.175000X-0.625000X-0.125000X0.625000X-0.125000X0.625000X0.125000X-0.625000X0.125000X0*%
%ADD26RoundRect,0.300000X1.425000X-0.425000X1.425000X0.425000X-1.425000X0.425000X-1.425000X-0.425000X0*%
%ADD27RoundRect,0.293750X0.456250X-0.243750X0.456250X0.243750X-0.456250X0.243750X-0.456250X-0.243750X0*%
%ADD28RoundRect,0.425000X0.375000X-0.825000X0.375000X0.825000X-0.375000X0.825000X-0.375000X-0.825000X0*%
%ADD29RoundRect,0.050000X-0.530000X-0.325000X0.530000X-0.325000X0.530000X0.325000X-0.530000X0.325000X0*%
%ADD30RoundRect,0.050000X1.100000X-1.900000X1.100000X1.900000X-1.100000X1.900000X-1.100000X-1.900000X0*%
%ADD31RoundRect,0.050000X1.100000X-0.750000X1.100000X0.750000X-1.100000X0.750000X-1.100000X-0.750000X0*%
%ADD32C,1.100000*%
%ADD33RoundRect,0.050000X-0.225000X-0.350000X0.225000X-0.350000X0.225000X0.350000X-0.225000X0.350000X0*%
%ADD34FreePoly0,0.000000*%
%ADD35FreePoly1,0.000000*%
%ADD36RoundRect,0.200000X-0.825000X-0.150000X0.825000X-0.150000X0.825000X0.150000X-0.825000X0.150000X0*%
G04 APERTURE END LIST*
D10*
X130841714Y-64102428D02*
X130913142Y-64031000D01*
X130913142Y-64031000D02*
X131056000Y-63959571D01*
X131056000Y-63959571D02*
X131413142Y-63959571D01*
X131413142Y-63959571D02*
X131556000Y-64031000D01*
X131556000Y-64031000D02*
X131627428Y-64102428D01*
X131627428Y-64102428D02*
X131698857Y-64245285D01*
X131698857Y-64245285D02*
X131698857Y-64388142D01*
X131698857Y-64388142D02*
X131627428Y-64602428D01*
X131627428Y-64602428D02*
X130770285Y-65459571D01*
X130770285Y-65459571D02*
X131698857Y-65459571D01*
D11*
X131111667Y-88283142D02*
X131159286Y-88330761D01*
X131159286Y-88330761D02*
X131111667Y-88378380D01*
X131111667Y-88378380D02*
X131064048Y-88330761D01*
X131064048Y-88330761D02*
X131111667Y-88283142D01*
X131111667Y-88283142D02*
X131111667Y-88378380D01*
X131111667Y-87759333D02*
X131159286Y-87806952D01*
X131159286Y-87806952D02*
X131111667Y-87854571D01*
X131111667Y-87854571D02*
X131064048Y-87806952D01*
X131064048Y-87806952D02*
X131111667Y-87759333D01*
X131111667Y-87759333D02*
X131111667Y-87854571D01*
X131492619Y-88759333D02*
X131540238Y-88711714D01*
X131540238Y-88711714D02*
X131635476Y-88568857D01*
X131635476Y-88568857D02*
X131683095Y-88473619D01*
X131683095Y-88473619D02*
X131730714Y-88330761D01*
X131730714Y-88330761D02*
X131778333Y-88092666D01*
X131778333Y-88092666D02*
X131778333Y-87902190D01*
X131778333Y-87902190D02*
X131730714Y-87664095D01*
X131730714Y-87664095D02*
X131683095Y-87521238D01*
X131683095Y-87521238D02*
X131635476Y-87426000D01*
X131635476Y-87426000D02*
X131540238Y-87283142D01*
X131540238Y-87283142D02*
X131492619Y-87235523D01*
D10*
X131698857Y-68888571D02*
X130841714Y-68888571D01*
X131270285Y-68888571D02*
X131270285Y-67388571D01*
X131270285Y-67388571D02*
X131127428Y-67602857D01*
X131127428Y-67602857D02*
X130984571Y-67745714D01*
X130984571Y-67745714D02*
X130841714Y-67817142D01*
D11*
X149287499Y-71324107D02*
X149251785Y-71359821D01*
X149251785Y-71359821D02*
X149144642Y-71395535D01*
X149144642Y-71395535D02*
X149073214Y-71395535D01*
X149073214Y-71395535D02*
X148966071Y-71359821D01*
X148966071Y-71359821D02*
X148894642Y-71288392D01*
X148894642Y-71288392D02*
X148858928Y-71216964D01*
X148858928Y-71216964D02*
X148823214Y-71074107D01*
X148823214Y-71074107D02*
X148823214Y-70966964D01*
X148823214Y-70966964D02*
X148858928Y-70824107D01*
X148858928Y-70824107D02*
X148894642Y-70752678D01*
X148894642Y-70752678D02*
X148966071Y-70681250D01*
X148966071Y-70681250D02*
X149073214Y-70645535D01*
X149073214Y-70645535D02*
X149144642Y-70645535D01*
X149144642Y-70645535D02*
X149251785Y-70681250D01*
X149251785Y-70681250D02*
X149287499Y-70716964D01*
X149573214Y-71181250D02*
X149930357Y-71181250D01*
X149501785Y-71395535D02*
X149751785Y-70645535D01*
X149751785Y-70645535D02*
X150001785Y-71395535D01*
X150251785Y-71395535D02*
X150251785Y-70645535D01*
X150251785Y-70645535D02*
X150680356Y-71395535D01*
X150680356Y-71395535D02*
X150680356Y-70645535D01*
X151380356Y-70645535D02*
X151808928Y-70645535D01*
X151594642Y-71395535D02*
X151594642Y-70645535D01*
X152344642Y-71359821D02*
X152273214Y-71395535D01*
X152273214Y-71395535D02*
X152130357Y-71395535D01*
X152130357Y-71395535D02*
X152058928Y-71359821D01*
X152058928Y-71359821D02*
X152023214Y-71288392D01*
X152023214Y-71288392D02*
X152023214Y-71002678D01*
X152023214Y-71002678D02*
X152058928Y-70931250D01*
X152058928Y-70931250D02*
X152130357Y-70895535D01*
X152130357Y-70895535D02*
X152273214Y-70895535D01*
X152273214Y-70895535D02*
X152344642Y-70931250D01*
X152344642Y-70931250D02*
X152380357Y-71002678D01*
X152380357Y-71002678D02*
X152380357Y-71074107D01*
X152380357Y-71074107D02*
X152023214Y-71145535D01*
X152701785Y-71395535D02*
X152701785Y-70895535D01*
X152701785Y-71038392D02*
X152737499Y-70966964D01*
X152737499Y-70966964D02*
X152773214Y-70931250D01*
X152773214Y-70931250D02*
X152844642Y-70895535D01*
X152844642Y-70895535D02*
X152916071Y-70895535D01*
X153166071Y-71395535D02*
X153166071Y-70895535D01*
X153166071Y-70966964D02*
X153201785Y-70931250D01*
X153201785Y-70931250D02*
X153273214Y-70895535D01*
X153273214Y-70895535D02*
X153380357Y-70895535D01*
X153380357Y-70895535D02*
X153451785Y-70931250D01*
X153451785Y-70931250D02*
X153487500Y-71002678D01*
X153487500Y-71002678D02*
X153487500Y-71395535D01*
X153487500Y-71002678D02*
X153523214Y-70931250D01*
X153523214Y-70931250D02*
X153594642Y-70895535D01*
X153594642Y-70895535D02*
X153701785Y-70895535D01*
X153701785Y-70895535D02*
X153773214Y-70931250D01*
X153773214Y-70931250D02*
X153808928Y-71002678D01*
X153808928Y-71002678D02*
X153808928Y-71395535D01*
D10*
X153987571Y-92943642D02*
X155130429Y-92943642D01*
X154559000Y-93515071D02*
X154559000Y-92372214D01*
D12*
X142621000Y-76327000D02*
X142621000Y-75692000D01*
X143256000Y-76327000D02*
X142621000Y-76327000D01*
X143308000Y-97658422D02*
X143308000Y-98175578D01*
X144728000Y-97658422D02*
X144728000Y-98175578D01*
X140768000Y-97658422D02*
X140768000Y-98175578D01*
X142188000Y-97658422D02*
X142188000Y-98175578D01*
X138228000Y-97658422D02*
X138228000Y-98175578D01*
X139648000Y-97658422D02*
X139648000Y-98175578D01*
X149404000Y-73416422D02*
X149404000Y-73933578D01*
X150824000Y-73416422D02*
X150824000Y-73933578D01*
X135688000Y-97658422D02*
X135688000Y-98175578D01*
X137108000Y-97658422D02*
X137108000Y-98175578D01*
X133148000Y-97658422D02*
X133148000Y-98175578D01*
X134568000Y-97658422D02*
X134568000Y-98175578D01*
X128068000Y-97658422D02*
X128068000Y-98175578D01*
X129488000Y-97658422D02*
X129488000Y-98175578D01*
X139958578Y-81459000D02*
X139441422Y-81459000D01*
X139958578Y-82879000D02*
X139441422Y-82879000D01*
X123439422Y-83133000D02*
X123956578Y-83133000D01*
X123439422Y-81713000D02*
X123956578Y-81713000D01*
X127512578Y-81713000D02*
X126995422Y-81713000D01*
X127512578Y-83133000D02*
X126995422Y-83133000D01*
X119756422Y-81609000D02*
X120273578Y-81609000D01*
X119756422Y-80189000D02*
X120273578Y-80189000D01*
X124455422Y-77799000D02*
X124972578Y-77799000D01*
X124455422Y-76379000D02*
X124972578Y-76379000D01*
X129154422Y-73100000D02*
X129671578Y-73100000D01*
X129154422Y-71680000D02*
X129671578Y-71680000D01*
X125852422Y-81101000D02*
X126369578Y-81101000D01*
X125852422Y-79681000D02*
X126369578Y-79681000D01*
X139958578Y-83491000D02*
X139441422Y-83491000D01*
X139958578Y-84911000D02*
X139441422Y-84911000D01*
X143886422Y-85546000D02*
X144403578Y-85546000D01*
X143886422Y-84126000D02*
X144403578Y-84126000D01*
X132513000Y-85466422D02*
X132513000Y-85983578D01*
X133933000Y-85466422D02*
X133933000Y-85983578D01*
X125782000Y-95880422D02*
X125782000Y-96397578D01*
X127202000Y-95880422D02*
X127202000Y-96397578D01*
X124455422Y-74878000D02*
X124972578Y-74878000D01*
X124455422Y-73458000D02*
X124972578Y-73458000D01*
D13*
X151955000Y-82930000D02*
X151505000Y-82930000D01*
X151955000Y-82705000D02*
X151955000Y-82580000D01*
X151955000Y-82630000D02*
X151955000Y-82930000D01*
X151955000Y-79630000D02*
X151955000Y-79930000D01*
X151580000Y-79630000D02*
X151955000Y-79630000D01*
X150955000Y-79630000D02*
X150680000Y-79630000D01*
X150780000Y-82930000D02*
X150305000Y-82930000D01*
X150680000Y-79630000D02*
X150305000Y-79905000D01*
X150305000Y-82930000D02*
X150305000Y-82580000D01*
X150305000Y-79955000D02*
X149530000Y-79955000D01*
X150305000Y-79905000D02*
X150305000Y-79955000D01*
D12*
X122831000Y-78265000D02*
X122831000Y-72515000D01*
X119231000Y-72515000D02*
X119231000Y-78265000D01*
X122831000Y-72515000D02*
X119231000Y-72515000D01*
X138230000Y-80826000D02*
X138230000Y-80526000D01*
X138230000Y-73606000D02*
X138230000Y-73906000D01*
X137930000Y-80826000D02*
X138230000Y-80826000D01*
X137930000Y-73606000D02*
X138230000Y-73606000D01*
X131310000Y-80826000D02*
X131010000Y-80826000D01*
X131310000Y-73606000D02*
X131010000Y-73606000D01*
X131010000Y-80826000D02*
X131010000Y-80526000D01*
X131010000Y-73906000D02*
X129695000Y-73906000D01*
X131010000Y-73606000D02*
X131010000Y-73906000D01*
X157285000Y-79268064D02*
X157285000Y-75163936D01*
X153865000Y-79268064D02*
X153865000Y-75163936D01*
X148324500Y-94419922D02*
X148324500Y-94937078D01*
X149744500Y-94419922D02*
X149744500Y-94937078D01*
X150420000Y-94419922D02*
X150420000Y-94937078D01*
X151840000Y-94419922D02*
X151840000Y-94937078D01*
X141426000Y-89920578D02*
X141426000Y-89403422D01*
X140006000Y-89920578D02*
X140006000Y-89403422D01*
X140006000Y-93086422D02*
X140006000Y-93603578D01*
X141426000Y-93086422D02*
X141426000Y-93603578D01*
X146589500Y-92614500D02*
X142589500Y-92614500D01*
X146589500Y-88614500D02*
X146589500Y-92614500D01*
X142589500Y-92614500D02*
X142589500Y-88614500D01*
X142589500Y-88614500D02*
X146589500Y-88614500D01*
X152395422Y-86435000D02*
X152912578Y-86435000D01*
X152395422Y-85015000D02*
X152912578Y-85015000D01*
X144403578Y-86158000D02*
X143886422Y-86158000D01*
X144403578Y-87578000D02*
X143886422Y-87578000D01*
X150506000Y-89004500D02*
X148056000Y-89004500D01*
X148706000Y-92224500D02*
X150506000Y-92224500D01*
X128830000Y-92832422D02*
X128830000Y-93349578D01*
X130250000Y-92832422D02*
X130250000Y-93349578D01*
D13*
X136903000Y-88038000D02*
X136903000Y-88488000D01*
X136428000Y-88038000D02*
X136903000Y-88038000D01*
X133353000Y-88038000D02*
X133653000Y-88038000D01*
X133353000Y-88413000D02*
X133353000Y-88038000D01*
X133353000Y-94088000D02*
X133353000Y-94588000D01*
X136903000Y-94288000D02*
X137098000Y-94288000D01*
X136578000Y-94588000D02*
X136903000Y-94288000D01*
X136103000Y-94588000D02*
X136578000Y-94588000D01*
X133353000Y-94588000D02*
X133753000Y-94588000D01*
D12*
X145848000Y-97658422D02*
X145848000Y-98175578D01*
X147268000Y-97658422D02*
X147268000Y-98175578D01*
X152909500Y-74549000D02*
G75*
G03*
X152909500Y-74549000I-700000J0D01*
G01*
X152515500Y-94419922D02*
X152515500Y-94937078D01*
X153935500Y-94419922D02*
X153935500Y-94937078D01*
X144950922Y-94753500D02*
X145468078Y-94753500D01*
X144950922Y-93333500D02*
X145468078Y-93333500D01*
X130500000Y-90027000D02*
X130500000Y-87342000D01*
X128580000Y-87342000D02*
X128580000Y-90027000D01*
X130500000Y-87342000D02*
X128580000Y-87342000D01*
X150824000Y-77474578D02*
X150824000Y-76957422D01*
X149404000Y-77474578D02*
X149404000Y-76957422D01*
X130100000Y-84831422D02*
X130100000Y-85348578D01*
X131520000Y-84831422D02*
X131520000Y-85348578D01*
X145617000Y-68838578D02*
X145617000Y-68321422D01*
X144197000Y-68838578D02*
X144197000Y-68321422D01*
X142994000Y-67850000D02*
X143654000Y-67850000D01*
X141334000Y-67850000D02*
X141994000Y-67850000D01*
X141334000Y-67850000D02*
X141334000Y-69880000D01*
X143654000Y-69260000D02*
X143654000Y-67850000D01*
X134672000Y-64765422D02*
X134672000Y-65282578D01*
X136092000Y-64765422D02*
X136092000Y-65282578D01*
X151055000Y-68321422D02*
X151055000Y-68838578D01*
X152475000Y-68321422D02*
X152475000Y-68838578D01*
X139371000Y-68321422D02*
X139371000Y-68838578D01*
X140791000Y-68321422D02*
X140791000Y-68838578D01*
X149852000Y-67850000D02*
X150512000Y-67850000D01*
X148192000Y-67850000D02*
X148852000Y-67850000D01*
X148192000Y-67850000D02*
X148192000Y-69880000D01*
X150512000Y-69260000D02*
X150512000Y-67850000D01*
X138759000Y-68838578D02*
X138759000Y-68321422D01*
X137339000Y-68838578D02*
X137339000Y-68321422D01*
X136136000Y-67850000D02*
X136796000Y-67850000D01*
X134476000Y-67850000D02*
X135136000Y-67850000D01*
X134476000Y-67850000D02*
X134476000Y-69880000D01*
X136796000Y-69260000D02*
X136796000Y-67850000D01*
X146229000Y-68321422D02*
X146229000Y-68838578D01*
X147649000Y-68321422D02*
X147649000Y-68838578D01*
X154507000Y-68838578D02*
X154507000Y-68321422D01*
X153087000Y-68838578D02*
X153087000Y-68321422D01*
X132513000Y-64716922D02*
X132513000Y-65234078D01*
X133933000Y-64716922D02*
X133933000Y-65234078D01*
X156710000Y-67850000D02*
X157370000Y-67850000D01*
X155050000Y-67850000D02*
X155710000Y-67850000D01*
X155050000Y-67850000D02*
X155050000Y-69880000D01*
X157370000Y-69260000D02*
X157370000Y-67850000D01*
X156275000Y-72882000D02*
G75*
G03*
X156975000Y-72182000I0J700000D01*
G01*
X156975000Y-71582000D02*
G75*
G03*
X156275000Y-70882000I-700000J0D01*
G01*
X154175000Y-72182000D02*
G75*
G03*
X154875000Y-72882000I699999J-1D01*
G01*
X154875000Y-70882000D02*
G75*
G03*
X154175000Y-71582000I-1J-699999D01*
G01*
X156975000Y-71582000D02*
X156975000Y-72182000D01*
X156275000Y-72882000D02*
X154875000Y-72882000D01*
X154875000Y-70882000D02*
X156275000Y-70882000D01*
X154175000Y-72182000D02*
X154175000Y-71582000D01*
X130608000Y-97658422D02*
X130608000Y-98175578D01*
X132028000Y-97658422D02*
X132028000Y-98175578D01*
X139441422Y-87197000D02*
X139958578Y-87197000D01*
X139441422Y-85777000D02*
X139958578Y-85777000D01*
X123138000Y-89285578D02*
X123138000Y-88768422D01*
X121718000Y-89285578D02*
X121718000Y-88768422D01*
X121718000Y-95880422D02*
X121718000Y-96397578D01*
X123138000Y-95880422D02*
X123138000Y-96397578D01*
X121718000Y-85212422D02*
X121718000Y-85729578D01*
X123138000Y-85212422D02*
X123138000Y-85729578D01*
X121718000Y-99436422D02*
X121718000Y-99953578D01*
X123138000Y-99436422D02*
X123138000Y-99953578D01*
X123138000Y-92841578D02*
X123138000Y-92324422D01*
X121718000Y-92841578D02*
X121718000Y-92324422D01*
X125782000Y-85212422D02*
X125782000Y-85729578D01*
X127202000Y-85212422D02*
X127202000Y-85729578D01*
X127202000Y-89285578D02*
X127202000Y-88768422D01*
X125782000Y-89285578D02*
X125782000Y-88768422D01*
X127202000Y-92841578D02*
X127202000Y-92324422D01*
X125782000Y-92841578D02*
X125782000Y-92324422D01*
X125170000Y-85729578D02*
X125170000Y-85212422D01*
X123750000Y-85729578D02*
X123750000Y-85212422D01*
X123750000Y-88768422D02*
X123750000Y-89285578D01*
X125170000Y-88768422D02*
X125170000Y-89285578D01*
X123750000Y-92324422D02*
X123750000Y-92841578D01*
X125170000Y-92324422D02*
X125170000Y-92841578D01*
X125170000Y-99953578D02*
X125170000Y-99436422D01*
X123750000Y-99953578D02*
X123750000Y-99436422D01*
X125170000Y-96397578D02*
X125170000Y-95880422D01*
X123750000Y-96397578D02*
X123750000Y-95880422D01*
X125020000Y-64765422D02*
X125020000Y-65282578D01*
X126440000Y-64765422D02*
X126440000Y-65282578D01*
X125020000Y-68321422D02*
X125020000Y-68838578D01*
X126440000Y-68321422D02*
X126440000Y-68838578D01*
X148521922Y-86435000D02*
X149039078Y-86435000D01*
X148521922Y-85015000D02*
X149039078Y-85015000D01*
X145288000Y-83459000D02*
X147238000Y-83459000D01*
X145288000Y-83459000D02*
X143338000Y-83459000D01*
X145288000Y-78339000D02*
X147238000Y-78339000D01*
X145288000Y-78339000D02*
X141838000Y-78339000D01*
X129732000Y-65770000D02*
G75*
G03*
X130432000Y-65070000I0J700000D01*
G01*
X130432000Y-64470000D02*
G75*
G03*
X129732000Y-63770000I-700000J0D01*
G01*
X127632000Y-65070000D02*
G75*
G03*
X128332000Y-65770000I699999J-1D01*
G01*
X128332000Y-63770000D02*
G75*
G03*
X127632000Y-64470000I-1J-699999D01*
G01*
X130432000Y-64470000D02*
X130432000Y-65070000D01*
X129732000Y-65770000D02*
X128332000Y-65770000D01*
X128332000Y-63770000D02*
X129732000Y-63770000D01*
X127632000Y-65070000D02*
X127632000Y-64470000D01*
X129732000Y-69199000D02*
G75*
G03*
X130432000Y-68499000I0J700000D01*
G01*
X130432000Y-67899000D02*
G75*
G03*
X129732000Y-67199000I-700000J0D01*
G01*
X127632000Y-68499000D02*
G75*
G03*
X128332000Y-69199000I699999J-1D01*
G01*
X128332000Y-67199000D02*
G75*
G03*
X127632000Y-67899000I-1J-699999D01*
G01*
X130432000Y-67899000D02*
X130432000Y-68499000D01*
X129732000Y-69199000D02*
X128332000Y-69199000D01*
X128332000Y-67199000D02*
X129732000Y-67199000D01*
X127632000Y-68499000D02*
X127632000Y-67899000D01*
%LPC*%
D14*
X141986000Y-75057000D03*
X147066000Y-74041000D03*
X147066000Y-76073000D03*
D15*
X143256000Y-75692000D03*
X143256000Y-74422000D03*
X144526000Y-75692000D03*
X144526000Y-74422000D03*
X145796000Y-75692000D03*
X145796000Y-74422000D03*
D16*
X144018000Y-98854500D03*
X144018000Y-96979500D03*
X141478000Y-98854500D03*
X141478000Y-96979500D03*
X138938000Y-98854500D03*
X138938000Y-96979500D03*
X150114000Y-74612500D03*
X150114000Y-72737500D03*
X136398000Y-98854500D03*
X136398000Y-96979500D03*
X133858000Y-98854500D03*
X133858000Y-96979500D03*
X128778000Y-98854500D03*
X128778000Y-96979500D03*
D17*
X146557999Y-101218999D03*
X144017999Y-101218999D03*
X141477999Y-101218999D03*
X138937999Y-101218999D03*
X136397999Y-101218999D03*
X133857999Y-101218999D03*
X131317999Y-101218999D03*
D18*
X128778000Y-101219000D03*
D19*
X151638000Y-99822000D03*
D20*
X138762500Y-82169000D03*
X140637500Y-82169000D03*
D21*
X124635500Y-82423000D03*
X122760500Y-82423000D03*
D20*
X126316500Y-82423000D03*
X128191500Y-82423000D03*
D21*
X120952500Y-80899000D03*
X119077500Y-80899000D03*
X125651500Y-77089000D03*
X123776500Y-77089000D03*
X130350500Y-72390000D03*
X128475500Y-72390000D03*
X127048500Y-80391000D03*
X125173500Y-80391000D03*
D20*
X138762500Y-84201000D03*
X140637500Y-84201000D03*
D21*
X145082500Y-84836000D03*
X143207500Y-84836000D03*
D16*
X133223000Y-86662500D03*
X133223000Y-84787500D03*
X126492000Y-97076500D03*
X126492000Y-95201500D03*
D21*
X125651500Y-74168000D03*
X123776500Y-74168000D03*
D19*
X121158000Y-66167000D03*
D22*
X152180000Y-81280000D03*
X150080000Y-82230000D03*
X150080000Y-80330000D03*
D23*
X121031000Y-77415000D03*
X121031000Y-73715000D03*
D24*
X131820000Y-73041000D03*
X132620000Y-73041000D03*
X133420000Y-73041000D03*
X134220000Y-73041000D03*
X135020000Y-73041000D03*
X135820000Y-73041000D03*
X136620000Y-73041000D03*
X137420000Y-73041000D03*
D25*
X138795000Y-74416000D03*
X138795000Y-75216000D03*
X138795000Y-76016000D03*
X138795000Y-76816000D03*
X138795000Y-77616000D03*
X138795000Y-78416000D03*
X138795000Y-79216000D03*
X138795000Y-80016000D03*
D24*
X137420000Y-81391000D03*
X136620000Y-81391000D03*
X135820000Y-81391000D03*
X135020000Y-81391000D03*
X134220000Y-81391000D03*
X133420000Y-81391000D03*
X132620000Y-81391000D03*
X131820000Y-81391000D03*
D25*
X130445000Y-80016000D03*
X130445000Y-79216000D03*
X130445000Y-78416000D03*
X130445000Y-77616000D03*
X130445000Y-76816000D03*
X130445000Y-76016000D03*
X130445000Y-75216000D03*
X130445000Y-74416000D03*
D26*
X155575000Y-74316000D03*
X155575000Y-80116000D03*
D16*
X149034500Y-95616000D03*
X149034500Y-93741000D03*
X151130000Y-95616000D03*
X151130000Y-93741000D03*
D27*
X140716000Y-88724500D03*
X140716000Y-90599500D03*
D16*
X140716000Y-94282500D03*
X140716000Y-92407500D03*
D28*
X146439500Y-90614500D03*
X142739500Y-90614500D03*
D21*
X153591500Y-85725000D03*
X151716500Y-85725000D03*
D20*
X143207500Y-86868000D03*
X145082500Y-86868000D03*
D29*
X150706000Y-89664500D03*
X150706000Y-90614500D03*
X150706000Y-91564500D03*
X148506000Y-91564500D03*
X148506000Y-90614500D03*
X148506000Y-89664500D03*
D16*
X129540000Y-94028500D03*
X129540000Y-92153500D03*
D30*
X131978000Y-91313000D03*
D31*
X138278000Y-89013000D03*
X138278000Y-91313000D03*
X138278000Y-93613000D03*
D16*
X146558000Y-98854500D03*
X146558000Y-96979500D03*
D32*
X152209500Y-74549000D03*
D16*
X153225500Y-95616000D03*
X153225500Y-93741000D03*
D21*
X146147000Y-94043500D03*
X144272000Y-94043500D03*
D17*
X137921999Y-64769999D03*
X140461999Y-64769999D03*
X143001999Y-64769999D03*
X145541999Y-64769999D03*
X148081999Y-64769999D03*
X150621999Y-64769999D03*
X153161999Y-64769999D03*
D18*
X155702000Y-64770000D03*
D16*
X129540000Y-89964500D03*
X129540000Y-88089500D03*
D27*
X150114000Y-76278500D03*
X150114000Y-78153500D03*
D16*
X130810000Y-86027500D03*
X130810000Y-84152500D03*
D27*
X144907000Y-67642500D03*
X144907000Y-69517500D03*
D33*
X142494000Y-67580000D03*
X143144000Y-69580000D03*
X141844000Y-69580000D03*
D16*
X135382000Y-65961500D03*
X135382000Y-64086500D03*
X151765000Y-69517500D03*
X151765000Y-67642500D03*
X140081000Y-69517500D03*
X140081000Y-67642500D03*
D33*
X149352000Y-67580000D03*
X150002000Y-69580000D03*
X148702000Y-69580000D03*
D27*
X138049000Y-67642500D03*
X138049000Y-69517500D03*
D33*
X135636000Y-67580000D03*
X136286000Y-69580000D03*
X134986000Y-69580000D03*
D16*
X146939000Y-69517500D03*
X146939000Y-67642500D03*
D27*
X153797000Y-67642500D03*
X153797000Y-69517500D03*
D16*
X133223000Y-65913000D03*
X133223000Y-64038000D03*
D33*
X156210000Y-67580000D03*
X156860000Y-69580000D03*
X155560000Y-69580000D03*
D34*
X156225000Y-71882000D03*
D35*
X154925000Y-71882000D03*
D17*
X156209999Y-100710999D03*
X156209999Y-98170999D03*
X156209999Y-95630999D03*
X156209999Y-93090999D03*
X156209999Y-90550999D03*
X156209999Y-88010999D03*
X156209999Y-85470999D03*
D18*
X156210000Y-82931000D03*
D16*
X131318000Y-98854500D03*
X131318000Y-96979500D03*
D21*
X140637500Y-86487000D03*
X138762500Y-86487000D03*
D27*
X122428000Y-88089500D03*
X122428000Y-89964500D03*
D16*
X122428000Y-97076500D03*
X122428000Y-95201500D03*
X122428000Y-86408500D03*
X122428000Y-84533500D03*
X122428000Y-100632500D03*
X122428000Y-98757500D03*
D27*
X122428000Y-91645500D03*
X122428000Y-93520500D03*
D17*
X119760999Y-101218999D03*
X119760999Y-98678999D03*
X119760999Y-96138999D03*
X119760999Y-93598999D03*
X119760999Y-91058999D03*
X119760999Y-88518999D03*
X119760999Y-85978999D03*
D18*
X119761000Y-83439000D03*
D16*
X126492000Y-86408500D03*
X126492000Y-84533500D03*
D27*
X126492000Y-88089500D03*
X126492000Y-89964500D03*
X126492000Y-91645500D03*
X126492000Y-93520500D03*
X124460000Y-84533500D03*
X124460000Y-86408500D03*
D16*
X124460000Y-89964500D03*
X124460000Y-88089500D03*
X124460000Y-93520500D03*
X124460000Y-91645500D03*
D27*
X124460000Y-98757500D03*
X124460000Y-100632500D03*
X124460000Y-95201500D03*
X124460000Y-97076500D03*
D16*
X125730000Y-65961500D03*
X125730000Y-64086500D03*
X125730000Y-69517500D03*
X125730000Y-67642500D03*
D21*
X149718000Y-85725000D03*
X147843000Y-85725000D03*
D36*
X147763000Y-78994000D03*
X147763000Y-80264000D03*
X147763000Y-81534000D03*
X147763000Y-82804000D03*
X142813000Y-82804000D03*
X142813000Y-81534000D03*
X142813000Y-80264000D03*
X142813000Y-78994000D03*
D34*
X129682000Y-64770000D03*
D35*
X128382000Y-64770000D03*
D34*
X129682000Y-68199000D03*
D35*
X128382000Y-68199000D03*
M02*
