%TF.GenerationSoftware,KiCad,Pcbnew,(5.1.6)-1*%
%TF.CreationDate,2020-12-03T23:45:43-06:00*%
%TF.ProjectId,CANBoard,43414e42-6f61-4726-942e-6b696361645f,v1*%
%TF.SameCoordinates,Original*%
%TF.FileFunction,Copper,L2,Inr*%
%TF.FilePolarity,Positive*%
%FSLAX46Y46*%
G04 Gerber Fmt 4.6, Leading zero omitted, Abs format (unit mm)*
G04 Created by KiCad (PCBNEW (5.1.6)-1) date 2020-12-03 23:45:43*
%MOMM*%
%LPD*%
G01*
G04 APERTURE LIST*
%TA.AperFunction,ViaPad*%
%ADD10O,1.700000X1.700000*%
%TD*%
%TA.AperFunction,ViaPad*%
%ADD11C,1.700000*%
%TD*%
%TA.AperFunction,ViaPad*%
%ADD12C,5.600000*%
%TD*%
%TA.AperFunction,ViaPad*%
%ADD13C,0.600000*%
%TD*%
%TA.AperFunction,Conductor*%
%ADD14C,0.254000*%
%TD*%
G04 APERTURE END LIST*
D10*
X137922000Y-64770000D03*
X140462000Y-64770000D03*
X143002000Y-64770000D03*
X145542000Y-64770000D03*
X148082000Y-64770000D03*
X150622000Y-64770000D03*
X153162000Y-64770000D03*
D11*
X155702000Y-64770000D03*
D10*
X122491500Y-70358000D03*
D11*
X119951500Y-70358000D03*
D10*
X156210000Y-100711000D03*
X156210000Y-98171000D03*
X156210000Y-95631000D03*
X156210000Y-93091000D03*
X156210000Y-90551000D03*
X156210000Y-88011000D03*
X156210000Y-85471000D03*
D11*
X156210000Y-82931000D03*
D10*
X119761000Y-101219000D03*
X119761000Y-98679000D03*
X119761000Y-96139000D03*
X119761000Y-93599000D03*
X119761000Y-91059000D03*
X119761000Y-88519000D03*
X119761000Y-85979000D03*
D11*
X119761000Y-83439000D03*
D10*
X146558000Y-101219000D03*
X144018000Y-101219000D03*
X141478000Y-101219000D03*
X138938000Y-101219000D03*
X136398000Y-101219000D03*
X133858000Y-101219000D03*
X131318000Y-101219000D03*
D11*
X128778000Y-101219000D03*
D12*
X121158000Y-66167000D03*
X151638000Y-99822000D03*
D13*
X142748000Y-88963500D03*
X142748000Y-88328500D03*
X142748000Y-92265500D03*
X142748000Y-92900500D03*
X121031000Y-79324200D03*
X121564400Y-72009000D03*
X118770400Y-72110600D03*
X118694200Y-75438000D03*
X123571000Y-79273400D03*
X127203200Y-78562200D03*
X127304800Y-76885800D03*
X127279400Y-74752200D03*
X127203200Y-72694800D03*
X124739400Y-72593200D03*
X123952000Y-72072500D03*
X118770400Y-79222600D03*
X124256800Y-78663800D03*
X126238000Y-100711000D03*
X127635000Y-91059000D03*
X121539000Y-82677000D03*
X137160000Y-79883000D03*
X132080000Y-74676000D03*
X144526000Y-80264000D03*
X156210000Y-68580000D03*
X149352000Y-68580000D03*
X135636000Y-68580000D03*
X127254000Y-68707000D03*
X141986000Y-86487000D03*
X132267346Y-64961479D03*
X136525000Y-65024000D03*
X125349000Y-71564508D03*
X129006600Y-74752200D03*
X128524000Y-76885800D03*
X142494000Y-68580000D03*
X129032000Y-67437000D03*
X137185400Y-94945200D03*
X137820400Y-94945200D03*
X138455400Y-94945200D03*
X127635000Y-85725000D03*
X128397000Y-77851000D03*
X140462000Y-71755000D03*
X151511000Y-76200000D03*
X123825000Y-81026000D03*
X134366000Y-91313000D03*
X135001000Y-91313000D03*
X132969000Y-67437000D03*
X135636000Y-91313000D03*
X147828000Y-84074000D03*
X128016000Y-70612000D03*
X130556000Y-81915000D03*
X128066693Y-92760692D03*
X132588000Y-83439000D03*
X126492000Y-98679000D03*
X151384000Y-82296000D03*
X153670000Y-71882000D03*
X131572000Y-71437500D03*
X151511000Y-73406000D03*
X133350000Y-82931000D03*
X128778000Y-95631000D03*
X134239000Y-83439000D03*
X131318000Y-95631000D03*
X135001000Y-82931000D03*
X133858000Y-95631000D03*
X135763000Y-83439000D03*
X136398000Y-95631000D03*
X136652000Y-82931000D03*
X138938000Y-95631000D03*
X141478000Y-95631000D03*
X140588960Y-80670000D03*
X144018000Y-95631000D03*
X140590633Y-79669990D03*
X146558000Y-95631000D03*
X140546815Y-78670938D03*
X151955500Y-89662000D03*
X153543000Y-84582000D03*
X151955500Y-91567000D03*
X147447000Y-94043500D03*
D14*
G36*
X155413131Y-63508500D02*
G01*
X155906718Y-63657522D01*
X156361957Y-63899577D01*
X156761512Y-64225447D01*
X157090160Y-64622714D01*
X157335390Y-65076254D01*
X157487855Y-65568789D01*
X157544000Y-66102979D01*
X157544001Y-99877685D01*
X157491500Y-100413131D01*
X157439877Y-100584114D01*
X157393693Y-100351931D01*
X157300898Y-100127903D01*
X157166180Y-99926283D01*
X156994717Y-99754820D01*
X156793097Y-99620102D01*
X156569069Y-99527307D01*
X156331243Y-99480000D01*
X156088757Y-99480000D01*
X155850931Y-99527307D01*
X155626903Y-99620102D01*
X155425283Y-99754820D01*
X155253820Y-99926283D01*
X155119102Y-100127903D01*
X155026307Y-100351931D01*
X154979000Y-100589757D01*
X154979000Y-100832243D01*
X155026307Y-101070069D01*
X155119102Y-101294097D01*
X155253820Y-101495717D01*
X155425283Y-101667180D01*
X155626903Y-101801898D01*
X155850931Y-101894693D01*
X156088757Y-101942000D01*
X156331243Y-101942000D01*
X156569069Y-101894693D01*
X156658184Y-101857781D01*
X156377286Y-102090160D01*
X155923742Y-102335391D01*
X155431211Y-102487855D01*
X154897021Y-102544000D01*
X153289887Y-102544000D01*
X153665769Y-102292844D01*
X154108844Y-101849769D01*
X154456965Y-101328768D01*
X154696755Y-100749863D01*
X154819000Y-100135301D01*
X154819000Y-99508699D01*
X154696755Y-98894137D01*
X154456965Y-98315232D01*
X154279581Y-98049757D01*
X154979000Y-98049757D01*
X154979000Y-98292243D01*
X155026307Y-98530069D01*
X155119102Y-98754097D01*
X155253820Y-98955717D01*
X155425283Y-99127180D01*
X155626903Y-99261898D01*
X155850931Y-99354693D01*
X156088757Y-99402000D01*
X156331243Y-99402000D01*
X156569069Y-99354693D01*
X156793097Y-99261898D01*
X156994717Y-99127180D01*
X157166180Y-98955717D01*
X157300898Y-98754097D01*
X157393693Y-98530069D01*
X157441000Y-98292243D01*
X157441000Y-98049757D01*
X157393693Y-97811931D01*
X157300898Y-97587903D01*
X157166180Y-97386283D01*
X156994717Y-97214820D01*
X156793097Y-97080102D01*
X156569069Y-96987307D01*
X156331243Y-96940000D01*
X156088757Y-96940000D01*
X155850931Y-96987307D01*
X155626903Y-97080102D01*
X155425283Y-97214820D01*
X155253820Y-97386283D01*
X155119102Y-97587903D01*
X155026307Y-97811931D01*
X154979000Y-98049757D01*
X154279581Y-98049757D01*
X154108844Y-97794231D01*
X153665769Y-97351156D01*
X153144768Y-97003035D01*
X152565863Y-96763245D01*
X151951301Y-96641000D01*
X151324699Y-96641000D01*
X150710137Y-96763245D01*
X150131232Y-97003035D01*
X149610231Y-97351156D01*
X149167156Y-97794231D01*
X148819035Y-98315232D01*
X148579245Y-98894137D01*
X148457000Y-99508699D01*
X148457000Y-100135301D01*
X148579245Y-100749863D01*
X148819035Y-101328768D01*
X149167156Y-101849769D01*
X149610231Y-102292844D01*
X149986113Y-102544000D01*
X121122304Y-102544000D01*
X120586869Y-102491500D01*
X120192860Y-102372542D01*
X120344097Y-102309898D01*
X120545717Y-102175180D01*
X120717180Y-102003717D01*
X120851898Y-101802097D01*
X120944693Y-101578069D01*
X120992000Y-101340243D01*
X120992000Y-101097757D01*
X120944693Y-100859931D01*
X120855222Y-100643927D01*
X125557000Y-100643927D01*
X125557000Y-100778073D01*
X125583171Y-100909640D01*
X125634506Y-101033574D01*
X125709033Y-101145112D01*
X125803888Y-101239967D01*
X125915426Y-101314494D01*
X126039360Y-101365829D01*
X126170927Y-101392000D01*
X126305073Y-101392000D01*
X126436640Y-101365829D01*
X126560574Y-101314494D01*
X126672112Y-101239967D01*
X126766967Y-101145112D01*
X126798608Y-101097757D01*
X127547000Y-101097757D01*
X127547000Y-101340243D01*
X127594307Y-101578069D01*
X127687102Y-101802097D01*
X127821820Y-102003717D01*
X127993283Y-102175180D01*
X128194903Y-102309898D01*
X128418931Y-102402693D01*
X128656757Y-102450000D01*
X128899243Y-102450000D01*
X129137069Y-102402693D01*
X129361097Y-102309898D01*
X129562717Y-102175180D01*
X129734180Y-102003717D01*
X129868898Y-101802097D01*
X129961693Y-101578069D01*
X130009000Y-101340243D01*
X130009000Y-101097757D01*
X130087000Y-101097757D01*
X130087000Y-101340243D01*
X130134307Y-101578069D01*
X130227102Y-101802097D01*
X130361820Y-102003717D01*
X130533283Y-102175180D01*
X130734903Y-102309898D01*
X130958931Y-102402693D01*
X131196757Y-102450000D01*
X131439243Y-102450000D01*
X131677069Y-102402693D01*
X131901097Y-102309898D01*
X132102717Y-102175180D01*
X132274180Y-102003717D01*
X132408898Y-101802097D01*
X132501693Y-101578069D01*
X132549000Y-101340243D01*
X132549000Y-101097757D01*
X132627000Y-101097757D01*
X132627000Y-101340243D01*
X132674307Y-101578069D01*
X132767102Y-101802097D01*
X132901820Y-102003717D01*
X133073283Y-102175180D01*
X133274903Y-102309898D01*
X133498931Y-102402693D01*
X133736757Y-102450000D01*
X133979243Y-102450000D01*
X134217069Y-102402693D01*
X134441097Y-102309898D01*
X134642717Y-102175180D01*
X134814180Y-102003717D01*
X134948898Y-101802097D01*
X135041693Y-101578069D01*
X135089000Y-101340243D01*
X135089000Y-101097757D01*
X135167000Y-101097757D01*
X135167000Y-101340243D01*
X135214307Y-101578069D01*
X135307102Y-101802097D01*
X135441820Y-102003717D01*
X135613283Y-102175180D01*
X135814903Y-102309898D01*
X136038931Y-102402693D01*
X136276757Y-102450000D01*
X136519243Y-102450000D01*
X136757069Y-102402693D01*
X136981097Y-102309898D01*
X137182717Y-102175180D01*
X137354180Y-102003717D01*
X137488898Y-101802097D01*
X137581693Y-101578069D01*
X137629000Y-101340243D01*
X137629000Y-101097757D01*
X137707000Y-101097757D01*
X137707000Y-101340243D01*
X137754307Y-101578069D01*
X137847102Y-101802097D01*
X137981820Y-102003717D01*
X138153283Y-102175180D01*
X138354903Y-102309898D01*
X138578931Y-102402693D01*
X138816757Y-102450000D01*
X139059243Y-102450000D01*
X139297069Y-102402693D01*
X139521097Y-102309898D01*
X139722717Y-102175180D01*
X139894180Y-102003717D01*
X140028898Y-101802097D01*
X140121693Y-101578069D01*
X140169000Y-101340243D01*
X140169000Y-101097757D01*
X140247000Y-101097757D01*
X140247000Y-101340243D01*
X140294307Y-101578069D01*
X140387102Y-101802097D01*
X140521820Y-102003717D01*
X140693283Y-102175180D01*
X140894903Y-102309898D01*
X141118931Y-102402693D01*
X141356757Y-102450000D01*
X141599243Y-102450000D01*
X141837069Y-102402693D01*
X142061097Y-102309898D01*
X142262717Y-102175180D01*
X142434180Y-102003717D01*
X142568898Y-101802097D01*
X142661693Y-101578069D01*
X142709000Y-101340243D01*
X142709000Y-101097757D01*
X142787000Y-101097757D01*
X142787000Y-101340243D01*
X142834307Y-101578069D01*
X142927102Y-101802097D01*
X143061820Y-102003717D01*
X143233283Y-102175180D01*
X143434903Y-102309898D01*
X143658931Y-102402693D01*
X143896757Y-102450000D01*
X144139243Y-102450000D01*
X144377069Y-102402693D01*
X144601097Y-102309898D01*
X144802717Y-102175180D01*
X144974180Y-102003717D01*
X145108898Y-101802097D01*
X145201693Y-101578069D01*
X145249000Y-101340243D01*
X145249000Y-101097757D01*
X145327000Y-101097757D01*
X145327000Y-101340243D01*
X145374307Y-101578069D01*
X145467102Y-101802097D01*
X145601820Y-102003717D01*
X145773283Y-102175180D01*
X145974903Y-102309898D01*
X146198931Y-102402693D01*
X146436757Y-102450000D01*
X146679243Y-102450000D01*
X146917069Y-102402693D01*
X147141097Y-102309898D01*
X147342717Y-102175180D01*
X147514180Y-102003717D01*
X147648898Y-101802097D01*
X147741693Y-101578069D01*
X147789000Y-101340243D01*
X147789000Y-101097757D01*
X147741693Y-100859931D01*
X147648898Y-100635903D01*
X147514180Y-100434283D01*
X147342717Y-100262820D01*
X147141097Y-100128102D01*
X146917069Y-100035307D01*
X146679243Y-99988000D01*
X146436757Y-99988000D01*
X146198931Y-100035307D01*
X145974903Y-100128102D01*
X145773283Y-100262820D01*
X145601820Y-100434283D01*
X145467102Y-100635903D01*
X145374307Y-100859931D01*
X145327000Y-101097757D01*
X145249000Y-101097757D01*
X145201693Y-100859931D01*
X145108898Y-100635903D01*
X144974180Y-100434283D01*
X144802717Y-100262820D01*
X144601097Y-100128102D01*
X144377069Y-100035307D01*
X144139243Y-99988000D01*
X143896757Y-99988000D01*
X143658931Y-100035307D01*
X143434903Y-100128102D01*
X143233283Y-100262820D01*
X143061820Y-100434283D01*
X142927102Y-100635903D01*
X142834307Y-100859931D01*
X142787000Y-101097757D01*
X142709000Y-101097757D01*
X142661693Y-100859931D01*
X142568898Y-100635903D01*
X142434180Y-100434283D01*
X142262717Y-100262820D01*
X142061097Y-100128102D01*
X141837069Y-100035307D01*
X141599243Y-99988000D01*
X141356757Y-99988000D01*
X141118931Y-100035307D01*
X140894903Y-100128102D01*
X140693283Y-100262820D01*
X140521820Y-100434283D01*
X140387102Y-100635903D01*
X140294307Y-100859931D01*
X140247000Y-101097757D01*
X140169000Y-101097757D01*
X140121693Y-100859931D01*
X140028898Y-100635903D01*
X139894180Y-100434283D01*
X139722717Y-100262820D01*
X139521097Y-100128102D01*
X139297069Y-100035307D01*
X139059243Y-99988000D01*
X138816757Y-99988000D01*
X138578931Y-100035307D01*
X138354903Y-100128102D01*
X138153283Y-100262820D01*
X137981820Y-100434283D01*
X137847102Y-100635903D01*
X137754307Y-100859931D01*
X137707000Y-101097757D01*
X137629000Y-101097757D01*
X137581693Y-100859931D01*
X137488898Y-100635903D01*
X137354180Y-100434283D01*
X137182717Y-100262820D01*
X136981097Y-100128102D01*
X136757069Y-100035307D01*
X136519243Y-99988000D01*
X136276757Y-99988000D01*
X136038931Y-100035307D01*
X135814903Y-100128102D01*
X135613283Y-100262820D01*
X135441820Y-100434283D01*
X135307102Y-100635903D01*
X135214307Y-100859931D01*
X135167000Y-101097757D01*
X135089000Y-101097757D01*
X135041693Y-100859931D01*
X134948898Y-100635903D01*
X134814180Y-100434283D01*
X134642717Y-100262820D01*
X134441097Y-100128102D01*
X134217069Y-100035307D01*
X133979243Y-99988000D01*
X133736757Y-99988000D01*
X133498931Y-100035307D01*
X133274903Y-100128102D01*
X133073283Y-100262820D01*
X132901820Y-100434283D01*
X132767102Y-100635903D01*
X132674307Y-100859931D01*
X132627000Y-101097757D01*
X132549000Y-101097757D01*
X132501693Y-100859931D01*
X132408898Y-100635903D01*
X132274180Y-100434283D01*
X132102717Y-100262820D01*
X131901097Y-100128102D01*
X131677069Y-100035307D01*
X131439243Y-99988000D01*
X131196757Y-99988000D01*
X130958931Y-100035307D01*
X130734903Y-100128102D01*
X130533283Y-100262820D01*
X130361820Y-100434283D01*
X130227102Y-100635903D01*
X130134307Y-100859931D01*
X130087000Y-101097757D01*
X130009000Y-101097757D01*
X129961693Y-100859931D01*
X129868898Y-100635903D01*
X129734180Y-100434283D01*
X129562717Y-100262820D01*
X129361097Y-100128102D01*
X129137069Y-100035307D01*
X128899243Y-99988000D01*
X128656757Y-99988000D01*
X128418931Y-100035307D01*
X128194903Y-100128102D01*
X127993283Y-100262820D01*
X127821820Y-100434283D01*
X127687102Y-100635903D01*
X127594307Y-100859931D01*
X127547000Y-101097757D01*
X126798608Y-101097757D01*
X126841494Y-101033574D01*
X126892829Y-100909640D01*
X126919000Y-100778073D01*
X126919000Y-100643927D01*
X126892829Y-100512360D01*
X126841494Y-100388426D01*
X126766967Y-100276888D01*
X126672112Y-100182033D01*
X126560574Y-100107506D01*
X126436640Y-100056171D01*
X126305073Y-100030000D01*
X126170927Y-100030000D01*
X126039360Y-100056171D01*
X125915426Y-100107506D01*
X125803888Y-100182033D01*
X125709033Y-100276888D01*
X125634506Y-100388426D01*
X125583171Y-100512360D01*
X125557000Y-100643927D01*
X120855222Y-100643927D01*
X120851898Y-100635903D01*
X120717180Y-100434283D01*
X120545717Y-100262820D01*
X120344097Y-100128102D01*
X120120069Y-100035307D01*
X119882243Y-99988000D01*
X119639757Y-99988000D01*
X119401931Y-100035307D01*
X119177903Y-100128102D01*
X118976283Y-100262820D01*
X118804820Y-100434283D01*
X118670102Y-100635903D01*
X118615966Y-100766600D01*
X118512145Y-100431211D01*
X118456000Y-99897021D01*
X118456000Y-98611927D01*
X125811000Y-98611927D01*
X125811000Y-98746073D01*
X125837171Y-98877640D01*
X125888506Y-99001574D01*
X125963033Y-99113112D01*
X126057888Y-99207967D01*
X126169426Y-99282494D01*
X126293360Y-99333829D01*
X126424927Y-99360000D01*
X126559073Y-99360000D01*
X126690640Y-99333829D01*
X126814574Y-99282494D01*
X126926112Y-99207967D01*
X127020967Y-99113112D01*
X127095494Y-99001574D01*
X127146829Y-98877640D01*
X127173000Y-98746073D01*
X127173000Y-98611927D01*
X127146829Y-98480360D01*
X127095494Y-98356426D01*
X127020967Y-98244888D01*
X126926112Y-98150033D01*
X126814574Y-98075506D01*
X126690640Y-98024171D01*
X126559073Y-97998000D01*
X126424927Y-97998000D01*
X126293360Y-98024171D01*
X126169426Y-98075506D01*
X126057888Y-98150033D01*
X125963033Y-98244888D01*
X125888506Y-98356426D01*
X125837171Y-98480360D01*
X125811000Y-98611927D01*
X118456000Y-98611927D01*
X118456000Y-96017757D01*
X118530000Y-96017757D01*
X118530000Y-96260243D01*
X118577307Y-96498069D01*
X118670102Y-96722097D01*
X118804820Y-96923717D01*
X118976283Y-97095180D01*
X119177903Y-97229898D01*
X119401931Y-97322693D01*
X119639757Y-97370000D01*
X119882243Y-97370000D01*
X120120069Y-97322693D01*
X120344097Y-97229898D01*
X120545717Y-97095180D01*
X120717180Y-96923717D01*
X120851898Y-96722097D01*
X120944693Y-96498069D01*
X120992000Y-96260243D01*
X120992000Y-96017757D01*
X120944693Y-95779931D01*
X120855222Y-95563927D01*
X128097000Y-95563927D01*
X128097000Y-95698073D01*
X128123171Y-95829640D01*
X128174506Y-95953574D01*
X128249033Y-96065112D01*
X128343888Y-96159967D01*
X128455426Y-96234494D01*
X128579360Y-96285829D01*
X128710927Y-96312000D01*
X128845073Y-96312000D01*
X128976640Y-96285829D01*
X129100574Y-96234494D01*
X129212112Y-96159967D01*
X129306967Y-96065112D01*
X129381494Y-95953574D01*
X129432829Y-95829640D01*
X129459000Y-95698073D01*
X129459000Y-95563927D01*
X130637000Y-95563927D01*
X130637000Y-95698073D01*
X130663171Y-95829640D01*
X130714506Y-95953574D01*
X130789033Y-96065112D01*
X130883888Y-96159967D01*
X130995426Y-96234494D01*
X131119360Y-96285829D01*
X131250927Y-96312000D01*
X131385073Y-96312000D01*
X131516640Y-96285829D01*
X131640574Y-96234494D01*
X131752112Y-96159967D01*
X131846967Y-96065112D01*
X131921494Y-95953574D01*
X131972829Y-95829640D01*
X131999000Y-95698073D01*
X131999000Y-95563927D01*
X133177000Y-95563927D01*
X133177000Y-95698073D01*
X133203171Y-95829640D01*
X133254506Y-95953574D01*
X133329033Y-96065112D01*
X133423888Y-96159967D01*
X133535426Y-96234494D01*
X133659360Y-96285829D01*
X133790927Y-96312000D01*
X133925073Y-96312000D01*
X134056640Y-96285829D01*
X134180574Y-96234494D01*
X134292112Y-96159967D01*
X134386967Y-96065112D01*
X134461494Y-95953574D01*
X134512829Y-95829640D01*
X134539000Y-95698073D01*
X134539000Y-95563927D01*
X135717000Y-95563927D01*
X135717000Y-95698073D01*
X135743171Y-95829640D01*
X135794506Y-95953574D01*
X135869033Y-96065112D01*
X135963888Y-96159967D01*
X136075426Y-96234494D01*
X136199360Y-96285829D01*
X136330927Y-96312000D01*
X136465073Y-96312000D01*
X136596640Y-96285829D01*
X136720574Y-96234494D01*
X136832112Y-96159967D01*
X136926967Y-96065112D01*
X137001494Y-95953574D01*
X137052829Y-95829640D01*
X137079000Y-95698073D01*
X137079000Y-95618377D01*
X137118327Y-95626200D01*
X137252473Y-95626200D01*
X137384040Y-95600029D01*
X137502900Y-95550796D01*
X137621760Y-95600029D01*
X137753327Y-95626200D01*
X137887473Y-95626200D01*
X138019040Y-95600029D01*
X138137900Y-95550796D01*
X138256760Y-95600029D01*
X138257000Y-95600077D01*
X138257000Y-95698073D01*
X138283171Y-95829640D01*
X138334506Y-95953574D01*
X138409033Y-96065112D01*
X138503888Y-96159967D01*
X138615426Y-96234494D01*
X138739360Y-96285829D01*
X138870927Y-96312000D01*
X139005073Y-96312000D01*
X139136640Y-96285829D01*
X139260574Y-96234494D01*
X139372112Y-96159967D01*
X139466967Y-96065112D01*
X139541494Y-95953574D01*
X139592829Y-95829640D01*
X139619000Y-95698073D01*
X139619000Y-95563927D01*
X140797000Y-95563927D01*
X140797000Y-95698073D01*
X140823171Y-95829640D01*
X140874506Y-95953574D01*
X140949033Y-96065112D01*
X141043888Y-96159967D01*
X141155426Y-96234494D01*
X141279360Y-96285829D01*
X141410927Y-96312000D01*
X141545073Y-96312000D01*
X141676640Y-96285829D01*
X141800574Y-96234494D01*
X141912112Y-96159967D01*
X142006967Y-96065112D01*
X142081494Y-95953574D01*
X142132829Y-95829640D01*
X142159000Y-95698073D01*
X142159000Y-95563927D01*
X143337000Y-95563927D01*
X143337000Y-95698073D01*
X143363171Y-95829640D01*
X143414506Y-95953574D01*
X143489033Y-96065112D01*
X143583888Y-96159967D01*
X143695426Y-96234494D01*
X143819360Y-96285829D01*
X143950927Y-96312000D01*
X144085073Y-96312000D01*
X144216640Y-96285829D01*
X144340574Y-96234494D01*
X144452112Y-96159967D01*
X144546967Y-96065112D01*
X144621494Y-95953574D01*
X144672829Y-95829640D01*
X144699000Y-95698073D01*
X144699000Y-95563927D01*
X145877000Y-95563927D01*
X145877000Y-95698073D01*
X145903171Y-95829640D01*
X145954506Y-95953574D01*
X146029033Y-96065112D01*
X146123888Y-96159967D01*
X146235426Y-96234494D01*
X146359360Y-96285829D01*
X146490927Y-96312000D01*
X146625073Y-96312000D01*
X146756640Y-96285829D01*
X146880574Y-96234494D01*
X146992112Y-96159967D01*
X147086967Y-96065112D01*
X147161494Y-95953574D01*
X147212829Y-95829640D01*
X147239000Y-95698073D01*
X147239000Y-95563927D01*
X147228225Y-95509757D01*
X154979000Y-95509757D01*
X154979000Y-95752243D01*
X155026307Y-95990069D01*
X155119102Y-96214097D01*
X155253820Y-96415717D01*
X155425283Y-96587180D01*
X155626903Y-96721898D01*
X155850931Y-96814693D01*
X156088757Y-96862000D01*
X156331243Y-96862000D01*
X156569069Y-96814693D01*
X156793097Y-96721898D01*
X156994717Y-96587180D01*
X157166180Y-96415717D01*
X157300898Y-96214097D01*
X157393693Y-95990069D01*
X157441000Y-95752243D01*
X157441000Y-95509757D01*
X157393693Y-95271931D01*
X157300898Y-95047903D01*
X157166180Y-94846283D01*
X156994717Y-94674820D01*
X156793097Y-94540102D01*
X156569069Y-94447307D01*
X156331243Y-94400000D01*
X156088757Y-94400000D01*
X155850931Y-94447307D01*
X155626903Y-94540102D01*
X155425283Y-94674820D01*
X155253820Y-94846283D01*
X155119102Y-95047903D01*
X155026307Y-95271931D01*
X154979000Y-95509757D01*
X147228225Y-95509757D01*
X147212829Y-95432360D01*
X147161494Y-95308426D01*
X147086967Y-95196888D01*
X146992112Y-95102033D01*
X146880574Y-95027506D01*
X146756640Y-94976171D01*
X146625073Y-94950000D01*
X146490927Y-94950000D01*
X146359360Y-94976171D01*
X146235426Y-95027506D01*
X146123888Y-95102033D01*
X146029033Y-95196888D01*
X145954506Y-95308426D01*
X145903171Y-95432360D01*
X145877000Y-95563927D01*
X144699000Y-95563927D01*
X144672829Y-95432360D01*
X144621494Y-95308426D01*
X144546967Y-95196888D01*
X144452112Y-95102033D01*
X144340574Y-95027506D01*
X144216640Y-94976171D01*
X144085073Y-94950000D01*
X143950927Y-94950000D01*
X143819360Y-94976171D01*
X143695426Y-95027506D01*
X143583888Y-95102033D01*
X143489033Y-95196888D01*
X143414506Y-95308426D01*
X143363171Y-95432360D01*
X143337000Y-95563927D01*
X142159000Y-95563927D01*
X142132829Y-95432360D01*
X142081494Y-95308426D01*
X142006967Y-95196888D01*
X141912112Y-95102033D01*
X141800574Y-95027506D01*
X141676640Y-94976171D01*
X141545073Y-94950000D01*
X141410927Y-94950000D01*
X141279360Y-94976171D01*
X141155426Y-95027506D01*
X141043888Y-95102033D01*
X140949033Y-95196888D01*
X140874506Y-95308426D01*
X140823171Y-95432360D01*
X140797000Y-95563927D01*
X139619000Y-95563927D01*
X139592829Y-95432360D01*
X139541494Y-95308426D01*
X139466967Y-95196888D01*
X139372112Y-95102033D01*
X139260574Y-95027506D01*
X139136640Y-94976171D01*
X139136400Y-94976123D01*
X139136400Y-94878127D01*
X139110229Y-94746560D01*
X139058894Y-94622626D01*
X138984367Y-94511088D01*
X138889512Y-94416233D01*
X138777974Y-94341706D01*
X138654040Y-94290371D01*
X138522473Y-94264200D01*
X138388327Y-94264200D01*
X138256760Y-94290371D01*
X138137900Y-94339604D01*
X138019040Y-94290371D01*
X137887473Y-94264200D01*
X137753327Y-94264200D01*
X137621760Y-94290371D01*
X137502900Y-94339604D01*
X137384040Y-94290371D01*
X137252473Y-94264200D01*
X137118327Y-94264200D01*
X136986760Y-94290371D01*
X136862826Y-94341706D01*
X136751288Y-94416233D01*
X136656433Y-94511088D01*
X136581906Y-94622626D01*
X136530571Y-94746560D01*
X136504400Y-94878127D01*
X136504400Y-94957823D01*
X136465073Y-94950000D01*
X136330927Y-94950000D01*
X136199360Y-94976171D01*
X136075426Y-95027506D01*
X135963888Y-95102033D01*
X135869033Y-95196888D01*
X135794506Y-95308426D01*
X135743171Y-95432360D01*
X135717000Y-95563927D01*
X134539000Y-95563927D01*
X134512829Y-95432360D01*
X134461494Y-95308426D01*
X134386967Y-95196888D01*
X134292112Y-95102033D01*
X134180574Y-95027506D01*
X134056640Y-94976171D01*
X133925073Y-94950000D01*
X133790927Y-94950000D01*
X133659360Y-94976171D01*
X133535426Y-95027506D01*
X133423888Y-95102033D01*
X133329033Y-95196888D01*
X133254506Y-95308426D01*
X133203171Y-95432360D01*
X133177000Y-95563927D01*
X131999000Y-95563927D01*
X131972829Y-95432360D01*
X131921494Y-95308426D01*
X131846967Y-95196888D01*
X131752112Y-95102033D01*
X131640574Y-95027506D01*
X131516640Y-94976171D01*
X131385073Y-94950000D01*
X131250927Y-94950000D01*
X131119360Y-94976171D01*
X130995426Y-95027506D01*
X130883888Y-95102033D01*
X130789033Y-95196888D01*
X130714506Y-95308426D01*
X130663171Y-95432360D01*
X130637000Y-95563927D01*
X129459000Y-95563927D01*
X129432829Y-95432360D01*
X129381494Y-95308426D01*
X129306967Y-95196888D01*
X129212112Y-95102033D01*
X129100574Y-95027506D01*
X128976640Y-94976171D01*
X128845073Y-94950000D01*
X128710927Y-94950000D01*
X128579360Y-94976171D01*
X128455426Y-95027506D01*
X128343888Y-95102033D01*
X128249033Y-95196888D01*
X128174506Y-95308426D01*
X128123171Y-95432360D01*
X128097000Y-95563927D01*
X120855222Y-95563927D01*
X120851898Y-95555903D01*
X120717180Y-95354283D01*
X120545717Y-95182820D01*
X120344097Y-95048102D01*
X120120069Y-94955307D01*
X119882243Y-94908000D01*
X119639757Y-94908000D01*
X119401931Y-94955307D01*
X119177903Y-95048102D01*
X118976283Y-95182820D01*
X118804820Y-95354283D01*
X118670102Y-95555903D01*
X118577307Y-95779931D01*
X118530000Y-96017757D01*
X118456000Y-96017757D01*
X118456000Y-93976427D01*
X146766000Y-93976427D01*
X146766000Y-94110573D01*
X146792171Y-94242140D01*
X146843506Y-94366074D01*
X146918033Y-94477612D01*
X147012888Y-94572467D01*
X147124426Y-94646994D01*
X147248360Y-94698329D01*
X147379927Y-94724500D01*
X147514073Y-94724500D01*
X147645640Y-94698329D01*
X147769574Y-94646994D01*
X147881112Y-94572467D01*
X147975967Y-94477612D01*
X148050494Y-94366074D01*
X148101829Y-94242140D01*
X148128000Y-94110573D01*
X148128000Y-93976427D01*
X148101829Y-93844860D01*
X148050494Y-93720926D01*
X147975967Y-93609388D01*
X147881112Y-93514533D01*
X147769574Y-93440006D01*
X147645640Y-93388671D01*
X147514073Y-93362500D01*
X147379927Y-93362500D01*
X147248360Y-93388671D01*
X147124426Y-93440006D01*
X147012888Y-93514533D01*
X146918033Y-93609388D01*
X146843506Y-93720926D01*
X146792171Y-93844860D01*
X146766000Y-93976427D01*
X118456000Y-93976427D01*
X118456000Y-92693619D01*
X127385693Y-92693619D01*
X127385693Y-92827765D01*
X127411864Y-92959332D01*
X127463199Y-93083266D01*
X127537726Y-93194804D01*
X127632581Y-93289659D01*
X127744119Y-93364186D01*
X127868053Y-93415521D01*
X127999620Y-93441692D01*
X128133766Y-93441692D01*
X128265333Y-93415521D01*
X128389267Y-93364186D01*
X128500805Y-93289659D01*
X128595660Y-93194804D01*
X128670187Y-93083266D01*
X128717203Y-92969757D01*
X154979000Y-92969757D01*
X154979000Y-93212243D01*
X155026307Y-93450069D01*
X155119102Y-93674097D01*
X155253820Y-93875717D01*
X155425283Y-94047180D01*
X155626903Y-94181898D01*
X155850931Y-94274693D01*
X156088757Y-94322000D01*
X156331243Y-94322000D01*
X156569069Y-94274693D01*
X156793097Y-94181898D01*
X156994717Y-94047180D01*
X157166180Y-93875717D01*
X157300898Y-93674097D01*
X157393693Y-93450069D01*
X157441000Y-93212243D01*
X157441000Y-92969757D01*
X157393693Y-92731931D01*
X157300898Y-92507903D01*
X157166180Y-92306283D01*
X156994717Y-92134820D01*
X156793097Y-92000102D01*
X156569069Y-91907307D01*
X156331243Y-91860000D01*
X156088757Y-91860000D01*
X155850931Y-91907307D01*
X155626903Y-92000102D01*
X155425283Y-92134820D01*
X155253820Y-92306283D01*
X155119102Y-92507903D01*
X155026307Y-92731931D01*
X154979000Y-92969757D01*
X128717203Y-92969757D01*
X128721522Y-92959332D01*
X128747693Y-92827765D01*
X128747693Y-92693619D01*
X128721522Y-92562052D01*
X128670187Y-92438118D01*
X128595660Y-92326580D01*
X128500805Y-92231725D01*
X128389267Y-92157198D01*
X128265333Y-92105863D01*
X128133766Y-92079692D01*
X127999620Y-92079692D01*
X127868053Y-92105863D01*
X127744119Y-92157198D01*
X127632581Y-92231725D01*
X127537726Y-92326580D01*
X127463199Y-92438118D01*
X127411864Y-92562052D01*
X127385693Y-92693619D01*
X118456000Y-92693619D01*
X118456000Y-90937757D01*
X118530000Y-90937757D01*
X118530000Y-91180243D01*
X118577307Y-91418069D01*
X118670102Y-91642097D01*
X118804820Y-91843717D01*
X118976283Y-92015180D01*
X119177903Y-92149898D01*
X119401931Y-92242693D01*
X119639757Y-92290000D01*
X119882243Y-92290000D01*
X120120069Y-92242693D01*
X120344097Y-92149898D01*
X120545717Y-92015180D01*
X120717180Y-91843717D01*
X120851898Y-91642097D01*
X120944693Y-91418069D01*
X120992000Y-91180243D01*
X120992000Y-90991927D01*
X126954000Y-90991927D01*
X126954000Y-91126073D01*
X126980171Y-91257640D01*
X127031506Y-91381574D01*
X127106033Y-91493112D01*
X127200888Y-91587967D01*
X127312426Y-91662494D01*
X127436360Y-91713829D01*
X127567927Y-91740000D01*
X127702073Y-91740000D01*
X127833640Y-91713829D01*
X127957574Y-91662494D01*
X128069112Y-91587967D01*
X128163967Y-91493112D01*
X128238494Y-91381574D01*
X128289829Y-91257640D01*
X128292158Y-91245927D01*
X133685000Y-91245927D01*
X133685000Y-91380073D01*
X133711171Y-91511640D01*
X133762506Y-91635574D01*
X133837033Y-91747112D01*
X133931888Y-91841967D01*
X134043426Y-91916494D01*
X134167360Y-91967829D01*
X134298927Y-91994000D01*
X134433073Y-91994000D01*
X134564640Y-91967829D01*
X134683500Y-91918596D01*
X134802360Y-91967829D01*
X134933927Y-91994000D01*
X135068073Y-91994000D01*
X135199640Y-91967829D01*
X135318500Y-91918596D01*
X135437360Y-91967829D01*
X135568927Y-91994000D01*
X135703073Y-91994000D01*
X135834640Y-91967829D01*
X135958574Y-91916494D01*
X136070112Y-91841967D01*
X136164967Y-91747112D01*
X136239494Y-91635574D01*
X136290829Y-91511640D01*
X136293158Y-91499927D01*
X151274500Y-91499927D01*
X151274500Y-91634073D01*
X151300671Y-91765640D01*
X151352006Y-91889574D01*
X151426533Y-92001112D01*
X151521388Y-92095967D01*
X151632926Y-92170494D01*
X151756860Y-92221829D01*
X151888427Y-92248000D01*
X152022573Y-92248000D01*
X152154140Y-92221829D01*
X152278074Y-92170494D01*
X152389612Y-92095967D01*
X152484467Y-92001112D01*
X152558994Y-91889574D01*
X152610329Y-91765640D01*
X152636500Y-91634073D01*
X152636500Y-91499927D01*
X152610329Y-91368360D01*
X152558994Y-91244426D01*
X152484467Y-91132888D01*
X152389612Y-91038033D01*
X152278074Y-90963506D01*
X152154140Y-90912171D01*
X152022573Y-90886000D01*
X151888427Y-90886000D01*
X151756860Y-90912171D01*
X151632926Y-90963506D01*
X151521388Y-91038033D01*
X151426533Y-91132888D01*
X151352006Y-91244426D01*
X151300671Y-91368360D01*
X151274500Y-91499927D01*
X136293158Y-91499927D01*
X136317000Y-91380073D01*
X136317000Y-91245927D01*
X136290829Y-91114360D01*
X136239494Y-90990426D01*
X136164967Y-90878888D01*
X136070112Y-90784033D01*
X135958574Y-90709506D01*
X135834640Y-90658171D01*
X135703073Y-90632000D01*
X135568927Y-90632000D01*
X135437360Y-90658171D01*
X135318500Y-90707404D01*
X135199640Y-90658171D01*
X135068073Y-90632000D01*
X134933927Y-90632000D01*
X134802360Y-90658171D01*
X134683500Y-90707404D01*
X134564640Y-90658171D01*
X134433073Y-90632000D01*
X134298927Y-90632000D01*
X134167360Y-90658171D01*
X134043426Y-90709506D01*
X133931888Y-90784033D01*
X133837033Y-90878888D01*
X133762506Y-90990426D01*
X133711171Y-91114360D01*
X133685000Y-91245927D01*
X128292158Y-91245927D01*
X128316000Y-91126073D01*
X128316000Y-90991927D01*
X128289829Y-90860360D01*
X128238494Y-90736426D01*
X128163967Y-90624888D01*
X128069112Y-90530033D01*
X127957574Y-90455506D01*
X127895411Y-90429757D01*
X154979000Y-90429757D01*
X154979000Y-90672243D01*
X155026307Y-90910069D01*
X155119102Y-91134097D01*
X155253820Y-91335717D01*
X155425283Y-91507180D01*
X155626903Y-91641898D01*
X155850931Y-91734693D01*
X156088757Y-91782000D01*
X156331243Y-91782000D01*
X156569069Y-91734693D01*
X156793097Y-91641898D01*
X156994717Y-91507180D01*
X157166180Y-91335717D01*
X157300898Y-91134097D01*
X157393693Y-90910069D01*
X157441000Y-90672243D01*
X157441000Y-90429757D01*
X157393693Y-90191931D01*
X157300898Y-89967903D01*
X157166180Y-89766283D01*
X156994717Y-89594820D01*
X156793097Y-89460102D01*
X156569069Y-89367307D01*
X156331243Y-89320000D01*
X156088757Y-89320000D01*
X155850931Y-89367307D01*
X155626903Y-89460102D01*
X155425283Y-89594820D01*
X155253820Y-89766283D01*
X155119102Y-89967903D01*
X155026307Y-90191931D01*
X154979000Y-90429757D01*
X127895411Y-90429757D01*
X127833640Y-90404171D01*
X127702073Y-90378000D01*
X127567927Y-90378000D01*
X127436360Y-90404171D01*
X127312426Y-90455506D01*
X127200888Y-90530033D01*
X127106033Y-90624888D01*
X127031506Y-90736426D01*
X126980171Y-90860360D01*
X126954000Y-90991927D01*
X120992000Y-90991927D01*
X120992000Y-90937757D01*
X120944693Y-90699931D01*
X120851898Y-90475903D01*
X120717180Y-90274283D01*
X120545717Y-90102820D01*
X120344097Y-89968102D01*
X120120069Y-89875307D01*
X119882243Y-89828000D01*
X119639757Y-89828000D01*
X119401931Y-89875307D01*
X119177903Y-89968102D01*
X118976283Y-90102820D01*
X118804820Y-90274283D01*
X118670102Y-90475903D01*
X118577307Y-90699931D01*
X118530000Y-90937757D01*
X118456000Y-90937757D01*
X118456000Y-88397757D01*
X118530000Y-88397757D01*
X118530000Y-88640243D01*
X118577307Y-88878069D01*
X118670102Y-89102097D01*
X118804820Y-89303717D01*
X118976283Y-89475180D01*
X119177903Y-89609898D01*
X119401931Y-89702693D01*
X119639757Y-89750000D01*
X119882243Y-89750000D01*
X120120069Y-89702693D01*
X120344097Y-89609898D01*
X120366502Y-89594927D01*
X151274500Y-89594927D01*
X151274500Y-89729073D01*
X151300671Y-89860640D01*
X151352006Y-89984574D01*
X151426533Y-90096112D01*
X151521388Y-90190967D01*
X151632926Y-90265494D01*
X151756860Y-90316829D01*
X151888427Y-90343000D01*
X152022573Y-90343000D01*
X152154140Y-90316829D01*
X152278074Y-90265494D01*
X152389612Y-90190967D01*
X152484467Y-90096112D01*
X152558994Y-89984574D01*
X152610329Y-89860640D01*
X152636500Y-89729073D01*
X152636500Y-89594927D01*
X152610329Y-89463360D01*
X152558994Y-89339426D01*
X152484467Y-89227888D01*
X152389612Y-89133033D01*
X152278074Y-89058506D01*
X152154140Y-89007171D01*
X152022573Y-88981000D01*
X151888427Y-88981000D01*
X151756860Y-89007171D01*
X151632926Y-89058506D01*
X151521388Y-89133033D01*
X151426533Y-89227888D01*
X151352006Y-89339426D01*
X151300671Y-89463360D01*
X151274500Y-89594927D01*
X120366502Y-89594927D01*
X120545717Y-89475180D01*
X120717180Y-89303717D01*
X120851898Y-89102097D01*
X120944693Y-88878069D01*
X120992000Y-88640243D01*
X120992000Y-88397757D01*
X120944693Y-88159931D01*
X120851898Y-87935903D01*
X120821065Y-87889757D01*
X154979000Y-87889757D01*
X154979000Y-88132243D01*
X155026307Y-88370069D01*
X155119102Y-88594097D01*
X155253820Y-88795717D01*
X155425283Y-88967180D01*
X155626903Y-89101898D01*
X155850931Y-89194693D01*
X156088757Y-89242000D01*
X156331243Y-89242000D01*
X156569069Y-89194693D01*
X156793097Y-89101898D01*
X156994717Y-88967180D01*
X157166180Y-88795717D01*
X157300898Y-88594097D01*
X157393693Y-88370069D01*
X157441000Y-88132243D01*
X157441000Y-87889757D01*
X157393693Y-87651931D01*
X157300898Y-87427903D01*
X157166180Y-87226283D01*
X156994717Y-87054820D01*
X156793097Y-86920102D01*
X156569069Y-86827307D01*
X156331243Y-86780000D01*
X156088757Y-86780000D01*
X155850931Y-86827307D01*
X155626903Y-86920102D01*
X155425283Y-87054820D01*
X155253820Y-87226283D01*
X155119102Y-87427903D01*
X155026307Y-87651931D01*
X154979000Y-87889757D01*
X120821065Y-87889757D01*
X120717180Y-87734283D01*
X120545717Y-87562820D01*
X120344097Y-87428102D01*
X120120069Y-87335307D01*
X119882243Y-87288000D01*
X119639757Y-87288000D01*
X119401931Y-87335307D01*
X119177903Y-87428102D01*
X118976283Y-87562820D01*
X118804820Y-87734283D01*
X118670102Y-87935903D01*
X118577307Y-88159931D01*
X118530000Y-88397757D01*
X118456000Y-88397757D01*
X118456000Y-85857757D01*
X118530000Y-85857757D01*
X118530000Y-86100243D01*
X118577307Y-86338069D01*
X118670102Y-86562097D01*
X118804820Y-86763717D01*
X118976283Y-86935180D01*
X119177903Y-87069898D01*
X119401931Y-87162693D01*
X119639757Y-87210000D01*
X119882243Y-87210000D01*
X120120069Y-87162693D01*
X120344097Y-87069898D01*
X120545717Y-86935180D01*
X120717180Y-86763717D01*
X120851898Y-86562097D01*
X120910786Y-86419927D01*
X141305000Y-86419927D01*
X141305000Y-86554073D01*
X141331171Y-86685640D01*
X141382506Y-86809574D01*
X141457033Y-86921112D01*
X141551888Y-87015967D01*
X141663426Y-87090494D01*
X141787360Y-87141829D01*
X141918927Y-87168000D01*
X142053073Y-87168000D01*
X142184640Y-87141829D01*
X142308574Y-87090494D01*
X142420112Y-87015967D01*
X142514967Y-86921112D01*
X142589494Y-86809574D01*
X142640829Y-86685640D01*
X142667000Y-86554073D01*
X142667000Y-86419927D01*
X142640829Y-86288360D01*
X142589494Y-86164426D01*
X142514967Y-86052888D01*
X142420112Y-85958033D01*
X142308574Y-85883506D01*
X142184640Y-85832171D01*
X142053073Y-85806000D01*
X141918927Y-85806000D01*
X141787360Y-85832171D01*
X141663426Y-85883506D01*
X141551888Y-85958033D01*
X141457033Y-86052888D01*
X141382506Y-86164426D01*
X141331171Y-86288360D01*
X141305000Y-86419927D01*
X120910786Y-86419927D01*
X120944693Y-86338069D01*
X120992000Y-86100243D01*
X120992000Y-85857757D01*
X120952251Y-85657927D01*
X126954000Y-85657927D01*
X126954000Y-85792073D01*
X126980171Y-85923640D01*
X127031506Y-86047574D01*
X127106033Y-86159112D01*
X127200888Y-86253967D01*
X127312426Y-86328494D01*
X127436360Y-86379829D01*
X127567927Y-86406000D01*
X127702073Y-86406000D01*
X127833640Y-86379829D01*
X127957574Y-86328494D01*
X128069112Y-86253967D01*
X128163967Y-86159112D01*
X128238494Y-86047574D01*
X128289829Y-85923640D01*
X128316000Y-85792073D01*
X128316000Y-85657927D01*
X128289829Y-85526360D01*
X128238494Y-85402426D01*
X128203302Y-85349757D01*
X154979000Y-85349757D01*
X154979000Y-85592243D01*
X155026307Y-85830069D01*
X155119102Y-86054097D01*
X155253820Y-86255717D01*
X155425283Y-86427180D01*
X155626903Y-86561898D01*
X155850931Y-86654693D01*
X156088757Y-86702000D01*
X156331243Y-86702000D01*
X156569069Y-86654693D01*
X156793097Y-86561898D01*
X156994717Y-86427180D01*
X157166180Y-86255717D01*
X157300898Y-86054097D01*
X157393693Y-85830069D01*
X157441000Y-85592243D01*
X157441000Y-85349757D01*
X157393693Y-85111931D01*
X157300898Y-84887903D01*
X157166180Y-84686283D01*
X156994717Y-84514820D01*
X156793097Y-84380102D01*
X156569069Y-84287307D01*
X156331243Y-84240000D01*
X156088757Y-84240000D01*
X155850931Y-84287307D01*
X155626903Y-84380102D01*
X155425283Y-84514820D01*
X155253820Y-84686283D01*
X155119102Y-84887903D01*
X155026307Y-85111931D01*
X154979000Y-85349757D01*
X128203302Y-85349757D01*
X128163967Y-85290888D01*
X128069112Y-85196033D01*
X127957574Y-85121506D01*
X127833640Y-85070171D01*
X127702073Y-85044000D01*
X127567927Y-85044000D01*
X127436360Y-85070171D01*
X127312426Y-85121506D01*
X127200888Y-85196033D01*
X127106033Y-85290888D01*
X127031506Y-85402426D01*
X126980171Y-85526360D01*
X126954000Y-85657927D01*
X120952251Y-85657927D01*
X120944693Y-85619931D01*
X120851898Y-85395903D01*
X120717180Y-85194283D01*
X120545717Y-85022820D01*
X120344097Y-84888102D01*
X120120069Y-84795307D01*
X119882243Y-84748000D01*
X119639757Y-84748000D01*
X119401931Y-84795307D01*
X119177903Y-84888102D01*
X118976283Y-85022820D01*
X118804820Y-85194283D01*
X118670102Y-85395903D01*
X118577307Y-85619931D01*
X118530000Y-85857757D01*
X118456000Y-85857757D01*
X118456000Y-83371927D01*
X131907000Y-83371927D01*
X131907000Y-83506073D01*
X131933171Y-83637640D01*
X131984506Y-83761574D01*
X132059033Y-83873112D01*
X132153888Y-83967967D01*
X132265426Y-84042494D01*
X132389360Y-84093829D01*
X132520927Y-84120000D01*
X132655073Y-84120000D01*
X132786640Y-84093829D01*
X132910574Y-84042494D01*
X133022112Y-83967967D01*
X133116967Y-83873112D01*
X133191494Y-83761574D01*
X133242829Y-83637640D01*
X133249261Y-83605303D01*
X133282927Y-83612000D01*
X133417073Y-83612000D01*
X133548640Y-83585829D01*
X133571945Y-83576176D01*
X133584171Y-83637640D01*
X133635506Y-83761574D01*
X133710033Y-83873112D01*
X133804888Y-83967967D01*
X133916426Y-84042494D01*
X134040360Y-84093829D01*
X134171927Y-84120000D01*
X134306073Y-84120000D01*
X134437640Y-84093829D01*
X134561574Y-84042494D01*
X134673112Y-83967967D01*
X134767967Y-83873112D01*
X134842494Y-83761574D01*
X134893829Y-83637640D01*
X134900261Y-83605303D01*
X134933927Y-83612000D01*
X135068073Y-83612000D01*
X135101739Y-83605303D01*
X135108171Y-83637640D01*
X135159506Y-83761574D01*
X135234033Y-83873112D01*
X135328888Y-83967967D01*
X135440426Y-84042494D01*
X135564360Y-84093829D01*
X135695927Y-84120000D01*
X135830073Y-84120000D01*
X135961640Y-84093829D01*
X136085574Y-84042494D01*
X136138803Y-84006927D01*
X147147000Y-84006927D01*
X147147000Y-84141073D01*
X147173171Y-84272640D01*
X147224506Y-84396574D01*
X147299033Y-84508112D01*
X147393888Y-84602967D01*
X147505426Y-84677494D01*
X147629360Y-84728829D01*
X147760927Y-84755000D01*
X147895073Y-84755000D01*
X148026640Y-84728829D01*
X148150574Y-84677494D01*
X148262112Y-84602967D01*
X148350152Y-84514927D01*
X152862000Y-84514927D01*
X152862000Y-84649073D01*
X152888171Y-84780640D01*
X152939506Y-84904574D01*
X153014033Y-85016112D01*
X153108888Y-85110967D01*
X153220426Y-85185494D01*
X153344360Y-85236829D01*
X153475927Y-85263000D01*
X153610073Y-85263000D01*
X153741640Y-85236829D01*
X153865574Y-85185494D01*
X153977112Y-85110967D01*
X154071967Y-85016112D01*
X154146494Y-84904574D01*
X154197829Y-84780640D01*
X154224000Y-84649073D01*
X154224000Y-84514927D01*
X154197829Y-84383360D01*
X154146494Y-84259426D01*
X154071967Y-84147888D01*
X153977112Y-84053033D01*
X153865574Y-83978506D01*
X153741640Y-83927171D01*
X153610073Y-83901000D01*
X153475927Y-83901000D01*
X153344360Y-83927171D01*
X153220426Y-83978506D01*
X153108888Y-84053033D01*
X153014033Y-84147888D01*
X152939506Y-84259426D01*
X152888171Y-84383360D01*
X152862000Y-84514927D01*
X148350152Y-84514927D01*
X148356967Y-84508112D01*
X148431494Y-84396574D01*
X148482829Y-84272640D01*
X148509000Y-84141073D01*
X148509000Y-84006927D01*
X148482829Y-83875360D01*
X148431494Y-83751426D01*
X148356967Y-83639888D01*
X148262112Y-83545033D01*
X148150574Y-83470506D01*
X148026640Y-83419171D01*
X147895073Y-83393000D01*
X147760927Y-83393000D01*
X147629360Y-83419171D01*
X147505426Y-83470506D01*
X147393888Y-83545033D01*
X147299033Y-83639888D01*
X147224506Y-83751426D01*
X147173171Y-83875360D01*
X147147000Y-84006927D01*
X136138803Y-84006927D01*
X136197112Y-83967967D01*
X136291967Y-83873112D01*
X136366494Y-83761574D01*
X136417829Y-83637640D01*
X136430055Y-83576176D01*
X136453360Y-83585829D01*
X136584927Y-83612000D01*
X136719073Y-83612000D01*
X136850640Y-83585829D01*
X136974574Y-83534494D01*
X137086112Y-83459967D01*
X137180967Y-83365112D01*
X137255494Y-83253574D01*
X137306829Y-83129640D01*
X137333000Y-82998073D01*
X137333000Y-82863927D01*
X137306829Y-82732360D01*
X137255494Y-82608426D01*
X137180967Y-82496888D01*
X137086112Y-82402033D01*
X136974574Y-82327506D01*
X136850640Y-82276171D01*
X136719073Y-82250000D01*
X136584927Y-82250000D01*
X136453360Y-82276171D01*
X136329426Y-82327506D01*
X136217888Y-82402033D01*
X136123033Y-82496888D01*
X136048506Y-82608426D01*
X135997171Y-82732360D01*
X135984945Y-82793824D01*
X135961640Y-82784171D01*
X135830073Y-82758000D01*
X135695927Y-82758000D01*
X135662261Y-82764697D01*
X135655829Y-82732360D01*
X135604494Y-82608426D01*
X135529967Y-82496888D01*
X135435112Y-82402033D01*
X135323574Y-82327506D01*
X135199640Y-82276171D01*
X135068073Y-82250000D01*
X134933927Y-82250000D01*
X134802360Y-82276171D01*
X134678426Y-82327506D01*
X134566888Y-82402033D01*
X134472033Y-82496888D01*
X134397506Y-82608426D01*
X134346171Y-82732360D01*
X134339739Y-82764697D01*
X134306073Y-82758000D01*
X134171927Y-82758000D01*
X134040360Y-82784171D01*
X134017055Y-82793824D01*
X134004829Y-82732360D01*
X133953494Y-82608426D01*
X133878967Y-82496888D01*
X133784112Y-82402033D01*
X133672574Y-82327506D01*
X133548640Y-82276171D01*
X133417073Y-82250000D01*
X133282927Y-82250000D01*
X133151360Y-82276171D01*
X133027426Y-82327506D01*
X132915888Y-82402033D01*
X132821033Y-82496888D01*
X132746506Y-82608426D01*
X132695171Y-82732360D01*
X132688739Y-82764697D01*
X132655073Y-82758000D01*
X132520927Y-82758000D01*
X132389360Y-82784171D01*
X132265426Y-82835506D01*
X132153888Y-82910033D01*
X132059033Y-83004888D01*
X131984506Y-83116426D01*
X131933171Y-83240360D01*
X131907000Y-83371927D01*
X118456000Y-83371927D01*
X118456000Y-82609927D01*
X120858000Y-82609927D01*
X120858000Y-82744073D01*
X120884171Y-82875640D01*
X120935506Y-82999574D01*
X121010033Y-83111112D01*
X121104888Y-83205967D01*
X121216426Y-83280494D01*
X121340360Y-83331829D01*
X121471927Y-83358000D01*
X121606073Y-83358000D01*
X121737640Y-83331829D01*
X121861574Y-83280494D01*
X121973112Y-83205967D01*
X122067967Y-83111112D01*
X122142494Y-82999574D01*
X122193829Y-82875640D01*
X122220000Y-82744073D01*
X122220000Y-82609927D01*
X122193829Y-82478360D01*
X122142494Y-82354426D01*
X122067967Y-82242888D01*
X121973112Y-82148033D01*
X121861574Y-82073506D01*
X121737640Y-82022171D01*
X121606073Y-81996000D01*
X121471927Y-81996000D01*
X121340360Y-82022171D01*
X121216426Y-82073506D01*
X121104888Y-82148033D01*
X121010033Y-82242888D01*
X120935506Y-82354426D01*
X120884171Y-82478360D01*
X120858000Y-82609927D01*
X118456000Y-82609927D01*
X118456000Y-81847927D01*
X129875000Y-81847927D01*
X129875000Y-81982073D01*
X129901171Y-82113640D01*
X129952506Y-82237574D01*
X130027033Y-82349112D01*
X130121888Y-82443967D01*
X130233426Y-82518494D01*
X130357360Y-82569829D01*
X130488927Y-82596000D01*
X130623073Y-82596000D01*
X130754640Y-82569829D01*
X130878574Y-82518494D01*
X130990112Y-82443967D01*
X131084967Y-82349112D01*
X131159494Y-82237574D01*
X131163075Y-82228927D01*
X150703000Y-82228927D01*
X150703000Y-82363073D01*
X150729171Y-82494640D01*
X150780506Y-82618574D01*
X150855033Y-82730112D01*
X150949888Y-82824967D01*
X151061426Y-82899494D01*
X151185360Y-82950829D01*
X151316927Y-82977000D01*
X151451073Y-82977000D01*
X151582640Y-82950829D01*
X151706574Y-82899494D01*
X151818112Y-82824967D01*
X151833322Y-82809757D01*
X154979000Y-82809757D01*
X154979000Y-83052243D01*
X155026307Y-83290069D01*
X155119102Y-83514097D01*
X155253820Y-83715717D01*
X155425283Y-83887180D01*
X155626903Y-84021898D01*
X155850931Y-84114693D01*
X156088757Y-84162000D01*
X156331243Y-84162000D01*
X156569069Y-84114693D01*
X156793097Y-84021898D01*
X156994717Y-83887180D01*
X157166180Y-83715717D01*
X157300898Y-83514097D01*
X157393693Y-83290069D01*
X157441000Y-83052243D01*
X157441000Y-82809757D01*
X157393693Y-82571931D01*
X157300898Y-82347903D01*
X157166180Y-82146283D01*
X156994717Y-81974820D01*
X156793097Y-81840102D01*
X156569069Y-81747307D01*
X156331243Y-81700000D01*
X156088757Y-81700000D01*
X155850931Y-81747307D01*
X155626903Y-81840102D01*
X155425283Y-81974820D01*
X155253820Y-82146283D01*
X155119102Y-82347903D01*
X155026307Y-82571931D01*
X154979000Y-82809757D01*
X151833322Y-82809757D01*
X151912967Y-82730112D01*
X151987494Y-82618574D01*
X152038829Y-82494640D01*
X152065000Y-82363073D01*
X152065000Y-82228927D01*
X152038829Y-82097360D01*
X151987494Y-81973426D01*
X151912967Y-81861888D01*
X151818112Y-81767033D01*
X151706574Y-81692506D01*
X151582640Y-81641171D01*
X151451073Y-81615000D01*
X151316927Y-81615000D01*
X151185360Y-81641171D01*
X151061426Y-81692506D01*
X150949888Y-81767033D01*
X150855033Y-81861888D01*
X150780506Y-81973426D01*
X150729171Y-82097360D01*
X150703000Y-82228927D01*
X131163075Y-82228927D01*
X131210829Y-82113640D01*
X131237000Y-81982073D01*
X131237000Y-81847927D01*
X131210829Y-81716360D01*
X131159494Y-81592426D01*
X131084967Y-81480888D01*
X130990112Y-81386033D01*
X130878574Y-81311506D01*
X130754640Y-81260171D01*
X130623073Y-81234000D01*
X130488927Y-81234000D01*
X130357360Y-81260171D01*
X130233426Y-81311506D01*
X130121888Y-81386033D01*
X130027033Y-81480888D01*
X129952506Y-81592426D01*
X129901171Y-81716360D01*
X129875000Y-81847927D01*
X118456000Y-81847927D01*
X118456000Y-80958927D01*
X123144000Y-80958927D01*
X123144000Y-81093073D01*
X123170171Y-81224640D01*
X123221506Y-81348574D01*
X123296033Y-81460112D01*
X123390888Y-81554967D01*
X123502426Y-81629494D01*
X123626360Y-81680829D01*
X123757927Y-81707000D01*
X123892073Y-81707000D01*
X124023640Y-81680829D01*
X124147574Y-81629494D01*
X124259112Y-81554967D01*
X124353967Y-81460112D01*
X124428494Y-81348574D01*
X124479829Y-81224640D01*
X124506000Y-81093073D01*
X124506000Y-80958927D01*
X124479829Y-80827360D01*
X124428494Y-80703426D01*
X124353967Y-80591888D01*
X124259112Y-80497033D01*
X124147574Y-80422506D01*
X124023640Y-80371171D01*
X123892073Y-80345000D01*
X123757927Y-80345000D01*
X123626360Y-80371171D01*
X123502426Y-80422506D01*
X123390888Y-80497033D01*
X123296033Y-80591888D01*
X123221506Y-80703426D01*
X123170171Y-80827360D01*
X123144000Y-80958927D01*
X118456000Y-80958927D01*
X118456000Y-80010000D01*
X123571000Y-80010000D01*
X123595776Y-80007560D01*
X123619601Y-80000333D01*
X123641557Y-79988597D01*
X123660803Y-79972803D01*
X123689420Y-79944186D01*
X123769640Y-79928229D01*
X123893574Y-79876894D01*
X124005112Y-79802367D01*
X124099967Y-79707512D01*
X124174494Y-79595974D01*
X124225829Y-79472040D01*
X124241786Y-79391820D01*
X124288806Y-79344800D01*
X124323873Y-79344800D01*
X124455440Y-79318629D01*
X124579374Y-79267294D01*
X124690912Y-79192767D01*
X124762679Y-79121000D01*
X126813736Y-79121000D01*
X126880626Y-79165694D01*
X127004560Y-79217029D01*
X127136127Y-79243200D01*
X127270273Y-79243200D01*
X127401840Y-79217029D01*
X127525774Y-79165694D01*
X127592664Y-79121000D01*
X129413000Y-79121000D01*
X129437776Y-79118560D01*
X129461601Y-79111333D01*
X129483557Y-79099597D01*
X129502803Y-79083803D01*
X129518597Y-79064557D01*
X129530333Y-79042601D01*
X129537560Y-79018776D01*
X129540000Y-78994000D01*
X129540000Y-76581000D01*
X131064000Y-76581000D01*
X131064000Y-80645000D01*
X131066440Y-80669776D01*
X131073667Y-80693601D01*
X131085403Y-80715557D01*
X131101197Y-80734803D01*
X131120443Y-80750597D01*
X131142399Y-80762333D01*
X131166224Y-80769560D01*
X131191000Y-80772000D01*
X138049000Y-80772000D01*
X138073776Y-80769560D01*
X138097601Y-80762333D01*
X138119557Y-80750597D01*
X138138803Y-80734803D01*
X138154597Y-80715557D01*
X138166333Y-80693601D01*
X138173560Y-80669776D01*
X138176000Y-80645000D01*
X138176000Y-78603865D01*
X139865815Y-78603865D01*
X139865815Y-78738011D01*
X139891986Y-78869578D01*
X139943321Y-78993512D01*
X140017848Y-79105050D01*
X140105171Y-79192373D01*
X140061666Y-79235878D01*
X139987139Y-79347416D01*
X139935804Y-79471350D01*
X139909633Y-79602917D01*
X139909633Y-79737063D01*
X139935804Y-79868630D01*
X139987139Y-79992564D01*
X140061666Y-80104102D01*
X140126723Y-80169159D01*
X140059993Y-80235888D01*
X139985466Y-80347426D01*
X139934131Y-80471360D01*
X139907960Y-80602927D01*
X139907960Y-80737073D01*
X139934131Y-80868640D01*
X139985466Y-80992574D01*
X140059993Y-81104112D01*
X140154848Y-81198967D01*
X140266386Y-81273494D01*
X140390320Y-81324829D01*
X140521887Y-81351000D01*
X140656033Y-81351000D01*
X140787600Y-81324829D01*
X140911534Y-81273494D01*
X141023072Y-81198967D01*
X141117927Y-81104112D01*
X141192454Y-80992574D01*
X141243789Y-80868640D01*
X141269960Y-80737073D01*
X141269960Y-80602927D01*
X141243789Y-80471360D01*
X141192454Y-80347426D01*
X141117927Y-80235888D01*
X141078966Y-80196927D01*
X143845000Y-80196927D01*
X143845000Y-80331073D01*
X143871171Y-80462640D01*
X143922506Y-80586574D01*
X143997033Y-80698112D01*
X144091888Y-80792967D01*
X144203426Y-80867494D01*
X144327360Y-80918829D01*
X144458927Y-80945000D01*
X144593073Y-80945000D01*
X144724640Y-80918829D01*
X144848574Y-80867494D01*
X144960112Y-80792967D01*
X145054967Y-80698112D01*
X145129494Y-80586574D01*
X145180829Y-80462640D01*
X145207000Y-80331073D01*
X145207000Y-80196927D01*
X145180829Y-80065360D01*
X145129494Y-79941426D01*
X145054967Y-79829888D01*
X144960112Y-79735033D01*
X144848574Y-79660506D01*
X144724640Y-79609171D01*
X144593073Y-79583000D01*
X144458927Y-79583000D01*
X144327360Y-79609171D01*
X144203426Y-79660506D01*
X144091888Y-79735033D01*
X143997033Y-79829888D01*
X143922506Y-79941426D01*
X143871171Y-80065360D01*
X143845000Y-80196927D01*
X141078966Y-80196927D01*
X141052871Y-80170832D01*
X141119600Y-80104102D01*
X141194127Y-79992564D01*
X141245462Y-79868630D01*
X141271633Y-79737063D01*
X141271633Y-79602917D01*
X141245462Y-79471350D01*
X141194127Y-79347416D01*
X141119600Y-79235878D01*
X141032277Y-79148555D01*
X141075782Y-79105050D01*
X141150309Y-78993512D01*
X141201644Y-78869578D01*
X141227815Y-78738011D01*
X141227815Y-78603865D01*
X141201644Y-78472298D01*
X141150309Y-78348364D01*
X141075782Y-78236826D01*
X140980927Y-78141971D01*
X140869389Y-78067444D01*
X140745455Y-78016109D01*
X140613888Y-77989938D01*
X140479742Y-77989938D01*
X140348175Y-78016109D01*
X140224241Y-78067444D01*
X140112703Y-78141971D01*
X140017848Y-78236826D01*
X139943321Y-78348364D01*
X139891986Y-78472298D01*
X139865815Y-78603865D01*
X138176000Y-78603865D01*
X138176000Y-76132927D01*
X150830000Y-76132927D01*
X150830000Y-76267073D01*
X150856171Y-76398640D01*
X150907506Y-76522574D01*
X150982033Y-76634112D01*
X151076888Y-76728967D01*
X151188426Y-76803494D01*
X151312360Y-76854829D01*
X151443927Y-76881000D01*
X151578073Y-76881000D01*
X151709640Y-76854829D01*
X151833574Y-76803494D01*
X151945112Y-76728967D01*
X152039967Y-76634112D01*
X152114494Y-76522574D01*
X152165829Y-76398640D01*
X152192000Y-76267073D01*
X152192000Y-76132927D01*
X152165829Y-76001360D01*
X152114494Y-75877426D01*
X152039967Y-75765888D01*
X151945112Y-75671033D01*
X151833574Y-75596506D01*
X151709640Y-75545171D01*
X151578073Y-75519000D01*
X151443927Y-75519000D01*
X151312360Y-75545171D01*
X151188426Y-75596506D01*
X151076888Y-75671033D01*
X150982033Y-75765888D01*
X150907506Y-75877426D01*
X150856171Y-76001360D01*
X150830000Y-76132927D01*
X138176000Y-76132927D01*
X138176000Y-73787000D01*
X138173560Y-73762224D01*
X138166333Y-73738399D01*
X138154597Y-73716443D01*
X138138803Y-73697197D01*
X138119557Y-73681403D01*
X138097601Y-73669667D01*
X138073776Y-73662440D01*
X138049000Y-73660000D01*
X131191000Y-73660000D01*
X131166224Y-73662440D01*
X131142399Y-73669667D01*
X131120443Y-73681403D01*
X131101197Y-73697197D01*
X131085403Y-73716443D01*
X131073667Y-73738399D01*
X131066440Y-73762224D01*
X131064000Y-73787000D01*
X131064000Y-74676000D01*
X129685784Y-74676000D01*
X129661429Y-74553560D01*
X129610094Y-74429626D01*
X129540000Y-74324722D01*
X129540000Y-73406000D01*
X129537560Y-73381224D01*
X129530333Y-73357399D01*
X129520460Y-73338927D01*
X150830000Y-73338927D01*
X150830000Y-73473073D01*
X150856171Y-73604640D01*
X150907506Y-73728574D01*
X150982033Y-73840112D01*
X151076888Y-73934967D01*
X151188426Y-74009494D01*
X151312360Y-74060829D01*
X151443927Y-74087000D01*
X151578073Y-74087000D01*
X151709640Y-74060829D01*
X151833574Y-74009494D01*
X151945112Y-73934967D01*
X152039967Y-73840112D01*
X152114494Y-73728574D01*
X152165829Y-73604640D01*
X152192000Y-73473073D01*
X152192000Y-73338927D01*
X152165829Y-73207360D01*
X152114494Y-73083426D01*
X152039967Y-72971888D01*
X151945112Y-72877033D01*
X151833574Y-72802506D01*
X151709640Y-72751171D01*
X151578073Y-72725000D01*
X151443927Y-72725000D01*
X151312360Y-72751171D01*
X151188426Y-72802506D01*
X151076888Y-72877033D01*
X150982033Y-72971888D01*
X150907506Y-73083426D01*
X150856171Y-73207360D01*
X150830000Y-73338927D01*
X129520460Y-73338927D01*
X129518597Y-73335443D01*
X129502803Y-73316197D01*
X129483557Y-73300403D01*
X129461601Y-73288667D01*
X129437776Y-73281440D01*
X129413000Y-73279000D01*
X127762000Y-73279000D01*
X127762000Y-73084264D01*
X127806694Y-73017374D01*
X127858029Y-72893440D01*
X127884200Y-72761873D01*
X127884200Y-72627727D01*
X127858029Y-72496160D01*
X127806694Y-72372226D01*
X127762000Y-72305336D01*
X127762000Y-71501000D01*
X127759560Y-71476224D01*
X127752333Y-71452399D01*
X127740597Y-71430443D01*
X127724803Y-71411197D01*
X127705557Y-71395403D01*
X127683601Y-71383667D01*
X127659776Y-71376440D01*
X127635000Y-71374000D01*
X126005447Y-71374000D01*
X126004737Y-71370427D01*
X130891000Y-71370427D01*
X130891000Y-71504573D01*
X130917171Y-71636140D01*
X130968506Y-71760074D01*
X131043033Y-71871612D01*
X131137888Y-71966467D01*
X131249426Y-72040994D01*
X131373360Y-72092329D01*
X131504927Y-72118500D01*
X131639073Y-72118500D01*
X131770640Y-72092329D01*
X131894574Y-72040994D01*
X132006112Y-71966467D01*
X132100967Y-71871612D01*
X132175494Y-71760074D01*
X132205378Y-71687927D01*
X139781000Y-71687927D01*
X139781000Y-71822073D01*
X139807171Y-71953640D01*
X139858506Y-72077574D01*
X139933033Y-72189112D01*
X140027888Y-72283967D01*
X140139426Y-72358494D01*
X140263360Y-72409829D01*
X140394927Y-72436000D01*
X140529073Y-72436000D01*
X140660640Y-72409829D01*
X140784574Y-72358494D01*
X140896112Y-72283967D01*
X140990967Y-72189112D01*
X141065494Y-72077574D01*
X141116829Y-71953640D01*
X141143000Y-71822073D01*
X141143000Y-71814927D01*
X152989000Y-71814927D01*
X152989000Y-71949073D01*
X153015171Y-72080640D01*
X153066506Y-72204574D01*
X153141033Y-72316112D01*
X153235888Y-72410967D01*
X153347426Y-72485494D01*
X153471360Y-72536829D01*
X153602927Y-72563000D01*
X153737073Y-72563000D01*
X153868640Y-72536829D01*
X153992574Y-72485494D01*
X154104112Y-72410967D01*
X154198967Y-72316112D01*
X154273494Y-72204574D01*
X154324829Y-72080640D01*
X154351000Y-71949073D01*
X154351000Y-71814927D01*
X154324829Y-71683360D01*
X154273494Y-71559426D01*
X154198967Y-71447888D01*
X154104112Y-71353033D01*
X153992574Y-71278506D01*
X153868640Y-71227171D01*
X153737073Y-71201000D01*
X153602927Y-71201000D01*
X153471360Y-71227171D01*
X153347426Y-71278506D01*
X153235888Y-71353033D01*
X153141033Y-71447888D01*
X153066506Y-71559426D01*
X153015171Y-71683360D01*
X152989000Y-71814927D01*
X141143000Y-71814927D01*
X141143000Y-71687927D01*
X141116829Y-71556360D01*
X141065494Y-71432426D01*
X140990967Y-71320888D01*
X140896112Y-71226033D01*
X140784574Y-71151506D01*
X140660640Y-71100171D01*
X140529073Y-71074000D01*
X140394927Y-71074000D01*
X140263360Y-71100171D01*
X140139426Y-71151506D01*
X140027888Y-71226033D01*
X139933033Y-71320888D01*
X139858506Y-71432426D01*
X139807171Y-71556360D01*
X139781000Y-71687927D01*
X132205378Y-71687927D01*
X132226829Y-71636140D01*
X132253000Y-71504573D01*
X132253000Y-71370427D01*
X132226829Y-71238860D01*
X132175494Y-71114926D01*
X132100967Y-71003388D01*
X132006112Y-70908533D01*
X131894574Y-70834006D01*
X131770640Y-70782671D01*
X131639073Y-70756500D01*
X131504927Y-70756500D01*
X131373360Y-70782671D01*
X131249426Y-70834006D01*
X131137888Y-70908533D01*
X131043033Y-71003388D01*
X130968506Y-71114926D01*
X130917171Y-71238860D01*
X130891000Y-71370427D01*
X126004737Y-71370427D01*
X126003829Y-71365868D01*
X125952494Y-71241934D01*
X125877967Y-71130396D01*
X125783112Y-71035541D01*
X125671574Y-70961014D01*
X125547640Y-70909679D01*
X125416073Y-70883508D01*
X125281927Y-70883508D01*
X125150360Y-70909679D01*
X125026426Y-70961014D01*
X124914888Y-71035541D01*
X124820033Y-71130396D01*
X124745506Y-71241934D01*
X124694171Y-71365868D01*
X124692553Y-71374000D01*
X123186690Y-71374000D01*
X123276217Y-71314180D01*
X123447680Y-71142717D01*
X123582398Y-70941097D01*
X123675193Y-70717069D01*
X123709434Y-70544927D01*
X127335000Y-70544927D01*
X127335000Y-70679073D01*
X127361171Y-70810640D01*
X127412506Y-70934574D01*
X127487033Y-71046112D01*
X127581888Y-71140967D01*
X127693426Y-71215494D01*
X127817360Y-71266829D01*
X127948927Y-71293000D01*
X128083073Y-71293000D01*
X128214640Y-71266829D01*
X128338574Y-71215494D01*
X128450112Y-71140967D01*
X128544967Y-71046112D01*
X128619494Y-70934574D01*
X128670829Y-70810640D01*
X128697000Y-70679073D01*
X128697000Y-70544927D01*
X128670829Y-70413360D01*
X128619494Y-70289426D01*
X128544967Y-70177888D01*
X128450112Y-70083033D01*
X128338574Y-70008506D01*
X128214640Y-69957171D01*
X128083073Y-69931000D01*
X127948927Y-69931000D01*
X127817360Y-69957171D01*
X127693426Y-70008506D01*
X127581888Y-70083033D01*
X127487033Y-70177888D01*
X127412506Y-70289426D01*
X127361171Y-70413360D01*
X127335000Y-70544927D01*
X123709434Y-70544927D01*
X123722500Y-70479243D01*
X123722500Y-70236757D01*
X123675193Y-69998931D01*
X123582398Y-69774903D01*
X123447680Y-69573283D01*
X123276217Y-69401820D01*
X123074597Y-69267102D01*
X122850569Y-69174307D01*
X122612743Y-69127000D01*
X122370257Y-69127000D01*
X122281800Y-69144595D01*
X122664768Y-68985965D01*
X123182651Y-68639927D01*
X126573000Y-68639927D01*
X126573000Y-68774073D01*
X126599171Y-68905640D01*
X126650506Y-69029574D01*
X126725033Y-69141112D01*
X126819888Y-69235967D01*
X126931426Y-69310494D01*
X127055360Y-69361829D01*
X127186927Y-69388000D01*
X127321073Y-69388000D01*
X127452640Y-69361829D01*
X127576574Y-69310494D01*
X127688112Y-69235967D01*
X127782967Y-69141112D01*
X127857494Y-69029574D01*
X127908829Y-68905640D01*
X127935000Y-68774073D01*
X127935000Y-68639927D01*
X127909738Y-68512927D01*
X134955000Y-68512927D01*
X134955000Y-68647073D01*
X134981171Y-68778640D01*
X135032506Y-68902574D01*
X135107033Y-69014112D01*
X135201888Y-69108967D01*
X135313426Y-69183494D01*
X135437360Y-69234829D01*
X135568927Y-69261000D01*
X135703073Y-69261000D01*
X135834640Y-69234829D01*
X135958574Y-69183494D01*
X136070112Y-69108967D01*
X136164967Y-69014112D01*
X136239494Y-68902574D01*
X136290829Y-68778640D01*
X136317000Y-68647073D01*
X136317000Y-68512927D01*
X141813000Y-68512927D01*
X141813000Y-68647073D01*
X141839171Y-68778640D01*
X141890506Y-68902574D01*
X141965033Y-69014112D01*
X142059888Y-69108967D01*
X142171426Y-69183494D01*
X142295360Y-69234829D01*
X142426927Y-69261000D01*
X142561073Y-69261000D01*
X142692640Y-69234829D01*
X142816574Y-69183494D01*
X142928112Y-69108967D01*
X143022967Y-69014112D01*
X143097494Y-68902574D01*
X143148829Y-68778640D01*
X143175000Y-68647073D01*
X143175000Y-68512927D01*
X148671000Y-68512927D01*
X148671000Y-68647073D01*
X148697171Y-68778640D01*
X148748506Y-68902574D01*
X148823033Y-69014112D01*
X148917888Y-69108967D01*
X149029426Y-69183494D01*
X149153360Y-69234829D01*
X149284927Y-69261000D01*
X149419073Y-69261000D01*
X149550640Y-69234829D01*
X149674574Y-69183494D01*
X149786112Y-69108967D01*
X149880967Y-69014112D01*
X149955494Y-68902574D01*
X150006829Y-68778640D01*
X150033000Y-68647073D01*
X150033000Y-68512927D01*
X155529000Y-68512927D01*
X155529000Y-68647073D01*
X155555171Y-68778640D01*
X155606506Y-68902574D01*
X155681033Y-69014112D01*
X155775888Y-69108967D01*
X155887426Y-69183494D01*
X156011360Y-69234829D01*
X156142927Y-69261000D01*
X156277073Y-69261000D01*
X156408640Y-69234829D01*
X156532574Y-69183494D01*
X156644112Y-69108967D01*
X156738967Y-69014112D01*
X156813494Y-68902574D01*
X156864829Y-68778640D01*
X156891000Y-68647073D01*
X156891000Y-68512927D01*
X156864829Y-68381360D01*
X156813494Y-68257426D01*
X156738967Y-68145888D01*
X156644112Y-68051033D01*
X156532574Y-67976506D01*
X156408640Y-67925171D01*
X156277073Y-67899000D01*
X156142927Y-67899000D01*
X156011360Y-67925171D01*
X155887426Y-67976506D01*
X155775888Y-68051033D01*
X155681033Y-68145888D01*
X155606506Y-68257426D01*
X155555171Y-68381360D01*
X155529000Y-68512927D01*
X150033000Y-68512927D01*
X150006829Y-68381360D01*
X149955494Y-68257426D01*
X149880967Y-68145888D01*
X149786112Y-68051033D01*
X149674574Y-67976506D01*
X149550640Y-67925171D01*
X149419073Y-67899000D01*
X149284927Y-67899000D01*
X149153360Y-67925171D01*
X149029426Y-67976506D01*
X148917888Y-68051033D01*
X148823033Y-68145888D01*
X148748506Y-68257426D01*
X148697171Y-68381360D01*
X148671000Y-68512927D01*
X143175000Y-68512927D01*
X143148829Y-68381360D01*
X143097494Y-68257426D01*
X143022967Y-68145888D01*
X142928112Y-68051033D01*
X142816574Y-67976506D01*
X142692640Y-67925171D01*
X142561073Y-67899000D01*
X142426927Y-67899000D01*
X142295360Y-67925171D01*
X142171426Y-67976506D01*
X142059888Y-68051033D01*
X141965033Y-68145888D01*
X141890506Y-68257426D01*
X141839171Y-68381360D01*
X141813000Y-68512927D01*
X136317000Y-68512927D01*
X136290829Y-68381360D01*
X136239494Y-68257426D01*
X136164967Y-68145888D01*
X136070112Y-68051033D01*
X135958574Y-67976506D01*
X135834640Y-67925171D01*
X135703073Y-67899000D01*
X135568927Y-67899000D01*
X135437360Y-67925171D01*
X135313426Y-67976506D01*
X135201888Y-68051033D01*
X135107033Y-68145888D01*
X135032506Y-68257426D01*
X134981171Y-68381360D01*
X134955000Y-68512927D01*
X127909738Y-68512927D01*
X127908829Y-68508360D01*
X127857494Y-68384426D01*
X127782967Y-68272888D01*
X127688112Y-68178033D01*
X127576574Y-68103506D01*
X127452640Y-68052171D01*
X127321073Y-68026000D01*
X127186927Y-68026000D01*
X127055360Y-68052171D01*
X126931426Y-68103506D01*
X126819888Y-68178033D01*
X126725033Y-68272888D01*
X126650506Y-68384426D01*
X126599171Y-68508360D01*
X126573000Y-68639927D01*
X123182651Y-68639927D01*
X123185769Y-68637844D01*
X123628844Y-68194769D01*
X123976965Y-67673768D01*
X124102819Y-67369927D01*
X128351000Y-67369927D01*
X128351000Y-67504073D01*
X128377171Y-67635640D01*
X128428506Y-67759574D01*
X128503033Y-67871112D01*
X128597888Y-67965967D01*
X128709426Y-68040494D01*
X128833360Y-68091829D01*
X128964927Y-68118000D01*
X129099073Y-68118000D01*
X129230640Y-68091829D01*
X129354574Y-68040494D01*
X129466112Y-67965967D01*
X129560967Y-67871112D01*
X129635494Y-67759574D01*
X129686829Y-67635640D01*
X129713000Y-67504073D01*
X129713000Y-67369927D01*
X132288000Y-67369927D01*
X132288000Y-67504073D01*
X132314171Y-67635640D01*
X132365506Y-67759574D01*
X132440033Y-67871112D01*
X132534888Y-67965967D01*
X132646426Y-68040494D01*
X132770360Y-68091829D01*
X132901927Y-68118000D01*
X133036073Y-68118000D01*
X133167640Y-68091829D01*
X133291574Y-68040494D01*
X133403112Y-67965967D01*
X133497967Y-67871112D01*
X133572494Y-67759574D01*
X133623829Y-67635640D01*
X133650000Y-67504073D01*
X133650000Y-67369927D01*
X133623829Y-67238360D01*
X133572494Y-67114426D01*
X133497967Y-67002888D01*
X133403112Y-66908033D01*
X133291574Y-66833506D01*
X133167640Y-66782171D01*
X133036073Y-66756000D01*
X132901927Y-66756000D01*
X132770360Y-66782171D01*
X132646426Y-66833506D01*
X132534888Y-66908033D01*
X132440033Y-67002888D01*
X132365506Y-67114426D01*
X132314171Y-67238360D01*
X132288000Y-67369927D01*
X129713000Y-67369927D01*
X129686829Y-67238360D01*
X129635494Y-67114426D01*
X129560967Y-67002888D01*
X129466112Y-66908033D01*
X129354574Y-66833506D01*
X129230640Y-66782171D01*
X129099073Y-66756000D01*
X128964927Y-66756000D01*
X128833360Y-66782171D01*
X128709426Y-66833506D01*
X128597888Y-66908033D01*
X128503033Y-67002888D01*
X128428506Y-67114426D01*
X128377171Y-67238360D01*
X128351000Y-67369927D01*
X124102819Y-67369927D01*
X124216755Y-67094863D01*
X124339000Y-66480301D01*
X124339000Y-65853699D01*
X124216755Y-65239137D01*
X124073963Y-64894406D01*
X131586346Y-64894406D01*
X131586346Y-65028552D01*
X131612517Y-65160119D01*
X131663852Y-65284053D01*
X131738379Y-65395591D01*
X131833234Y-65490446D01*
X131944772Y-65564973D01*
X132068706Y-65616308D01*
X132200273Y-65642479D01*
X132334419Y-65642479D01*
X132465986Y-65616308D01*
X132589920Y-65564973D01*
X132701458Y-65490446D01*
X132796313Y-65395591D01*
X132870840Y-65284053D01*
X132922175Y-65160119D01*
X132948346Y-65028552D01*
X132948346Y-64956927D01*
X135844000Y-64956927D01*
X135844000Y-65091073D01*
X135870171Y-65222640D01*
X135921506Y-65346574D01*
X135996033Y-65458112D01*
X136090888Y-65552967D01*
X136202426Y-65627494D01*
X136326360Y-65678829D01*
X136457927Y-65705000D01*
X136592073Y-65705000D01*
X136723640Y-65678829D01*
X136847574Y-65627494D01*
X136959112Y-65552967D01*
X136962432Y-65549647D01*
X136965820Y-65554717D01*
X137137283Y-65726180D01*
X137338903Y-65860898D01*
X137562931Y-65953693D01*
X137800757Y-66001000D01*
X138043243Y-66001000D01*
X138281069Y-65953693D01*
X138505097Y-65860898D01*
X138706717Y-65726180D01*
X138878180Y-65554717D01*
X139012898Y-65353097D01*
X139105693Y-65129069D01*
X139153000Y-64891243D01*
X139153000Y-64648757D01*
X141771000Y-64648757D01*
X141771000Y-64891243D01*
X141818307Y-65129069D01*
X141911102Y-65353097D01*
X142045820Y-65554717D01*
X142217283Y-65726180D01*
X142418903Y-65860898D01*
X142642931Y-65953693D01*
X142880757Y-66001000D01*
X143123243Y-66001000D01*
X143361069Y-65953693D01*
X143585097Y-65860898D01*
X143786717Y-65726180D01*
X143958180Y-65554717D01*
X144092898Y-65353097D01*
X144185693Y-65129069D01*
X144233000Y-64891243D01*
X144233000Y-64648757D01*
X146851000Y-64648757D01*
X146851000Y-64891243D01*
X146898307Y-65129069D01*
X146991102Y-65353097D01*
X147125820Y-65554717D01*
X147297283Y-65726180D01*
X147498903Y-65860898D01*
X147722931Y-65953693D01*
X147960757Y-66001000D01*
X148203243Y-66001000D01*
X148441069Y-65953693D01*
X148665097Y-65860898D01*
X148866717Y-65726180D01*
X149038180Y-65554717D01*
X149172898Y-65353097D01*
X149265693Y-65129069D01*
X149313000Y-64891243D01*
X149313000Y-64648757D01*
X151931000Y-64648757D01*
X151931000Y-64891243D01*
X151978307Y-65129069D01*
X152071102Y-65353097D01*
X152205820Y-65554717D01*
X152377283Y-65726180D01*
X152578903Y-65860898D01*
X152802931Y-65953693D01*
X153040757Y-66001000D01*
X153283243Y-66001000D01*
X153521069Y-65953693D01*
X153745097Y-65860898D01*
X153946717Y-65726180D01*
X154118180Y-65554717D01*
X154252898Y-65353097D01*
X154345693Y-65129069D01*
X154393000Y-64891243D01*
X154393000Y-64648757D01*
X154345693Y-64410931D01*
X154252898Y-64186903D01*
X154118180Y-63985283D01*
X153946717Y-63813820D01*
X153745097Y-63679102D01*
X153521069Y-63586307D01*
X153283243Y-63539000D01*
X153040757Y-63539000D01*
X152802931Y-63586307D01*
X152578903Y-63679102D01*
X152377283Y-63813820D01*
X152205820Y-63985283D01*
X152071102Y-64186903D01*
X151978307Y-64410931D01*
X151931000Y-64648757D01*
X149313000Y-64648757D01*
X149265693Y-64410931D01*
X149172898Y-64186903D01*
X149038180Y-63985283D01*
X148866717Y-63813820D01*
X148665097Y-63679102D01*
X148441069Y-63586307D01*
X148203243Y-63539000D01*
X147960757Y-63539000D01*
X147722931Y-63586307D01*
X147498903Y-63679102D01*
X147297283Y-63813820D01*
X147125820Y-63985283D01*
X146991102Y-64186903D01*
X146898307Y-64410931D01*
X146851000Y-64648757D01*
X144233000Y-64648757D01*
X144185693Y-64410931D01*
X144092898Y-64186903D01*
X143958180Y-63985283D01*
X143786717Y-63813820D01*
X143585097Y-63679102D01*
X143361069Y-63586307D01*
X143123243Y-63539000D01*
X142880757Y-63539000D01*
X142642931Y-63586307D01*
X142418903Y-63679102D01*
X142217283Y-63813820D01*
X142045820Y-63985283D01*
X141911102Y-64186903D01*
X141818307Y-64410931D01*
X141771000Y-64648757D01*
X139153000Y-64648757D01*
X139105693Y-64410931D01*
X139012898Y-64186903D01*
X138878180Y-63985283D01*
X138706717Y-63813820D01*
X138505097Y-63679102D01*
X138281069Y-63586307D01*
X138043243Y-63539000D01*
X137800757Y-63539000D01*
X137562931Y-63586307D01*
X137338903Y-63679102D01*
X137137283Y-63813820D01*
X136965820Y-63985283D01*
X136831102Y-64186903D01*
X136750923Y-64380472D01*
X136723640Y-64369171D01*
X136592073Y-64343000D01*
X136457927Y-64343000D01*
X136326360Y-64369171D01*
X136202426Y-64420506D01*
X136090888Y-64495033D01*
X135996033Y-64589888D01*
X135921506Y-64701426D01*
X135870171Y-64825360D01*
X135844000Y-64956927D01*
X132948346Y-64956927D01*
X132948346Y-64894406D01*
X132922175Y-64762839D01*
X132870840Y-64638905D01*
X132796313Y-64527367D01*
X132701458Y-64432512D01*
X132589920Y-64357985D01*
X132465986Y-64306650D01*
X132334419Y-64280479D01*
X132200273Y-64280479D01*
X132068706Y-64306650D01*
X131944772Y-64357985D01*
X131833234Y-64432512D01*
X131738379Y-64527367D01*
X131663852Y-64638905D01*
X131612517Y-64762839D01*
X131586346Y-64894406D01*
X124073963Y-64894406D01*
X123976965Y-64660232D01*
X123628844Y-64139231D01*
X123185769Y-63696156D01*
X122826349Y-63456000D01*
X154877695Y-63456000D01*
X155413131Y-63508500D01*
G37*
X155413131Y-63508500D02*
X155906718Y-63657522D01*
X156361957Y-63899577D01*
X156761512Y-64225447D01*
X157090160Y-64622714D01*
X157335390Y-65076254D01*
X157487855Y-65568789D01*
X157544000Y-66102979D01*
X157544001Y-99877685D01*
X157491500Y-100413131D01*
X157439877Y-100584114D01*
X157393693Y-100351931D01*
X157300898Y-100127903D01*
X157166180Y-99926283D01*
X156994717Y-99754820D01*
X156793097Y-99620102D01*
X156569069Y-99527307D01*
X156331243Y-99480000D01*
X156088757Y-99480000D01*
X155850931Y-99527307D01*
X155626903Y-99620102D01*
X155425283Y-99754820D01*
X155253820Y-99926283D01*
X155119102Y-100127903D01*
X155026307Y-100351931D01*
X154979000Y-100589757D01*
X154979000Y-100832243D01*
X155026307Y-101070069D01*
X155119102Y-101294097D01*
X155253820Y-101495717D01*
X155425283Y-101667180D01*
X155626903Y-101801898D01*
X155850931Y-101894693D01*
X156088757Y-101942000D01*
X156331243Y-101942000D01*
X156569069Y-101894693D01*
X156658184Y-101857781D01*
X156377286Y-102090160D01*
X155923742Y-102335391D01*
X155431211Y-102487855D01*
X154897021Y-102544000D01*
X153289887Y-102544000D01*
X153665769Y-102292844D01*
X154108844Y-101849769D01*
X154456965Y-101328768D01*
X154696755Y-100749863D01*
X154819000Y-100135301D01*
X154819000Y-99508699D01*
X154696755Y-98894137D01*
X154456965Y-98315232D01*
X154279581Y-98049757D01*
X154979000Y-98049757D01*
X154979000Y-98292243D01*
X155026307Y-98530069D01*
X155119102Y-98754097D01*
X155253820Y-98955717D01*
X155425283Y-99127180D01*
X155626903Y-99261898D01*
X155850931Y-99354693D01*
X156088757Y-99402000D01*
X156331243Y-99402000D01*
X156569069Y-99354693D01*
X156793097Y-99261898D01*
X156994717Y-99127180D01*
X157166180Y-98955717D01*
X157300898Y-98754097D01*
X157393693Y-98530069D01*
X157441000Y-98292243D01*
X157441000Y-98049757D01*
X157393693Y-97811931D01*
X157300898Y-97587903D01*
X157166180Y-97386283D01*
X156994717Y-97214820D01*
X156793097Y-97080102D01*
X156569069Y-96987307D01*
X156331243Y-96940000D01*
X156088757Y-96940000D01*
X155850931Y-96987307D01*
X155626903Y-97080102D01*
X155425283Y-97214820D01*
X155253820Y-97386283D01*
X155119102Y-97587903D01*
X155026307Y-97811931D01*
X154979000Y-98049757D01*
X154279581Y-98049757D01*
X154108844Y-97794231D01*
X153665769Y-97351156D01*
X153144768Y-97003035D01*
X152565863Y-96763245D01*
X151951301Y-96641000D01*
X151324699Y-96641000D01*
X150710137Y-96763245D01*
X150131232Y-97003035D01*
X149610231Y-97351156D01*
X149167156Y-97794231D01*
X148819035Y-98315232D01*
X148579245Y-98894137D01*
X148457000Y-99508699D01*
X148457000Y-100135301D01*
X148579245Y-100749863D01*
X148819035Y-101328768D01*
X149167156Y-101849769D01*
X149610231Y-102292844D01*
X149986113Y-102544000D01*
X121122304Y-102544000D01*
X120586869Y-102491500D01*
X120192860Y-102372542D01*
X120344097Y-102309898D01*
X120545717Y-102175180D01*
X120717180Y-102003717D01*
X120851898Y-101802097D01*
X120944693Y-101578069D01*
X120992000Y-101340243D01*
X120992000Y-101097757D01*
X120944693Y-100859931D01*
X120855222Y-100643927D01*
X125557000Y-100643927D01*
X125557000Y-100778073D01*
X125583171Y-100909640D01*
X125634506Y-101033574D01*
X125709033Y-101145112D01*
X125803888Y-101239967D01*
X125915426Y-101314494D01*
X126039360Y-101365829D01*
X126170927Y-101392000D01*
X126305073Y-101392000D01*
X126436640Y-101365829D01*
X126560574Y-101314494D01*
X126672112Y-101239967D01*
X126766967Y-101145112D01*
X126798608Y-101097757D01*
X127547000Y-101097757D01*
X127547000Y-101340243D01*
X127594307Y-101578069D01*
X127687102Y-101802097D01*
X127821820Y-102003717D01*
X127993283Y-102175180D01*
X128194903Y-102309898D01*
X128418931Y-102402693D01*
X128656757Y-102450000D01*
X128899243Y-102450000D01*
X129137069Y-102402693D01*
X129361097Y-102309898D01*
X129562717Y-102175180D01*
X129734180Y-102003717D01*
X129868898Y-101802097D01*
X129961693Y-101578069D01*
X130009000Y-101340243D01*
X130009000Y-101097757D01*
X130087000Y-101097757D01*
X130087000Y-101340243D01*
X130134307Y-101578069D01*
X130227102Y-101802097D01*
X130361820Y-102003717D01*
X130533283Y-102175180D01*
X130734903Y-102309898D01*
X130958931Y-102402693D01*
X131196757Y-102450000D01*
X131439243Y-102450000D01*
X131677069Y-102402693D01*
X131901097Y-102309898D01*
X132102717Y-102175180D01*
X132274180Y-102003717D01*
X132408898Y-101802097D01*
X132501693Y-101578069D01*
X132549000Y-101340243D01*
X132549000Y-101097757D01*
X132627000Y-101097757D01*
X132627000Y-101340243D01*
X132674307Y-101578069D01*
X132767102Y-101802097D01*
X132901820Y-102003717D01*
X133073283Y-102175180D01*
X133274903Y-102309898D01*
X133498931Y-102402693D01*
X133736757Y-102450000D01*
X133979243Y-102450000D01*
X134217069Y-102402693D01*
X134441097Y-102309898D01*
X134642717Y-102175180D01*
X134814180Y-102003717D01*
X134948898Y-101802097D01*
X135041693Y-101578069D01*
X135089000Y-101340243D01*
X135089000Y-101097757D01*
X135167000Y-101097757D01*
X135167000Y-101340243D01*
X135214307Y-101578069D01*
X135307102Y-101802097D01*
X135441820Y-102003717D01*
X135613283Y-102175180D01*
X135814903Y-102309898D01*
X136038931Y-102402693D01*
X136276757Y-102450000D01*
X136519243Y-102450000D01*
X136757069Y-102402693D01*
X136981097Y-102309898D01*
X137182717Y-102175180D01*
X137354180Y-102003717D01*
X137488898Y-101802097D01*
X137581693Y-101578069D01*
X137629000Y-101340243D01*
X137629000Y-101097757D01*
X137707000Y-101097757D01*
X137707000Y-101340243D01*
X137754307Y-101578069D01*
X137847102Y-101802097D01*
X137981820Y-102003717D01*
X138153283Y-102175180D01*
X138354903Y-102309898D01*
X138578931Y-102402693D01*
X138816757Y-102450000D01*
X139059243Y-102450000D01*
X139297069Y-102402693D01*
X139521097Y-102309898D01*
X139722717Y-102175180D01*
X139894180Y-102003717D01*
X140028898Y-101802097D01*
X140121693Y-101578069D01*
X140169000Y-101340243D01*
X140169000Y-101097757D01*
X140247000Y-101097757D01*
X140247000Y-101340243D01*
X140294307Y-101578069D01*
X140387102Y-101802097D01*
X140521820Y-102003717D01*
X140693283Y-102175180D01*
X140894903Y-102309898D01*
X141118931Y-102402693D01*
X141356757Y-102450000D01*
X141599243Y-102450000D01*
X141837069Y-102402693D01*
X142061097Y-102309898D01*
X142262717Y-102175180D01*
X142434180Y-102003717D01*
X142568898Y-101802097D01*
X142661693Y-101578069D01*
X142709000Y-101340243D01*
X142709000Y-101097757D01*
X142787000Y-101097757D01*
X142787000Y-101340243D01*
X142834307Y-101578069D01*
X142927102Y-101802097D01*
X143061820Y-102003717D01*
X143233283Y-102175180D01*
X143434903Y-102309898D01*
X143658931Y-102402693D01*
X143896757Y-102450000D01*
X144139243Y-102450000D01*
X144377069Y-102402693D01*
X144601097Y-102309898D01*
X144802717Y-102175180D01*
X144974180Y-102003717D01*
X145108898Y-101802097D01*
X145201693Y-101578069D01*
X145249000Y-101340243D01*
X145249000Y-101097757D01*
X145327000Y-101097757D01*
X145327000Y-101340243D01*
X145374307Y-101578069D01*
X145467102Y-101802097D01*
X145601820Y-102003717D01*
X145773283Y-102175180D01*
X145974903Y-102309898D01*
X146198931Y-102402693D01*
X146436757Y-102450000D01*
X146679243Y-102450000D01*
X146917069Y-102402693D01*
X147141097Y-102309898D01*
X147342717Y-102175180D01*
X147514180Y-102003717D01*
X147648898Y-101802097D01*
X147741693Y-101578069D01*
X147789000Y-101340243D01*
X147789000Y-101097757D01*
X147741693Y-100859931D01*
X147648898Y-100635903D01*
X147514180Y-100434283D01*
X147342717Y-100262820D01*
X147141097Y-100128102D01*
X146917069Y-100035307D01*
X146679243Y-99988000D01*
X146436757Y-99988000D01*
X146198931Y-100035307D01*
X145974903Y-100128102D01*
X145773283Y-100262820D01*
X145601820Y-100434283D01*
X145467102Y-100635903D01*
X145374307Y-100859931D01*
X145327000Y-101097757D01*
X145249000Y-101097757D01*
X145201693Y-100859931D01*
X145108898Y-100635903D01*
X144974180Y-100434283D01*
X144802717Y-100262820D01*
X144601097Y-100128102D01*
X144377069Y-100035307D01*
X144139243Y-99988000D01*
X143896757Y-99988000D01*
X143658931Y-100035307D01*
X143434903Y-100128102D01*
X143233283Y-100262820D01*
X143061820Y-100434283D01*
X142927102Y-100635903D01*
X142834307Y-100859931D01*
X142787000Y-101097757D01*
X142709000Y-101097757D01*
X142661693Y-100859931D01*
X142568898Y-100635903D01*
X142434180Y-100434283D01*
X142262717Y-100262820D01*
X142061097Y-100128102D01*
X141837069Y-100035307D01*
X141599243Y-99988000D01*
X141356757Y-99988000D01*
X141118931Y-100035307D01*
X140894903Y-100128102D01*
X140693283Y-100262820D01*
X140521820Y-100434283D01*
X140387102Y-100635903D01*
X140294307Y-100859931D01*
X140247000Y-101097757D01*
X140169000Y-101097757D01*
X140121693Y-100859931D01*
X140028898Y-100635903D01*
X139894180Y-100434283D01*
X139722717Y-100262820D01*
X139521097Y-100128102D01*
X139297069Y-100035307D01*
X139059243Y-99988000D01*
X138816757Y-99988000D01*
X138578931Y-100035307D01*
X138354903Y-100128102D01*
X138153283Y-100262820D01*
X137981820Y-100434283D01*
X137847102Y-100635903D01*
X137754307Y-100859931D01*
X137707000Y-101097757D01*
X137629000Y-101097757D01*
X137581693Y-100859931D01*
X137488898Y-100635903D01*
X137354180Y-100434283D01*
X137182717Y-100262820D01*
X136981097Y-100128102D01*
X136757069Y-100035307D01*
X136519243Y-99988000D01*
X136276757Y-99988000D01*
X136038931Y-100035307D01*
X135814903Y-100128102D01*
X135613283Y-100262820D01*
X135441820Y-100434283D01*
X135307102Y-100635903D01*
X135214307Y-100859931D01*
X135167000Y-101097757D01*
X135089000Y-101097757D01*
X135041693Y-100859931D01*
X134948898Y-100635903D01*
X134814180Y-100434283D01*
X134642717Y-100262820D01*
X134441097Y-100128102D01*
X134217069Y-100035307D01*
X133979243Y-99988000D01*
X133736757Y-99988000D01*
X133498931Y-100035307D01*
X133274903Y-100128102D01*
X133073283Y-100262820D01*
X132901820Y-100434283D01*
X132767102Y-100635903D01*
X132674307Y-100859931D01*
X132627000Y-101097757D01*
X132549000Y-101097757D01*
X132501693Y-100859931D01*
X132408898Y-100635903D01*
X132274180Y-100434283D01*
X132102717Y-100262820D01*
X131901097Y-100128102D01*
X131677069Y-100035307D01*
X131439243Y-99988000D01*
X131196757Y-99988000D01*
X130958931Y-100035307D01*
X130734903Y-100128102D01*
X130533283Y-100262820D01*
X130361820Y-100434283D01*
X130227102Y-100635903D01*
X130134307Y-100859931D01*
X130087000Y-101097757D01*
X130009000Y-101097757D01*
X129961693Y-100859931D01*
X129868898Y-100635903D01*
X129734180Y-100434283D01*
X129562717Y-100262820D01*
X129361097Y-100128102D01*
X129137069Y-100035307D01*
X128899243Y-99988000D01*
X128656757Y-99988000D01*
X128418931Y-100035307D01*
X128194903Y-100128102D01*
X127993283Y-100262820D01*
X127821820Y-100434283D01*
X127687102Y-100635903D01*
X127594307Y-100859931D01*
X127547000Y-101097757D01*
X126798608Y-101097757D01*
X126841494Y-101033574D01*
X126892829Y-100909640D01*
X126919000Y-100778073D01*
X126919000Y-100643927D01*
X126892829Y-100512360D01*
X126841494Y-100388426D01*
X126766967Y-100276888D01*
X126672112Y-100182033D01*
X126560574Y-100107506D01*
X126436640Y-100056171D01*
X126305073Y-100030000D01*
X126170927Y-100030000D01*
X126039360Y-100056171D01*
X125915426Y-100107506D01*
X125803888Y-100182033D01*
X125709033Y-100276888D01*
X125634506Y-100388426D01*
X125583171Y-100512360D01*
X125557000Y-100643927D01*
X120855222Y-100643927D01*
X120851898Y-100635903D01*
X120717180Y-100434283D01*
X120545717Y-100262820D01*
X120344097Y-100128102D01*
X120120069Y-100035307D01*
X119882243Y-99988000D01*
X119639757Y-99988000D01*
X119401931Y-100035307D01*
X119177903Y-100128102D01*
X118976283Y-100262820D01*
X118804820Y-100434283D01*
X118670102Y-100635903D01*
X118615966Y-100766600D01*
X118512145Y-100431211D01*
X118456000Y-99897021D01*
X118456000Y-98611927D01*
X125811000Y-98611927D01*
X125811000Y-98746073D01*
X125837171Y-98877640D01*
X125888506Y-99001574D01*
X125963033Y-99113112D01*
X126057888Y-99207967D01*
X126169426Y-99282494D01*
X126293360Y-99333829D01*
X126424927Y-99360000D01*
X126559073Y-99360000D01*
X126690640Y-99333829D01*
X126814574Y-99282494D01*
X126926112Y-99207967D01*
X127020967Y-99113112D01*
X127095494Y-99001574D01*
X127146829Y-98877640D01*
X127173000Y-98746073D01*
X127173000Y-98611927D01*
X127146829Y-98480360D01*
X127095494Y-98356426D01*
X127020967Y-98244888D01*
X126926112Y-98150033D01*
X126814574Y-98075506D01*
X126690640Y-98024171D01*
X126559073Y-97998000D01*
X126424927Y-97998000D01*
X126293360Y-98024171D01*
X126169426Y-98075506D01*
X126057888Y-98150033D01*
X125963033Y-98244888D01*
X125888506Y-98356426D01*
X125837171Y-98480360D01*
X125811000Y-98611927D01*
X118456000Y-98611927D01*
X118456000Y-96017757D01*
X118530000Y-96017757D01*
X118530000Y-96260243D01*
X118577307Y-96498069D01*
X118670102Y-96722097D01*
X118804820Y-96923717D01*
X118976283Y-97095180D01*
X119177903Y-97229898D01*
X119401931Y-97322693D01*
X119639757Y-97370000D01*
X119882243Y-97370000D01*
X120120069Y-97322693D01*
X120344097Y-97229898D01*
X120545717Y-97095180D01*
X120717180Y-96923717D01*
X120851898Y-96722097D01*
X120944693Y-96498069D01*
X120992000Y-96260243D01*
X120992000Y-96017757D01*
X120944693Y-95779931D01*
X120855222Y-95563927D01*
X128097000Y-95563927D01*
X128097000Y-95698073D01*
X128123171Y-95829640D01*
X128174506Y-95953574D01*
X128249033Y-96065112D01*
X128343888Y-96159967D01*
X128455426Y-96234494D01*
X128579360Y-96285829D01*
X128710927Y-96312000D01*
X128845073Y-96312000D01*
X128976640Y-96285829D01*
X129100574Y-96234494D01*
X129212112Y-96159967D01*
X129306967Y-96065112D01*
X129381494Y-95953574D01*
X129432829Y-95829640D01*
X129459000Y-95698073D01*
X129459000Y-95563927D01*
X130637000Y-95563927D01*
X130637000Y-95698073D01*
X130663171Y-95829640D01*
X130714506Y-95953574D01*
X130789033Y-96065112D01*
X130883888Y-96159967D01*
X130995426Y-96234494D01*
X131119360Y-96285829D01*
X131250927Y-96312000D01*
X131385073Y-96312000D01*
X131516640Y-96285829D01*
X131640574Y-96234494D01*
X131752112Y-96159967D01*
X131846967Y-96065112D01*
X131921494Y-95953574D01*
X131972829Y-95829640D01*
X131999000Y-95698073D01*
X131999000Y-95563927D01*
X133177000Y-95563927D01*
X133177000Y-95698073D01*
X133203171Y-95829640D01*
X133254506Y-95953574D01*
X133329033Y-96065112D01*
X133423888Y-96159967D01*
X133535426Y-96234494D01*
X133659360Y-96285829D01*
X133790927Y-96312000D01*
X133925073Y-96312000D01*
X134056640Y-96285829D01*
X134180574Y-96234494D01*
X134292112Y-96159967D01*
X134386967Y-96065112D01*
X134461494Y-95953574D01*
X134512829Y-95829640D01*
X134539000Y-95698073D01*
X134539000Y-95563927D01*
X135717000Y-95563927D01*
X135717000Y-95698073D01*
X135743171Y-95829640D01*
X135794506Y-95953574D01*
X135869033Y-96065112D01*
X135963888Y-96159967D01*
X136075426Y-96234494D01*
X136199360Y-96285829D01*
X136330927Y-96312000D01*
X136465073Y-96312000D01*
X136596640Y-96285829D01*
X136720574Y-96234494D01*
X136832112Y-96159967D01*
X136926967Y-96065112D01*
X137001494Y-95953574D01*
X137052829Y-95829640D01*
X137079000Y-95698073D01*
X137079000Y-95618377D01*
X137118327Y-95626200D01*
X137252473Y-95626200D01*
X137384040Y-95600029D01*
X137502900Y-95550796D01*
X137621760Y-95600029D01*
X137753327Y-95626200D01*
X137887473Y-95626200D01*
X138019040Y-95600029D01*
X138137900Y-95550796D01*
X138256760Y-95600029D01*
X138257000Y-95600077D01*
X138257000Y-95698073D01*
X138283171Y-95829640D01*
X138334506Y-95953574D01*
X138409033Y-96065112D01*
X138503888Y-96159967D01*
X138615426Y-96234494D01*
X138739360Y-96285829D01*
X138870927Y-96312000D01*
X139005073Y-96312000D01*
X139136640Y-96285829D01*
X139260574Y-96234494D01*
X139372112Y-96159967D01*
X139466967Y-96065112D01*
X139541494Y-95953574D01*
X139592829Y-95829640D01*
X139619000Y-95698073D01*
X139619000Y-95563927D01*
X140797000Y-95563927D01*
X140797000Y-95698073D01*
X140823171Y-95829640D01*
X140874506Y-95953574D01*
X140949033Y-96065112D01*
X141043888Y-96159967D01*
X141155426Y-96234494D01*
X141279360Y-96285829D01*
X141410927Y-96312000D01*
X141545073Y-96312000D01*
X141676640Y-96285829D01*
X141800574Y-96234494D01*
X141912112Y-96159967D01*
X142006967Y-96065112D01*
X142081494Y-95953574D01*
X142132829Y-95829640D01*
X142159000Y-95698073D01*
X142159000Y-95563927D01*
X143337000Y-95563927D01*
X143337000Y-95698073D01*
X143363171Y-95829640D01*
X143414506Y-95953574D01*
X143489033Y-96065112D01*
X143583888Y-96159967D01*
X143695426Y-96234494D01*
X143819360Y-96285829D01*
X143950927Y-96312000D01*
X144085073Y-96312000D01*
X144216640Y-96285829D01*
X144340574Y-96234494D01*
X144452112Y-96159967D01*
X144546967Y-96065112D01*
X144621494Y-95953574D01*
X144672829Y-95829640D01*
X144699000Y-95698073D01*
X144699000Y-95563927D01*
X145877000Y-95563927D01*
X145877000Y-95698073D01*
X145903171Y-95829640D01*
X145954506Y-95953574D01*
X146029033Y-96065112D01*
X146123888Y-96159967D01*
X146235426Y-96234494D01*
X146359360Y-96285829D01*
X146490927Y-96312000D01*
X146625073Y-96312000D01*
X146756640Y-96285829D01*
X146880574Y-96234494D01*
X146992112Y-96159967D01*
X147086967Y-96065112D01*
X147161494Y-95953574D01*
X147212829Y-95829640D01*
X147239000Y-95698073D01*
X147239000Y-95563927D01*
X147228225Y-95509757D01*
X154979000Y-95509757D01*
X154979000Y-95752243D01*
X155026307Y-95990069D01*
X155119102Y-96214097D01*
X155253820Y-96415717D01*
X155425283Y-96587180D01*
X155626903Y-96721898D01*
X155850931Y-96814693D01*
X156088757Y-96862000D01*
X156331243Y-96862000D01*
X156569069Y-96814693D01*
X156793097Y-96721898D01*
X156994717Y-96587180D01*
X157166180Y-96415717D01*
X157300898Y-96214097D01*
X157393693Y-95990069D01*
X157441000Y-95752243D01*
X157441000Y-95509757D01*
X157393693Y-95271931D01*
X157300898Y-95047903D01*
X157166180Y-94846283D01*
X156994717Y-94674820D01*
X156793097Y-94540102D01*
X156569069Y-94447307D01*
X156331243Y-94400000D01*
X156088757Y-94400000D01*
X155850931Y-94447307D01*
X155626903Y-94540102D01*
X155425283Y-94674820D01*
X155253820Y-94846283D01*
X155119102Y-95047903D01*
X155026307Y-95271931D01*
X154979000Y-95509757D01*
X147228225Y-95509757D01*
X147212829Y-95432360D01*
X147161494Y-95308426D01*
X147086967Y-95196888D01*
X146992112Y-95102033D01*
X146880574Y-95027506D01*
X146756640Y-94976171D01*
X146625073Y-94950000D01*
X146490927Y-94950000D01*
X146359360Y-94976171D01*
X146235426Y-95027506D01*
X146123888Y-95102033D01*
X146029033Y-95196888D01*
X145954506Y-95308426D01*
X145903171Y-95432360D01*
X145877000Y-95563927D01*
X144699000Y-95563927D01*
X144672829Y-95432360D01*
X144621494Y-95308426D01*
X144546967Y-95196888D01*
X144452112Y-95102033D01*
X144340574Y-95027506D01*
X144216640Y-94976171D01*
X144085073Y-94950000D01*
X143950927Y-94950000D01*
X143819360Y-94976171D01*
X143695426Y-95027506D01*
X143583888Y-95102033D01*
X143489033Y-95196888D01*
X143414506Y-95308426D01*
X143363171Y-95432360D01*
X143337000Y-95563927D01*
X142159000Y-95563927D01*
X142132829Y-95432360D01*
X142081494Y-95308426D01*
X142006967Y-95196888D01*
X141912112Y-95102033D01*
X141800574Y-95027506D01*
X141676640Y-94976171D01*
X141545073Y-94950000D01*
X141410927Y-94950000D01*
X141279360Y-94976171D01*
X141155426Y-95027506D01*
X141043888Y-95102033D01*
X140949033Y-95196888D01*
X140874506Y-95308426D01*
X140823171Y-95432360D01*
X140797000Y-95563927D01*
X139619000Y-95563927D01*
X139592829Y-95432360D01*
X139541494Y-95308426D01*
X139466967Y-95196888D01*
X139372112Y-95102033D01*
X139260574Y-95027506D01*
X139136640Y-94976171D01*
X139136400Y-94976123D01*
X139136400Y-94878127D01*
X139110229Y-94746560D01*
X139058894Y-94622626D01*
X138984367Y-94511088D01*
X138889512Y-94416233D01*
X138777974Y-94341706D01*
X138654040Y-94290371D01*
X138522473Y-94264200D01*
X138388327Y-94264200D01*
X138256760Y-94290371D01*
X138137900Y-94339604D01*
X138019040Y-94290371D01*
X137887473Y-94264200D01*
X137753327Y-94264200D01*
X137621760Y-94290371D01*
X137502900Y-94339604D01*
X137384040Y-94290371D01*
X137252473Y-94264200D01*
X137118327Y-94264200D01*
X136986760Y-94290371D01*
X136862826Y-94341706D01*
X136751288Y-94416233D01*
X136656433Y-94511088D01*
X136581906Y-94622626D01*
X136530571Y-94746560D01*
X136504400Y-94878127D01*
X136504400Y-94957823D01*
X136465073Y-94950000D01*
X136330927Y-94950000D01*
X136199360Y-94976171D01*
X136075426Y-95027506D01*
X135963888Y-95102033D01*
X135869033Y-95196888D01*
X135794506Y-95308426D01*
X135743171Y-95432360D01*
X135717000Y-95563927D01*
X134539000Y-95563927D01*
X134512829Y-95432360D01*
X134461494Y-95308426D01*
X134386967Y-95196888D01*
X134292112Y-95102033D01*
X134180574Y-95027506D01*
X134056640Y-94976171D01*
X133925073Y-94950000D01*
X133790927Y-94950000D01*
X133659360Y-94976171D01*
X133535426Y-95027506D01*
X133423888Y-95102033D01*
X133329033Y-95196888D01*
X133254506Y-95308426D01*
X133203171Y-95432360D01*
X133177000Y-95563927D01*
X131999000Y-95563927D01*
X131972829Y-95432360D01*
X131921494Y-95308426D01*
X131846967Y-95196888D01*
X131752112Y-95102033D01*
X131640574Y-95027506D01*
X131516640Y-94976171D01*
X131385073Y-94950000D01*
X131250927Y-94950000D01*
X131119360Y-94976171D01*
X130995426Y-95027506D01*
X130883888Y-95102033D01*
X130789033Y-95196888D01*
X130714506Y-95308426D01*
X130663171Y-95432360D01*
X130637000Y-95563927D01*
X129459000Y-95563927D01*
X129432829Y-95432360D01*
X129381494Y-95308426D01*
X129306967Y-95196888D01*
X129212112Y-95102033D01*
X129100574Y-95027506D01*
X128976640Y-94976171D01*
X128845073Y-94950000D01*
X128710927Y-94950000D01*
X128579360Y-94976171D01*
X128455426Y-95027506D01*
X128343888Y-95102033D01*
X128249033Y-95196888D01*
X128174506Y-95308426D01*
X128123171Y-95432360D01*
X128097000Y-95563927D01*
X120855222Y-95563927D01*
X120851898Y-95555903D01*
X120717180Y-95354283D01*
X120545717Y-95182820D01*
X120344097Y-95048102D01*
X120120069Y-94955307D01*
X119882243Y-94908000D01*
X119639757Y-94908000D01*
X119401931Y-94955307D01*
X119177903Y-95048102D01*
X118976283Y-95182820D01*
X118804820Y-95354283D01*
X118670102Y-95555903D01*
X118577307Y-95779931D01*
X118530000Y-96017757D01*
X118456000Y-96017757D01*
X118456000Y-93976427D01*
X146766000Y-93976427D01*
X146766000Y-94110573D01*
X146792171Y-94242140D01*
X146843506Y-94366074D01*
X146918033Y-94477612D01*
X147012888Y-94572467D01*
X147124426Y-94646994D01*
X147248360Y-94698329D01*
X147379927Y-94724500D01*
X147514073Y-94724500D01*
X147645640Y-94698329D01*
X147769574Y-94646994D01*
X147881112Y-94572467D01*
X147975967Y-94477612D01*
X148050494Y-94366074D01*
X148101829Y-94242140D01*
X148128000Y-94110573D01*
X148128000Y-93976427D01*
X148101829Y-93844860D01*
X148050494Y-93720926D01*
X147975967Y-93609388D01*
X147881112Y-93514533D01*
X147769574Y-93440006D01*
X147645640Y-93388671D01*
X147514073Y-93362500D01*
X147379927Y-93362500D01*
X147248360Y-93388671D01*
X147124426Y-93440006D01*
X147012888Y-93514533D01*
X146918033Y-93609388D01*
X146843506Y-93720926D01*
X146792171Y-93844860D01*
X146766000Y-93976427D01*
X118456000Y-93976427D01*
X118456000Y-92693619D01*
X127385693Y-92693619D01*
X127385693Y-92827765D01*
X127411864Y-92959332D01*
X127463199Y-93083266D01*
X127537726Y-93194804D01*
X127632581Y-93289659D01*
X127744119Y-93364186D01*
X127868053Y-93415521D01*
X127999620Y-93441692D01*
X128133766Y-93441692D01*
X128265333Y-93415521D01*
X128389267Y-93364186D01*
X128500805Y-93289659D01*
X128595660Y-93194804D01*
X128670187Y-93083266D01*
X128717203Y-92969757D01*
X154979000Y-92969757D01*
X154979000Y-93212243D01*
X155026307Y-93450069D01*
X155119102Y-93674097D01*
X155253820Y-93875717D01*
X155425283Y-94047180D01*
X155626903Y-94181898D01*
X155850931Y-94274693D01*
X156088757Y-94322000D01*
X156331243Y-94322000D01*
X156569069Y-94274693D01*
X156793097Y-94181898D01*
X156994717Y-94047180D01*
X157166180Y-93875717D01*
X157300898Y-93674097D01*
X157393693Y-93450069D01*
X157441000Y-93212243D01*
X157441000Y-92969757D01*
X157393693Y-92731931D01*
X157300898Y-92507903D01*
X157166180Y-92306283D01*
X156994717Y-92134820D01*
X156793097Y-92000102D01*
X156569069Y-91907307D01*
X156331243Y-91860000D01*
X156088757Y-91860000D01*
X155850931Y-91907307D01*
X155626903Y-92000102D01*
X155425283Y-92134820D01*
X155253820Y-92306283D01*
X155119102Y-92507903D01*
X155026307Y-92731931D01*
X154979000Y-92969757D01*
X128717203Y-92969757D01*
X128721522Y-92959332D01*
X128747693Y-92827765D01*
X128747693Y-92693619D01*
X128721522Y-92562052D01*
X128670187Y-92438118D01*
X128595660Y-92326580D01*
X128500805Y-92231725D01*
X128389267Y-92157198D01*
X128265333Y-92105863D01*
X128133766Y-92079692D01*
X127999620Y-92079692D01*
X127868053Y-92105863D01*
X127744119Y-92157198D01*
X127632581Y-92231725D01*
X127537726Y-92326580D01*
X127463199Y-92438118D01*
X127411864Y-92562052D01*
X127385693Y-92693619D01*
X118456000Y-92693619D01*
X118456000Y-90937757D01*
X118530000Y-90937757D01*
X118530000Y-91180243D01*
X118577307Y-91418069D01*
X118670102Y-91642097D01*
X118804820Y-91843717D01*
X118976283Y-92015180D01*
X119177903Y-92149898D01*
X119401931Y-92242693D01*
X119639757Y-92290000D01*
X119882243Y-92290000D01*
X120120069Y-92242693D01*
X120344097Y-92149898D01*
X120545717Y-92015180D01*
X120717180Y-91843717D01*
X120851898Y-91642097D01*
X120944693Y-91418069D01*
X120992000Y-91180243D01*
X120992000Y-90991927D01*
X126954000Y-90991927D01*
X126954000Y-91126073D01*
X126980171Y-91257640D01*
X127031506Y-91381574D01*
X127106033Y-91493112D01*
X127200888Y-91587967D01*
X127312426Y-91662494D01*
X127436360Y-91713829D01*
X127567927Y-91740000D01*
X127702073Y-91740000D01*
X127833640Y-91713829D01*
X127957574Y-91662494D01*
X128069112Y-91587967D01*
X128163967Y-91493112D01*
X128238494Y-91381574D01*
X128289829Y-91257640D01*
X128292158Y-91245927D01*
X133685000Y-91245927D01*
X133685000Y-91380073D01*
X133711171Y-91511640D01*
X133762506Y-91635574D01*
X133837033Y-91747112D01*
X133931888Y-91841967D01*
X134043426Y-91916494D01*
X134167360Y-91967829D01*
X134298927Y-91994000D01*
X134433073Y-91994000D01*
X134564640Y-91967829D01*
X134683500Y-91918596D01*
X134802360Y-91967829D01*
X134933927Y-91994000D01*
X135068073Y-91994000D01*
X135199640Y-91967829D01*
X135318500Y-91918596D01*
X135437360Y-91967829D01*
X135568927Y-91994000D01*
X135703073Y-91994000D01*
X135834640Y-91967829D01*
X135958574Y-91916494D01*
X136070112Y-91841967D01*
X136164967Y-91747112D01*
X136239494Y-91635574D01*
X136290829Y-91511640D01*
X136293158Y-91499927D01*
X151274500Y-91499927D01*
X151274500Y-91634073D01*
X151300671Y-91765640D01*
X151352006Y-91889574D01*
X151426533Y-92001112D01*
X151521388Y-92095967D01*
X151632926Y-92170494D01*
X151756860Y-92221829D01*
X151888427Y-92248000D01*
X152022573Y-92248000D01*
X152154140Y-92221829D01*
X152278074Y-92170494D01*
X152389612Y-92095967D01*
X152484467Y-92001112D01*
X152558994Y-91889574D01*
X152610329Y-91765640D01*
X152636500Y-91634073D01*
X152636500Y-91499927D01*
X152610329Y-91368360D01*
X152558994Y-91244426D01*
X152484467Y-91132888D01*
X152389612Y-91038033D01*
X152278074Y-90963506D01*
X152154140Y-90912171D01*
X152022573Y-90886000D01*
X151888427Y-90886000D01*
X151756860Y-90912171D01*
X151632926Y-90963506D01*
X151521388Y-91038033D01*
X151426533Y-91132888D01*
X151352006Y-91244426D01*
X151300671Y-91368360D01*
X151274500Y-91499927D01*
X136293158Y-91499927D01*
X136317000Y-91380073D01*
X136317000Y-91245927D01*
X136290829Y-91114360D01*
X136239494Y-90990426D01*
X136164967Y-90878888D01*
X136070112Y-90784033D01*
X135958574Y-90709506D01*
X135834640Y-90658171D01*
X135703073Y-90632000D01*
X135568927Y-90632000D01*
X135437360Y-90658171D01*
X135318500Y-90707404D01*
X135199640Y-90658171D01*
X135068073Y-90632000D01*
X134933927Y-90632000D01*
X134802360Y-90658171D01*
X134683500Y-90707404D01*
X134564640Y-90658171D01*
X134433073Y-90632000D01*
X134298927Y-90632000D01*
X134167360Y-90658171D01*
X134043426Y-90709506D01*
X133931888Y-90784033D01*
X133837033Y-90878888D01*
X133762506Y-90990426D01*
X133711171Y-91114360D01*
X133685000Y-91245927D01*
X128292158Y-91245927D01*
X128316000Y-91126073D01*
X128316000Y-90991927D01*
X128289829Y-90860360D01*
X128238494Y-90736426D01*
X128163967Y-90624888D01*
X128069112Y-90530033D01*
X127957574Y-90455506D01*
X127895411Y-90429757D01*
X154979000Y-90429757D01*
X154979000Y-90672243D01*
X155026307Y-90910069D01*
X155119102Y-91134097D01*
X155253820Y-91335717D01*
X155425283Y-91507180D01*
X155626903Y-91641898D01*
X155850931Y-91734693D01*
X156088757Y-91782000D01*
X156331243Y-91782000D01*
X156569069Y-91734693D01*
X156793097Y-91641898D01*
X156994717Y-91507180D01*
X157166180Y-91335717D01*
X157300898Y-91134097D01*
X157393693Y-90910069D01*
X157441000Y-90672243D01*
X157441000Y-90429757D01*
X157393693Y-90191931D01*
X157300898Y-89967903D01*
X157166180Y-89766283D01*
X156994717Y-89594820D01*
X156793097Y-89460102D01*
X156569069Y-89367307D01*
X156331243Y-89320000D01*
X156088757Y-89320000D01*
X155850931Y-89367307D01*
X155626903Y-89460102D01*
X155425283Y-89594820D01*
X155253820Y-89766283D01*
X155119102Y-89967903D01*
X155026307Y-90191931D01*
X154979000Y-90429757D01*
X127895411Y-90429757D01*
X127833640Y-90404171D01*
X127702073Y-90378000D01*
X127567927Y-90378000D01*
X127436360Y-90404171D01*
X127312426Y-90455506D01*
X127200888Y-90530033D01*
X127106033Y-90624888D01*
X127031506Y-90736426D01*
X126980171Y-90860360D01*
X126954000Y-90991927D01*
X120992000Y-90991927D01*
X120992000Y-90937757D01*
X120944693Y-90699931D01*
X120851898Y-90475903D01*
X120717180Y-90274283D01*
X120545717Y-90102820D01*
X120344097Y-89968102D01*
X120120069Y-89875307D01*
X119882243Y-89828000D01*
X119639757Y-89828000D01*
X119401931Y-89875307D01*
X119177903Y-89968102D01*
X118976283Y-90102820D01*
X118804820Y-90274283D01*
X118670102Y-90475903D01*
X118577307Y-90699931D01*
X118530000Y-90937757D01*
X118456000Y-90937757D01*
X118456000Y-88397757D01*
X118530000Y-88397757D01*
X118530000Y-88640243D01*
X118577307Y-88878069D01*
X118670102Y-89102097D01*
X118804820Y-89303717D01*
X118976283Y-89475180D01*
X119177903Y-89609898D01*
X119401931Y-89702693D01*
X119639757Y-89750000D01*
X119882243Y-89750000D01*
X120120069Y-89702693D01*
X120344097Y-89609898D01*
X120366502Y-89594927D01*
X151274500Y-89594927D01*
X151274500Y-89729073D01*
X151300671Y-89860640D01*
X151352006Y-89984574D01*
X151426533Y-90096112D01*
X151521388Y-90190967D01*
X151632926Y-90265494D01*
X151756860Y-90316829D01*
X151888427Y-90343000D01*
X152022573Y-90343000D01*
X152154140Y-90316829D01*
X152278074Y-90265494D01*
X152389612Y-90190967D01*
X152484467Y-90096112D01*
X152558994Y-89984574D01*
X152610329Y-89860640D01*
X152636500Y-89729073D01*
X152636500Y-89594927D01*
X152610329Y-89463360D01*
X152558994Y-89339426D01*
X152484467Y-89227888D01*
X152389612Y-89133033D01*
X152278074Y-89058506D01*
X152154140Y-89007171D01*
X152022573Y-88981000D01*
X151888427Y-88981000D01*
X151756860Y-89007171D01*
X151632926Y-89058506D01*
X151521388Y-89133033D01*
X151426533Y-89227888D01*
X151352006Y-89339426D01*
X151300671Y-89463360D01*
X151274500Y-89594927D01*
X120366502Y-89594927D01*
X120545717Y-89475180D01*
X120717180Y-89303717D01*
X120851898Y-89102097D01*
X120944693Y-88878069D01*
X120992000Y-88640243D01*
X120992000Y-88397757D01*
X120944693Y-88159931D01*
X120851898Y-87935903D01*
X120821065Y-87889757D01*
X154979000Y-87889757D01*
X154979000Y-88132243D01*
X155026307Y-88370069D01*
X155119102Y-88594097D01*
X155253820Y-88795717D01*
X155425283Y-88967180D01*
X155626903Y-89101898D01*
X155850931Y-89194693D01*
X156088757Y-89242000D01*
X156331243Y-89242000D01*
X156569069Y-89194693D01*
X156793097Y-89101898D01*
X156994717Y-88967180D01*
X157166180Y-88795717D01*
X157300898Y-88594097D01*
X157393693Y-88370069D01*
X157441000Y-88132243D01*
X157441000Y-87889757D01*
X157393693Y-87651931D01*
X157300898Y-87427903D01*
X157166180Y-87226283D01*
X156994717Y-87054820D01*
X156793097Y-86920102D01*
X156569069Y-86827307D01*
X156331243Y-86780000D01*
X156088757Y-86780000D01*
X155850931Y-86827307D01*
X155626903Y-86920102D01*
X155425283Y-87054820D01*
X155253820Y-87226283D01*
X155119102Y-87427903D01*
X155026307Y-87651931D01*
X154979000Y-87889757D01*
X120821065Y-87889757D01*
X120717180Y-87734283D01*
X120545717Y-87562820D01*
X120344097Y-87428102D01*
X120120069Y-87335307D01*
X119882243Y-87288000D01*
X119639757Y-87288000D01*
X119401931Y-87335307D01*
X119177903Y-87428102D01*
X118976283Y-87562820D01*
X118804820Y-87734283D01*
X118670102Y-87935903D01*
X118577307Y-88159931D01*
X118530000Y-88397757D01*
X118456000Y-88397757D01*
X118456000Y-85857757D01*
X118530000Y-85857757D01*
X118530000Y-86100243D01*
X118577307Y-86338069D01*
X118670102Y-86562097D01*
X118804820Y-86763717D01*
X118976283Y-86935180D01*
X119177903Y-87069898D01*
X119401931Y-87162693D01*
X119639757Y-87210000D01*
X119882243Y-87210000D01*
X120120069Y-87162693D01*
X120344097Y-87069898D01*
X120545717Y-86935180D01*
X120717180Y-86763717D01*
X120851898Y-86562097D01*
X120910786Y-86419927D01*
X141305000Y-86419927D01*
X141305000Y-86554073D01*
X141331171Y-86685640D01*
X141382506Y-86809574D01*
X141457033Y-86921112D01*
X141551888Y-87015967D01*
X141663426Y-87090494D01*
X141787360Y-87141829D01*
X141918927Y-87168000D01*
X142053073Y-87168000D01*
X142184640Y-87141829D01*
X142308574Y-87090494D01*
X142420112Y-87015967D01*
X142514967Y-86921112D01*
X142589494Y-86809574D01*
X142640829Y-86685640D01*
X142667000Y-86554073D01*
X142667000Y-86419927D01*
X142640829Y-86288360D01*
X142589494Y-86164426D01*
X142514967Y-86052888D01*
X142420112Y-85958033D01*
X142308574Y-85883506D01*
X142184640Y-85832171D01*
X142053073Y-85806000D01*
X141918927Y-85806000D01*
X141787360Y-85832171D01*
X141663426Y-85883506D01*
X141551888Y-85958033D01*
X141457033Y-86052888D01*
X141382506Y-86164426D01*
X141331171Y-86288360D01*
X141305000Y-86419927D01*
X120910786Y-86419927D01*
X120944693Y-86338069D01*
X120992000Y-86100243D01*
X120992000Y-85857757D01*
X120952251Y-85657927D01*
X126954000Y-85657927D01*
X126954000Y-85792073D01*
X126980171Y-85923640D01*
X127031506Y-86047574D01*
X127106033Y-86159112D01*
X127200888Y-86253967D01*
X127312426Y-86328494D01*
X127436360Y-86379829D01*
X127567927Y-86406000D01*
X127702073Y-86406000D01*
X127833640Y-86379829D01*
X127957574Y-86328494D01*
X128069112Y-86253967D01*
X128163967Y-86159112D01*
X128238494Y-86047574D01*
X128289829Y-85923640D01*
X128316000Y-85792073D01*
X128316000Y-85657927D01*
X128289829Y-85526360D01*
X128238494Y-85402426D01*
X128203302Y-85349757D01*
X154979000Y-85349757D01*
X154979000Y-85592243D01*
X155026307Y-85830069D01*
X155119102Y-86054097D01*
X155253820Y-86255717D01*
X155425283Y-86427180D01*
X155626903Y-86561898D01*
X155850931Y-86654693D01*
X156088757Y-86702000D01*
X156331243Y-86702000D01*
X156569069Y-86654693D01*
X156793097Y-86561898D01*
X156994717Y-86427180D01*
X157166180Y-86255717D01*
X157300898Y-86054097D01*
X157393693Y-85830069D01*
X157441000Y-85592243D01*
X157441000Y-85349757D01*
X157393693Y-85111931D01*
X157300898Y-84887903D01*
X157166180Y-84686283D01*
X156994717Y-84514820D01*
X156793097Y-84380102D01*
X156569069Y-84287307D01*
X156331243Y-84240000D01*
X156088757Y-84240000D01*
X155850931Y-84287307D01*
X155626903Y-84380102D01*
X155425283Y-84514820D01*
X155253820Y-84686283D01*
X155119102Y-84887903D01*
X155026307Y-85111931D01*
X154979000Y-85349757D01*
X128203302Y-85349757D01*
X128163967Y-85290888D01*
X128069112Y-85196033D01*
X127957574Y-85121506D01*
X127833640Y-85070171D01*
X127702073Y-85044000D01*
X127567927Y-85044000D01*
X127436360Y-85070171D01*
X127312426Y-85121506D01*
X127200888Y-85196033D01*
X127106033Y-85290888D01*
X127031506Y-85402426D01*
X126980171Y-85526360D01*
X126954000Y-85657927D01*
X120952251Y-85657927D01*
X120944693Y-85619931D01*
X120851898Y-85395903D01*
X120717180Y-85194283D01*
X120545717Y-85022820D01*
X120344097Y-84888102D01*
X120120069Y-84795307D01*
X119882243Y-84748000D01*
X119639757Y-84748000D01*
X119401931Y-84795307D01*
X119177903Y-84888102D01*
X118976283Y-85022820D01*
X118804820Y-85194283D01*
X118670102Y-85395903D01*
X118577307Y-85619931D01*
X118530000Y-85857757D01*
X118456000Y-85857757D01*
X118456000Y-83371927D01*
X131907000Y-83371927D01*
X131907000Y-83506073D01*
X131933171Y-83637640D01*
X131984506Y-83761574D01*
X132059033Y-83873112D01*
X132153888Y-83967967D01*
X132265426Y-84042494D01*
X132389360Y-84093829D01*
X132520927Y-84120000D01*
X132655073Y-84120000D01*
X132786640Y-84093829D01*
X132910574Y-84042494D01*
X133022112Y-83967967D01*
X133116967Y-83873112D01*
X133191494Y-83761574D01*
X133242829Y-83637640D01*
X133249261Y-83605303D01*
X133282927Y-83612000D01*
X133417073Y-83612000D01*
X133548640Y-83585829D01*
X133571945Y-83576176D01*
X133584171Y-83637640D01*
X133635506Y-83761574D01*
X133710033Y-83873112D01*
X133804888Y-83967967D01*
X133916426Y-84042494D01*
X134040360Y-84093829D01*
X134171927Y-84120000D01*
X134306073Y-84120000D01*
X134437640Y-84093829D01*
X134561574Y-84042494D01*
X134673112Y-83967967D01*
X134767967Y-83873112D01*
X134842494Y-83761574D01*
X134893829Y-83637640D01*
X134900261Y-83605303D01*
X134933927Y-83612000D01*
X135068073Y-83612000D01*
X135101739Y-83605303D01*
X135108171Y-83637640D01*
X135159506Y-83761574D01*
X135234033Y-83873112D01*
X135328888Y-83967967D01*
X135440426Y-84042494D01*
X135564360Y-84093829D01*
X135695927Y-84120000D01*
X135830073Y-84120000D01*
X135961640Y-84093829D01*
X136085574Y-84042494D01*
X136138803Y-84006927D01*
X147147000Y-84006927D01*
X147147000Y-84141073D01*
X147173171Y-84272640D01*
X147224506Y-84396574D01*
X147299033Y-84508112D01*
X147393888Y-84602967D01*
X147505426Y-84677494D01*
X147629360Y-84728829D01*
X147760927Y-84755000D01*
X147895073Y-84755000D01*
X148026640Y-84728829D01*
X148150574Y-84677494D01*
X148262112Y-84602967D01*
X148350152Y-84514927D01*
X152862000Y-84514927D01*
X152862000Y-84649073D01*
X152888171Y-84780640D01*
X152939506Y-84904574D01*
X153014033Y-85016112D01*
X153108888Y-85110967D01*
X153220426Y-85185494D01*
X153344360Y-85236829D01*
X153475927Y-85263000D01*
X153610073Y-85263000D01*
X153741640Y-85236829D01*
X153865574Y-85185494D01*
X153977112Y-85110967D01*
X154071967Y-85016112D01*
X154146494Y-84904574D01*
X154197829Y-84780640D01*
X154224000Y-84649073D01*
X154224000Y-84514927D01*
X154197829Y-84383360D01*
X154146494Y-84259426D01*
X154071967Y-84147888D01*
X153977112Y-84053033D01*
X153865574Y-83978506D01*
X153741640Y-83927171D01*
X153610073Y-83901000D01*
X153475927Y-83901000D01*
X153344360Y-83927171D01*
X153220426Y-83978506D01*
X153108888Y-84053033D01*
X153014033Y-84147888D01*
X152939506Y-84259426D01*
X152888171Y-84383360D01*
X152862000Y-84514927D01*
X148350152Y-84514927D01*
X148356967Y-84508112D01*
X148431494Y-84396574D01*
X148482829Y-84272640D01*
X148509000Y-84141073D01*
X148509000Y-84006927D01*
X148482829Y-83875360D01*
X148431494Y-83751426D01*
X148356967Y-83639888D01*
X148262112Y-83545033D01*
X148150574Y-83470506D01*
X148026640Y-83419171D01*
X147895073Y-83393000D01*
X147760927Y-83393000D01*
X147629360Y-83419171D01*
X147505426Y-83470506D01*
X147393888Y-83545033D01*
X147299033Y-83639888D01*
X147224506Y-83751426D01*
X147173171Y-83875360D01*
X147147000Y-84006927D01*
X136138803Y-84006927D01*
X136197112Y-83967967D01*
X136291967Y-83873112D01*
X136366494Y-83761574D01*
X136417829Y-83637640D01*
X136430055Y-83576176D01*
X136453360Y-83585829D01*
X136584927Y-83612000D01*
X136719073Y-83612000D01*
X136850640Y-83585829D01*
X136974574Y-83534494D01*
X137086112Y-83459967D01*
X137180967Y-83365112D01*
X137255494Y-83253574D01*
X137306829Y-83129640D01*
X137333000Y-82998073D01*
X137333000Y-82863927D01*
X137306829Y-82732360D01*
X137255494Y-82608426D01*
X137180967Y-82496888D01*
X137086112Y-82402033D01*
X136974574Y-82327506D01*
X136850640Y-82276171D01*
X136719073Y-82250000D01*
X136584927Y-82250000D01*
X136453360Y-82276171D01*
X136329426Y-82327506D01*
X136217888Y-82402033D01*
X136123033Y-82496888D01*
X136048506Y-82608426D01*
X135997171Y-82732360D01*
X135984945Y-82793824D01*
X135961640Y-82784171D01*
X135830073Y-82758000D01*
X135695927Y-82758000D01*
X135662261Y-82764697D01*
X135655829Y-82732360D01*
X135604494Y-82608426D01*
X135529967Y-82496888D01*
X135435112Y-82402033D01*
X135323574Y-82327506D01*
X135199640Y-82276171D01*
X135068073Y-82250000D01*
X134933927Y-82250000D01*
X134802360Y-82276171D01*
X134678426Y-82327506D01*
X134566888Y-82402033D01*
X134472033Y-82496888D01*
X134397506Y-82608426D01*
X134346171Y-82732360D01*
X134339739Y-82764697D01*
X134306073Y-82758000D01*
X134171927Y-82758000D01*
X134040360Y-82784171D01*
X134017055Y-82793824D01*
X134004829Y-82732360D01*
X133953494Y-82608426D01*
X133878967Y-82496888D01*
X133784112Y-82402033D01*
X133672574Y-82327506D01*
X133548640Y-82276171D01*
X133417073Y-82250000D01*
X133282927Y-82250000D01*
X133151360Y-82276171D01*
X133027426Y-82327506D01*
X132915888Y-82402033D01*
X132821033Y-82496888D01*
X132746506Y-82608426D01*
X132695171Y-82732360D01*
X132688739Y-82764697D01*
X132655073Y-82758000D01*
X132520927Y-82758000D01*
X132389360Y-82784171D01*
X132265426Y-82835506D01*
X132153888Y-82910033D01*
X132059033Y-83004888D01*
X131984506Y-83116426D01*
X131933171Y-83240360D01*
X131907000Y-83371927D01*
X118456000Y-83371927D01*
X118456000Y-82609927D01*
X120858000Y-82609927D01*
X120858000Y-82744073D01*
X120884171Y-82875640D01*
X120935506Y-82999574D01*
X121010033Y-83111112D01*
X121104888Y-83205967D01*
X121216426Y-83280494D01*
X121340360Y-83331829D01*
X121471927Y-83358000D01*
X121606073Y-83358000D01*
X121737640Y-83331829D01*
X121861574Y-83280494D01*
X121973112Y-83205967D01*
X122067967Y-83111112D01*
X122142494Y-82999574D01*
X122193829Y-82875640D01*
X122220000Y-82744073D01*
X122220000Y-82609927D01*
X122193829Y-82478360D01*
X122142494Y-82354426D01*
X122067967Y-82242888D01*
X121973112Y-82148033D01*
X121861574Y-82073506D01*
X121737640Y-82022171D01*
X121606073Y-81996000D01*
X121471927Y-81996000D01*
X121340360Y-82022171D01*
X121216426Y-82073506D01*
X121104888Y-82148033D01*
X121010033Y-82242888D01*
X120935506Y-82354426D01*
X120884171Y-82478360D01*
X120858000Y-82609927D01*
X118456000Y-82609927D01*
X118456000Y-81847927D01*
X129875000Y-81847927D01*
X129875000Y-81982073D01*
X129901171Y-82113640D01*
X129952506Y-82237574D01*
X130027033Y-82349112D01*
X130121888Y-82443967D01*
X130233426Y-82518494D01*
X130357360Y-82569829D01*
X130488927Y-82596000D01*
X130623073Y-82596000D01*
X130754640Y-82569829D01*
X130878574Y-82518494D01*
X130990112Y-82443967D01*
X131084967Y-82349112D01*
X131159494Y-82237574D01*
X131163075Y-82228927D01*
X150703000Y-82228927D01*
X150703000Y-82363073D01*
X150729171Y-82494640D01*
X150780506Y-82618574D01*
X150855033Y-82730112D01*
X150949888Y-82824967D01*
X151061426Y-82899494D01*
X151185360Y-82950829D01*
X151316927Y-82977000D01*
X151451073Y-82977000D01*
X151582640Y-82950829D01*
X151706574Y-82899494D01*
X151818112Y-82824967D01*
X151833322Y-82809757D01*
X154979000Y-82809757D01*
X154979000Y-83052243D01*
X155026307Y-83290069D01*
X155119102Y-83514097D01*
X155253820Y-83715717D01*
X155425283Y-83887180D01*
X155626903Y-84021898D01*
X155850931Y-84114693D01*
X156088757Y-84162000D01*
X156331243Y-84162000D01*
X156569069Y-84114693D01*
X156793097Y-84021898D01*
X156994717Y-83887180D01*
X157166180Y-83715717D01*
X157300898Y-83514097D01*
X157393693Y-83290069D01*
X157441000Y-83052243D01*
X157441000Y-82809757D01*
X157393693Y-82571931D01*
X157300898Y-82347903D01*
X157166180Y-82146283D01*
X156994717Y-81974820D01*
X156793097Y-81840102D01*
X156569069Y-81747307D01*
X156331243Y-81700000D01*
X156088757Y-81700000D01*
X155850931Y-81747307D01*
X155626903Y-81840102D01*
X155425283Y-81974820D01*
X155253820Y-82146283D01*
X155119102Y-82347903D01*
X155026307Y-82571931D01*
X154979000Y-82809757D01*
X151833322Y-82809757D01*
X151912967Y-82730112D01*
X151987494Y-82618574D01*
X152038829Y-82494640D01*
X152065000Y-82363073D01*
X152065000Y-82228927D01*
X152038829Y-82097360D01*
X151987494Y-81973426D01*
X151912967Y-81861888D01*
X151818112Y-81767033D01*
X151706574Y-81692506D01*
X151582640Y-81641171D01*
X151451073Y-81615000D01*
X151316927Y-81615000D01*
X151185360Y-81641171D01*
X151061426Y-81692506D01*
X150949888Y-81767033D01*
X150855033Y-81861888D01*
X150780506Y-81973426D01*
X150729171Y-82097360D01*
X150703000Y-82228927D01*
X131163075Y-82228927D01*
X131210829Y-82113640D01*
X131237000Y-81982073D01*
X131237000Y-81847927D01*
X131210829Y-81716360D01*
X131159494Y-81592426D01*
X131084967Y-81480888D01*
X130990112Y-81386033D01*
X130878574Y-81311506D01*
X130754640Y-81260171D01*
X130623073Y-81234000D01*
X130488927Y-81234000D01*
X130357360Y-81260171D01*
X130233426Y-81311506D01*
X130121888Y-81386033D01*
X130027033Y-81480888D01*
X129952506Y-81592426D01*
X129901171Y-81716360D01*
X129875000Y-81847927D01*
X118456000Y-81847927D01*
X118456000Y-80958927D01*
X123144000Y-80958927D01*
X123144000Y-81093073D01*
X123170171Y-81224640D01*
X123221506Y-81348574D01*
X123296033Y-81460112D01*
X123390888Y-81554967D01*
X123502426Y-81629494D01*
X123626360Y-81680829D01*
X123757927Y-81707000D01*
X123892073Y-81707000D01*
X124023640Y-81680829D01*
X124147574Y-81629494D01*
X124259112Y-81554967D01*
X124353967Y-81460112D01*
X124428494Y-81348574D01*
X124479829Y-81224640D01*
X124506000Y-81093073D01*
X124506000Y-80958927D01*
X124479829Y-80827360D01*
X124428494Y-80703426D01*
X124353967Y-80591888D01*
X124259112Y-80497033D01*
X124147574Y-80422506D01*
X124023640Y-80371171D01*
X123892073Y-80345000D01*
X123757927Y-80345000D01*
X123626360Y-80371171D01*
X123502426Y-80422506D01*
X123390888Y-80497033D01*
X123296033Y-80591888D01*
X123221506Y-80703426D01*
X123170171Y-80827360D01*
X123144000Y-80958927D01*
X118456000Y-80958927D01*
X118456000Y-80010000D01*
X123571000Y-80010000D01*
X123595776Y-80007560D01*
X123619601Y-80000333D01*
X123641557Y-79988597D01*
X123660803Y-79972803D01*
X123689420Y-79944186D01*
X123769640Y-79928229D01*
X123893574Y-79876894D01*
X124005112Y-79802367D01*
X124099967Y-79707512D01*
X124174494Y-79595974D01*
X124225829Y-79472040D01*
X124241786Y-79391820D01*
X124288806Y-79344800D01*
X124323873Y-79344800D01*
X124455440Y-79318629D01*
X124579374Y-79267294D01*
X124690912Y-79192767D01*
X124762679Y-79121000D01*
X126813736Y-79121000D01*
X126880626Y-79165694D01*
X127004560Y-79217029D01*
X127136127Y-79243200D01*
X127270273Y-79243200D01*
X127401840Y-79217029D01*
X127525774Y-79165694D01*
X127592664Y-79121000D01*
X129413000Y-79121000D01*
X129437776Y-79118560D01*
X129461601Y-79111333D01*
X129483557Y-79099597D01*
X129502803Y-79083803D01*
X129518597Y-79064557D01*
X129530333Y-79042601D01*
X129537560Y-79018776D01*
X129540000Y-78994000D01*
X129540000Y-76581000D01*
X131064000Y-76581000D01*
X131064000Y-80645000D01*
X131066440Y-80669776D01*
X131073667Y-80693601D01*
X131085403Y-80715557D01*
X131101197Y-80734803D01*
X131120443Y-80750597D01*
X131142399Y-80762333D01*
X131166224Y-80769560D01*
X131191000Y-80772000D01*
X138049000Y-80772000D01*
X138073776Y-80769560D01*
X138097601Y-80762333D01*
X138119557Y-80750597D01*
X138138803Y-80734803D01*
X138154597Y-80715557D01*
X138166333Y-80693601D01*
X138173560Y-80669776D01*
X138176000Y-80645000D01*
X138176000Y-78603865D01*
X139865815Y-78603865D01*
X139865815Y-78738011D01*
X139891986Y-78869578D01*
X139943321Y-78993512D01*
X140017848Y-79105050D01*
X140105171Y-79192373D01*
X140061666Y-79235878D01*
X139987139Y-79347416D01*
X139935804Y-79471350D01*
X139909633Y-79602917D01*
X139909633Y-79737063D01*
X139935804Y-79868630D01*
X139987139Y-79992564D01*
X140061666Y-80104102D01*
X140126723Y-80169159D01*
X140059993Y-80235888D01*
X139985466Y-80347426D01*
X139934131Y-80471360D01*
X139907960Y-80602927D01*
X139907960Y-80737073D01*
X139934131Y-80868640D01*
X139985466Y-80992574D01*
X140059993Y-81104112D01*
X140154848Y-81198967D01*
X140266386Y-81273494D01*
X140390320Y-81324829D01*
X140521887Y-81351000D01*
X140656033Y-81351000D01*
X140787600Y-81324829D01*
X140911534Y-81273494D01*
X141023072Y-81198967D01*
X141117927Y-81104112D01*
X141192454Y-80992574D01*
X141243789Y-80868640D01*
X141269960Y-80737073D01*
X141269960Y-80602927D01*
X141243789Y-80471360D01*
X141192454Y-80347426D01*
X141117927Y-80235888D01*
X141078966Y-80196927D01*
X143845000Y-80196927D01*
X143845000Y-80331073D01*
X143871171Y-80462640D01*
X143922506Y-80586574D01*
X143997033Y-80698112D01*
X144091888Y-80792967D01*
X144203426Y-80867494D01*
X144327360Y-80918829D01*
X144458927Y-80945000D01*
X144593073Y-80945000D01*
X144724640Y-80918829D01*
X144848574Y-80867494D01*
X144960112Y-80792967D01*
X145054967Y-80698112D01*
X145129494Y-80586574D01*
X145180829Y-80462640D01*
X145207000Y-80331073D01*
X145207000Y-80196927D01*
X145180829Y-80065360D01*
X145129494Y-79941426D01*
X145054967Y-79829888D01*
X144960112Y-79735033D01*
X144848574Y-79660506D01*
X144724640Y-79609171D01*
X144593073Y-79583000D01*
X144458927Y-79583000D01*
X144327360Y-79609171D01*
X144203426Y-79660506D01*
X144091888Y-79735033D01*
X143997033Y-79829888D01*
X143922506Y-79941426D01*
X143871171Y-80065360D01*
X143845000Y-80196927D01*
X141078966Y-80196927D01*
X141052871Y-80170832D01*
X141119600Y-80104102D01*
X141194127Y-79992564D01*
X141245462Y-79868630D01*
X141271633Y-79737063D01*
X141271633Y-79602917D01*
X141245462Y-79471350D01*
X141194127Y-79347416D01*
X141119600Y-79235878D01*
X141032277Y-79148555D01*
X141075782Y-79105050D01*
X141150309Y-78993512D01*
X141201644Y-78869578D01*
X141227815Y-78738011D01*
X141227815Y-78603865D01*
X141201644Y-78472298D01*
X141150309Y-78348364D01*
X141075782Y-78236826D01*
X140980927Y-78141971D01*
X140869389Y-78067444D01*
X140745455Y-78016109D01*
X140613888Y-77989938D01*
X140479742Y-77989938D01*
X140348175Y-78016109D01*
X140224241Y-78067444D01*
X140112703Y-78141971D01*
X140017848Y-78236826D01*
X139943321Y-78348364D01*
X139891986Y-78472298D01*
X139865815Y-78603865D01*
X138176000Y-78603865D01*
X138176000Y-76132927D01*
X150830000Y-76132927D01*
X150830000Y-76267073D01*
X150856171Y-76398640D01*
X150907506Y-76522574D01*
X150982033Y-76634112D01*
X151076888Y-76728967D01*
X151188426Y-76803494D01*
X151312360Y-76854829D01*
X151443927Y-76881000D01*
X151578073Y-76881000D01*
X151709640Y-76854829D01*
X151833574Y-76803494D01*
X151945112Y-76728967D01*
X152039967Y-76634112D01*
X152114494Y-76522574D01*
X152165829Y-76398640D01*
X152192000Y-76267073D01*
X152192000Y-76132927D01*
X152165829Y-76001360D01*
X152114494Y-75877426D01*
X152039967Y-75765888D01*
X151945112Y-75671033D01*
X151833574Y-75596506D01*
X151709640Y-75545171D01*
X151578073Y-75519000D01*
X151443927Y-75519000D01*
X151312360Y-75545171D01*
X151188426Y-75596506D01*
X151076888Y-75671033D01*
X150982033Y-75765888D01*
X150907506Y-75877426D01*
X150856171Y-76001360D01*
X150830000Y-76132927D01*
X138176000Y-76132927D01*
X138176000Y-73787000D01*
X138173560Y-73762224D01*
X138166333Y-73738399D01*
X138154597Y-73716443D01*
X138138803Y-73697197D01*
X138119557Y-73681403D01*
X138097601Y-73669667D01*
X138073776Y-73662440D01*
X138049000Y-73660000D01*
X131191000Y-73660000D01*
X131166224Y-73662440D01*
X131142399Y-73669667D01*
X131120443Y-73681403D01*
X131101197Y-73697197D01*
X131085403Y-73716443D01*
X131073667Y-73738399D01*
X131066440Y-73762224D01*
X131064000Y-73787000D01*
X131064000Y-74676000D01*
X129685784Y-74676000D01*
X129661429Y-74553560D01*
X129610094Y-74429626D01*
X129540000Y-74324722D01*
X129540000Y-73406000D01*
X129537560Y-73381224D01*
X129530333Y-73357399D01*
X129520460Y-73338927D01*
X150830000Y-73338927D01*
X150830000Y-73473073D01*
X150856171Y-73604640D01*
X150907506Y-73728574D01*
X150982033Y-73840112D01*
X151076888Y-73934967D01*
X151188426Y-74009494D01*
X151312360Y-74060829D01*
X151443927Y-74087000D01*
X151578073Y-74087000D01*
X151709640Y-74060829D01*
X151833574Y-74009494D01*
X151945112Y-73934967D01*
X152039967Y-73840112D01*
X152114494Y-73728574D01*
X152165829Y-73604640D01*
X152192000Y-73473073D01*
X152192000Y-73338927D01*
X152165829Y-73207360D01*
X152114494Y-73083426D01*
X152039967Y-72971888D01*
X151945112Y-72877033D01*
X151833574Y-72802506D01*
X151709640Y-72751171D01*
X151578073Y-72725000D01*
X151443927Y-72725000D01*
X151312360Y-72751171D01*
X151188426Y-72802506D01*
X151076888Y-72877033D01*
X150982033Y-72971888D01*
X150907506Y-73083426D01*
X150856171Y-73207360D01*
X150830000Y-73338927D01*
X129520460Y-73338927D01*
X129518597Y-73335443D01*
X129502803Y-73316197D01*
X129483557Y-73300403D01*
X129461601Y-73288667D01*
X129437776Y-73281440D01*
X129413000Y-73279000D01*
X127762000Y-73279000D01*
X127762000Y-73084264D01*
X127806694Y-73017374D01*
X127858029Y-72893440D01*
X127884200Y-72761873D01*
X127884200Y-72627727D01*
X127858029Y-72496160D01*
X127806694Y-72372226D01*
X127762000Y-72305336D01*
X127762000Y-71501000D01*
X127759560Y-71476224D01*
X127752333Y-71452399D01*
X127740597Y-71430443D01*
X127724803Y-71411197D01*
X127705557Y-71395403D01*
X127683601Y-71383667D01*
X127659776Y-71376440D01*
X127635000Y-71374000D01*
X126005447Y-71374000D01*
X126004737Y-71370427D01*
X130891000Y-71370427D01*
X130891000Y-71504573D01*
X130917171Y-71636140D01*
X130968506Y-71760074D01*
X131043033Y-71871612D01*
X131137888Y-71966467D01*
X131249426Y-72040994D01*
X131373360Y-72092329D01*
X131504927Y-72118500D01*
X131639073Y-72118500D01*
X131770640Y-72092329D01*
X131894574Y-72040994D01*
X132006112Y-71966467D01*
X132100967Y-71871612D01*
X132175494Y-71760074D01*
X132205378Y-71687927D01*
X139781000Y-71687927D01*
X139781000Y-71822073D01*
X139807171Y-71953640D01*
X139858506Y-72077574D01*
X139933033Y-72189112D01*
X140027888Y-72283967D01*
X140139426Y-72358494D01*
X140263360Y-72409829D01*
X140394927Y-72436000D01*
X140529073Y-72436000D01*
X140660640Y-72409829D01*
X140784574Y-72358494D01*
X140896112Y-72283967D01*
X140990967Y-72189112D01*
X141065494Y-72077574D01*
X141116829Y-71953640D01*
X141143000Y-71822073D01*
X141143000Y-71814927D01*
X152989000Y-71814927D01*
X152989000Y-71949073D01*
X153015171Y-72080640D01*
X153066506Y-72204574D01*
X153141033Y-72316112D01*
X153235888Y-72410967D01*
X153347426Y-72485494D01*
X153471360Y-72536829D01*
X153602927Y-72563000D01*
X153737073Y-72563000D01*
X153868640Y-72536829D01*
X153992574Y-72485494D01*
X154104112Y-72410967D01*
X154198967Y-72316112D01*
X154273494Y-72204574D01*
X154324829Y-72080640D01*
X154351000Y-71949073D01*
X154351000Y-71814927D01*
X154324829Y-71683360D01*
X154273494Y-71559426D01*
X154198967Y-71447888D01*
X154104112Y-71353033D01*
X153992574Y-71278506D01*
X153868640Y-71227171D01*
X153737073Y-71201000D01*
X153602927Y-71201000D01*
X153471360Y-71227171D01*
X153347426Y-71278506D01*
X153235888Y-71353033D01*
X153141033Y-71447888D01*
X153066506Y-71559426D01*
X153015171Y-71683360D01*
X152989000Y-71814927D01*
X141143000Y-71814927D01*
X141143000Y-71687927D01*
X141116829Y-71556360D01*
X141065494Y-71432426D01*
X140990967Y-71320888D01*
X140896112Y-71226033D01*
X140784574Y-71151506D01*
X140660640Y-71100171D01*
X140529073Y-71074000D01*
X140394927Y-71074000D01*
X140263360Y-71100171D01*
X140139426Y-71151506D01*
X140027888Y-71226033D01*
X139933033Y-71320888D01*
X139858506Y-71432426D01*
X139807171Y-71556360D01*
X139781000Y-71687927D01*
X132205378Y-71687927D01*
X132226829Y-71636140D01*
X132253000Y-71504573D01*
X132253000Y-71370427D01*
X132226829Y-71238860D01*
X132175494Y-71114926D01*
X132100967Y-71003388D01*
X132006112Y-70908533D01*
X131894574Y-70834006D01*
X131770640Y-70782671D01*
X131639073Y-70756500D01*
X131504927Y-70756500D01*
X131373360Y-70782671D01*
X131249426Y-70834006D01*
X131137888Y-70908533D01*
X131043033Y-71003388D01*
X130968506Y-71114926D01*
X130917171Y-71238860D01*
X130891000Y-71370427D01*
X126004737Y-71370427D01*
X126003829Y-71365868D01*
X125952494Y-71241934D01*
X125877967Y-71130396D01*
X125783112Y-71035541D01*
X125671574Y-70961014D01*
X125547640Y-70909679D01*
X125416073Y-70883508D01*
X125281927Y-70883508D01*
X125150360Y-70909679D01*
X125026426Y-70961014D01*
X124914888Y-71035541D01*
X124820033Y-71130396D01*
X124745506Y-71241934D01*
X124694171Y-71365868D01*
X124692553Y-71374000D01*
X123186690Y-71374000D01*
X123276217Y-71314180D01*
X123447680Y-71142717D01*
X123582398Y-70941097D01*
X123675193Y-70717069D01*
X123709434Y-70544927D01*
X127335000Y-70544927D01*
X127335000Y-70679073D01*
X127361171Y-70810640D01*
X127412506Y-70934574D01*
X127487033Y-71046112D01*
X127581888Y-71140967D01*
X127693426Y-71215494D01*
X127817360Y-71266829D01*
X127948927Y-71293000D01*
X128083073Y-71293000D01*
X128214640Y-71266829D01*
X128338574Y-71215494D01*
X128450112Y-71140967D01*
X128544967Y-71046112D01*
X128619494Y-70934574D01*
X128670829Y-70810640D01*
X128697000Y-70679073D01*
X128697000Y-70544927D01*
X128670829Y-70413360D01*
X128619494Y-70289426D01*
X128544967Y-70177888D01*
X128450112Y-70083033D01*
X128338574Y-70008506D01*
X128214640Y-69957171D01*
X128083073Y-69931000D01*
X127948927Y-69931000D01*
X127817360Y-69957171D01*
X127693426Y-70008506D01*
X127581888Y-70083033D01*
X127487033Y-70177888D01*
X127412506Y-70289426D01*
X127361171Y-70413360D01*
X127335000Y-70544927D01*
X123709434Y-70544927D01*
X123722500Y-70479243D01*
X123722500Y-70236757D01*
X123675193Y-69998931D01*
X123582398Y-69774903D01*
X123447680Y-69573283D01*
X123276217Y-69401820D01*
X123074597Y-69267102D01*
X122850569Y-69174307D01*
X122612743Y-69127000D01*
X122370257Y-69127000D01*
X122281800Y-69144595D01*
X122664768Y-68985965D01*
X123182651Y-68639927D01*
X126573000Y-68639927D01*
X126573000Y-68774073D01*
X126599171Y-68905640D01*
X126650506Y-69029574D01*
X126725033Y-69141112D01*
X126819888Y-69235967D01*
X126931426Y-69310494D01*
X127055360Y-69361829D01*
X127186927Y-69388000D01*
X127321073Y-69388000D01*
X127452640Y-69361829D01*
X127576574Y-69310494D01*
X127688112Y-69235967D01*
X127782967Y-69141112D01*
X127857494Y-69029574D01*
X127908829Y-68905640D01*
X127935000Y-68774073D01*
X127935000Y-68639927D01*
X127909738Y-68512927D01*
X134955000Y-68512927D01*
X134955000Y-68647073D01*
X134981171Y-68778640D01*
X135032506Y-68902574D01*
X135107033Y-69014112D01*
X135201888Y-69108967D01*
X135313426Y-69183494D01*
X135437360Y-69234829D01*
X135568927Y-69261000D01*
X135703073Y-69261000D01*
X135834640Y-69234829D01*
X135958574Y-69183494D01*
X136070112Y-69108967D01*
X136164967Y-69014112D01*
X136239494Y-68902574D01*
X136290829Y-68778640D01*
X136317000Y-68647073D01*
X136317000Y-68512927D01*
X141813000Y-68512927D01*
X141813000Y-68647073D01*
X141839171Y-68778640D01*
X141890506Y-68902574D01*
X141965033Y-69014112D01*
X142059888Y-69108967D01*
X142171426Y-69183494D01*
X142295360Y-69234829D01*
X142426927Y-69261000D01*
X142561073Y-69261000D01*
X142692640Y-69234829D01*
X142816574Y-69183494D01*
X142928112Y-69108967D01*
X143022967Y-69014112D01*
X143097494Y-68902574D01*
X143148829Y-68778640D01*
X143175000Y-68647073D01*
X143175000Y-68512927D01*
X148671000Y-68512927D01*
X148671000Y-68647073D01*
X148697171Y-68778640D01*
X148748506Y-68902574D01*
X148823033Y-69014112D01*
X148917888Y-69108967D01*
X149029426Y-69183494D01*
X149153360Y-69234829D01*
X149284927Y-69261000D01*
X149419073Y-69261000D01*
X149550640Y-69234829D01*
X149674574Y-69183494D01*
X149786112Y-69108967D01*
X149880967Y-69014112D01*
X149955494Y-68902574D01*
X150006829Y-68778640D01*
X150033000Y-68647073D01*
X150033000Y-68512927D01*
X155529000Y-68512927D01*
X155529000Y-68647073D01*
X155555171Y-68778640D01*
X155606506Y-68902574D01*
X155681033Y-69014112D01*
X155775888Y-69108967D01*
X155887426Y-69183494D01*
X156011360Y-69234829D01*
X156142927Y-69261000D01*
X156277073Y-69261000D01*
X156408640Y-69234829D01*
X156532574Y-69183494D01*
X156644112Y-69108967D01*
X156738967Y-69014112D01*
X156813494Y-68902574D01*
X156864829Y-68778640D01*
X156891000Y-68647073D01*
X156891000Y-68512927D01*
X156864829Y-68381360D01*
X156813494Y-68257426D01*
X156738967Y-68145888D01*
X156644112Y-68051033D01*
X156532574Y-67976506D01*
X156408640Y-67925171D01*
X156277073Y-67899000D01*
X156142927Y-67899000D01*
X156011360Y-67925171D01*
X155887426Y-67976506D01*
X155775888Y-68051033D01*
X155681033Y-68145888D01*
X155606506Y-68257426D01*
X155555171Y-68381360D01*
X155529000Y-68512927D01*
X150033000Y-68512927D01*
X150006829Y-68381360D01*
X149955494Y-68257426D01*
X149880967Y-68145888D01*
X149786112Y-68051033D01*
X149674574Y-67976506D01*
X149550640Y-67925171D01*
X149419073Y-67899000D01*
X149284927Y-67899000D01*
X149153360Y-67925171D01*
X149029426Y-67976506D01*
X148917888Y-68051033D01*
X148823033Y-68145888D01*
X148748506Y-68257426D01*
X148697171Y-68381360D01*
X148671000Y-68512927D01*
X143175000Y-68512927D01*
X143148829Y-68381360D01*
X143097494Y-68257426D01*
X143022967Y-68145888D01*
X142928112Y-68051033D01*
X142816574Y-67976506D01*
X142692640Y-67925171D01*
X142561073Y-67899000D01*
X142426927Y-67899000D01*
X142295360Y-67925171D01*
X142171426Y-67976506D01*
X142059888Y-68051033D01*
X141965033Y-68145888D01*
X141890506Y-68257426D01*
X141839171Y-68381360D01*
X141813000Y-68512927D01*
X136317000Y-68512927D01*
X136290829Y-68381360D01*
X136239494Y-68257426D01*
X136164967Y-68145888D01*
X136070112Y-68051033D01*
X135958574Y-67976506D01*
X135834640Y-67925171D01*
X135703073Y-67899000D01*
X135568927Y-67899000D01*
X135437360Y-67925171D01*
X135313426Y-67976506D01*
X135201888Y-68051033D01*
X135107033Y-68145888D01*
X135032506Y-68257426D01*
X134981171Y-68381360D01*
X134955000Y-68512927D01*
X127909738Y-68512927D01*
X127908829Y-68508360D01*
X127857494Y-68384426D01*
X127782967Y-68272888D01*
X127688112Y-68178033D01*
X127576574Y-68103506D01*
X127452640Y-68052171D01*
X127321073Y-68026000D01*
X127186927Y-68026000D01*
X127055360Y-68052171D01*
X126931426Y-68103506D01*
X126819888Y-68178033D01*
X126725033Y-68272888D01*
X126650506Y-68384426D01*
X126599171Y-68508360D01*
X126573000Y-68639927D01*
X123182651Y-68639927D01*
X123185769Y-68637844D01*
X123628844Y-68194769D01*
X123976965Y-67673768D01*
X124102819Y-67369927D01*
X128351000Y-67369927D01*
X128351000Y-67504073D01*
X128377171Y-67635640D01*
X128428506Y-67759574D01*
X128503033Y-67871112D01*
X128597888Y-67965967D01*
X128709426Y-68040494D01*
X128833360Y-68091829D01*
X128964927Y-68118000D01*
X129099073Y-68118000D01*
X129230640Y-68091829D01*
X129354574Y-68040494D01*
X129466112Y-67965967D01*
X129560967Y-67871112D01*
X129635494Y-67759574D01*
X129686829Y-67635640D01*
X129713000Y-67504073D01*
X129713000Y-67369927D01*
X132288000Y-67369927D01*
X132288000Y-67504073D01*
X132314171Y-67635640D01*
X132365506Y-67759574D01*
X132440033Y-67871112D01*
X132534888Y-67965967D01*
X132646426Y-68040494D01*
X132770360Y-68091829D01*
X132901927Y-68118000D01*
X133036073Y-68118000D01*
X133167640Y-68091829D01*
X133291574Y-68040494D01*
X133403112Y-67965967D01*
X133497967Y-67871112D01*
X133572494Y-67759574D01*
X133623829Y-67635640D01*
X133650000Y-67504073D01*
X133650000Y-67369927D01*
X133623829Y-67238360D01*
X133572494Y-67114426D01*
X133497967Y-67002888D01*
X133403112Y-66908033D01*
X133291574Y-66833506D01*
X133167640Y-66782171D01*
X133036073Y-66756000D01*
X132901927Y-66756000D01*
X132770360Y-66782171D01*
X132646426Y-66833506D01*
X132534888Y-66908033D01*
X132440033Y-67002888D01*
X132365506Y-67114426D01*
X132314171Y-67238360D01*
X132288000Y-67369927D01*
X129713000Y-67369927D01*
X129686829Y-67238360D01*
X129635494Y-67114426D01*
X129560967Y-67002888D01*
X129466112Y-66908033D01*
X129354574Y-66833506D01*
X129230640Y-66782171D01*
X129099073Y-66756000D01*
X128964927Y-66756000D01*
X128833360Y-66782171D01*
X128709426Y-66833506D01*
X128597888Y-66908033D01*
X128503033Y-67002888D01*
X128428506Y-67114426D01*
X128377171Y-67238360D01*
X128351000Y-67369927D01*
X124102819Y-67369927D01*
X124216755Y-67094863D01*
X124339000Y-66480301D01*
X124339000Y-65853699D01*
X124216755Y-65239137D01*
X124073963Y-64894406D01*
X131586346Y-64894406D01*
X131586346Y-65028552D01*
X131612517Y-65160119D01*
X131663852Y-65284053D01*
X131738379Y-65395591D01*
X131833234Y-65490446D01*
X131944772Y-65564973D01*
X132068706Y-65616308D01*
X132200273Y-65642479D01*
X132334419Y-65642479D01*
X132465986Y-65616308D01*
X132589920Y-65564973D01*
X132701458Y-65490446D01*
X132796313Y-65395591D01*
X132870840Y-65284053D01*
X132922175Y-65160119D01*
X132948346Y-65028552D01*
X132948346Y-64956927D01*
X135844000Y-64956927D01*
X135844000Y-65091073D01*
X135870171Y-65222640D01*
X135921506Y-65346574D01*
X135996033Y-65458112D01*
X136090888Y-65552967D01*
X136202426Y-65627494D01*
X136326360Y-65678829D01*
X136457927Y-65705000D01*
X136592073Y-65705000D01*
X136723640Y-65678829D01*
X136847574Y-65627494D01*
X136959112Y-65552967D01*
X136962432Y-65549647D01*
X136965820Y-65554717D01*
X137137283Y-65726180D01*
X137338903Y-65860898D01*
X137562931Y-65953693D01*
X137800757Y-66001000D01*
X138043243Y-66001000D01*
X138281069Y-65953693D01*
X138505097Y-65860898D01*
X138706717Y-65726180D01*
X138878180Y-65554717D01*
X139012898Y-65353097D01*
X139105693Y-65129069D01*
X139153000Y-64891243D01*
X139153000Y-64648757D01*
X141771000Y-64648757D01*
X141771000Y-64891243D01*
X141818307Y-65129069D01*
X141911102Y-65353097D01*
X142045820Y-65554717D01*
X142217283Y-65726180D01*
X142418903Y-65860898D01*
X142642931Y-65953693D01*
X142880757Y-66001000D01*
X143123243Y-66001000D01*
X143361069Y-65953693D01*
X143585097Y-65860898D01*
X143786717Y-65726180D01*
X143958180Y-65554717D01*
X144092898Y-65353097D01*
X144185693Y-65129069D01*
X144233000Y-64891243D01*
X144233000Y-64648757D01*
X146851000Y-64648757D01*
X146851000Y-64891243D01*
X146898307Y-65129069D01*
X146991102Y-65353097D01*
X147125820Y-65554717D01*
X147297283Y-65726180D01*
X147498903Y-65860898D01*
X147722931Y-65953693D01*
X147960757Y-66001000D01*
X148203243Y-66001000D01*
X148441069Y-65953693D01*
X148665097Y-65860898D01*
X148866717Y-65726180D01*
X149038180Y-65554717D01*
X149172898Y-65353097D01*
X149265693Y-65129069D01*
X149313000Y-64891243D01*
X149313000Y-64648757D01*
X151931000Y-64648757D01*
X151931000Y-64891243D01*
X151978307Y-65129069D01*
X152071102Y-65353097D01*
X152205820Y-65554717D01*
X152377283Y-65726180D01*
X152578903Y-65860898D01*
X152802931Y-65953693D01*
X153040757Y-66001000D01*
X153283243Y-66001000D01*
X153521069Y-65953693D01*
X153745097Y-65860898D01*
X153946717Y-65726180D01*
X154118180Y-65554717D01*
X154252898Y-65353097D01*
X154345693Y-65129069D01*
X154393000Y-64891243D01*
X154393000Y-64648757D01*
X154345693Y-64410931D01*
X154252898Y-64186903D01*
X154118180Y-63985283D01*
X153946717Y-63813820D01*
X153745097Y-63679102D01*
X153521069Y-63586307D01*
X153283243Y-63539000D01*
X153040757Y-63539000D01*
X152802931Y-63586307D01*
X152578903Y-63679102D01*
X152377283Y-63813820D01*
X152205820Y-63985283D01*
X152071102Y-64186903D01*
X151978307Y-64410931D01*
X151931000Y-64648757D01*
X149313000Y-64648757D01*
X149265693Y-64410931D01*
X149172898Y-64186903D01*
X149038180Y-63985283D01*
X148866717Y-63813820D01*
X148665097Y-63679102D01*
X148441069Y-63586307D01*
X148203243Y-63539000D01*
X147960757Y-63539000D01*
X147722931Y-63586307D01*
X147498903Y-63679102D01*
X147297283Y-63813820D01*
X147125820Y-63985283D01*
X146991102Y-64186903D01*
X146898307Y-64410931D01*
X146851000Y-64648757D01*
X144233000Y-64648757D01*
X144185693Y-64410931D01*
X144092898Y-64186903D01*
X143958180Y-63985283D01*
X143786717Y-63813820D01*
X143585097Y-63679102D01*
X143361069Y-63586307D01*
X143123243Y-63539000D01*
X142880757Y-63539000D01*
X142642931Y-63586307D01*
X142418903Y-63679102D01*
X142217283Y-63813820D01*
X142045820Y-63985283D01*
X141911102Y-64186903D01*
X141818307Y-64410931D01*
X141771000Y-64648757D01*
X139153000Y-64648757D01*
X139105693Y-64410931D01*
X139012898Y-64186903D01*
X138878180Y-63985283D01*
X138706717Y-63813820D01*
X138505097Y-63679102D01*
X138281069Y-63586307D01*
X138043243Y-63539000D01*
X137800757Y-63539000D01*
X137562931Y-63586307D01*
X137338903Y-63679102D01*
X137137283Y-63813820D01*
X136965820Y-63985283D01*
X136831102Y-64186903D01*
X136750923Y-64380472D01*
X136723640Y-64369171D01*
X136592073Y-64343000D01*
X136457927Y-64343000D01*
X136326360Y-64369171D01*
X136202426Y-64420506D01*
X136090888Y-64495033D01*
X135996033Y-64589888D01*
X135921506Y-64701426D01*
X135870171Y-64825360D01*
X135844000Y-64956927D01*
X132948346Y-64956927D01*
X132948346Y-64894406D01*
X132922175Y-64762839D01*
X132870840Y-64638905D01*
X132796313Y-64527367D01*
X132701458Y-64432512D01*
X132589920Y-64357985D01*
X132465986Y-64306650D01*
X132334419Y-64280479D01*
X132200273Y-64280479D01*
X132068706Y-64306650D01*
X131944772Y-64357985D01*
X131833234Y-64432512D01*
X131738379Y-64527367D01*
X131663852Y-64638905D01*
X131612517Y-64762839D01*
X131586346Y-64894406D01*
X124073963Y-64894406D01*
X123976965Y-64660232D01*
X123628844Y-64139231D01*
X123185769Y-63696156D01*
X122826349Y-63456000D01*
X154877695Y-63456000D01*
X155413131Y-63508500D01*
M02*
